<?xml version="1.0" encoding="utf-8"?>
<!-- Generator: Adobe Illustrator 25.0.1, SVG Export Plug-In . SVG Version: 6.00 Build 0)  -->
<svg version="1.1" id="Capa_1" xmlns="http://www.w3.org/2000/svg" xmlns:xlink="http://www.w3.org/1999/xlink" x="0px" y="0px"
	 viewBox="0 0 800 800" enable-background="new 0 0 800 800" xml:space="preserve">
<g id="pelo">
	<g id="Capa_74">
		<g>
			<g>
				<g>
					<path fill-rule="evenodd" clip-rule="evenodd" fill="#DBAD8F" d="M160.036,332.435c4.89-6.569,11.427-10.516,17.688-16.001
						c6.413-5.616,13.68-10.646,20.538-15.82c15.073-11.37,31.345-20.424,46.415-31.914c29.62-22.582,57.501-47.974,87.237-70.056
						c13.96-10.367,26.125-19.607,42.004-26.749c10.383-4.67,19.721-0.572,28.845,4.085c8.684,4.432,18.926,10.067,27.663,14.105
						c17.667,8.167,34.641,16.053,51.904,24.333c15.971,7.66,27.521,17.197,42.789,25.715c33.004,18.41,66.225,36.463,99.536,55.596
						c16.21,9.31,33.533,17.545,49.428,27.793c15.16,9.774,31.932,19.371,48.066,27.415c10.737,5.355,20.632,9.395,21.12,21.801
						c0.279,7.143-0.267,8.352-6.614,11.391c-4.31,2.064-13.378,5.11-17.833,6.574c-10.116,3.327-15.067,4.113-25.578,6.775
						c-10.115,2.562-24.111,4.627-33.686,7.426c-9.764,2.852-19.595,5.7-29.755,8.121c-9.554,2.272-19.556,2.733-28.867,5.443
						c-20.449,5.954-39.869,6.53-60.712,10.971c-43.474,9.26-91.39,9.85-137.146,11.425c-46.322,1.593-95.147,1.538-141.778-1.342
						c-10.854-0.67-22.002-1.45-32.113-3.04c-11.037-1.734-22.114-2.984-33.162-4.2c-22.217-2.438-44.263-5.583-67.058-6.992
						c-8.765-0.544-59.904-0.801-58.981-13.871c0.357-5.05,13.789-14.4,17.908-17.745c7.456-6.058,14.028-12.156,20.977-18.215
						c8.295-7.231,15.496-16.249,24.13-23.301c9.703-7.925,19.959-13.703,29.381-21.712"/>
					<g>
						<g>
							<g>
								<g>
									<g>
										<path d="M457.78,202.995c0,0-5.81-2.473-16.315-6.944c-1.312-0.561-2.699-1.153-4.156-1.775
											c-0.729-0.312-1.475-0.63-2.239-0.957c-0.754-0.348-1.526-0.704-2.314-1.067c-3.155-1.457-6.583-3.04-10.266-4.741
											c-3.673-1.726-7.646-3.474-11.775-5.514c-4.15-1.991-8.43-4.344-13.058-6.343c-4.636-1.984-9.714-3.554-15.07-5.041
											c-0.595-0.168-1.192-0.338-1.792-0.508l-0.103-0.028l-0.099,0.049l-0.263,0.134l-0.944,0.473
											c-1.261,0.632-2.534,1.271-3.82,1.915c-2.521,1.392-5.123,2.741-7.688,4.278c-10.341,5.98-20.979,13.131-32.199,20.616
											c-11.204,7.461-22.639,15.746-33.564,25.414c-10.927,9.912-23.03,19.277-35.568,28.54
											c-12.544,9.272-24.929,18.067-36.528,27.027c-5.776,4.518-11.449,8.956-17.006,13.303
											c-5.52,4.408-10.924,8.723-16.197,12.933c-5.318,4.167-10.504,8.229-15.543,12.176c-2.493,2.007-5.086,3.812-7.574,5.672
											c-2.503,1.84-4.965,3.65-7.387,5.431c-4.878,3.535-9.451,7.04-13.876,10.394c-2.203,1.691-4.302,3.431-6.39,5.087
											c-2.084,1.663-4.119,3.293-6.062,4.944c-1.956,1.634-3.867,3.228-5.728,4.782c-1.845,1.576-3.641,3.11-5.388,4.603
											c-3.482,3.001-6.765,5.831-9.835,8.477c-6.139,5.297-11.411,9.882-15.792,13.546c-4.343,3.707-7.794,6.491-10.127,8.386
											c-2.332,1.896-3.557,2.891-3.557,2.891s1.193-1.034,3.463-3.003c2.273-1.966,5.637-4.85,9.873-8.675
											c4.273-3.782,9.419-8.502,15.427-13.948c3.009-2.72,6.226-5.628,9.638-8.712c1.716-1.533,3.481-3.109,5.292-4.728
											c1.832-1.597,3.712-3.236,5.638-4.915c1.913-1.694,3.921-3.372,5.98-5.082c2.064-1.705,4.134-3.49,6.319-5.232
											c4.391-3.46,8.957-7.087,13.739-10.676c2.385-1.813,4.811-3.657,7.277-5.531c2.451-1.892,5.005-3.727,7.466-5.766
											c4.976-4.004,10.097-8.125,15.349-12.351c5.23-4.266,10.59-8.639,16.065-13.105c5.5-4.441,11.193-8.899,16.953-13.474
											c11.594-9.073,23.984-17.936,36.492-27.182c12.514-9.245,24.529-18.477,35.43-28.24
											c11.149-9.743,22.798-18.011,34.14-25.373c11.319-7.359,22.088-14.376,32.632-20.245c2.61-1.506,5.271-2.829,7.843-4.189
											c1.314-0.63,2.617-1.254,3.907-1.873l0.965-0.461l0.689-0.331c0.126-0.057,0.25-0.128,0.377-0.173l0.404,0.122
											c0.749,0.227,1.494,0.454,2.235,0.679c5.347,1.594,10.481,3.289,15.19,5.421c4.702,2.151,8.9,4.585,12.994,6.664
											c4.068,2.127,7.993,3.965,11.616,5.778c3.635,1.792,7.017,3.459,10.13,4.994c0.778,0.384,1.54,0.76,2.285,1.128
											c0.754,0.347,1.491,0.686,2.21,1.016c1.439,0.662,2.808,1.292,4.103,1.888C452.049,200.351,457.78,202.995,457.78,202.995
											z"/>
									</g>
								</g>
							</g>
							<g>
								<g>
									<g>
										<path d="M630.088,412.58c0,0,0.477-0.191,1.408-0.565c0.943-0.343,2.389-0.738,4.308-1.131
											c1.913-0.403,4.325-0.744,7.051-1.556c0.696-0.167,1.347-0.507,2.068-0.771c0.803-0.235,1.537-0.385,2.35-0.592
											c1.601-0.389,3.306-0.804,5.11-1.242c3.61-0.876,7.625-1.85,12.018-2.915c4.373-1.15,9.123-2.399,14.227-3.742
											c5.1-1.37,10.553-2.834,16.335-4.387c5.812-1.47,11.928-3.079,18.408-4.646c6.452-1.509,13.262-3.048,19.712-6.044
											c3.162-1.521,6.315-3.47,8.314-6.3c0.988-1.406,1.555-3.046,1.628-4.751c0.08-1.709-0.344-3.466-1.049-5.145
											c-1.445-3.381-3.948-6.384-6.818-9.048c-2.898-2.661-6.186-5.026-9.648-7.241c-6.943-4.438-14.608-8.188-22.372-12.427
											c-7.656-4.378-15.572-8.627-23.604-13.126c-7.988-4.565-16.143-9.227-24.446-13.973c-4.154-2.357-8.346-4.736-12.57-7.133
											c-4.253-2.339-8.58-4.613-12.916-6.952c-8.647-4.68-17.587-9.315-26.554-14.066c-4.505-2.347-8.884-4.853-13.287-7.25
											c-4.386-2.426-8.743-4.835-13.068-7.228c-8.604-4.854-17.082-9.637-25.412-14.336
											c-16.667-9.374-32.743-18.416-48.059-27.029c-7.709-4.205-15.228-8.306-22.531-12.29
											c-3.651-1.995-7.25-3.961-10.792-5.896c-3.548-1.923-7.109-3.678-10.572-5.48c-6.944-3.571-13.651-7.021-20.098-10.336
											c-3.229-1.649-6.37-3.308-9.483-4.856c-3.12-1.534-6.172-3.034-9.152-4.499c-2.968-1.497-5.924-2.809-8.78-4.151
											c-2.869-1.333-5.664-2.63-8.381-3.891c-5.406-2.63-10.387-5.253-15.329-6.969c-2.443-0.833-4.956-1.536-7.221-1.211
											c-1.167,0.235-2.338,0.559-3.472,0.825c-1.124,0.323-2.211,0.681-3.283,1.012c-4.239,1.479-7.79,3.602-10.674,5.908
											c-2.871,2.329-5.264,4.627-7.522,6.397c-1.106,0.913-2.202,1.661-3.18,2.372c-1.024,0.646-1.929,1.268-2.782,1.749
											c-0.855,0.478-1.608,0.899-2.257,1.263c-0.669,0.324-1.231,0.596-1.683,0.814c-0.903,0.436-1.366,0.66-1.366,0.66
											s0.456-0.235,1.349-0.694c0.445-0.229,1-0.515,1.66-0.854c0.639-0.378,1.38-0.816,2.222-1.313
											c0.838-0.501,1.726-1.142,2.729-1.807c0.958-0.732,2.029-1.499,3.11-2.433c2.208-1.812,4.535-4.149,7.385-6.565
											c2.863-2.395,6.455-4.647,10.74-6.238c1.082-0.358,2.182-0.745,3.317-1.096c1.155-0.295,2.301-0.639,3.53-0.912
											c2.636-0.416,5.203,0.309,7.737,1.102c5.081,1.658,10.171,4.227,15.57,6.736c2.734,1.213,5.547,2.461,8.436,3.742
											c2.887,1.298,5.885,2.57,8.874,4.02c3.007,1.42,6.084,2.874,9.231,4.36c3.139,1.502,6.309,3.116,9.564,4.721
											c6.502,3.233,13.266,6.596,20.268,10.079c3.492,1.761,7.084,3.476,10.659,5.36c3.567,1.897,7.192,3.824,10.87,5.779
											c7.354,3.916,14.922,7.947,22.684,12.08c7.729,4.19,15.591,8.589,23.65,13.032c8.044,4.468,16.258,9.03,24.619,13.675
											c8.346,4.668,16.839,9.419,25.459,14.24c4.322,2.379,8.677,4.777,13.061,7.19c4.396,2.386,8.772,4.886,13.263,7.226
											c8.958,4.746,17.808,9.348,26.523,14.092c4.352,2.361,8.698,4.663,12.959,7.027c4.224,2.421,8.414,4.823,12.566,7.203
											c8.319,4.75,16.402,9.503,24.363,14.118c7.988,4.548,15.911,8.885,23.471,13.3c7.618,4.253,15.34,8.124,22.391,12.738
											c3.521,2.309,6.896,4.788,9.918,7.629c2.991,2.85,5.682,6.107,7.276,9.958c0.777,1.921,1.274,4.022,1.147,6.157
											c-0.113,2.129-0.885,4.213-2.092,5.874c-1.199,1.674-2.712,3-4.293,4.106c-1.589,1.104-3.259,2.003-4.947,2.776
											c-6.79,3.031-13.708,4.461-20.19,5.875c-6.463,1.454-12.615,2.962-18.438,4.328c-5.81,1.448-11.287,2.813-16.409,4.09
											c-5.134,1.243-9.911,2.401-14.309,3.467c-4.418,0.975-8.454,1.866-12.085,2.667c-1.816,0.4-3.529,0.777-5.139,1.132
											c-0.788,0.18-1.62,0.343-2.298,0.52c-0.728,0.248-1.418,0.585-2.121,0.737c-2.78,0.759-5.192,1.04-7.113,1.397
											c-1.924,0.348-3.373,0.706-4.322,1.024C630.569,412.401,630.088,412.58,630.088,412.58z"/>
									</g>
								</g>
							</g>
							<g>
								<g>
									<g>
										<path d="M184.754,311.582c0,0-2.064,1.965-5.995,5.707c-3.846,3.836-9.924,9.046-17.677,15.852
											c-7.873,6.659-17.661,14.626-29.151,23.705c-5.713,4.575-11.858,9.423-18.271,14.662
											c-6.316,5.408-13.057,11.015-19.964,17.099c-3.455,3.038-6.957,6.187-10.44,9.497c-3.459,3.316-6.998,6.771-10.02,10.635
											c-0.716,0.973-1.434,1.982-1.89,2.996l-0.129,0.366c-0.028,0.087-0.068,0.153-0.071,0.216
											c-0.018,0.124-0.061,0.255,0.052,0.336l0.135,0.17c0.094,0.113,0.174,0.237,0.281,0.342l0.607,0.651
											c1.697,1.683,3.847,2.96,6.162,3.944c4.664,1.953,9.896,2.848,15.209,3.462c5.338,0.607,10.812,0.793,16.452,1.233
											c5.579,0.544,11.245,1.097,16.995,1.657c11.491,1.132,23.318,2.298,35.447,3.493c12.129,1.154,24.559,2.338,37.257,3.546
											c6.349,0.594,12.765,1.193,19.244,1.799c6.482,0.555,13.027,1.113,19.63,1.678c26.42,2.144,53.804,3.982,81.881,5.057
											c28.077,1.065,55.511,1.334,81.985,0.49c6.618-0.232,13.179-0.464,19.676-0.692c3.248-0.126,6.483-0.196,9.697-0.367
											c3.211-0.21,6.406-0.42,9.585-0.628c6.357-0.415,12.648-0.825,18.866-1.231c3.108-0.226,6.207-0.35,9.272-0.655
											c3.064-0.3,6.111-0.599,9.139-0.895c48.476-4.512,91.767-11.944,127.916-19.005c36.173-7.034,65.188-13.993,85.277-18.607
											c20.041-4.831,31.123-7.502,31.123-7.502s-11.037,2.855-30.997,8.017c-20.018,4.924-48.941,12.298-85.066,19.755
											c-36.102,7.483-79.394,15.35-127.981,20.192c-3.034,0.316-6.088,0.635-9.16,0.955c-3.071,0.325-6.176,0.469-9.29,0.713
											c-6.233,0.441-12.538,0.887-18.909,1.338c-3.186,0.224-6.39,0.449-9.608,0.676c-3.222,0.186-6.464,0.271-9.72,0.412
											c-6.513,0.255-13.088,0.512-19.723,0.772c-26.544,0.939-54.071,0.723-82.21-0.346
											c-28.144-1.078-55.575-2.972-82.021-5.211c-6.608-0.591-13.159-1.177-19.646-1.756c-6.485-0.594-12.898-1.269-19.25-1.891
											c-12.697-1.282-25.138-2.475-37.254-3.765c-12.118-1.282-23.935-2.533-35.416-3.748
											c-5.737-0.607-11.39-1.205-16.954-1.794c-5.522-0.48-11.074-0.718-16.503-1.386c-5.419-0.682-10.806-1.632-15.798-3.773
											c-2.478-1.085-4.854-2.507-6.792-4.467l-0.696-0.761c-0.121-0.123-0.217-0.268-0.324-0.401l-0.436-0.591l-0.228-0.311
											l-0.114-0.155l0.028-0.189l0.116-0.753c0.023-0.255,0.132-0.478,0.19-0.693l0.199-0.529
											c0.606-1.301,1.39-2.347,2.169-3.391c3.225-4.032,6.814-7.443,10.345-10.761c3.546-3.298,7.098-6.419,10.599-9.426
											c6.996-6.02,13.819-11.557,20.184-16.87c6.51-5.185,12.725-9.956,18.502-14.455c11.611-8.921,21.504-16.735,29.472-23.266
											c7.844-6.675,14.01-11.784,17.919-15.553C182.656,313.51,184.754,311.582,184.754,311.582z"/>
									</g>
								</g>
							</g>
						</g>
						<g>
							<g>
								<g>
									<path d="M378.459,168.945c0,0-66.52,54.656-148.947,121.66S79.995,411.562,79.995,411.562s66.52-54.656,148.947-121.66
										S378.459,168.945,378.459,168.945z"/>
								</g>
							</g>
						</g>
						<g>
							<g>
								<g>
									<path d="M378.459,168.945c0,0-62.844,54.853-140.749,122.111S96.37,412.481,96.37,412.481s62.844-54.853,140.749-122.111
										C315.023,223.113,378.459,168.945,378.459,168.945z"/>
								</g>
							</g>
						</g>
						<g>
							<g>
								<g>
									<path d="M378.459,168.945c0,0-58.69,55.209-131.484,122.918c-72.795,67.71-132.101,122.255-132.101,122.255
										s58.69-55.208,131.484-122.918C319.153,223.49,378.459,168.945,378.459,168.945z"/>
								</g>
							</g>
						</g>
						<g>
							<g>
								<g>
									<path d="M378.459,168.945c0,0-54.376,55.564-121.864,123.728S134.088,415.764,134.088,415.764
										s54.376-55.564,121.864-123.728S378.459,168.945,378.459,168.945z"/>
								</g>
							</g>
						</g>
						<g>
							<g>
								<g>
									<path d="M378.459,168.945c0,0-50.697,55.605-113.66,123.833c-62.963,68.229-114.325,123.22-114.325,123.22
										s50.697-55.604,113.66-123.833S378.459,168.945,378.459,168.945z"/>
								</g>
							</g>
						</g>
						<g>
							<g>
								<g>
									<path d="M378.459,168.945c0,0-47.176,55.49-105.808,123.591c-58.632,68.102-106.494,123-106.494,123
										s47.176-55.49,105.808-123.591S378.459,168.945,378.459,168.945z"/>
								</g>
							</g>
						</g>
						<g>
							<g>
								<g>
									<path d="M378.459,168.945c0,0-44.143,55.98-99.044,124.703c-54.902,68.723-99.751,124.138-99.751,124.138
										s44.143-55.98,99.044-124.703S378.459,168.945,378.459,168.945z"/>
								</g>
							</g>
						</g>
						<g>
							<g>
								<g>
									<path d="M378.459,168.945c0,0-39.031,56.644-87.648,126.214c-48.616,69.57-88.389,125.696-88.389,125.696
										s39.031-56.644,87.647-126.214C338.686,225.07,378.459,168.945,378.459,168.945z"/>
								</g>
							</g>
						</g>
						<g>
							<g>
								<g>
									<path d="M378.459,168.945c0,0-34.712,56.685-78.016,126.331s-78.785,125.853-78.785,125.853s34.712-56.685,78.016-126.331
										S378.459,168.945,378.459,168.945z"/>
								</g>
							</g>
						</g>
						<g>
							<g>
								<g>
									<path d="M378.459,168.945c0,0-26.24,57.066-59.122,127.24S259.396,423.04,259.396,423.04s26.24-57.066,59.122-127.24
										C351.399,225.627,378.459,168.945,378.459,168.945z"/>
								</g>
							</g>
						</g>
						<g>
							<g>
								<g>
									<path d="M378.459,168.945c0,0-17.616,57.746-39.884,128.829s-40.748,128.558-40.748,128.558s17.616-57.746,39.884-128.829
										C359.979,226.42,378.459,168.945,378.459,168.945z"/>
								</g>
							</g>
						</g>
						<g>
							<g>
								<g>
									<path d="M378.459,168.945c0,0-4.362,57.837-10.3,129.153s-11.202,129.079-11.202,129.079s4.362-57.837,10.3-129.153
										C373.195,226.707,378.459,168.945,378.459,168.945z"/>
								</g>
							</g>
						</g>
						<g>
							<g>
								<g>
									<path d="M378.459,168.945c0,0,7.12,57.758,15.351,129.087c8.231,71.329,14.452,129.191,14.452,129.191
										s-7.12-57.758-15.351-129.087S378.459,168.945,378.459,168.945z"/>
								</g>
							</g>
						</g>
						<g>
							<g>
								<g>
									<path d="M733.31,368.774c0,0-79.012-44.325-176.224-99.501C459.874,214.098,381.31,168.985,381.31,168.985
										s79.012,44.325,176.224,99.501S733.31,368.774,733.31,368.774z"/>
								</g>
							</g>
						</g>
						<g>
							<g>
								<g>
									<path d="M722.439,381.649c0,0-76.594-47.216-170.805-105.948C457.425,216.97,381.31,168.985,381.31,168.985
										s76.594,47.216,170.805,105.948C646.324,333.665,722.439,381.649,722.439,381.649z"/>
								</g>
							</g>
						</g>
						<g>
							<g>
								<g>
									<path d="M705.995,385.527c0,0-72.925-48.092-162.594-107.895S381.31,168.985,381.31,168.985s72.925,48.092,162.594,107.895
										C633.572,336.683,705.995,385.527,705.995,385.527z"/>
								</g>
							</g>
						</g>
						<g>
							<g>
								<g>
									<path d="M685.267,390.033c0,0-68.301-49.111-152.245-110.158c-83.943-61.047-151.712-110.89-151.712-110.89
										s68.301,49.111,152.245,110.158C617.498,340.19,685.267,390.033,685.267,390.033z"/>
								</g>
							</g>
						</g>
						<g>
							<g>
								<g>
									<path d="M660.985,393.802c0,0-62.883-49.968-140.121-112.056C443.626,219.659,381.31,168.985,381.31,168.985
										s62.883,49.968,140.121,112.056C598.669,343.128,660.985,393.802,660.985,393.802z"/>
								</g>
							</g>
						</g>
						<g>
							<g>
								<g>
									<path d="M635.25,399.606c0,0-57.144-51.285-127.274-114.976C437.845,220.94,381.31,168.985,381.31,168.985
										s57.143,51.285,127.274,114.976S635.25,399.606,635.25,399.606z"/>
								</g>
							</g>
						</g>
						<g>
							<g>
								<g>
									<path d="M608.052,408.132c0,0-51.08-53.217-113.699-119.262c-62.62-66.045-113.043-119.885-113.043-119.885
										s51.08,53.217,113.699,119.262C557.629,354.293,608.052,408.132,608.052,408.132z"/>
								</g>
							</g>
						</g>
						<g>
							<g>
								<g>
									<path d="M558.836,411.544c0,0-40.1-54.024-89.128-121.012c-49.028-66.987-88.398-121.546-88.398-121.546
										s40.101,54.024,89.128,121.012C519.466,356.985,558.836,411.544,558.836,411.544z"/>
								</g>
							</g>
						</g>
						<g>
							<g>
								<g>
									<path d="M510.987,419.09c0,0-29.428-55.772-65.24-124.844c-35.814-69.072-64.438-125.261-64.438-125.261
										s29.428,55.772,65.24,124.844C482.363,362.901,510.987,419.09,510.987,419.09z"/>
								</g>
							</g>
						</g>
						<g>
							<g>
								<g>
									<path d="M461.77,422.502c0,0-18.44-56.608-40.662-126.622c-22.221-70.014-39.799-126.895-39.799-126.895
										s18.441,56.607,40.662,126.622C444.192,365.621,461.77,422.502,461.77,422.502z"/>
								</g>
							</g>
						</g>
						<g>
							<g>
								<g>
									<path d="M731.076,375.6c0,0-78.518-45.856-175.113-102.918C459.367,215.621,381.31,168.985,381.31,168.985
										s78.518,45.856,175.113,102.917C653.019,328.964,731.076,375.6,731.076,375.6z"/>
								</g>
							</g>
						</g>
					</g>
				</g>
				<g opacity="0.3">
					<g>
						<g>
							<path fill="#FFFFFF" d="M523.273,406.921c0,0-0.499-0.604-1.451-1.754c-0.929-1.167-2.416-2.812-4.052-5.136
								c-3.45-4.525-7.938-11.461-13.034-20.241c-2.572-4.383-5.283-9.191-8.361-14.31c-3.065-5.111-5.988-10.771-9.486-16.447
								c-6.789-11.479-14.723-23.84-22.926-36.956c-4.1-6.564-8.05-13-11.752-19.333c-0.921-1.587-1.833-3.16-2.737-4.717
								c-0.45-0.78-0.899-1.555-1.345-2.327c-0.425-0.774-0.847-1.544-1.267-2.31c-1.699-3.052-3.264-6.102-4.957-8.975
								c-6.578-11.604-12.86-21.928-17.751-30.84c-1.261-2.202-2.368-4.36-3.444-6.38c-1.056-2.033-2.108-3.914-2.98-5.738
								c-1.736-3.651-3.316-6.744-4.432-9.359c-2.198-5.232-3.414-8.126-3.414-8.126s1.475,2.765,4.143,7.765
								c1.328,2.497,3.155,5.447,5.145,8.929c1,1.739,2.186,3.536,3.373,5.477c1.21,1.93,2.447,3.989,3.844,6.1
								c5.421,8.532,12.237,18.481,19.297,29.941c1.814,2.836,3.484,5.845,5.282,8.871c0.444,0.76,0.89,1.523,1.338,2.291
								c0.46,0.751,0.922,1.505,1.386,2.263c0.926,1.517,1.859,3.049,2.803,4.594c3.776,6.181,7.792,12.57,11.884,19.119
								c8.191,13.1,15.901,25.712,22.328,37.542c3.321,5.861,5.992,11.652,8.791,16.912c2.8,5.244,5.254,10.261,7.526,14.775
								c4.509,9.059,8.391,16.249,11.42,21.025c1.425,2.449,2.742,4.207,3.557,5.458
								C522.835,406.271,523.273,406.921,523.273,406.921z"/>
						</g>
					</g>
				</g>
				<g opacity="0.3">
					<g>
						<g>
							<path fill="#FFFFFF" d="M569.701,399.355c0,0-0.544-0.513-1.579-1.489c-1.034-0.979-2.587-2.403-4.424-4.396
								c-1.894-1.942-4.08-4.44-6.569-7.378c-2.483-2.941-5.221-6.366-8.247-10.117c-1.503-1.891-3.12-3.816-4.776-5.853
								c-1.71-1.99-3.488-4.061-5.33-6.204c-3.704-4.305-7.663-8.904-11.829-13.744c-8.293-9.712-17.33-20.457-26.685-31.846
								c-37.418-45.554-65.728-84.119-65.728-84.119c-0.001,0,32.337,35.27,69.749,80.816c9.353,11.387,18.138,22.337,26.054,32.358
								c3.938,5.026,7.682,9.803,11.185,14.272c1.745,2.228,3.414,4.454,5.014,6.562c1.544,2.152,3.053,4.204,4.426,6.192
								c5.518,7.946,9.961,14.332,13.352,18.526c1.642,2.141,3.04,3.698,3.971,4.774
								C569.213,398.789,569.701,399.355,569.701,399.355z"/>
						</g>
					</g>
				</g>
				<g opacity="0.3">
					<g>
						<g>
							<path fill="#FFFFFF" d="M606.071,397.131c0,0-1.899-1.542-5.335-4.331c-0.855-0.706-1.808-1.49-2.849-2.35
								c-0.995-0.909-2.076-1.896-3.238-2.957c-1.159-1.066-2.399-2.207-3.715-3.417c-1.31-1.216-2.633-2.554-4.052-3.935
								c-2.832-2.77-5.899-5.831-9.171-9.137c-3.283-3.296-6.618-6.974-10.194-10.787c-7.085-7.645-14.875-16.051-23.052-24.875
								c-4.169-4.307-8.209-8.54-12.09-12.653c-4.035-3.957-7.928-7.774-11.636-11.41c-1.848-1.832-3.649-3.619-5.399-5.354
								c-1.754-1.785-3.455-3.518-5.101-5.193c-1.67-1.654-3.161-3.342-4.596-4.964c-1.435-1.62-2.813-3.175-4.128-4.659
								c-5.153-6.018-9.212-10.966-11.953-14.439c-2.74-3.472-4.257-5.392-4.257-5.392s6.92,6.897,18.105,18.048
								c1.416,1.366,2.9,2.798,4.446,4.29c1.538,1.499,3.132,3.065,4.867,4.57c3.443,3.091,7.123,6.393,10.995,9.868
								c3.89,3.518,8.018,7.174,12.164,11.1c4.021,4.051,8.162,8.271,12.373,12.622c2.142,2.146,4.072,4.419,6.053,6.597
								c1.955,2.198,3.881,4.364,5.775,6.492c3.799,4.257,7.325,8.431,10.695,12.413c3.387,3.965,6.505,7.828,9.555,11.321
								c3.034,3.507,5.861,6.774,8.441,9.756c1.295,1.485,2.498,2.934,3.684,4.251c1.187,1.317,2.308,2.559,3.354,3.721
								c1.045,1.168,2.017,2.254,2.913,3.254c0.937,0.958,1.793,1.833,2.562,2.621C604.369,395.377,606.071,397.131,606.071,397.131
								z"/>
						</g>
					</g>
				</g>
				<g opacity="0.3">
					<g>
						<g>
							<path fill="#FFFFFF" d="M648.847,395.685c0,0-6.945-4.83-17.909-12.939c-5.491-4.048-12.001-8.913-19.152-14.409
								c-3.553-2.785-7.259-5.739-11.084-8.824s-7.785-6.278-11.684-9.753c-3.931-3.434-7.741-6.817-11.398-10.107
								c-3.653-3.284-7.049-6.465-10.43-9.455c-6.706-5.996-12.737-11.51-17.551-16.403c-1.198-1.229-2.3-2.444-3.357-3.571
								c-1.05-1.135-2.059-2.183-2.912-3.255c-0.871-1.049-1.682-2.026-2.428-2.925c-0.747-0.895-1.426-1.713-1.965-2.512
								c-2.214-3.121-3.438-4.847-3.438-4.847s1.443,1.538,4.055,4.318c0.627,0.712,1.399,1.438,2.242,2.23
								c0.836,0.797,1.744,1.663,2.72,2.594c0.948,0.951,2.06,1.878,3.208,2.885c1.156,1,2.352,2.079,3.645,3.174
								c5.198,4.362,11.574,9.316,18.625,14.965c3.53,2.795,7.179,5.929,10.914,9.096c3.729,3.163,7.565,6.46,11.468,9.87
								c3.866,3.447,7.761,6.692,11.481,9.874c3.72,3.182,7.282,6.281,10.67,9.246c6.837,5.87,12.93,11.233,18.012,15.788
								C642.731,389.854,648.847,395.685,648.847,395.685z"/>
						</g>
					</g>
				</g>
				<g opacity="0.3">
					<g>
						<g>
							<path d="M296.37,278.869c0,0-0.2,0.48-0.58,1.395c-0.392,0.912-1.045,2.228-2.011,3.861
								c-0.987,1.616-2.301,3.539-3.965,5.653c-1.657,2.12-3.66,4.432-5.842,6.964c-1.092,1.267-2.218,2.594-3.345,3.995
								c-0.559,0.702-1.126,1.418-1.666,2.164c-0.281,0.368-0.552,0.744-0.809,1.13l-0.396,0.578l-0.2,0.29l-0.289,0.394
								c-2.346,3.148-4.852,6.513-7.489,10.053c-5.216,7.127-10.921,15-17.044,23.207c-3.086,4.09-6.176,8.047-9.16,11.854
								c-3.069,3.764-6.113,7.326-9.04,10.654c-5.862,6.66-11.124,12.599-15.387,17.733c-4.2,5.17-7.442,9.503-9.551,12.595
								c-2.098,3.111-3.258,4.832-3.258,4.832s0.912-1.869,2.561-5.249c1.701-3.36,4.429-8.099,8.162-13.732
								c3.787-5.584,8.613-12.018,14.092-18.979c2.739-3.485,5.585-7.125,8.5-10.924c2.853-3.87,5.845-7.833,8.919-11.908
								c12.221-16.383,23.928-30.872,33.512-40.476c2.434-2.325,4.64-4.38,6.495-6.263c1.861-1.876,3.364-3.579,4.533-5.028
								c1.146-1.463,1.967-2.662,2.482-3.501C296.102,279.314,296.37,278.869,296.37,278.869z"/>
						</g>
					</g>
				</g>
			</g>
			<path opacity="0.3" fill-rule="evenodd" clip-rule="evenodd" enable-background="new    " d="M247.892,436.75
				c4.149,0.536,8.824,2.725,12.919,3.84c59.567,16.21,119.452,23.51,181.263,19.363c17.586-1.181,35.125-2.958,52.592-5.212
				c27.052-3.491,52.958-11.723,73.364-29.871c-18.077,4.554-28.016,5.532-47.193,7.094c-9.841,0.8-19.477,2.379-29.081,3.596
				c-9.983,1.265-20.209,1.603-30.042,3.002c-20.494,2.918-39.137,2.035-60.046,3.8c-20.664,1.742-45.041-0.334-66.436-0.641
				c-21.747-0.311-43.605-0.121-64.796-2.483c-7.582-0.845-15.873-0.725-23.183-2.807"/>
		</g>
	</g>
</g>
</svg>
