<?xml version="1.0" encoding="utf-8"?>
<!-- Generator: Adobe Illustrator 25.0.1, SVG Export Plug-In . SVG Version: 6.00 Build 0)  -->
<svg version="1.1" id="Capa_1" xmlns="http://www.w3.org/2000/svg" xmlns:xlink="http://www.w3.org/1999/xlink" x="0px" y="0px"
	 viewBox="0 0 800 800" enable-background="new 0 0 800 800" xml:space="preserve">
<g id="pelo">
	<g id="Capa_69">
		<g>
			<path d="M238,351.5c-1.049,2.679-0.326,6.362-1.002,9.498c-0.641,2.973-2.747,5.644-2.498,8.851
				c0.204-4.662-4.502-11.565-6.536-15.66c1.199,2.009,2.104,4.128,3.061,6.135c-0.054-3.244-0.137-6.56,0.074-9.771
				c1.932,1.566,3.15,4.362,4.288,6.41c1.353-8.441-4.795-18.76-8.423-26.275c1.716,1.281,3.018,3.273,3.561,5.136
				c-0.151-8.99-2.742-16.139-3.526-24.323c-0.689-7.2,2.761-19.804-1.026-25.823c1.27,7.267,4.526,13.858,4.526,20.895
				c0-9.857-3.678-18.772-3.498-27.92c0.854,4.827,5.824,11.308,8.385,15.311c1.129-6.063-0.696-15.733-2.41-21.288
				c1.684,4.152,4.671,8.064,6.549,12.149c-0.286-17.044,2.08-38.562-6.023-52.398c0.24,4.353,5.405,8.589,7.873,12.087
				c2.674,3.79,4.723,8.629,5.622,12.061c0.02-16.293,0.232-32.608-0.022-48.898c3.32,3.958,6.526,8.141,9.659,12.273
				c1.012-1.54,1.03-3.413,1.452-5.385c0.472,0.462,2.187,1.129,2.802,1.873c2.838-6.74,1.111-17.414,1.111-24.937
				c0-7.32,1.105-17.496-2.036-23.813c2.236,2.424,6.512,6.165,9.913,6.436c3.01,0.239,3.161-1.453,5.625-1.621
				c2.544-0.174,4.535,1.717,6.998,2.024c4.806,0.598,8.966-1.775,14-1.026c3.725,0.555,8.347,2.098,11.538,4.311
				c-0.352-2.408-1.81-4.159-3.197-6.249c2.293,1.458,6.345,4.749,9.583,5.374c0.018-0.598,0.146-1.265,0.151-1.86
				c6.504-0.394,13.96,0.346,20.436,0.913c6.02,0.527,12.25,4.447,17.913,4.436c0.002-0.587,0.148-1.261,0.151-1.849
				c3.35-0.565,6.298,1.084,9.424,1.424c3.775,0.411,6.987-0.672,10.502-1.5c6.143-1.447,12.634-2.847,18.406-5.95
				c-0.73,2.112-2.608,3.634-4.868,4.573c6.86,2.142,53.604-2.537,54.534,1.803c13.065,0.647,22.724-0.739,34.361-5.863
				c-0.925,1.738-3.33,2.859-4.895,4.337c15.162,2.086,30.274,1.672,45.908,2.699c-0.637,0.618-0.885,1.723-1.498,2.398
				c4.118,4.647,19.15-1.875,17.159,5.639c-1.538,5.804-9.348,9.029-8.634,15.688c3.027-3.383,7.085-7.056,10.999-8.839
				c4.769-2.173,8.626-3.08,11.936-7.423c-2.955,5.173-10.01,9.43-12.058,14.862c-0.183,0.188-0.188,0.183-0.015-0.014
				c1.996-1.947,4.508-3.641,6.71-5.21c-2.902,6.29-6.396,12.389-9.487,18.599c3.71-2.606,7.238-5.391,10.863-8.138
				c-0.555,3.387-3.239,9.093-4.975,12.136c1.424-1.634,2.999-3.087,4.463-4.648c0.751,5.357-4.388,12.323-6.352,17.261
				c2.492-0.629,5.671-3.884,6.437-5.483c-0.196,2.628-1.64,4.845-2.032,7.424c0.577-0.843,1.405-1.245,1.959-1.811
				c0.115,1.947,0.036,3.972,0.149,5.92c0.402-0.483,1.428-1.045,1.95-1.783c-0.287,15.207-7.517,26.456-12.546,40.661
				c3.072-6.153,7.896-12.028,12.046-17.661c-0.368,4.755-3.14,10.718-4.401,15.323c-1.465,5.345-3.48,10.238-5.172,15.337
				c2.989-4.896,7.347-9.676,10.949-13.797c0.245,4.861-3.842,9.725-4.312,14.397c0.795-0.924,1.726-1.575,2.437-2.788
				c0.18,3.968-1.258,7.473-1.636,11.351c-0.369,3.783-0.176,8.412-1.315,11.923c1.545-1.25,3.579-4.326,3.924-5.496
				c0.26,5.089-2.742,10.494-4.013,15.047c-1.483,5.322-1.45,11.136-3.008,16.378c1.7-2.487,3.301-6.113,4.019-7.927
				c-0.506,3.447-1.872,6.989-2.421,10.537c0.408-0.366,0.979-0.745,1.449-1.285c0.146,3.3-1.136,6.531-1.499,9.823
				c-0.371,3.368-0.041,7.567-1.061,10.823c0.707-1.324,1.781-2.407,2.56-3.648c-1.042,7.824-3.024,16.102-3.024,23.896
				c0-8.304,0.336-16.727-0.074-24.998c-0.473-0.125-0.881-0.02-1.354-0.147c-0.678-2.424-0.011-5.598-1.461-7.363
				c-1.672,3.729-3.109,8.501-4.109,11.51c-0.14-8.714,2.352-17.826,2.522-26.922c-0.769,1.605-1.405,3.181-2.05,4.672
				c0.087-5.225,0.266-10.594-0.074-15.783c-0.205,0.305-1.084,1.12-1.303,1.42c-1.191-4.02-0.239-8.735-2.211-12.396
				c-4.064,2.637-4.528,9.229-5.912,13.259c0.239-14.295-2.088-28.646-10.85-40.161c-1.095,2.435-1.385,5.397-3.027,7.286
				c-0.939-6.615-4.681-14.142-7.596-19.976c-3.374-6.752-8.831-8.916-16.004-9.945c-14.55-2.086-29.501,5.504-41.483,13.596
				c-11.857,8.007-21.522,19.947-35.515,23.267c-10.992,2.608-37.103,7.425-41.889-6.891c-2.268-6.783,0.397-17.729,6.376-22.124
				c5.384-3.958,19.748-4.097,24.839,0.146c-7.39-1.57-14.06-2.829-20.462,2.354c-5.473,4.431-7.854,11.923-1.976,17.261
				c4.377,3.974,14.663,7.288,20.611,5.263c7.215-2.456,9.046-13.23,7.387-19.788c-3.409-13.473-19.377-20.25-30.887-24.488
				c-15.677-5.772-29.134,2.176-43.988,4.387c-9.698,1.443-21.96,1.285-31.362-0.51c6.655-0.008,14.327,0.216,19.424-1.5
				c-8.035,0.046-16.345,0.275-24.573,0.998c-7.077,0.622-12.716,5.18-18.851,8.524c2.896-0.061,5.822-1.717,8.285-2.95
				c-5.438,4.868-11.659,9.375-17.757,13.45c9.948,0.677,22.874-9.385,28.859-16.849c-5.046,16.065-27.472,20.127-32.973,35.149
				c4.516-3.864,9.881-7.165,13.762-11.785c-5.735,6.726-9.632,14.982-15.86,21.273c1.36-2.335,3.902-4.675,5.973-6.484
				c-8.404,6.997-10.402,16.912-14.975,26.508c2.156-3.777,6.346-6.479,8.061-10.663c-5.132,7.861-9.831,16.924-14.475,25.249
				c2.512-1.237,4.701-3.21,5.988-5.762c-3.75,7.435-7.957,17.375-6.536,25.839"/>
			<g>
				<g>
					<g>
						<path d="M224.667,353.334c0,0,0.229,0.089,0.631,0.245c0.208,0.071,0.448,0.18,0.713,0.328
							c0.271,0.139,0.583,0.296,0.892,0.513c1.296,0.797,2.771,2.247,4.111,3.7c1.35,1.447,2.684,2.786,3.777,3.455
							c0.536,0.358,1.004,0.56,1.325,0.713c0.331,0.118,0.524,0.188,0.538,0.192c0.088,0.049-0.204,0.881-0.652,1.854
							c-0.449,0.974-0.935,1.699-1.086,1.619c-0.017-0.012-0.278-0.187-0.722-0.485c-0.412-0.331-0.992-0.798-1.561-1.43
							c-1.187-1.243-2.234-3.059-3.184-4.772c-0.94-1.725-1.927-3.344-2.931-4.38c-0.236-0.275-0.484-0.489-0.705-0.684
							c-0.215-0.204-0.417-0.364-0.594-0.48C224.867,353.476,224.667,353.334,224.667,353.334z"/>
					</g>
				</g>
			</g>
			<g>
				<g>
					<g>
						<path d="M231.333,363c0,0,0.251,0.4,0.461,1.185c0.224,0.778,0.431,1.91,0.641,3.249c0.104,0.667,0.216,1.386,0.334,2.142
							c0.061,0.358,0.125,0.726,0.189,1.1c0.059,0.272,0.118,0.53,0.186,0.771c0.137,0.478,0.271,0.902,0.528,1.192
							c0.115,0.145,0.359,0.236,0.575,0.072c0.202-0.152,0.35-0.37,0.46-0.572c0.205-0.411,0.229-0.831,0.241-1.155
							c0.003-0.167-0.003-0.312-0.021-0.434l-0.006-0.045l0.004-0.13c0.003-0.087,0.005-0.175,0.002-0.266
							c-0.004-0.178-0.007-0.355-0.011-0.53c-0.04-1.403-0.188-2.724-0.327-3.851c-0.296-2.241-0.53-3.808-0.517-3.901
							c-0.008-0.279,0.858-0.5,1.929-0.493c1.072,0.007,1.947,0.163,1.952,0.346c0,0.055-0.012,1.564-0.03,3.874
							c-0.023,1.191-0.064,2.599-0.24,4.158c-0.024,0.195-0.048,0.392-0.072,0.591c-0.01,0.099-0.027,0.2-0.045,0.302l-0.068,0.393
							c-0.058,0.314-0.102,0.638-0.17,0.941c-0.083,0.287-0.167,0.576-0.251,0.867c-0.043,0.142-0.08,0.29-0.127,0.426l-0.179,0.359
							c-0.125,0.23-0.224,0.498-0.364,0.694l-0.438,0.557c-0.154,0.177-0.338,0.326-0.503,0.491
							c-0.384,0.253-0.814,0.514-1.292,0.572c-0.508,0.085-1.019-0.207-1.269-0.561c-0.551-0.695-0.823-1.724-0.961-2.838
							c-0.073-0.546-0.104-1.099-0.132-1.616c-0.023-0.499-0.021-0.825-0.028-1.231c-0.005-0.766-0.01-1.494-0.014-2.17
							c-0.011-1.346-0.049-2.478-0.155-3.266C231.522,363.43,231.333,363,231.333,363z"/>
					</g>
				</g>
			</g>
			<g>
				<g>
					<g>
						<path d="M241.333,346.667c0,0-0.515,1.572-1.289,3.934c-0.768,2.36-1.749,5.524-2.452,8.718
							c-0.704,3.192-1.064,6.414-0.946,8.757c0.046,1.174,0.195,2.122,0.294,2.789c0.15,0.648,0.238,1.03,0.244,1.055
							c0.029,0.198-0.801,0.534-1.851,0.748c-1.05,0.215-1.935,0.18-1.975-0.078c-0.003-0.032-0.044-0.516-0.115-1.339
							c-0.009-0.818-0.016-1.967,0.128-3.302c0.262-2.678,1.161-6.03,2.36-9.185c1.202-3.16,2.644-6.162,3.751-8.391
							C240.593,348.147,241.333,346.667,241.333,346.667z"/>
					</g>
				</g>
			</g>
			<g>
				<g>
					<g>
						<path d="M246.666,331.666c0,0-0.182,0.356-0.501,0.978c-0.311,0.628-0.807,1.499-1.419,2.536
							c-1.215,2.077-3.051,4.737-4.571,7.476c-0.74,1.376-1.415,2.766-1.849,4.108c-0.432,1.342-0.714,2.604-0.792,3.703
							c-0.056,0.546-0.095,1.046-0.071,1.497c0.015,0.448-0.017,0.833,0.03,1.16c0.065,0.646,0.104,1.027,0.106,1.052
							c0.004,0.196-0.863,0.417-1.932,0.492c-1.07,0.075-1.942-0.065-1.948-0.314c0.001-0.031,0.022-0.495,0.058-1.283
							c0.006-0.392,0.106-0.868,0.173-1.406c0.058-0.54,0.193-1.138,0.359-1.781c0.297-1.292,0.857-2.732,1.576-4.164
							c0.723-1.438,1.678-2.817,2.665-4.127c2.011-2.597,4.195-4.904,5.7-6.762c0.754-0.924,1.374-1.706,1.773-2.276
							C246.433,331.989,246.666,331.666,246.666,331.666z"/>
					</g>
				</g>
			</g>
			<g>
				<g>
					<g>
						<path d="M251.666,316.333c0,0-0.27,0.393-0.743,1.082c-0.225,0.358-0.542,0.755-0.933,1.192
							c-0.374,0.453-0.812,0.952-1.335,1.449c-2.012,2.071-5.166,4.379-7.306,7.317c-2.102,2.992-3.36,6.496-3.955,9.181
							c-0.323,1.34-0.473,2.482-0.599,3.281c-0.08,0.805-0.127,1.278-0.13,1.31c-0.041,0.244-0.937,0.328-2,0.189
							s-1.888-0.479-1.842-0.76c0.008-0.034,0.124-0.557,0.322-1.444c0.248-0.873,0.575-2.108,1.113-3.53
							c1.023-2.847,2.874-6.49,5.591-9.462c2.806-2.942,6.2-4.765,8.401-6.536c0.574-0.421,1.059-0.849,1.48-1.243
							c0.438-0.378,0.799-0.728,1.062-1.049C251.35,316.688,251.666,316.333,251.666,316.333z"/>
					</g>
				</g>
			</g>
			<g>
				<g>
					<g>
						<path d="M255.666,306.333c0,0-0.219,0.377-0.602,1.038c-0.179,0.344-0.448,0.723-0.775,1.147
							c-0.314,0.436-0.682,0.92-1.131,1.404c-1.7,2.012-4.488,4.314-6.581,6.867c-1.946,2.696-3.518,5.861-5.022,8.149
							c-0.732,1.159-1.458,2.104-1.971,2.777c-0.577,0.647-0.915,1.027-0.938,1.053c-0.195,0.192-0.933-0.303-1.646-1.103
							s-1.171-1.571-1.021-1.721c0.02-0.018,0.335-0.288,0.87-0.746c0.511-0.514,1.246-1.232,2.071-2.208
							c1.692-1.915,3.662-4.831,6.204-7.489c2.731-2.507,5.668-4.267,7.606-6.009c0.505-0.41,0.924-0.826,1.287-1.207
							c0.378-0.369,0.694-0.703,0.913-1.012C255.398,306.675,255.666,306.333,255.666,306.333z"/>
					</g>
				</g>
			</g>
			<g>
				<g>
					<g>
						<path d="M251.999,316.333c0,0-0.129,0.377-0.354,1.037c-0.102,0.337-0.266,0.729-0.47,1.174
							c-0.19,0.452-0.42,0.957-0.716,1.483c-1.103,2.161-3.031,4.788-4.938,7.337c-1.899,2.556-3.638,5.147-4.468,7.213
							c-0.449,1.021-0.682,1.9-0.861,2.511c-0.124,0.62-0.196,0.985-0.201,1.009c-0.053,0.182-0.947,0.138-1.992-0.098
							c-1.046-0.236-1.838-0.626-1.77-0.87c0.011-0.029,0.17-0.474,0.44-1.229c0.329-0.725,0.786-1.751,1.486-2.855
							c1.348-2.258,3.621-4.697,5.895-6.95c2.287-2.247,4.509-4.47,5.894-6.391c0.365-0.467,0.662-0.919,0.913-1.329
							c0.266-0.403,0.485-0.762,0.634-1.074C251.815,316.685,251.999,316.333,251.999,316.333z"/>
					</g>
				</g>
			</g>
			<g>
				<g>
					<g>
						<path d="M269.999,280c0,0-0.193,0.722-0.53,1.987c-0.289,1.284-0.943,3.057-1.919,5.118c-0.555,0.993-1.081,2.136-1.881,3.181
							c-0.384,0.533-0.746,1.116-1.182,1.651c-0.446,0.528-0.902,1.068-1.366,1.617c-1.906,2.141-4.138,4.242-6.337,6.263
							c-2.205,2.035-4.364,4.076-6.164,6.085c-1.786,2.013-3.193,4.013-3.984,5.804c-0.812,1.789-1.055,3.318-1.133,4.386
							c0.011,0.541-0.022,0.961,0.006,1.258c0.029,0.297,0.046,0.465,0.048,0.486c0.008,0.316-1.292,0.689-2.892,0.833
							c-1.602,0.144-2.917-0.159-2.932-0.676c0.001-0.031,0.006-0.285,0.016-0.732c0.017-0.447,0.122-1.09,0.225-1.89
							c0.297-1.587,0.979-3.801,2.339-6.006c1.337-2.221,3.302-4.344,5.507-6.295c2.221-1.941,4.676-3.745,7.109-5.499
							c2.45-1.755,4.818-3.499,6.884-5.315c0.504-0.466,0.998-0.924,1.482-1.373c0.477-0.457,0.875-0.959,1.303-1.42
							c0.889-0.902,1.508-1.918,2.162-2.809c1.175-1.858,2.035-3.521,2.471-4.746C269.721,280.692,269.999,280,269.999,280z"/>
					</g>
				</g>
			</g>
			<g>
				<g>
					<g>
						<path d="M226.333,283.667c0,0,0.81,1.984,2.027,4.965c1.208,2.98,2.794,6.974,4.751,10.693
							c1.947,3.729,4.363,7.062,6.523,9.159c1.048,1.081,2.032,1.859,2.705,2.423c0.708,0.525,1.124,0.835,1.151,0.855
							c0.198,0.178-0.471,1.331-1.492,2.572c-1.021,1.242-2.05,2.072-2.297,1.853c-0.028-0.029-0.458-0.473-1.19-1.227
							c-0.686-0.794-1.672-1.9-2.665-3.344c-2.068-2.836-4.074-6.971-5.42-11.161c-1.364-4.196-2.247-8.412-2.937-11.556
							C226.795,285.758,226.333,283.667,226.333,283.667z"/>
					</g>
				</g>
			</g>
			<g>
				<g>
					<g>
						<path d="M224.999,285c0,0,0.292,1.951,0.855,4.843c0.558,2.89,1.445,6.715,2.723,10.354c1.271,3.643,2.957,7.053,4.544,9.329
							c0.772,1.156,1.507,2.036,2.011,2.663c0.539,0.594,0.856,0.943,0.877,0.966c0.144,0.194-0.758,1.171-2.009,2.179
							c-1.253,1.009-2.417,1.628-2.601,1.382c-0.02-0.032-0.324-0.516-0.841-1.34c-0.465-0.85-1.129-2.041-1.762-3.515
							c-1.321-2.93-2.438-6.962-3.047-10.965c-0.617-4.011-0.781-7.994-0.8-10.962C224.927,286.965,224.999,285,224.999,285z"/>
					</g>
				</g>
			</g>
			<g>
				<g>
					<g>
						<path d="M222.999,305.667c0,0,0.148,0.373,0.407,1.025c0.129,0.323,0.285,0.715,0.464,1.165
							c0.089,0.223,0.184,0.461,0.284,0.711c0.126,0.241,0.258,0.494,0.396,0.758c0.551,1.055,1.159,2.282,2,3.503
							c0.75,1.261,1.73,2.499,2.662,3.744c1.982,2.42,4.097,4.696,5.861,6.208c0.433,0.385,0.815,0.753,1.178,1.052
							c0.367,0.29,0.688,0.545,0.955,0.757c0.527,0.422,0.837,0.671,0.857,0.688c0.145,0.146-0.632,1.218-1.732,2.39
							c-1.101,1.173-2.129,1.987-2.298,1.817c-0.019-0.023-0.303-0.374-0.786-0.969c-0.239-0.298-0.526-0.657-0.854-1.067
							c-0.319-0.414-0.644-0.905-1.013-1.424c-1.51-2.049-3.185-4.959-4.643-7.917c-0.673-1.517-1.37-2.999-1.844-4.471
							c-0.562-1.426-0.896-2.827-1.2-4.003c-0.076-0.293-0.148-0.574-0.218-0.841c-0.042-0.275-0.083-0.536-0.121-0.781
							c-0.074-0.486-0.139-0.91-0.192-1.259C223.059,306.061,222.999,305.667,222.999,305.667z"/>
					</g>
				</g>
			</g>
			<g>
				<g>
					<g>
						<path d="M236.999,240.333c0,0,0.042,0.723,0.114,1.988c0.033,0.631,0.07,1.397,0.193,2.27c0.122,0.873,0.181,1.86,0.39,2.923
							c0.664,4.271,2.163,9.829,4.157,15.22c0.988,2.622,2.132,5.5,2.816,8.281c0.68,2.779,1.056,5.417,1.319,7.672
							c0.237,2.253,0.371,4.123,0.46,5.443c0.08,1.311,0.128,2.083,0.13,2.133c0,0.407-1.305,0.736-2.913,0.735
							c-1.608,0-2.913-0.326-2.913-0.728c0.003-0.05,0.046-0.812,0.12-2.108c0.07-1.287,0.163-3.097,0.205-5.233
							c0.016-2.129-0.026-4.59-0.325-7.186c-0.306-2.597-0.989-5.25-1.693-8.181c-1.338-5.735-2.147-11.581-2.271-15.962
							c-0.074-1.092-0.009-2.101-0.02-2.986c-0.013-0.887,0.047-1.659,0.094-2.293C236.95,241.056,236.999,240.333,236.999,240.333z
							"/>
					</g>
				</g>
			</g>
			<g>
				<g>
					<g>
						<path d="M233.333,229.667c0,0,0.821,1.784,2.056,4.463c1.21,2.678,2.93,6.225,4.623,9.79c0.823,1.806,1.648,3.614,2.422,5.312
							c0.386,0.854,0.759,1.679,1.113,2.463c0.319,0.805,0.622,1.567,0.901,2.273c1.117,2.838,1.871,4.754,1.896,4.819
							c0.08,0.269-1.122,0.813-2.678,1.213c-1.558,0.401-2.882,0.52-2.957,0.265c-0.013-0.066-0.395-1.998-0.962-4.861
							c-0.141-0.72-0.293-1.498-0.455-2.32c-0.201-0.819-0.413-1.682-0.631-2.574c-0.443-1.788-0.915-3.692-1.387-5.595
							c-1.007-3.811-2.042-7.604-2.744-10.482C233.811,231.571,233.333,229.667,233.333,229.667z"/>
					</g>
				</g>
			</g>
			<g>
				<g>
					<g>
						<path d="M246.666,219c0,0,0.193,2.055,0.484,5.141c0.316,3.076,0.817,7.175,1.77,11.105c0.942,3.932,2.402,7.629,3.93,10.063
							c0.734,1.239,1.467,2.172,1.965,2.838c0.543,0.627,0.863,0.997,0.885,1.021c0.144,0.204-0.768,1.175-2.033,2.166
							c-1.266,0.992-2.447,1.583-2.637,1.318c-0.021-0.034-0.335-0.553-0.87-1.436c-0.472-0.914-1.146-2.195-1.746-3.788
							c-1.274-3.166-2.128-7.514-2.376-11.756c-0.262-4.254-0.025-8.418,0.202-11.518C246.496,221.06,246.666,219,246.666,219z"/>
					</g>
				</g>
			</g>
			<g>
				<g>
					<g>
						<path d="M241.666,198.667c0,0,0.171,0.557,0.472,1.532c0.13,0.49,0.374,1.061,0.632,1.718
							c0.244,0.661,0.574,1.387,0.945,2.173c1.437,3.156,3.868,7.15,5.823,11.529c0.944,2.061,2.048,4.141,3.031,6.134
							c0.98,2.016,1.876,3.952,2.518,5.744c0.681,1.764,1.023,3.424,1.287,4.59c0.116,1.251,0.184,1.986,0.188,2.035
							c0.008,0.402-1.292,0.645-2.896,0.544c-1.605-0.101-2.918-0.384-2.928-0.632c-0.001-0.034,0.021-0.521,0.09-1.378
							c-0.081-0.903-0.116-2.188-0.469-3.814c-0.305-1.615-0.85-3.535-1.484-5.604c-0.651-2.085-1.419-4.297-2.075-6.628
							c-1.193-4.428-2.982-8.785-3.936-12.201c-0.249-0.849-0.465-1.628-0.607-2.333c-0.155-0.701-0.307-1.304-0.361-1.818
							C241.749,199.245,241.666,198.667,241.666,198.667z"/>
					</g>
				</g>
			</g>
			<g>
				<g>
					<g>
						<path d="M250.666,205.334c0,0,0.209,0.406,0.575,1.117c0.382,0.705,0.851,1.733,1.544,2.913
							c1.333,2.389,3.238,5.46,5.075,8.741c1.737,3.409,3.079,6.775,4.378,9.049c0.621,1.154,1.21,2.018,1.611,2.635
							c0.434,0.567,0.689,0.9,0.705,0.922c0.109,0.183-0.888,1.06-2.221,1.957c-1.335,0.897-2.542,1.421-2.695,1.169
							c-0.016-0.032-0.259-0.523-0.672-1.358c-0.343-0.841-0.833-2.023-1.26-3.423c-0.916-2.787-1.592-6.47-2.539-9.841
							c-1.095-3.398-2.379-6.871-3.217-9.487c-0.447-1.298-0.71-2.425-0.943-3.187C250.79,205.772,250.666,205.334,250.666,205.334z
							"/>
					</g>
				</g>
			</g>
			<g>
				<g>
					<g>
						<path d="M257.666,185.667c0,0,0.167,2.373,0.418,5.939c0.21,3.569,0.711,8.283,1.897,12.755
							c1.293,4.485,2.989,8.946,4.09,12.482c0.612,1.723,0.939,3.293,1.243,4.362c0.28,1.085,0.445,1.724,0.456,1.766
							c0.064,0.343-1.179,0.804-2.77,1.028c-1.592,0.225-2.931,0.157-2.989-0.152c-0.004-0.04-0.071-0.639-0.185-1.657
							c-0.135-1.024-0.2-2.459-0.54-4.218c-0.525-3.492-1.539-8.205-2.166-13.062c-0.523-4.908-0.279-9.755,0.053-13.306
							C257.469,188.04,257.666,185.667,257.666,185.667z"/>
					</g>
				</g>
			</g>
			<g>
				<g>
					<g>
						<path d="M259.666,173.333c0,0,0.056,0.463,0.153,1.274c0.115,0.809,0.196,1.967,0.442,3.341
							c0.416,2.754,1.161,6.385,2.225,9.883c0.257,0.876,0.594,1.728,0.88,2.574c0.148,0.421,0.295,0.838,0.44,1.251
							c0.173,0.401,0.344,0.797,0.512,1.187c0.336,0.773,0.661,1.521,0.969,2.231c0.362,0.678,0.705,1.319,1.022,1.913
							c0.591,1.203,1.234,2.114,1.66,2.77c0.423,0.655,0.672,1.041,0.689,1.066c0.108,0.212-0.935,1.038-2.325,1.844
							c-1.392,0.807-2.625,1.258-2.754,1.009c-0.013-0.032-0.215-0.522-0.559-1.354c-0.338-0.832-0.847-1.988-1.242-3.433
							c-0.217-0.711-0.451-1.48-0.698-2.293c-0.181-0.823-0.372-1.691-0.569-2.587c-0.096-0.446-0.193-0.898-0.291-1.356
							c-0.067-0.462-0.136-0.931-0.205-1.402c-0.125-0.943-0.297-1.889-0.384-2.843c-0.384-3.818-0.405-7.598-0.279-10.411
							c0.026-1.405,0.173-2.573,0.217-3.387C259.631,173.798,259.666,173.333,259.666,173.333z"/>
					</g>
				</g>
			</g>
			<g>
				<g>
					<g>
						<path d="M256.999,160.667c0,0,0.408,0.393,1.122,1.08c0.179,0.174,0.376,0.366,0.592,0.576
							c0.199,0.225,0.414,0.469,0.643,0.729c0.465,0.518,0.99,1.108,1.491,1.807c1.083,1.347,2.135,3.066,3.221,4.942
							c1.03,1.898,2.053,3.975,2.974,6.078c1.853,4.205,3.512,8.432,4.982,11.409c0.718,1.502,1.384,2.694,1.846,3.54
							c0.492,0.816,0.782,1.296,0.801,1.328c0.128,0.26-0.92,1.087-2.337,1.844c-1.419,0.758-2.692,1.126-2.843,0.822
							c-0.016-0.039-0.259-0.63-0.672-1.633c-0.363-1.011-0.881-2.434-1.381-4.134c-1.045-3.399-2.012-7.867-3.143-12.211
							c-0.561-2.176-1.213-4.303-1.903-6.278c-0.741-1.943-1.481-3.76-2.308-5.214c-0.374-0.753-0.787-1.4-1.155-1.976
							c-0.183-0.29-0.353-0.562-0.511-0.812c-0.176-0.238-0.338-0.456-0.485-0.653C257.338,161.119,256.999,160.667,256.999,160.667
							z"/>
					</g>
				</g>
			</g>
			<g>
				<g>
					<g>
						<path d="M298.333,167.667c0,0,1.96,1.03,4.903,2.577c1.48,0.766,3.191,1.735,4.958,2.951c1.77,1.223,3.481,2.829,5.018,4.638
							c-0.001-0.001-0.037-0.049-0.073-0.098c3.037,3.116,6.006,6.428,7.947,9.381c0.973,1.476,1.714,2.84,2.135,3.963
							c0.434,1.107,0.587,1.892,0.587,1.953c0.061,0.441-1.204,0.875-2.809,0.968c-1.605,0.093-2.934,0.038-2.956-0.124
							c-0.006-0.014,0.007-0.097-0.008-0.278c-0.04-0.194-0.042-0.453-0.131-0.829c-0.132-0.734-0.512-1.878-1.122-3.253
							c-1.213-2.771-3.471-6.384-5.922-9.918l-0.074-0.099c-1.067-1.773-2.338-3.468-3.785-4.872
							c-1.448-1.399-2.938-2.614-4.263-3.608C300.087,169.028,298.333,167.667,298.333,167.667z"/>
					</g>
				</g>
			</g>
			<g>
				<g>
					<g>
						<path d="M285.333,169.667c0,0,1.629,0.613,4.075,1.535c2.451,0.915,5.749,2.134,8.936,3.929
							c1.573,0.927,3.15,1.949,4.481,3.195c0.353,0.284,0.654,0.623,0.962,0.943c0.3,0.329,0.623,0.626,0.884,0.968
							c0.51,0.692,1.064,1.314,1.423,2c0.835,1.304,1.289,2.55,1.622,3.419c0.253,0.896,0.402,1.424,0.412,1.459
							c0.054,0.292-1.2,0.689-2.794,0.887c-1.597,0.198-2.922,0.21-2.96,0.027c-0.001-0.025-0.027-0.4-0.07-1.036
							c-0.108-0.62-0.215-1.528-0.606-2.559c-0.652-2.103-2.519-4.714-5.038-6.926c-2.509-2.214-5.454-4.094-7.656-5.489
							C286.8,170.606,285.333,169.667,285.333,169.667z"/>
					</g>
				</g>
			</g>
			<g>
				<g>
					<g>
						<path d="M393.667,170.333c0,0-0.286,0.405-0.787,1.115c-0.238,0.372-0.587,0.768-0.992,1.226
							c-0.202,0.231-0.416,0.477-0.642,0.736c-0.242,0.242-0.497,0.497-0.763,0.762c-2.109,2.153-5.337,4.602-8.114,7.27
							c-1.48,1.434-3.066,2.702-4.352,3.927c-1.311,1.219-2.379,2.411-3.038,3.451c-0.679,1.041-0.922,1.879-1.022,2.411
							c-0.002,0.268-0.042,0.469-0.037,0.608c0.013,0.137,0.02,0.214,0.021,0.224c-0.011,0.126-1.336,0.247-2.943,0.27
							c-1.608,0.023-2.897-0.301-2.865-0.724c0.004-0.025,0.033-0.226,0.084-0.58c0.067-0.348,0.222-0.831,0.408-1.43
							c0.446-1.159,1.308-2.616,2.545-3.889c2.438-2.631,6.195-4.49,9.383-6.547c3.435-2.252,6.939-4,9.348-5.692
							c0.304-0.208,0.595-0.407,0.871-0.597c0.262-0.208,0.51-0.404,0.743-0.589c0.471-0.368,0.885-0.691,1.177-1.004
							C393.312,170.678,393.667,170.333,393.667,170.333z"/>
					</g>
				</g>
			</g>
			<g>
				<g>
					<g>
						<path d="M408,172.333c0,0-0.392,0.367-1.077,1.008c-0.332,0.345-0.795,0.68-1.332,1.065c-0.268,0.195-0.554,0.403-0.855,0.622
							c-0.316,0.192-0.65,0.395-0.997,0.606c-0.352,0.209-0.718,0.426-1.097,0.651c-0.389,0.203-0.791,0.413-1.205,0.628
							c-0.827,0.448-1.719,0.843-2.639,1.283c-1.833,0.852-3.835,1.691-5.704,2.614l-0.354,0.17
							c-0.127,0.059-0.134,0.073-0.235,0.138l-0.686,0.419c-0.449,0.279-0.897,0.556-1.34,0.832
							c-0.876,0.556-1.726,1.109-2.512,1.672c-1.583,1.113-2.941,2.246-3.91,3.282c-0.978,1.033-1.562,1.942-1.829,2.545
							c-0.13,0.303-0.191,0.53-0.262,0.686c-0.027,0.151-0.042,0.236-0.043,0.247c-0.047,0.135-1.365-0.076-2.923-0.467
							c-1.56-0.392-2.715-1.059-2.566-1.486c0.01-0.025,0.095-0.224,0.244-0.576c0.183-0.311,0.433-0.786,0.792-1.309
							c0.722-1.05,1.89-2.252,3.358-3.346c1.467-1.105,3.231-2.11,5.132-3.016c0.949-0.461,1.935-0.886,2.932-1.303
							c0.497-0.202,0.999-0.406,1.501-0.61l0.749-0.297c0.135-0.063,0.373-0.155,0.5-0.182l0.397-0.114
							c2.125-0.629,4.198-1.106,6.13-1.631c0.955-0.271,1.895-0.508,2.751-0.799c0.433-0.139,0.855-0.273,1.263-0.404
							c0.397-0.153,0.781-0.3,1.15-0.442c0.369-0.146,0.723-0.285,1.06-0.418c0.323-0.16,0.629-0.311,0.917-0.454
							c0.581-0.281,1.091-0.53,1.462-0.806C407.554,172.626,408,172.333,408,172.333z"/>
					</g>
				</g>
			</g>
			<g>
				<g>
					<g>
						<path d="M471,173.333c0,0-0.488,0.443-1.343,1.219c-0.406,0.427-1.02,0.774-1.688,1.24c-0.657,0.495-1.485,0.884-2.38,1.348
							c-0.443,0.248-0.925,0.448-1.43,0.644c-0.504,0.203-1.025,0.412-1.561,0.627c-1.092,0.344-2.244,0.768-3.456,1.072
							c-1.209,0.347-2.461,0.642-3.736,0.949c-0.634,0.146-1.273,0.293-1.915,0.441l-0.482,0.111
							c-0.118,0.027-0.236,0.049-0.355,0.058l-0.26,0.033l-0.987,0.128c-5.194,0.625-10.354,1.579-13.56,3.065
							c-1.599,0.72-2.588,1.541-2.925,2.054c-0.379,0.509-0.3,0.717-0.34,0.735c-0.019,0.076-1.332-0.102-2.917-0.39
							c-0.787-0.163-1.478-0.396-1.94-0.701c-0.461-0.298-0.706-0.674-0.596-0.96c0.016-0.034,0.139-0.319,0.388-0.797
							c0.141-0.223,0.314-0.493,0.527-0.795c0.229-0.266,0.484-0.61,0.801-0.895c1.251-1.253,3.169-2.238,5.318-2.87
							c4.316-1.277,9.768-1.43,15.074-1.355l0.983,0.01l0.233,0.002c0.046,0.004,0.09,0.003,0.134,0.002l0.489-0.043
							c0.653-0.058,1.304-0.116,1.949-0.173c1.279-0.126,2.543-0.244,3.744-0.415c1.218-0.131,2.355-0.381,3.458-0.566
							c0.538-0.134,1.061-0.264,1.567-0.39c0.511-0.12,1.001-0.248,1.45-0.424c0.911-0.323,1.771-0.588,2.459-0.973
							c0.702-0.358,1.359-0.616,1.804-0.973C470.458,173.703,471,173.333,471,173.333z"/>
					</g>
				</g>
			</g>
			<g>
				<g>
					<g>
						<path d="M485.666,169.666c0,0-0.066,0.124-0.193,0.357c-0.137,0.225-0.289,0.592-0.575,0.999
							c-0.52,0.852-1.412,1.988-2.667,3.186c-1.257,1.194-2.887,2.427-4.736,3.559c-1.847,1.137-3.898,2.208-5.93,3.229
							c-2.005,0.997-4.006,2.104-5.996,3.032c-1.964,0.962-3.929,1.714-5.661,2.318c-0.893,0.258-1.714,0.503-2.464,0.691
							c-0.776,0.146-1.456,0.275-2.02,0.381c-1.167,0.136-1.892,0.149-1.933,0.159c-0.382-0.001-0.602-1.307-0.491-2.91
							c0.11-1.605,0.401-2.91,0.648-2.914c0.036-0.009,0.51,0.058,1.368,0.105c0.444-0.012,0.98-0.026,1.593-0.042
							c0.626-0.056,1.34-0.152,2.121-0.242c1.571-0.284,3.427-0.66,5.417-1.266c1.993-0.563,4.119-1.326,6.314-2.008
							c2.158-0.68,4.267-1.381,6.19-2.172c1.923-0.786,3.634-1.692,5.006-2.627c1.367-0.936,2.402-1.884,3.039-2.628
							c0.345-0.352,0.548-0.682,0.721-0.883C485.58,169.778,485.666,169.666,485.666,169.666z"/>
					</g>
				</g>
			</g>
			<g>
				<g>
					<g>
						<path d="M528,179.333c0,0-0.361,0.243-0.993,0.668c-0.312,0.225-0.713,0.458-1.18,0.72c-0.461,0.275-0.992,0.564-1.585,0.851
							c-2.328,1.206-5.701,2.452-8.434,4.172c-2.405,1.748-4.246,4.648-5.853,6.796c-0.78,1.084-1.549,2.014-2.089,2.666
							c-0.605,0.647-0.961,1.028-0.984,1.053c-0.21,0.187-1.203-0.677-2.216-1.925c-1.015-1.248-1.715-2.372-1.565-2.508
							c0.022-0.015,0.348-0.247,0.901-0.64c0.559-0.451,1.35-1.073,2.315-1.952c0.958-0.852,2.117-1.923,3.421-3.034
							c1.373-1.09,2.862-2.264,4.753-3.054c3.535-1.282,6.931-1.729,9.427-2.425c0.629-0.154,1.195-0.322,1.69-0.491
							c0.502-0.156,0.939-0.299,1.283-0.451C527.598,179.495,528,179.333,528,179.333z"/>
					</g>
				</g>
			</g>
			<g>
				<g>
					<g>
						<path d="M521.334,176.999c0,0-0.28,0.294-0.771,0.808c-0.125,0.13-0.263,0.274-0.413,0.431
							c-0.167,0.137-0.348,0.286-0.54,0.445c-0.388,0.32-0.823,0.696-1.357,1.017c-0.263,0.171-0.537,0.351-0.82,0.536
							c-0.297,0.159-0.604,0.324-0.919,0.494c-0.63,0.362-1.327,0.637-2.046,0.966c-1.443,0.589-3.025,1.145-4.57,1.647
							c-3.103,1.009-6.047,2.073-7.764,3.277c-0.883,0.574-1.475,1.152-1.899,1.538c-0.371,0.43-0.589,0.683-0.604,0.7
							c-0.124,0.106-1.155-0.728-2.299-1.857c-1.144-1.131-1.898-2.203-1.685-2.393c0.027-0.02,0.451-0.33,1.172-0.856
							c0.761-0.447,1.838-1.069,3.166-1.552c2.66-1.04,6.099-1.405,9.31-1.705c1.62-0.146,3.185-0.326,4.651-0.565
							c0.715-0.15,1.433-0.258,2.072-0.456c0.327-0.089,0.645-0.176,0.952-0.261c0.298-0.11,0.585-0.217,0.861-0.319
							c0.568-0.185,1.045-0.439,1.479-0.656c0.218-0.109,0.423-0.211,0.611-0.305c0.176-0.116,0.337-0.222,0.483-0.318
							C520.996,177.222,521.334,176.999,521.334,176.999z"/>
					</g>
				</g>
			</g>
			<g>
				<g>
					<g>
						<path d="M538.666,182.333c0,0-0.054,0.113-0.154,0.325c-0.11,0.206-0.228,0.539-0.465,0.913
							c-0.416,0.785-1.162,1.828-2.196,2.966c-1.031,1.142-2.378,2.335-3.805,3.567c-1.414,1.239-2.942,2.523-4.059,3.96
							c-2.321,2.945-3.447,6.501-4.37,9.419c-0.455,1.447-0.898,2.713-1.217,3.604c-0.361,0.9-0.574,1.43-0.588,1.464
							c-0.136,0.272-1.398-0.126-2.813-0.885c-1.417-0.76-2.475-1.561-2.362-1.789c0.018-0.027,0.276-0.447,0.717-1.159
							c0.427-0.747,1.025-1.799,1.738-3.154c1.392-2.642,3.501-6.648,6.799-9.522c1.665-1.466,3.466-2.464,5.078-3.434
							c1.622-0.953,3.097-1.845,4.267-2.743c1.17-0.893,2.066-1.756,2.604-2.437c0.297-0.321,0.468-0.619,0.614-0.803
							C538.593,182.435,538.666,182.333,538.666,182.333z"/>
					</g>
				</g>
			</g>
			<g>
				<g>
					<g>
						<path d="M541.999,197c0,0,0.031,0.516,0.085,1.42c0.032,0.454,0.064,1.005,0.045,1.641c-0.011,0.635,0.014,1.359-0.083,2.144
							c-0.073,1.585-0.49,3.422-1.12,5.348c-0.185,0.472-0.371,0.952-0.561,1.438c-0.192,0.488-0.445,0.944-0.671,1.428
							c-0.227,0.484-0.472,0.961-0.746,1.417l-0.399,0.698l-0.2,0.351c-0.063,0.11-0.161,0.273-0.129,0.246
							c-0.935,1.885-1.942,3.737-2.762,5.423c-0.8,1.695-1.441,3.254-1.748,4.586c-0.162,0.665-0.324,1.265-0.345,1.806
							c-0.041,0.538-0.146,0.995-0.122,1.383c0.023,0.767,0.037,1.218,0.038,1.248c-0.019,0.225-1.342,0.416-2.949,0.425
							c-1.608,0.009-2.896-0.266-2.873-0.614c0.006-0.042,0.098-0.68,0.254-1.765c0.074-0.54,0.307-1.163,0.502-1.878
							c0.179-0.729,0.517-1.477,0.877-2.287c0.707-1.63,1.779-3.3,2.951-4.951c1.192-1.641,2.471-3.242,3.687-4.888
							c0.172-0.246,0.227-0.291,0.309-0.395l0.239-0.287l0.481-0.575c0.331-0.378,0.629-0.77,0.908-1.169
							c0.278-0.398,0.593-0.781,0.84-1.186c0.249-0.408,0.495-0.812,0.737-1.208c0.871-1.63,1.571-3.26,1.904-4.746
							c0.227-0.73,0.325-1.425,0.445-2.038c0.129-0.613,0.193-1.155,0.24-1.603C541.94,197.513,541.999,197,541.999,197z"/>
					</g>
				</g>
			</g>
			<g>
				<g>
					<g>
						<path d="M542.332,212.667c0,0-0.023,0.561-0.065,1.544c-0.006,0.496-0.058,1.093-0.153,1.776
							c-0.079,0.686-0.166,1.464-0.343,2.296c-0.079,0.42-0.162,0.857-0.247,1.31c-0.108,0.447-0.22,0.909-0.335,1.384
							c-0.215,0.96-0.521,1.94-0.811,2.971c-0.62,2.037-1.348,4.198-2.072,6.322c-1.463,4.256-2.719,8.477-3.034,11.595
							c-0.052,0.777-0.171,1.488-0.155,2.111c-0.002,0.619-0.004,1.161-0.006,1.61c0.082,0.878,0.13,1.395,0.133,1.429
							c0,0.264-1.306,0.556-2.91,0.652c-1.605,0.097-2.91-0.118-2.913-0.48c0.003-0.044,0.047-0.714,0.121-1.854
							c0.091-0.555,0.199-1.224,0.324-1.989c0.114-0.764,0.377-1.576,0.593-2.476c0.975-3.577,3.046-7.782,5.172-11.753
							c1.067-1.997,2.107-3.963,3.03-5.838c0.438-0.941,0.893-1.847,1.247-2.729c0.186-0.44,0.367-0.868,0.542-1.281
							c0.153-0.421,0.301-0.829,0.442-1.219c0.305-0.779,0.509-1.513,0.695-2.167c0.203-0.65,0.349-1.225,0.433-1.705
							C542.219,213.216,542.332,212.667,542.332,212.667z"/>
					</g>
				</g>
			</g>
			<g>
				<g>
					<g>
						<path d="M545.666,221c0,0,0.046,0.546,0.125,1.503c0.041,0.481,0.105,1.067,0.068,1.741c-0.038,0.671,0.03,1.449-0.108,2.275
							c-0.104,0.831-0.182,1.748-0.43,2.686c-0.115,0.47-0.193,0.971-0.351,1.456c-0.157,0.487-0.318,0.986-0.481,1.492
							c-0.729,1.997-1.705,4.087-2.9,6.018c-2.363,3.894-5.196,7.382-7.126,10.024c-0.984,1.318-1.753,2.425-2.3,3.207
							c-0.521,0.786-0.829,1.248-0.849,1.279c-0.179,0.226-1.366-0.378-2.648-1.348s-2.161-1.961-1.962-2.214
							c0.026-0.029,0.438-0.477,1.135-1.236c0.711-0.732,1.716-1.766,2.932-2.932c2.416-2.364,5.675-5.251,8.45-8.476
							c1.407-1.604,2.6-3.345,3.585-5.072c0.229-0.441,0.454-0.876,0.674-1.3c0.223-0.426,0.367-0.871,0.55-1.292
							c0.381-0.839,0.594-1.68,0.826-2.454c0.267-0.769,0.32-1.511,0.468-2.157c0.146-0.649,0.179-1.225,0.218-1.7
							C545.621,221.545,545.666,221,545.666,221z"/>
					</g>
				</g>
			</g>
			<g>
				<g>
					<g>
						<path d="M546.333,247.667c0,0-0.032,0.151-0.095,0.436c-0.078,0.28-0.117,0.718-0.309,1.233
							c-0.289,1.063-0.948,2.518-1.983,4.121c-1.028,1.609-2.472,3.31-3.989,5.082c-1.516,1.774-3.092,3.654-4.185,5.683
							c-0.541,1.008-0.979,2.135-1.408,3.192c-0.352,1.102-0.709,2.167-0.919,3.26c-0.279,1.058-0.391,2.15-0.566,3.147
							c-0.109,1.03-0.229,1.99-0.291,2.903c-0.137,1.816-0.188,3.371-0.233,4.469c-0.036,1.113-0.058,1.767-0.059,1.81
							c-0.035,0.342-1.363,0.489-2.963,0.33c-1.601-0.16-2.869-0.571-2.833-0.919c0.007-0.043,0.119-0.698,0.31-1.811
							c0.208-1.125,0.491-2.711,0.918-4.624c0.207-0.954,0.49-1.993,0.772-3.079c0.354-1.088,0.649-2.235,1.138-3.395
							c0.412-1.171,0.993-2.337,1.572-3.508c0.303-0.579,0.673-1.128,1.009-1.694c0.327-0.564,0.711-1.117,1.106-1.662
							c1.622-2.164,3.565-3.859,5.319-5.398c1.766-1.537,3.375-2.953,4.576-4.337c1.204-1.374,2.044-2.674,2.476-3.662
							c0.263-0.477,0.36-0.893,0.479-1.16C546.278,247.812,546.333,247.667,546.333,247.667z"/>
					</g>
				</g>
			</g>
			<g>
				<g>
					<g>
						<path d="M547.334,253.666c0,0-1.589,1.443-3.975,3.61c-1.183,1.086-2.565,2.352-3.902,3.803
							c-0.697,0.702-1.308,1.508-1.963,2.285c-0.571,0.831-1.219,1.641-1.646,2.513c-0.543,0.815-0.79,1.774-1.117,2.651
							c-0.223,0.959-0.49,1.864-0.598,2.811c-0.307,1.844-0.359,3.662-0.412,5.238c-0.023,1.617-0.044,2.971-0.058,3.93
							c-0.028,0.992-0.044,1.576-0.045,1.615c-0.033,0.307-1.357,0.401-2.953,0.212c-1.597-0.189-2.867-0.576-2.837-0.864
							c0.014-0.074,0.415-2.235,1.008-5.437c0.336-1.646,0.722-3.595,1.434-5.662c0.305-1.035,0.8-2.077,1.251-3.124
							c0.582-1.032,1.098-2.104,1.902-2.984c0.708-0.961,1.55-1.71,2.327-2.504c0.839-0.712,1.632-1.448,2.47-2.046
							c1.633-1.259,3.227-2.281,4.585-3.159C545.523,254.82,547.334,253.666,547.334,253.666z"/>
					</g>
				</g>
			</g>
			<g>
				<g>
					<g>
						<path d="M542.666,269.333c0,0-0.859,1.62-1.993,4.107c-1.142,2.483-2.506,5.861-3.512,9.303
							c-1.016,3.44-1.623,6.93-1.725,9.495c-0.061,1.286-0.01,2.335,0.021,3.072c0.076,0.726,0.12,1.152,0.123,1.18
							c-0.001,0.218-1.309,0.446-2.914,0.509c-1.607,0.063-2.91-0.122-2.911-0.412c0.003-0.035,0.051-0.574,0.131-1.49
							c0.135-0.901,0.33-2.166,0.693-3.616c0.709-2.911,2.128-6.511,3.885-9.837c1.751-3.336,3.796-6.429,5.422-8.662
							C541.506,270.746,542.666,269.333,542.666,269.333z"/>
					</g>
				</g>
			</g>
			<g>
				<g>
					<g>
						<path d="M541.333,272.333c0,0-0.328,1.918-0.821,4.798c-0.509,2.877-1.227,6.713-1.8,10.536
							c-0.153,0.955-0.249,1.913-0.375,2.851c-0.125,0.938-0.236,1.862-0.291,2.754c-0.071,0.889-0.141,1.749-0.206,2.566
							c-0.017,0.811-0.033,1.579-0.048,2.289c-0.066,1.417,0.027,2.584,0.073,3.408c0.042,0.822,0.066,1.305,0.068,1.337
							c-0.012,0.251-1.327,0.457-2.935,0.46s-2.902-0.229-2.892-0.52c0.005-0.036,0.072-0.578,0.188-1.5
							c0.116-0.921,0.26-2.22,0.611-3.719c0.157-0.75,0.328-1.562,0.509-2.419c0.228-0.837,0.468-1.719,0.715-2.63
							c0.233-0.914,0.523-1.835,0.831-2.764c0.306-0.928,0.589-1.88,0.922-2.808c1.299-3.727,2.717-7.354,3.751-10.085
							C540.654,274.154,541.333,272.333,541.333,272.333z"/>
					</g>
				</g>
			</g>
			<g>
				<g>
					<g>
						<path d="M542.999,295.667c0,0,0.036,0.488,0.1,1.341c0.048,0.431,0.054,0.953,0.029,1.554
							c-0.005,0.604-0.021,1.288-0.118,2.026c-0.112,1.494-0.471,3.201-0.89,5.027c-0.458,1.805-1.015,3.719-1.591,5.593
							c-1.148,3.752-2.175,7.436-2.365,10.121c-0.134,1.344-0.081,2.43-0.063,3.191c0.085,0.747,0.136,1.186,0.14,1.215
							c0,0.223-1.304,0.492-2.907,0.6c-1.604,0.108-2.91-0.064-2.915-0.384c0.003-0.039,0.043-0.631,0.11-1.638
							c0.149-0.986,0.357-2.376,0.814-3.932c0.846-3.154,2.68-6.806,4.49-10.272c0.913-1.738,1.783-3.456,2.546-5.096
							c0.718-1.646,1.368-3.206,1.738-4.596c0.227-0.689,0.363-1.334,0.478-1.912c0.133-0.576,0.224-1.083,0.255-1.505
							C542.944,296.151,542.999,295.667,542.999,295.667z"/>
					</g>
				</g>
			</g>
			<g>
				<g>
					<g>
						<path d="M372.666,278.667c0,0-0.018,0.243-0.052,0.699c-0.017,0.227-0.037,0.507-0.061,0.836
							c-0.012,0.164-0.025,0.34-0.039,0.529c0.01,0.188,0.02,0.389,0.031,0.601c0.027,0.422,0.036,0.89,0.083,1.393
							c0.099,0.495,0.207,1.029,0.321,1.601c0.178,0.551,0.413,1.122,0.639,1.721c0.355,0.54,0.625,1.165,1.08,1.7
							c0.467,0.526,0.892,1.115,1.512,1.565c0.293,0.239,0.573,0.497,0.884,0.729c0.334,0.208,0.673,0.418,1.017,0.631
							c1.371,0.846,2.904,1.541,4.608,1.809c3.384,0.599,7.157-0.08,10.469-1.651c3.322-1.575,6.197-3.96,8.009-6.706
							c1.857-2.728,2.52-5.737,2.744-8.433c0.218-2.703,0.062-5.115-0.011-6.841c-0.087-1.753-0.139-2.784-0.143-2.852
							c-0.002-0.553,1.303-1,2.91-0.999c1.608,0.001,2.914,0.436,2.916,0.972c-0.003,0.068-0.042,1.102-0.107,2.861
							c-0.093,1.778-0.145,4.344-0.693,7.514c-0.285,1.579-0.71,3.305-1.419,5.06c-0.702,1.752-1.706,3.518-3.001,5.094
							c-2.568,3.184-6.203,5.608-10.098,7.025c-3.899,1.42-8.221,1.793-11.995,0.752c-1.894-0.484-3.569-1.441-4.949-2.487
							c-0.346-0.263-0.687-0.523-1.023-0.778c-0.315-0.284-0.602-0.598-0.894-0.887c-0.617-0.549-1.038-1.243-1.483-1.858
							c-0.435-0.625-0.674-1.333-0.99-1.94c-0.187-0.666-0.375-1.291-0.506-1.882c-0.064-0.603-0.123-1.167-0.178-1.688
							c-0.001-0.521,0.035-0.999,0.048-1.429c0.009-0.214,0.018-0.417,0.026-0.608c0.032-0.188,0.061-0.365,0.089-0.53
							c0.055-0.328,0.102-0.607,0.14-0.833C372.625,278.907,372.666,278.667,372.666,278.667z"/>
					</g>
				</g>
			</g>
			<g>
				<g>
					<g>
						<path d="M377.333,285.668c0,0,0.085,0.122,0.245,0.35c0.079,0.113,0.177,0.252,0.292,0.416
							c0.057,0.081,0.118,0.168,0.183,0.261c0.082,0.079,0.169,0.163,0.262,0.252c0.659,0.774,1.944,1.554,3.608,1.849
							c3.366,0.574,8-0.758,11.896-2.997c3.875-2.023,5.534-6.18,6.271-9.326c0.371-1.583,0.511-2.942,0.581-3.894
							c0.051-0.956,0.047-1.509,0.045-1.546c0.023-0.284,1.346-0.446,2.952-0.364c1.606,0.083,2.885,0.453,2.855,0.829
							c0.001,0.046-0.097,0.744-0.338,1.901c-0.261,1.152-0.682,2.761-1.422,4.598c-0.734,1.833-1.798,3.91-3.389,5.865
							c-0.806,0.965-1.71,1.922-2.812,2.709c-1.065,0.8-2.374,1.435-3.492,1.858c-2.35,0.896-4.758,1.509-7.074,1.738
							c-2.306,0.236-4.523,0.11-6.303-0.49c-1.781-0.608-3.018-1.67-3.573-2.571c-0.08-0.105-0.155-0.204-0.226-0.297
							c-0.052-0.105-0.101-0.204-0.147-0.296c-0.09-0.183-0.167-0.337-0.229-0.463C377.398,285.8,377.333,285.668,377.333,285.668z"
							/>
					</g>
				</g>
			</g>
			<g>
				<g>
					<g>
						<path d="M301.333,257.001c0,0,5.274-0.779,13.196-1.948c1.977-0.292,4.118-0.608,6.383-0.942
							c1.141-0.126,2.27-0.459,3.442-0.704c1.169-0.254,2.359-0.546,3.568-0.855c4.834-1.211,9.925-2.733,14.759-4.792
							c1.19-0.554,2.42-1.02,3.566-1.638c1.145-0.62,2.321-1.168,3.418-1.831c1.091-0.676,2.173-1.346,3.243-2.009
							c1.089-0.715,2.166-1.422,3.225-2.118c1.082-0.681,2.147-1.351,3.19-2.008c1.077-0.626,2.131-1.239,3.158-1.835
							c1.073-0.548,2.118-1.082,3.129-1.598c0.475-0.258,1.095-0.508,1.627-0.715c0.543-0.21,1.075-0.393,1.595-0.56
							c4.158-1.309,7.833-1.737,10.705-1.525c2.88,0.189,4.858,1.341,4.952,1.436c0.49,0.266,0.717,0.912,0.615,1.535
							c-0.094,0.629-0.509,1.237-1.106,1.773c-0.598,0.537-1.237,0.944-1.695,1.247c-0.464,0.295-0.719,0.464-0.898,0.387
							c-0.039-0.001-0.115-0.137-0.513-0.291c-0.331-0.191-1.009-0.38-1.948-0.543c-1.909-0.29-5.113-0.188-8.756,0.705
							c-0.454,0.111-0.908,0.235-1.359,0.375c-0.458,0.147-0.848,0.262-1.35,0.49c-0.961,0.411-1.954,0.836-2.973,1.273
							c-1.01,0.499-2.047,1.012-3.106,1.535c-1.052,0.567-2.126,1.145-3.218,1.734c-1.09,0.615-2.198,1.239-3.32,1.871
							c-1.177,0.623-2.368,1.253-3.568,1.889c-1.207,0.621-2.484,1.118-3.729,1.684c-1.247,0.564-2.56,0.966-3.836,1.456
							c-5.165,1.795-10.458,2.986-15.419,3.876c-1.24,0.228-2.461,0.441-3.664,0.618c-1.203,0.166-2.368,0.424-3.521,0.472
							c-2.297,0.181-4.468,0.352-6.471,0.509C306.657,256.582,301.333,257.001,301.333,257.001z"/>
					</g>
				</g>
			</g>
			<g>
				<g>
					<g>
						<path d="M336.667,256c0,0,0.879-0.282,2.418-0.776c1.536-0.518,3.759-1.15,6.416-1.944c1.318-0.415,2.756-0.841,4.254-1.333
							c0.736-0.27,1.491-0.547,2.264-0.83c0.765-0.302,1.571-0.52,2.332-0.933c3.089-1.452,6.358-3.208,9.843-4.723
							c0.841-0.421,1.788-0.69,2.684-1.036c0.913-0.302,1.802-0.711,2.732-0.918c1.841-0.483,3.634-0.877,5.404-1.189
							c3.532-0.621,6.893-0.964,9.843-1.007c2.947-0.058,5.484,0.178,7.312,0.526c1.827,0.335,2.93,0.734,3,0.765
							c0.584,0.23,0.507,1.608-0.169,3.066c-0.676,1.46-1.529,2.528-1.903,2.379c-0.045-0.02-0.764-0.371-2.181-0.777
							c-1.408-0.413-3.541-0.837-6.198-1.045c-2.652-0.223-5.816-0.214-9.193,0.043c-1.685,0.129-3.44,0.339-5.169,0.615
							c-0.875,0.103-1.699,0.402-2.563,0.594c-0.854,0.24-1.724,0.384-2.581,0.714c-3.447,1.108-6.869,2.531-10.194,3.712
							c-0.807,0.34-1.678,0.492-2.492,0.723c-0.82,0.212-1.623,0.42-2.403,0.622c-1.564,0.347-3.043,0.631-4.405,0.916
							c-2.723,0.529-4.996,0.94-6.567,1.302C337.57,255.806,336.667,256,336.667,256z"/>
					</g>
				</g>
			</g>
			<g>
				<g>
					<g>
						<path d="M379.334,284.334c0,0,0.77-0.417,2.119-1.147c1.336-0.747,3.267-1.797,5.4-3.281c2.094-1.484,4.495-3.48,5.693-6.29
							c1.218-2.79,1.039-6.149,0.085-9.359c-0.468-1.624-0.992-3.245-1.649-4.709c-0.694-1.463-1.493-2.834-2.384-4.085
							c-1.816-2.484-3.914-4.506-5.876-6.112c-1.955-1.612-3.732-2.852-4.996-3.734c-1.284-0.873-2.04-1.386-2.09-1.42
							c-0.387-0.288,0.076-1.572,1.03-2.865c0.955-1.294,2.052-2.103,2.45-1.807c0.048,0.04,0.774,0.645,2.009,1.672
							c1.226,1.055,2.97,2.553,4.931,4.541c1.96,1.975,4.114,4.511,5.898,7.58c0.876,1.545,1.632,3.219,2.245,4.966
							c0.583,1.773,0.958,3.559,1.279,5.359c0.203,0.879,0.23,1.845,0.336,2.757c0.054,0.459,0.011,0.939,0.019,1.403
							c-0.015,0.468,0.021,0.928-0.062,1.397c-0.131,1.865-0.734,3.682-1.577,5.238c-1.782,3.151-4.576,4.935-6.858,6.237
							c-2.336,1.288-4.365,2.129-5.775,2.736C380.144,284,379.334,284.334,379.334,284.334z"/>
					</g>
				</g>
			</g>
			<g>
				<g>
					<g>
						<path d="M379.667,285.001c0,0,0.236-0.015,0.678-0.043c0.44-0.05,1.091-0.018,1.903-0.171
							c1.627-0.184,3.945-0.733,6.431-1.957c2.489-1.197,5.05-3.319,6.782-6.178c0.85-1.442,1.421-3.072,1.759-4.758
							c0.279-1.709,0.268-3.458,0.009-5.217c-0.144-0.889-0.349-1.791-0.517-2.678l-0.262-1.329
							c-0.121-0.431-0.275-0.851-0.409-1.273c-0.286-0.84-0.531-1.682-0.833-2.49c-0.364-0.786-0.723-1.562-1.077-2.326
							c-0.313-0.776-0.78-1.474-1.192-2.172c-0.434-0.689-0.787-1.393-1.251-2.02c-0.948-1.247-1.727-2.477-2.668-3.5
							c-1.733-2.122-3.406-3.769-4.545-4.96c-1.192-1.165-1.894-1.852-1.94-1.896c-0.35-0.376,0.308-1.586,1.467-2.699
							c1.16-1.114,2.399-1.697,2.768-1.302c0.044,0.051,0.707,0.829,1.835,2.152c1.09,1.376,2.679,3.266,4.352,5.762
							c0.893,1.187,1.661,2.658,2.553,4.117c0.44,0.737,0.777,1.575,1.181,2.383c0.384,0.822,0.815,1.637,1.093,2.547
							c0.311,0.889,0.627,1.792,0.946,2.706c0.253,0.934,0.442,1.898,0.664,2.854c0.102,0.48,0.224,0.958,0.309,1.442l0.15,1.468
							c0.092,0.983,0.214,1.95,0.277,2.944c0.102,2.015-0.082,4.082-0.601,6.02c-0.577,1.923-1.421,3.717-2.531,5.242
							c-2.259,3.024-5.237,4.99-7.95,5.994c-2.721,1.025-5.12,1.345-6.779,1.374c-0.828,0.074-1.483-0.021-1.924-0.013
							C379.902,285.009,379.667,285.001,379.667,285.001z"/>
					</g>
				</g>
			</g>
			<g>
				<g>
					<g>
						<path d="M384.667,272.666c0,0-0.615,0.072-1.676,0.256c-1.06,0.18-2.569,0.514-4.274,1.137
							c-1.682,0.63-3.632,1.582-5.023,3.162c-0.379,0.364-0.628,0.83-0.926,1.25c-0.209,0.477-0.473,0.92-0.576,1.436
							c-0.182,0.482-0.191,1.022-0.266,1.532c-0.017,0.261,0.016,0.534,0.018,0.797c0.011,0.266,0,0.528,0.067,0.793
							c0.131,1.048,0.492,2.099,0.929,3.093c0.466,0.974,1.003,1.872,1.638,2.632c1.276,1.52,2.808,2.546,4.258,3.145
							c1.442,0.617,2.764,0.863,3.698,1c0.943,0.117,1.507,0.128,1.545,0.132c0.285,0.037,0.398,1.369,0.255,2.97
							c-0.144,1.602-0.583,2.861-0.982,2.81c-0.048-0.006-0.786-0.125-2.018-0.467c-1.223-0.365-2.956-0.961-4.822-2.114
							c-1.867-1.123-3.814-2.906-5.208-5.209c-1.366-2.335-2.208-4.993-2.202-7.839c-0.048-2.803,1.271-5.748,3.32-7.296
							c1.983-1.646,4.206-2.297,6.042-2.702c1.858-0.381,3.414-0.487,4.5-0.511C384.05,272.647,384.667,272.665,384.667,272.666z"/>
					</g>
				</g>
			</g>
			<g>
				<g>
					<g>
						<path d="M398,263.666c0,0-2.198,0.071-5.464,0.378c-3.254,0.315-7.614,0.903-11.655,2.197
							c-2.016,0.638-3.93,1.478-5.477,2.477c-1.535,1.009-2.677,2.161-3.265,3.251c-0.614,1.082-0.786,2.062-0.861,2.768
							c-0.052,0.715-0.006,1.155-0.007,1.185c-0.012,0.213-1.332,0.398-2.938,0.412c-1.608,0.014-2.9-0.296-2.881-0.693
							c0.005-0.046,0.047-0.772,0.359-1.999c0.33-1.209,1.003-2.952,2.355-4.568c1.325-1.64,3.282-2.962,5.386-3.881
							c2.121-0.911,4.412-1.466,6.679-1.791c4.54-0.653,8.99-0.492,12.292-0.268C395.828,263.373,398,263.665,398,263.666z"/>
					</g>
				</g>
			</g>
			<g>
				<g>
					<g>
						<path d="M424,291c0,0,0.297-0.156,0.853-0.449c0.555-0.294,1.38-0.703,2.37-1.331c2.014-1.195,4.754-3.117,7.844-5.678
							c1.555-1.268,3.196-2.699,4.94-4.211c1.776-1.49,3.655-3.079,5.699-4.591c4.061-3.059,8.638-6.026,13.443-8.619
							c4.802-2.6,9.828-4.822,14.686-6.567c4.852-1.77,9.552-2.987,13.637-3.847c4.083-0.887,7.573-1.304,10.046-1.577
							c2.476-0.269,3.945-0.301,4.04-0.326c0.776-0.029,1.421,1.255,1.44,2.861c0.02,1.608-0.549,2.935-1.27,2.962
							c-0.091,0.024-1.47-0.036-3.815,0.064c-2.342,0.105-5.662,0.275-9.594,0.857c-3.931,0.556-8.496,1.412-13.268,2.797
							c-4.776,1.36-9.774,3.175-14.605,5.383c-4.835,2.201-9.499,4.792-13.684,7.521c-2.107,1.348-4.05,2.777-5.907,4.132
							c-1.844,1.391-3.587,2.714-5.237,3.884c-3.281,2.363-6.174,4.113-8.275,5.174c-1.034,0.561-1.89,0.915-2.464,1.171
							C424.307,290.865,424,291,424,291z"/>
					</g>
				</g>
			</g>
			<g>
				<g>
					<g>
						<path d="M504.334,299c0,0,0.046-0.695,0.126-1.913c0.076-1.218,0.202-2.958,0.288-5.042c0.15-4.145,0.297-9.781-1.199-14.931
							c-0.33-1.309-0.758-2.513-1.309-3.693c-0.531-1.184-1.168-2.312-1.809-3.375c-1.306-2.113-2.735-3.932-4.085-5.242
							c-1.353-1.306-2.592-2.11-3.427-2.432c-0.417-0.196-0.735-0.238-0.953-0.333c-0.217-0.04-0.331-0.043-0.346-0.05
							c-0.199-0.048-0.177-1.398,0.046-2.989c0.223-1.592,0.857-2.788,1.413-2.65c0.029,0.012,0.305,0.077,0.752,0.24
							c0.407,0.204,1.057,0.447,1.728,0.873c1.407,0.809,2.995,2.232,4.459,4.076c1.462,1.85,2.799,4.131,3.942,6.664
							c0.558,1.274,1.09,2.598,1.512,4c0.441,1.391,0.761,2.887,0.929,4.33c0.263,1.444,0.272,2.902,0.351,4.319
							c0.02,0.709-0.028,1.41-0.039,2.1c-0.017,0.691-0.033,1.371-0.109,2.033c-0.111,1.329-0.232,2.604-0.42,3.801
							c-0.151,1.202-0.35,2.325-0.531,3.36c-0.359,2.07-0.711,3.779-0.945,4.976C504.47,298.316,504.334,299,504.334,299z"/>
					</g>
				</g>
			</g>
			<g>
				<g>
					<g>
						<path d="M519.668,314.333c0,0-0.049-0.565-0.133-1.554c-0.099-0.986-0.172-2.404-0.381-4.088
							c-0.304-3.374-1.038-7.848-2.32-12.05c-0.597-1.933-1.784-3.728-2.933-5.47c-1.169-1.734-2.352-3.401-3.293-4.988
							c-0.95-1.579-1.645-3.109-2.026-4.312c-0.172-0.618-0.295-1.125-0.371-1.482c-0.048-0.378-0.075-0.591-0.079-0.618
							c-0.029-0.446,1.262-0.791,2.869-0.771c1.608,0.02,2.931,0.185,2.943,0.37c-0.001,0.013-0.007,0.118-0.018,0.303
							c0.017,0.205,0.04,0.499,0.07,0.868c0.114,0.774,0.412,1.957,1.01,3.446c0.585,1.49,1.449,3.253,2.37,5.24
							c0.89,1.986,1.931,4.233,2.295,6.759c0.64,4.68,0.629,9.267,0.392,12.682c-0.063,1.708-0.218,3.119-0.278,4.11
							C519.711,313.769,519.668,314.333,519.668,314.333z"/>
					</g>
				</g>
			</g>
			<g>
				<g>
					<g>
						<path d="M521.334,335c0,0-0.014-0.674-0.037-1.854c-0.032-0.595-0.002-1.312,0.06-2.137c0.025-0.414,0.052-0.854,0.081-1.318
							c0.052-0.461,0.106-0.945,0.164-1.451c0.436-4.046,1.663-9.393,1.264-14.525c-0.436-5.198-1.872-10.344-2.687-14.463
							c-0.435-2.042-0.688-3.831-0.869-5.094c-0.122-1.289-0.194-2.048-0.199-2.098c-0.014-0.406,1.282-0.73,2.89-0.726
							c1.608,0.004,2.923,0.288,2.935,0.633c-0.002,0.044-0.023,0.71-0.061,1.844c0.016,1.151,0.022,2.777,0.175,4.779
							c0.235,3.971,1.012,9.481,0.729,15.105c-0.356,5.726-2.339,10.827-3.281,14.71c-0.124,0.487-0.242,0.955-0.354,1.398
							c-0.089,0.448-0.174,0.873-0.253,1.272c-0.171,0.8-0.297,1.502-0.344,2.086C521.411,334.332,521.334,335,521.334,335z"/>
					</g>
				</g>
			</g>
			<g>
				<g>
					<g>
						<path d="M529.001,343.667c0,0,0.143-0.558,0.393-1.535c0.134-0.483,0.277-1.074,0.368-1.768
							c0.103-0.69,0.268-1.454,0.303-2.312c0.075-0.85,0.143-1.767,0.119-2.744c0.03-0.97-0.053-2-0.113-3.056
							c-0.184-2.121-0.489-4.363-0.895-6.629c-0.791-4.515-1.683-9.184-1.775-12.92c-0.089-1.856,0.015-3.447,0.082-4.575
							c0.14-1.13,0.222-1.795,0.227-1.839c0.069-0.352,1.396-0.332,2.959,0.044s2.789,0.908,2.735,1.186
							c-0.01,0.035-0.159,0.567-0.413,1.473c-0.195,0.926-0.499,2.238-0.677,3.877c-0.443,3.258-0.316,7.818-0.236,12.489
							c0.046,2.33-0.005,4.697-0.164,6.897c-0.11,1.104-0.193,2.164-0.383,3.164c-0.135,1.001-0.354,1.933-0.568,2.786
							c-0.174,0.86-0.467,1.617-0.679,2.292c-0.202,0.68-0.44,1.25-0.652,1.713C529.229,343.137,529.001,343.667,529.001,343.667z"
							/>
					</g>
				</g>
			</g>
			<g>
				<g>
					<g>
						<path d="M531.001,359.667c0,0-0.021-0.48-0.059-1.32c-0.019-0.423-0.041-0.937-0.066-1.526
							c-0.028-0.592-0.067-1.263-0.015-1.987c0.046-2.917,0.458-6.816,0.978-10.656c0.226-1.912,0.525-3.829,0.667-5.596
							c0.084-0.882,0.164-1.737,0.24-2.548c0.029-0.8,0.058-1.558,0.084-2.258c0.099-1.4-0.013-2.542-0.043-3.35
							c-0.035-0.805-0.056-1.278-0.058-1.309c0.014-0.245,1.331-0.446,2.939-0.45c1.608-0.003,2.901,0.229,2.887,0.519
							c-0.004,0.036-0.076,0.578-0.198,1.499c-0.134,0.917-0.265,2.222-0.649,3.698c-0.17,0.742-0.353,1.544-0.549,2.392
							c-0.237,0.822-0.487,1.687-0.746,2.582c-0.496,1.797-1.148,3.617-1.733,5.469c-1.225,3.659-2.327,7.299-2.913,10.11
							c-0.186,0.698-0.271,1.346-0.353,1.922c-0.085,0.578-0.159,1.082-0.22,1.497C531.07,359.19,531.001,359.667,531.001,359.667z"
							/>
					</g>
				</g>
			</g>
			<g>
				<g>
					<g>
						<path d="M547.999,285c0,0-0.007,0.676-0.018,1.86c0.034,0.603-0.114,1.309-0.227,2.135c-0.085,0.837-0.338,1.739-0.598,2.736
							c-0.231,1.011-0.652,2.033-1.014,3.16c-0.425,1.086-0.863,2.255-1.348,3.422c-0.465,1.17-0.945,2.379-1.434,3.608
							c-0.208,0.603-0.418,1.212-0.629,1.823c-0.219,0.596-0.363,1.289-0.549,1.931c-0.704,2.614-1.409,5.23-2.07,7.687
							c-0.315,1.214-0.688,2.45-0.914,3.498c-0.313,1.254-0.673,2.328-0.974,3.303c-0.623,1.931-0.914,3.365-0.996,4.322
							c-0.083,0.95,0.018,1.426,0.013,1.462c-0.001,0.243-1.311,0.566-2.91,0.72c-1.601,0.154-2.91-0.133-2.915-0.642
							c0.006-0.058-0.018-1.017,0.314-2.467c0.319-1.436,1.016-3.3,1.91-5.168c0.432-0.934,0.907-1.911,1.294-2.885
							c0.44-1.192,0.93-2.26,1.419-3.458c0.987-2.352,2.038-4.855,3.087-7.356c0.278-0.628,0.491-1.244,0.82-1.877
							c0.315-0.628,0.63-1.253,0.941-1.873c0.659-1.169,1.307-2.319,1.933-3.432c0.642-1.099,1.211-2.159,1.773-3.169
							c0.487-1.028,1.041-1.979,1.388-2.909c0.378-0.922,0.746-1.768,0.933-2.556c0.217-0.781,0.46-1.461,0.503-2.044
							C547.902,285.666,547.999,285,547.999,285z"/>
					</g>
				</g>
			</g>
			<g>
				<g>
					<g>
						<path d="M545.666,268.667c0,0-0.48,2.336-1.2,5.847c-0.665,3.541-1.837,8.165-2.938,12.822
							c-0.992,4.766-2.604,9.407-3.248,12.749c-0.367,1.685-0.494,3.055-0.607,4.017c-0.023,0.941-0.037,1.494-0.037,1.531
							c-0.032,0.28-1.364,0.444-2.97,0.368c-1.606-0.077-2.878-0.448-2.838-0.829c0.008-0.046,0.13-0.747,0.337-1.938
							c0.302-1.142,0.717-2.753,1.398-4.531c1.309-3.624,3.534-7.793,5.179-12.217c1.798-4.447,3.667-8.86,4.849-12.225
							C544.837,270.902,545.666,268.667,545.666,268.667z"/>
					</g>
				</g>
			</g>
			<g>
				<g>
					<g>
						<path d="M546.999,222.667c0,0-0.022,0.514-0.061,1.414c-0.02,0.452-0.043,1.001-0.07,1.632
							c-0.019,0.634-0.055,1.348-0.17,2.118c-0.194,1.544-0.367,3.374-0.812,5.289c-0.329,1.949-0.939,3.96-1.511,6.008
							c-0.312,1.012-0.7,1.999-1.045,2.991c-0.179,0.495-0.357,0.985-0.531,1.471c-0.208,0.472-0.413,0.938-0.614,1.396
							c-0.409,0.921-0.805,1.812-1.181,2.658c-0.434,0.82-0.845,1.597-1.225,2.315c-0.729,1.463-1.489,2.603-2.005,3.429
							c-0.521,0.824-0.828,1.309-0.849,1.34c-0.183,0.243-1.346-0.383-2.595-1.395c-1.249-1.013-2.132-2.009-1.97-2.225
							c0.022-0.026,0.368-0.413,0.956-1.07c0.588-0.659,1.46-1.565,2.349-2.772c0.463-0.593,0.964-1.235,1.493-1.913
							c0.481-0.714,0.988-1.467,1.512-2.244c0.264-0.392,0.531-0.79,0.802-1.192c0.241-0.42,0.485-0.845,0.731-1.273
							c0.482-0.862,1.015-1.725,1.477-2.621c0.868-1.815,1.798-3.629,2.437-5.421c0.755-1.759,1.229-3.474,1.687-4.942
							c0.248-0.731,0.405-1.416,0.532-2.026c0.137-0.611,0.256-1.143,0.354-1.581C546.887,223.17,546.999,222.667,546.999,222.667z"
							/>
					</g>
				</g>
			</g>
			<g opacity="0.1">
				<g>
					<g>
						<path fill="#FFFFFF" d="M369.667,296c0,0-0.309-0.53-0.866-1.487c-0.544-0.965-1.325-2.369-2.135-4.198
							c-0.787-1.829-1.661-4.109-1.921-6.839c-0.152-1.355-0.12-2.819,0.147-4.3c0.238-1.489,0.747-2.981,1.46-4.4
							c1.495-2.79,3.47-5.144,5.717-6.711c0.53-0.427,1.142-0.711,1.684-1.053c0.277-0.161,0.55-0.32,0.819-0.477
							c0.281-0.132,0.569-0.24,0.846-0.356c0.555-0.225,1.092-0.441,1.607-0.649c0.537-0.137,1.052-0.269,1.544-0.394
							c0.971-0.291,1.887-0.35,2.678-0.437c0.396-0.038,0.762-0.089,1.1-0.105c0.34,0.007,0.651,0.014,0.931,0.02
							c1.108,0.034,1.721,0.053,1.721,0.053s-0.605,0.089-1.699,0.25c-0.271,0.038-0.572,0.08-0.902,0.126
							c-0.326,0.067-0.675,0.171-1.051,0.263c-0.75,0.196-1.61,0.368-2.499,0.761c-0.448,0.171-0.918,0.351-1.408,0.539
							c-0.461,0.246-0.94,0.501-1.436,0.765c-0.246,0.133-0.503,0.256-0.751,0.402c-0.235,0.167-0.475,0.337-0.717,0.509
							c-0.473,0.359-1.012,0.653-1.468,1.081c-1.948,1.565-3.633,3.784-4.98,6.28c-0.637,1.268-1.115,2.577-1.373,3.884
							c-0.286,1.302-0.389,2.599-0.337,3.842c0.058,2.493,0.652,4.744,1.197,6.61c0.566,1.868,1.122,3.368,1.5,4.406
							C369.456,295.425,369.667,296,369.667,296z"/>
					</g>
				</g>
			</g>
			<g opacity="0.1">
				<g>
					<g>
						<path fill="#FFFFFF" d="M406.667,293.333c0,0-0.145,0.096-0.419,0.28c-0.277,0.179-0.677,0.467-1.228,0.772
							c-1.082,0.648-2.722,1.482-4.855,2.263c-2.129,0.788-4.759,1.491-7.749,1.918c-1.495,0.206-3.08,0.35-4.731,0.354
							c-1.65,0.021-3.369-0.077-5.112-0.364c-3.483-0.529-6.763-1.797-9.235-3.739c-1.235-0.97-2.211-2.131-2.96-3.298
							c-0.345-0.606-0.683-1.184-0.897-1.792c-0.269-0.584-0.416-1.18-0.564-1.743c-0.549-2.272-0.368-4.142-0.259-5.391
							c0.221-1.24,0.343-1.927,0.343-1.927s-0.014,0.692-0.04,1.943c0.07,1.237,0.148,3.058,0.886,5.097
							c0.194,0.504,0.382,1.034,0.68,1.538c0.244,0.53,0.601,1.02,0.951,1.532c0.761,0.981,1.69,1.935,2.84,2.729
							c2.302,1.586,5.296,2.638,8.559,3.134c6.56,0.992,12.727,0.119,17.003-0.919c2.149-0.532,3.854-1.127,5.005-1.607
							c0.586-0.22,1.019-0.44,1.321-0.573C406.509,293.405,406.667,293.333,406.667,293.333z"/>
					</g>
				</g>
			</g>
			<g opacity="0.1">
				<g>
					<g>
						<path fill="#FFFFFF" d="M427.667,263.333c0,0-0.07,0.72-0.197,2.02c-0.035,0.327-0.073,0.691-0.115,1.089
							c-0.066,0.393-0.173,0.814-0.27,1.271c-0.213,0.91-0.395,1.973-0.824,3.075c-0.194,0.56-0.397,1.147-0.609,1.758
							c-0.239,0.601-0.546,1.201-0.837,1.836c-0.543,1.295-1.369,2.542-2.174,3.898c-1.768,2.604-4.041,5.259-6.818,7.618
							c-2.802,2.331-5.816,4.091-8.662,5.41c-1.456,0.595-2.822,1.193-4.175,1.551c-0.67,0.194-1.304,0.417-1.934,0.559
							c-0.633,0.129-1.24,0.253-1.819,0.372c-1.148,0.274-2.222,0.332-3.148,0.436c-0.465,0.043-0.895,0.097-1.294,0.119
							c-0.4,0-0.766,0-1.094,0.001c-1.306-0.009-2.029-0.015-2.029-0.015s0.714-0.103,2.005-0.288
							c0.321-0.044,0.678-0.093,1.068-0.146c0.387-0.073,0.804-0.181,1.253-0.279c0.895-0.214,1.922-0.387,3.012-0.772
							c0.548-0.17,1.123-0.348,1.721-0.533c0.595-0.194,1.19-0.467,1.818-0.706c1.271-0.45,2.544-1.125,3.903-1.774
							c2.655-1.429,5.459-3.204,8.128-5.424c2.644-2.248,4.887-4.685,6.724-7.07c0.839-1.245,1.725-2.383,2.342-3.576
							c0.328-0.585,0.678-1.137,0.961-1.693c0.263-0.567,0.514-1.112,0.754-1.632c0.53-1.026,0.819-2.025,1.137-2.887
							c0.149-0.433,0.308-0.833,0.423-1.21c0.094-0.382,0.18-0.732,0.256-1.045C427.49,264.033,427.667,263.333,427.667,263.333z"/>
					</g>
				</g>
			</g>
			<g opacity="0.1">
				<g>
					<g>
						<path fill="#FFFFFF" d="M444.334,243c0,0,0.02,0.227,0.06,0.661c0.033,0.434,0.121,1.077,0.099,1.908
							c0.026,1.661-0.165,4.093-0.881,6.999c-0.71,2.902-1.88,6.287-3.562,9.853c-1.652,3.593-3.797,7.334-6.181,11.2
							c-2.44,3.861-5.207,7.271-8.069,10.029c-2.865,2.757-5.857,4.808-8.548,6.139c-2.697,1.333-5.059,1.96-6.695,2.243
							c-0.814,0.16-1.467,0.176-1.896,0.236c-0.433,0.043-0.66,0.065-0.66,0.065s0.224-0.051,0.648-0.148
							c0.421-0.112,1.056-0.203,1.84-0.449c1.577-0.454,3.807-1.301,6.298-2.799c2.488-1.498,5.214-3.657,7.853-6.443
							c2.636-2.789,5.215-6.154,7.59-9.912c2.344-3.802,4.58-7.459,6.353-10.886c1.811-3.418,3.172-6.624,4.097-9.394
							c0.93-2.77,1.356-5.114,1.511-6.747c0.113-0.817,0.102-1.456,0.122-1.891C444.326,243.229,444.334,243,444.334,243z"/>
					</g>
				</g>
			</g>
			<g opacity="0.1">
				<g>
					<g>
						<path fill="#FFFFFF" d="M509.667,258.333c0,0-0.888-0.064-2.491-0.179c-0.806,0.024-1.783,0.018-2.92,0.077
							c-1.144,0.072-2.446,0.153-3.885,0.243c-5.742,0.287-13.713,0.545-22.015,2.991c-1.048,0.268-2.049,0.635-3.043,0.976
							c-0.989,0.326-1.983,0.694-2.967,1.056c-1.964,0.703-3.863,1.327-5.662,1.936c-3.6,1.211-6.814,2.343-9.423,3.506
							c-2.616,1.144-4.629,2.298-5.945,3.212c-0.668,0.445-1.153,0.836-1.477,1.109c-0.331,0.267-0.505,0.407-0.505,0.407
							s0.154-0.162,0.447-0.468c0.29-0.313,0.729-0.765,1.35-1.288c1.219-1.07,3.142-2.457,5.703-3.844
							c2.551-1.405,5.732-2.784,9.29-4.174c1.776-0.682,3.641-1.396,5.573-2.138c0.953-0.379,1.929-0.763,2.969-1.123
							c1.025-0.367,2.062-0.753,3.147-1.032c4.296-1.261,8.54-1.845,12.377-2.075c3.843-0.25,7.299-0.097,10.175-0.022
							c1.44,0.042,2.744,0.08,3.889,0.113c1.15,0.055,2.143,0.168,2.946,0.235C508.788,258.162,509.667,258.333,509.667,258.333z"/>
					</g>
				</g>
			</g>
			<g opacity="0.1">
				<g>
					<g>
						<path fill="#FFFFFF" d="M491,226c0,0-0.005,0.251-0.014,0.729c-0.027,0.476,0.017,1.19-0.09,2.097
							c-0.165,1.814-0.659,4.461-1.983,7.494c-1.319,3.023-3.494,6.394-6.554,9.518c-3.023,3.162-6.845,6.116-11.145,8.7
							c-8.564,5.013-16.639,9.048-22.522,11.731c-2.9,1.391-5.093,2.814-6.4,4.057c-0.718,0.555-1.119,1.14-1.463,1.472
							c-0.325,0.352-0.495,0.537-0.495,0.537s0.147-0.203,0.429-0.589c0.304-0.367,0.651-1.006,1.316-1.637
							c1.196-1.392,3.319-3.067,6.156-4.697c5.711-3.14,13.456-7.553,21.982-12.541c4.182-2.513,7.949-5.277,10.984-8.193
							c3.074-2.883,5.347-5.965,6.837-8.78c1.492-2.82,2.216-5.346,2.558-7.115c0.194-0.882,0.226-1.587,0.307-2.059
							C490.967,226.249,491,226,491,226z"/>
					</g>
				</g>
			</g>
			<g opacity="0.1">
				<g>
					<g>
						<path fill="#FFFFFF" d="M483,184.333c0,0,0.058,0.271,0.168,0.788c0.119,0.516,0.277,1.281,0.389,2.284
							c0.258,1.997,0.347,4.943,0.011,8.534c-0.377,3.565-0.693,7.836-1.525,12.543c-0.81,4.7-2.028,9.833-3.89,15.041
							c-1.858,5.207-4.196,9.973-6.776,14.02c-2.6,4.043-5.462,7.313-8.043,9.84c-1.356,1.2-2.515,2.353-3.698,3.174
							c-1.153,0.852-2.099,1.642-2.982,2.137c-1.708,1.055-2.653,1.639-2.653,1.639s0.882-0.671,2.476-1.885
							c0.824-0.565,1.697-1.433,2.763-2.361c1.096-0.896,2.154-2.122,3.4-3.382c2.361-2.65,4.962-5.987,7.341-10.019
							c2.361-4.04,4.526-8.725,6.344-13.817c1.821-5.092,3.134-10.097,4.109-14.697c0.997-4.594,1.555-8.821,2.171-12.351
							c0.571-3.519,0.725-6.399,0.65-8.394c-0.02-0.999-0.102-1.771-0.168-2.293C483.029,184.609,483,184.333,483,184.333z"/>
					</g>
				</g>
			</g>
			<g opacity="0.1">
				<g>
					<g>
						<path fill="#FFFFFF" d="M422.334,241c0,0,0.052,0.806,0.147,2.262c0.076,1.457,0.211,3.565,0.221,6.183
							c0.041,2.615-0.062,5.747-0.51,9.214c-0.386,3.47-1.463,7.272-3.134,10.97c-3.477,7.364-8.45,12.918-12.51,16.261
							c-2.043,1.67-3.846,2.821-5.157,3.482c-0.634,0.367-1.18,0.554-1.523,0.725c-0.351,0.155-0.535,0.237-0.535,0.237
							s0.171-0.107,0.498-0.311c0.318-0.217,0.823-0.469,1.403-0.91c1.203-0.808,2.832-2.136,4.663-3.943
							c3.642-3.616,8.077-9.312,11.399-16.357c1.594-3.543,2.721-7.057,3.278-10.417c0.61-3.335,0.957-6.401,1.156-8.988
							c0.233-2.585,0.341-4.693,0.446-6.147C422.278,241.805,422.334,241,422.334,241z"/>
					</g>
				</g>
			</g>
			<g opacity="0.1">
				<g>
					<g>
						<path fill="#FFFFFF" d="M270.333,270.667c0,0-0.302,0.557-0.847,1.561c-0.272,0.506-0.611,1.125-1.084,1.79
							c-0.466,0.668-0.949,1.477-1.61,2.265c-1.249,1.644-2.905,3.468-4.858,5.361c-1.961,1.882-4.211,3.833-6.581,5.826
							c-2.366,1.996-4.575,3.912-6.488,5.751c-0.94,0.933-1.839,1.819-2.603,2.715c-0.819,0.855-1.465,1.74-2.094,2.527
							c-0.157,0.197-0.31,0.39-0.458,0.578c-0.132,0.199-0.261,0.393-0.387,0.582c-0.254,0.378-0.492,0.733-0.715,1.066
							c-0.475,0.654-0.79,1.27-1.067,1.766c-0.562,0.994-0.873,1.544-0.873,1.544s0.213-0.596,0.598-1.673
							c0.197-0.54,0.422-1.211,0.804-1.934c0.181-0.368,0.374-0.762,0.578-1.179c0.103-0.209,0.21-0.424,0.32-0.645
							c0.128-0.209,0.259-0.425,0.394-0.645c0.542-0.878,1.114-1.867,1.869-2.823c0.703-1.001,1.549-1.987,2.455-3.016
							c1.839-2.025,4.029-4.085,6.415-6.096c2.39-1.972,4.666-3.851,6.738-5.561c2.037-1.724,3.82-3.331,5.223-4.781
							c0.74-0.694,1.304-1.409,1.854-2c0.556-0.586,0.977-1.137,1.322-1.588C269.941,271.163,270.333,270.667,270.333,270.667z"/>
					</g>
				</g>
			</g>
			<g opacity="0.1">
				<g>
					<g>
						<path fill="#FFFFFF" d="M250,300.667c0,0-0.209,0.345-0.585,0.968c-0.384,0.62-0.992,1.493-1.811,2.506
							c-1.618,2.053-4.12,4.622-6.709,7.466c-1.282,1.435-2.414,2.844-3.346,4.194c-0.423,0.695-0.875,1.339-1.173,2
							c-0.158,0.327-0.349,0.632-0.47,0.946c-0.123,0.316-0.24,0.62-0.352,0.91c-0.265,0.576-0.343,1.136-0.488,1.621
							c-0.154,0.486-0.201,0.917-0.243,1.273c-0.1,0.718-0.156,1.116-0.156,1.116s-0.053-0.4-0.148-1.122
							c-0.049-0.366-0.108-0.817-0.064-1.341c0.035-0.522-0.001-1.141,0.158-1.79c0.064-0.33,0.131-0.676,0.201-1.036
							c0.075-0.361,0.22-0.712,0.337-1.091c0.221-0.768,0.605-1.516,0.988-2.322c0.843-1.558,1.967-3.155,3.308-4.653
							c2.71-2.974,5.525-5.163,7.458-6.846c0.98-0.831,1.754-1.525,2.275-2.024C249.707,300.943,250,300.667,250,300.667z"/>
					</g>
				</g>
			</g>
			<g opacity="0.1">
				<g>
					<g>
						<path fill="#FFFFFF" d="M241,315c0,0-0.275,0.78-0.859,1.953c-0.586,1.169-1.483,2.708-2.579,4.272
							c-1.071,1.575-2.11,2.924-2.794,3.99c-0.674,1.092-1.101,1.784-1.101,1.784s0.006-0.206,0.017-0.573
							c0.038-0.362,0.015-0.933,0.185-1.577c0.26-1.322,0.964-3.069,2.095-4.728c1.149-1.641,2.438-2.889,3.405-3.758
							C240.332,315.494,241,315,241,315z"/>
					</g>
				</g>
			</g>
			<g opacity="0.1">
				<g>
					<g>
						<path fill="#FFFFFF" d="M245,306.667c0,0-0.853,1.188-2.354,2.98c-1.499,1.765-3.559,4.192-5.833,6.871
							c-1.099,1.346-2.098,2.647-2.957,3.871c-0.808,1.244-1.536,2.388-1.982,3.426c-0.264,0.508-0.442,0.988-0.591,1.417
							c-0.169,0.426-0.296,0.8-0.359,1.117c-0.166,0.633-0.258,0.985-0.258,0.985s-0.015-0.366-0.043-1.024
							c-0.026-0.336-0.003-0.742,0.06-1.213c0.043-0.476,0.112-1.018,0.272-1.597c0.242-1.189,0.789-2.523,1.494-3.953
							c0.751-1.399,1.715-2.857,2.863-4.263c2.322-2.791,4.822-4.882,6.655-6.333C243.81,307.506,245,306.667,245,306.667z"/>
					</g>
				</g>
			</g>
			<g opacity="0.1">
				<g>
					<g>
						<path fill="#FFFFFF" d="M242.333,319c0,0-0.57,0.961-1.48,2.497c-0.907,1.528-2.108,3.63-3.364,5.944
							c-0.623,1.161-1.181,2.274-1.673,3.303c-0.451,1.037-0.871,1.983-1.122,2.812c-0.151,0.411-0.253,0.791-0.337,1.129
							c-0.096,0.338-0.171,0.633-0.206,0.878c-0.097,0.495-0.15,0.77-0.15,0.77s-0.055-0.277-0.153-0.775
							c-0.057-0.254-0.087-0.565-0.103-0.93c-0.028-0.367-0.043-0.787-0.006-1.247c0.023-0.932,0.227-2.018,0.54-3.205
							c0.35-1.168,0.839-2.423,1.5-3.656c1.336-2.462,3.005-4.374,4.314-5.627C241.4,319.634,242.333,319,242.333,319z"/>
					</g>
				</g>
			</g>
			<g opacity="0.1">
				<g>
					<g>
						<path fill="#FFFFFF" d="M243.667,247.333c0,0,0.288,0.739,0.808,2.076c0.263,0.668,0.573,1.491,0.879,2.464
							c0.311,0.972,0.708,2.07,1.021,3.319c0.344,1.242,0.712,2.607,0.995,4.1c0.345,1.481,0.559,3.094,0.799,4.791
							c0.378,3.4,0.53,7.21,0.145,11.143c-0.15,1.997-0.535,3.962-1.085,5.774c-0.553,1.815-1.266,3.483-1.98,5.04
							c-1.463,3.097-2.968,5.738-4.104,8.014c-1.146,2.27-1.969,4.158-2.442,5.504c-0.263,0.665-0.397,1.203-0.524,1.559
							c-0.117,0.359-0.178,0.548-0.178,0.548s0.033-0.195,0.097-0.567c0.075-0.369,0.137-0.929,0.314-1.625
							c0.301-1.409,0.908-3.414,1.847-5.815c0.928-2.405,2.227-5.177,3.488-8.271c0.612-1.552,1.227-3.184,1.698-4.906
							c0.467-1.726,0.79-3.519,0.934-5.417c0.376-3.844,0.346-7.494,0.159-10.829c-0.146-1.662-0.249-3.25-0.477-4.723
							c-0.166-1.482-0.41-2.851-0.633-4.104c-0.191-1.26-0.467-2.378-0.666-3.373c-0.195-0.997-0.401-1.846-0.577-2.539
							C243.851,248.105,243.667,247.333,243.667,247.333z"/>
					</g>
				</g>
			</g>
			<g opacity="0.1">
				<g>
					<g>
						<path fill="#FFFFFF" d="M276,237.333c0,0-0.519,0.546-1.456,1.534c-0.475,0.486-1.043,1.094-1.695,1.805
							c-0.658,0.705-1.409,1.504-2.208,2.415c-1.639,1.784-3.488,3.993-5.5,6.463c-1.966,2.507-4.059,5.305-6.047,8.374
							c-1.961,3.085-3.604,6.146-4.904,9.026c-0.559,1.471-1.203,2.84-1.576,4.194c-0.213,0.671-0.419,1.319-0.616,1.941
							c-0.147,0.637-0.289,1.248-0.423,1.831c-0.319,1.163-0.426,2.244-0.566,3.192c-0.066,0.476-0.129,0.918-0.186,1.326
							c-0.018,0.41-0.034,0.785-0.049,1.122c-0.069,1.358-0.106,2.11-0.106,2.11s-0.07-0.751-0.197-2.108
							c-0.029-0.342-0.062-0.722-0.098-1.138c-0.004-0.416,0.015-0.868,0.023-1.355c0.028-0.974,0.016-2.096,0.222-3.311
							c0.082-0.612,0.168-1.253,0.257-1.922c0.132-0.66,0.301-1.339,0.462-2.049c0.277-1.434,0.837-2.884,1.333-4.445
							c1.173-3.051,2.77-6.288,4.79-9.463c2.046-3.159,4.288-5.95,6.43-8.382c2.186-2.394,4.238-4.463,6.062-6.089
							c0.893-0.833,1.733-1.55,2.473-2.176c0.734-0.632,1.376-1.163,1.915-1.583C275.408,237.8,276,237.333,276,237.333z"/>
					</g>
				</g>
			</g>
			<g opacity="0.1">
				<g>
					<g>
						<path fill="#FFFFFF" d="M252.667,217.333c0,0,1.001,2.056,2.539,5.428c0.775,1.681,1.598,3.769,2.205,6.209
							c0.637,2.441,0.74,5.278,0.467,8.159c-0.613,5.783-2.752,10.609-4.371,13.919c-0.826,1.663-1.542,2.98-2.047,3.884
							c-0.51,0.901-0.792,1.401-0.792,1.401s0.744-2.165,1.943-5.657c1.168-3.486,2.764-8.295,3.337-13.754
							c0.251-2.712,0.283-5.299-0.144-7.634c-0.399-2.332-0.961-4.431-1.508-6.191C253.217,219.569,252.667,217.333,252.667,217.333
							z"/>
					</g>
				</g>
			</g>
			<g opacity="0.1">
				<g>
					<g>
						<path fill="#FFFFFF" d="M542,300c0,0-0.802,1.575-2.092,4.109c-1.262,2.535-2.963,6-3.378,10.143
							c-0.539,4.308-1.244,8.18-1.988,10.952c-0.691,2.774-1.208,4.463-1.208,4.463s0.04-1.781,0.249-4.616
							c0.262-2.823,0.483-6.746,1.021-11.043c0.035-0.269,0.069-0.535,0.103-0.8c0.056-0.279,0.111-0.556,0.166-0.83
							c0.121-0.546,0.202-1.098,0.393-1.599c0.172-0.507,0.326-1.012,0.514-1.488c0.21-0.465,0.416-0.92,0.617-1.364
							c0.874-1.732,1.819-3.18,2.685-4.326c0.848-1.161,1.598-2.043,2.108-2.658C541.711,300.336,542,300,542,300z"/>
					</g>
				</g>
			</g>
			<g opacity="0.1">
				<g>
					<g>
						<path fill="#FFFFFF" d="M537.334,293c0,0-0.146,0.298-0.408,0.835c-0.254,0.539-0.686,1.27-1.123,2.211
							c-0.85,1.91-1.866,4.527-2.738,7.538c-0.845,3.021-1.61,5.821-2.257,7.838c-0.647,2.02-1.141,3.246-1.141,3.246
							s0.018-1.325,0.188-3.432c0.171-2.108,0.461-5.029,1.346-8.195c0.916-3.171,2.477-5.799,3.774-7.503
							c0.665-0.847,1.305-1.449,1.708-1.885C537.102,293.233,537.334,293,537.334,293z"/>
					</g>
				</g>
			</g>
			<g opacity="0.1">
				<g>
					<g>
						<path fill="#FFFFFF" d="M539.334,282.333c0,0-0.837,1.419-2.256,3.639c-1.417,2.223-3.392,5.251-5.438,8.626
							c-1.01,1.696-1.926,3.327-2.708,4.841c-0.734,1.529-1.395,2.924-1.804,4.149c-0.239,0.604-0.403,1.166-0.543,1.665
							c-0.156,0.496-0.274,0.929-0.337,1.29c-0.16,0.722-0.249,1.123-0.249,1.123s-0.02-0.412-0.053-1.154
							c-0.027-0.377-0.014-0.833,0.033-1.363c0.03-0.534,0.08-1.143,0.209-1.803c0.188-1.341,0.641-2.886,1.243-4.566
							c0.646-1.659,1.497-3.426,2.543-5.181c2.121-3.497,4.528-6.288,6.335-8.222C538.121,283.444,539.334,282.333,539.334,282.333z
							"/>
					</g>
				</g>
			</g>
			<g opacity="0.1">
				<g>
					<g>
						<path fill="#FFFFFF" d="M537,288c0,0-0.159,0.198-0.445,0.552c-0.283,0.353-0.688,0.86-1.145,1.508
							c-0.937,1.279-2.107,3.088-3.316,5.104c-1.197,2.02-2.2,3.894-2.731,5.36c-0.141,0.364-0.263,0.699-0.339,1
							c-0.089,0.3-0.178,0.564-0.21,0.783c-0.095,0.444-0.148,0.692-0.148,0.692s-0.056-0.25-0.155-0.698
							c-0.06-0.23-0.076-0.511-0.099-0.843c-0.034-0.335-0.029-0.712-0.001-1.131c0.075-1.684,0.717-3.975,2.014-6.158
							c1.307-2.18,2.965-3.809,4.293-4.793c0.655-0.503,1.237-0.842,1.642-1.06C536.771,288.114,537,288,537,288z"/>
					</g>
				</g>
			</g>
			<g opacity="0.1">
				<g>
					<g>
						<path fill="#FFFFFF" d="M534.334,260.333c0,0-0.138,0.733-0.385,2.058c-0.126,0.665-0.273,1.482-0.545,2.402
							c-0.268,0.92-0.504,2-0.906,3.138c-0.741,2.302-1.748,5.01-2.963,7.947c-1.189,2.949-2.595,6.143-3.821,9.537
							c-2.583,6.729-2.878,13.343-3.025,18.134c-0.135,4.804-0.354,7.785-0.354,7.785s-0.236-2.972-0.616-7.77
							c-0.177-2.402-0.285-5.296-0.065-8.523c0.175-3.229,0.975-6.78,2.234-10.287c1.269-3.506,2.794-6.665,4.148-9.538
							c1.381-2.864,2.593-5.434,3.553-7.626c0.513-1.085,0.856-2.107,1.229-2.984c0.378-0.878,0.625-1.657,0.838-2.293
							C534.092,261.039,534.334,260.333,534.334,260.333z"/>
					</g>
				</g>
			</g>
			<g opacity="0.1">
				<g>
					<g>
						<path fill="#FFFFFF" d="M536,266.667c0,0-0.052,0.493-0.145,1.383c-0.041,0.45-0.116,0.995-0.254,1.619
							c-0.125,0.626-0.254,1.35-0.482,2.121c-0.393,1.568-1.04,3.379-1.832,5.35c-0.812,1.959-1.789,4.066-2.847,6.237
							c-1.055,2.172-2.037,4.227-2.864,6.125c-0.802,1.903-1.457,3.647-1.873,5.158c-0.254,0.747-0.368,1.446-0.52,2.055
							c-0.161,0.609-0.24,1.143-0.299,1.583c-0.14,0.881-0.217,1.37-0.217,1.37s-0.031-0.495-0.086-1.388
							c-0.032-0.45-0.058-1.002-0.008-1.641c0.041-0.638,0.038-1.379,0.179-2.175c0.188-1.613,0.634-3.503,1.291-5.542
							c0.682-2.027,1.584-4.197,2.649-6.391c1.067-2.191,2.145-4.226,3.107-6.079c0.94-1.858,1.792-3.531,2.401-4.981
							c0.339-0.716,0.578-1.385,0.81-1.969c0.243-0.583,0.42-1.094,0.549-1.519C535.843,267.136,536,266.667,536,266.667z"/>
					</g>
				</g>
			</g>
			<g opacity="0.1">
				<g>
					<g>
						<path fill="#FFFFFF" d="M355,193.333c0,0,0.093,0.242,0.271,0.703c0.165,0.465,0.468,1.135,0.743,2.035
							c0.616,1.78,1.344,4.42,1.876,7.766c0.503,3.341,0.833,7.411,0.336,11.909c-0.216,2.251-0.707,4.589-1.387,6.971
							c-0.743,2.365-1.772,4.745-3.149,7.011c-2.967,4.364-6.406,8.033-10.132,10.622c-3.672,2.618-7.249,4.542-10.361,5.843
							c-1.533,0.708-2.959,1.244-4.21,1.716c-1.245,0.487-2.328,0.872-3.222,1.164C323.985,249.669,323,250,323,250
							s0.945-0.431,2.653-1.21c0.859-0.376,1.9-0.858,3.092-1.447c1.2-0.573,2.569-1.216,4.029-2.024
							c2.977-1.504,6.352-3.602,9.789-6.271c3.477-2.619,6.696-6.268,9.477-10.344c1.28-2.11,2.274-4.326,3.028-6.549
							c0.692-2.243,1.237-4.458,1.533-6.614c0.657-4.306,0.58-8.281,0.325-11.589c-0.283-3.311-0.767-5.98-1.204-7.798
							c-0.185-0.919-0.416-1.609-0.53-2.091C355.066,193.585,355,193.333,355,193.333z"/>
					</g>
				</g>
			</g>
			<g opacity="0.1">
				<g>
					<g>
						<path fill="#FFFFFF" d="M292.333,187.667c0,0,0.345,0.878,0.967,2.464c0.154,0.399,0.325,0.843,0.512,1.328
							c0.154,0.496,0.321,1.035,0.501,1.615c0.345,1.164,0.8,2.479,1.103,3.98c0.17,0.748,0.348,1.532,0.533,2.349
							c0.195,0.816,0.281,1.685,0.432,2.576c0.122,0.895,0.305,1.816,0.383,2.777c0.071,0.963,0.144,1.954,0.218,2.97
							c0.107,1.016,0.056,2.064,0.05,3.134c-0.037,1.07,0.029,2.167-0.136,3.275c-0.125,1.111-0.251,2.242-0.38,3.389
							c-0.254,1.133-0.512,2.283-0.773,3.447c-1.249,4.668-3.687,8.572-6.008,11.881c-2.364,3.307-4.701,6.085-6.634,8.432
							c-1.937,2.343-3.496,4.243-4.519,5.601C277.564,248.246,277,249,277,249s0.447-0.829,1.333-2.288
							c0.876-1.465,2.248-3.522,3.997-6.018c1.744-2.497,3.883-5.419,6.049-8.761c2.13-3.346,4.343-7.147,5.493-11.479
							c0.254-1.099,0.505-2.186,0.753-3.256c0.143-1.096,0.284-2.177,0.422-3.238c0.187-1.057,0.151-2.121,0.224-3.152
							c0.042-1.034,0.135-2.046,0.074-3.038c-0.023-0.992-0.045-1.96-0.067-2.9c-0.024-0.941-0.151-1.849-0.214-2.732
							c-0.092-0.88-0.117-1.74-0.251-2.552c-0.121-0.815-0.237-1.597-0.349-2.343c-0.18-1.504-0.512-2.832-0.745-4.013
							c-0.122-0.59-0.235-1.14-0.339-1.645c-0.135-0.498-0.258-0.953-0.369-1.362C292.575,188.578,292.333,187.667,292.333,187.667z
							"/>
					</g>
				</g>
			</g>
			<g opacity="0.1">
				<g>
					<g>
						<path fill="#FFFFFF" d="M302.667,196.667c0,0,0.075,0.646,0.211,1.813c0.072,0.585,0.133,1.301,0.189,2.135
							c0.065,0.834,0.126,1.786,0.148,2.839c0.092,2.107,0.03,4.622-0.152,7.414c-0.236,2.787-0.654,5.848-1.387,9.008
							c-0.759,3.155-1.799,6.085-2.945,8.657c-0.633,1.262-1.184,2.48-1.862,3.539c-0.324,0.536-0.626,1.059-0.939,1.547
							c-0.338,0.472-0.663,0.925-0.973,1.358c-0.593,0.88-1.247,1.59-1.798,2.225c-0.277,0.315-0.536,0.607-0.773,0.877
							c-0.262,0.248-0.501,0.474-0.716,0.677c-0.861,0.8-1.337,1.244-1.337,1.244s0.396-0.515,1.11-1.445
							c0.179-0.23,0.379-0.484,0.596-0.764c0.195-0.296,0.407-0.619,0.634-0.965c0.451-0.693,0.993-1.455,1.47-2.379
							c0.253-0.45,0.518-0.921,0.793-1.413c0.244-0.508,0.497-1.037,0.759-1.584c0.558-1.075,0.995-2.301,1.524-3.551
							c0.941-2.556,1.83-5.412,2.567-8.473c0.711-3.067,1.236-6.026,1.647-8.738c0.357-2.717,0.66-5.179,0.81-7.259
							c0.099-1.039,0.159-1.981,0.208-2.811c0.058-0.829,0.103-1.544,0.122-2.13C302.634,197.316,302.667,196.667,302.667,196.667z"
							/>
					</g>
				</g>
			</g>
			<g opacity="0.1">
				<g>
					<g>
						<path fill="#FFFFFF" d="M303.667,210c0,0,0.062,0.352,0.174,0.988c0.099,0.639,0.217,1.572,0.259,2.73
							c0.112,2.316-0.069,5.545-0.903,8.997c-0.851,3.447-2.215,6.414-3.504,8.362c-0.312,0.493-0.614,0.924-0.908,1.285
							c-0.284,0.366-0.525,0.679-0.757,0.911c-0.446,0.467-0.694,0.726-0.694,0.726s0.158-0.32,0.442-0.896
							c0.153-0.277,0.301-0.642,0.48-1.055c0.189-0.406,0.376-0.882,0.571-1.412c0.819-2.099,1.664-5.071,2.483-8.384
							c0.801-3.318,1.45-6.357,1.82-8.595c0.199-1.117,0.324-2.031,0.407-2.667C303.621,210.354,303.667,210,303.667,210z"/>
					</g>
				</g>
			</g>
			<g opacity="0.1">
				<g>
					<g>
						<path fill="#FFFFFF" d="M304,210.667c0,0,0.179,1.279,0.316,3.385c0.232,2.115,0.006,5.014-0.416,8.193
							c-0.595,3.137-1.352,5.932-2.052,7.902c-0.674,1.982-1.181,3.186-1.181,3.186s0.032-1.308,0.231-3.387
							c0.227-2.079,0.499-4.931,1.087-8.022c0.409-3.104,1.111-5.878,1.362-7.928C303.692,211.954,304,210.667,304,210.667z"/>
					</g>
				</g>
			</g>
			<g opacity="0.1">
				<g>
					<g>
						<path fill="#FFFFFF" d="M304.333,211c0,0,0.308,1.172,0.603,3.094c0.298,1.921,0.54,4.608,0.367,7.582
							c-0.225,2.974-0.87,5.638-1.593,7.47c-0.306,0.928-0.748,1.622-0.975,2.111c-0.258,0.478-0.401,0.744-0.401,0.744
							s0.041-0.301,0.115-0.843c0.055-0.546,0.256-1.287,0.32-2.246c0.236-1.892,0.378-4.491,0.598-7.365
							c0.168-2.88,0.413-5.506,0.6-7.426C304.156,212.202,304.333,211,304.333,211z"/>
					</g>
				</g>
			</g>
			<g opacity="0.1">
				<g>
					<g>
						<path fill="#FFFFFF" d="M365,287.667c0,0-0.068-0.092-0.198-0.266c-0.111-0.185-0.368-0.419-0.525-0.811
							c-0.437-0.735-0.767-1.969-0.802-3.507c-0.06-3.092,1.205-7.246,3.722-11.132c1.277-1.919,2.785-3.669,4.478-4.831
							c0.403-0.312,0.855-0.537,1.263-0.793c0.409-0.256,0.818-0.48,1.243-0.642c0.413-0.175,0.813-0.345,1.198-0.508
							c0.396-0.13,0.785-0.228,1.149-0.333c0.723-0.233,1.406-0.314,1.998-0.393c0.294-0.039,0.568-0.074,0.821-0.107
							c0.255-0.003,0.488-0.006,0.698-0.009c0.829,0,1.289,0,1.289,0s-0.445,0.107-1.248,0.301
							c-0.199,0.045-0.419,0.097-0.661,0.152c-0.235,0.081-0.49,0.169-0.764,0.264c-0.546,0.185-1.167,0.376-1.808,0.708
							c-0.323,0.154-0.666,0.3-1.012,0.473c-0.332,0.2-0.677,0.408-1.034,0.624c-0.366,0.195-0.713,0.447-1.058,0.723
							c-0.343,0.276-0.728,0.514-1.065,0.832c-1.428,1.195-2.649,2.793-3.861,4.602c-2.356,3.638-3.972,7.335-4.379,10.13
							c-0.199,1.392-0.137,2.57,0.115,3.336c0.066,0.407,0.251,0.669,0.314,0.879C364.956,287.56,365,287.667,365,287.667z"/>
					</g>
				</g>
			</g>
			<g opacity="0.1">
				<g>
					<g>
						<path fill="#FFFFFF" d="M366,279.333c0,0,0.001-0.257,0.003-0.719c0.008-0.465,0.059-1.14,0.214-1.96
							c0.291-1.639,1.041-3.907,2.635-5.992c0.807-1.028,1.749-1.88,2.691-2.523c0.968-0.614,1.912-1.047,2.752-1.243
							c0.404-0.133,0.798-0.164,1.129-0.211c0.33-0.055,0.619-0.057,0.855-0.045c0.462,0.018,0.72,0.028,0.72,0.028
							s-0.237,0.097-0.662,0.27c-0.212,0.077-0.465,0.179-0.742,0.338c-0.279,0.15-0.602,0.286-0.923,0.516
							c-0.669,0.389-1.378,0.972-2.117,1.637c-0.718,0.7-1.451,1.512-2.168,2.424c-1.411,1.843-2.522,3.696-3.251,5.115
							c-0.373,0.705-0.654,1.299-0.838,1.715C366.107,279.101,366,279.333,366,279.333z"/>
					</g>
				</g>
			</g>
			<g opacity="0.1">
				<g>
					<g>
						<path fill="#FFFFFF" d="M372.333,292.667c0,0-0.911-0.36-2.302-1.126c-0.693-0.388-1.516-0.927-2.303-1.75
							c-0.796-0.843-1.377-1.956-1.755-3.191c-0.413-1.297-0.354-2.504-0.335-3.527c0.043-1.034,0.116-1.917,0.097-2.661
							c0.024-0.384-0.044-0.698-0.068-1c-0.018-0.148-0.024-0.293-0.047-0.419c-0.036-0.122-0.069-0.233-0.1-0.333
							c-0.12-0.423-0.187-0.659-0.187-0.659c-0.051,0.008,0.826,0.639,1.357,2.237c0.272,0.779,0.445,1.742,0.583,2.751
							c0.158,1.009,0.237,2.09,0.559,3.051c0.313,1.016,0.684,1.984,1.184,2.738c0.507,0.766,1.09,1.438,1.616,2
							C371.693,291.903,372.333,292.667,372.333,292.667z"/>
					</g>
				</g>
			</g>
			<g opacity="0.1">
				<g>
					<g>
						<path fill="#FFFFFF" d="M413,289.667c0,0-0.569,0.383-1.598,1.076c-0.514,0.354-1.152,0.772-1.941,1.174
							c-0.784,0.409-1.652,0.945-2.693,1.357c-0.515,0.222-1.055,0.455-1.617,0.696c-0.561,0.247-1.178,0.413-1.802,0.632
							c-1.244,0.459-2.625,0.77-4.08,1.106c-2.925,0.569-6.227,0.882-9.685,0.636c-3.454-0.287-6.681-1.109-9.472-2.183
							c-0.685-0.3-1.354-0.592-2.002-0.877c-0.655-0.268-1.23-0.66-1.815-0.969c-1.179-0.611-2.174-1.35-3.085-2.005
							c-0.94-0.614-1.647-1.362-2.324-1.931c-0.682-0.568-1.19-1.141-1.604-1.608c-0.826-0.925-1.283-1.438-1.283-1.438
							s0.531,0.433,1.49,1.216c0.471,0.397,1.042,0.884,1.783,1.352c0.735,0.47,1.495,1.105,2.474,1.6
							c0.95,0.536,1.969,1.146,3.152,1.632c0.588,0.247,1.159,0.576,1.807,0.784c0.637,0.228,1.292,0.463,1.964,0.704
							c2.721,0.854,5.788,1.513,9.063,1.787c3.28,0.231,6.419,0.054,9.256-0.314c1.41-0.237,2.763-0.431,3.996-0.769
							c0.618-0.159,1.233-0.263,1.798-0.448c0.568-0.177,1.114-0.347,1.635-0.51c1.059-0.289,1.958-0.706,2.778-1.006
							c0.825-0.294,1.506-0.614,2.06-0.885C412.378,289.955,413,289.667,413,289.667z"/>
					</g>
				</g>
			</g>
			<g opacity="0.1">
				<g>
					<g>
						<path fill="#FFFFFF" d="M418.667,279.333c0,0-0.374,0.482-1.048,1.353c-0.337,0.439-0.759,0.968-1.292,1.544
							c-0.529,0.579-1.105,1.272-1.827,1.95c-0.704,0.699-1.481,1.462-2.382,2.208c-0.87,0.785-1.875,1.53-2.931,2.321
							c-2.148,1.525-4.645,3.034-7.42,4.304c-2.787,1.245-5.569,2.122-8.133,2.727c-1.291,0.271-2.514,0.531-3.678,0.667
							c-1.155,0.184-2.242,0.262-3.232,0.33c-0.986,0.094-1.887,0.068-2.671,0.085c-0.785,0.02-1.461-0.014-2.012-0.05
							c-1.099-0.068-1.708-0.106-1.708-0.106s0.605-0.07,1.698-0.197c0.545-0.055,1.211-0.127,1.978-0.26
							c0.767-0.129,1.643-0.223,2.595-0.435c0.956-0.186,2-0.38,3.104-0.671c1.113-0.242,2.278-0.598,3.505-0.947
							c2.439-0.76,5.072-1.715,7.754-2.913c2.671-1.223,5.128-2.568,7.309-3.896c1.072-0.692,2.109-1.33,3.025-2.006
							c0.947-0.637,1.784-1.293,2.555-1.888c0.788-0.575,1.438-1.17,2.04-1.661c0.606-0.488,1.101-0.94,1.501-1.314
							C418.215,279.741,418.667,279.333,418.667,279.333z"/>
					</g>
				</g>
			</g>
			<g opacity="0.1">
				<g>
					<g>
						<path fill="#FFFFFF" d="M419,258.333c0,0-0.115,0.693-0.322,1.945c-0.221,1.25-0.563,3.057-1.094,5.27
							c-1.08,4.403-2.837,10.533-6.324,16.668c-1.745,3.055-3.806,5.763-6.015,7.906c-2.226,2.125-4.567,3.691-6.704,4.6
							c-2.13,0.924-3.969,1.319-5.237,1.46c-0.629,0.103-1.131,0.089-1.462,0.122c-0.333,0.018-0.508,0.028-0.508,0.028
							s0.171-0.038,0.498-0.11c0.324-0.085,0.811-0.146,1.414-0.336c1.216-0.316,2.936-0.937,4.859-2.03
							c1.932-1.08,3.99-2.748,5.968-4.877c1.963-2.152,3.821-4.787,5.503-7.728c3.356-5.897,5.544-11.743,7.078-15.979
							c0.757-2.125,1.334-3.864,1.73-5.068C418.78,259,419,258.333,419,258.333z"/>
					</g>
				</g>
			</g>
		</g>
		<g>
			<path opacity="0.3" enable-background="new    " d="M504,319.849c0.059-1.16,0.007-2.417-0.126-3.731
				C503.805,317.412,503.834,318.669,504,319.849z"/>
			<path opacity="0.3" enable-background="new    " d="M537,357c0-4.858-0.169-10.004-0.389-14.611
				c-0.391-8.186-3.621-13.814-3.611-21.889c0.01-8.03,0.479-16.494-1.025-23.974c-1.362-6.769-2.229-13.996-6.1-20.038
				c-3.894-6.075-9.283-8.53-14.86-12.114c-5.949-3.822-9.448-10.256-15.14-14.249c-5.726-4.016-12.991-6.207-19.39-8.611
				c-14.847-5.58-31.414-8.362-47.485-9.014c-6.758-0.274-13.52-0.287-20.263-0.111c-0.874-0.877-1.876-1.686-3.034-2.408
				c-8.682-5.408-21.654-5.501-31.372-5.98c-21.081-1.04-45.076-0.463-64.699,4.628c-9.736,2.526-19.381,7.898-28.466,12.203
				c-2.925,1.386-11.027,3.295-12.867,5.132c-3.222,3.218-1.907,9.765-3.28,14.054c-1.737,5.428-4.871,12.248-8.019,16.648
				l-1.333,4.667c8.606,0.062,17.189-6.934,24.667-10.664c7.965-3.974,16.752-6.647,25.299-8.037
				c9.205-1.496,22.348-3.174,32.069-1.333c6.03,1.142,11.582,4.538,17.24,7.615c-0.489,1.141-0.872,2.194-1.128,3.083
				c-2.875,9.96-0.513,18.677,6.685,25.837c14.907,14.829,40.378,11.933,57.671,3.35c4.495-2.231,8.902-4.712,13.204-7.342
				c6.006-1.393,11.897-3.189,17.613-5.466c12.38-4.932,27.245-15.131,40.514-5.375c5.28,3.882,8.259,9.175,10.109,15.389
				c1.448,4.864,3.672,11.873,4.265,17.729c0.332-6.284,3.159-13.539,6.013-18.08c1.05,9.189,5.395,17.493,7.725,26.351
				c2.463,9.364,4.354,19.575,4.389,29.683c0.089-7.765,4.11-15.818,5.856-23.679c-0.949,5.328-1.976,10.749-1.882,16.431
				c0.751-2.197,1.295-4.54,2.926-6.271c-0.428,9.731,1.09,20.167,1.102,30.297c0.682-4.549,2.767-10.924,5.632-14.719
				c0.012,3.575-1.124,6.834-1.132,10.719C535.219,363.438,536.595,360.332,537,357z"/>
		</g>
	</g>
</g>
</svg>
