<?xml version="1.0" encoding="utf-8"?>
<!-- Generator: Adobe Illustrator 25.0.1, SVG Export Plug-In . SVG Version: 6.00 Build 0)  -->
<svg version="1.1" id="Capa_1" xmlns="http://www.w3.org/2000/svg" xmlns:xlink="http://www.w3.org/1999/xlink" x="0px" y="0px"
	 viewBox="0 0 800 800" enable-background="new 0 0 800 800" xml:space="preserve">
<g id="pelo">
	<g id="Capa_84">
		<g>
			<g>
				<g>
					<path fill="#442D00" d="M225.731,346.815c0.087-0.029,0.171-0.06,0.256-0.087c-0.469-0.357-0.939-0.711-1.417-1.036
						L225.731,346.815z"/>
					<path fill="#442D00" d="M577.326,368.144c-2.227-7.984-8.366-13.239-13.801-19.084c-5.793-6.23-10.055-11.404-18.43-14.732
						c-16.417-6.521-31.119-9.965-50.058-9.965c-19.102,0-37.285,1.343-55.719,2.245c-38.297,1.874-75.586-2.962-113.178-1.122
						c-18.886,0.924-36.151,2.937-53.977,6.202c-16.289,2.984-30.593,9.78-46.176,15.039c0.869,0.658,1.727,1.358,2.578,2.097
						c-12.111,4.278-21.696,16.67-25.341,27.861c-5.197,15.963-4.425,34.877-1.16,51.392c6.642,33.578,1.076,72.429,12.51,105.209
						c5.664,16.234,3.184,33.763,5.92,50.968c2.653,16.677,3.566,34.396,5.25,51.612C227.239,651.13,238.143,669.38,252,679
						c12.389,8.599,22.538,13.123,35.979,19.044c30.695,13.519,65.029,20.346,99.685,20.346c18.955,0,38.869,1.169,57.43-0.59
						c9.05-0.858,18.366-2.303,27.322-4.462c7.581-1.827,16.657-2.711,23.639-6.315c2.151-1.109,5.26-3.185,6.492-5.763
						c5.314-1.891,10.203-4.546,15.256-7.443c13.081-7.501,26.695-16.283,35.419-28.736c9.727-13.885,14.364-30.328,14.366-47.163
						c0.002-6.69,1.314-16.762-1.093-23.467c0.291-12.298-0.683-24.813,1.109-36.575c1.988-13.056,6.073-24.565,4.598-38.744
						c-0.913-8.762-0.122-17.859-1.134-26.94c-0.966-8.682-5.214-17.423-5.799-26.384c-1.217-18.633,3.047-32.276,8.576-48.393
						C579.271,401.603,582.029,385.015,577.326,368.144z M326.789,688.723c-9.193,6.487-24.232-1.883-32.835-6.234
						c-11.773-5.956-23.004-13.561-32.714-22.342c-9.35-8.454-17.513-17.949-19.213-30.601c-1.909-14.227,2.492-28.273,1.697-42.499
						c-0.158-2.851-1.477-5.932,0.581-6.735c-1.733-2.857-0.512-4.529-2.031-7.548c-3.583-7.13,7.428-13.395,11.025-6.232
						c2.517,5.008,5.258,9.926,8.443,14.572c6.557,9.559,14.633,18.208,23.983,25.298c5.358,2.241,10.591,4.765,15.772,7.392
						c6.719,3.404,13.96,6.351,19.904,10.986c5.468,4.263,7.623,9.553,8.327,15.322c2.205,6.285,2.437,13.128,1.898,20.097
						C330.952,668.935,335.316,682.705,326.789,688.723z M298.298,582.57c-12.161-9.35-22.987-17.93-31.502-30.87
						c-8.876-13.489-15.694-29.541-22.49-44.385c-14.72-32.152-22.637-59.864-22.637-95.952c0-16.269,7.054-30.023,19.604-40.538
						c2.859-2.394,10.558-6.885,13.512-10.977c0.92-0.355,1.91-0.735,2.996-1.121c13.843-4.937,22.704-7.956,37.018-10.789
						c17.991-3.56,42.729-2.246,62.104-2.246c19.268,0,38.811-0.933,58.054-0.012c18.6,0.889,38.258,1.715,56.864,1.696
						c20.095-0.021,37.358,0.805,55.718,7.998c12.841,5.03,24.317,25.118,25.537,37.469c1.727,17.475-3.882,33.245-8.721,48.843
						c-4.689,15.123-11.486,29.555-13.783,45.016c-2.389,16.066-8.774,32.158-16.815,47.052
						c-7.244,13.417-10.778,29.677-22.056,40.537c-5.963,5.741-15.339,10.393-22.261,16.275c-1.693,0.824-3.403,1.611-5.162,2.237
						c-7.133,2.532-14.436,5.758-21.493,8.262c-7.049,2.501-14.47,5.452-21.909,6.877c-8.653,1.654-18.704,2.12-27.988,2.12
						c-9.268,0-18.68,0.279-27.409-1.562c-8.223-1.731-15.953-4.844-23.796-6.732C325.063,597.767,312.623,593.585,298.298,582.57z
						 M419.586,699.866c-17.985,0.868-38.554,1.832-55.748-2.216c-16.237-3.82-11.578-32.763-11.578-46.055
						c0-9.374-2.405-18.416,9.287-19.659c9.289-0.985,17.756,2.821,27.278,2.821c17.336,0,36.988-0.502,53.268-4.615
						c9.288-2.348,17.184-8.04,22.285,3.956c0.344,0.065,0.683,0.097,1.02,0.112c1.87,6.181,3.521,12.35,3.522,18.508
						c0.001,9.607,0.426,18.131-0.92,26.948c-0.477,3.122-3.103,6.534-2.943,10.572c-6.081,2.481-11.8,5.725-18.179,7.366
						C438.293,699.816,428.457,699.44,419.586,699.866z M541.471,647.667c-3.773,5.953-7.838,10.54-12.333,16.167
						c-3.356,4.202-8.278,6.386-12.443,9.659c-3.521,2.766-6.013,6.305-10.181,8.272c-3.062,1.447-6.26,3.617-9.18,5.234
						c-2.565,1.423-4.233,2.021-6.852,2.691c-2.889-11.31-1.779-24.014-4.699-35.32c-3.002-11.627-2.488-24.052-0.741-36.017
						c12.567-7.509,19.772-18.665,30.454-29.483c1.289-1.308,2.437-3.632,3.775-4.644c1.439-1.088,3.878-1.127,4.93-2.092
						c2.664-2.451,3.334-5.747,5.21-8.995c3.446-5.963,8.172-11.304,11.58-17.427c6.851-1.496,3.73,17.404,3.351,21.203
						c-0.836,8.373-0.396,15.623,0.568,23.954c0.004-0.001,0.009-0.001,0.014-0.002C544.011,616.04,549.335,635.257,541.471,647.667
						z"/>
				</g>
				<path fill="#660E0E" d="M578.035,493.31c0.809-14.021,11.327-28.613,17.445-41.503c7.405-15.597,12.754-31.407,16.158-48.361
					c6.106-30.416,16.433-68.433,7.928-101.847c-7.661-30.099-15.973-60.513-34.857-86.657
					c-17.131-23.714-48.658-40.409-75.161-51.671c-29.498-12.535-62.683-21.329-95.766-26.38
					c-18.259-1.55-27.038-2.274-45.852-1.123c-16.845,1.031-35.899,5.162-52.232,8.481c-55.143,17.9-106.913,54.265-145.944,96.705
					c-18.895,20.545-36.923,53.452-36.887,81.164c0.022,17.79-4.897,36.216-0.581,53.322c3.867,15.327,6.613,38.152,11.608,53.323
					c4.98,15.127,7.285,30.708,15.409,45.211c5.039,8.998,21.457,32.507,32.179,22.759c4.704-4.275,4.38-17.977,5.842-23.57
					c2.342-8.952,3.723-18.078,4.64-26.971c1.864-18.022-3.536-32.64-3.512-50.547c0.025-19.396,2.902-29.46,17.993-42.095
					c12.884-10.787,25.193-15.005,41.207-18.273c35.2-7.183,55.099-10.354,92.865-10.354c38.971,0,94.654,2.246,133.493,2.246
					c33.293,0,71.281-0.863,89.09,31.464c10.099,18.332,4.651,51.829-3.224,69.536c-4.559,10.253-9.661,21.18-5.483,31.436
					c4.682,11.495,14.586,17.783,13.642,31.462"/>
				<path fill="#333333" d="M136.93,391.719c-12.184,7.19-19.54,22.153-29.457,32.132c-4.738,4.766-9.676,9.357-14.51,14.032
					C88.43,442.268,78.182,449.737,75.5,455c-2.5,8,27.583,3.919,34.165,2.963c13.264-1.924,28.733-2.761,42.861-1.544
					c0.21,0.212,0.196,0.228-0.045,0.044c-5.55-8.461-7.509-22.535-9.137-32.219c-1.886-11.226-5.561-21.828-7.576-33.088"/>
				<path fill="#333333" d="M302.344,277.214c0.535-8.045,5.428-15.395-1.596-22.59c-4.973-5.093-11.64-9.314-18.005-12.35
					c-13.236-6.313-26.24-12.452-39.164-19.364c-6.049-3.236-11.804-6.5-18.212-9.161c2.887,6.329,5.922,13.006,8.49,19.686
					c2.908,7.561,3.713,16.416,6.242,24.147c4.481,13.698,7.09,29.696,23.215,35.487c12.492,4.484,33.403-5.037,38.45-17.537"/>
				<path fill="#333333" d="M456.731,283.95c0-9.516-0.642-17.082,4.208-25.118c3.619-5.999,8.383-11.355,13.061-16.558
					c9.314-10.357,18.341-20.912,28.147-31.152c1.893-1.98,4.062-4.061,6.124-5.695c0.471,4.598-1.186,8.775-0.464,13.413
					c0.594,3.819,2.77,7.128,3.353,10.79c1.386,8.709,0.837,17.986,1.741,26.38c0.942,8.736,1.424,18.084,1.87,26.817
					c0.439,8.586-5.073,14.171-12.755,17.821c-14.087,6.693-42.631-1.946-46.446-18.383"/>
				<path fill="#333333" d="M622.146,358.04c5.804,4.04,10.003,10.555,16.091,14.748c6.529,4.498,13.653,8.443,20.459,12.335
					c12.945,7.404,25.635,14.879,38.759,21.89c3.275,1.751,13.646,5.329,13.986,8.76c-15.648,4.177-34.053,3.506-50.436,5.105
					c-8.716,0.849-18.194,0.59-27.25,0.59c-8.831,0-19.481,1.379-27.799-0.673c6.554-8.63,6.515-18.939,8.775-29.075
					c2.522-11.312,5.621-21.88,6.836-33.678"/>
				<path fill="#333333" d="M589.644,223.331c0.104-14.325,10.274-29.904,16.977-42.518c7.453-14.027,12.265-29.014,16.235-43.796
					c2.604-9.689,12.287-23.904,10.23-34.277c-5.719,0.786-11.86,9.265-16.308,13.245c-5.394,4.83-11.042,9.362-16.672,13.748
					c-11.689,9.107-23.723,18.171-35.871,26.367c-5.882,3.967-25.3,15.997-23.259,24.488c9.799,1.124,18.634,12.633,26.018,18.746
					c8.013,6.631,18.869,15.363,23.231,24.557"/>
				<path fill="#333333" d="M492.717,158.782c0.086-11.829,12.127-22.579,9.779-34.715c-4.005-0.889-14.453,10.131-19.066,12.264
					c-4.695,2.17-16.905,6.845-16.15,13.374c4.42,1.721,8.895,1.333,13.41,3.31c3.921,1.717,9.317,3.235,12.607,5.207"/>
				<path fill="#333333" d="M401.595,135.769c-0.17-7.229-6.065-15.074-8.561-21.892c-3.155-8.612-3.471-16.019-4.792-25.254
					c-2.26-15.809-10.926-29.595-13.36-45.467c-0.776-5.059-4.291-28.273-10.333-28.526c-3.554,6.937-3.232,16.725-4.711,24.067
					c-1.547,7.667-3.703,15.009-6.415,22.421c-5.514,15.058-6.951,31.738-11.06,47.679c-2.349,9.113-6.52,20.064-5.685,29.708
					c10.199-2.603,21.543-0.731,32.286-2.859c10.836-2.146,22.018,0.125,33.212,0.125"/>
				<path fill="#333333" d="M258.814,168.885c-5.846-1.407-12.131-10.098-16.976-13.891c-5.794-4.532-9.438-9.372-14.222-14.844
					c-10.154-11.616-8.145,3.092-7.079,10.185c1.261,8.378,1.711,16.945,3.438,25.302c0.851,4.119,1.343,10.529,4.658,13.509
					c4.642-4.878,7.401-7.427,13.785-10.297c5.217-2.344,11.878-5.069,15.235-9.964"/>
				<path fill="#333333" d="M185.684,226.698c-5.794-1.754-13.193-9.11-18.556-12.489c-6.399-4.033-12.417-8.46-18.574-12.908
					c-11.767-8.501-24.488-15.389-36.113-23.857C107.763,174.038,80,156,80,167c2.5,5,2.719,5.271,4.826,9.616
					c1.462,3.022,4.139,5.445,5.801,8.422c3.494,6.26,5.921,13.49,9.318,20.33c6.931,13.951,14.222,27.25,19.703,41.413
					c5.371,13.885,13.542,26.914,21.91,39.485c4.354-3.971,5.065-11.767,8.012-16.909c3.05-5.323,7.823-9.752,11.88-14.579
					c7.77-9.246,14.079-20.677,23.653-28.079"/>
				<g>
					<g>
						<g>
							<g>
								<path d="M315.848,324.964c0,0,1.841-0.12,5.347-0.348c1.754-0.112,3.925-0.251,6.49-0.415
									c2.569-0.079,5.533-0.17,8.871-0.273c6.676-0.17,14.853-0.159,24.338,0.041c9.483,0.212,20.279,0.644,32.192,1.056
									c23.788,1.598,51.977-1.972,83.715-2.23c15.838-0.152,32.648,0.711,49.729,4.412c8.515,1.967,17.004,4.755,25.306,8.553
									c4.13,2.078,8.087,4.539,11.765,7.499c3.676,2.952,6.996,6.48,9.676,10.496c2.694,4.004,4.709,8.421,6.039,12.961
									c1.338,4.543,2.014,9.194,2.239,13.782c0.43,9.197-0.821,18.112-2.577,26.629c-1.809,8.517-4.15,16.692-6.526,24.615
									c-1.175,3.959-2.404,7.882-3.479,11.692c-0.951,3.808-1.793,7.639-2.352,11.473c-2.392,15.338-1.488,30.291-0.85,44.292
									c0.327,7.005,0.594,13.828,0.573,20.353c0.039,6.516,0.076,12.768,0.111,18.736c0.068,5.967,0.018,11.648-0.025,17.023
									c-0.037,5.374-0.071,10.442-0.104,15.182c-0.004,4.736-0.008,9.145-0.011,13.202c-0.003,2.029-0.006,3.971-0.009,5.822
									c-0.002,0.926-0.004,1.829-0.005,2.709c0.023,0.879,0.046,1.735,0.068,2.568c0.339,13.338,0.525,20.713,0.525,20.713
									s-0.474-7.366-1.331-20.688c-0.052-0.833-0.106-1.689-0.161-2.568c-0.029-0.881-0.059-1.783-0.091-2.709
									c-0.062-1.852-0.126-3.793-0.193-5.823c-0.131-4.06-0.272-8.471-0.426-13.21c-0.112-4.738-0.233-9.805-0.361-15.178
									c-0.116-5.373-0.227-11.052-0.455-17.012c-0.19-5.96-0.387-12.204-0.593-18.71c-0.138-6.498-0.556-13.211-1.034-20.211
									c-0.471-6.994-0.994-14.259-1.156-21.8c-0.154-7.536,0.123-15.362,1.22-23.32c0.52-3.981,1.331-7.972,2.286-12.013
									c1.063-3.978,2.232-7.869,3.357-11.84c2.274-7.921,4.494-15.998,6.185-24.293c1.641-8.285,2.759-16.831,2.318-25.371
									c-0.419-8.508-2.646-17.023-7.466-24.131c-4.729-7.175-11.861-12.43-19.402-16.292c-7.817-3.607-15.965-6.357-24.167-8.322
									c-16.481-3.713-32.953-4.786-48.629-4.871c-15.692-0.127-30.655,0.575-44.696,0.981c-3.511,0.102-6.961,0.203-10.355,0.246
									c-1.697,0.026-3.379,0.053-5.044,0.079c-1.671-0.001-3.327-0.003-4.966-0.004c-3.282,0.067-6.475-0.183-9.605-0.33
									c-3.131-0.159-6.189-0.322-9.165-0.518c-11.919-0.734-22.676-1.487-32.133-2c-9.455-0.501-17.607-0.794-24.272-0.866
									c-3.333-0.021-6.295-0.04-8.861-0.057c-2.566,0.064-4.738,0.117-6.493,0.161
									C317.692,324.921,315.848,324.964,315.848,324.964z"/>
							</g>
						</g>
					</g>
					<g>
						<g>
							<g>
								<path d="M224.277,617.498c0,0-0.645-23.508-1.29-61.517c0.178-18.969-3.678-41.167-8.953-65.707
									c-1.294-6.149-2.622-12.458-3.888-18.899c-0.161-0.806-0.322-1.613-0.484-2.423c-0.173-0.802-0.376-1.588-0.562-2.386
									c-0.382-1.592-0.753-3.185-1.175-4.81c-0.832-3.243-1.673-6.518-2.521-9.821c-3.414-13.237-6.97-27.117-8.469-41.828
									c-0.702-7.351-0.816-14.733,0.019-21.974c0.108-0.905,0.215-1.808,0.322-2.709c0.084-0.904,0.33-1.789,0.488-2.681
									c0.179-0.89,0.358-1.778,0.537-2.665l0.273-1.328l0.387-1.313c0.259-0.874,0.519-1.746,0.777-2.616l0.39-1.303l0.195-0.65
									l0.277-0.641c0.381-0.847,0.729-1.72,1.142-2.536c0.426-0.805,0.852-1.607,1.276-2.409
									c3.64-6.296,8.716-11.388,14.156-15.467c5.492-4.041,11.344-7.179,17.21-9.729c11.759-5.089,23.475-8.122,34.417-10.581
									c5.492-1.207,10.753-2.309,15.901-3.25c2.58-0.409,5.108-0.81,7.582-1.202c2.474-0.381,4.906-0.619,7.273-0.923
									c1.185-0.143,2.355-0.284,3.511-0.424c1.16-0.101,2.305-0.201,3.436-0.299c2.26-0.191,4.462-0.378,6.603-0.559
									c2.145-0.116,4.228-0.228,6.247-0.337c1.009-0.054,2.003-0.107,2.98-0.159c0.978-0.025,1.941-0.05,2.887-0.074
									c3.784-0.088,7.301-0.202,10.542-0.149c3.24,0.02,6.197,0,8.857,0.109c2.658,0.082,5.02,0.155,7.066,0.218
									c2.045,0.109,3.774,0.201,5.172,0.275c2.795,0.152,4.262,0.232,4.262,0.232s-1.47-0.004-4.268-0.011
									c-1.398-0.005-3.129-0.012-5.174-0.021c-2.044,0.033-4.403,0.07-7.059,0.112c-2.655,0.011-5.604,0.162-8.831,0.281
									c-3.228,0.086-6.727,0.345-10.485,0.583c-0.939,0.061-1.895,0.124-2.866,0.187c-0.97,0.09-1.955,0.181-2.956,0.274
									c-2.002,0.184-4.066,0.374-6.19,0.569c-2.117,0.257-4.295,0.521-6.531,0.792c-1.117,0.137-2.249,0.275-3.395,0.416
									c-1.141,0.178-2.295,0.358-3.464,0.54c-2.334,0.381-4.737,0.697-7.166,1.151c-2.426,0.463-4.904,0.935-7.434,1.418
									c-5.025,1.078-10.297,2.341-15.685,3.68c-10.769,2.724-22.218,5.997-33.452,11.122c-5.603,2.562-11.112,5.656-16.167,9.493
									c-5.005,3.872-9.521,8.562-12.688,14.171l-1.107,2.145c-0.356,0.719-0.632,1.453-0.958,2.178l-0.235,0.546l-0.168,0.593
									l-0.339,1.188l-0.684,2.379l-0.345,1.192l-0.243,1.237l-0.481,2.482c-0.141,0.833-0.37,1.649-0.441,2.5l-0.285,2.542
									c-0.747,6.794-0.629,13.816,0.047,20.896c1.441,14.183,4.843,27.865,8.12,41.118c0.813,3.328,1.62,6.627,2.418,9.895
									c0.401,1.628,0.766,3.293,1.136,4.938c0.18,0.822,0.378,1.646,0.542,2.461c0.15,0.814,0.3,1.626,0.449,2.436
									c1.175,6.484,2.391,12.8,3.566,18.971c2.374,12.345,4.453,24.17,5.751,35.339c0.743,5.572,1.034,11.012,1.405,16.22
									c0.074,2.614,0.089,5.18,0.132,7.685c0.011,1.252,0.053,2.496,0.036,3.713c-0.02,1.216-0.041,2.418-0.061,3.606
									C224.921,593.99,224.277,617.498,224.277,617.498z"/>
							</g>
						</g>
					</g>
					<g>
						<g>
							<g>
								<path d="M563.81,517.002c0,0,0.059,2.014,0.169,5.849c0.133,3.834,0.391,9.484,0.866,16.753
									c0.46,7.269,1.179,16.152,1.907,26.485c0.69,10.333,1.471,22.127,1.332,35.222c-0.021,6.547-0.415,13.411-1.132,20.548
									c-0.641,7.14-2.224,14.574-4.533,22.007c-0.652,1.841-1.31,3.697-1.973,5.568c-0.759,1.835-1.622,3.646-2.441,5.494
									c-0.764,1.878-1.855,3.608-2.827,5.417c-0.499,0.898-1,1.8-1.503,2.705c-0.574,0.862-1.15,1.727-1.729,2.595
									c-4.575,6.976-10.286,13.509-16.935,19.281c-13.369,11.522-30.163,19.908-48.237,25.631
									c-18.119,5.738-37.584,9.002-57.559,10.453c-19.988,1.447-39.58,1.118-58.366-0.354
									c-18.771-1.421-36.914-3.891-53.761-8.226c-8.425-2.147-16.529-4.702-24.233-7.657c-7.682-3.017-14.93-6.477-21.688-10.271
									c-1.667-0.988-3.321-1.967-4.96-2.938c-1.622-0.997-3.168-2.087-4.731-3.111c-0.776-0.522-1.548-1.041-2.317-1.558
									c-0.741-0.557-1.479-1.11-2.213-1.661c-1.455-1.122-2.948-2.151-4.329-3.318c-5.615-4.579-10.375-9.709-14.324-15.04
									c-3.799-5.455-6.657-11.115-8.793-16.671c-0.484-1.406-0.916-2.808-1.365-4.178c-0.219-0.688-0.437-1.369-0.652-2.046
									c-0.168-0.689-0.335-1.373-0.5-2.052c-0.329-1.357-0.652-2.692-0.97-4.006c-0.233-1.329-0.462-2.637-0.688-3.922
									c-1.712-10.298-1.845-19.275-1.867-26.562c0.007-7.297,0.214-12.953,0.33-16.788c0.132-3.835,0.201-5.849,0.201-5.849
									s0.007,2.015,0.021,5.852c0.025,3.836,0.02,9.497,0.254,16.771c0.262,7.262,0.683,16.193,2.667,26.283
									c0.258,1.257,0.52,2.536,0.787,3.837c0.349,1.278,0.703,2.578,1.063,3.898c0.18,0.659,0.361,1.324,0.543,1.994
									c0.23,0.654,0.461,1.314,0.693,1.979c0.476,1.325,0.932,2.679,1.44,4.033c2.225,5.346,5.132,10.74,8.916,15.902
									c3.938,5.041,8.627,9.866,14.146,14.167c1.358,1.099,2.852,2.079,4.292,3.141c0.727,0.523,1.458,1.048,2.193,1.575
									c0.762,0.488,1.527,0.979,2.296,1.473c1.549,0.968,3.076,2,4.68,2.941c1.619,0.915,3.253,1.839,4.9,2.771
									c6.674,3.574,13.815,6.825,21.38,9.65c7.589,2.763,15.568,5.144,23.867,7.135c16.604,4.024,34.467,6.26,53.081,7.528
									c18.602,1.316,37.94,1.558,57.628,0.132c19.67-1.427,38.77-4.56,56.461-10.018c17.654-5.444,33.935-13.381,46.889-24.232
									c12.931-10.861,22.018-24.656,26.89-38.874c2.365-7.14,4.048-14.222,4.837-21.241c0.859-6.995,1.411-13.767,1.592-20.249
									c0.459-12.964,0.005-24.738-0.383-35.072c-0.427-10.337-0.865-19.248-1.083-26.536c-0.235-7.288-0.291-12.95-0.283-16.788
									C563.792,519.018,563.81,517.002,563.81,517.002z"/>
							</g>
						</g>
					</g>
					<g>
						<g>
							<g>
								<path d="M541.854,556.265c0,0-0.472,0.994-1.371,2.889c-0.446,0.948-1.013,2.115-1.692,3.491
									c-0.662,1.384-1.474,2.958-2.41,4.723c-1.893,3.511-4.384,7.768-7.963,12.234c-0.922,1.089-1.845,2.25-2.861,3.388
									c-1.042,1.113-2.117,2.263-3.224,3.445c-2.252,2.284-4.633,4.699-7.133,7.234c-2.509,2.527-5.137,5.176-7.876,7.936
									c-2.821,2.69-5.756,5.489-8.795,8.387c-1.523,1.447-3.073,2.919-4.648,4.415c-0.815,0.756-1.53,1.485-2.257,2.217
									c-0.765,0.706-1.397,1.523-2.062,2.322l-0.497,0.601l-0.426,0.644l-0.861,1.288c-0.252,0.446-0.469,0.91-0.709,1.364
									l-0.355,0.685l-0.267,0.721c-0.804,1.892-1.132,3.961-1.227,6.095c-0.277,8.637,4.104,18.184,4.717,28.784
									c0.534,5.186,0.737,10.422,1.138,15.63c0.079,1.311,0.208,2.607,0.339,3.906c0.128,1.3,0.235,2.611,0.442,3.894
									c0.199,1.286,0.33,2.597,0.582,3.875l0.195,0.957l0.048,0.239c0.007,0.032,0.002,0.009,0.004,0.015l-0.001-0.003
									l-0.003-0.011c-0.001-0.003,0-0.001,0-0.001c0.081-0.036-0.282,0.126,0.566-0.253c0.581-0.265,1.171-0.509,1.744-0.788
									l1.702-0.873c2.236-1.222,4.409-2.55,6.459-4.062c4.124-2.986,7.892-6.433,11.541-9.958
									c3.662-3.518,7.179-7.134,10.927-10.492c3.701-3.326,7.333-6.387,10.297-9.752c2.998-3.33,5.162-7.046,6.042-11.007
									c0.195-1.019,0.347-2.022,0.476-3.093c0.14-1.057,0.273-2.107,0.314-3.152c0.033-0.523,0.067-1.044,0.101-1.562
									c0.012-0.525,0.024-1.05,0.036-1.571c0.034-1.04,0.042-2.08,0.032-3.117c-0.009-4.142-0.158-8.186-0.154-12.11
									c0.017-3.94,0.137-7.629,0.201-11.2c0.067-3.557,0.161-6.949,0.283-10.16c0.118-3.211,0.198-6.236,0.338-9.065
									c0.189-2.828,0.362-5.459,0.523-7.882c0.18-2.42,0.267-4.633,0.529-6.613c0.9-7.917,1.398-12.295,1.398-12.295
									s-0.212,4.397-0.594,12.347c-0.143,1.982-0.099,4.197-0.139,6.615c-0.027,2.417-0.056,5.044-0.087,7.865
									c0.04,2.823,0.083,5.843,0.128,9.045c0.036,3.199,0.103,6.585,0.198,10.145c0.097,3.545,0.138,7.314,0.279,11.142
									c0.152,3.843,0.457,7.871,0.619,12.098c0.048,1.055,0.079,2.124,0.082,3.211c0.006,0.542,0.012,1.087,0.018,1.634
									c-0.017,0.553-0.033,1.107-0.05,1.665c-0.008,1.118-0.11,2.234-0.222,3.36c-0.098,1.111-0.236,2.308-0.429,3.479
									c-0.896,4.811-3.426,9.329-6.621,13.056c-3.174,3.786-6.881,7.036-10.432,10.366c-3.529,3.287-6.973,6.945-10.645,10.573
									c-3.663,3.636-7.563,7.297-11.988,10.551c-2.197,1.643-4.569,3.119-7.033,4.474l-1.88,0.971
									c-0.635,0.312-1.29,0.587-1.936,0.882l-0.486,0.218l-0.805,0.334l-1.891,0.717l-1.895,0.718l-0.948,0.359l-0.236,0.09
									l-0.119,0.045c-0.036,0.009-0.093,0.055-0.088-0.012l-0.102-0.498c-0.46-2.255-0.918-4.503-1.375-6.743
									c-0.267-1.37-0.402-2.742-0.607-4.106c-0.213-1.366-0.318-2.721-0.444-4.071c-0.128-1.353-0.253-2.698-0.324-4.027
									c-0.37-5.342-0.517-10.529-0.966-15.539c-0.097-1.258-0.202-2.506-0.373-3.713c-0.167-1.215-0.263-2.433-0.483-3.631
									c-0.452-2.379-0.976-4.806-1.494-7.219c-0.508-2.424-1.034-4.839-1.385-7.327c-0.358-2.474-0.602-5.009-0.412-7.576
									c0.227-5.143,2.473-10.144,5.62-13.679c0.787-0.893,1.549-1.799,2.423-2.562c0.848-0.801,1.692-1.594,2.486-2.282
									c1.612-1.429,3.198-2.834,4.759-4.216c3.127-2.761,6.147-5.426,9.05-7.988c2.852-2.636,5.588-5.165,8.2-7.58
									c2.615-2.412,5.106-4.71,7.462-6.884c1.142-1.103,2.25-2.174,3.325-3.212c1.052-1.062,2.009-2.146,2.971-3.164
									c3.729-4.175,6.421-8.215,8.511-11.584c1.035-1.693,1.94-3.209,2.69-4.546c0.757-1.331,1.398-2.458,1.915-3.369
									C541.315,557.224,541.854,556.265,541.854,556.265z"/>
							</g>
						</g>
					</g>
					<g>
						<g>
							<g>
								<path d="M529.857,659.289c0,0,0.435-0.482,1.26-1.398c0.824-0.916,2.023-2.285,3.48-4.103
									c1.429-1.834,3.115-4.136,4.599-7.025c1.454-2.898,2.643-6.398,3.113-10.431c0.286-2.005,0.344-4.148,0.377-6.375
									c-0.039-2.196-0.095-4.683-0.069-7.129c0.055-4.924,0.114-10.187,0.176-15.724c0.135-11.054,0.412-23.224,0.264-35.891
									c-0.039-2.405-0.1-4.783-0.227-7.099c-0.065-1.155-0.146-2.297-0.263-3.393l-0.097-0.811
									c-0.014-0.103-0.004-0.056-0.006-0.071l0.002-0.01c0.002-0.013,0.004-0.029,0.004-0.049c0.005-0.054-0.04-0.065-0.073-0.047
									c-0.018,0.006-0.036,0.014-0.083,0.054l-0.015,0.012l-0.129,0.142l-0.257,0.283c-0.172,0.184-0.341,0.383-0.51,0.582
									c-1.354,1.583-2.623,3.315-3.847,5c-2.443,3.395-4.69,6.724-6.857,9.784c-1.084,1.531-2.144,3.001-3.217,4.391
									c-0.537,0.695-1.079,1.37-1.649,2.025c-0.559,0.643-1.175,1.317-1.94,1.902c-0.021,0.015-0.035,0.024-0.049,0.034
									c-4.791,4.423-8.773,8.957-12.369,12.761c-3.557,3.855-6.715,7.084-9.362,9.619c-2.695,2.492-4.809,4.368-6.372,5.476
									c-1.52,1.145-2.311,1.742-2.311,1.742s0.718-0.683,2.097-1.994c1.419-1.258,3.317-3.336,5.741-6.036
									c2.383-2.751,5.214-6.195,8.47-10.308c3.31-4.074,6.943-8.844,11.707-13.773c0.063-0.056,0.127-0.111,0.23-0.2
									c0.841-0.782,1.792-2.138,2.714-3.492c0.933-1.382,1.885-2.878,2.872-4.445c1.979-3.137,4.076-6.568,6.462-10.148
									c1.206-1.788,2.45-3.615,3.936-5.454c0.185-0.23,0.371-0.461,0.574-0.69l0.298-0.347l0.15-0.174l0.28-0.283
									c0.725-0.767,1.544-1.522,2.394-2.025l0.639-0.351c0.212-0.1,0.422-0.124,0.633-0.19c0.212-0.063,0.423-0.109,0.635-0.13
									c0.213-0.019,0.425-0.09,0.639-0.031l0.32,0.047l0.08,0.012c-0.001,0.028,0.032-0.058,0.002,0.065l0.021,0.005l0.042,0.01
									l0.168,0.038c0.219,0.056,0.444,0.102,0.608,0.233c0.361,0.214,0.652,0.504,0.927,0.847c0.54,0.71,0.876,1.759,1.137,2.849
									l0.154,0.846c0.05,0.269,0.11,0.602,0.133,0.79l0.124,0.932c0.149,1.233,0.248,2.449,0.329,3.667
									c0.155,2.434,0.229,4.871,0.269,7.326c0.151,12.889-0.453,25.058-1.071,36.129c-0.353,5.525-0.688,10.775-1.001,15.689
									c-0.176,2.473-0.272,4.741-0.396,7.114c-0.196,2.334-0.424,4.577-0.893,6.694c-0.829,4.248-2.435,7.921-4.235,10.808
									c-1.832,2.886-3.783,5.052-5.414,6.752c-1.658,1.68-3.003,2.909-3.93,3.729
									C530.346,658.862,529.857,659.289,529.857,659.289z"/>
							</g>
						</g>
					</g>
					<g>
						<g>
							<g>
								<path d="M442.222,698.182c0,0-5.62,0.479-15.785,1.345c-2.546,0.157-5.381,0.218-8.483,0.343
									c-3.103,0.091-6.479,0.28-10.1,0.31c-7.24,0.073-15.483,0.156-24.597,0.249c-1.138,0.01-2.289,0.021-3.454,0.031
									c-0.582,0.005-1.168,0.01-1.757,0.016c-0.232,0.011-0.745-0.001-0.99-0.025l-0.894-0.054
									c-2.388-0.146-4.845-0.301-7.378-0.632c-2.527-0.336-5.151-0.801-7.77-1.823c-2.599-0.999-5.224-2.746-6.978-5.296
									c-1.779-2.531-2.589-5.551-2.914-8.474l-0.073-0.554c-0.031-0.172-0.06-0.48-0.043-0.683l0.015-1.06
									c0.01-0.708,0.02-1.42,0.03-2.133c0.019-1.429,0.031-2.872,0.117-4.298c0.136-2.85,0.273-5.743,0.413-8.675
									c0.091-1.464,0.097-2.912,0.122-4.373c0.012-0.732,0.024-1.464,0.036-2.199l0.009-0.552c0.002-0.165,0.004-0.166-0.01-0.226
									l-0.205-0.984c-0.642-2.829-1.497-5.825-2.082-8.981c-0.557-3.156-1.032-6.534-0.251-10.218
									c0.182-0.916,0.528-1.839,0.919-2.742l0.733-1.293c0.277-0.414,0.539-0.813,0.878-1.204
									c1.319-1.603,3.179-2.731,5.024-3.344c1.855-0.607,3.7-0.828,5.467-0.881c1.774-0.058,3.494,0.041,5.18,0.188
									c3.369,0.293,6.635,0.791,9.798,0.986c0.784,0.039,1.568,0.077,2.324,0.06c0.385,0.005,0.75-0.025,1.125-0.037l0.544-0.048
									l0.161-0.014c0.112-0.01,0.263-0.025,0.335-0.021l0.369,0.005c1.692,0.02,3.39,0.04,5.095,0.061
									c3.421,0.028,6.818,0.115,10.246,0.197c3.441,0.114,6.838,0.066,10.288,0.102c1.73,0.048,3.416-0.075,5.108-0.142
									c1.691-0.074,3.377-0.148,5.057-0.222c3.028-0.172,6.245-1.179,9.47-2.074c6.458-1.859,12.938-3.956,19.791-4.823
									c3.415-0.412,7.004-0.528,10.633,0.466c1.81,0.515,3.581,1.348,5.138,2.651c0.389,0.347,0.799,0.659,1.112,1.1l0.493,0.625
									c0.145,0.204,0.261,0.4,0.391,0.602c0.268,0.399,0.496,0.801,0.693,1.202c0.217,0.401,0.414,0.803,0.578,1.204
									c1.395,3.213,2.095,6.386,2.674,9.517c0.564,3.131,0.927,6.221,1.188,9.271c0.518,6.099,0.658,12.032,0.576,17.798
									c-0.042,2.884-0.148,5.723-0.338,8.531c-0.058,0.705-0.114,1.406-0.172,2.106c-0.064,0.698-0.129,1.365-0.273,2.141
									l-0.192,1.117c-0.055,0.372-0.129,0.74-0.27,1.1c-0.257,0.717-0.459,1.454-0.773,2.137c-1.219,2.798-3.32,4.983-5.523,6.652
									c-2.227,1.677-4.627,2.917-7.037,3.832c-4.814,1.901-9.619,2.827-14.183,3.483c-9.151,1.253-17.454,1.31-24.711,1.226
									c-7.261-0.111-13.494-0.469-18.584-0.769c-5.087-0.31-9.038-0.551-11.716-0.714c-2.679-0.144-4.088-0.178-4.088-0.178
									s1.409-0.047,4.094-0.044c2.685-0.001,6.645,0.062,11.739,0.131c5.094,0.057,11.327,0.133,18.545-0.059
									c7.207-0.215,15.443-0.603,24.315-2.141c4.416-0.791,9.027-1.859,13.419-3.765c2.208-0.915,4.322-2.112,6.177-3.601
									c1.842-1.488,3.46-3.294,4.325-5.475c0.228-0.536,0.355-1.115,0.548-1.67c0.108-0.273,0.156-0.569,0.186-0.872l0.126-0.896
									c0.1-0.566,0.152-1.263,0.196-1.934c0.036-0.671,0.073-1.345,0.11-2.022c0.112-2.721,0.147-5.506,0.118-8.33
									c-0.056-5.65-0.325-11.472-0.946-17.369c-0.311-2.947-0.72-5.914-1.302-8.848c-0.584-2.916-1.325-5.868-2.494-8.429
									c-1.673-5.09-8.102-5.728-14.15-4.88c-6.176,0.839-12.459,2.893-18.984,4.821c-1.639,0.481-3.299,0.961-5.022,1.387
									c-0.865,0.209-1.742,0.409-2.653,0.577c-0.466,0.076-0.907,0.166-1.409,0.221l-0.73,0.088l-0.655,0.031
									c-1.75,0.082-3.506,0.164-5.267,0.246c-1.76,0.072-3.535,0.197-5.283,0.15c-3.503-0.035-7.02,0.006-10.442-0.118
									c-3.437-0.092-6.858-0.194-10.209-0.239c-1.681-0.031-3.356-0.061-5.024-0.093l-0.261-0.004
									c-0.033-0.002,0.014,0,0.021-0.003l-0.153,0.012l-0.71,0.055c-0.463,0.015-0.934,0.045-1.387,0.037
									c-0.918,0.011-1.803-0.039-2.684-0.09c-3.493-0.25-6.77-0.786-9.93-1.091c-3.13-0.306-6.24-0.415-8.684,0.354
									c-1.205,0.395-2.18,0.989-2.912,1.844c-0.19,0.203-0.367,0.475-0.535,0.715l-0.457,0.768
									c-0.233,0.552-0.471,1.103-0.602,1.737c-0.6,2.505-0.336,5.479,0.145,8.368c0.486,2.924,1.251,5.817,1.885,8.875
									l0.229,1.229c0.091,0.306,0.049,0.683,0.045,0.892l-0.021,0.571c-0.028,0.761-0.057,1.52-0.085,2.275
									c-0.057,1.512-0.099,3.02-0.222,4.484c-0.208,2.928-0.413,5.817-0.614,8.664c-0.121,1.422-0.165,2.811-0.218,4.194
									c-0.028,0.691-0.056,1.38-0.083,2.066l-0.042,1.028c-0.011,0.146-0.005,0.183,0.015,0.354l0.052,0.478
									c0.212,2.56,0.836,4.986,2.107,6.894c1.25,1.919,3.137,3.3,5.311,4.224c2.175,0.93,4.571,1.452,6.955,1.843
									c2.389,0.391,4.794,0.623,7.16,0.849l0.885,0.083c0.346,0.036,0.424,0.042,0.781,0.048c0.59,0.015,1.177,0.029,1.76,0.045
									c1.168,0.029,2.321,0.059,3.461,0.089c9.111,0.259,17.353,0.493,24.59,0.698c3.618,0.122,6.977,0.078,10.075,0.127
									c3.097,0.013,5.93,0.083,8.475,0.047C436.591,698.374,442.222,698.182,442.222,698.182z"/>
							</g>
						</g>
					</g>
					<g>
						<g>
							<g>
								<path d="M305.56,617.499c0,0,1.45,0.349,4.21,1.014c0.686,0.187,1.441,0.433,2.283,0.685
									c0.837,0.265,1.77,0.507,2.731,0.914c1.947,0.732,4.198,1.645,6.5,3.131c0.561,0.389,1.199,0.709,1.746,1.189
									c0.557,0.468,1.128,0.949,1.714,1.442c0.539,0.542,1.047,1.148,1.591,1.745c0.289,0.287,0.501,0.638,0.73,0.981
									c0.229,0.346,0.46,0.694,0.694,1.048c1.781,2.896,2.79,6.515,3.247,10.374c0.468,3.869,0.49,8.02,0.415,12.364
									c-0.016,1.075-0.07,2.193-0.056,3.276c0.03,1.052,0.103,2.177,0.202,3.3c0.193,2.254,0.473,4.581,0.741,6.982
									c0.266,2.4,0.526,4.875,0.673,7.438c0.136,2.563,0.204,5.217-0.142,7.981c-0.152,1.378-0.453,2.79-0.93,4.2
									c-0.465,1.407-1.202,2.835-2.302,4.059c-1.088,1.231-2.557,2.182-4.126,2.721c-1.578,0.518-3.188,0.65-4.759,0.635
									c-0.774-0.045-1.554-0.102-2.319-0.201c-0.746-0.139-1.531-0.232-2.254-0.416c-1.419-0.344-2.851-0.69-4.293-1.04
									l-1.107-0.269l-1.088-0.336c-0.727-0.226-1.456-0.451-2.189-0.679c-1.442-0.505-2.884-1.045-4.324-1.613
									c-5.721-2.358-11.3-5.383-16.774-8.821c-5.479-3.435-10.828-7.327-16.108-11.514c-2.636-2.083-5.273-4.284-7.835-6.505
									c-1.255-1.119-2.577-2.203-3.915-3.285c-1.335-1.056-2.659-2.276-3.997-3.421c-2.622-2.409-5.208-4.971-7.513-7.929
									c-2.311-2.94-4.234-6.389-5.433-10.091c-1.214-3.704-1.698-7.562-1.838-11.336c-0.142-3.774,0.028-7.555,0.334-11.225
									c0.998-14.485,0.498-28.865,1.396-42.865c0.061-0.875,0.121-1.748,0.182-2.619l0.091-1.305
									c0.02-0.24,0.02-0.384,0.056-0.703l0.134-1.085c0.354-2.875,0.708-5.737,1.059-8.585l0.066-0.531
									c0.033-0.151-0.01-0.477,0.201-0.219l0.917,0.752l1.827,1.497c1.189,1.016,2.353,2.013,3.507,3.052l0.839,0.844l0.519,0.543
									c0.298,0.326,0.618,0.64,0.893,0.977c0.56,0.67,1.152,1.32,1.678,2.001c4.308,5.405,7.649,11.062,11.237,16.208
									c1.786,2.557,3.624,5.069,5.598,7.156c2.24,2.045,4.45,4.062,6.627,6.05c2.335,1.851,4.635,3.674,6.9,5.469
									c2.325,1.726,4.688,3.337,6.971,4.972c2.285,1.634,4.649,3.074,6.906,4.582c0.568,0.372,1.133,0.741,1.696,1.109
									l0.842,0.551l0.84,0.476c1.1,0.646,2.275,1.231,3.426,1.81c4.65,2.283,9.384,4.192,13.661,6.667
									c2.145,1.211,4.176,2.581,5.967,4.175c0.927,0.757,1.711,1.665,2.511,2.522c0.698,0.951,1.459,1.838,1.976,2.874
									c0.263,0.512,0.605,0.977,0.793,1.515c0.211,0.525,0.419,1.047,0.627,1.564c0.365,1.038,0.633,2.061,0.897,3.073
									c0.475,2.033,0.837,4.013,1.078,5.933c0.975,7.682,0.879,14.307,0.831,19.699c-0.099,5.395-0.278,9.576-0.372,12.412
									c-0.091,2.836-0.139,4.325-0.139,4.325s-0.105-5.958-0.295-16.732c-0.19-5.369-0.386-11.981-1.638-19.458
									c-0.31-1.867-0.737-3.773-1.265-5.703c-0.583-1.925-1.192-3.855-2.32-5.555c-0.482-0.9-1.205-1.666-1.847-2.493
									c-0.755-0.743-1.476-1.533-2.354-2.197c-1.682-1.396-3.614-2.61-5.699-3.697c-4.148-2.223-8.863-3.956-13.722-6.158
									c-1.215-0.566-2.438-1.128-3.673-1.804l-0.929-0.493l-0.87-0.533c-0.581-0.356-1.165-0.715-1.751-1.074
									c-2.332-1.463-4.767-2.857-7.135-4.456c-2.367-1.6-4.809-3.176-7.227-4.879c-2.367-1.786-4.772-3.601-7.212-5.442
									c-2.323-2.031-4.681-4.094-7.071-6.183c-2.338-2.376-4.266-4.938-6.179-7.558c-3.791-5.236-7.219-10.793-11.314-15.765
									c-0.502-0.632-1.047-1.208-1.57-1.818c-0.258-0.31-0.545-0.579-0.818-0.869l-0.354-0.365l-0.046-0.043l-0.144-0.11
									l-0.066-0.042l-0.031-0.019c-0.01-0.009-0.01,0.093-0.016,0.134c-0.032,0.424-0.065,0.851-0.097,1.278
									c-0.09,1.515-0.181,3.037-0.271,4.566c-0.747,13.687-0.163,28.069-1.179,42.935c-0.305,3.655-0.46,7.191-0.34,10.672
									c0.118,3.471,0.545,6.839,1.549,9.956c0.997,3.118,2.557,5.992,4.58,8.611c2.012,2.625,4.382,5.029,6.838,7.333
									c1.286,1.12,2.486,2.258,3.833,3.35c1.32,1.093,2.629,2.192,3.901,3.354c2.552,2.268,5.063,4.42,7.628,6.511
									c5.109,4.175,10.27,8.065,15.523,11.498c5.247,3.438,10.568,6.462,15.958,8.831c1.353,0.569,2.707,1.113,4.058,1.624
									c0.682,0.229,1.362,0.458,2.04,0.686l1.014,0.342l1.024,0.275c1.394,0.375,2.777,0.748,4.148,1.117
									c0.668,0.188,1.311,0.272,1.965,0.417c0.647,0.102,1.29,0.163,1.925,0.221c1.257,0.044,2.477-0.035,3.565-0.355
									c1.071-0.347,1.999-0.909,2.75-1.701c0.754-0.785,1.341-1.791,1.745-2.916c0.413-1.116,0.716-2.308,0.887-3.538
									c0.386-2.449,0.41-4.975,0.355-7.444c-0.063-2.477-0.238-4.917-0.423-7.312c-0.186-2.396-0.388-4.747-0.505-7.066
									c-0.061-1.162-0.097-2.298-0.087-3.477c0.027-1.148,0.121-2.227,0.176-3.321c0.232-4.325,0.362-8.38,0.058-12.13
									c-0.295-3.739-1.111-7.167-2.658-9.942c-0.205-0.339-0.408-0.675-0.608-1.007c-0.2-0.332-0.385-0.672-0.645-0.951
									c-0.489-0.58-0.941-1.175-1.43-1.713c-0.538-0.494-1.062-0.975-1.574-1.446c-0.502-0.483-1.106-0.817-1.631-1.219
									c-2.162-1.539-4.337-2.544-6.228-3.358c-0.932-0.448-1.845-0.733-2.663-1.035c-0.823-0.291-1.564-0.574-2.237-0.793
									C306.987,617.921,305.56,617.499,305.56,617.499z"/>
							</g>
						</g>
					</g>
					<g>
						<g>
							<g>
								<path d="M364.205,345.86c0,0,7.056-0.056,19.815-0.158c12.758-0.051,31.219-0.126,54.031-0.218
									c11.395,0.134,23.83-0.696,37.33-0.695c6.742,0.001,13.743,0.2,20.948,0.926c3.604,0.347,7.254,0.874,10.935,1.572
									c3.679,0.702,7.394,1.59,11.077,2.811c7.349,2.41,14.725,6.03,20.943,11.569c6.184,5.533,11.05,12.837,13.719,21.062
									c2.711,8.218,3.236,17.053,2.589,25.71c-0.647,8.688-2.421,17.302-4.723,25.797c-2.295,8.505-5.053,16.719-7.824,24.742
									c-2.761,8.042-5.578,15.829-7.779,23.663c-4.547,15.715-8.706,31.109-14.225,45.322
									c-5.412,14.228-12.518,27.181-21.223,37.699c-4.402,5.177-8.891,9.96-13.629,14.163c-2.446,2.001-4.773,4.044-7.274,5.754
									c-1.24,0.866-2.402,1.814-3.667,2.581c-1.246,0.794-2.478,1.577-3.695,2.353c-1.197,0.808-2.481,1.434-3.696,2.141
									c-1.236,0.67-2.421,1.399-3.655,1.994c-2.471,1.181-4.819,2.45-7.224,3.418c-1.188,0.512-2.36,1.016-3.516,1.513
									c-1.161,0.479-2.328,0.891-3.465,1.328c-1.141,0.425-2.256,0.865-3.367,1.256c-1.118,0.369-2.219,0.733-3.3,1.091
									c-8.659,2.826-16.296,4.586-22.545,5.906c-6.265,1.26-11.154,2.078-14.475,2.594c-3.321,0.504-5.065,0.769-5.065,0.769
									s1.73-0.339,5.027-0.986c3.293-0.654,8.142-1.671,14.336-3.162c6.176-1.552,13.71-3.578,22.189-6.663
									c1.058-0.389,2.134-0.784,3.229-1.186c1.086-0.421,2.173-0.893,3.286-1.348c1.107-0.469,2.247-0.911,3.377-1.419
									c1.122-0.525,2.261-1.058,3.416-1.599c2.337-1.024,4.606-2.344,6.996-3.573c1.193-0.617,2.332-1.368,3.523-2.059
									c1.169-0.727,2.408-1.373,3.555-2.196c1.167-0.789,2.349-1.588,3.543-2.397c1.213-0.78,2.319-1.738,3.504-2.612
									c2.39-1.728,4.598-3.777,6.923-5.775c4.477-4.18,8.755-8.965,12.931-14.103c8.18-10.36,14.807-22.987,19.893-37.022
									c5.186-14.016,9.113-29.295,13.55-45.145c2.174-7.994,4.992-15.949,7.699-23.952c2.729-8.012,5.428-16.125,7.669-24.432
									c2.249-8.298,3.969-16.611,4.616-24.838c0.653-8.206,0.186-16.379-2.202-23.814c-2.335-7.418-6.64-14.027-12.154-19.096
									c-5.548-5.07-12.284-8.532-19.19-10.92c-3.458-1.209-6.989-2.119-10.514-2.855c-3.526-0.734-7.05-1.311-10.553-1.716
									c-7.002-0.843-13.883-1.187-20.552-1.337c-13.329-0.304-25.878,0.205-37.298-0.251c-22.812-0.657-41.273-1.188-54.031-1.555
									C371.258,346.091,364.205,345.86,364.205,345.86z"/>
							</g>
						</g>
					</g>
					<g>
						<g>
							<g>
								<path d="M500.02,561.778c0,0-1.492,1.717-4.333,4.987c-0.726,0.804-1.473,1.765-2.419,2.71
									c-0.936,0.956-1.96,2.001-3.068,3.134c-0.556,0.566-1.132,1.154-1.729,1.765c-0.597,0.61-1.207,1.251-1.9,1.847
									c-1.356,1.224-2.802,2.527-4.333,3.908c-6.24,5.367-14.289,11.588-24.663,17.156c-10.343,5.573-23.018,10.414-37.616,13.17
									c-3.626,0.828-7.419,1.145-11.268,1.688c-0.482,0.058-0.965,0.135-1.451,0.178l-1.465,0.097
									c-0.98,0.064-1.965,0.129-2.955,0.194c-0.991,0.065-1.987,0.131-2.988,0.196s-2.008,0.149-3.021,0.129
									c-2.026,0.01-4.073,0.019-6.14,0.028c-1.033-0.013-2.074,0.048-3.115-0.025c-1.041-0.057-2.088-0.112-3.139-0.169
									c-2.103-0.118-4.225-0.236-6.367-0.356c-2.128-0.234-4.276-0.47-6.442-0.708c-17.284-1.847-35.773-5.902-53.826-13.943
									c-9.006-4.025-17.865-9.094-26.124-15.388c-8.258-6.282-15.891-13.803-22.429-22.417c-1.559-2.207-3.125-4.424-4.698-6.649
									c-1.408-2.32-2.823-4.65-4.243-6.99c-1.355-2.333-2.716-4.677-4.081-7.028c-1.319-2.39-2.643-4.789-3.972-7.197
									c-5.211-9.688-10.096-19.739-14.532-30.14c-8.829-20.794-15.608-42.043-18.599-63.324c-0.165-1.332-0.33-2.661-0.494-3.987
									c-0.168-1.326-0.34-2.647-0.414-3.98c-0.099-1.329-0.197-2.654-0.295-3.978l-0.146-1.982l-0.057-1.994
									c-0.163-5.311,0.065-10.609,0.834-15.804c0.776-5.19,2.079-10.274,3.978-15.084c1.894-4.81,4.412-9.32,7.418-13.376
									c6.018-8.151,13.943-14.306,22.22-18.773c8.31-4.481,16.968-7.466,25.44-9.621c8.487-2.149,16.817-3.491,24.841-4.419
									c8.028-0.904,15.757-1.406,23.132-1.658c14.752-0.512,28.083-0.149,39.768,0.296c11.685,0.47,21.733,1.071,29.946,1.511
									c8.211,0.453,14.59,0.749,18.917,0.896c4.328,0.116,6.602,0.177,6.602,0.177s-2.273,0.049-6.605,0.044
									c-4.332-0.007-10.722-0.102-18.946-0.312c-8.224-0.198-18.284-0.518-29.957-0.685c-11.671-0.143-24.968-0.182-39.605,0.648
									c-7.317,0.411-14.964,1.069-22.874,2.118c-7.903,1.073-16.073,2.549-24.32,4.792c-8.234,2.246-16.569,5.288-24.425,9.68
									c-7.833,4.382-15.149,10.265-20.619,17.87c-2.735,3.789-5.01,7.975-6.716,12.453c-1.709,4.477-2.878,9.225-3.561,14.108
									c-1.371,9.782-0.635,20.038,0.825,30.365c3.04,20.662,9.756,41.511,18.456,61.994c4.37,10.247,9.171,20.173,14.282,29.753
									c1.302,2.382,2.6,4.755,3.893,7.119c1.347,2.345,2.689,4.681,4.025,7.007c1.359,2.268,2.713,4.527,4.061,6.777
									c1.494,2.143,2.981,4.275,4.462,6.4c6.208,8.294,13.46,15.56,21.345,21.681c7.885,6.131,16.383,11.123,25.073,15.138
									c17.425,8.021,35.425,12.284,52.448,14.402c2.128,0.272,4.237,0.543,6.328,0.81c2.098,0.156,4.178,0.31,6.238,0.464
									c1.031,0.075,2.057,0.149,3.078,0.224c1.021,0.093,2.04,0.051,3.053,0.083c2.027,0.03,4.035,0.061,6.022,0.09
									c0.995,0.041,1.982-0.023,2.964-0.067c0.983-0.045,1.96-0.09,2.933-0.134c0.973-0.044,1.94-0.088,2.902-0.131l1.44-0.064
									c0.479-0.032,0.951-0.099,1.426-0.146c3.78-0.456,7.517-0.683,11.087-1.419c14.38-2.39,26.96-6.841,37.312-12.079
									c10.382-5.229,18.535-11.169,24.897-16.323c1.564-1.328,3.04-2.582,4.426-3.759c0.709-0.573,1.336-1.191,1.948-1.781
									c0.613-0.589,1.205-1.157,1.775-1.704c1.142-1.095,2.195-2.104,3.158-3.028c0.976-0.914,1.749-1.848,2.5-2.626
									C498.472,563.443,500.02,561.778,500.02,561.778z"/>
							</g>
						</g>
					</g>
					<path d="M202.669,430.435c-1.743,32.755-74.316,119.651-14.579,132.213c1.521-4.422,4.656-17.581,11.797-14.1
						c3.214,1.566,4.689,17.729,5.84,21.217c4.238,12.838,11.436,25.273,18.603,37.433c-0.536-30.822,2.703-63.724-3.37-92.959
						c-2.748-13.234-7.072-25.726-10.004-39.077c-2.928-13.348-3.24-30.009-8.287-41.74"/>
					<path d="M566.896,442.377c9.656,19.482,23.443,36.691,33.697,55.968c5.444,10.232,11.361,24.22,7.483,36.591
						c-3.417,10.896-16.715,14.535-25.824,18.515c-0.383-4.512-3.631-9.146-7.977-10.453c-1.789,13.833-7.663,27.897-8.408,42.359
						c0-24.389-1.098-47.021-2.286-71.118C562.529,492.958,557.861,461.988,566.896,442.377"/>
					<g>
						<g>
							<g>
								<path d="M506.708,163.274c0,0-2.258-0.857-6.558-2.488c-2.148-0.817-4.807-1.828-7.947-3.023
									c-1.56-0.626-3.285-1.174-5.118-1.796c-1.833-0.618-3.785-1.275-5.854-1.972c-2.066-0.697-4.248-1.433-6.543-2.207
									c-2.298-0.76-4.756-1.408-7.298-2.169c-5.104-1.45-10.593-3.225-16.645-4.542c-11.98-3.119-25.832-5.784-41.341-6.942
									c-15.486-1.204-32.574-1.112-50.71,0.939c-18.117,2.07-37.323,6.009-56.664,12.738c-9.661,3.37-19.364,7.393-28.9,12.232
									c-9.502,4.89-18.904,10.492-27.8,17.109c-4.414,3.277-8.91,6.875-13.433,10.336c-4.514,3.494-9.065,7.017-13.65,10.566
									c-9.122,7.128-18.257,14.477-27.014,22.41c-8.754,7.928-16.911,16.276-24.037,25.218
									c-7.132,8.931-13.204,18.464-17.946,28.428c-9.524,19.961-13.986,41.303-15.092,61.656
									c-0.571,10.196-0.343,20.189,0.476,29.851c0.106,1.207,0.189,2.413,0.313,3.61c0.137,1.196,0.273,2.388,0.41,3.575
									c0.143,1.187,0.256,2.372,0.421,3.546c0.17,1.174,0.339,2.343,0.508,3.508c0.311,2.334,0.71,4.636,1.118,6.917
									c0.384,2.279,0.81,4.553,1.243,6.811c3.381,18.04,6.732,34.776,11.276,49.642c4.506,14.854,10.085,27.86,16.515,38.374
									c0.398,0.657,0.794,1.309,1.186,1.955c0.388,0.65,0.771,1.296,1.227,1.861c0.851,1.185,1.774,2.298,2.73,3.329
									c1.917,2.049,4.086,3.725,6.454,4.629c2.366,0.873,4.907,0.853,7.092,0.033c2.205-0.776,4.104-2.073,5.738-3.465
									c3.254-2.835,5.62-5.94,7.585-8.645c1.956-2.725,3.472-5.133,4.69-7.081c2.391-3.928,3.646-5.99,3.646-5.99
									s-1.161,2.117-3.456,6.104c-1.159,1.987-2.604,4.443-4.489,7.238c-1.898,2.777-4.182,5.973-7.443,8.978
									c-1.642,1.477-3.577,2.891-5.932,3.794c-2.325,0.95-5.19,1.066-7.829,0.16c-2.64-0.93-5.004-2.683-7.069-4.778
									c-1.03-1.057-2.016-2.187-2.942-3.41c-0.498-0.592-0.902-1.236-1.312-1.885c-0.415-0.647-0.833-1.3-1.255-1.958
									c-6.783-10.507-12.727-23.545-17.594-38.472c-4.902-14.93-8.595-31.74-12.274-49.731
									c-3.881-18.009-6.316-37.853-5.376-58.722c0.891-20.82,5.245-42.808,14.977-63.545
									c4.849-10.359,11.097-20.267,18.416-29.491c7.313-9.238,15.661-17.802,24.566-25.868c8.91-8.07,18.156-15.479,27.344-22.611
									c4.607-3.537,9.181-7.048,13.719-10.531c4.57-3.463,8.944-6.929,13.573-10.324c9.185-6.743,18.861-12.406,28.62-17.315
									c9.792-4.857,19.728-8.854,29.602-12.168c19.767-6.618,39.314-10.33,57.699-12.124c18.404-1.774,35.688-1.54,51.305-0.001
									c15.634,1.491,29.576,4.507,41.522,7.931c6.046,1.472,11.511,3.392,16.59,4.979c2.528,0.829,4.974,1.544,7.256,2.367
									c2.278,0.838,4.444,1.635,6.496,2.39c2.051,0.755,3.986,1.469,5.805,2.138c1.816,0.675,3.525,1.272,5.069,1.945
									c3.106,1.289,5.736,2.38,7.86,3.262C504.478,162.347,506.708,163.274,506.708,163.274z"/>
							</g>
						</g>
					</g>
					<g>
						<g>
							<g>
								<path d="M576.158,502.077c0,0-0.014-1.074-0.062-4.975h0.123c0.081,0.613,0.143,1.623,0.441,2.954
									c0.123,0.67,0.26,1.424,0.411,2.253c0.165,0.828,0.173,1.763,0.275,2.753h-0.32c-0.044-1.581-0.097-6.156-0.155-11.94h0.631
									c0.014,0.176,0.028,1.547,0.043,2.984l0.014,1.279l-0.691-1.114c-0.483-0.78-1.476-2.383-2.793-4.507
									c-0.153-0.251-0.311-0.509-0.475-0.774c-0.077-0.11-0.169-0.312-0.238-0.353c-0.04,0.166-0.082,0.334-0.123,0.504
									c-0.161,0.68-0.37,1.371-0.422,2.111c-0.042,0.363-0.086,0.733-0.129,1.108c-0.014,0.373-0.027,0.752-0.042,1.137
									c-0.018,0.38-0.025,0.765-0.017,1.151c0.001,0.477,0.003,0.959,0.005,1.446l0.011,2.819l-1.13-2.547
									c-0.058-0.132-0.179-0.401-0.345-0.776c-0.166-0.378-0.385-0.864-0.524-1.426c-0.34-1.153-0.679-2.482-1.27-3.725
									c0.081-0.02,0.687-0.167,1.292-0.315c0.1,1.157-0.066,5.939,1.159,10.734c-0.118-0.011-0.847-0.079-1.576-0.147
									c3.857-8.478,8.925-19.618,14.973-32.912c5.984-13.303,12.903-28.782,19.275-46.352c0.771-2.203,1.554-4.434,2.344-6.69
									c0.396-1.127,0.793-2.261,1.193-3.4c0.353-1.154,0.707-2.314,1.064-3.481c0.71-2.334,1.429-4.691,2.154-7.073
									c0.344-1.194,0.771-2.379,1.053-3.597c0.3-1.214,0.602-2.435,0.904-3.661c0.304-1.225,0.608-2.457,0.915-3.693l0.461-1.859
									c0.144-0.624,0.244-1.259,0.369-1.89c0.478-2.529,0.959-5.08,1.444-7.652c0.274-1.28,0.412-2.59,0.596-3.898
									c0.177-1.309,0.354-2.622,0.532-3.941c0.179-1.318,0.357-2.642,0.537-3.97c0.158-1.331,0.239-2.677,0.363-4.022
									c2.04-21.516,1.169-44.586-2.979-67.759c-3.474-18.717-8.899-36.649-16.599-52.814c-1.025-1.986-2.045-3.964-3.061-5.933
									c-0.508-0.985-1.014-1.968-1.519-2.948c-0.538-0.96-1.134-1.882-1.694-2.822c-1.138-1.872-2.269-3.735-3.396-5.588
									c-0.536-0.947-1.186-1.807-1.802-2.689c-0.62-0.879-1.238-1.756-1.854-2.63c-5.057-6.922-10.734-13.175-16.749-18.775
									c-12.037-11.227-25.292-19.885-38.242-26.856c-6.484-3.49-12.909-6.573-19.177-9.339
									c-6.283-2.736-12.402-5.164-18.293-7.363c-11.805-4.332-22.681-7.748-32.304-10.5c-9.622-2.762-17.979-4.912-24.824-6.617
									c-6.844-1.707-12.181-2.948-15.797-3.801c-3.619-0.84-5.52-1.281-5.52-1.281s1.917,0.366,5.566,1.065
									c3.647,0.715,9.026,1.76,15.932,3.233c6.905,1.471,15.341,3.349,25.07,5.827c9.73,2.468,20.744,5.588,32.74,9.646
									c5.986,2.062,12.216,4.359,18.625,6.977c6.397,2.648,12.969,5.627,19.621,9.034c13.287,6.809,26.982,15.393,39.548,26.773
									c6.276,5.678,12.233,12.064,17.564,19.191c0.652,0.903,1.306,1.808,1.96,2.715c0.65,0.911,1.337,1.804,1.901,2.772
									c1.185,1.905,2.375,3.82,3.571,5.744c0.59,0.967,1.214,1.918,1.778,2.905c0.53,1.005,1.061,2.012,1.593,3.022
									c1.064,2.02,2.131,4.05,3.203,6.089c8.055,16.577,13.683,34.921,17.232,54.043c4.236,23.673,4.998,47.203,2.706,69.156
									c-0.14,1.373-0.236,2.744-0.411,4.102c-0.198,1.357-0.395,2.708-0.591,4.053c-0.197,1.346-0.393,2.686-0.588,4.021
									c-0.203,1.334-0.36,2.669-0.655,3.978c-0.529,2.626-1.054,5.23-1.574,7.812c-0.136,0.644-0.248,1.291-0.402,1.928
									l-0.498,1.9c-0.331,1.264-0.66,2.522-0.988,3.773c-0.329,1.251-0.656,2.497-0.981,3.737
									c-0.309,1.246-0.755,2.433-1.123,3.642c-0.773,2.404-1.539,4.785-2.296,7.141c-0.381,1.176-0.76,2.347-1.136,3.511
									c-0.424,1.146-0.846,2.286-1.265,3.42c-0.839,2.267-1.669,4.507-2.488,6.722c-6.76,17.633-14.065,33.016-20.42,46.178
									c-3.192,6.578-6.177,12.59-8.875,18.006c-2.692,5.415-5.091,10.239-7.164,14.408l-1.121,2.254l-0.457-2.401
									c-0.123-0.645-0.244-1.283-0.363-1.91c-0.12-0.627-0.249-1.24-0.284-1.843c-0.11-1.201-0.245-2.328-0.244-3.327
									c-0.083-2.005-0.015-3.483-0.008-4.076l0.039-3.061l1.255,2.746c0.665,1.454,0.995,2.947,1.278,3.992
									c0.123,0.555,0.305,0.977,0.437,1.314c0.127,0.341,0.218,0.586,0.262,0.706c-0.529,0.129-1.06,0.258-1.121,0.273
									c0.01-0.525,0.02-1.046,0.029-1.561c0.003-0.608,0.033-1.193,0.09-1.758c0.045-0.566,0.089-1.126,0.133-1.676
									c0.077-0.522,0.182-1.015,0.268-1.509c0.14-0.976,0.444-1.936,0.688-2.837c0.062-0.225,0.124-0.448,0.185-0.668
									c0.005-0.047,0.021-0.021,0.036,0.009l0.045,0.073l0.09,0.145l0.177,0.286c0.233,0.379,0.46,0.748,0.681,1.105
									c0.436,0.712,0.845,1.381,1.223,1.999c0.376,0.651,0.721,1.249,1.031,1.788c0.604,1.068,1.075,1.902,1.383,2.448
									c-0.327,0.079-0.654,0.159-0.68,0.165c0.016-1.438,0.029-2.809,0.044-2.984c0.307,0,0.613,0,0.633,0
									c-0.059,5.783-0.11,10.358-0.155,11.94c-0.158,0-0.316,0-0.322,0c-0.083-0.974-0.069-1.888-0.216-2.715
									c-0.132-0.829-0.252-1.584-0.358-2.254c-0.267-1.335-0.303-2.373-0.357-2.991c0.062,0,0.125,0,0.127,0
									C576.171,501.003,576.158,502.077,576.158,502.077z"/>
							</g>
						</g>
					</g>
					<g>
						<g>
							<g>
								<path d="M150.195,452.326c0,0,0.461,0.791,1.295,2.22c0.816,1.423,1.997,3.48,3.455,6.023
									c2.934,5.047,7.015,11.872,12.074,18.896c2.548,3.503,5.121,6.723,7.571,9.596c0.621,0.713,1.227,1.407,1.815,2.083
									c0.609,0.66,1.202,1.301,1.774,1.921c1.123,1.27,2.265,2.36,3.266,3.414c2.052,2.046,3.747,3.715,4.962,4.82
									c1.196,1.143,1.857,1.775,1.857,1.775s-0.826-0.397-2.318-1.114c-1.501-0.716-3.601-1.881-6.122-3.477
									c-1.236-0.829-2.625-1.706-4.003-2.799c-0.696-0.537-1.43-1.081-2.154-1.679c-0.709-0.617-1.439-1.252-2.188-1.903
									c-2.934-2.674-5.935-5.896-8.637-9.614c-5.386-7.482-8.472-15.246-10.255-20.879c-0.883-2.833-1.489-5.15-1.846-6.77
									C150.389,453.222,150.195,452.326,150.195,452.326z"/>
							</g>
						</g>
					</g>
					<g>
						<g>
							<g>
								<path d="M87.433,180.688c0,0-0.868-1.984-2.851-5.211c-0.961-1.629-2.18-3.582-3.35-5.969
									c-0.288-0.6-0.563-1.23-0.813-1.898c-0.123-0.321-0.225-0.709-0.346-1.097c-0.101-0.389-0.156-0.789-0.233-1.195
									c0.007-0.404-0.066-0.814,0.009-1.235c0.04-0.194,0.021-0.457,0.11-0.601l0.626-0.042c0.834-0.092,1.726-0.055,2.651-0.017
									c6.685,0.469,13.843,3.634,20.945,7.641c7.124,4.038,14.261,9.071,21.34,14.097c3.56,2.495,7.04,5.048,10.664,7.208
									c1.829,1.126,3.673,2.192,5.444,3.339c1.77,1.152,3.518,2.291,5.24,3.411c3.392,2.298,6.68,4.523,9.753,6.676
									c3.12,2.188,5.913,4.066,8.739,5.711c5.593,3.287,10.498,6.001,13.799,8.37c0.845,0.542,1.571,1.112,2.205,1.618
									c0.637,0.5,1.183,0.928,1.632,1.28c0.881,0.737,1.334,1.249,1.4,1.291c0.944,0.938,0.828,2.459-0.249,3.389
									c-1.078,0.93-2.581,1.07-3.352,0.304c-0.063-0.039-0.405-0.471-1.155-1.143c-0.39-0.328-0.864-0.727-1.416-1.191
									c-0.547-0.47-1.175-1.006-1.955-1.545c-2.959-2.298-7.597-5.099-13.204-8.674c-2.793-1.761-5.821-3.964-8.762-6.196
									c-2.99-2.264-6.163-4.586-9.445-6.992c-1.659-1.169-3.344-2.357-5.05-3.56c-1.708-1.199-3.504-2.328-5.277-3.512
									c-3.647-2.364-7.085-5.089-10.541-7.706c-6.887-5.286-13.766-10.527-20.641-14.769c-3.431-2.123-6.861-3.986-10.246-5.439
									c-3.373-1.447-6.76-2.463-9.895-2.802c-0.694-0.059-1.387-0.119-2.064-0.1l-0.51-0.001
									c-0.077,0.104-0.068,0.306-0.106,0.454c-0.076,0.319-0.008,0.645-0.019,0.966c0.054,0.315,0.093,0.635,0.164,0.942
									c0.085,0.301,0.153,0.603,0.265,0.942c0.218,0.654,0.463,1.28,0.724,1.88c1.064,2.393,2.209,4.393,3.109,6.057
									C86.638,178.667,87.433,180.688,87.433,180.688z"/>
							</g>
						</g>
					</g>
					<g>
						<g>
							<g>
								<path d="M103.895,171.733c0,0-0.145-0.06-0.425-0.176c-0.282-0.113-0.699-0.285-1.226-0.548
									c-1.063-0.504-2.579-1.335-4.496-2.403c-1.922-1.054-4.251-2.367-7.064-3.517c-1.411-0.547-2.957-1.052-4.617-1.229
									c-0.415-0.032-0.836-0.094-1.255-0.043c-0.421,0.02-0.849,0.03-1.262,0.16c-0.831,0.167-1.735,0.442-2.344,0.983
									c-0.637,0.522-0.891,1.348-0.754,2.227c0.11,0.881,0.49,1.778,0.944,2.646c0.924,1.743,2.171,3.418,3.475,5.125
									c0.654,0.855,1.329,1.717,1.994,2.626c0.331,0.458,0.659,0.925,0.968,1.436c0.316,0.537,0.537,1.007,0.812,1.519
									c1.051,2.009,2.126,4.062,3.218,6.15c4.371,8.352,9.036,17.266,13.706,26.19c2.356,4.457,4.713,8.917,7.035,13.31
									c1.164,2.196,2.32,4.376,3.462,6.53c1.134,2.16,2.144,4.361,3.199,6.492c2.081,4.282,4.095,8.425,6.007,12.359
									c1.812,4.101,3.156,8.038,4.474,11.583c1.302,3.551,2.59,6.708,3.935,9.368c1.344,2.659,2.771,4.779,4.06,6.422
									c2.638,3.24,4.685,4.573,4.775,4.706c1.019,0.722,1.226,2.3,0.475,3.508c-0.751,1.209-2.391,1.464-3.651,0.555
									c-0.102-0.145-2.551-1.869-5.512-5.759c-1.441-1.955-2.984-4.437-4.358-7.386c-1.375-2.945-2.623-6.327-3.83-9.97
									c-1.219-3.638-2.424-7.546-4.007-11.461c-1.768-3.951-3.629-8.112-5.553-12.412c-0.979-2.145-1.906-4.352-2.966-6.539
									c-1.07-2.183-2.152-4.392-3.242-6.618c-2.176-4.457-4.386-8.981-6.594-13.503c-4.383-9.072-8.762-18.135-12.865-26.625
									c-1.025-2.123-2.034-4.21-3.021-6.252c-0.246-0.495-0.494-1.053-0.734-1.489c-0.257-0.457-0.555-0.913-0.858-1.363
									c-0.616-0.9-1.262-1.783-1.892-2.664c-1.257-1.763-2.48-3.509-3.402-5.39c-0.452-0.941-0.845-1.924-0.949-2.999
									c-0.151-1.052,0.253-2.297,1.131-2.941c0.85-0.677,1.802-0.903,2.724-1.069c0.458-0.124,0.925-0.123,1.384-0.13
									c0.46-0.037,0.903,0.041,1.342,0.089c1.749,0.245,3.31,0.817,4.728,1.418c2.815,1.259,5.101,2.649,6.991,3.765
									c1.883,1.129,3.366,2.006,4.411,2.543c0.517,0.28,0.927,0.465,1.206,0.586C103.752,171.669,103.895,171.733,103.895,171.733
									z"/>
							</g>
						</g>
					</g>
					<g>
						<g>
							<g>
								<path d="M228.392,141.383c0-0.001-0.88-0.532-2.16-1.789c-0.631-0.629-1.397-1.393-2.276-2.269
									c-0.446-0.434-0.924-0.881-1.39-1.232c-0.477-0.338-1.034-0.744-1.688-0.632c-0.667,0.169-0.942,0.931-1.118,1.548
									c-0.144,0.614-0.337,1.431-0.362,2.249c-0.088,1.657,0.232,3.448,0.645,5.271c0.424,1.828,0.99,3.703,1.562,5.636
									c0.56,1.922,1.167,3.966,1.454,6.094c0.678,4.004,1.274,8.01,2.184,11.714c0.431,1.853,0.763,3.665,1.229,5.346
									c0.469,1.678,0.913,3.266,1.324,4.735c0.745,2.964,1.68,5.317,2.268,7.009c0.596,1.686,0.947,2.678,0.97,2.744
									c0.164,0.527-0.791,1.349-2.128,1.836c-1.338,0.487-2.565,0.429-2.74-0.13c-0.019-0.07-0.311-1.139-0.807-2.955
									c-0.481-1.817-1.259-4.361-1.787-7.455c-0.302-1.539-0.629-3.202-0.975-4.959c-0.34-1.755-0.535-3.63-0.825-5.55
									c-0.626-3.832-0.914-7.964-1.278-12.066c-0.253-3.854-1.51-7.842-2.054-11.694c-0.277-1.928-0.474-3.839-0.233-5.681
									c0.112-0.929,0.364-1.775,0.698-2.725c0.352-0.863,0.851-1.726,1.746-1.873c0.877-0.089,1.6,0.458,2.189,0.943
									c0.607,0.532,1.052,1.037,1.461,1.499c0.808,0.944,1.511,1.767,2.091,2.444C227.56,140.784,228.392,141.383,228.392,141.383
									z"/>
							</g>
						</g>
					</g>
					<g>
						<g>
							<g>
								<path d="M218.617,143.374c0,0-0.017-0.227-0.049-0.653c-0.037-0.427-0.087-1.052-0.082-1.856
									c-0.002-0.801,0.034-1.786,0.341-2.902c0.088-0.277,0.164-0.567,0.341-0.852c0.134-0.304,0.357-0.558,0.599-0.813
									c0.518-0.478,1.282-0.695,2.064-0.614c1.57,0.191,2.878,1.043,4.206,1.956c1.314,0.938,2.583,2.052,3.841,3.252
									c2.511,2.408,4.974,5.165,7.314,8.043c4.544,5.487,10.341,9.89,14.526,13.652c2.116,1.848,3.818,3.547,5.024,4.749
									c1.154,1.275,1.833,2.025,1.877,2.075c0.344,0.413-0.293,1.455-1.42,2.323c-1.128,0.869-2.293,1.275-2.601,0.907
									c-0.037-0.048-0.596-0.781-1.547-2.027c-1.024-1.208-2.462-2.924-4.355-4.895c-3.696-3.975-9.278-9.02-13.577-15.25
									c-2.023-2.993-4.196-5.905-6.418-8.447c-1.113-1.268-2.241-2.448-3.4-3.44c-1.145-0.971-2.378-1.855-3.54-2.096
									c-0.567-0.118-1.168-0.018-1.605,0.32c-0.202,0.183-0.399,0.368-0.523,0.602c-0.16,0.206-0.254,0.468-0.356,0.712
									c-0.374,0.998-0.504,1.969-0.568,2.754c-0.076,0.79-0.081,1.416-0.082,1.843
									C218.62,143.146,218.617,143.374,218.617,143.374z"/>
							</g>
						</g>
					</g>
					<g>
						<g>
							<g>
								<path d="M373.979,38.4c0,0-0.05-0.272-0.188-1.014c-0.166-0.735-0.271-1.973-0.848-3.798c-0.129-0.46-0.27-0.96-0.423-1.504
									c-0.186-0.534-0.388-1.111-0.606-1.733c-0.418-1.252-0.987-2.656-1.614-4.273c-0.708-1.602-1.168-3.524-1.789-5.628
									c-0.313-1.045-0.68-2.183-1.164-3.185c-0.266-0.502-0.54-1.024-0.941-1.469c-0.178-0.241-0.424-0.422-0.651-0.624
									l-0.395-0.237l-0.1-0.059c-0.025,0.021-0.046,0.061-0.07,0.09l-0.138,0.192c-0.178,0.261-0.366,0.538-0.565,0.83
									c-0.171,0.305-0.324,0.637-0.495,0.972c-0.185,0.33-0.308,0.699-0.446,1.072c-0.131,0.351-0.316,0.82-0.424,1.275
									c-0.548,1.833-0.917,4.01-1.159,6.438c-0.251,2.429-0.385,5.108-0.549,7.991c-0.18,2.866-0.348,6.015-1.124,9.211
									c-1.343,6.294-2.806,13.15-4.311,20.21c-0.392,1.763-0.726,3.549-1.172,5.322c-0.441,1.774-0.885,3.555-1.329,5.338
									c-0.889,3.567-1.78,7.141-2.661,10.675c-0.441,1.768-0.88,3.527-1.315,5.27c-0.22,0.871-0.44,1.738-0.657,2.6
									c-0.243,0.849-0.484,1.693-0.724,2.532c-1.008,3.356-1.764,6.635-2.494,9.795c-0.307,1.588-0.608,3.145-0.901,4.664
									c-0.296,1.518-0.431,3.019-0.647,4.464c-0.098,0.724-0.194,1.437-0.29,2.138l-0.044,0.324
									c-0.039,0.264-0.055,0.28-0.074,0.392l-0.116,0.553c-0.079,0.365-0.15,0.734-0.239,1.083c-0.332,1.42-0.7,2.747-1.058,4.009
									c-1.476,5.024-2.665,9.013-3.192,11.829c-0.537,2.805-0.576,4.367-0.574,4.483c-0.04,0.589-0.338,1.101-0.78,1.501
									c-0.457,0.402-1.094,0.707-1.803,0.757c-0.71,0.051-1.362-0.183-1.841-0.653c-0.494-0.471-0.773-1.162-0.725-1.901
									c-0.003-0.155,0.124-2.133,0.832-5.239c0.69-3.103,2.097-7.273,3.697-12.109c0.389-1.211,0.784-2.469,1.132-3.76
									c0.096-0.325,0.168-0.646,0.25-0.973l0.121-0.492c0.017-0.063,0.053-0.22,0.037-0.135c-0.006,0.053,0.009-0.041,0.015-0.074
									l0.023-0.136c0.124-0.728,0.249-1.467,0.376-2.218c0.275-1.496,0.474-3.055,0.834-4.616
									c0.358-1.561,0.725-3.159,1.099-4.791c0.862-3.223,1.767-6.588,2.896-9.914c0.271-0.838,0.545-1.681,0.82-2.528
									c0.247-0.849,0.495-1.703,0.744-2.56c0.493-1.715,0.991-3.445,1.491-5.185c1.002-3.481,2.015-6.999,3.026-10.512
									c0.506-1.757,1.012-3.513,1.516-5.261c0.509-1.747,0.909-3.521,1.365-5.265c1.77-6.99,3.49-13.777,5.069-20.009
									c0.866-3.035,1.148-6.051,1.446-8.92c0.281-2.864,0.529-5.559,0.89-8.008c0.352-2.449,0.828-4.658,1.482-6.519
									c0.145-0.483,0.319-0.881,0.533-1.358c0.201-0.457,0.378-0.899,0.621-1.266c0.227-0.377,0.427-0.743,0.641-1.072
									c0.239-0.309,0.466-0.603,0.679-0.878l0.163-0.172c0.027-0.026,0.053-0.063,0.082-0.081l0.113,0.07l0.449,0.278
									c0.258,0.228,0.536,0.431,0.742,0.699c0.46,0.491,0.778,1.087,1.082,1.66c0.571,1.212,0.893,2.31,1.202,3.375
									c0.597,2.125,1.028,4.034,1.705,5.625c0.606,1.631,1.155,3.046,1.555,4.308c0.208,0.628,0.401,1.209,0.58,1.747
									c0.144,0.548,0.276,1.053,0.398,1.516c0.545,1.838,0.624,3.083,0.772,3.821C373.936,38.127,373.979,38.4,373.979,38.4z"/>
							</g>
						</g>
					</g>
					<g>
						<g>
							<g>
								<path d="M359.061,43.375c0,0,0.356-2.365,0.979-6.507c0.312-2.07,0.69-4.584,1.124-7.469
									c0.215-1.441,0.443-2.974,0.684-4.591c0.152-1.587,0.096-3.318,0.172-5.127c0.039-0.846,0.094-1.98,0.397-3.009
									c0.158-0.505,0.366-1.004,0.748-1.377c0.378-0.393,0.983-0.492,1.498-0.359c1.033,0.263,1.991,1.06,2.743,1.942
									c0.73,0.878,1.233,1.744,1.73,2.698c1.88,3.792,3.019,8.049,4.093,12.438c1.051,4.397,1.902,8.994,2.821,13.607l0.362,1.719
									c0.111,0.551,0.271,1.106,0.45,1.677c0.338,1.131,0.678,2.265,1.019,3.401c0.345,1.135,0.669,2.275,1.033,3.411l1.131,3.408
									c1.474,4.546,3.121,9.082,4.615,13.561c1.459,4.462,3.179,8.895,4.313,13.364c2.308,8.894,3.537,17.227,5.598,24.07
									c0.502,1.703,0.984,3.336,1.443,4.893c0.557,1.541,1.087,3.005,1.585,4.383c0.963,2.752,1.965,5.173,2.731,7.176
									c1.55,4.049,2.462,6.431,2.522,6.588c0.46,1.27-0.262,2.675-1.607,3.137c-1.347,0.462-2.804-0.171-3.254-1.415
									c-0.055-0.157-0.883-2.542-2.29-6.597c-0.708-2.05-1.619-4.469-2.525-7.356c-0.464-1.431-0.958-2.952-1.477-4.552
									c-0.427-1.644-0.875-3.371-1.342-5.171c-1.89-7.165-2.858-15.647-4.808-24.314c-0.946-4.331-2.462-8.664-3.796-13.248
									c-1.352-4.553-2.835-9.108-4.17-13.751l-1.023-3.466c-0.33-1.16-0.622-2.337-0.934-3.501
									c-0.307-1.166-0.612-2.329-0.918-3.489c-0.158-0.571-0.307-1.162-0.411-1.778l-0.311-1.767
									c-0.771-4.682-1.46-9.255-2.353-13.639c-0.91-4.363-1.905-8.601-3.573-12.263c-0.416-0.89-0.934-1.796-1.454-2.478
									c-0.504-0.645-1.08-1.2-1.826-1.502c-0.366-0.142-0.818-0.105-1.086,0.191c-0.272,0.277-0.407,0.65-0.517,1.012
									c-0.205,0.736-0.279,1.464-0.354,2.403c-0.136,1.776-0.134,3.497-0.35,5.166c-0.296,1.612-0.577,3.142-0.841,4.579
									c-0.531,2.871-0.994,5.372-1.375,7.432C359.497,41.023,359.061,43.375,359.061,43.375z"/>
							</g>
						</g>
					</g>
					<g>
						<g>
							<g>
								<path d="M501.05,132.43c0,0,0.28-0.749,0.676-2.085c0.179-0.66,0.382-1.412,0.488-2.256
									c0.117-0.833,0.161-1.756-0.089-2.646l-0.038-0.167c-0.037-0.004-0.111,0.068-0.166,0.099l-0.354,0.243
									c-0.23,0.159-0.465,0.32-0.704,0.485c-0.446,0.31-0.907,0.63-1.382,0.959c-0.22,0.154-0.442,0.31-0.667,0.468
									c-0.241,0.173-0.484,0.349-0.73,0.527c-0.578,0.429-1.168,0.868-1.769,1.314c-2.407,1.763-4.945,3.733-7.57,5.616
									c-1.331,0.932-2.663,1.865-3.976,2.784c-1.423,0.906-2.791,1.646-4.099,2.39c-2.605,1.472-4.948,2.876-6.645,4.293
									c-1.72,1.399-2.756,2.748-3.206,3.699c-0.472,0.951-0.524,1.505-0.527,1.544c-0.06,0.263-1.273,0.326-2.684,0.145
									c-1.412-0.181-2.457-0.821-2.312-1.426c0.011-0.061,0.279-1.213,1.261-2.752c0.959-1.556,2.696-3.278,4.9-4.723
									c2.197-1.479,4.861-2.709,7.634-3.932c1.382-0.61,2.818-1.216,4.135-1.88c1.359-0.762,2.74-1.535,4.119-2.307
									c2.759-1.586,5.468-3.282,8.068-4.811c0.646-0.385,1.281-0.765,1.903-1.135c0.281-0.182,0.682-0.377,1.047-0.564
									c0.361-0.185,0.719-0.369,1.071-0.55c0.679-0.353,1.338-0.696,1.976-1.027c0.307-0.162,0.607-0.321,0.903-0.477l0.431-0.229
									c0.065-0.024,0.155-0.104,0.196-0.082l0.023,0.262c0.161,1.394,0.028,2.574-0.215,3.628
									c-0.224,1.045-0.562,1.918-0.814,2.581C501.403,131.715,501.05,132.43,501.05,132.43z"/>
							</g>
						</g>
					</g>
					<g>
						<g>
							<g>
								<path d="M498.99,126.46c0,0,0.021-0.029,0.091-0.126c0.078-0.09,0.176-0.275,0.411-0.515
									c0.434-0.459,1.45-1.396,3.613-1.456l0.105-0.003v0.109c0.003,0.512,0.109,1.45,0.016,2.676
									c-0.077,1.23-0.293,2.749-0.652,4.43c-0.365,1.674-0.853,3.52-1.393,5.4c-0.263,0.938-0.531,1.894-0.802,2.856
									c-0.254,0.973-0.46,1.847-0.768,2.943c-0.624,2.056-1.443,3.917-2.157,5.604c-0.721,1.686-1.348,3.206-1.767,4.48
									c-0.426,1.275-0.635,2.289-0.723,2.966c-0.066,0.671-0.065,1.027-0.055,1.049c-0.012,0.22-1.185,0.413-2.608,0.431
									c-1.424,0.018-2.564-0.335-2.538-0.789c-0.007-0.054,0.069-0.691,0.316-1.694c0.263-0.987,0.738-2.29,1.428-3.691
									c1.334-2.822,3.637-6.035,5.24-9.41c0.351-0.792,0.763-1.835,1.149-2.759c0.407-0.922,0.812-1.838,1.209-2.736
									c0.804-1.784,1.53-3.483,2.127-5.044c0.59-1.559,1.024-2.975,1.295-4.139c0.288-1.159,0.35-2.066,0.469-2.574
									c0.095,0.094,0.026,0.026,0.108,0.107c-2.095-0.009-3.117,0.851-3.573,1.283c-0.246,0.224-0.355,0.4-0.439,0.484
									C499.014,126.433,498.99,126.46,498.99,126.46z"/>
							</g>
						</g>
					</g>
					<g>
						<g>
							<g>
								<path d="M625.03,129.444c0,0,0.118-0.321,0.422-1.14c0.305-0.819,0.77-2.147,1.638-4.088
									c0.42-0.976,0.911-2.116,1.483-3.443c0.302-0.657,0.548-1.389,0.846-2.158c0.284-0.775,0.623-1.582,0.885-2.489
									c0.595-1.788,1.383-3.739,2.129-5.964c0.187-0.554,0.373-1.134,0.54-1.716c0.16-0.545,0.308-1.108,0.429-1.688
									c0.115-0.58,0.229-1.178,0.239-1.795c0.029-0.307-0.016-0.62-0.045-0.931l-0.111-0.461c-0.099-0.031-0.282,0.11-0.42,0.158
									c-1.219,0.592-2.485,1.406-3.836,2.448c-1.527,1.163-3.172,2.574-4.922,4.172c-3.506,3.167-7.398,7.221-12.137,11.041
									c-9.221,7.778-19.93,16.955-30.987,24.575c-1.372,0.965-2.736,1.923-4.088,2.873c-1.284,0.967-2.558,1.925-3.814,2.871
									c-1.273,0.91-2.442,1.975-3.634,2.94c-1.186,0.979-2.35,1.943-3.446,2.954c-1.107,0.994-2.192,1.967-3.251,2.916
									c-1.043,0.976-2.06,1.927-3.046,2.851c-1.97,1.867-3.82,3.622-5.523,5.236c-1.725,1.615-3.3,3.089-4.694,4.396
									c-1.43,1.285-2.674,2.404-3.703,3.331c-2.097,1.822-3.37,2.84-3.463,2.93c-1.011,0.818-2.535,0.564-3.402-0.564
									c-0.868-1.129-0.787-2.68,0.182-3.464c0.093-0.089,1.345-1.023,3.441-2.722c1.038-0.87,2.291-1.921,3.731-3.128
									c1.424-1.241,3.031-2.643,4.792-4.179c1.765-1.557,3.683-3.248,5.725-5.049c1.03-0.897,2.092-1.821,3.181-2.769
									c1.114-0.928,2.256-1.88,3.422-2.851c1.15-0.985,2.384-1.934,3.639-2.895c1.267-0.951,2.485-1.982,3.859-2.893
									c1.345-0.935,2.708-1.882,4.083-2.839c1.37-0.888,2.753-1.785,4.144-2.688c11.206-7.115,22.172-15.799,31.742-23.222
									c4.839-3.582,8.842-7.413,12.541-10.463c1.836-1.53,3.566-2.88,5.179-3.985c1.795-1.25,3.415-2.086,4.766-2.646
									c0.142-0.02,0.328-0.135,0.43-0.076l0.124,0.551c0.035,0.366,0.085,0.729,0.061,1.083c0.004,0.708-0.115,1.409-0.254,2.097
									c-0.143,0.687-0.325,1.354-0.522,1.997c-0.184,0.607-0.377,1.175-0.574,1.733c-0.783,2.228-1.604,4.168-2.222,5.932
									c-0.273,0.892-0.632,1.709-0.931,2.481c-0.312,0.769-0.574,1.501-0.889,2.153c-0.598,1.317-1.111,2.448-1.551,3.415
									c-0.907,1.922-1.403,3.235-1.729,4.045C625.158,129.126,625.03,129.444,625.03,129.444z"/>
							</g>
						</g>
					</g>
					<g>
						<g>
							<g>
								<path d="M610.111,121.982c0,0,0.417-0.44,1.199-1.267c0.771-0.837,1.942-2.024,3.447-3.526
									c1.519-1.486,3.395-3.261,5.634-5.208c1.127-0.963,2.351-1.963,3.655-3c1.345-0.984,2.717-2.082,4.276-3.053
									c0.779-0.494,1.749-1.177,2.697-1.645c0.484-0.26,0.973-0.523,1.466-0.788l0.751-0.402c0.224-0.088,0.617-0.457,0.514,0.007
									c0.007,0.558,0.042,1.132,0.026,1.7c-0.028,0.567-0.039,1.138-0.08,1.725c-0.081,0.602-0.162,1.208-0.243,1.818
									c-0.112,0.65-0.22,1.1-0.327,1.637c-0.948,4.142-2.553,8.299-4.236,12.54c-0.84,2.122-1.71,4.268-2.505,6.45
									c-0.397,1.112-0.765,2.146-1.079,3.29c-0.312,1.148-0.627,2.301-0.942,3.46c-0.632,2.318-1.269,4.654-1.908,7.001
									c-0.663,2.34-1.481,4.647-2.218,6.98c-0.771,2.32-1.476,4.671-2.303,6.96c-0.825,2.291-1.647,4.573-2.464,6.838
									c-1.601,4.549-3.339,8.946-4.943,13.247c-0.411,1.075-0.789,2.13-1.252,3.208c-0.434,1.078-0.886,2.128-1.366,3.141
									c-0.931,2.052-1.918,4.001-2.883,5.888c-1.938,3.77-3.815,7.273-5.449,10.536c-3.314,6.505-5.471,12.105-6.439,16.123
									c-0.47,2.006-0.755,3.603-0.831,4.711c-0.059,0.554-0.104,0.988-0.137,1.293c-0.023,0.304-0.007,0.477-0.013,0.516
									c-0.021,1.205-1.206,2.238-2.627,2.309c-1.422,0.071-2.559-1.093-2.523-2.599c0.006-0.045-0.002-0.259,0.034-0.619
									c0.048-0.357,0.115-0.865,0.202-1.514c0.138-1.306,0.519-3.128,1.121-5.359c1.229-4.458,3.759-10.358,7.354-16.876
									c1.776-3.272,3.779-6.732,5.811-10.385c1.012-1.828,2.04-3.702,2.997-5.641c0.498-0.966,0.96-1.949,1.399-2.946
									c0.461-0.977,0.887-2.047,1.328-3.098c1.738-4.229,3.622-8.57,5.358-13.028c0.886-2.225,1.778-4.467,2.674-6.716
									c0.897-2.25,1.668-4.547,2.511-6.824c0.806-2.288,1.694-4.548,2.43-6.852c0.713-2.312,1.422-4.614,2.126-6.897
									c0.352-1.142,0.703-2.28,1.052-3.412c0.35-1.135,0.809-2.316,1.24-3.399c0.885-2.202,1.83-4.323,2.737-6.413
									c1.818-4.17,3.53-8.214,4.58-12.193c0.112-0.47,0.225-0.937,0.336-1.4c0.073-0.4,0.146-0.797,0.218-1.191
									c0.046-0.407,0.09-0.812,0.135-1.213c0.034-0.406,0.02-0.816,0.031-1.226c0.08-0.335-0.187-0.086-0.337-0.032l-0.511,0.26
									c-0.346,0.176-0.688,0.351-1.026,0.523c-0.343,0.174-0.69,0.343-1.014,0.554c-0.351,0.213-0.697,0.424-1.041,0.634
									c-1.568,0.905-2.963,1.947-4.329,2.878c-1.327,0.985-2.576,1.938-3.729,2.859c-2.291,1.863-4.221,3.571-5.787,5.003
									c-1.551,1.448-2.761,2.596-3.559,3.406C610.543,121.555,610.111,121.982,610.111,121.982z"/>
							</g>
						</g>
					</g>
					<g>
						<g>
							<g>
								<path d="M90.52,459.291c0,0-0.399-0.073-1.156-0.112c-0.757-0.041-1.869-0.027-3.284,0.028
									c-1.415,0.05-3.134,0.154-5.119,0.16c-0.993-0.007-2.054-0.025-3.179-0.188c-0.568-0.089-1.121-0.193-1.763-0.438
									c-0.605-0.251-1.212-0.639-1.535-1.264c-0.325-0.628-0.253-1.396,0.003-2.077c0.097-0.363,0.291-0.658,0.444-0.992
									c0.182-0.283,0.352-0.584,0.55-0.86c0.392-0.558,0.828-1.085,1.281-1.611c0.474-0.498,0.956-1.004,1.444-1.517
									c1.998-2.002,4.29-3.897,6.634-5.831c2.344-1.947,4.726-3.909,6.821-6.263c2.19-2.321,4.415-4.681,6.642-7.041
									c4.341-4.83,8.688-9.666,12.77-14.207c4.084-4.529,7.704-8.932,10.977-12.635c1.622-1.863,3.113-3.576,4.438-5.099
									c1.331-1.521,2.585-2.795,3.581-3.881c2.018-2.156,3.206-3.425,3.285-3.508c0.643-0.655,1.966-0.353,2.954,0.671
									c0.988,1.025,1.284,2.372,0.659,3.009c-0.08,0.078-1.296,1.262-3.364,3.274c-1.026,1.018-2.304,2.191-3.693,3.631
									c-1.386,1.443-2.945,3.066-4.642,4.832c-3.42,3.507-7.282,7.758-11.608,12.103c-4.313,4.346-8.906,8.973-13.494,13.595
									c-2.351,2.257-4.7,4.512-7.012,6.731c-2.284,2.32-4.876,4.251-7.303,6.069c-2.443,1.819-4.778,3.565-6.814,5.412
									c-0.498,0.473-0.988,0.939-1.471,1.397c-0.455,0.479-0.892,0.958-1.28,1.455c-0.197,0.247-0.358,0.507-0.539,0.756
									c-0.126,0.243-0.299,0.485-0.382,0.728c-0.21,0.47-0.324,1.034-0.104,1.51c0.497,0.954,1.574,1.184,2.629,1.426
									c1.061,0.208,2.106,0.281,3.085,0.336c1.963,0.092,3.686,0.073,5.104,0.094c1.418,0.015,2.534,0.057,3.291,0.135
									C90.124,459.198,90.52,459.291,90.52,459.291z"/>
							</g>
						</g>
					</g>
					<g>
						<g>
							<g>
								<path d="M86.403,444.366c0,0-0.294,0.227-0.955,0.735c-0.657,0.514-1.685,1.304-3.093,2.499
									c-1.385,1.208-3.248,2.768-5.097,5.145c-0.442,0.604-0.877,1.267-1.182,2.011c-0.294,0.732-0.467,1.569-0.028,2.29
									c0.401,0.714,1.248,1.098,2.182,1.378c0.94,0.264,1.979,0.374,3.059,0.456l0.037,0.005c2.121,0.207,4.777,0.147,7.8-0.244
									c3.025-0.361,6.407-1.022,10.125-1.334c1.89-0.134,3.743-0.218,5.64-0.313c1.896-0.094,3.822-0.189,5.757-0.286
									c3.864-0.149,7.778-0.497,11.554-0.742c3.784-0.264,7.438-0.519,10.795-0.752c3.364-0.224,6.42-0.474,9.04-0.565
									c5.231-0.236,8.593-0.389,8.745-0.395c0.814-0.015,1.473,1.13,1.472,2.553c-0.001,1.424-0.651,2.59-1.452,2.605
									c-0.15-0.001-3.472-0.031-8.641-0.077c-2.582-0.056-5.647,0.021-9.003,0.049c-3.363,0.037-7.023,0.078-10.814,0.119
									c-3.801,0.022-7.719,0.133-11.627,0.044c-1.95-0.024-3.892-0.05-5.803-0.074c-1.91-0.024-3.805-0.059-5.559-0.048
									c-3.568,0.064-7.003,0.493-10.105,0.645c-3.103,0.18-5.878,0.037-8.057-0.366c0.027,0.004,0.018,0.003,0.036,0.005
									c-1.121-0.118-2.198-0.262-3.212-0.577c-0.504-0.17-0.99-0.37-1.442-0.642c-0.448-0.301-0.872-0.664-1.105-1.134
									c-0.536-0.931-0.266-2.042,0.083-2.816c0.362-0.808,0.841-1.48,1.318-2.09c1.98-2.377,3.9-3.86,5.339-5.021
									c1.459-1.143,2.521-1.889,3.202-2.371C86.098,444.578,86.403,444.366,86.403,444.366z"/>
							</g>
						</g>
					</g>
					<g>
						<g>
							<g>
								<path d="M168.201,488.147c0,0,0.174,0.201,0.478,0.553c0.316,0.34,0.706,0.866,1.271,1.408
									c1.106,1.11,2.708,2.394,4.46,3.386c1.784,0.968,3.646,1.747,5.12,2.285c1.477,0.536,2.474,0.898,2.508,0.91
									c0.126,0.068-0.311,1.146-0.975,2.405c-0.664,1.26-1.309,2.223-1.441,2.152c-0.015-0.012-0.246-0.181-0.638-0.47
									c-0.391-0.296-0.94-0.684-1.597-1.21c-1.311-1.001-3.038-2.451-4.583-4.057c-1.537-1.645-2.762-3.494-3.505-4.929
									c-0.388-0.708-0.611-1.35-0.809-1.768C168.306,488.39,168.201,488.147,168.201,488.147z"/>
							</g>
						</g>
					</g>
					<g>
						<g>
							<g>
								<path d="M689.335,418.994c0,0,0.983-0.132,4.312-0.278c1.663-0.082,3.914-0.153,6.908-0.366
									c1.495-0.116,3.181-0.252,5.049-0.555c0.469-0.069,0.942-0.176,1.433-0.265c0.484-0.099,0.931-0.228,1.413-0.346
									c0.458-0.173,0.951-0.281,1.403-0.523c0.225-0.12,0.48-0.19,0.686-0.355l0.324-0.221c0.088-0.077,0.305-0.136,0.131-0.253
									c-0.698-0.865-1.688-1.727-2.874-2.553c-1.33-0.932-2.947-1.853-4.782-2.778c-1.834-0.927-3.887-1.854-6.086-2.864
									c-1.101-0.502-2.235-1.037-3.397-1.608c-1.159-0.572-2.34-1.261-3.508-1.888c-9.303-5.301-20.742-10.646-31.149-17.061
									c-5.281-3.206-10.096-6.379-14.694-9.31c-2.314-1.486-4.537-2.914-6.634-4.26c-1.057-0.692-2.049-1.287-3.07-2.006
									c-1.005-0.708-1.935-1.436-2.779-2.125c-1.701-1.385-3.17-2.643-4.488-3.677c-1.313-1.039-2.467-1.847-3.428-2.447
									c-1.931-1.153-3.047-1.492-3.13-1.507c-0.21-0.069-0.386-0.205-0.534-0.395c-0.148-0.175-0.271-0.386-0.368-0.65
									c-0.192-0.521-0.298-1.206-0.188-1.908c0.11-0.703,0.446-1.29,0.969-1.653c0.258-0.179,0.565-0.312,0.884-0.361
									c0.31-0.036,0.638-0.004,0.958,0.104c0.135,0.028,1.82,0.642,4.124,2.165c2.294,1.51,5.052,4.021,8.162,6.82
									c0.787,0.697,1.592,1.38,2.456,2.043c0.848,0.652,1.886,1.342,2.872,2.046c2.011,1.412,4.142,2.909,6.361,4.467
									c4.491,3.13,9.391,6.662,14.304,9.929c9.883,6.696,21.118,12.57,30.242,18.345c1.168,0.7,2.227,1.389,3.338,2.006
									c1.109,0.612,2.204,1.194,3.276,1.748c2.142,1.112,4.163,2.15,5.972,3.185c1.81,1.033,3.41,2.061,4.723,3.096
									c1.452,1.15,2.472,2.242,3.157,3.217c0.154,0.128-0.084,0.197-0.191,0.285l-0.385,0.253
									c-0.246,0.186-0.533,0.273-0.792,0.411c-0.515,0.278-1.094,0.406-1.616,0.603c-0.544,0.128-1.091,0.277-1.591,0.372
									c-0.498,0.083-0.979,0.183-1.452,0.245c-1.891,0.276-3.583,0.384-5.084,0.475c-3.005,0.161-5.256,0.189-6.92,0.234
									C690.321,418.902,689.335,418.994,689.335,418.994z"/>
							</g>
						</g>
					</g>
					<g>
						<g>
							<g>
								<path d="M697.052,406.06c0,0,0.105,0.086,0.461,0.31c0.355,0.224,0.971,0.573,2,1.075c1.034,0.492,2.465,1.172,4.429,2.104
									c0.977,0.478,2.085,1.025,3.298,1.738c0.604,0.359,1.235,0.76,1.855,1.26c0.31,0.246,0.612,0.528,0.888,0.854
									c0.275,0.327,0.516,0.728,0.585,1.185c0.11,0.431,0.145,1.001-0.12,1.574c-0.252,0.578-0.791,1.064-1.438,1.412
									c-1.307,0.705-3.007,1.027-4.899,1.226c-0.95,0.093-1.955,0.147-3.008,0.174c-1.065,0.022-2.128,0.016-3.262,0.143
									c-2.262,0.188-4.697,0.391-7.269,0.604c-10.274,0.819-22.648,2.746-34.831,3.507c-3.044,0.166-6.081,0.397-9.027,0.501
									c-2.937,0.065-5.809,0.129-8.575,0.19c-5.532,0.122-10.643,0.233-15.012,0.329c-8.736,0.185-14.503,0.306-14.729,0.31
									c-1.042,0-1.887-1.157-1.887-2.58c0-1.424,0.845-2.578,1.887-2.578c0.226,0.005,5.992,0.126,14.729,0.311
									c4.368,0.096,9.479,0.207,15.012,0.328c2.767,0.062,5.639,0.126,8.575,0.19c2.927,0.027,5.888-0.067,8.895-0.095
									c12.02-0.202,24.499-1.552,34.879-1.87c2.592-0.086,5.049-0.166,7.33-0.241c1.135-0.069,2.26-0.006,3.284,0.027
									c1.037,0.028,2.023,0.026,2.952-0.014c1.851-0.09,3.507-0.318,4.735-0.892c0.611-0.283,1.094-0.675,1.335-1.142
									c0.256-0.46,0.266-0.964,0.194-1.363c-0.135-0.84-0.792-1.419-1.367-1.918c-0.598-0.496-1.218-0.901-1.812-1.265
									c-1.194-0.723-2.293-1.285-3.262-1.776c-1.947-0.964-3.367-1.667-4.394-2.176c-1.021-0.522-1.629-0.887-1.979-1.121
									C697.152,406.149,697.051,406.06,697.052,406.06z"/>
							</g>
						</g>
					</g>
					<g>
						<g>
							<g>
								<path d="M508.652,206.328c0,0-2.335,2.608-6.556,7.326c-2.11,2.357-4.692,5.24-7.69,8.587
									c-3.02,3.327-6.379,7.181-10.101,11.428c-0.931,1.061-1.884,2.148-2.858,3.258c-0.954,1.133-1.929,2.291-2.923,3.473
									c-2,2.354-4.046,4.833-6.237,7.336c-2.25,2.471-4.387,5.025-6.396,7.84c-2.001,2.799-3.86,5.803-5.326,9.033
									c-1.46,3.222-2.513,6.69-2.717,10.235c-0.219,3.54,0.478,7.118,2.086,10.409c0.446,0.79,0.896,1.583,1.346,2.381
									c0.533,0.729,1.134,1.404,1.688,2.123c0.646,0.661,1.345,1.293,2.012,1.952c0.736,0.594,1.514,1.152,2.268,1.74
									c3.179,2.174,6.895,3.756,10.81,4.756c7.832,1.971,16.185,1.659,23.11-1.167l1.271-0.571
									c0.423-0.189,0.856-0.361,1.234-0.617l1.176-0.701l0.588-0.347c0.201-0.111,0.216-0.121,0.374-0.277l0.962-0.888
									c0.157-0.15,0.33-0.287,0.477-0.445l0.408-0.498l0.826-0.986c0.249-0.347,0.457-0.721,0.689-1.076
									c1.84-2.878,2.58-6.373,2.838-9.885c0.261-3.528,0.056-7.1-0.166-10.624c-0.11-1.767-0.226-3.519-0.292-5.27
									c-0.028-0.878-0.071-1.743-0.06-2.621c0-0.437,0-0.871,0-1.304c0.01,0.015-0.012-0.303-0.02-0.484l-0.033-0.625
									c-0.333-6.648-0.644-12.84-0.928-18.493c-0.13-2.824-0.253-5.513-0.369-8.057c-0.16-2.538-0.311-4.932-0.451-7.17
									c-0.138-2.241-0.266-4.326-0.384-6.246c-0.115-1.921-0.347-3.659-0.484-5.233c-0.606-6.299-0.941-9.782-0.941-9.782
									s0.619,3.446,1.74,9.679c0.259,1.563,0.621,3.294,0.875,5.205c0.252,1.911,0.525,3.988,0.818,6.219
									c0.287,2.234,0.593,4.623,0.917,7.157c0.269,2.536,0.553,5.217,0.851,8.033c0.572,5.625,1.198,11.787,1.87,18.401
									l0.061,0.621c0.018,0.235,0.047,0.333,0.061,0.768c0.018,0.405,0.037,0.812,0.055,1.221c0.023,0.813,0.102,1.65,0.164,2.487
									c0.136,1.679,0.319,3.406,0.499,5.169c0.357,3.531,0.722,7.254,0.562,11.199c-0.043,1.966-0.334,3.998-0.779,6.04
									c-0.1,0.512-0.291,1.016-0.435,1.526c-0.173,0.505-0.277,1.029-0.514,1.522c-0.442,0.99-0.819,2.019-1.434,2.947
									c-0.288,0.471-0.557,0.96-0.87,1.418l-1.036,1.314l-0.525,0.656c-0.186,0.209-0.395,0.393-0.592,0.591l-1.211,1.165
									l-0.376,0.356l-0.434,0.273l-0.695,0.436l-1.4,0.871c-0.459,0.312-0.961,0.53-1.457,0.766l-1.495,0.703
									c-4.045,1.749-8.435,2.68-12.889,2.932c-4.456,0.246-8.997-0.181-13.439-1.311c-4.436-1.136-8.69-2.951-12.435-5.56
									c-0.903-0.704-1.818-1.382-2.691-2.11c-0.817-0.806-1.648-1.585-2.43-2.417c-0.713-0.915-1.462-1.809-2.113-2.749
									c-0.544-0.998-1.086-1.991-1.626-2.98c-1.912-4.059-2.686-8.606-2.303-12.874c0.359-4.284,1.719-8.234,3.449-11.753
									c1.743-3.529,3.863-6.677,6.094-9.553c2.22-2.871,4.625-5.501,6.962-7.842c2.302-2.399,4.464-4.774,6.58-7.021
									c1.055-1.127,2.089-2.23,3.1-3.311c1.039-1.059,2.056-2.095,3.048-3.106c3.973-4.044,7.576-7.686,10.815-10.807
									c3.221-3.141,5.994-5.844,8.292-8.02C506.111,208.737,508.652,206.328,508.652,206.328z"/>
							</g>
						</g>
					</g>
					<g>
						<g>
							<g>
								<path d="M225.508,213.789c0,0,0.402,0.761,1.167,2.21c0.742,1.461,1.944,3.569,3.25,6.401
									c2.743,5.599,6.389,13.897,9.958,24.496c1.771,5.286,3.623,11.175,5.338,17.444c0.23,0.776,0.42,1.595,0.689,2.355
									c0.264,0.762,0.53,1.531,0.798,2.306c0.571,1.562,1.158,3.143,1.814,4.71c1.31,3.131,2.835,6.256,4.782,9.118
									c1.942,2.855,4.339,5.431,7.268,7.211c2.915,1.796,6.357,2.727,9.997,2.772c0.895,0.098,1.841-0.055,2.77-0.099
									c0.935-0.047,1.87-0.143,2.792-0.296c1.828-0.306,3.658-0.813,5.45-1.485c3.586-1.348,7.031-3.344,10.086-5.853
									c3.049-2.51,5.644-5.493,7.439-8.781c1.8-3.281,2.743-6.875,2.565-10.373c-0.04-0.872-0.156-1.745-0.318-2.589
									c-0.106-0.413-0.168-0.833-0.301-1.241l-0.458-1.211c-0.162-0.4-0.271-0.817-0.47-1.205l-0.615-1.156
									c-0.215-0.379-0.376-0.786-0.631-1.143l-0.749-1.079c-2.02-2.862-4.672-5.269-7.505-7.333
									c-5.704-4.137-12.066-6.947-18.018-9.478c-1.507-0.615-2.989-1.22-4.443-1.813c-0.732-0.295-1.457-0.587-2.175-0.876
									c-0.359-0.145-0.717-0.289-1.074-0.433l-0.565-0.227c-0.305-0.13-0.43-0.219-0.605-0.305
									c-2.684-1.434-5.26-2.811-7.719-4.125c-4.902-2.655-9.369-4.985-13.211-7.186c-3.812-2.251-7.096-4.191-9.78-5.776
									c-5.344-3.194-8.299-4.961-8.299-4.961s3.093,1.515,8.686,4.254c2.785,1.382,6.192,3.073,10.148,5.036
									c3.972,1.928,8.575,3.966,13.605,6.324c2.518,1.172,5.155,2.4,7.904,3.68c0.492,0.259,1.315,0.477,2.023,0.742
									c0.732,0.253,1.472,0.509,2.218,0.768c1.496,0.528,3.019,1.067,4.568,1.615c3.098,1.131,6.291,2.384,9.532,3.852
									c3.242,1.46,6.519,3.194,9.704,5.347c3.169,2.157,6.277,4.773,8.795,8.145l0.93,1.28c0.313,0.426,0.54,0.919,0.814,1.379
									l0.785,1.412c0.253,0.478,0.425,1.009,0.639,1.515l0.606,1.545c0.18,0.526,0.29,1.086,0.434,1.632
									c0.236,1.098,0.401,2.201,0.474,3.328c0.314,4.513-0.865,9.105-3.004,13.078c-2.138,3.996-5.154,7.462-8.65,10.343
									c-3.506,2.877-7.43,5.129-11.597,6.654c-2.084,0.759-4.234,1.332-6.427,1.669c-1.089,0.166-2.173,0.263-3.256,0.304
									c-1.086,0.037-2.146,0.179-3.25,0.057c-4.352-0.123-8.749-1.391-12.332-3.741c-3.608-2.326-6.341-5.51-8.416-8.786
									c-2.083-3.295-3.585-6.717-4.833-10.061c-0.624-1.675-1.164-3.337-1.684-4.975c-0.248-0.834-0.494-1.663-0.737-2.484
									c-0.248-0.821-0.393-1.622-0.592-2.423c-1.445-6.428-2.947-12.258-4.404-17.619c-2.922-10.69-5.941-19.16-8.232-24.934
									c-1.079-2.917-2.096-5.107-2.71-6.628C225.841,214.583,225.508,213.789,225.508,213.789z"/>
							</g>
						</g>
					</g>
				</g>
			</g>
			<g opacity="0.3">
				<g>
					<g>
						<path fill="#FFFFFF" d="M290,275c0,0,0.095-0.399,0.265-1.119c0.043-0.168,0.091-0.355,0.143-0.56
							c0.041-0.207,0.061-0.442,0.098-0.68c0.062-0.48,0.171-0.984,0.161-1.569c0.014-0.276,0.028-0.566,0.043-0.868
							c-0.017-0.299-0.034-0.61-0.052-0.931c0-0.31-0.023-0.629-0.083-0.962c-0.05-0.33-0.068-0.657-0.122-0.995
							c-0.225-1.356-0.592-2.787-1.008-4.317c-0.842-3.054-1.891-5.986-2.799-8.236c-0.462-1.109-0.86-2.069-1.177-2.711
							c-0.306-0.655-0.469-1.054-0.469-1.054s0.393,0.116,1.093,0.392c0.71,0.263,1.675,0.755,2.793,1.513
							c2.187,1.508,4.993,4.338,6.169,8.524c0.572,2.074,0.658,4.211,0.309,6.097c-0.088,0.47-0.23,0.927-0.352,1.361
							c-0.111,0.435-0.272,0.847-0.463,1.234c-0.179,0.388-0.355,0.754-0.534,1.097c-0.218,0.333-0.433,0.643-0.64,0.93
							c-0.384,0.588-0.87,1.028-1.266,1.406c-0.203,0.186-0.38,0.361-0.566,0.503c-0.196,0.13-0.376,0.249-0.537,0.356
							C290.36,274.822,290,275,290,275z"/>
					</g>
				</g>
			</g>
			<g opacity="0.3">
				<g>
					<g>
						<path fill="#FFFFFF" d="M502.999,222c0,0,0.728,3.6,1.457,9.419c0.364,2.91,0.729,6.375,1.002,10.223
							c0.136,1.924,0.25,3.944,0.33,6.038c0.03,1.047,0.061,2.112,0.092,3.193c0.009,0.541,0.017,1.085,0.024,1.634l0.004,0.383
							c0.001,0.012,0.002-0.022-0.002-0.048l0.018,0.217l0.072,0.874c0.34,4.664,0.036,8.907-0.2,12.727
							c-0.264,3.819-0.514,7.207-0.556,10.06c-0.046,2.848,0.07,5.176,0.322,6.773c0.075,0.816,0.247,1.419,0.314,1.852
							c0.08,0.43,0.122,0.656,0.122,0.656s-0.121-0.193-0.354-0.561c-0.216-0.375-0.606-0.914-0.95-1.673
							c-0.791-1.487-1.653-3.792-2.349-6.726c-0.701-2.932-1.183-6.48-1.465-10.355c-0.306-3.873-0.382-8.103-0.692-12.301
							l-0.061-0.782l-0.015-0.195c-0.016-0.163-0.027-0.334-0.022-0.46l0.004-0.44c0.008-0.548,0.016-1.093,0.024-1.634
							c0.031-1.081,0.061-2.146,0.092-3.193c0.08-2.094,0.193-4.113,0.33-6.038c0.273-3.848,0.638-7.313,1.001-10.223
							C502.271,225.6,502.999,222,502.999,222z"/>
					</g>
				</g>
			</g>
			<g opacity="0.3">
				<g>
					<g>
						<path fill="#FFFFFF" d="M391,131c0,0-0.562-1.514-1.579-4.252c-0.248-0.688-0.523-1.454-0.825-2.291
							c-0.275-0.845-0.574-1.763-0.895-2.75c-0.639-1.975-1.357-4.231-2.073-6.737c-1.478-5.01-3.061-10.997-4.855-17.585
							c-0.454-1.642-0.919-3.324-1.395-5.042c-0.503-1.703-1.016-3.441-1.539-5.211c-0.485-1.781-1.116-3.54-1.685-5.35
							c-0.288-0.903-0.578-1.813-0.87-2.73c-0.014-0.043-0.104-0.315-0.107-0.358l-0.048-0.21l-0.082-0.36l-0.164-0.723
							l-0.327-1.453c-1.736-7.773-3.212-15.22-4.447-22.005c-0.15-0.849-0.299-1.687-0.446-2.514
							c-0.116-0.832-0.231-1.652-0.344-2.46c-0.216-1.618-0.426-3.189-0.629-4.709c-0.395-3.04-0.739-5.875-1.037-8.464
							C366.462,25.438,366.001,19,366.001,19s1.897,6.193,4.517,16.257c0.655,2.516,1.355,5.274,2.082,8.238
							c0.358,1.483,0.728,3.017,1.109,4.597c0.185,0.791,0.374,1.593,0.565,2.406c0.214,0.807,0.431,1.624,0.651,2.452
							c1.758,6.621,3.573,13.914,5.291,21.613c0.195,0.892,0.389,1.777,0.582,2.658c0.287,0.954,0.572,1.9,0.855,2.841
							c0.548,1.884,1.139,3.731,1.56,5.577c0.448,1.84,0.899,3.646,1.296,5.421c0.359,1.779,0.711,3.52,1.054,5.219
							c1.281,6.799,2.152,12.938,2.912,18.071c0.378,2.569,0.721,4.894,1.021,6.936c0.148,1.023,0.286,1.975,0.413,2.851
							c0.144,0.872,0.276,1.669,0.394,2.387C390.752,129.405,391,131,391,131z"/>
					</g>
				</g>
			</g>
			<g opacity="0.3">
				<g>
					<g>
						<path fill="#FFFFFF" d="M494.999,133.999c0,0-0.044,0.318-0.149,0.839c-0.091,0.534-0.299,1.21-0.475,2.065
							c-0.423,1.669-0.931,3.769-1.956,5.785c-0.999,2.035-2.324,3.746-3.442,5.083c-0.564,0.661-1.013,1.227-1.385,1.616
							c-0.36,0.392-0.593,0.613-0.593,0.613s-0.128-0.276-0.302-0.784c-0.161-0.504-0.418-1.259-0.539-2.18
							c-0.262-1.831-0.179-4.454,1.037-6.926c1.241-2.458,3.251-4.157,4.91-5.032c0.799-0.468,1.584-0.694,2.082-0.864
							C494.701,134.056,494.999,133.999,494.999,133.999z"/>
					</g>
				</g>
			</g>
			<g opacity="0.3">
				<g>
					<g>
						<path fill="#FFFFFF" d="M630.999,109.999c0,0-0.457,1.421-1.285,3.992c-0.215,0.642-0.454,1.356-0.716,2.138
							c-0.296,0.767-0.617,1.601-0.963,2.496c-0.695,1.792-1.49,3.839-2.493,6.037c-0.494,1.105-1.012,2.263-1.552,3.47
							c-0.574,1.187-1.171,2.422-1.79,3.7c-1.232,2.566-2.651,5.236-4.14,8.058c-3.015,5.606-6.475,11.664-10.163,17.942
							c-3.668,6.286-7.121,12.252-10.145,17.744c-1.429,2.778-2.909,5.377-4.078,7.898c-0.614,1.252-1.208,2.461-1.778,3.623
							c-0.521,1.184-1.021,2.32-1.499,3.405c-1.02,2.155-1.74,4.175-2.433,5.941c-0.346,0.886-0.668,1.71-0.964,2.468
							c-0.249,0.774-0.477,1.481-0.681,2.117c-0.851,2.558-1.321,3.972-1.321,3.972s0.154-1.486,0.433-4.172
							c0.078-0.675,0.165-1.426,0.259-2.248c0.154-0.81,0.32-1.69,0.5-2.636c0.373-1.892,0.76-4.072,1.456-6.4
							c0.326-1.175,0.668-2.406,1.024-3.689c0.403-1.266,0.866-2.566,1.332-3.922c0.888-2.735,2.108-5.531,3.333-8.514
							c2.604-5.876,5.819-12.166,9.531-18.525c3.727-6.346,7.499-12.214,10.966-17.512c1.727-2.647,3.368-5.162,4.904-7.516
							c0.769-1.176,1.514-2.313,2.227-3.404c0.697-1.101,1.366-2.158,2.005-3.167c1.312-2.004,2.417-3.858,3.411-5.482
							c0.501-0.811,0.967-1.566,1.396-2.261c0.404-0.707,0.775-1.354,1.108-1.936C630.246,111.287,630.999,109.999,630.999,109.999z
							"/>
					</g>
				</g>
			</g>
			<g opacity="0.3">
				<g>
					<g>
						<path fill="#FFFFFF" d="M697,412.999c0,0-1.05-0.496-2.948-1.393c-1.893-0.901-4.582-2.285-7.906-3.963
							c-6.548-3.352-15.589-7.979-25.577-13.092c-0.654-0.294-1.305-0.586-1.95-0.876c-0.649-0.327-1.295-0.651-1.935-0.973
							c-1.266-0.664-2.492-1.347-3.66-2.048c-2.355-1.391-4.521-2.823-6.572-4.189c-4.086-2.741-7.665-5.258-10.781-7.185
							c-3.106-1.939-5.742-3.32-7.651-4.109c-0.941-0.448-1.711-0.674-2.227-0.876c-0.519-0.193-0.792-0.295-0.792-0.295
							s0.29,0.017,0.841,0.05c0.55,0.047,1.384,0.054,2.424,0.246c2.109,0.276,5.131,1.021,8.691,2.372
							c3.566,1.336,7.633,3.296,12,5.569c2.157,1.129,4.423,2.314,6.771,3.542c1.163,0.608,2.346,1.195,3.544,1.778
							c0.6,0.285,1.205,0.572,1.814,0.861c0.634,0.278,1.271,0.558,1.913,0.84c10.421,5.258,18.812,11.318,24.717,15.934
							c2.952,2.304,5.243,4.297,6.839,5.656C696.129,412.232,697,412.999,697,412.999z"/>
					</g>
				</g>
			</g>
			<g opacity="0.3">
				<g>
					<g>
						<path fill="#FFFFFF" d="M571.999,385c0,0-0.156,1.152-0.453,3.345c-0.077,0.549-0.163,1.163-0.258,1.84
							c-0.124,0.672-0.259,1.408-0.405,2.205c-0.147,0.798-0.307,1.657-0.476,2.575c-0.203,0.912-0.42,1.882-0.649,2.91
							c-0.906,4.118-2.262,9.1-3.986,14.825c-1.706,5.731-3.811,12.199-5.832,19.388c-1.026,3.592-1.949,7.379-2.804,11.333
							c-0.749,3.968-1.493,8.103-1.758,12.407c-0.227,2.148-0.196,4.336-0.24,6.553c-0.005,2.246,0.054,4.592,0.076,6.938
							c0.054,4.707,0.109,9.551,0.166,14.52c0.091,9.925,0.187,20.345,0.286,31.146c0.033,2.698,0.003,5.425,0.081,8.165
							c0.064,2.74,0.129,5.502,0.194,8.285c0.114,5.565,0.232,11.213,0.349,16.928c0.005,2.863,0.253,5.68,0.37,8.493
							c0.144,2.81,0.286,5.602,0.427,8.374c0.137,2.773,0.271,5.524,0.405,8.254c0.065,1.365,0.13,2.726,0.195,4.079l0.095,2.027
							l0.189,2.002c1.059,10.727,1.941,21.242,1.994,31.297c0.036,5.03-0.158,9.96-0.668,14.745
							c-0.516,4.783-1.34,9.426-2.735,13.823c-1.411,4.419-3.49,8.363-5.719,11.895c-1.06,1.816-2.298,3.447-3.425,5.102
							c-1.207,1.593-2.383,3.154-3.598,4.619c-4.866,5.862-9.817,10.645-14.416,14.523c-4.612,3.864-8.848,6.868-12.512,8.984
							c-0.89,0.569-1.776,1.03-2.607,1.465c-0.83,0.434-1.596,0.857-2.324,1.216c-1.492,0.65-2.733,1.237-3.768,1.637
							c-2.095,0.723-3.194,1.102-3.194,1.102s1.066-0.458,3.096-1.331c0.997-0.471,2.19-1.144,3.616-1.883
							c0.696-0.404,1.426-0.876,2.217-1.358c0.79-0.483,1.632-0.994,2.476-1.615c3.473-2.317,7.463-5.539,11.774-9.592
							c4.297-4.066,8.897-9.02,13.351-14.946c1.111-1.48,2.178-3.048,3.272-4.639c1.011-1.645,2.137-3.27,3.067-5.044
							c1.992-3.481,3.763-7.239,4.881-11.285c1.12-4.071,1.752-8.491,2.09-13.072c0.336-4.588,0.381-9.356,0.21-14.255
							c-0.322-9.812-1.404-20.078-2.628-30.843l-0.221-2.039l-0.125-2.047c-0.082-1.368-0.165-2.741-0.248-4.12
							c-0.162-2.759-0.325-5.54-0.49-8.342c-0.159-2.802-0.319-5.624-0.481-8.466c-0.13-2.841-0.385-5.706-0.39-8.576
							c-0.097-5.747-0.192-11.425-0.286-17.021c-0.039-2.799-0.078-5.576-0.116-8.331c-0.047-2.756,0.019-5.481,0.025-8.188
							c0.094-10.816,0.184-21.266,0.373-31.186c0.095-4.964,0.187-9.804,0.275-14.507c0.056-2.359,0.077-4.651,0.165-6.968
							c0.127-2.344,0.188-4.653,0.509-6.893c1.011-9.005,3.361-17.054,5.741-24.216c2.396-7.171,4.844-13.511,6.867-19.116
							c2.041-5.598,3.69-10.451,4.856-14.475c0.294-1.006,0.573-1.956,0.834-2.847c0.23-0.9,0.445-1.741,0.645-2.523
							c0.201-0.782,0.386-1.504,0.556-2.165c0.143-0.667,0.271-1.27,0.387-1.81C571.759,386.136,571.999,385,571.999,385z"/>
					</g>
				</g>
			</g>
			<g opacity="0.3">
				<g>
					<g>
						<path fill="#FFFFFF" d="M543,344c0,0-0.633-0.227-1.838-0.66c-1.209-0.42-2.954-1.126-5.28-1.81
							c-4.6-1.485-11.367-3.322-19.876-4.444c-4.249-0.623-8.927-0.944-13.939-1.135c-5.096-0.05-10.544-0.147-16.295-0.322
							c-11.486-0.337-24.088-0.931-37.288-1.558c-13.2-0.63-25.754-1.185-37.175-1.41c-11.42-0.236-21.705-0.141-30.349,0.159
							c-2.159,0.11-4.215,0.214-6.16,0.313c-1.947,0.096-3.787,0.174-5.497,0.335c-3.423,0.301-6.396,0.439-8.8,0.736
							c-4.832,0.512-7.503,0.794-7.503,0.794s2.622-0.603,7.363-1.694c2.372-0.567,5.314-1.024,8.719-1.666
							c1.702-0.333,3.535-0.586,5.479-0.863c1.947-0.271,4.004-0.558,6.165-0.859c8.661-1.033,19.035-1.861,30.566-2.171
							c11.53-0.322,24.208-0.126,37.465,0.506c13.26,0.63,25.845,1.587,37.276,2.469c5.724,0.442,11.162,0.861,16.253,1.254
							c5.16,0.54,9.951,1.244,14.23,2.243c8.6,1.88,15.249,4.455,19.688,6.461c2.248,0.947,3.91,1.865,5.058,2.432
							C542.402,343.693,543,344,543,344z"/>
					</g>
				</g>
			</g>
			<g opacity="0.3">
				<g>
					<g>
						<path fill="#FFFFFF" d="M583.083,448.587c0,0,0.341-1.163,0.989-3.377c0.327-1.103,0.732-2.468,1.211-4.08
							c0.241-0.804,0.501-1.67,0.778-2.597c0.139-0.462,0.282-0.939,0.431-1.432c0.125-0.499,0.255-1.014,0.389-1.543
							c2.209-8.433,5.142-20.694,7.148-36.021c2.009-15.316,2.945-33.695,1.68-53.93c-0.787-10.104-1.821-20.692-3.848-31.523
							c-0.229-1.357-0.46-2.719-0.691-4.088c-0.284-1.359-0.57-2.724-0.857-4.094c-0.592-2.736-1.128-5.507-1.762-8.277
							c-1.403-5.511-2.696-11.133-4.419-16.716c-1.515-5.642-3.477-11.076-5.201-16.499c-1.849-5.251-3.958-10.306-6.318-15.137
							c-4.683-9.686-10.555-18.327-16.899-25.979c-6.413-7.605-13.34-14.196-20.303-19.851
							c-6.951-5.678-13.903-10.457-20.428-14.581c-13.073-8.237-24.392-13.895-32.185-17.814c-3.909-1.946-6.969-3.422-9.044-4.422
							c-2.075-1.002-3.165-1.528-3.165-1.528s1.153,0.366,3.351,1.062c2.195,0.705,5.429,1.76,9.566,3.21
							c8.255,2.933,20.227,7.27,34.352,14.425c7.051,3.587,14.638,7.895,22.349,13.289c7.716,5.37,15.534,11.874,22.866,19.692
							c7.263,7.86,14.07,17.023,19.478,27.439c2.724,5.19,5.144,10.657,7.232,16.325c1.881,5.608,3.958,11.248,5.54,17.122
							c1.789,5.812,3.098,11.681,4.469,17.439c0.618,2.895,1.127,5.792,1.681,8.654c0.265,1.434,0.55,2.857,0.79,4.282
							c0.204,1.432,0.407,2.857,0.609,4.277c1.784,11.329,2.405,22.401,2.661,32.91c0.205,21.059-2.263,39.922-5.767,55.334
							c-3.51,15.435-7.898,27.441-11.16,35.582c-0.199,0.511-0.394,1.007-0.582,1.488c-0.211,0.474-0.416,0.933-0.614,1.378
							c-0.398,0.888-0.77,1.719-1.115,2.49c-0.693,1.538-1.28,2.84-1.754,3.892C583.585,447.485,583.083,448.587,583.083,448.587z"
							/>
					</g>
				</g>
			</g>
			<g>
				<path opacity="0.3" enable-background="new    " d="M546,443.849c0.017-0.59,0.019-1.176,0.011-1.758
					C545.981,442.685,545.969,443.273,546,443.849z"/>
				<path opacity="0.3" enable-background="new    " d="M537.013,361.376C512.68,343.364,477.818,346.005,448,346
					c-16.064-0.002-31.953-1.5-48.5-1.5c-16.786,0-33.271-0.5-50-0.5c-13.991,0-29.206-1.292-42.799,1.128
					c-6.679-4.668-7.061-15.81,3.196-17.351c-9.807-11.649-25.008-17.804-33.619-31.055c-21.18-32.591-30.445-100.112-0.702-132.902
					c-2.395,0.555-4.793,0.998-7.182,1.306c-8.385,1.083-17.292,0.174-24.093-5.269c-6.295-5.038-9.555-12.94-14.794-18.932
					c-0.752-0.859-5.089-6.283-6.731-5.177c-1.816,1.224-2.062,4.673-2.163,6.626c-0.434,8.446,1.192,16.773,2.694,25.041
					c1.306,7.183,3.335,16.21,0.383,23.216c-3.446,8.178-10.795,11.844-17.199,17.442C198.459,215.094,194,219,184.5,226
					c-11.5-7-29.383-16.689-39.297-24.378c-10.493-8.138-20.709-16.536-31.517-24.257c-7.066-5.048-14.753-10.846-23.21-13.254
					c-1.524-0.434-9.452-0.528-9.976,1.89c-0.77,3.553,3.75,6.37,4.864,9.711c3.115,9.346,10.48,18.648,14.136,27.789
					c5.03,12.575,11,21.5,16.895,34.96C124.187,249.642,131.5,276,142.5,287.5c-10,23.5-11.665,42.78-10.5,71
					c0.532,12.879,5.606,28.135-0.332,40.174C122.5,407,114.385,417.808,106,425.5c-6.521,5.984-11.48,10.421-17.686,16.751
					C85.396,445.228,71.361,454.588,75.5,458c3.579,2.952,18.044,0.067,22.5,0.5c6.034,0.584,9.951-0.141,16-0.5
					c12.477-0.74,24.524,0.22,37-0.5c2.389-0.138,4.727,1.775,5.304,4.038c6.98,27.379,32.103,45.321,44.158,70.125
					c5.022,10.332,9.431,21.003,13.15,31.895l-1.011,2.022c0,37.967-2.98,78.449,24.37,107.624
					c17.656,18.834,43.462,27.935,69.081,31.487c12.626,3.922,25.49,7.176,38.348,10.055c23.928,5.356,48.543,6.43,73.01,5.642
					c6.232-0.201,12.52-0.516,18.665-1.639c5.345-0.977,10.522-2.674,15.878-3.549c5.331-0.872,10.753-1.403,16.049-2.386
					c-4.718-5.91-11.964-11.281-17.347-16.443c-15.139,5.842-33.21,2.455-48.956,2.648c-11.139,0.136-22.614,0.792-33.595-1.52
					c-8.091-1.705-13.875-6.08-15.33-14.551c-1.29-7.515,0.825-14.949,0.296-22.461c-0.523-7.432-5.638-16.467-1.082-23.625
					c5.041-7.918,14.049-4.732,21.756-3.986c7.741,0.749,15.552,0.108,23.348-0.243c-1.573-1.33-3.171-2.633-4.821-3.88
					c-15.158-11.457-33.083-18.247-49.276-27.989c-15.046-9.052-26.386-22.438-37.903-35.414
					c-11.925-13.435-25.589-25.828-34.077-41.893c-18.799-35.582-24.002-79.215-7.596-116.708
					c5.941-13.578,13.386-27.236,26.176-35.455c15.505-9.963,35.152-11.112,53.054-11.375c44.403-0.651,89.152,0.613,133.352,5.081
					c14.94,1.51,31.015,2.859,42.124,14.375c9.719,10.074,15.848,24.26,21.251,37.139c3.468,8.264,6.511,16.487,6.636,25.577
					c0.328-6.513,4.043-14.062,5.462-20.118c1.763-7.524,2.027-15.183,2.027-23.473C553.5,381.8,550.862,371.628,537.013,361.376z
					 M265.836,585.672c6.474,6.192,12.46,12.931,19.752,18.204c9.968,7.209,21.389,11.883,31.451,18.837
					c9.922,6.858,13.221,14.023,14.627,25.954c0.781,6.625,1.157,14.343,0.667,21c-0.393,5.336,0.715,11.806-1.569,16.729
					c-4.341,9.356-14.337,7.701-21.9,3.603c-6.572-3.562-13.068-7.136-19.364-10.948c-14.901-10.609-28.19-23.217-33.771-39.605
					c-6.576-19.314-0.869-42.459,0.369-61.865c0.031-0.49,0.062-0.969,0.093-1.439C259.165,579.669,262.849,582.815,265.836,585.672
					z"/>
			</g>
		</g>
	</g>
</g>
</svg>
