<?xml version="1.0" encoding="utf-8"?>
<!-- Generator: Adobe Illustrator 25.0.1, SVG Export Plug-In . SVG Version: 6.00 Build 0)  -->
<svg version="1.1" id="Capa_1" xmlns="http://www.w3.org/2000/svg" xmlns:xlink="http://www.w3.org/1999/xlink" x="0px" y="0px"
	 viewBox="0 0 800 800" enable-background="new 0 0 800 800" xml:space="preserve">
<g id="pelo">
	<g id="Capa_80">
		<g>
			<g>
				<path fill="#FFFFFF" d="M529,559.667c17.667-36,21.333-56.579,21.333-94.334c0-22.362-5.055-41.072-4.999-62.999
					c-2-24-4.338-41.78-6.334-62.667c-1.717-17.954-6.964-40.314-14.667-56.333c-6.948-14.451-18.881-28.512-31.35-38.502
					c-28.65-27.165-60.067-35.498-99.983-35.498c-10.594,0-17.182,0.341-27,2.667c-9.4,2.226-19.934,3.422-29,5.667
					c-18.144,4.49-33.333,13.667-50.13,25.502c-15.262,12.386-27.352,22.982-33.889,41.479
					c-6.626,18.75-13.796,35.855-16.663,55.353C229,379.333,225.737,421.449,230,464c2.07,20.668,6.981,39.264,12.333,59.333
					c4.848,18.179,14.857,36.104,25.333,52.667c4.809,7.604,7.67,17.08,15.333,22c7.539,4.84,17.996,17.644,26,21.333
					c7.806,3.597,9.335,5.273,16.817,9.168c8.332,4.338,17.418,7.289,25.886,10.129c18.798,6.305,42.573,5.775,63.294,2.701
					C432.88,638.678,449.333,633,467,623.333c6.808-1.965,12.183-3.689,17.498-9.168c4.566-4.706,10.176-10.951,14.835-15.499
					c7.253-7.078,13.334-13,22.001-23.666"/>
				<g>
					<g>
						<g>
							<path d="M536.666,322c0,0-0.471-1.151-1.392-3.397c-0.885-2.26-2.052-5.681-3.434-10.211
								c-1.394-4.523-2.909-10.195-5.297-16.681c-0.275-0.82-0.622-1.628-0.983-2.447c-0.354-0.822-0.715-1.659-1.083-2.511
								c-0.875-1.642-1.78-3.341-2.717-5.098c-0.475-0.874-0.925-1.781-1.444-2.667c-0.523-0.884-1.055-1.781-1.596-2.692
								c-1.101-1.81-2.136-3.734-3.415-5.581c-4.826-7.557-10.819-15.61-18.521-23.343c-7.685-7.727-17.113-15.087-28.321-21.092
								c-0.698-0.378-1.386-0.784-2.103-1.142c-0.725-0.341-1.453-0.683-2.185-1.026c-1.463-0.687-2.938-1.38-4.424-2.079
								c-1.518-0.63-3.068-1.216-4.619-1.834c-1.555-0.607-3.106-1.263-4.737-1.741c-1.614-0.521-3.242-1.046-4.882-1.576
								c-0.815-0.283-1.648-0.51-2.493-0.715c-0.841-0.216-1.685-0.433-2.532-0.651c-1.7-0.411-3.389-0.929-5.133-1.263
								c-1.743-0.342-3.498-0.686-5.267-1.033c-0.886-0.163-1.767-0.37-2.664-0.5c-0.899-0.123-1.802-0.247-2.707-0.371
								c-1.811-0.249-3.634-0.499-5.47-0.751c-1.843-0.191-3.705-0.323-5.576-0.49c-1.873-0.143-3.753-0.367-5.658-0.39
								c-3.806-0.121-7.658-0.341-11.565-0.212c-1.952,0.037-3.918,0.021-5.893,0.101c-1.974,0.116-3.959,0.233-5.956,0.351
								c-0.999,0.06-2,0.121-3.004,0.181c-1.001,0.105-2.005,0.21-3.011,0.315c-2.014,0.21-4.039,0.422-6.075,0.635
								c-2.025,0.301-4.062,0.604-6.111,0.908c-1.023,0.154-2.05,0.309-3.08,0.463c-1.029,0.154-2.048,0.391-3.077,0.583
								c-2.054,0.405-4.119,0.812-6.195,1.222c-2.067,0.448-4.124,0.997-6.203,1.495c-1.038,0.255-2.079,0.511-3.123,0.767
								c-1.044,0.254-2.067,0.598-3.105,0.894c-2.071,0.614-4.152,1.23-6.244,1.851c-2.06,0.717-4.129,1.438-6.21,2.163
								c-1.038,0.369-2.086,0.718-3.122,1.105c-1.024,0.419-2.051,0.839-3.08,1.26c-2.048,0.862-4.147,1.639-6.181,2.583
								c-2.028,0.96-4.065,1.923-6.111,2.892c-8.067,4.095-16.03,8.805-23.459,14.489c-7.314,5.802-14.029,12.611-19.887,20.284
								c-5.862,7.671-10.893,16.171-15.054,25.241c-8.301,18.184-13.386,38.333-16.853,59.196c-0.414,2.615-0.878,5.23-1.23,7.87
								c-0.188,1.318-0.376,2.638-0.565,3.959l-0.282,1.984l-0.204,1.998c-0.545,5.331-1.094,10.693-1.646,16.086
								c-0.331,5.414-0.665,10.858-1.001,16.332l-0.126,2.054l-0.044,2.06c-0.027,1.375-0.054,2.752-0.08,4.13
								c-0.054,2.757-0.108,5.521-0.162,8.292c-0.138,22.166,1.345,44.824,4.975,67.561c0.461,2.841,0.924,5.688,1.388,8.541
								c0.2,1.434,0.542,2.838,0.84,4.253l0.916,4.247c0.611,2.834,1.223,5.674,1.837,8.521l0.46,2.136l0.585,2.102l1.174,4.209
								c3.233,11.22,7.22,22.335,12.091,33.136c4.873,10.796,10.637,21.289,17.458,31.148c6.831,9.844,14.749,19.033,23.794,27.074
								c9.017,8.052,19.148,14.761,29.801,20.117c10.694,5.283,22.088,8.948,33.659,11.214c23.179,4.503,46.98,3.59,69.26-1.549
								c5.575-1.286,11.06-2.864,16.403-4.697c5.332-1.872,10.483-4.159,15.524-6.637c10.057-4.987,19.463-11.031,28.015-17.952
								c17.143-13.833,30.714-31.155,40.491-49.791c4.893-9.321,8.943-18.977,12.009-28.736c0.363-1.229,0.726-2.455,1.088-3.679
								c0.366-1.224,0.741-2.442,0.996-3.692c0.572-2.483,1.142-4.956,1.71-7.421c0.43-2.496,0.858-4.983,1.285-7.46
								c0.237-1.235,0.392-2.482,0.531-3.729c0.15-1.245,0.3-2.488,0.449-3.728c2.278-19.888,1.498-39.456,0.165-58.26
								c-0.708-9.412-1.55-18.659-2.396-27.745c-0.406-4.545-0.81-9.048-1.208-13.508c-0.189-2.23-0.375-4.449-0.562-6.657
								c-0.207-2.207-0.413-4.403-0.618-6.588c-1.531-17.513-2.516-34.322-4.641-50.223c-1.039-7.95-2.379-15.662-4.067-23.087
								c-1.72-7.417-3.849-14.532-6.451-21.245c-2.635-6.698-5.783-12.97-9.424-18.682c-3.616-5.737-7.838-10.79-12.328-15.29
								c-8.97-9.083-17.446-17.421-25.942-24.277c-8.445-6.917-17.098-12.04-25.351-15.531c-1.04-0.417-2.065-0.828-3.076-1.234
								c-1.012-0.404-2-0.829-3.019-1.119c-2.018-0.64-3.974-1.26-5.869-1.861c-3.866-0.931-7.464-1.901-10.89-2.396
								c-1.706-0.277-3.333-0.631-4.918-0.814c-1.585-0.181-3.104-0.355-4.553-0.521c-2.897-0.391-5.542-0.506-7.903-0.65
								c-4.722-0.367-8.335-0.306-10.761-0.364c-2.427-0.036-3.67-0.054-3.67-0.054s1.243,0.003,3.67,0.01
								c2.427,0.029,6.041-0.073,10.77,0.241c2.365,0.119,5.016,0.204,7.92,0.564c1.455,0.15,2.978,0.308,4.567,0.472
								c1.59,0.166,3.226,0.503,4.938,0.763c3.441,0.461,7.061,1.395,10.955,2.29c1.91,0.584,3.884,1.188,5.917,1.809
								c1.028,0.282,2.025,0.699,3.047,1.095c1.022,0.397,2.058,0.801,3.108,1.21c8.34,3.427,17.117,8.509,25.678,15.385
								c8.611,6.815,17.193,15.105,26.252,24.114c4.57,4.499,8.921,9.612,12.635,15.396c3.744,5.765,6.991,12.1,9.715,18.861
								c2.691,6.775,4.9,13.953,6.695,21.425c1.764,7.48,3.173,15.24,4.278,23.227c2.258,15.975,3.365,32.824,5.011,50.273
								c0.22,2.183,0.44,4.377,0.663,6.582c0.201,2.208,0.402,4.427,0.606,6.656c0.428,4.455,0.859,8.952,1.296,13.492
								c0.905,9.077,1.806,18.337,2.573,27.778c1.45,18.869,2.358,38.589,0.152,58.793c-0.146,1.261-0.291,2.523-0.437,3.788
								c-0.137,1.267-0.287,2.533-0.521,3.792c-0.422,2.524-0.846,5.058-1.271,7.6c-0.566,2.517-1.135,5.042-1.706,7.576
								c-0.254,1.274-0.631,2.521-0.998,3.773c-0.364,1.253-0.729,2.508-1.094,3.765c-3.095,10.014-7.159,19.82-12.104,29.343
								c-9.879,19.027-23.673,36.789-41.171,51.005c-8.728,7.112-18.341,13.331-28.619,18.464
								c-5.142,2.546-10.439,4.914-15.914,6.852c-5.498,1.902-11.093,3.525-16.787,4.854c-22.756,5.3-47.053,6.286-70.839,1.697
								c-11.873-2.311-23.599-6.064-34.641-11.512c-10.988-5.515-21.374-12.395-30.668-20.688
								c-9.301-8.27-17.415-17.7-24.393-27.768c-6.968-10.083-12.832-20.786-17.776-31.775c-4.943-10.996-8.97-22.277-12.232-33.676
								l-1.187-4.286l-0.591-2.141l-0.463-2.163c-0.616-2.884-1.231-5.762-1.845-8.633l-0.919-4.303
								c-0.299-1.435-0.642-2.859-0.84-4.307c-0.462-2.883-0.924-5.76-1.384-8.631c-3.613-22.975-5.042-45.834-4.829-68.179
								c0.064-2.793,0.128-5.579,0.191-8.357c0.032-1.389,0.064-2.776,0.096-4.161l0.053-2.077l0.134-2.07
								c0.358-5.515,0.715-11.001,1.069-16.455c0.578-5.437,1.152-10.843,1.724-16.217l0.214-2.014l0.293-2.001
								c0.196-1.333,0.392-2.664,0.587-3.993c0.367-2.662,0.845-5.296,1.274-7.931c3.587-21.021,8.823-41.418,17.378-59.906
								c4.288-9.22,9.475-17.885,15.521-25.706c6.043-7.823,12.965-14.763,20.505-20.668c7.638-5.772,15.763-10.506,23.983-14.612
								c2.083-0.97,4.157-1.935,6.221-2.894c2.071-0.943,4.202-1.718,6.284-2.578c1.045-0.419,2.088-0.838,3.129-1.255
								c1.052-0.385,2.115-0.732,3.168-1.099c2.111-0.719,4.211-1.435,6.301-2.146c2.12-0.613,4.23-1.223,6.329-1.829
								c1.053-0.292,2.089-0.631,3.147-0.881c1.057-0.252,2.111-0.503,3.162-0.754c2.105-0.488,4.188-1.028,6.28-1.466
								c2.101-0.399,4.189-0.796,6.268-1.191c1.04-0.187,2.071-0.417,3.112-0.566c1.041-0.149,2.079-0.297,3.114-0.446
								c2.071-0.292,4.129-0.582,6.177-0.871c2.058-0.2,4.104-0.399,6.138-0.596c1.017-0.099,2.031-0.197,3.042-0.295
								c1.014-0.053,2.026-0.107,3.034-0.16c2.017-0.104,4.021-0.206,6.014-0.308c1.994-0.066,3.978-0.035,5.949-0.057
								c3.942-0.099,7.831,0.152,11.67,0.305c1.921,0.04,3.818,0.279,5.708,0.439c1.888,0.183,3.766,0.332,5.624,0.54
								c1.853,0.27,3.691,0.537,5.519,0.803c0.913,0.133,1.823,0.265,2.729,0.397c0.905,0.139,1.796,0.354,2.689,0.527
								c14.277,2.792,27.444,7.262,38.667,13.531c11.271,6.169,20.717,13.686,28.381,21.542
								c7.683,7.861,13.624,16.015,18.391,23.649c1.266,1.866,2.285,3.808,3.37,5.634c0.532,0.919,1.057,1.825,1.572,2.717
								c0.512,0.895,0.953,1.809,1.422,2.69c0.92,1.771,1.811,3.485,2.67,5.141c0.361,0.863,0.717,1.71,1.065,2.542
								c0.355,0.83,0.695,1.647,0.963,2.472c2.327,6.537,3.777,12.221,5.121,16.759c1.33,4.542,2.456,7.974,3.314,10.243
								C536.209,320.844,536.666,322,536.666,322z"/>
						</g>
					</g>
				</g>
				<path d="M415.666,230.667c-8.182,0.169-15.387,14.451-4.666,16c9.947,1.438,14.663-15.549,4-16.667"/>
				<path d="M413.666,264.667c-9.054-1.561-13.793,16.249-4,17.333c10.639,1.178,12.07-12.399,4-16.667"/>
				<path d="M474.333,274c-9.216-0.763-19.771,11.496-6.667,14c13.058,2.496,16.845-13.909,5.334-14"/>
				<path d="M459.666,305.333c-2.337-9.094-15.596,1.84-14.55,9.217c7.213,2.915,17.966-3.27,16.434-11.768
					c-1.178-0.578-2.612-1.363-3.884-1.449"/>
				<path d="M413,370.667c18.779-11.778,42.557-29.554,50.034-51.098c0.409,5.842-1.597,8.926-5.302,12.962
					c9.926-1.35,22.071-12.463,25.263-20.631c-4.514,30.047-42.018,52.261-68.662,57.433"/>
				<path d="M363.667,372c-21.695-1.788-49.265-29.815-53.852-51.132c-0.463,6.188-0.832,12.27,2.919,17.196
					c-5.892-5.885-13.835-12.311-15.065-20.532c-0.021,18.565,7.477,31.553,22.847,42.285c6.658,4.648,13.956,7.955,21.299,10.701
					c5.681,2.124,22.787,6.433,27.852,2.148"/>
				<path d="M405,305.333c-5.54-6.687-14.535,15.51-4.682,17.349c4.762,0.889,7.32-5.654,8.013-9.351
					c1.175-6.273-0.814-8.848-5.998-11.331"/>
				<path d="M429,313.333c-9.532-0.829-19.104,17.31-8.683,20.016c6.17,1.602,8.25-6.017,9.2-10.164
					c1.439-6.28,0.309-8.417-4.518-11.852"/>
				<path d="M392.333,354c-6.159-1.239-11.54-1.592-14,6c-1.864,5.75,0.28,14.172,5.982,16.685
					c13.432,5.919,21.494-18.749,7.351-22.018"/>
				<path d="M364.333,332.667c-0.016-4.657,0.412-10.55-3.501-13.832c-5.189-4.354-9.381-2.519-9.832,3.832
					c-0.742,10.449,16.163,21.946,14,7.333"/>
				<path d="M335.667,312c-5.876-0.981-10.967-1.463-10.667,6c0.159,3.944,3.221,9.507,7.318,10.682
					c6.15,1.765,9.591-4.017,8.698-9.349c-0.965-5.758-5.254-6.852-9.349-9.333"/>
				<path d="M299.667,301.333c-5.944,7.779,5.652,12.035,12.035,10.701c7.39-1.545,11.354-7.157,10.632-14.701
					c-1.766-18.446-32.798-4.904-26.667,8"/>
				<path d="M285,272.667c-8.25-0.946-20.033,11.663-9.349,15.349c3.37,1.162,9.624-2.539,11.201-5.349
					c2.962-5.278-0.987-8.782-4.519-12"/>
				<path d="M343.667,238.667c-11.128-2.242-19.628,20.463-4.667,19.998c5.461-0.17,8.782-4.083,9.333-9.331
					c0.814-7.752-4.51-8.778-9.333-12.667"/>
				<path d="M350.333,274.667c-9.113-2.171-15.922,18.827-3.998,19.998c13.547,1.33,12.119-17.36,1.331-19.998"/>
				<path d="M305,351.333c-10.802-3.976-22.819,9.483-11.185,13.185c9.386,2.986,19.423-9.61,9.852-15.852"/>
				<path d="M269,337.333c-7.072,0.693-27.825,12.47-14.682,18.518c14.439,6.646,24.251-19.785,14.682-19.185"/>
				<path d="M432.333,457.667c-14.484-8.17-20.883-37.379-8.832-49.499c12.307-12.376,31.502-19.198,47.462-23.205
					c9.817-2.464,18.887-2.574,25.852,4.889c6.409,6.867,9.043,16.989,3.684,25.315c-2.501,3.887-6.033,6.426-8.649,10.016
					c-2.574,3.533-3.818,7.552-6.017,11.316c-4.018,6.881-11.239,12.781-18.018,16.684c-10.383,5.979-28.722,10.826-40.148,4.484"/>
				<path d="M340.558,451.667c13.968-8.17,20.139-37.379,8.518-49.499c-11.868-12.376-30.379-19.198-45.771-23.205
					c-9.467-2.464-18.213-2.574-24.93,4.889c-6.181,6.867-8.721,16.989-3.552,25.315c2.412,3.887,5.818,6.426,8.341,10.016
					c2.482,3.533,3.682,7.552,5.802,11.316c3.875,6.881,10.839,12.781,17.376,16.684c10.013,5.979,27.698,10.826,38.718,4.484"/>
				<path d="M507.666,352c0.123-4.068,2.167-10.356,0.183-14.183c-1.872-3.609-9.032-6.007-12.363-2.501
					c-5.756,6.059,5.608,19.055,12.064,18.567c0.428-0.866,0.65-1.629,0.783-2.55"/>
				<path d="M472.333,360.667c-1.704,1.335-7.838,4.902-8.03,7.297c-0.386,4.818,6.233,5.695,9.363,4.702
					c8.58-2.722,11.279-16.091-0.666-13.999"/>
				<path d="M525.666,419.333c-6.156,2.225-10.203,19.552-1.331,19.998c10.835,0.545,6.583-15.339,0.665-18.664"/>
				<path d="M506.333,441.333c-6.151,0.491-10.696,8.016-9.884,13.884c10.04,4.797,18.393-8.686,8.551-15.217"/>
				<path d="M517.666,468c-9.435,4.543-18.243,19.705-2.682,22.683c15.082,2.886,11.11-18.625,1.349-22.683"/>
				<path d="M464.333,532c-5.217-0.516-12.203,2.663-9.349,9.349c2.187,5.121,10.346,3.244,14.83,2.8
					c4.898-0.485,13.415-2.389,8.368-9.479c-3.123-4.387-11.677-2.669-16.517-2.669"/>
				<path d="M481,506.667c3.989,0.255,13.629-5.298,13.328-10c-0.459-7.176-11.344-5.261-15.345-2.832
					c-3.758,2.281-9.833,7.232-8.648,12.163c1.629,6.777,9.677,5.027,13.331,0.669"/>
				<path d="M475.666,480.667c3.793-0.602,11.936-5.885,12.519-10.148c1.118-8.175-9.48-6.426-14.353-4.353
					c-4.18,1.778-11.486,7.096-10.2,12.535c1.466,6.204,11.452,7.017,15.368,3.299"/>
				<path d="M447,514c-18.983-0.01-6.277,13.563,5.899,11.232c0.335-3.601-0.925-8.964-4.566-10.565"/>
				<path d="M423,512.667c1.995-8.372-12.716-16.092-17.184-6.519c-2.157,4.624-0.908,9.498,3.686,11.349
					c4.807,1.936,8.909-1.505,13.382-2.946c0.125-1.287,0.463-3.256,0.116-4.551"/>
				<path d="M383.667,498c-8.657-4.865-9.639,11.334,0.002,12.665c12.598,1.738,5.998-11.454-1.336-13.998"/>
				<path d="M362.333,506c-3.421,0.011-10.089-0.935-12.664,1.335c-3.61,3.184-2.37,8.38,1.183,10.811
					c8.158,5.581,18.555-7.027,6.148-12.146"/>
				<path d="M323,522.667c-11.569,6.343,0.603,16.152,9.466,10.849c12.286-7.352-1.802-13.167-10.133-12.183"/>
				<path d="M310.333,536c-3.749,4.531-2.543,21.065,6.181,13.498c7.365-6.389-5.683-11.998-10.181-13.498"/>
				<path d="M304.333,558c-9.876-1.334-15.637,13.904-4.664,15.331c4.986,0.647,9.539-2.578,8.664-7.998
					c-0.757-4.691-5.853-5.986-10-7.333"/>
				<path d="M483,553.333c-4.804,0-12.234-1.279-15.332,2.669c-3.035,3.871-1.5,10.678,2.164,13.165
					c8.339,5.66,23.21-4.042,13.168-12.5"/>
				<path d="M494.333,578.667c-10.535-1.931-3.638,20.82,7.498,11.514c11.284-9.432-7.497-13.517-13.498-13.514"/>
				<path d="M289,583.333c-5.744,2.96-4.859,17.21,4,15.998c10.683-1.462,3.369-14.734-5.333-13.998"/>
				<path d="M306.333,513.333c-4.695,0.006-9.118-0.037-9.333,5.334c-0.178,4.46,3.329,6.335,7.201,6.581
					c1.091-3.498,2.271-6.121,2.018-9.801c-0.93,0.082-0.799-0.391-1.219-0.78"/>
				<path d="M293.667,491.333c-6.292-2.053-15.665,3.097-9.831,10.534c5.724,7.295,12.102-3.186,9.164-8.534"/>
				<path d="M261.667,494c-8.866-0.756-13.059,15.035-2,15.998c11.82,1.028,8.53-11.704,0-14.665"/>
				<path d="M279,454c-10.667-2.222-16.905,17.668-2.667,18c12.28,0.286,12.865-16.151,0.667-17.333"/>
				<path d="M251.666,445.333c-7.92-4.277-7.784,11.812,0.002,13.998c11.179,3.137,14.192-13.432,1.998-12.664"/>
				<g>
					<g>
						<g>
							<path d="M389.332,470c0,0-0.264,1.01-0.846,2.871c-0.247,0.959-0.765,2.02-1.358,3.291c-0.545,1.311-1.424,2.627-2.384,4.132
								c-0.46,0.778-1.064,1.46-1.652,2.229c-0.616,0.741-1.193,1.58-1.947,2.312c-0.73,0.748-1.478,1.558-2.298,2.319
								c-0.845,0.729-1.715,1.479-2.607,2.247c-3.677,2.926-8.088,5.54-12.794,7.774c-2.36,1.111-4.647,2.111-6.902,3.021
								c-1.155,0.457-2.29,0.899-3.41,1.312c-1.139,0.376-2.255,0.745-3.343,1.104c-4.398,1.339-8.511,2.072-11.96,2.438
								c-3.465,0.328-6.266,0.308-8.189,0.193c-1.927-0.131-2.976-0.247-2.976-0.247s1.012-0.368,2.812-0.956
								c1.798-0.602,4.362-1.531,7.429-2.762c3.061-1.273,6.616-2.854,10.484-4.766c0.965-0.483,1.954-0.979,2.963-1.486
								c1.008-0.519,2.037-1.048,3.084-1.587c2.142-1.092,4.389-2.206,6.664-3.278c4.548-2.16,8.781-4.142,12.466-6.192
								c0.907-0.531,1.791-1.05,2.65-1.554c0.847-0.519,1.627-1.069,2.422-1.571c0.811-0.48,1.491-1.091,2.212-1.601
								c0.694-0.538,1.432-1.009,2.01-1.556c1.209-1.056,2.398-1.978,3.257-2.945c0.911-0.931,1.764-1.721,2.311-2.474
								C388.618,470.821,389.332,470,389.332,470z"/>
						</g>
					</g>
				</g>
				<g>
					<g>
						<g>
							<path d="M450.333,497.666c0,0-0.998,0.13-2.801,0.289c-0.901,0.081-2.003,0.17-3.288,0.221
								c-1.285,0.05-2.746,0.138-4.376,0.09c-3.216,0.03-7.305-0.414-11.378-1.165c-4.146-0.734-8.759-1.703-13.524-3.443
								c-1.188-0.469-2.356-0.929-3.498-1.431c-1.132-0.557-2.249-1.099-3.319-1.681c-1.041-0.634-2.077-1.278-3.039-1.899
								c-0.896-0.607-1.775-1.2-2.632-1.779c-3.514-2.398-6.681-5.002-8.841-7.678c-2.21-2.642-3.314-5.263-3.794-7.047
								c-0.115-0.454-0.217-0.851-0.291-1.195c-0.05-0.353-0.092-0.649-0.126-0.891c-0.06-0.474-0.09-0.723-0.09-0.723
								s0.139,0.209,0.404,0.608c0.128,0.196,0.286,0.439,0.473,0.727c0.207,0.269,0.446,0.579,0.715,0.93
								c1.09,1.369,2.823,3.126,5.334,4.728c2.483,1.645,5.7,3.14,9.466,4.85c0.936,0.43,1.913,0.884,2.957,1.393
								c0.952,0.443,1.876,0.877,2.826,1.346c0.977,0.41,1.969,0.826,2.977,1.249c1.037,0.395,2.089,0.795,3.152,1.2
								c4.31,1.577,8.603,2.975,12.539,4.404c1.955,0.697,3.847,1.476,5.509,2.027c0.848,0.293,1.655,0.614,2.462,0.88
								c0.814,0.263,1.593,0.515,2.338,0.756c3.034,0.979,5.49,1.77,7.188,2.317C449.387,497.312,450.333,497.666,450.333,497.666z"
								/>
						</g>
					</g>
				</g>
				<path d="M361,494.334c8.533-0.196,23.853-6.712,26.544-15.55c1.909,1.358,3.554,3.234,5.538,4.476
					c2.606,1.631,5.389,2.777,8.252,3.823c5.508,2.014,11.432,4.715,17.566,4.25c-5.667-1.005-12.05-6.104-16.818-9.073
					c-4.799-2.989-11.998-6.89-12.756-13.158c0.17,5.171-6.233,9.996-10.002,12.816c-4.597,3.44-8.824,8.093-13.99,10.749"/>
				<path opacity="0.3" enable-background="new    " d="M420.334,464.667c-1.403-9.06-8.821-17.862-10.685-27.315
					c-1.991-10.103-2.032-20.846,2.166-30.521c8.099-18.663,29.094-26.165,47.222-28.794c16.617-2.411,42.968-6.145,52.796,11.797
					c4.056,7.402,2.754,21.884-2.001,28.331c-6.05,8.202-13.402,10.367-17.662,20.354c-5.391,12.641-13.83,21.163-27.315,24.669
					c-11.493,2.988-32.263,7.036-43.854,2.147"/>
				<path opacity="0.3" enable-background="new    " d="M285,373.334c20.065,0,36.145-0.222,52.852,9.814
					c15.808,9.497,27.583,24.589,28.481,42.852c1.062,21.575-6.681,38.147-29.333,39.334c-18.368,0.963-38.202-3.065-50.168-17.833
					c-4.783-5.902-8.801-12.111-11.813-18.853c-3.529-7.896-8.286-13.592-12.537-20.797c-4.631-7.848-3.311-16.996,1.188-24.516
					c5.267-8.804,10.535-10.669,20.664-10.669"/>
			</g>
			<path d="M485,244c-7.846-1.668-15.5,10.889-8.801,15.801c9.68,7.097,14.216-9.91,11.801-15.801"/>
			<path opacity="0.3" fill-rule="evenodd" clip-rule="evenodd" enable-background="new    " d="M549.666,466
				c0.828,4.312,3.151,7.854,4.686,11.98c1.785,4.798,1.564,9.226,2.13,14.537c1.02,9.578,4.487,19.388,1.036,29.482
				c-2.704,7.909-8.595,13.943-14.354,20.165c-4.907,5.301-9.829,14.634-15.498,18.501c-0.302,0.206-1.042,1.383-1.362,1.767
				c1.26-6.77,6.811-13.176,9.863-19.266c3.582-7.146,6.662-14.767,8.184-22.483c3.388-17.183,3.982-34.536,3.982-53.351"/>
			<path opacity="0.3" fill-rule="evenodd" clip-rule="evenodd" enable-background="new    " d="M229.665,453.332
				c-11.072,8.501-14.407,42.699-8.833,54.833c6.119,13.319,13.884,32.387,27.685,40.981c1.817,1.132,3.665,2.264,5.68,2.786
				c0.787-4.312-2.82-7.157-4.512-10.619c-1.699-3.478-1.977-7.708-3.334-11.334c-2.826-7.552-6.056-15.156-8.165-23.169
				c-4.396-16.701-3.905-35.643-8.521-52.145"/>
			<path opacity="0.3" fill-rule="evenodd" clip-rule="evenodd" enable-background="new    " d="M466.998,623.998
				c-3.66,1.089-5.363,7.253-7.817,10.183c-2.585,3.087-5.899,5.901-9.016,8.317c-6.761,5.238-14.02,11.197-21.667,15
				c-16.232,8.071-38.452,13.955-56.185,6.519c-16.764-7.029-33.642-19.048-43.748-34.732c4.494,0.251,7.727,4.466,11.751,6.029
				c4.502,1.749,14.597,4.458,19.349,4.685c10.761,0.512,15.14,1.588,26,2c20.549,0.78,41.686-2.219,60.148-8.517
				c6.824-2.329,14.16-3.566,19.185-9.483"/>
		</g>
	</g>
</g>
</svg>
