<?xml version="1.0" encoding="utf-8"?>
<!-- Generator: Adobe Illustrator 25.0.1, SVG Export Plug-In . SVG Version: 6.00 Build 0)  -->
<svg version="1.1" id="Capa_1" xmlns="http://www.w3.org/2000/svg" xmlns:xlink="http://www.w3.org/1999/xlink" x="0px" y="0px"
	 viewBox="0 0 800 800" enable-background="new 0 0 800 800" xml:space="preserve">
<g id="pelo">
	<g id="Capa_75">
		<path fill-rule="evenodd" clip-rule="evenodd" d="M535.123,272.82c0.629-1.616,1.261-3.358,1.877-5.177v-27.386
			c-0.586,0.122-1.195,0.286-1.849,0.592c0.998-8.107-0.945-17.18,1.207-25.277c-2.211-3.629-2.733-7.779-2.358-12.269
			c-0.2,1.087-0.128,2.505-0.199,3.595c-1.887-1.821-2.846-4.325-3.815-6.897h-14.549c0.088,1.02,0.088,2.061,0.359,2.9
			c-1.785-0.84-3.48-1.909-5.194-2.9h-8.085c-0.143,0.443-0.258,0.795-0.271,0.927c-0.107-0.285-0.23-0.604-0.354-0.927h-2.641
			c-1.274,0.739-2.562,1.085-3.877,2.094c0.261-0.694,0.353-1.393,0.381-2.094h-11.134c-0.074,0.031-0.151,0.063-0.225,0.094
			c0.011-0.031,0.015-0.063,0.024-0.094h-15.043c-0.647,0.338-1.269,0.443-1.958,0h-7.73c-1.894,0.656-3.828,1.531-5.689,4.096
			c-1.065-1.344-2.893-2.747-4.328-4.096h-3.062c-0.659,0.789-1.325,1.554-1.609,2.12c-0.68-0.913-1.205-1.288-1.741-2.12h-1.285
			c-2.343,2.286-5.177,2.588-7.531,0h-1.382c-0.77,0.786-1.693,1.444-2.231,2.822c0.066,0.012-2.932,0.259-2.658,0
			c-0.054-0.99-0.35-1.899-0.653-2.822h-4.492c-2.094,1.362-4.263,1.667-5.383,0h-6.416c-0.359,0.299-0.708,0.591-1.027,0.869
			c-0.281-0.312-0.466-0.593-0.612-0.869h-4.527c-0.759,0.273-1.449,0.538-1.908,0.872c-0.058-0.297-0.09-0.587-0.108-0.872h-12.37
			c-1.703,2.571-3.434,2.437-5.281,0h-1.25c-0.639,0.844-1.482,1.887-1.143,1.104c-0.002-0.368,0.019-0.736,0.033-1.104h-7.608
			c-0.157,0.353-0.304,0.727-0.425,1.143c-0.27-0.472-0.479-0.792-0.652-1.143h-2.858c-0.151,0.058-0.319,0.102-0.515,0.123
			c-0.2,0.024-0.363-0.035-0.513-0.123h-2.996c-0.45,0.407-0.925,0.781-1.466,1.12c-0.096-0.286-0.309-0.677-0.573-1.12h-12.931
			c0.051,0.648,0.141,1.278,0.328,1.874c-0.752-0.566-1.474-1.201-2.17-1.874h-8.372c-0.358,0.3-0.716,0.59-1.06,0.874
			c-0.041-0.31-0.11-0.596-0.189-0.874h-6.602c-0.487,0.305-0.927,0.597-1.259,0.872c0.004-0.279-0.022-0.576-0.045-0.872h-16.516
			c-0.018,0.001-0.037,0-0.055,0H302.33c-0.428,0.284-0.817,0.577-1.126,0.897c0.021-0.288,0.021-0.589,0.01-0.897H266.86
			c-1.25,0.627-2.491,1.227-3.685,1.872c0.062-0.58,0.02-1.217-0.054-1.872h-7.58c-3.411,0.73-7.147,0.682-10.389,0.849
			c0.028-0.271,0.034-0.557,0.031-0.849h-4.376c-1.436,3.17-2.744,6.642-4.188,9.741c-0.222,0.645-0.423,1.293-0.618,1.942V361h3.17
			c3.48-7.86,8.48-15.76,8-24.92c3.1,2.04,3.561,7.43,2.96,12.06c2.89-9.3,5.02-16.7,4.82-28.79c1.42,3.39,1.18,7.41,1.05,11.35
			c1.31-8.1,5.57-18.67,11.07-25.33c-1.85,3.79-3.301,7.86-3.07,12.33c2.15-12.2,12.05-24.95,17.27-36.47
			c7.371-16.26,15.75-17.25,33.73-17.23c33.189,0.04,66.32-0.41,99,1.22c23.26,1.16,45.99,3.93,66.8,11.63
			c0.4-2.26,1.92-4.51,2.22-6.7c0.461,1.65,1.761,3.18,2.23,4.7c0.75-0.49,1.68-1.3,2.5-1.7c6.64,11.62,5.56,24.33,16.32,34.5
			c-1.28-4.37-2.78-7.89-3.12-12.35c8.58,15.94,18.47,28.47,22.05,46.4c0-1.71,0.07-3.58,0.13-5.5c2.58,8.52,7.87,16.37,9.5,24.8
			H537v-88.939C536.384,272.333,535.761,272.591,535.123,272.82z"/>
		<path fill="none" d="M239,371c0.203-8.979,4.639-16.866,6-26c1.262-8.468-0.081-19.342,5.052-26.646
			c-0.025,2.409,0.169,4.948-0.052,7.344c-0.389-7.612,2.853-17.825,6.052-24.344c-0.268,1.381-1.149,5.165-1.045,4.792
			c1.04-5.53,2.413-10.48,4.02-15.847c0.143,0.847,0.045,1.753,0.199,2.628c4.67-8.55,4.42-19.75,8.551-27.847
			c-0.104,2.487,0.463,5.352,0.449,7.844c8.054-12.653,12.894-18.074,25.571-26.821c0.104,1.219,0.325,2.543,0.354,3.769
			c5.445-2.229,7.47-4.22,13.849-4.869c5.942-0.604,9.517,1.619,15.801,0.093c0.237,0.951,0.197,1.819,0.37,2.779
			c6.71-3.836,18.401-1.905,24.555-1.605c7.463,0.364,20.296,3.669,26.277-2.39c6.076,7.973,32.324-5.61,32.17,9.988
			c2.637-2.671,5.867-6.81,10.822-7.417c1.085,1.767,4.216,3.508,5.004,5.644c2.347-2.046,5.08-3.984,6.801-6.771
			c0.142,1.093,0.332,2.389,0.347,3.52c0.013,0.001,3.46,0.026,2.876-0.423c0.741,0.249,1.038,1.375,1.977,1.674
			c1.138-0.289,1.153-1.212,2.028-1.73c-0.143,0.501-0.096,0.99,0.143,1.468c8.666-0.827,9.256,0.511,15.829,6.262
			c0.684-2.008,2.029-2.07,2.004-5.242c1.076,2.89,5.96,9.474,8.745,13.043c2.034-3.774,2.53-7.66,2.255-12.043
			c0.652,3.951,6.789,7.347,10.8,2.246c0.295,0.967,0.126,1.849,0.393,2.824c0.573-1.805,2.933-5.175,3.607-6.821
			c1.02,6.13,7.373,11.364,10.471,16.824c0.795-2.418,2.068-4.488,1.925-7.847c6.579,5.756,9.767,13.591,13.774,21.066
			c3.274-3.361,3.55-9.06,3.026-13.844c-0.174,3.459,0.836,4.347,1.777,6.572c0.183-0.729,1.622-4.052,1.196-2.997
			c6.25,14.19,4.163,29.852,5.226,46.02c3.311-2.357,4.315-6.318,3.801-10.595c0,10.372,1.475,20.735,1.199,30.618
			c1.781-2.706,2.595-3.375,2.805-7.066c5.004,9.978,3.995,31.017,0.799,43.018c-4.299-2.141-7.271-12.208-10.556-17.068
			c-4.687-6.936-9.668-11.586-16.224-16.779c-12.643-10.012-25.053-20.1-39.222-28.024c-29.22-16.341-73.772-19.987-104.749-9
			c-20.531,7.282-39.331,22.734-55.299,37.752C283.999,354.508,268.738,376.971,244,377"/>
		<path opacity="0.3" fill-rule="evenodd" clip-rule="evenodd" enable-background="new    " d="M270,297
			c8.537-30.391,58.097-23,82-23c32.219,0,65.153-0.4,95.223,5.777c27.72,5.696,39.472,19.546,55.829,42.869
			c-0.487-2.902,0.69-5.898,0.952-7.792c7.167,12.159,17.967,24.129,28.044,34.795c-0.699-12.627-7.253-27.69-11.02-39.678
			c-4.446-14.154-8.151-29.401-13.806-43.19c-11.676-28.472-58.31-30.23-86.275-31.559C384.273,233.48,271.96,217.333,275,277"/>
		<g opacity="0.3">
			<g>
				<g>
					<path fill="#FFFFFF" d="M246,214c0,0,0.243,5.94,0.485,15.545c0.121,4.802,0.243,10.521,0.334,16.871
						c0.035,3.175,0.072,6.508,0.11,9.964c0.027,3.455,0.023,7.038,0.113,10.679c0.137,7.297,0.53,14.271,0.641,20.635
						c0.173,6.36,0.02,12.109-0.309,16.918c-0.042,1.204-0.184,2.345-0.319,3.424c-0.13,1.078-0.253,2.094-0.368,3.044
						c-0.177,1.906-0.551,3.517-0.826,4.835C245.307,318.545,245,320,245,320s0.2-1.472,0.562-4.134
						c0.185-1.328,0.452-2.944,0.515-4.852c0.06-0.949,0.124-1.964,0.192-3.041c0.075-1.075,0.156-2.209,0.136-3.409
						c0.083-4.787-0.005-10.482-0.359-16.814c-0.292-6.329-0.806-13.296-0.945-20.656c-0.091-3.687-0.057-7.26-0.03-10.715
						c0.038-3.456,0.075-6.789,0.11-9.964c0.091-6.35,0.212-12.069,0.334-16.871C245.757,219.94,246,214,246,214z"/>
				</g>
			</g>
		</g>
		<g opacity="0.3">
			<g>
				<g>
					<path fill="#FFFFFF" d="M254,210c0,0,0.333,3.85,0.723,10.095c0.505,6.245,0.569,14.888,0.497,24.435
						c-0.298,9.537-0.774,18.163-1.314,24.39C253.403,275.151,253,279,253,279s-0.082-3.87-0.064-10.119
						c0.056-6.25,0.046-14.875,0.343-24.393c0.072-9.516,0.493-18.131,0.474-24.372C253.848,213.874,254,210,254,210z"/>
				</g>
			</g>
		</g>
		<g opacity="0.3">
			<g>
				<g>
					<path fill="#FFFFFF" d="M262,219c0,0,0.752,8.29,0.48,18.539C262.2,247.729,261,256,261,256s-0.742-8.292-0.46-18.539
						C260.81,227.273,262,219,262,219z"/>
				</g>
			</g>
		</g>
		<g opacity="0.3">
			<g>
				<g>
					<path fill="#FFFFFF" d="M264,220c0,0,0.253,1.294,0.535,3.372c0.29,2.081,0.661,4.951,0.682,8.176
						c-0.002,3.227-0.431,6.171-1.032,8.223c-0.245,1.034-0.638,1.828-0.833,2.382C263.125,242.697,263,243,263,243
						s0.021-0.329,0.057-0.921c0.018-0.594,0.168-1.419,0.169-2.464c0.11-2.073,0.045-4.908,0.048-8.061
						c-0.021-3.156,0.095-6.059,0.29-8.158C263.768,221.292,263.999,220,264,220z"/>
				</g>
			</g>
		</g>
		<g opacity="0.3">
			<g>
				<g>
					<path fill="#FFFFFF" d="M271,212c0,0,0.198,0.719,0.556,2.019c0.174,0.654,0.386,1.453,0.632,2.381
						c0.239,0.931,0.543,1.988,0.735,3.181c0.984,4.74,1.834,11.406,2.051,18.785c0.171,7.378-0.167,14.033-0.445,18.845
						c-0.275,4.811-0.53,7.789-0.53,7.789s-0.23-2.978-0.441-7.797c-0.207-4.817-0.356-11.467-0.525-18.783
						c-0.216-7.313-0.572-13.913-1.069-18.69c-0.071-1.202-0.254-2.271-0.38-3.217c-0.126-0.947-0.236-1.763-0.325-2.431
						C271.092,212.742,271,212,271,212z"/>
				</g>
			</g>
		</g>
		<g opacity="0.3">
			<g>
				<g>
					<path fill="#FFFFFF" d="M279,207c0,0,0.971,7.61,0.971,17S279,241,279,241s-0.971-7.61-0.971-17S279,207,279,207z"/>
				</g>
			</g>
		</g>
		<g opacity="0.3">
			<g>
				<g>
					<path fill="#FFFFFF" d="M283,210c0,0,0.11,1.044,0.145,2.681c-0.022,1.63,0.12,3.88-0.048,6.337
						c-0.059,2.473-0.373,4.708-0.602,6.342C282.246,226.99,282,228,282,228s-0.239-1.01-0.477-2.646
						c-0.256-1.632-0.428-3.908-0.367-6.418c0.171-2.516,0.518-4.777,1.025-6.375C282.632,210.959,283,210,283,210z"/>
				</g>
			</g>
		</g>
		<g opacity="0.3">
			<g>
				<g>
					<path fill="#FFFFFF" d="M288,210c0,0,0.072,1.098,0.043,2.841c-0.054,1.742-0.1,4.133-0.449,6.733
						c-0.232,2.604-0.756,4.939-1.006,6.647C286.282,227.928,286,229,286,229s-0.204-1.067-0.382-2.818
						c-0.234-1.758-0.191-4.175,0.047-6.83c0.353-2.635,0.884-4.99,1.419-6.659C287.594,211.017,288,210,288,210z"/>
				</g>
			</g>
		</g>
		<g opacity="0.3">
			<g>
				<g>
					<path fill="#FFFFFF" d="M293,211c0,0,0.109,0.883,0.144,2.251c-0.021,1.36,0.121,3.234-0.047,5.271
						c-0.059,2.056-0.372,3.913-0.602,5.277C292.246,225.157,292,226,292,226s-0.239-0.842-0.477-2.208
						c-0.255-1.362-0.428-3.267-0.366-5.368c0.171-2.107,0.521-3.996,1.026-5.316C292.634,211.782,293,211,293,211z"/>
				</g>
			</g>
		</g>
		<g opacity="0.3">
			<g>
				<g>
					<path fill="#FFFFFF" d="M301,211c0,0,0.971,2.015,0.971,4.5S301,220,301,220s-0.971-2.015-0.971-4.5S301,211,301,211z"/>
				</g>
			</g>
		</g>
		<g opacity="0.3">
			<g>
				<g>
					<path fill="#FFFFFF" d="M518,209c0,0-10.468-0.047-27.392-0.123c-4.227-0.04-8.856-0.083-13.826-0.129
						c-1.242-0.014-2.506-0.028-3.789-0.042c-1.285,0.022-2.591,0.045-3.915,0.068c-2.649,0.042-5.377,0.086-8.173,0.131
						c-11.186,0.17-23.483,0.317-36.394,0.408C372.868,209.676,331,209,331,209s41.849-1.266,93.498-1.629
						c12.913-0.091,25.216-0.117,36.404-0.105c2.797,0.005,5.525,0.011,8.175,0.016c1.325,0.004,2.631,0.008,3.916,0.013
						c1.286,0.042,2.552,0.085,3.797,0.126c4.977,0.174,9.611,0.337,13.844,0.486C507.542,208.582,518,209,518,209z"/>
				</g>
			</g>
		</g>
		<g opacity="0.3">
			<g>
				<g>
					<path fill="#FFFFFF" d="M513,213c0,0,0.071,0.867,0.2,2.435c0.098,1.569,0.347,3.846,0.411,6.663
						c0.166,5.635,0,13.441-0.74,21.996c-0.734,8.551-1.622,16.248-2.127,21.839C510.284,271.532,510,275,510,275
						s-0.035-0.87-0.097-2.441c-0.032-1.572-0.18-3.857-0.13-6.672c0.022-5.637,0.429-13.415,1.162-21.954
						c0.738-8.536,1.385-16.241,1.705-21.845C512.862,216.475,513,213,513,213z"/>
				</g>
			</g>
		</g>
		<g opacity="0.3">
			<g>
				<g>
					<path fill="#FFFFFF" d="M508,221c0,0-0.022,0.398-0.062,1.115c-0.031,0.718-0.151,1.739-0.209,3.01
						c-0.13,2.533-0.309,6.019-0.506,9.867c-0.187,3.851-0.474,7.35-0.729,9.892C506.239,247.425,506,249,506,249
						s-0.246-1.573-0.477-4.122c-0.229-2.547-0.429-6.081-0.239-9.99c0.216-3.91,0.849-7.424,1.486-9.915
						c0.3-1.249,0.66-2.235,0.871-2.919C507.872,221.376,508,221,508,221z"/>
				</g>
			</g>
		</g>
		<g opacity="0.3">
			<g>
				<g>
					<path fill="#FFFFFF" d="M499,221c0,0,0.13,0.212,0.364,0.593c0.122,0.193,0.248,0.438,0.373,0.733
						c0.135,0.293,0.281,0.633,0.399,1.019c0.539,1.54,0.849,3.778,0.834,6.155c-0.013,2.377-0.192,4.457-0.151,5.986
						c-0.006,0.386,0.019,0.73,0.039,1.036c0.011,0.309,0.031,0.576,0.065,0.79C500.973,237.754,501,238,501,238
						s-0.131-0.212-0.364-0.592c-0.123-0.193-0.248-0.439-0.373-0.734c-0.135-0.293-0.282-0.633-0.399-1.019
						c-0.539-1.54-0.849-3.778-0.834-6.155c0.013-2.377,0.192-4.457,0.151-5.986c0.005-0.386-0.019-0.73-0.039-1.036
						c-0.012-0.309-0.032-0.576-0.066-0.79C499.027,221.246,499,221,499,221z"/>
				</g>
			</g>
		</g>
	</g>
</g>
</svg>
