<?xml version="1.0" encoding="utf-8"?>
<!-- Generator: Adobe Illustrator 25.0.1, SVG Export Plug-In . SVG Version: 6.00 Build 0)  -->
<svg version="1.1" id="Capa_1" xmlns="http://www.w3.org/2000/svg" xmlns:xlink="http://www.w3.org/1999/xlink" x="0px" y="0px"
	 viewBox="0 0 800 800" enable-background="new 0 0 800 800" xml:space="preserve">
<g id="pelo">
	<g id="Capa_101">
		<g>
			<path opacity="0.3" enable-background="new    " d="M267,390.999c0.573-9.465,4.712-18.781,6.63-28.037
				c1.824-8.802,4.183-17.936,9.537-25.944c11.483-17.174,26.152-23.227,44.462-28.056c40.064-10.565,87.03-5.191,127.405,0.668
				c15.472,2.246,35.31,12.382,44.798,25.869c11.114,15.799,12.501,36.854,12.501,56.166c0,20.217,0.453,39.342,10.166,56.5
				c9.104,16.08,31.167,33.5,6.501,76.166c-1.186,2.05,17.333-23.9,17.335-21.532c3.608-17.689,19.373-38.996,7.496-57.819
				c-9.789-15.515-23.641-32.92-28.017-50.648c-4.844-19.624-3.95-42.6-4.963-63.265c-0.633-12.923-1.971-25.557-3.22-38.217
				c-1.022-10.348-0.392-22-12.114-25.037c-26.683-6.913-56.984-6.148-85.002-6.148c-26.213,0-53.054-1.276-78.852,1.336
				c-10.062,1.018-21.65,0.213-29.148,7.479c-7.424,7.194-14.749,15.529-22.185,23.019c-14.896,15.003-21.177,31.519-25.978,50.833
				c-1.915,7.702-2.611,15.617-4.539,23.331c-1.652,6.607-4.254,13.979-3.479,21.336"/>
			<g>
				<g>
					<path fill="#E54CCF" d="M223.001,270.335c1.268,9.288-7.678,20.185-2.667,28.667c4.491,7.601,18.784,6.311,25.854,3.185
						c10.79-4.771,7.129-14.824,11.963-23.852c5.178-9.669,13.851-18.265,21.55-26.016c4.743-4.774,20.661-15.316,18.5-23.185
						c-0.734-2.671-5.83-7.379-7.201-10.133c-1.403-2.819-3.439-9.399-6.502-10.832c-6.607-3.089-20.987,15.967-26.795,20.313
						c-8.455,6.326-16.582,11.801-22.852,20.484C230.639,254.8,229.36,260.769,227,267"/>
					<path fill="#E54CCF" d="M531.668,206.335c-10.284,0-21.182-4.279-27.499,3.833c-7.539,9.68-1.43,18.068,3.699,27.35
						c10.226,18.505,17.86,38.896,24.612,58.671c1.907,5.587,1.579,8.089,7.869,8.828c4.352,0.511,11.299-0.85,16.019-1.314
						c7.303-0.718,23.678-2.873,28.797-9.203c5.146-6.364-4.903-23.586-6.668-30.982c-2.753-11.537-4.037-21.244-12.164-30.352
						c-9.359-10.491-21.541-19.051-33.333-26.83"/>
					<g>
						<g>
							<g>
								<g>
									<path d="M554.614,463.814c0,0,0.15,0.661,0.438,1.92c0.274,1.263,0.655,3.131,1.032,5.568c0.366,2.438,0.707,5.45,0.751,9
										c0.018,3.54-0.211,7.661-1.509,12.105c-0.592,2.232-1.572,4.497-2.812,6.756c-0.338,0.553-0.679,1.11-1.022,1.673
										c-0.357,0.555-0.777,1.062-1.173,1.604l-0.607,0.804l-0.602,0.744c-0.406,0.496-0.8,1.005-1.23,1.503
										c-3.373,4.041-7.287,7.961-10.775,12.245c-1.736,2.146-3.344,4.397-4.66,6.812c-1.317,2.399-2.344,5.031-2.984,7.712
										c-0.588,2.697-0.852,5.54-0.444,8.076c0.362,2.562,1.546,4.786,3.36,6.869c1.809,2.085,4.256,3.894,6.825,5.573
										c1.293,0.838,2.622,1.646,3.96,2.443c0.685,0.397,1.366,0.794,2.044,1.188c0.644,0.374,1.188,0.67,1.816,0.973
										c2.49,1.183,5.351,2.081,8.189,2.958c2.856,0.875,5.739,1.711,8.567,2.704c2.824,0.986,5.607,2.122,8.214,3.625
										c1.3,0.758,2.556,1.601,3.719,2.574c1.156,0.984,2.214,2.093,3.108,3.314c0.908,1.214,1.579,2.568,2.091,3.94
										c0.118,0.35,0.243,0.697,0.348,1.043l0.234,1.028c0.177,0.675,0.222,1.373,0.322,2.046
										c0.249,2.746-0.265,5.477-1.292,7.696c-1.001,2.243-2.358,4.024-3.643,5.59c-1.301,1.558-2.568,2.913-3.687,4.205
										c-2.252,2.555-3.811,4.973-4.431,7.239c-0.611,2.257-0.448,4.173-0.223,5.417c0.081,0.637,0.243,1.101,0.311,1.424
										c0.08,0.321,0.121,0.485,0.121,0.485s-0.067-0.155-0.2-0.458c-0.12-0.308-0.359-0.747-0.542-1.372
										c-0.423-1.219-0.917-3.162-0.606-5.728c0.31-2.565,1.703-5.512,3.696-8.431c1.924-2.937,4.514-6.037,5.739-9.725
										c0.611-1.832,0.747-3.773,0.382-5.761c-0.411-2.033-1.221-3.917-2.627-5.509c-2.769-3.233-7.618-5.162-12.935-6.665
										c-2.677-0.763-5.523-1.426-8.489-2.184c-2.972-0.776-6.073-1.58-9.321-2.982c-0.802-0.35-1.659-0.784-2.396-1.188
										c-0.702-0.384-1.408-0.77-2.116-1.156c-1.43-0.804-2.871-1.64-4.318-2.544c-2.876-1.825-5.848-3.901-8.44-6.848
										l-0.949-1.121c-0.307-0.384-0.577-0.814-0.863-1.22c-0.595-0.798-1.044-1.715-1.51-2.608
										c-0.448-0.9-0.767-1.873-1.102-2.815c-0.216-0.97-0.532-1.939-0.624-2.906c-0.538-3.903-0.042-7.533,0.81-10.933
										c0.933-3.406,2.318-6.522,4.043-9.352c1.716-2.822,3.715-5.302,5.749-7.526c4.096-4.438,8.246-8.003,11.773-11.576
										c0.449-0.44,0.877-0.904,1.312-1.349l0.646-0.669l0.577-0.639c0.375-0.429,0.785-0.832,1.128-1.271
										c0.334-0.445,0.665-0.888,0.993-1.324c1.228-1.812,2.293-3.68,3.027-5.612c1.584-3.824,2.272-7.649,2.676-11.018
										c0.385-3.384,0.457-6.357,0.44-8.788c-0.026-2.433-0.117-4.33-0.19-5.615C554.656,464.489,554.614,463.814,554.614,463.814
										z"/>
								</g>
							</g>
						</g>
						<g>
							<g>
								<g>
									<path d="M265.997,411.162c0,0-0.232,0.127-0.686,0.376c-0.455,0.243-1.13,0.609-1.979,1.148
										c-1.707,1.056-4.145,2.752-6.948,5.304c-2.779,2.568-5.936,5.993-8.891,10.438c-2.943,4.425-5.745,9.896-7.279,16.278
										c-0.774,3.181-1.121,6.592-0.942,10.065c0.24,3.464,1.027,7.001,2.698,10.274c1.689,3.275,3.994,6.357,6.924,9.096
										c2.902,2.76,6.387,5.149,10.131,7.316c3.633,2.115,8.156,4.018,12.344,7.134c2.091,1.562,4.172,3.438,5.839,5.927
										c1.688,2.453,2.733,5.675,2.705,8.822c-0.041,0.772-0.066,1.559-0.151,2.324l-0.436,2.232
										c-0.419,1.4-0.847,2.777-1.478,4.134c-1.241,2.727-3.038,5.132-5,7.168c-3.959,4.078-8.493,7.006-12.678,9.975
										c-2.094,1.478-4.094,2.94-5.829,4.479c-1.741,1.533-3.191,3.154-4.052,4.835c-0.878,1.676-1.258,3.385-1.062,5.28
										c0.184,1.883,0.804,3.89,1.782,5.845c1.023,1.973,2.162,4.061,3.401,5.897c1.256,1.881,2.68,3.72,4.127,5.646
										c1.442,1.926,2.908,3.948,4.164,6.185c1.258,2.229,2.27,4.69,2.835,7.226c1.179,5.104,0.544,10.164-0.858,14.614
										c-0.7,2.24-1.667,4.324-2.74,6.286c-1.078,1.961-2.3,3.789-3.651,5.46c-2.673,3.369-5.796,6.149-9.164,8.318
										c-3.415,2.133-6.963,3.528-10.47,4.391c-3.503,0.852-6.994,1.172-10.289,0.753c-0.823-0.071-1.628-0.276-2.419-0.436
										c-0.788-0.238-1.567-0.437-2.305-0.772c-1.451-0.627-2.727-1.41-3.889-2.272c-2.289-1.732-4.183-3.851-4.975-6.369
										c-0.403-1.243-0.392-2.593-0.109-3.706c0.266-1.134,0.761-2.181,1.45-2.965c1.376-1.58,3.033-2.357,4.431-2.869
										c1.417-0.507,2.646-0.779,3.64-0.974c1.99-0.376,3.04-0.501,3.04-0.501s-1.035,0.24-2.963,0.81
										c-0.96,0.29-2.143,0.682-3.452,1.297c-1.294,0.611-2.751,1.514-3.775,2.943c-0.517,0.711-0.825,1.581-0.962,2.522
										c-0.147,0.961-0.066,1.923,0.331,2.878c0.776,1.911,2.538,3.641,4.682,4.997c1.077,0.674,2.27,1.278,3.526,1.706
										c0.606,0.226,1.275,0.333,1.932,0.484c0.686,0.079,1.369,0.209,2.089,0.214c2.85,0.151,5.938-0.345,9.017-1.322
										c3.078-0.978,6.197-2.462,9.005-4.469c2.792-2.054,5.409-4.661,7.575-7.727c2.185-3.047,3.941-6.561,4.971-10.312
										c0.99-3.737,1.267-7.781,0.236-11.496c-0.958-3.74-3.311-7.142-6.244-10.769c-1.451-1.819-3.019-3.724-4.504-5.825
										c-1.515-2.138-2.776-4.314-4.061-6.685c-1.26-2.424-2.273-5.202-2.623-8.302c-0.102-0.766-0.072-1.578-0.097-2.369
										c0.056-0.801,0.124-1.615,0.263-2.415c0.196-0.789,0.323-1.611,0.634-2.36l0.425-1.144
										c0.164-0.366,0.349-0.718,0.527-1.076c1.459-2.866,3.534-5.092,5.635-6.977c2.116-1.894,4.319-3.497,6.488-5.031
										c4.329-3.046,8.514-5.793,11.685-9.016c1.579-1.606,2.848-3.305,3.712-5.128c0.446-0.909,0.767-1.918,1.093-2.883
										c0.094-0.473,0.196-0.941,0.307-1.41l0.118-1.365c0.037-1.784-0.42-3.432-1.42-5c-0.984-1.568-2.441-3.025-4.102-4.339
										c-3.351-2.68-7.387-4.562-11.488-7.126c-3.985-2.517-7.725-5.314-10.899-8.62c-3.196-3.272-5.771-7.062-7.542-11.053
										c-1.775-4.018-2.463-8.283-2.485-12.265c0.038-3.996,0.69-7.763,1.766-11.169c2.147-6.832,5.541-12.328,8.962-16.681
										c3.437-4.365,6.98-7.589,10.048-9.946c3.093-2.339,5.721-3.806,7.539-4.692c0.905-0.453,1.618-0.749,2.098-0.943
										C265.752,411.264,265.997,411.162,265.997,411.162z"/>
								</g>
							</g>
						</g>
						<path d="M264.561,574.857c0.726-5.127-7.125-10.722-8.03-15.901c-1.312-7.499,1.223-12.38,6.234-17.484
							c8.297-8.452,18.665-15.678,22.271-27.028c4.859-15.295-0.364-25.687-13.188-33.983c-8.744-5.656-24.71-10.621-27.494-21.806
							c-3.973-15.964,13.557-19.052,22.002-27.508c9.873-9.887,9.214-27.281,9.214-40.565c0-15.688,2.294-29.332,6.208-43.569
							c3.516-12.784,7.398-27.426,17.604-36.936c9.411-8.769,22.103-16.02,35.06-16.658c15.65-0.771,31.219-1.934,46.906-1.914
							c15.882,0.02,32.005,0.802,47.863,0c15.627-0.791,29.323,1.335,43.929,5.37c10.861,3,24.912,8.733,32.535,18.201
							c9.068,11.264,10.236,25.093,11.616,39.13c1.501,15.253,1.956,29.688,1.053,45.099c-0.81,13.824,3.852,26.918,12.445,37.6
							c8.427,10.474,16.871,17.509,18.188,31.218c1.435,14.924-0.204,29.299-9.213,41.16c-1.701,2.241-3.933,4.525-5.659,6.642
							c7.659-9.434,20.617-13.039,27.092-24.468c6.281-11.093,9.662-28.274,2.512-39.608c-6.805-10.784-19.238-16.263-24.769-28.358
							c-6.166-13.48-5.863-27.522-5.863-42.958c0-15.866,0.665-31.077,1.425-46.428c0.378-7.637,1.165-15.334,1.926-22.975
							c0.284-2.849,1.864-8.37,0.955-11.009c-1.053-3.058-5.436-4.098-8.588-4.89c-28.652-7.197-61.271-7.23-91.924-7.23
							c-33.185,0-66.371,0-99.556,0c-15.461,0-30.607,1.252-45.016,4.36c-14.236,3.07-27.372,5.267-40.063,13.572
							c-13.234,8.663-11.894,25.215-12.587,39.135c-0.726,14.597-2.128,32.474,3.375,45.506c2.63,6.227,6.286,10.325,11.127,15.202
							c5.689,5.73,4.192,10-0.957,15.556c-9.454,10.2-17.33,20.869-17.35,35.302c-0.02,14.054,13.586,20.766,23.838,27.403
							c4.51,2.918,11.515,6.458,14.093,11.25c3.277,6.091,2.654,14.315-2.393,19.381c-8.669,8.699-22.51,12.619-24.527,26.688
							c-0.982,6.845,3.979,12.79,6.818,18.546c2.101,4.259,5.312,13.018,9.932,14.957"/>
						<g>
							<g>
								<g>
									<path d="M239.194,293.898c0,0,0.393-0.899,1.141-2.61c0.753-1.708,1.807-4.25,3.157-7.529
										c1.362-3.274,2.976-7.306,5.115-11.898c0.512-1.158,1.11-2.327,1.717-3.54c0.584-1.222,1.271-2.453,1.988-3.72
										c1.384-2.563,3.276-5.03,5.266-7.556c4.074-5.039,9.283-9.828,15.141-14.584c3.001-2.363,6.146-4.528,9.086-7.024
										c1.455-1.248,2.902-2.54,4.128-3.97c1.225-1.42,2.282-2.964,2.836-4.552c0.068-0.199,0.149-0.395,0.211-0.594l0.107-0.609
										c0.034-0.205,0.085-0.398,0.113-0.613l0.06-0.664c0.036-0.841-0.049-1.625-0.296-2.257
										c-0.253-0.629-0.619-1.135-1.167-1.551c-0.554-0.406-1.27-0.735-2.104-0.93c-1.67-0.388-3.657-0.34-5.568,0.06
										c-0.958,0.198-1.905,0.48-2.794,0.841c-0.438,0.187-0.873,0.382-1.264,0.609c-0.141,0.083-0.1,0.046-0.18,0.111
										l-0.286,0.222l-0.636,0.491c-6.876,5.196-12.522,12.871-19.419,19.874c-1.578,1.765-3.146,3.519-4.705,5.262
										c-1.474,1.822-2.971,3.608-4.405,5.418c-1.35,1.867-2.737,3.692-4.038,5.549c-1.263,1.954-2.515,3.891-3.756,5.811
										c-5.251,7.475-10.282,14.589-14.183,21.817l-0.755,1.338c-0.119,0.219-0.267,0.453-0.36,0.658l-0.273,0.607
										c-0.089,0.203-0.19,0.4-0.272,0.606l-0.208,0.634l-0.212,0.632l-0.142,0.651c-0.388,1.729-0.442,3.523-0.135,5.18
										c0.305,1.656,0.989,3.165,2.017,4.254c1.021,1.1,2.387,1.758,3.908,2.016c1.533,0.182,3.219,0.028,4.718-0.372
										c1.449-0.486,2.837-1.117,3.84-2.236c1.03-1.068,1.893-2.34,2.486-3.776c0.645-1.399,1.093-2.901,1.487-4.39
										c0.769-2.994,1.261-5.979,1.95-8.809c0.36-1.416,0.756-2.802,1.297-4.08c0.269-0.637,0.534-1.264,0.794-1.88
										c0.131-0.308,0.26-0.612,0.388-0.915c0.162-0.286,0.322-0.569,0.481-0.85c2.478-4.538,5.386-7.84,7.696-10.527
										c2.337-2.671,4.152-4.736,5.323-6.188c1.159-1.463,1.768-2.231,1.768-2.231s-0.548,0.814-1.593,2.363
										c-1.061,1.54-2.73,3.741-4.878,6.56c-2.118,2.823-4.773,6.288-6.867,10.743c-0.136,0.275-0.272,0.553-0.411,0.833
										c-0.104,0.294-0.209,0.591-0.315,0.89c-0.212,0.597-0.428,1.203-0.647,1.819c-0.441,1.228-0.735,2.537-1.005,3.904
										c-0.514,2.754-0.846,5.759-1.492,8.946c-0.337,1.592-0.736,3.238-1.398,4.89c-0.6,1.661-1.564,3.319-2.869,4.788
										c-0.35,0.351-0.703,0.704-1.057,1.059c-0.411,0.293-0.825,0.587-1.24,0.882c-0.404,0.324-0.879,0.51-1.341,0.732
										c-0.469,0.192-0.924,0.485-1.418,0.588c-0.977,0.264-1.964,0.579-2.985,0.649c-1.001,0.184-2.079,0.115-3.156,0.074
										c-2.168-0.247-4.444-1.2-6.114-2.876c-1.684-1.658-2.72-3.838-3.211-6.058c-0.494-2.232-0.492-4.546-0.063-6.811
										l0.164-0.852l0.246-0.838l0.252-0.84c0.099-0.276,0.22-0.546,0.331-0.82l0.344-0.819c0.117-0.27,0.245-0.478,0.367-0.721
										l0.743-1.414c3.854-7.651,8.855-15.057,13.968-22.581c1.208-1.927,2.427-3.871,3.656-5.83
										c1.335-1.957,2.76-3.874,4.157-5.833c1.475-1.894,3.015-3.756,4.54-5.652c1.623-1.821,3.256-3.654,4.899-5.499
										c6.682-6.733,12.382-14.488,20.197-20.266l0.727-0.54l0.394-0.293c0.137-0.122,0.45-0.259,0.551-0.323
										c0.6-0.33,1.204-0.591,1.809-0.835c1.213-0.468,2.438-0.805,3.677-1.038c2.474-0.451,5.026-0.523,7.626,0.133
										c1.293,0.337,2.61,0.919,3.777,1.837c1.168,0.918,2.091,2.245,2.569,3.63c0.485,1.393,0.554,2.784,0.464,4.054
										l-0.104,0.916c-0.046,0.309-0.125,0.629-0.19,0.941l-0.21,0.938c-0.098,0.3-0.219,0.59-0.329,0.884
										c-0.911,2.347-2.34,4.208-3.821,5.828c-1.493,1.625-3.111,2.97-4.712,4.25c-3.21,2.536-6.509,4.627-9.452,6.763
										c-5.891,4.404-11.169,8.83-15.314,13.463c-2.046,2.348-3.977,4.598-5.44,6.989c-0.755,1.18-1.488,2.332-2.133,3.504
										c-0.664,1.157-1.319,2.272-1.894,3.387c-2.383,4.409-4.253,8.327-5.833,11.502c-1.569,3.181-2.807,5.646-3.686,7.294
										C239.655,293.032,239.194,293.898,239.194,293.898z"/>
								</g>
							</g>
						</g>
						<g>
							<g>
								<g>
									<path d="M538.343,269.009c0,0-0.305-1.062-0.885-3.085c-0.59-2.018-1.419-5.01-2.647-8.802
										c-1.268-3.769-2.826-8.408-5.453-13.354c-0.712-1.197-1.449-2.436-2.211-3.715c-0.887-1.181-1.775-2.438-2.731-3.647
										c-2.01-2.278-4.739-4.282-7.583-6.412c-2.852-2.141-5.944-4.34-8.834-7.23c-1.432-1.449-2.827-3.092-3.876-5.108
										c-1.052-1.986-1.721-4.434-1.391-6.967c0.165-1.227,0.551-2.567,1.416-3.763c0.851-1.208,2.212-2.088,3.549-2.467
										c1.345-0.404,2.664-0.461,3.917-0.389c1.256,0.077,2.463,0.294,3.634,0.59c2.342,0.595,4.576,1.458,6.752,2.499
										c1.088,0.521,2.161,1.087,3.223,1.71c1.067,0.645,2.103,1.258,3.184,2.167c7.709,6.629,12.527,15.774,18.063,24.13
										c0.719,1.093,1.44,2.191,2.165,3.294l1.088,1.659c0.374,0.548,0.723,1.113,1.037,1.699
										c1.287,2.322,2.688,4.631,3.901,7.022c1.197,2.39,2.484,4.8,3.625,7.226c1.177,2.393,2.308,4.964,3.544,7.169
										c2.574,4.65,5.537,9.303,7.731,14.43c1.095,2.564,2.028,5.254,2.482,8.142c0.449,2.876,0.368,5.996-0.78,8.944
										c-1.166,2.929-3.441,5.395-6.154,6.779c-2.704,1.408-5.629,1.866-8.391,1.81c-2.773-0.068-5.446-0.637-7.937-1.618
										c-2.482-0.994-4.82-2.385-6.755-4.348c-0.982-0.991-1.714-2.093-2.428-3.186c-0.311-0.576-0.619-1.15-0.928-1.722
										c-0.243-0.593-0.485-1.184-0.727-1.773c-0.854-2.384-1.288-4.784-1.545-7.109c-0.492-4.659-0.27-9.058-0.301-13.199
										c-0.015-2.062-0.049-4.099-0.279-5.977c-0.106-0.954-0.337-1.92-0.495-2.866c-0.088-0.475-0.174-0.948-0.261-1.418
										c-0.1-0.468-0.232-0.928-0.345-1.389c-0.829-3.716-2.164-7.133-3.551-10.336c-2.935-6.35-6.612-11.629-10.266-15.897
										c-3.644-4.286-7.147-7.687-10.069-10.394c-2.942-2.689-5.293-4.714-6.896-6.075c-1.607-1.357-2.452-2.07-2.452-2.07
										s0.892,0.654,2.588,1.898c1.691,1.253,4.17,3.123,7.283,5.644c3.095,2.54,6.816,5.757,10.753,9.92
										c3.942,4.144,8.002,9.375,11.361,15.863c1.597,3.271,3.148,6.804,4.18,10.67c0.139,0.48,0.296,0.958,0.421,1.448
										c0.111,0.494,0.224,0.99,0.336,1.489c0.21,1.005,0.484,1.99,0.644,3.044c0.343,2.135,0.447,4.234,0.541,6.367
										c0.177,4.249,0.118,8.565,0.704,12.801c0.298,2.108,0.752,4.189,1.506,6.123l0.625,1.415l0.764,1.326
										c0.586,0.832,1.182,1.688,1.887,2.354c2.873,2.743,7.377,4.354,11.698,4.374c2.164,0.006,4.319-0.419,6.087-1.386
										c1.769-0.948,3.113-2.49,3.843-4.345c0.703-1.879,0.799-4.125,0.411-6.389c-0.38-2.278-1.188-4.603-2.194-6.906
										c-2.015-4.637-4.865-9.104-7.574-13.978c-1.422-2.557-2.456-4.961-3.647-7.399c-1.142-2.45-2.365-4.762-3.527-7.127
										c-1.171-2.351-2.492-4.561-3.712-6.824c-0.298-0.569-0.628-1.118-0.983-1.648l-1.031-1.61
										c-0.685-1.072-1.366-2.14-2.046-3.203c-2.838-4.434-5.332-8.79-8-12.837c-2.645-4.027-5.53-7.793-8.78-10.718
										c-0.701-0.639-1.673-1.27-2.585-1.849c-0.933-0.582-1.896-1.124-2.869-1.624c-1.945-1.002-3.946-1.835-5.925-2.402
										c-1.959-0.563-3.99-0.826-5.501-0.431c-0.755,0.194-1.302,0.543-1.711,1.067c-0.412,0.523-0.697,1.259-0.842,2.102
										c-0.278,1.642,0.082,3.397,0.855,5.005c0.759,1.618,1.899,3.108,3.149,4.474c2.52,2.741,5.449,5.042,8.209,7.306
										c2.759,2.275,5.477,4.439,7.615,7.104c0.977,1.359,1.828,2.703,2.693,3.993c0.72,1.365,1.417,2.687,2.091,3.965
										c2.433,5.233,3.728,9.996,4.775,13.858c1.003,3.879,1.638,6.918,2.092,8.972
										C538.111,267.929,538.343,269.009,538.343,269.009z"/>
								</g>
							</g>
						</g>
						<path d="M259.775,403.027c-11.356-7.807-19.955-13.626-24.437-27.735c-4.224-13.296-7.587-26.576-9.042-40.735
							c-0.724-7.042-1.275-15.519,0.828-22.097c0.928-2.903,1.521-6.181,4.053-8.402c2.701-2.369,5.503-1.789,7.551-4.882
							c3.559-5.378,3.487-13.377,5.745-19.145c2.205-5.632,5.125-11.106,9.08-15.809c6.156-7.318,13.303-13.517,20.463-19.742
							c5.03-4.374,21.73-16.405,15.963-24.195c3.076,4.139,25.261-9.019,28.89-10.762c58.391-28.044,121.437-14.022,181.465-1.19
							c3.86,0.825,6.475-4.509,9.732-2.611c-16.496,2.374,4.973,20.652,10.205,25.355c9.586,8.616,14.939,20.305,16.181,33.121
							c0.46,4.753,0.692,9.658,1.398,14.396c0.667,4.473,0.507,10.041,2.408,14.37c3.418,7.779,16.006,8.645,23.761,8.568
							c-4.349,1.951-8.303,2.169-11.679,6.341c-3.496,4.321-3.922,9.146-4.902,14.267c-2.003,10.449-6.953,13.458-2.104,23.528
							c-3.201-8.515-5.591-6.748-4.599-16.684c-0.698,7.317-2.881,13.985-2.873,21.873c0.009,7.84,0.646,16.058-0.106,23.825
							c-1.352,13.972-4.348,32.118-0.825,46.03c0.893,3.521,1.949,7.004,2.895,10.361c-8.424-13.223-13.032-23.233-13.823-39.054
							c-0.789-15.815,1.33-30.723,1.33-46.428c0-6.844,1.745-17.471-0.481-23.452c-1.798-4.83-7.518-10.462-11.606-13.762
							c-10.633-8.585-21.15-16.372-34.714-17.936c-29.778-3.434-52.277-0.372-91.993-1.318c-30.095,3.101-66.284-7.356-91.91,11.105
							c-6.76,4.87-13.337,11.541-18.07,18.186c-4.208,5.909-4.521,13.459-6.821,20.452c-5.105,15.523-6.86,32.034-9.678,48.342
							c-1.229,7.12-1.758,14.548-3.244,21.564"/>
						<path d="M221.962,286.24c-9.764,9.277-26.227,10.506-40.205,9.094c-12.531-1.267-26.785-9.604-37.203-16.871
							c-29.062-20.276-35.494-72.869-23.213-103.599c6.802-17.022,20.217-34.68,34.663-45.977
							c11.784-9.216,25.884-15.069,40.484-16.499c7.079-0.693,15.094-1.632,22.097,0.133c6.465,1.63,13.087,3.98,19.65,6.675
							c23.739,9.745,44.859,36.387,51.332,60.787c1.958,7.38,2.815,14.18,3.233,22.018c0.199,3.727,0.721,7.186,0.478,11.009
							c-0.238,3.754-1.7,6.966-1.544,10.865c-3.033-6.726-7.375-10.879-14.862-6.212c-4.887,3.047-9.698,8.371-13.843,12.445
							c-9.087,8.932-16.718,18.663-23.836,28.851c-5.332,7.632-14.946,18.052-16.752,27.282"/>
						<path d="M512.017,204.871c-0.704-6.537,2.851-14.618,4.76-20.607c6.877-21.573,24.858-43.846,48.206-47.959
							c14.148-2.492,35.393,2.513,48.514,7.767c14.846,5.944,26.711,16.79,34.392,30.78c15.97,29.088,15.041,67.983-3.863,95.471
							c-8.227,11.96-24.529,29.832-38.559,34.927c-13.461,4.889-28.306,2.741-42.237,2.051c-8.879-0.44-19.274,4.115-22.038,13.233
							c2.389-6.737,4.626-10.878,10.459-15.268c4.757-3.58,10.583-4.883,15.025-8.857c5.678-5.079,4.954-11.601,1.342-17.827
							c-3.189-5.494-5.312-11.455-8.242-17.126c-5.624-10.88-11.407-23.209-18.189-33.504
							c-6.662-10.113-17.323-19.626-29.091-22.603"/>
						<path d="M541,319.667c-4.167,9.742-3.471,20.531-4.002,31.331c-0.242,4.914-1.51,10.756-0.664,16.002
							c0.71,4.408,3.476,7.585,4.83,11.836c2.817,8.844,2.832,21.409,3.17,30.83c0.396,11.049-1.084,21.466-0.813,32.147
							c0.023,0.892,0.407,1.381,0.665,1.801c0.133-8.369-8.438-14.994-12.37-22.096c-4.64-8.381-7.208-17.909-8.146-27.187
							c-2.17-21.477,1.192-44.38,7.834-63.479c1.496-4.302,3.279-9.309,6.164-12.518"/>
						<path d="M255,431c-16.181,9.542-22.098,11.572-28.667,28.666c-7.017,18.26-17.201,33.64-36.501,42.166
							c-4.464,1.973-9.363,3.626-14.151,4.517c-4.705,0.875-12.857-0.318-16.113,1.315c14.849-0.807,37.802-13.087,45.579-26.5
							c10.113-17.443,10.121-34.722,15.833-52.815c4.077-12.914,11.696-25.643,12.686-39.349
							c1.227-16.992,1.124-33.465,2.116-50.613c5.968,5.536,10.286,14.776,15.719,21.461c4.315,5.31,11.151,10.976,13.352,17.301
							c2.693,7.739,0.813,18.918,0.813,27.185c0,9.226,1.183,19.005-9.333,20"/>
						<g>
							<g>
								<g>
									<path d="M252.999,365.667c0,0,0.225,0.935,0.651,2.714c0.233,0.888,0.43,2.004,0.681,3.323
										c0.283,1.315,0.465,2.855,0.695,4.593c0.354,3.477,0.628,7.812-0.072,12.844c-0.236,1.244-0.466,2.54-0.74,3.873
										c-0.385,1.295-0.768,2.643-1.2,4.019c-0.246,0.676-0.495,1.362-0.748,2.057c-0.256,0.695-0.494,1.41-0.833,2.092
										c-0.635,1.383-1.262,2.828-2.041,4.208c-2.96,5.64-6.968,11.233-10.139,17.454c-3.071,6.349-5.659,13.642-8.378,21.345
										c-2.721,7.715-5.528,15.919-9.109,24.279c-3.598,8.328-7.919,16.931-14.236,24.725c-3.153,3.88-6.779,7.416-10.881,10.27
										c-4.08,2.866-8.63,5.037-13.269,6.361c-1.159,0.321-2.301,0.661-3.501,0.87l-1.772,0.354
										c-0.591,0.096-1.183,0.147-1.773,0.222l-1.764,0.202l-1.746,0.079l-1.735,0.071l-1.715-0.034
										c-4.558-0.1-8.939-0.715-13.122-1.648c-4.178-0.96-8.149-2.276-11.885-3.859c-1.878-0.768-3.662-1.695-5.415-2.596
										c-0.854-0.504-1.701-1.003-2.541-1.497c-0.844-0.483-1.622-1.085-2.422-1.615c-0.806-0.522-1.553-1.131-2.291-1.735
										c-0.743-0.592-1.477-1.18-2.161-1.88l-1.032-0.999l-0.509-0.496l-0.45-0.551c-0.615-0.739-1.133-1.45-1.665-2.162
										c-2.065-2.883-3.766-5.86-4.964-8.935c-1.218-3.052-1.86-6.263-1.714-9.343c0.153-1.538,0.384-3.04,0.978-4.398
										c0.228-0.703,0.611-1.309,0.949-1.92c0.307-0.628,0.779-1.148,1.175-1.691c1.707-2.117,3.93-3.446,6.02-4.18
										c2.105-0.743,4.095-0.995,5.857-1.115c3.538-0.214,6.233,0.145,8.052,0.334c1.819,0.217,2.768,0.365,2.768,0.365
										s-0.96-0.017-2.788-0.047c-1.818,0.013-4.534-0.047-7.901,0.502c-1.673,0.283-3.519,0.713-5.336,1.558
										c-1.811,0.837-3.556,2.144-4.794,3.999c-0.282,0.483-0.637,0.924-0.839,1.473c-0.231,0.528-0.511,1.046-0.633,1.619
										c-0.384,1.1-0.453,2.334-0.484,3.573c0.097,2.511,0.822,5.182,2.105,7.798c1.256,2.628,2.989,5.221,5.042,7.711
										c0.524,0.61,1.059,1.247,1.588,1.803l0.398,0.432l0.456,0.381l0.912,0.768c0.58,0.531,1.265,1.011,1.957,1.493
										c0.681,0.491,1.364,0.988,2.121,1.412c0.749,0.431,1.457,0.925,2.249,1.316c0.782,0.403,1.571,0.81,2.366,1.22
										c1.645,0.728,3.301,1.485,5.059,2.098c3.488,1.27,7.189,2.307,11.044,3.021c7.694,1.336,16.065,1.718,23.798-0.783
										c7.835-2.396,14.867-7.556,20.453-14.527c5.637-6.941,9.843-14.947,13.484-22.895c3.635-7.974,6.685-15.977,9.746-23.61
										c3.071-7.636,6.076-14.931,9.763-21.524c3.876-6.568,8.213-11.784,11.405-16.923c1.654-2.54,2.92-5.085,4.018-7.58
										c0.496-1.263,0.978-2.489,1.445-3.679c0.347-1.229,0.684-2.418,1.009-3.568c1.082-4.682,1.23-8.902,1.225-12.335
										c-0.054-1.719-0.074-3.255-0.216-4.579c-0.109-1.326-0.184-2.455-0.316-3.357
										C253.115,366.62,252.999,365.667,252.999,365.667z"/>
								</g>
							</g>
						</g>
					</g>
					<g opacity="0.3">
						<g>
							<g>
								<path fill="#FFFFFF" d="M149.001,249.001c0,0,0.722,0.881,2.027,2.473c0.334,0.39,0.66,0.858,1.098,1.305
									c0.435,0.448,0.908,0.934,1.415,1.457c0.504,0.522,1.044,1.081,1.616,1.673c0.616,0.548,1.267,1.128,1.95,1.737
									c5.428,4.863,13.825,10.707,24.113,14.852c2.576,0.98,5.14,1.8,7.679,2.361c2.54,0.539,5.024,0.937,7.418,1.114
									c4.785,0.397,9.152,0.196,12.812-0.021c3.663-0.238,6.631-0.516,8.684-0.686c2.053-0.17,3.189-0.265,3.189-0.265
									s-1.122,0.202-3.15,0.565c-2.03,0.351-4.966,0.87-8.63,1.352c-3.661,0.459-8.072,0.913-13.009,0.689
									c-2.468-0.09-5.053-0.423-7.702-0.931c-2.648-0.529-5.329-1.354-8.001-2.372c-10.604-4.274-18.902-10.669-24.071-15.956
									c-0.647-0.662-1.264-1.293-1.848-1.89c-0.534-0.643-1.037-1.248-1.508-1.815c-0.468-0.566-0.903-1.093-1.304-1.578
									c-0.4-0.484-0.691-0.987-0.991-1.407C149.637,249.948,149.001,249.001,149.001,249.001z"/>
							</g>
						</g>
					</g>
					<g opacity="0.3">
						<g>
							<g>
								<path fill="#FFFFFF" d="M270.335,214.335c0,0-0.061-1.132-0.169-3.177c-0.113-2.044-0.279-5.003-0.645-8.631
									c-0.37-3.623-0.959-7.928-2.239-12.522c-0.661-2.286-1.442-4.662-2.532-6.998c-1.08-2.335-2.399-4.67-3.954-6.872
									c-1.648-2.129-3.506-4.124-5.343-5.949c-1.838-1.84-3.709-3.522-5.557-5.044c-3.691-3.049-7.266-5.501-10.46-7.212
									c-3.185-1.731-5.984-2.706-7.972-3.118c-0.986-0.272-1.779-0.31-2.313-0.381c-0.536-0.063-0.818-0.097-0.818-0.097
									s0.283,0.005,0.822,0.013c0.539,0.018,1.346-0.02,2.361,0.165c2.048,0.237,4.985,0.996,8.351,2.547
									c3.374,1.529,7.163,3.828,11.049,6.8c1.945,1.484,3.91,3.146,5.833,4.994c1.933,1.849,3.831,3.83,5.604,6.121
									c1.67,2.361,3.013,4.811,4.094,7.277c1.089,2.465,1.827,4.958,2.419,7.341c1.141,4.789,1.491,9.194,1.622,12.866
									c0.125,3.677,0.048,6.645-0.021,8.694C270.383,213.202,270.335,214.335,270.335,214.335z"/>
							</g>
						</g>
					</g>
					<g opacity="0.3">
						<g>
							<g>
								<path fill="#FFFFFF" d="M180.334,234.335c0,0,0.532,0.563,1.494,1.58c0.452,0.529,1.102,1.087,1.838,1.745
									c0.367,0.328,0.76,0.678,1.176,1.05c0.442,0.341,0.91,0.702,1.401,1.081c1.934,1.545,4.431,3.125,7.246,4.769
									c2.855,1.587,6.086,3.152,9.563,4.598c3.502,1.383,6.903,2.534,10.06,3.375c3.162,0.793,6.055,1.39,8.518,1.63
									c0.616,0.068,1.203,0.133,1.759,0.195c0.556,0.042,1.082,0.042,1.575,0.064c0.986,0.035,1.841,0.089,2.533,0.02
									c1.398-0.068,2.171-0.105,2.171-0.105s-0.763,0.145-2.142,0.407c-0.691,0.161-1.55,0.213-2.55,0.292
									c-0.5,0.035-1.037,0.094-1.605,0.112c-0.569-0.005-1.171-0.01-1.803-0.016c-2.535-0.001-5.539-0.368-8.83-1.004
									c-3.281-0.683-6.819-1.749-10.417-3.171c-3.573-1.484-6.843-3.205-9.676-4.992c-2.797-1.846-5.212-3.667-7.031-5.434
									c-0.458-0.435-0.895-0.849-1.307-1.241c-0.391-0.415-0.741-0.824-1.076-1.197c-0.667-0.749-1.245-1.386-1.633-1.98
									C180.784,234.968,180.334,234.335,180.334,234.335z"/>
							</g>
						</g>
					</g>
					<g opacity="0.3">
						<g>
							<g>
								<path fill="#FFFFFF" d="M211.001,186.335c0,0,0.754,0.214,2.094,0.685c1.34,0.468,3.265,1.202,5.574,2.273
									c4.607,2.138,10.82,5.603,16.768,10.696c2.964,2.548,5.557,5.257,7.632,7.952c2.08,2.691,3.62,5.371,4.642,7.727
									c1.026,2.361,1.508,4.398,1.717,5.806c0.137,0.699,0.152,1.256,0.192,1.626c0.031,0.371,0.048,0.566,0.048,0.566
									s-0.045-0.191-0.13-0.555c-0.093-0.361-0.182-0.902-0.406-1.572c-0.382-1.351-1.085-3.267-2.293-5.447
									c-1.207-2.18-2.891-4.629-5.04-7.118c-2.145-2.493-4.738-5.03-7.625-7.513c-5.789-4.958-11.617-8.765-15.953-11.31
									c-2.171-1.273-3.98-2.222-5.244-2.854C211.714,186.663,211.001,186.335,211.001,186.335z"/>
							</g>
						</g>
					</g>
					<g opacity="0.3">
						<g>
							<g>
								<path fill="#FFFFFF" d="M211.668,222.335c0,0,1.47,0.836,3.767,2.315c2.312,1.467,5.384,3.627,8.625,6.204
									c3.288,2.485,6.075,4.994,8.231,6.628c2.107,1.708,3.377,2.853,3.377,2.853s-1.52-0.728-3.921-2.048
									c-2.455-1.251-5.564-3.393-8.887-5.907c-3.248-2.581-6.023-5.125-8.02-6.963
									C212.849,223.561,211.668,222.335,211.668,222.335z"/>
							</g>
						</g>
					</g>
					<g opacity="0.3">
						<g>
							<g>
								<path fill="#FFFFFF" d="M567.001,152.334c0,0-0.218,0.077-0.632,0.222c-0.412,0.15-1.03,0.335-1.794,0.665
									c-1.543,0.604-3.728,1.605-6.246,3.138c-2.518,1.531-5.368,3.585-8.281,6.149c-2.9,2.58-5.858,5.668-8.589,9.203
									c-1.354,1.775-2.593,3.569-3.702,5.357c-1.083,1.802-2.055,3.585-2.868,5.337c-1.617,3.508-2.632,6.865-3.137,9.753
									c-0.487,2.891-0.514,5.299-0.37,6.946c0.023,0.832,0.159,1.463,0.201,1.9c0.056,0.436,0.085,0.665,0.085,0.665
									s-0.058-0.223-0.167-0.648c-0.094-0.428-0.307-1.049-0.42-1.879c-0.326-1.643-0.551-4.092-0.292-7.109
									c0.274-3.01,1.088-6.566,2.598-10.281c0.758-1.855,1.697-3.741,2.773-5.636c1.103-1.879,2.36-3.755,3.761-5.59
									c2.823-3.656,5.97-6.759,9.07-9.27c3.115-2.496,6.181-4.399,8.869-5.748c2.692-1.351,5.003-2.139,6.618-2.575
									c0.799-0.245,1.441-0.358,1.868-0.458C566.775,152.383,567.001,152.334,567.001,152.334z"/>
							</g>
						</g>
					</g>
					<g opacity="0.3">
						<g>
							<g>
								<path fill="#FFFFFF" d="M633.668,242.335c0,0,0.004,0.283,0.013,0.823c-0.011,0.539,0.056,1.34-0.014,2.365
									c-0.071,2.055-0.4,5.042-1.386,8.618c-0.994,3.563-2.677,7.718-5.393,11.837c-1.323,2.079-2.925,4.125-4.743,6.1
									c-1.805,1.991-3.881,3.86-6.167,5.572c-4.582,3.311-9.038,6.193-13.231,8.693c-4.198,2.466-8.125,4.457-11.545,5.849
									c-3.415,1.406-6.327,2.17-8.36,2.49c-1.012,0.198-1.814,0.232-2.353,0.266c-0.539,0.035-0.821,0.054-0.821,0.054
									s0.279-0.047,0.812-0.137c0.532-0.086,1.316-0.195,2.299-0.48c1.975-0.494,4.764-1.476,8.028-3.08
									c6.548-3.16,14.995-8.736,24.01-15.211c2.185-1.637,4.203-3.41,5.975-5.289c1.786-1.864,3.39-3.788,4.74-5.745
									c2.771-3.875,4.622-7.8,5.822-11.21c1.192-3.419,1.76-6.328,2.011-8.352c0.159-1.01,0.169-1.806,0.232-2.342
									C633.644,242.617,633.668,242.335,633.668,242.335z"/>
							</g>
						</g>
					</g>
					<g opacity="0.3">
						<g>
							<g>
								<path fill="#FFFFFF" d="M615.001,239.668c0,0-0.389,0.579-1.09,1.626c-0.358,0.523-0.796,1.161-1.304,1.902
									c-0.53,0.725-1.053,1.625-1.821,2.457c-2.844,3.529-7.275,8.059-12.862,12.178c-5.623,4.056-11.095,7.086-15.076,9.202
									c-3.99,2.102-6.514,3.301-6.514,3.301s2.278-1.619,6.015-4.134c3.728-2.529,8.902-5.951,14.427-9.935
									c5.481-4.043,10.112-8.092,13.286-11.258c0.849-0.741,1.456-1.553,2.07-2.2c0.599-0.662,1.115-1.231,1.537-1.698
									C614.526,240.182,615.001,239.668,615.001,239.668z"/>
							</g>
						</g>
					</g>
					<g opacity="0.3">
						<g>
							<g>
								<path fill="#FFFFFF" d="M582.334,177.001c0,0-2.347,2.041-6.135,5.336c-3.769,3.298-9.022,7.814-14.001,13.482
									c-2.46,2.856-4.543,5.767-6.174,8.577c-0.718,1.45-1.505,2.792-1.978,4.158c-0.256,0.675-0.561,1.311-0.756,1.953
									c-0.185,0.647-0.361,1.268-0.53,1.86c-0.405,1.178-0.488,2.299-0.683,3.268c-0.073,0.488-0.189,0.941-0.213,1.363
									c-0.023,0.423-0.045,0.81-0.063,1.158c-0.086,1.402-0.134,2.178-0.134,2.178s-0.061-0.776-0.17-2.18
									c-0.024-0.354-0.053-0.747-0.083-1.177c-0.028-0.431,0.034-0.896,0.052-1.4c0.083-1.001,0.05-2.171,0.345-3.414
									c0.118-0.628,0.242-1.287,0.372-1.973c0.143-0.684,0.402-1.364,0.614-2.087c0.388-1.466,1.102-2.91,1.776-4.471
									c1.535-3.022,3.616-6.138,6.156-9.086c5.148-5.856,10.791-10.046,14.869-12.972
									C579.707,178.667,582.334,177.001,582.334,177.001z"/>
							</g>
						</g>
					</g>
					<g opacity="0.3">
						<g>
							<g>
								<path fill="#FFFFFF" d="M586.334,225.001c0,0-0.948,1.181-2.724,2.854c-1.765,1.683-4.353,3.81-7.211,6.057
									c-2.855,2.25-5.369,4.318-6.971,6.068c-0.419,0.423-0.769,0.83-1.062,1.202c-0.308,0.362-0.57,0.681-0.751,0.962
									c-0.396,0.551-0.615,0.857-0.615,0.857s0.124-0.358,0.348-1.002c0.104-0.331,0.28-0.712,0.501-1.149
									c0.206-0.447,0.469-0.942,0.807-1.46c1.277-2.131,3.612-4.698,6.537-7c2.929-2.302,5.783-4.022,7.823-5.304
									C585.06,225.801,586.334,225.001,586.334,225.001z"/>
							</g>
						</g>
					</g>
					<g opacity="0.3">
						<g>
							<g>
								<path fill="#FFFFFF" d="M244.334,367.001c0,0,0.051,0.618,0.148,1.795c0.064,0.589,0.092,1.32,0.096,2.185
									c0.025,0.865,0.033,1.864-0.027,2.986c-0.132,4.497-0.984,10.98-2.744,18.826c-0.865,3.926-1.938,8.195-3.121,12.761
									c-1.163,4.571-2.407,9.455-3.716,14.594c-2.7,10.272-6.033,21.501-10.497,32.957c-4.468,11.441-9.702,22.026-15.812,30.813
									c-6.065,8.791-13.178,15.681-20.334,19.567c-3.584,1.923-7.092,3.079-10.227,3.785c-0.794,0.118-1.561,0.232-2.3,0.343
									c-0.738,0.109-1.445,0.231-2.135,0.227c-0.686,0.026-1.342,0.052-1.968,0.075c-0.312,0.012-0.617,0.024-0.914,0.034
									c-0.297-0.019-0.586-0.037-0.867-0.055c-1.122-0.078-2.119-0.147-2.983-0.207c-0.852-0.148-1.574-0.274-2.157-0.376
									c-1.163-0.204-1.774-0.311-1.774-0.311s0.615,0.079,1.787,0.229c0.585,0.075,1.308,0.169,2.162,0.28
									c0.86,0.023,1.853,0.051,2.971,0.081c0.279,0.007,0.565,0.014,0.86,0.021c0.294-0.022,0.595-0.046,0.904-0.07
									c0.617-0.048,1.264-0.098,1.94-0.149c0.679-0.021,1.373-0.168,2.095-0.303s1.471-0.273,2.247-0.418
									c3.054-0.806,6.442-2.051,9.882-4.031c6.868-4.007,13.638-10.896,19.458-19.645c5.861-8.745,10.925-19.25,15.356-30.598
									c4.428-11.361,7.86-22.489,10.725-32.679c1.426-5.087,2.694-9.987,4.017-14.513c1.292-4.535,2.479-8.757,3.457-12.637
									c1.986-7.753,3.072-14.153,3.385-18.619c0.106-1.115,0.14-2.108,0.151-2.97c0.033-0.862,0.038-1.591,0.001-2.18
									C244.356,367.621,244.334,367.001,244.334,367.001z"/>
							</g>
						</g>
					</g>
					<g opacity="0.3">
						<g>
							<g>
								<path fill="#FFFFFF" d="M265.668,407.668c0,0-0.125,0.826-0.361,2.4c-0.059,0.394-0.126,0.834-0.2,1.32
									c-0.122,0.477-0.254,0.998-0.398,1.562c-0.149,0.564-0.293,1.177-0.477,1.823c-0.244,0.628-0.504,1.296-0.779,2.004
									c-0.239,0.726-0.637,1.424-1.046,2.164c-0.202,0.371-0.41,0.751-0.622,1.141c-0.212,0.39-0.508,0.737-0.767,1.121
									c-0.547,0.747-1.069,1.57-1.767,2.295c-0.676,0.741-1.325,1.569-2.123,2.295c-0.783,0.74-1.55,1.562-2.429,2.303
									c-0.431,0.38-0.869,0.767-1.313,1.159l-0.672,0.593c-0.177,0.149-0.413,0.412-0.619,0.615
									c-1.707,1.739-3.526,3.552-5.32,5.549c-1.797,1.989-3.567,4.178-5.062,6.655c-0.717,1.251-1.417,2.552-1.901,3.957
									c-0.503,1.393-0.823,2.875-1.029,4.408c-0.378,3.036,0.126,6.246,1.564,9.179c1.426,2.939,3.62,5.597,6.155,8.009
									c5.109,4.85,11.543,8.688,18.082,12.932c1.648,1.044,3.239,2.293,4.839,3.52c0.751,0.683,1.506,1.367,2.264,2.055
									c0.732,0.718,1.388,1.524,2.087,2.289c0.69,0.774,1.226,1.691,1.847,2.538c0.586,0.874,1.006,1.865,1.514,2.8
									c0.221,0.484,0.368,1.006,0.554,1.51c0.16,0.514,0.39,1.007,0.49,1.539l0.302,1.598l0.146,0.802l0.032,0.815
									c0.274,4.373-1.083,8.613-3.144,12.188c-2.065,3.598-4.794,6.668-7.648,9.346c-5.588,5.629-12.466,9.189-16.776,14.637
									c-2.237,2.646-3.37,5.887-3.078,9.084c0.121,1.595,0.575,3.146,1.181,4.614c0.605,1.471,1.344,2.875,2.154,4.215
									c0.813,1.341,1.668,2.633,2.53,3.895l0.646,0.943l0.294,0.429l0.352,0.42c0.487,0.58,0.97,1.154,1.448,1.723
									c1.855,2.328,3.49,4.697,4.753,7.141c2.457,4.935,3.089,10.108,2.37,14.394c-0.689,4.339-2.661,7.639-4.292,10.155
									c-1.664,2.53-3.021,4.44-3.856,5.793c-0.43,0.669-0.735,1.192-0.942,1.544s-0.313,0.531-0.313,0.531s0.1-0.184,0.294-0.542
									s0.482-0.894,0.89-1.576c0.79-1.382,2.091-3.343,3.671-5.911c1.552-2.558,3.387-5.86,3.941-10.084
									c0.587-4.194-0.153-9.155-2.624-13.858c-1.275-2.335-2.914-4.607-4.779-6.854c-0.482-0.55-0.969-1.106-1.46-1.668
									l-0.384-0.439l-0.36-0.499l-0.665-0.933c-0.892-1.252-1.784-2.548-2.643-3.909c-0.857-1.363-1.654-2.812-2.325-4.366
									c-0.669-1.551-1.197-3.232-1.363-5.018c-0.18-1.777,0.01-3.638,0.59-5.392c0.165-0.431,0.292-0.881,0.494-1.298l0.626-1.247
									c0.484-0.783,1.036-1.522,1.559-2.291c2.271-2.934,5.175-5.327,8.122-7.642c1.472-1.171,2.989-2.287,4.43-3.499
									c0.73-0.595,1.462-1.193,2.141-1.854c0.695-0.643,1.393-1.29,2.08-1.967c2.787-2.648,5.351-5.583,7.28-8.97
									c1.921-3.361,3.116-7.217,2.873-11.108l-0.024-0.729l-0.134-0.715l-0.266-1.427c-0.085-0.476-0.3-0.92-0.441-1.38
									c-0.168-0.453-0.293-0.922-0.492-1.36c-0.469-0.849-0.836-1.747-1.374-2.551c-0.576-0.781-1.055-1.625-1.699-2.35
									c-0.655-0.716-1.259-1.472-1.945-2.151c-0.714-0.654-1.426-1.307-2.136-1.957c-1.531-1.181-3.019-2.373-4.65-3.422
									c-6.448-4.254-12.963-8.215-18.192-13.301c-2.597-2.535-4.88-5.362-6.369-8.553c-1.505-3.179-2.004-6.729-1.531-9.987
									c0.244-1.612,0.615-3.19,1.182-4.67c0.547-1.487,1.307-2.836,2.081-4.123c1.608-2.545,3.466-4.738,5.332-6.713
									c1.862-1.983,3.733-3.759,5.477-5.451c0.233-0.218,0.401-0.408,0.684-0.645c0.229-0.191,0.456-0.383,0.682-0.571
									c0.451-0.379,0.896-0.751,1.334-1.118c0.894-0.716,1.665-1.503,2.462-2.215c3.122-2.913,5.25-5.962,6.478-8.699
									c0.293-0.692,0.571-1.345,0.831-1.959c0.202-0.634,0.364-1.237,0.53-1.793c0.161-0.558,0.31-1.072,0.446-1.542
									c0.089-0.482,0.17-0.919,0.242-1.31C265.515,408.489,265.668,407.668,265.668,407.668z"/>
							</g>
						</g>
					</g>
					<g opacity="0.3">
						<g>
							<g>
								<path fill="#FFFFFF" d="M299.001,289.668c0,0-0.314,0.404-0.91,1.173c-0.582,0.78-1.509,1.876-2.58,3.378
									c-2.145,3-5.09,7.469-7.95,13.393c-2.859,5.919-5.595,13.278-7.741,21.71c-2.228,8.407-3.967,17.847-5.966,27.73
									c-1.016,4.928-1.811,9.784-2.804,14.453c-0.968,4.668-1.989,9.159-3.135,13.396c-2.302,8.47-5.044,15.938-8.044,21.872
									c-2.999,5.933-6.033,10.404-8.416,13.242c-0.286,0.363-0.556,0.707-0.809,1.029c-0.275,0.306-0.532,0.591-0.771,0.855
									c-0.478,0.527-0.883,0.975-1.21,1.336c-0.654,0.72-0.998,1.098-0.998,1.098s0.322-0.398,0.936-1.153
									c0.307-0.377,0.686-0.844,1.135-1.395c0.224-0.275,0.465-0.572,0.723-0.89c0.236-0.334,0.488-0.69,0.754-1.066
									c2.23-2.935,5.033-7.505,7.78-13.475c2.749-5.974,5.228-13.428,7.334-21.865c1.047-4.222,1.987-8.695,2.898-13.35
									c0.933-4.645,1.701-9.515,2.721-14.465c1.999-9.883,3.864-19.338,6.29-27.785c2.343-8.464,5.347-15.847,8.455-21.716
									c3.109-5.879,6.279-10.239,8.575-13.139c1.148-1.452,2.134-2.502,2.758-3.249
									C298.665,290.053,299.001,289.668,299.001,289.668z"/>
							</g>
						</g>
					</g>
					<g opacity="0.3">
						<g>
							<g>
								<path fill="#FFFFFF" d="M313.001,253.668c0,0-0.395,0.245-1.145,0.711c-0.375,0.232-0.839,0.519-1.387,0.858
									c-0.274,0.169-0.569,0.351-0.884,0.546c-0.298,0.22-0.616,0.455-0.953,0.704c-0.67,0.499-1.415,1.054-2.23,1.661
									c-0.786,0.643-1.602,1.39-2.499,2.163c-0.92,0.748-1.768,1.699-2.727,2.636c-0.974,0.924-1.888,2.014-2.874,3.13
									c-3.911,4.496-7.991,10.338-11.836,17.224c-3.894,6.862-7.579,14.727-11.2,23.119c-0.464,1.051-0.904,2.093-1.31,3.121
									c-0.404,1.035-0.873,2.039-1.18,3.094c-0.332,1.045-0.704,2.069-1,3.11c-0.279,1.047-0.555,2.086-0.829,3.115
									c-0.988,4.151-1.672,8.233-2.244,12.142c-1.094,7.829-1.863,14.957-3.041,20.868c-1.156,5.91-2.539,10.61-3.855,13.71
									c-0.15,0.392-0.292,0.763-0.425,1.11c-0.158,0.338-0.306,0.654-0.443,0.947c-0.275,0.586-0.508,1.081-0.696,1.48
									c-0.378,0.798-0.575,1.218-0.575,1.218s0.172-0.431,0.499-1.252c0.164-0.41,0.367-0.916,0.607-1.515
									c0.12-0.299,0.249-0.621,0.387-0.965c0.113-0.353,0.234-0.73,0.362-1.129c1.139-3.147,2.274-7.869,3.183-13.77
									c0.93-5.904,1.454-13.015,2.373-20.917c0.486-3.95,1.102-8.1,2.061-12.358c0.27-1.059,0.542-2.127,0.816-3.204
									c0.294-1.072,0.668-2.134,1.005-3.214c0.312-1.089,0.788-2.129,1.203-3.2c0.421-1.076,0.866-2.13,1.326-3.172
									c3.63-8.411,7.465-16.316,11.561-23.161c4.047-6.873,8.388-12.662,12.532-17.053c1.044-1.09,2.014-2.15,3.043-3.044
									c1.013-0.907,1.91-1.824,2.878-2.537c0.944-0.738,1.802-1.449,2.627-2.056c0.853-0.568,1.632-1.088,2.333-1.554
									c0.352-0.23,0.677-0.457,0.994-0.653c0.328-0.178,0.635-0.344,0.919-0.499c0.569-0.308,1.051-0.568,1.44-0.778
									C312.593,253.888,313.001,253.668,313.001,253.668z"/>
							</g>
						</g>
					</g>
					<g opacity="0.3">
						<g>
							<g>
								<path fill="#FFFFFF" d="M369.001,221.001c0,0-2.013,0.524-5.652,1.471c-1.833,0.409-4.007,1.169-6.539,2.004
									c-1.262,0.433-2.63,0.827-4.044,1.368c-1.418,0.527-2.918,1.084-4.492,1.669c-6.286,2.401-13.852,5.013-21.558,9.349
									c-7.743,4.245-15.765,9.797-23.421,16.527c-7.665,6.722-14.227,13.946-19.684,20.907
									c-5.464,6.963-9.825,13.661-13.294,19.401c-3.358,5.806-5.868,10.632-7.496,14.02c-1.602,3.403-2.487,5.285-2.487,5.285
									s0.787-1.927,2.21-5.411c1.466-3.468,3.763-8.415,6.928-14.374c3.277-5.892,7.465-12.775,12.84-19.921
									c5.366-7.142,11.924-14.547,19.7-21.366c7.765-6.827,15.992-12.371,23.931-16.513c2.013-0.98,3.976-1.935,5.883-2.863
									c1.966-0.8,3.875-1.576,5.72-2.327c0.918-0.39,1.835-0.716,2.74-1.018c0.903-0.311,1.789-0.617,2.657-0.916
									c1.736-0.6,3.402-1.173,5.005-1.694c1.6-0.526,3.123-1.028,4.564-1.503c1.437-0.485,2.833-0.827,4.116-1.206
									c2.577-0.73,4.784-1.389,6.647-1.712C366.962,221.42,369.001,221.001,369.001,221.001z"/>
							</g>
						</g>
					</g>
					<g opacity="0.3">
						<g>
							<g>
								<path fill="#FFFFFF" d="M446.334,207.001c0,0-1.668-0.076-4.686-0.212c-1.507-0.078-3.352-0.162-5.494-0.226
									c-2.143-0.069-4.58-0.187-7.276-0.219c-2.695-0.063-5.647-0.126-8.814-0.108c-3.168-0.043-6.551,0.057-10.108,0.116
									c-7.112,0.231-14.919,0.686-23.064,1.622c-8.139,0.988-15.816,2.431-22.717,4.099c-1.715,0.456-3.389,0.899-5.014,1.331
									c-1.637,0.399-3.166,0.978-4.679,1.431c-1.498,0.5-2.979,0.892-4.344,1.428c-1.374,0.516-2.692,1.011-3.951,1.483
									c-2.547,0.881-4.726,1.972-6.701,2.798c-0.976,0.438-1.906,0.804-2.725,1.215c-0.817,0.415-1.565,0.794-2.237,1.134
									c-2.697,1.357-4.188,2.108-4.188,2.108s1.44-0.846,4.045-2.376c0.654-0.381,1.38-0.805,2.176-1.268
									c0.798-0.46,1.707-0.876,2.663-1.368c1.935-0.933,4.078-2.142,6.597-3.142c1.247-0.53,2.554-1.085,3.916-1.665
									c1.356-0.597,2.83-1.048,4.324-1.606c1.509-0.511,3.039-1.148,4.677-1.602c1.63-0.482,3.308-0.979,5.028-1.487
									c6.929-1.864,14.68-3.445,22.902-4.442c8.228-0.946,16.11-1.282,23.269-1.332c3.58,0.031,6.981,0.038,10.159,0.195
									c3.18,0.097,6.136,0.281,8.833,0.465c2.699,0.154,5.133,0.394,7.272,0.576c2.139,0.177,3.977,0.368,5.478,0.537
									C444.674,206.818,446.334,207.001,446.334,207.001z"/>
							</g>
						</g>
					</g>
					<g opacity="0.3">
						<g>
							<g>
								<path fill="#FFFFFF" d="M517.001,317.001c0,0,0.322,0.944,0.938,2.742c0.307,0.9,0.687,2.014,1.136,3.33
									c0.434,1.321,0.767,2.894,1.234,4.641c0.213,0.878,0.483,1.796,0.684,2.779c0.178,0.987,0.364,2.023,0.559,3.106
									c0.185,1.085,0.424,2.21,0.584,3.393c0.139,1.186,0.282,2.418,0.432,3.695c0.359,2.549,0.44,5.297,0.662,8.204
									c0.079,1.455,0.103,2.952,0.159,4.489c0.058,1.537,0.096,3.114,0.104,4.729c0.063,6.451,0.197,13.536-0.083,21.137
									c-0.206,7.579-0.575,15.692,0.364,24.095c0.484,4.19,1.328,8.445,2.847,12.55c1.412,4.138,3.879,7.902,6.873,11.339
									c2.999,3.443,6.513,6.561,10.123,9.704c3.605,3.15,7.349,6.33,10.725,10.04c3.365,3.689,6.249,7.941,7.755,12.701
									c1.413,4.66,2.352,9.507,1.942,14.309c-0.34,4.79-1.935,9.354-4.224,13.299c-2.283,3.969-5.159,7.378-8.047,10.549
									c-2.905,3.164-5.871,6.088-8.648,9.007c-2.789,2.911-5.359,5.826-7.643,8.835c-4.618,5.899-7.981,12.285-8.792,18.595
									c-0.231,1.567-0.203,3.117-0.102,4.613c0.139,1.496,0.447,2.933,0.876,4.292c0.887,2.713,2.329,5.049,3.932,7.002
									c3.259,3.906,7.023,6.354,10.114,8.155c3.128,1.786,5.725,2.857,7.465,3.614c1.77,0.692,2.698,1.056,2.698,1.056
									s-0.94-0.337-2.729-0.979c-1.763-0.708-4.392-1.71-7.582-3.426c-3.153-1.735-7.011-4.102-10.436-8.025
									c-1.685-1.963-3.229-4.341-4.21-7.146c-0.475-1.404-0.828-2.898-1.004-4.456c-0.138-1.559-0.194-3.179,0.014-4.814
									c0.721-6.585,4.094-13.214,8.699-19.284c2.26-3.075,4.848-6.094,7.614-9.055c2.758-2.977,5.685-5.933,8.52-9.086
									c2.816-3.158,5.582-6.513,7.729-10.32c2.153-3.792,3.606-8.067,3.901-12.561c0.362-4.496-0.543-9.098-1.916-13.587
									c-1.414-4.419-4.113-8.418-7.366-11.985c-6.55-7.149-14.64-12.641-20.814-19.831c-3.077-3.563-5.678-7.598-7.123-11.951
									c-1.549-4.294-2.371-8.691-2.82-12.976c-0.866-8.594-0.379-16.75-0.062-24.323c0.394-7.566,0.381-14.626,0.439-21.082
									c0.023-1.613,0.015-3.185-0.013-4.717c-0.025-1.532-0.02-3.025-0.069-4.475c-0.16-2.894-0.183-5.636-0.483-8.175
									c-0.12-1.273-0.235-2.503-0.346-3.686c-0.134-1.181-0.346-2.304-0.502-3.388c-0.169-1.083-0.329-2.119-0.482-3.107
									c-0.176-0.984-0.422-1.903-0.612-2.784c-0.421-1.75-0.713-3.33-1.11-4.659c-0.412-1.326-0.762-2.447-1.043-3.354
									C517.296,317.954,517.001,317.001,517.001,317.001z"/>
							</g>
						</g>
					</g>
					<g opacity="0.3">
						<g>
							<g>
								<path fill="#FFFFFF" d="M496.334,267.668c0,0,0.369,0.329,1.073,0.956c0.694,0.637,1.764,1.531,3.054,2.773
									c2.634,2.43,6.332,6.078,10.585,10.89c4.223,4.828,9.04,10.828,13.387,18.175c2.22,3.642,4.235,7.665,5.997,11.978
									c1.783,4.303,3.154,8.984,3.904,13.899c1.457,9.823,0.869,19.248,0.099,27.687c-0.845,8.448-1.944,15.989-2.668,22.34
									c-0.733,6.349-1.174,11.505-1.29,15.08c-0.115,1.786-0.078,3.175-0.113,4.118c-0.018,0.942-0.027,1.438-0.027,1.438
									s-0.019-0.495-0.057-1.436c-0.018-0.942-0.13-2.333-0.106-4.125c-0.065-3.585,0.134-8.777,0.628-15.169
									c0.483-6.393,1.343-13.973,2.001-22.386c0.588-8.394,1.033-17.715-0.386-27.253c-0.723-4.738-2.019-9.287-3.713-13.508
									c-1.67-4.229-3.577-8.208-5.686-11.839c-4.121-7.324-8.699-13.418-12.711-18.371c-4.041-4.939-7.555-8.745-10.056-11.301
									c-1.225-1.305-2.241-2.253-2.898-2.929C496.684,268.018,496.334,267.668,496.334,267.668z"/>
							</g>
						</g>
					</g>
					<g opacity="0.3">
						<g>
							<g>
								<path fill="#FFFFFF" d="M431.001,226.335c0,0,1.814,0.293,5.096,0.824c3.276,0.56,8.01,1.446,13.797,2.856
									c5.774,1.438,12.636,3.356,19.953,6.36c7.318,2.96,15.138,6.986,22.462,12.499c1.814,1.388,3.583,2.786,5.31,4.185
									c1.695,1.442,3.36,2.885,4.896,4.399c3.101,2.998,5.917,6.063,8.414,9.123c5.027,6.1,9.024,11.971,12.313,16.923
									c3.274,4.964,5.838,9.03,7.638,11.823c1.796,2.795,2.789,4.341,2.789,4.341s-1.083-1.485-3.04-4.17
									c-1.934-2.702-4.73-6.611-8.185-11.442c-3.48-4.804-7.657-10.506-12.764-16.416c-5.088-5.937-11.259-11.877-18.532-17.21
									c-7.173-5.4-14.774-9.453-21.934-12.545c-7.151-3.132-13.888-5.268-19.569-6.933c-5.695-1.637-10.369-2.758-13.607-3.497
									C432.794,226.734,431.001,226.335,431.001,226.335z"/>
							</g>
						</g>
					</g>
					<g opacity="0.3">
						<g>
							<g>
								<path fill="#FFFFFF" d="M417.668,215.001c0,0,1.352-0.079,3.795-0.221c0.611-0.033,1.292-0.07,2.037-0.111
									c0.744-0.022,1.555-0.016,2.425-0.024c1.741,0.003,3.729-0.06,5.919,0.078c1.097,0.05,2.245,0.102,3.442,0.157
									c1.197,0.064,2.436,0.21,3.723,0.32c2.579,0.192,5.309,0.613,8.189,1.023c5.733,0.953,11.997,2.32,18.417,4.3
									c6.409,2.016,12.35,4.419,17.619,6.873c2.6,1.303,5.098,2.481,7.333,3.781c1.126,0.632,2.223,1.225,3.257,1.831
									c1.02,0.63,1.998,1.234,2.932,1.811c1.884,1.125,3.503,2.278,4.939,3.26c0.716,0.495,1.382,0.956,1.995,1.379
									c0.594,0.451,1.137,0.863,1.625,1.233c1.944,1.487,3.02,2.309,3.02,2.309s-1.137-0.733-3.192-2.06
									c-0.512-0.333-1.081-0.703-1.703-1.108c-0.639-0.38-1.332-0.793-2.078-1.237c-1.492-0.883-3.165-1.927-5.099-2.939
									c-0.955-0.523-1.956-1.071-2.999-1.642c-1.062-0.533-2.168-1.087-3.312-1.661c-2.268-1.189-4.787-2.259-7.396-3.465
									c-5.287-2.262-11.19-4.52-17.517-6.51c-6.337-1.954-12.486-3.42-18.125-4.541c-2.831-0.494-5.517-1.016-8.059-1.318
									c-1.269-0.166-2.49-0.369-3.672-0.491c-1.183-0.117-2.318-0.229-3.402-0.336c-2.167-0.257-4.138-0.316-5.868-0.432
									c-0.866-0.05-1.672-0.097-2.414-0.14c-0.742-0.014-1.421-0.025-2.031-0.037C419.02,215.03,417.668,215.001,417.668,215.001z
									"/>
							</g>
						</g>
					</g>
					<g opacity="0.3">
						<g>
							<g>
								<path fill="#FFFFFF" d="M364.335,260.335c0,0-0.351,0.665-0.984,1.869c-0.612,1.221-1.652,2.901-3.055,4.911
									c-0.75,0.966-1.504,2.089-2.491,3.146c-0.48,0.54-0.967,1.109-1.492,1.674c-0.551,0.54-1.117,1.096-1.698,1.667
									c-2.374,2.228-5.215,4.441-8.4,6.42c-6.412,3.913-12.698,6.382-17.2,8.18c-4.522,1.768-7.347,2.8-7.347,2.8
									s2.625-1.474,6.947-3.685c4.304-2.239,10.342-5.138,16.577-8.945c3.102-1.929,5.911-3.967,8.332-5.992
									c0.597-0.517,1.18-1.021,1.746-1.511c0.539-0.521,1.061-1.026,1.566-1.515c1.043-0.951,1.871-1.973,2.701-2.844
									c1.564-1.821,2.795-3.35,3.557-4.468C363.892,260.942,364.335,260.335,364.335,260.335z"/>
							</g>
						</g>
					</g>
					<g opacity="0.3">
						<g>
							<g>
								<path fill="#FFFFFF" d="M382.335,267.668c0,0-0.054,0.155-0.156,0.451c-0.111,0.292-0.234,0.745-0.492,1.285
									c-0.459,1.106-1.288,2.659-2.627,4.365c-1.344,1.697-3.2,3.529-5.51,5.227c-2.31,1.697-5.06,3.26-8.083,4.564
									c-6.064,2.602-11.972,3.676-16.226,4.052c-2.133,0.189-3.866,0.196-5.058,0.158c-1.193-0.034-1.848-0.103-1.848-0.103
									s0.657-0.053,1.833-0.2c1.176-0.144,2.87-0.392,4.934-0.816c4.121-0.848,9.747-2.363,15.597-4.875
									c2.92-1.26,5.609-2.653,7.923-4.131c2.312-1.479,4.238-3.045,5.71-4.518c1.464-1.48,2.475-2.858,3.086-3.864
									c0.335-0.489,0.526-0.907,0.685-1.177C382.254,267.812,382.335,267.668,382.335,267.668z"/>
							</g>
						</g>
					</g>
					<g opacity="0.3">
						<g>
							<g>
								<path fill="#FFFFFF" d="M406.334,236.334c0,0-0.356,0.035-1.033,0.101c-0.678,0.071-1.678,0.142-2.96,0.305
									c-2.566,0.28-6.268,0.787-10.793,1.648c-9.032,1.735-21.41,4.971-34.161,10.774c-3.179,1.458-6.225,3-9.109,4.596
									c-2.866,1.627-5.567,3.302-8.068,5.01c-4.972,3.452-9.13,7.022-12.293,10.344c-3.16,3.325-5.414,6.312-6.805,8.48
									c-0.749,1.053-1.207,1.946-1.574,2.52c-0.352,0.583-0.536,0.89-0.536,0.89s0.159-0.32,0.462-0.929
									c0.321-0.599,0.715-1.532,1.389-2.638c1.244-2.274,3.317-5.434,6.345-8.975c3.029-3.537,7.103-7.36,12.063-11.027
									c2.493-1.814,5.205-3.586,8.096-5.288c2.908-1.671,5.995-3.268,9.226-4.75c12.968-5.9,25.642-8.699,34.808-9.964
									c4.597-0.628,8.341-0.894,10.927-0.993c1.292-0.073,2.298-0.068,2.979-0.086
									C405.977,236.34,406.334,236.334,406.334,236.334z"/>
							</g>
						</g>
					</g>
					<g opacity="0.3">
						<g>
							<g>
								<path fill="#FFFFFF" d="M409.668,268.335c0,0-0.268,0.503-0.751,1.413c-0.243,0.456-0.541,1.017-0.956,1.623
									c-0.413,0.606-0.828,1.347-1.417,2.065c-0.568,0.734-1.177,1.56-1.935,2.352c-0.374,0.401-0.741,0.838-1.162,1.245
									c-0.427,0.402-0.865,0.816-1.315,1.24c-1.852,1.638-4.048,3.288-6.573,4.646c-2.526,1.354-5.091,2.319-7.469,2.991
									c-1.204,0.286-2.336,0.592-3.425,0.741c-0.542,0.086-1.061,0.181-1.565,0.244c-0.506,0.047-0.991,0.092-1.455,0.135
									c-0.922,0.105-1.765,0.097-2.499,0.112c-0.734,0.025-1.366,0.001-1.882-0.037c-1.028-0.066-1.597-0.102-1.597-0.102
									s0.565-0.072,1.584-0.201c0.509-0.052,1.129-0.134,1.842-0.272c0.714-0.127,1.527-0.239,2.41-0.46
									c0.442-0.098,0.905-0.201,1.388-0.308c0.476-0.13,0.971-0.266,1.484-0.406c1.031-0.251,2.094-0.65,3.225-1.008
									c2.232-0.818,4.626-1.846,7.032-3.135c2.405-1.294,4.557-2.764,6.447-4.196c0.464-0.37,0.917-0.731,1.357-1.083
									c0.439-0.353,0.83-0.736,1.23-1.083c0.812-0.686,1.49-1.406,2.136-2.043c0.665-0.622,1.165-1.273,1.663-1.802
									c0.499-0.529,0.88-1.023,1.196-1.425C409.31,268.777,409.668,268.335,409.668,268.335z"/>
							</g>
						</g>
					</g>
					<g opacity="0.3">
						<g>
							<g>
								<path fill="#FFFFFF" d="M449.668,271.668c0,0-0.247,0.507-0.691,1.422c-0.226,0.46-0.491,1.036-0.932,1.62
									c-0.435,0.583-0.838,1.342-1.499,1.994c-0.315,0.343-0.645,0.703-0.987,1.077c-0.338,0.384-0.772,0.688-1.182,1.055
									c-0.812,0.751-1.803,1.374-2.837,2.055c-2.123,1.255-4.622,2.339-7.323,3.142c-5.428,1.539-10.451,1.977-14.045,2.363
									c-3.603,0.374-5.838,0.607-5.838,0.607s2.136-0.727,5.675-1.564c3.529-0.864,8.448-1.787,13.661-3.269
									c2.596-0.772,4.988-1.685,7.073-2.71c1.01-0.564,2.004-1.06,2.83-1.68c0.418-0.302,0.868-0.543,1.224-0.863
									c0.368-0.311,0.721-0.609,1.059-0.895c0.717-0.536,1.19-1.189,1.702-1.686c0.517-0.497,0.863-1.001,1.162-1.407
									C449.33,272.117,449.668,271.668,449.668,271.668z"/>
							</g>
						</g>
					</g>
					<g opacity="0.3">
						<g>
							<g>
								<path fill="#FFFFFF" d="M483.668,262.335c0,0-0.079,0.666-0.222,1.869c-0.109,1.215-0.482,2.943-1.099,5.047
									c-0.382,1.024-0.69,2.205-1.292,3.355c-0.28,0.587-0.57,1.193-0.868,1.818c-0.36,0.593-0.73,1.204-1.11,1.829
									c-1.6,2.447-3.706,4.967-6.407,7.048c-2.699,2.078-5.631,3.534-8.391,4.502c-0.701,0.21-1.384,0.416-2.048,0.616
									c-0.66,0.208-1.334,0.286-1.967,0.425c-1.265,0.291-2.472,0.367-3.563,0.465c-1.088,0.14-2.087,0.04-2.95,0.057
									c-0.866,0.017-1.608-0.076-2.213-0.147c-1.204-0.141-1.87-0.218-1.87-0.218s0.669-0.03,1.878-0.085
									c0.602-0.02,1.336-0.034,2.182-0.164c0.844-0.129,1.813-0.15,2.854-0.406c1.045-0.214,2.191-0.404,3.379-0.793
									c0.593-0.188,1.225-0.312,1.84-0.561c0.617-0.234,1.252-0.475,1.903-0.722c2.559-1.088,5.243-2.555,7.774-4.501
									c2.531-1.951,4.584-4.225,6.249-6.443c0.402-0.568,0.795-1.122,1.177-1.66c0.333-0.571,0.656-1.125,0.969-1.661
									c0.679-1.05,1.082-2.144,1.566-3.095c0.822-1.958,1.426-3.6,1.711-4.768C483.483,262.978,483.668,262.335,483.668,262.335z"
									/>
							</g>
						</g>
					</g>
					<g opacity="0.3">
						<g>
							<g>
								<path fill="#FFFFFF" d="M503.001,287.668c0,0-0.087,0.243-0.241,0.678c-0.163,0.436-0.441,1.055-0.869,1.773
									c-0.841,1.438-2.323,3.317-4.568,4.698c-1.126,0.673-2.316,1.145-3.456,1.366c-1.147,0.182-2.21,0.206-3.061-0.026
									c-0.429-0.067-0.794-0.224-1.107-0.355c-0.319-0.114-0.571-0.258-0.766-0.398c-0.384-0.259-0.598-0.404-0.598-0.404
									s0.252,0.043,0.704,0.12c0.218,0.052,0.486,0.088,0.803,0.085c0.312,0.014,0.656,0.043,1.04-0.015
									c0.759-0.021,1.632-0.279,2.555-0.587c0.922-0.352,1.886-0.854,2.877-1.444c1.97-1.208,3.649-2.573,4.822-3.648
									c0.591-0.533,1.058-0.996,1.368-1.327C502.822,287.852,503.001,287.668,503.001,287.668z"/>
							</g>
						</g>
					</g>
					<g opacity="0.3">
						<g>
							<g>
								<path fill="#FFFFFF" d="M519,213.667c0,0,0.263,0.16,0.765,0.465c0.5,0.31,1.266,0.742,2.141,1.449
									c1.809,1.339,4.241,3.573,6.799,6.7c2.572,3.115,5.293,7.083,8.027,11.623c1.358,2.272,2.738,4.683,4.119,7.188
									c1.367,2.516,2.821,5.05,4.255,7.792c2.646,5.451,5.419,10.442,7.707,15.257c1.158,2.384,2.149,4.728,3.019,6.938
									c0.826,2.235,1.529,4.343,2.009,6.317c0.988,3.94,1.287,7.219,1.287,9.464c0.041,1.121-0.067,1.995-0.078,2.58
									c-0.033,0.586-0.05,0.894-0.05,0.894s-0.041-0.307-0.117-0.89c-0.095-0.581-0.139-1.441-0.359-2.529
									c-0.359-2.183-1.129-5.288-2.533-8.932c-0.688-1.827-1.589-3.773-2.591-5.839c-1.05-2.052-2.193-4.227-3.494-6.489
									c-2.544-4.521-5.599-9.525-8.253-14.993c-1.376-2.632-2.815-5.269-4.086-7.829c-1.283-2.544-2.522-4.998-3.7-7.335
									c-2.376-4.646-4.618-8.758-6.731-12.07c-2.099-3.32-4.099-5.807-5.634-7.39c-0.737-0.829-1.4-1.374-1.835-1.768
									C519.229,213.874,519,213.667,519,213.667z"/>
							</g>
						</g>
					</g>
					<g opacity="0.3">
						<g>
							<g>
								<path fill="#FFFFFF" d="M282.333,224.999c0,0-0.277,0.155-0.804,0.45c-0.516,0.316-1.325,0.671-2.266,1.319
									c-1.948,1.163-4.584,3.131-7.57,5.823c-2.992,2.692-6.274,6.189-9.673,10.293c-3.428,4.089-6.924,8.78-10.669,13.772
									c-7.404,9.699-12.61,19.701-16.951,26.664c-1.051,1.754-2.076,3.309-2.961,4.675c-0.872,1.374-1.678,2.526-2.355,3.455
									c-1.343,1.856-2.086,2.882-2.086,2.882s0.557-1.137,1.565-3.192c0.517-1.017,1.134-2.268,1.805-3.746
									c0.682-1.471,1.484-3.125,2.32-4.99c1.708-3.701,3.713-8.136,6.174-12.985c2.499-4.827,5.549-10.073,9.401-15.119
									c3.728-4.969,7.524-9.655,11.311-13.597c3.765-3.968,7.507-7.233,10.902-9.626c3.393-2.395,6.361-3.992,8.507-4.848
									c1.039-0.494,1.92-0.715,2.479-0.934C282.034,225.102,282.333,224.999,282.333,224.999z"/>
							</g>
						</g>
					</g>
				</g>
				<g opacity="0.3">
					<g>
						<g>
							<path fill="#FFFFFF" d="M293,238.333c0,0-1.057,0.531-2.967,1.49c-0.468,0.255-1.025,0.462-1.566,0.826
								c-0.55,0.342-1.148,0.714-1.791,1.114c-0.64,0.399-1.325,0.826-2.051,1.278c-0.69,0.508-1.419,1.044-2.184,1.607
								c-3.095,2.199-6.46,5.238-10.031,8.745c-3.51,3.583-7.108,7.763-10.631,12.354c-3.44,4.654-6.478,9.261-8.996,13.604
								c-2.449,4.375-4.512,8.413-5.926,11.942c-0.364,0.879-0.711,1.716-1.039,2.508c-0.302,0.801-0.543,1.572-0.794,2.286
								c-0.489,1.431-0.941,2.66-1.171,3.701c-0.549,2.067-0.852,3.21-0.852,3.21s0.199-1.168,0.557-3.279
								c0.143-1.069,0.495-2.332,0.879-3.81c0.198-0.736,0.385-1.534,0.634-2.364c0.277-0.82,0.571-1.687,0.879-2.598
								c1.203-3.659,3.071-7.857,5.399-12.388c2.395-4.496,5.381-9.25,8.88-13.982c3.582-4.669,7.34-8.847,11.038-12.359
								c3.764-3.439,7.343-6.339,10.624-8.371c0.811-0.518,1.584-1.01,2.315-1.477c0.759-0.42,1.492-0.788,2.167-1.144
								c0.677-0.351,1.308-0.678,1.888-0.98c0.569-0.32,1.154-0.486,1.644-0.701C291.897,238.766,293,238.333,293,238.333z"/>
						</g>
					</g>
				</g>
				<g opacity="0.3">
					<g>
						<g>
							<path fill="#FFFFFF" d="M288.334,257.665c0,0-1.09,1.065-3.06,2.99c-2.005,1.883-4.754,4.771-8.016,8.43
								c-0.79,0.937-1.619,1.918-2.481,2.941c-0.425,0.516-0.888,1.018-1.306,1.573c-0.415,0.557-0.838,1.124-1.269,1.701
								c-0.86,1.152-1.75,2.344-2.667,3.571c-0.838,1.281-1.702,2.599-2.586,3.95c-3.417,5.468-6.848,11.723-9.578,18.654
								c-2.762,6.98-5.393,13.63-7.787,19.678c-2.369,6.048-4.336,11.551-5.711,16.258c-1.391,4.703-2.145,8.612-2.481,11.336
								c-0.214,1.359-0.251,2.427-0.311,3.149c-0.054,0.724-0.082,1.103-0.082,1.103s-0.001-0.381-0.002-1.106
								c0.006-0.725-0.033-1.8,0.092-3.176c0.156-2.757,0.676-6.746,1.845-11.555c1.152-4.812,2.907-10.444,5.116-16.585
								c1.105-3.07,2.315-6.271,3.577-9.581c0.627-1.654,1.266-3.336,1.914-5.044c0.642-1.712,1.247-3.463,2.028-5.2
								c2.784-7.065,6.382-13.371,10.01-18.83c0.941-1.344,1.858-2.654,2.75-3.927c0.974-1.21,1.919-2.384,2.833-3.52
								c0.458-0.565,0.91-1.121,1.353-1.667c0.445-0.543,0.936-1.031,1.387-1.533c0.918-0.99,1.799-1.941,2.641-2.847
								c3.467-3.524,6.394-6.245,8.526-7.997C287.171,258.65,288.334,257.665,288.334,257.665z"/>
						</g>
					</g>
				</g>
			</g>
		</g>
	</g>
</g>
</svg>
