<?xml version="1.0" encoding="utf-8"?>
<!-- Generator: Adobe Illustrator 25.0.1, SVG Export Plug-In . SVG Version: 6.00 Build 0)  -->
<svg version="1.1" id="Capa_1" xmlns="http://www.w3.org/2000/svg" xmlns:xlink="http://www.w3.org/1999/xlink" x="0px" y="0px"
	 viewBox="0 0 800 800" enable-background="new 0 0 800 800" xml:space="preserve">
<g id="pelo">
	<g id="Capa_50">
		<path fill-rule="evenodd" clip-rule="evenodd" d="M238.876,340.624c-4.85-5.997-11.25-11.528-14.876-18.124l-5.5,3
			c-8.398-0.833-18.116-5.45-25.889-8.637c-8.893-3.646-17.427-2.358-26.474,0.5c-7.714,2.438-18.331,5.836-21.262,14.135
			c-3.062,8.671-0.393,19.83,1.986,28.363c2.618,9.391,5.644,17.032,12.624,23.774c5.12,4.944,11.441,10.106,13.403,16.976
			c1.852,6.483,2.48,12.381,8.987,16.514c5.952,3.78,14.292,5.411,21.061,6.96c-0.222,0.765-0.424,1.541-0.614,2.325
			c7.655-2.602,15.502-4.673,23.127-7.364c3.269-8.667,5.469-18.189,7.66-26.546c0.997-3.801,2.103-6.901,2.502-10.889
			c0.325-3.241-0.711-8.927,0.389-12.111c2.414-6.988,13.432-4.628,19.962-5.113C248.313,359.226,244.676,347.796,238.876,340.624z"
			/>
		<path fill-rule="evenodd" clip-rule="evenodd" d="M733.24,270.934v-1.67c-52.442-12.642-107.074-14.79-161.546-22.408
			c35.006-16.359,70.011-32.712,105.018-49.071c-0.341-0.727-0.682-1.461-1.022-2.188c-45.839-4.377-91.67,0.578-137.594,1.753
			c29.103-16.032,62.608-20.823,97.175-25.765c-3.881-3.181-6.815-2.589-9.466-2.704c-37.266-1.687-71.585,6.469-104.164,20.17
			c-4.748,1.999-8.118,3.602-11.509-1.759c-18.054-28.532-49.276-41.581-87.368-44.646c-12.326-0.993-16.57-5.24-18.141-13.614
			c-0.313-1.644-0.935-3.248-1.368-4.887C386.95,62.896,342.156,19.896,271.764-6.672c-5.17-1.95-10.643-3.384-16.822-5.328
			c13.889,40.52,14.418,80.857,18.328,121.343c-2.443-0.354-3.392-0.272-3.689-0.577c-1.259-1.313-2.336-2.732-3.469-4.127
			c-24.706-30.353-59.626-49.355-103.057-58.645c-35.474-7.592-71.578-8.59-107.867-5.152c-23.687,2.249-47.206,5.424-69.836,11.813
			c0.862,3.024,3.591,4.044,5.617,5.456c21.498,15.034,42.818,30.245,64.69,44.925c21.01,14.109,32.716,33.744,48.759,50.796
			c16.915,17.976,25.84,39.276,37.287,59.502c1.371,2.419,3.607,5.287,0.604,7.762c-3.438,2.834-6.489-0.177-9.294-1.257
			c-21.677-8.361-44.413-12.948-68.555-12.879c-62.758,0.19-113.938,22.128-159.706,54.208c-0.254,0.184,0.125,0.931,0.303,2.004
			c25.693,1.265,49.261,8.747,72.291,17.467c42.971,16.264,82.573,36.98,121.386,58.755c7.584,4.249,4.23,5.567-1.604,7.951
			c-25.413,10.391-50.665,21.034-75.916,31.672c-2.201,0.928-6.023,1.333-4.971,4.357c0.715,2.059,3.519,1.285,5.447,1.195
			c32.282-1.562,63.925,2.759,95.543,6.872c15.54,2.018,31.268,3.722,48.693,7.983c-21.208,12.494-40.442,23.838-59.681,35.174
			c36.97-1.064,83.142-9.731,118.756-12.6c-3.359-3.751-16.299-2.226-18.659-6.676c-13.538-4.532-24.154-11.998-31.925-22.305
			c-10.591-14.048-13.971-29.566-13.532-45.674c0.149-5.402,2.089-10.942,9.43-12.797c3.926-0.997,6.676-0.003,8.911,1.728
			c12.892-5.868,30.218-2.318,42.14,4.231c1.16-1.605,3.124-2.523,5.597-1.812c15.988,4.601,32.184,8.813,48.679,10.727
			c-3.746-3.217-7.35-6.661-11.121-10.085c-4.054-3.68-9.568-7.274-12.029-12.336c-0.311-0.64-0.592-1.293-0.858-1.953
			c-3.572-2.246-5.122-4.737-5.525-8.583c-2.495-23.776,16.319-42.923,29.062-60.973c1.854-2.631,3.396-5.506,8.446-6.825
			c0.198,30.184-7.663,60.183-1.239,92.301c0.695,0.587,1.398,1.163,2.109,1.728c8.458-9.68,15.417-17.651,23.284-26.655
			c1.128,4.207,1.818,6.79,2.792,10.44c21.99-30.741,51.034-55.256,84.072-77.188c-11.19,33.174-32.102,63.051-48.205,94.519
			c20.144-29.884,38.266-60.482,53.64-92.261c-0.16,32.725-0.147,65.382-10.148,97.365c-0.508,1.627-1.299,3.231-2.25,4.775
			c13.492-7.473,26.664-15.27,38.93-23.912c10.73-10.318,20.983-20.941,30.684-31.946c0.109-0.124,0.217-0.256,0.325-0.391
			c0.026-0.08,0.065-0.157,0.088-0.238c0.496-1.84,1.614-2.976,2.944-3.529c1.192-1.084,2.65-1.694,4.667-0.945
			c1.557,0.581,2.107,1.706,2.19,3.027c0.56,0.801,0.928,1.778,1.002,2.91c0.922,13.97,7.581,27.543,15.077,39.12
			c3.595,5.552,7.575,11.018,12.013,16.064c1.012-0.257,2.022-0.521,3.028-0.799c6.134-9.289,19.49-20.579,26.757-21.948
			c5.877-1.102,8.328,1.211,9.205,5.512c1.131,5.559,1.043,11.503-0.061,17.558c0.337,0.969,0.639,1.951,0.896,2.945
			c1.368,5.285-1.727,9.462,0.585,14.56c3.555,7.838,6.36,16.627,8,24.939c39.743-10.81,83.562-21.087,123.962-32.068
			c-34.385-10.357-65.823-19.832-97.261-29.298c0.06-0.857,0.114-1.707,0.167-2.562C623.589,309.796,678.545,290.576,733.24,270.934
			z"/>
		<g opacity="0.3">
			<g>
				<g>
					<path fill="#FFFFFF" d="M251.667,114.666c0,0-2.819-2.095-7.917-5.884c-5.096-3.783-12.437-9.328-21.929-15.468
						c-18.956-12.156-48.042-24.843-81.993-30.601c-16.944-2.998-33.342-4.382-48.282-5.083c-14.947-0.684-28.452-0.74-39.796-0.696
						C29.044,57.18,15,57.333,15,57.333s3.503-0.255,9.839-0.717c6.337-0.442,15.508-1.061,26.86-1.625
						c11.353-0.53,24.897-0.961,39.961-0.638c15.053,0.341,31.655,1.493,48.846,4.534c17.186,3.017,33.252,7.765,47.177,13.691
						c3.54,1.351,6.812,3.045,10.035,4.594c1.607,0.784,3.19,1.556,4.749,2.316c1.541,0.803,3.058,1.594,4.548,2.371
						c0.744,0.391,1.481,0.779,2.212,1.163c0.711,0.423,1.416,0.842,2.114,1.256c1.395,0.831,2.764,1.646,4.105,2.445
						c2.607,1.714,5.124,3.335,7.456,4.978c9.308,6.603,16.349,12.533,21.223,16.604
						C248.982,112.401,251.667,114.666,251.667,114.666z"/>
				</g>
			</g>
		</g>
		<g opacity="0.3">
			<g>
				<g>
					<path fill="#FFFFFF" d="M374.334,146.667c0,0-0.807-2.454-2.265-6.89c-0.717-2.22-1.594-4.937-2.612-8.091
						c-0.503-1.578-1.041-3.265-1.612-5.055c-0.545-1.797-1.272-3.647-1.947-5.617c-1.376-3.929-2.883-8.231-4.501-12.851
						c-0.411-1.151-0.785-2.341-1.243-3.514c-0.467-1.169-0.941-2.356-1.422-3.561c-0.961-2.409-1.903-4.905-3.087-7.371
						c-4.413-9.998-10.183-20.572-17.459-30.84c-7.256-10.282-15.281-19.268-23.145-26.872c-7.864-7.613-15.53-13.879-22.089-18.991
						c-6.628-5.026-12.127-8.939-15.97-11.583C273.13,2.792,271,1.333,271,1.333s2.246,1.276,6.307,3.585
						c4.045,2.341,9.826,5.856,16.784,10.522c6.89,4.753,14.944,10.701,23.191,18.173c8.242,7.458,16.645,16.49,24.077,27.022
						c7.452,10.516,13.15,21.478,17.303,31.8c1.121,2.55,1.987,5.123,2.864,7.606c0.437,1.242,0.867,2.465,1.291,3.67
						c0.412,1.208,0.733,2.417,1.093,3.594c1.382,4.722,2.669,9.12,3.844,13.135c0.562,2.014,1.175,3.909,1.607,5.742
						c0.452,1.827,0.879,3.549,1.278,5.16c0.786,3.224,1.463,6,2.017,8.27C373.735,144.154,374.334,146.667,374.334,146.667z"/>
				</g>
			</g>
		</g>
		<g opacity="0.3">
			<g>
				<g>
					<path fill="#FFFFFF" d="M417,150.665c0,0,1.504,0.001,4.224,0.003c2.72,0.021,6.654,0.068,11.524,0.337
						c4.864,0.293,10.687,0.762,17.079,2.074c3.198,0.628,6.528,1.507,9.911,2.664c3.393,1.139,6.809,2.611,10.161,4.472
						c6.783,3.737,12.042,8.999,16.077,14.143c3.996,5.208,6.888,10.313,9.1,14.662c2.212,4.354,3.811,7.95,4.908,10.438
						c1.082,2.495,1.681,3.875,1.681,3.875s-0.79-1.279-2.218-3.593c-1.419-2.317-3.447-5.686-6.054-9.751
						c-2.605-4.062-5.852-8.794-9.949-13.548c-4.132-4.691-9.212-9.41-15.435-12.833c-3.119-1.731-6.339-3.189-9.528-4.367
						c-3.185-1.199-6.338-2.188-9.396-2.969c-6.102-1.62-11.774-2.565-16.544-3.334c-4.778-0.747-8.674-1.279-11.363-1.663
						C418.488,150.882,417,150.665,417,150.665z"/>
				</g>
			</g>
		</g>
		<g opacity="0.3">
			<g>
				<g>
					<path fill="#FFFFFF" d="M521,203.999c0,0,1.147-1.075,3.221-3.018c0.524-0.484,1.107-1.023,1.745-1.612
						c0.677-0.541,1.412-1.129,2.202-1.762c1.59-1.256,3.379-2.735,5.527-4.121c1.061-0.718,2.172-1.47,3.33-2.253
						c1.188-0.732,2.45-1.453,3.749-2.217c2.569-1.59,5.489-2.946,8.515-4.485c6.154-2.837,13.133-5.513,20.641-7.685
						c7.522-2.12,14.823-3.561,21.488-4.6c3.345-0.447,6.514-0.917,9.5-1.173c1.49-0.142,2.93-0.279,4.313-0.411
						c1.387-0.092,2.718-0.18,3.987-0.264c2.538-0.184,4.839-0.251,6.857-0.314c2.018-0.076,3.756-0.104,5.179-0.096
						c2.84,0.006,4.411,0.009,4.411,0.009s-1.556,0.212-4.369,0.596c-1.406,0.173-3.125,0.412-5.114,0.714
						c-1.991,0.289-4.258,0.597-6.752,1.02c-1.247,0.197-2.555,0.404-3.916,0.62c-1.356,0.242-2.768,0.493-4.229,0.753
						c-2.927,0.478-6.023,1.151-9.293,1.77c-6.513,1.381-13.628,3.032-20.996,5.108c-7.352,2.127-14.231,4.51-20.392,6.952
						c-3.023,1.339-5.974,2.473-8.59,3.831c-1.327,0.646-2.609,1.269-3.842,1.868c-1.2,0.662-2.352,1.297-3.45,1.904
						c-2.24,1.157-4.136,2.414-5.839,3.472c-0.852,0.531-1.645,1.025-2.374,1.48c-0.698,0.5-1.336,0.957-1.91,1.368
						C522.282,203.093,521,203.999,521,203.999z"/>
				</g>
			</g>
		</g>
		<g opacity="0.3">
			<g>
				<g>
					<path fill="#FFFFFF" d="M650.332,197.998c0,0-1.468,0.414-4.12,1.163c-1.332,0.363-2.961,0.807-4.852,1.322
						c-1.897,0.497-4.048,1.12-6.463,1.618c-9.614,2.238-23.067,4.728-38.082,6.159c-15.022,1.326-28.679,1.424-38.538,1.173
						c-4.931-0.096-8.918-0.372-11.671-0.506c-2.752-0.169-4.274-0.262-4.274-0.262s1.521-0.123,4.271-0.344
						c2.746-0.196,6.72-0.479,11.63-0.829c9.812-0.719,23.328-1.784,38.227-3.099c14.887-1.419,28.342-2.927,38.09-4.202
						c2.447-0.257,4.635-0.64,6.57-0.912c1.936-0.277,3.603-0.516,4.966-0.711C648.819,198.201,650.332,197.998,650.332,197.998z"/>
				</g>
			</g>
		</g>
		<g opacity="0.3">
			<g>
				<g>
					<path fill="#FFFFFF" d="M704.332,266.665c0,0-1.798,0.08-5.05,0.227c-1.627,0.061-3.619,0.135-5.931,0.221
						c-1.157,0.035-2.395,0.073-3.706,0.113c-1.312,0.008-2.697,0.017-4.152,0.026c-2.912,0-6.102,0-9.525,0
						c-3.419-0.061-7.071-0.126-10.916-0.195c-3.842-0.098-7.875-0.2-12.056-0.306c-2.094-0.077-4.208-0.097-6.383-0.243
						c-2.178-0.162-4.387-0.326-6.622-0.493c-8.903-0.848-17.29-2.146-24.862-3.418c-3.786-0.629-7.384-1.228-10.751-1.788
						c-3.364-0.557-6.503-0.992-9.369-1.454c-5.739-0.749-10.401-1.378-13.642-1.575c-3.242-0.29-5.035-0.45-5.035-0.45
						s1.8-0.056,5.055-0.157c3.265-0.166,7.982-0.021,13.817,0.249c2.905,0.222,6.102,0.419,9.514,0.753
						c3.405,0.35,7.057,0.715,10.868,1.176c7.64,0.914,15.994,1.961,24.75,2.794c2.186,0.177,4.345,0.353,6.474,0.526
						c2.132,0.172,4.275,0.235,6.357,0.365c4.176,0.233,8.204,0.467,12.036,0.745c7.661,0.575,14.561,1.092,20.354,1.527
						C697.156,266.147,704.332,266.665,704.332,266.665z"/>
				</g>
			</g>
		</g>
		<g opacity="0.3">
			<g>
				<g>
					<path fill="#FFFFFF" d="M650.332,366.665c0,0-1.115-0.303-3.131-0.851c-1.009-0.268-2.22-0.652-3.653-1.008
						c-1.43-0.36-3.058-0.771-4.857-1.224c-1.805-0.415-3.781-0.869-5.903-1.356c-2.13-0.448-4.406-0.927-6.801-1.431
						c-4.799-0.979-10.09-2.025-15.64-3.268c-5.564-1.283-10.784-2.588-15.538-3.842c-2.388-0.638-4.652-1.26-6.765-1.862
						c-2.096-0.69-4.048-1.332-5.83-1.919c-0.887-0.303-1.733-0.577-2.525-0.869c-0.781-0.324-1.518-0.628-2.207-0.914
						c-1.37-0.58-2.55-1.08-3.514-1.489c-1.912-0.837-2.97-1.301-2.97-1.301s1.128,0.259,3.166,0.727
						c1.012,0.244,2.249,0.543,3.685,0.89c0.715,0.178,1.478,0.369,2.288,0.571c0.82,0.162,1.688,0.333,2.599,0.513
						c1.814,0.37,3.8,0.774,5.932,1.209c2.146,0.39,4.44,0.806,6.854,1.244c4.846,0.901,10.177,1.983,15.679,3.251
						c5.53,1.239,10.802,2.529,15.564,3.874c2.38,0.677,4.629,1.387,6.726,2.054c2.085,0.729,4.024,1.399,5.777,2.062
						c1.734,0.71,3.303,1.352,4.682,1.916c1.37,0.575,2.516,1.162,3.464,1.602C649.293,366.159,650.332,366.665,650.332,366.665z"/>
				</g>
			</g>
		</g>
		<g opacity="0.3">
			<g>
				<g>
					<path fill="#FFFFFF" d="M128.999,235.999c0,0-11.177-1.955-29.248-5.116c-2.257-0.372-4.623-0.762-7.087-1.169
						c-2.471-0.322-5.041-0.658-7.703-1.005c-1.33-0.174-2.682-0.351-4.055-0.53c-1.373-0.187-2.781-0.243-4.202-0.376
						c-2.847-0.211-5.765-0.532-8.78-0.609c-12.028-0.629-25.294-0.441-39.114,0.921c-13.82,1.352-26.865,3.753-38.513,6.787
						c-11.644,3.047-21.927,6.616-30.318,10.212c-1.068,0.407-2.078,0.876-3.061,1.337c-0.987,0.455-1.947,0.897-2.881,1.328
						c-1.857,0.885-3.667,1.611-5.253,2.495c-1.611,0.839-3.111,1.621-4.492,2.34c-1.381,0.721-2.661,1.352-3.748,2.029
						c-4.428,2.59-6.877,4.022-6.877,4.022s2.336-1.617,6.561-4.539c1.043-0.758,2.278-1.476,3.614-2.292
						c1.339-0.812,2.795-1.694,4.358-2.641c1.543-0.99,3.312-1.827,5.132-2.827c0.917-0.487,1.86-0.988,2.828-1.503
						c0.966-0.52,1.961-1.048,3.015-1.515c8.273-4.077,18.525-8.157,30.251-11.604c11.726-3.434,24.959-6.12,39.007-7.493
						c14.047-1.385,27.541-1.329,39.711-0.325c3.049,0.17,6.003,0.593,8.877,0.912c1.434,0.186,2.856,0.298,4.238,0.541
						c1.382,0.238,2.742,0.472,4.079,0.702c2.671,0.47,5.256,0.896,7.725,1.365c2.454,0.532,4.809,1.043,7.057,1.53
						c4.501,0.947,8.529,1.957,12.074,2.818c3.539,0.875,6.588,1.629,9.079,2.245C126.248,235.301,128.999,235.999,128.999,235.999z
						"/>
				</g>
			</g>
		</g>
		<g opacity="0.3">
			<g>
				<g>
					<path fill="#FFFFFF" d="M114.333,351.332c0,0-0.933,0.49-2.619,1.376c-0.846,0.445-1.888,0.976-3.131,1.513
						c-1.24,0.545-2.643,1.213-4.239,1.813c-3.169,1.281-7.017,2.614-11.323,3.921c-4.305,1.303-9.065,2.583-14.036,3.881
						c-4.966,1.308-9.654,2.591-13.876,3.894c-2.091,0.696-4.104,1.31-5.929,2.027c-0.916,0.351-1.828,0.639-2.664,0.999
						c-0.842,0.354-1.649,0.694-2.42,1.019c-1.571,0.605-2.897,1.336-4.116,1.896c-0.6,0.296-1.179,0.542-1.681,0.818
						c-0.502,0.279-0.96,0.534-1.373,0.764c-1.67,0.91-2.594,1.413-2.594,1.413s0.803-0.682,2.255-1.915
						c0.369-0.307,0.778-0.647,1.226-1.02c0.453-0.369,0.981-0.713,1.532-1.112c1.121-0.767,2.359-1.728,3.855-2.567
						c0.741-0.438,1.517-0.897,2.325-1.375c0.81-0.48,1.696-0.885,2.595-1.353c1.793-0.952,3.784-1.785,5.879-2.677
						c4.219-1.689,8.967-3.241,13.995-4.566c5.03-1.313,9.839-2.355,14.203-3.297c4.36-0.945,8.28-1.794,11.554-2.599
						c1.651-0.363,3.11-0.794,4.415-1.121c1.308-0.318,2.417-0.648,3.324-0.921C113.321,351.622,114.333,351.332,114.333,351.332z"
						/>
				</g>
			</g>
		</g>
		<g opacity="0.3">
			<g>
				<g>
					<path fill="#FFFFFF" d="M183.666,401.333c0,0-0.66,0.375-1.851,1.053c-0.598,0.326-1.328,0.725-2.176,1.188
						c-0.846,0.461-1.826,0.94-2.863,1.573c-4.223,2.366-9.924,5.736-16.27,9.396c-6.319,3.712-12.165,6.939-16.464,9.215
						c-4.292,2.284-7.044,3.574-7.044,3.575c0-0.001,2.2-2.091,5.967-5.191c3.771-3.091,9.151-7.175,15.589-10.956
						c6.471-3.734,12.78-6.319,17.446-7.819c1.149-0.417,2.236-0.678,3.177-0.932c0.943-0.24,1.756-0.447,2.421-0.616
						C182.93,401.506,183.666,401.333,183.666,401.333z"/>
				</g>
			</g>
		</g>
		<path fill-rule="evenodd" clip-rule="evenodd" d="M565,306c33.517-0.016,66.64,10.741,99.697,15.777
			c-8.711,2.506-18.974,2.077-27.646,4.278c-9.222,2.34-17.968,5.479-27.075,8.699c-17.144,6.061-33.647,10.294-50.851,17.468
			c9.286,11.262,24.499,20.667,35.625,31.026c13.369,12.448,28.219,24.147,40.924,36.552c-10.909,1.014-26.288-11.564-36.647-14.829
			c-12.86-4.056-25.926-7.221-39.005-11.218c-9.923-3.031-11.065-3.659-11.023-14.754c0.03-8,0-16,0-24c0-14.815-2.378-33.52,4-46"
			/>
		<path opacity="0.3" enable-background="new    " d="M538.333,362.665c-0.361-11.963-5.147-22.798-19.365-16.664
			c-8.588,3.705-17.093,12.907-19.304,21.764c-7.643-8.134-16.501-14.045-23.496-22.969c-3.517-4.486-6.041-9.439-8.001-14.779
			c-2.284-6.224-1.307-14.281-3.97-19.93c-14.839,8.237-25.068,22.897-40.697,30.413c-16.166,7.773-33.908,11.826-50.286,17.546
			c25.687-16.364,15.404-57.809,18.45-84.515c-2.083,11.456-15.708,24.876-22.514,33.75c-0.874-9.551,9.611-18.84,8.415-29.182
			c-5.936-0.287-13.178,9.232-17.882,12.731c-6.126,4.556-12.236,8.974-18.182,13.67c-13.198,10.425-23.384,23.53-35.166,35.23
			c-1.039-2.881-0.609-6.41-0.767-9.629c-6.207,0.735-14.325,10.977-19.067,15.396c-3.077,2.867-6.071,7.85-9.336,10
			c-3.915,2.579-9.823,2.315-14.829,1.832c-8.556-0.824-16.858-5.849-23.835-10.832c-10.556-7.538-13.963-11.271-11.482-24.484
			c2.219-11.812,4.829-23.801,7.314-35.349c2.29-10.644,1.333-22.742,1.333-34c0-24.267-3.783-47.915-2.566-71.899
			c25.382-1.286,47.588,4.917,70.714,14.381c26.49,10.841,54.932,18.602,81.852,28c23.469,8.193,47.969,11.994,71.318,18.833
			c10.906,3.194,22.121,7.241,32.05,12.017c9.154,4.404,16.896,10.978,25.931,15.985c15.556,8.619,30.088,17.352,36.699,34.685
			c6.179,16.202,4.246,33.596,3.336,50.667"/>
	</g>
</g>
</svg>
