<?xml version="1.0" encoding="utf-8"?>
<!-- Generator: Adobe Illustrator 25.0.1, SVG Export Plug-In . SVG Version: 6.00 Build 0)  -->
<svg version="1.1" id="Capa_1" xmlns="http://www.w3.org/2000/svg" xmlns:xlink="http://www.w3.org/1999/xlink" x="0px" y="0px"
	 viewBox="0 0 800 800" enable-background="new 0 0 800 800" xml:space="preserve">
<g id="pelo">
	<g id="Capa_82">
		<path d="M546.155,389.826c-5.095-3.985-13.351-16.065-15.255-21.216c0.169,0.612,0.723,2.878,0.594,2.508
			c-0.996-2.825-3.174-5.434-4.75-8.081c0.322,0.671,0.832,1.627,1.099,2.093c-0.07-2.44-1.219-4.468-1.682-6.793
			c1.181,1.075,2.571,1.817,3.618,3.097c-1.398-2.454-3.507-4.712-4.502-7.494c1.069,1.915,2.519,3.539,4.373,4.089
			c-1.151-2.466-2.342-5.064-4.077-7.303c0.695,2.196,2.639,3.976,4.617,5.002c-0.353-2.656-2.343-4.725-3.771-7.056
			c0.809,0.616,1.822,1.036,2.627,1.627c-0.801-3.418-3.438-7.066-5.252-10.122c0.722,1.269,2.025,2.231,2.876,3.225
			c0.073-4.173-3.241-7.797-4.75-11.588c-0.214-0.221-0.22-0.214-0.017,0.018c1.124,1.378,2.534,2.475,3.751,3.795
			c-0.881-2.518-2.56-4.558-4.19-6.617c1.049,2.389,3.142,4.665,5.22,6.162c-0.699-2.607-2.615-5.534-3.916-8.067
			c3.132,2.528,6.663,4.826,9.975,7.349c-2.089-2.571-3.736-5.17-5.133-8.068c1.988,0.955,3.744,2.597,5.414,4.107
			c-1.444-1.708-3.062-3.686-4.4-5.176c0.937,1.96,2.652,3.475,4.503,4.587c-0.067-3.357-2.27-6.294-4.05-9.093
			c0.635,0.792,1.693,1.425,2.289,2.05c0.41-2.943-1.066-5.391-2.274-7.964c0.751,2.247,2.657,4.286,4.619,5.617
			c-0.057-2.007-0.911-4.052-2.286-5.603c0.888,1.543,1.624,2.226,2.506,3.802c4.45,2.109,7.405-2.009,11.638-2.834
			c4.926-0.96,9.597,1.037,14.087,1.171c6.449,0.194,21.028-2.628,25.587-7.11c-6.058,9.125-13.214,5.785-22.685,8.139
			c-3.162,0.786-8.933,1.343-11.574,3.214c-3.242,2.295-2.368,8.426-8.174,6.913c3.354,0.912,8.319,1.576,10.771-1.79
			c-3.879,0.649-6.489,5.29-9.728,6.936c6.923,0.514,12.799,1.601,19.322,2.48c4.637,0.625,15.444,2.809,18.119-2.244
			c-2.485,0.927-4.524,3.842-7.099,5.048c-3.64,1.706-6.981,1.058-11.021,1.305c-3.287,0.201-7.185,0.633-10.124,2.171
			c-3.298,1.728-3.552,4.451-7.894,4.287c9.523,1.572,16.876,8.266,26.907,8.216c-3.035,1.524-13.297,2.321-17.517,1.175
			c2.753,0.424,8.067,1.579,9.685,4.221c2.044,3.34,0.018,6.66,3.197,10.301c4.317,4.947,12.773,10.351,19.046,10.707
			c-7.546-1.21-16.994-2.003-21.541-8.242c-4.069-5.583-9.567-14.676-18.677-12.781c-3.393,5.746-0.083,12.27,5.034,15.889
			c4.949,3.497,16.028-1.806,14.729,6.809c-2.439,0.32-3.375-1.435-5.326-1.539c-2.506-0.135-4.339,1.05-6.31,1.055
			c-4.671,0.009-7.122-1.716-10.603-4.504c0.421,4.062,8.616,11.94,11.263,13.291c-4.111,0.088-11.091-2.973-13.365-6.495
			c1.417,1.061,2.775,2.146,3.754,3.521c0.198-1.738-0.624-2.095-1.625-3.479"/>
		<path d="M237.238,316.897c-8.552-6.422-17.415-0.208-25.499,2.509c-9.536,3.203-22.491,1.686-31.564-1.291
			c4.698,6.688,17.047,4.118,24.081,4.576c4.715,10.302,11.672,1.516,17.507,0.494c-3.797,3.137-6.98,5.527-11.169,7.609
			c-5.508,2.737-8.904,1.74-15.14,1.895c2.561-0.188,4.229,1.33,3.885,4.323c3.003,0.796,6.106,1.167,8.87-0.473
			c1.374,5.452-4.425,6.174-6.006,10.183c-2.144,5.436,0.139,6.612-4.593,10.47c11.643,1.048,11.025-16.062,20.281-17.445
			c-1.363,3.469-4.845,5.21-6.04,9.501c-1.215,4.365-0.523,7.889-2.804,12.034c-3.418,6.215-8.768,12.827-14.699,16.306
			c4.425-3.787,8.52-6.433,12.414-10.626c3.3-3.553,8.014-10.132,12.813-10.18c0.384,3.143-0.406,5.903-0.96,8.653
			c2.179,0.142,4.453,0.044,6.63,0.189c0.756,6.497-9.318,20.984-12.882,26.178c6.618-5.175,14.662-15.513,17.628-23.609
			c4.065-11.092,4.599-20.144,13.257-29.251c-3.687,3.929-7.298,7.546-9.893,12.471c2.169-3.251,4.931-6.684,7.752-9.172
			c-0.379,1.538-1.119,3.311-2.194,4.751c0.496-3.918,3.993-7.455,6.034-10.578c-1.601,1.194-3.242,2.582-4.762,3.787
			c-0.122-3.106,2.083-5.142,3.659-7.541c-1.258,0.679-2.502,0.87-3.672,1.843c0.716-3.237,2.879-6.062,4.224-9.314
			c-1.422,0.709-3.342,1.911-4.789,2.998c0.666-1.93,1.96-3.938,2.789-5.983c-0.69,0.558-1.579,1.076-2.224,1.562
			c0.793-4.467,4.167-9.845,6.08-14.255c-1.77,1.872-3.429,4.256-4.933,6.059c-0.199-5.52,4.479-10.446,6.607-14.995
			c-2.991,2.492-5.297,6.668-8.308,9.311c0.239-2.069,0.26-3.66,1.645-5.363c-2.415,2.899-3.899,6.786-4.592,10.48"/>
	</g>
</g>
</svg>
