<?xml version="1.0" encoding="utf-8"?>
<!-- Generator: Adobe Illustrator 25.0.1, SVG Export Plug-In . SVG Version: 6.00 Build 0)  -->
<svg version="1.1" id="Capa_1" xmlns="http://www.w3.org/2000/svg" xmlns:xlink="http://www.w3.org/1999/xlink" x="0px" y="0px"
	 viewBox="0 0 800 800" enable-background="new 0 0 800 800" xml:space="preserve">
<g id="pelo">
	<g id="Capa_83">
		<path opacity="0.3" enable-background="new    " d="M381.667,276.333c2.901,11.51,7.267,22.436,12.518,33.136
			c3.841-13.252,12.417-26.166,16.795-39.155c4.984-14.786,4.686-33.435,4.686-49.779c-1.374,10.864-5.902,23.307-9.479,33.652
			c-4.061,11.748-10.991,19.354-23.188,22.146"/>
		<g>
			<path d="M389.523,303.402c1.453-7.001-3.411-13.14-6.909-19.415c-3.732-6.697-4.653-13.745-8.667-19.833
				c1.18,0.839,3.355,1.669,4.292,2.378c-1.609-9.104-13.902-17.786-16.836-27.259c1.272,1.477,2.889,2.302,4.472,3.618
				c-2.204-9.584-10.218-18.509-11.423-27.9c-1.399-10.905-2.054-21.016-3.41-31.412c-2.747-21.052-0.83-44.396,4.456-65.112
				c2.374-9.302,6.596-18.831,7.266-28.537c0.488,0.815,0.894,1.392,1.069,2.242c10.297-14.837,12.507-31.588,15.146-48.216
				c8.483,9.119,12.144,24.492,16.217,34.951c5.531,14.199,5.584,28.507,6.937,43.217c3.19-3.052,5.378-10.584,4.618-13.326
				c-1.105,13.377,9.148,26.483,10.982,40.226c1.866,13.994,4.789,30.809,1.938,44.793c-0.697,0.702,0.897-0.886,1.205-1.181
				c-0.719,12.127-2.204,23.501-4.494,35.053c-1.825,9.203-0.339,25.597-6.587,32.7c0.018-0.626,0.119-1.275,0.056-1.9
				c-0.548,17.495-9.56,32.199-18.227,48.067c0.629-1.381-0.845-2.526-0.988-3.143"/>
			<g opacity="0.3">
				<g>
					<g>
						<path fill="#FFFFFF" d="M386.861,264.999c0,0,0.09,0.343,0.253,0.96c0.063,0.306,0.171,0.672,0.33,1.088
							c0.142,0.418,0.29,0.888,0.522,1.391c0.387,1.019,1.008,2.173,1.661,3.456c0.692,1.277,1.469,2.679,2.247,4.204
							c0.78,1.529,1.446,3.059,1.954,4.5c0.474,1.462,0.83,2.811,0.933,3.989c0.089,0.576,0.09,1.112,0.091,1.575
							c0.017,0.461-0.01,0.858-0.063,1.182c-0.089,0.636-0.139,0.989-0.139,0.989s-0.09-0.343-0.252-0.959
							c-0.063-0.306-0.171-0.672-0.33-1.088c-0.142-0.418-0.29-0.888-0.522-1.391c-0.387-1.019-1.007-2.173-1.66-3.456
							c-0.692-1.277-1.469-2.679-2.247-4.204c-0.78-1.529-1.446-3.059-1.954-4.5c-0.474-1.462-0.83-2.811-0.934-3.988
							c-0.089-0.576-0.09-1.112-0.091-1.576c-0.017-0.461,0.01-0.858,0.063-1.182C386.811,265.352,386.861,264.999,386.861,264.999z
							"/>
					</g>
				</g>
			</g>
			<g opacity="0.3">
				<g>
					<g>
						<path fill="#FFFFFF" d="M413.568,244.332c0,0-0.285,0.438-0.799,1.231c-0.515,0.795-1.308,1.908-2.323,3.258
							c-1.021,1.342-2.282,2.905-3.7,4.597c-1.416,1.697-2.997,3.517-4.544,5.472c-1.553,1.951-2.917,3.86-4.003,5.697
							c-1.023,1.86-1.841,3.615-2.325,5.178c-0.309,0.766-0.422,1.501-0.61,2.134c-0.191,0.635-0.27,1.198-0.35,1.658
							c-0.171,0.928-0.265,1.441-0.265,1.441s-0.045-0.522-0.127-1.464c-0.037-0.475-0.094-1.06-0.046-1.736
							c0.044-0.675,0.008-1.466,0.174-2.312c0.197-1.72,0.764-3.729,1.66-5.857c0.953-2.098,2.298-4.255,3.928-6.301
							c1.626-2.054,3.36-3.806,4.958-5.353c1.603-1.545,3.079-2.88,4.325-4.003C412.019,245.726,413.568,244.332,413.568,244.332z"
							/>
					</g>
				</g>
			</g>
			<g opacity="0.3">
				<g>
					<g>
						<path fill="#FFFFFF" d="M374.62,226.999c0,0,1.414,1.788,3.483,4.83c2.052,3.049,4.727,7.383,7.128,12.465
							c2.365,5.1,3.991,9.95,4.883,13.53c0.497,1.773,0.708,3.265,0.92,4.269c0.18,1.012,0.279,1.573,0.279,1.573
							s-0.233-0.521-0.654-1.461c-0.436-0.934-0.943-2.318-1.729-3.969c-1.473-3.338-3.642-7.855-5.969-12.876
							c-2.365-5.006-4.456-9.58-5.952-12.92C375.495,229.109,374.62,226.999,374.62,226.999z"/>
					</g>
				</g>
			</g>
			<g opacity="0.3">
				<g>
					<g>
						<path fill="#FFFFFF" d="M361.266,194.332c0,0,0.25,0.508,0.701,1.425c0.458,0.918,1.029,2.286,1.703,3.98
							c1.35,3.369,2.904,8.188,5.444,12.76c1.39,2.151,3.099,4.195,4.542,6.104c1.462,1.915,2.731,3.729,3.605,5.379
							c0.883,1.643,1.388,3.085,1.583,4.105c0.134,0.498,0.144,0.908,0.184,1.173c0.029,0.267,0.043,0.407,0.043,0.407
							s-0.051-0.132-0.148-0.384c-0.106-0.247-0.209-0.625-0.45-1.071c-0.408-0.916-1.167-2.151-2.262-3.546
							c-1.089-1.403-2.545-2.951-4.172-4.699c-1.624-1.77-3.45-3.665-5.07-6.168c-2.844-5.142-3.736-10.165-4.5-13.703
							C361.727,196.539,361.266,194.332,361.266,194.332z"/>
					</g>
				</g>
			</g>
			<g opacity="0.3">
				<g>
					<g>
						<path fill="#FFFFFF" d="M359.041,173.665c0,0,0.24,0.503,0.674,1.412c0.437,0.91,0.997,2.259,1.623,3.951
							c1.267,3.382,2.575,8.193,3.838,13.443c1.262,5.251,2.579,9.901,3.852,13.212c0.639,1.647,1.181,2.99,1.615,3.889
							c0.41,0.918,0.637,1.426,0.637,1.426s-0.347-0.436-0.973-1.225c-0.64-0.785-1.467-1.993-2.41-3.546
							c-0.916-1.565-1.929-3.494-2.806-5.732c-0.887-2.233-1.701-4.752-2.352-7.423c-1.287-5.35-1.964-10.212-2.613-13.716
							c-0.317-1.752-0.574-3.179-0.786-4.157C359.148,174.212,359.041,173.665,359.041,173.665z"/>
					</g>
				</g>
			</g>
			<g opacity="0.3">
				<g>
					<g>
						<path fill="#FFFFFF" d="M362.379,140.999c0,0,0.103,0.735,0.288,2.064c0.085,0.661,0.188,1.47,0.308,2.409
							c0.133,0.936,0.188,2.005,0.455,3.169c0.791,4.685,2.231,11.035,4.077,18.025c1.896,6.98,3.54,13.374,4.555,18.052
							c0.992,4.686,1.445,7.614,1.445,7.614s-1.061-2.773-2.651-7.268c-1.614-4.49-3.855-10.689-5.775-17.756
							c-1.874-7.089-2.73-13.737-2.9-18.544c-0.112-1.195-0.011-2.293,0.002-3.246c0.036-0.953,0.067-1.774,0.092-2.445
							C362.342,141.738,362.379,140.999,362.379,140.999z"/>
					</g>
				</g>
			</g>
			<g opacity="0.3">
				<g>
					<g>
						<path fill="#FFFFFF" d="M369.057,110.999c0,0,0.059,0.743,0.164,2.084c0.102,1.344,0.18,3.294,0.206,5.698
							c0.072,4.814-0.185,11.437-0.227,18.666c0.007,3.615,0.135,7.038,0.392,10.144c0.21,1.535,0.299,3.025,0.583,4.376
							c0.118,0.683,0.231,1.343,0.34,1.977c0.154,0.624,0.301,1.223,0.442,1.795c0.241,1.163,0.601,2.167,0.896,3.064
							c0.146,0.45,0.282,0.87,0.407,1.255c0.161,0.372,0.307,0.711,0.439,1.017c0.521,1.238,0.81,1.923,0.81,1.923
							s-0.413-0.621-1.158-1.743c-0.185-0.285-0.391-0.601-0.616-0.948c-0.188-0.367-0.392-0.765-0.611-1.193
							c-0.438-0.859-0.958-1.839-1.359-2.989c-0.218-0.571-0.447-1.169-0.685-1.792c-0.185-0.64-0.378-1.305-0.577-1.994
							c-0.44-1.376-0.673-2.889-1.008-4.473c-0.505-3.185-0.795-6.722-0.802-10.42c0.045-7.398,0.932-13.979,1.483-18.732
							C368.719,113.95,369.057,110.999,369.057,110.999z"/>
					</g>
				</g>
			</g>
			<g opacity="0.3">
				<g>
					<g>
						<path fill="#FFFFFF" d="M375.733,70.332c0,0-0.091,0.61-0.255,1.711c-0.089,0.545-0.198,1.212-0.324,1.986
							c-0.117,0.774-0.324,1.634-0.388,2.622c-0.478,3.904-0.871,9.27-1.108,15.238c-0.194,5.972-0.422,11.42-0.688,15.376
							c-0.274,3.956-0.575,6.399-0.575,6.399s-0.326-2.442-0.679-6.385c-0.36-3.943-0.762-9.411-0.565-15.489
							c0.24-6.085,1.28-11.561,2.387-15.396c0.221-0.971,0.584-1.812,0.846-2.56c0.279-0.741,0.521-1.379,0.717-1.901
							C375.508,70.903,375.733,70.332,375.733,70.332z"/>
					</g>
				</g>
			</g>
			<g opacity="0.3">
				<g>
					<g>
						<path fill="#FFFFFF" d="M389.087,106.999c0,0-0.222-0.523-0.621-1.468c-0.367-0.957-1.008-2.324-1.549-4.09
							c-1.092-3.525-2.176-8.583-2.411-14.218c-0.204-5.629,0.207-10.682,0.565-14.324C385.423,69.256,385.75,67,385.75,67
							s0.3,2.258,0.576,5.916c0.269,3.656,0.488,8.691,0.688,14.199c0.231,5.506,0.664,10.445,1.128,14.051
							C388.725,104.765,389.087,106.999,389.087,106.999z"/>
					</g>
				</g>
			</g>
			<g opacity="0.3">
				<g>
					<g>
						<path fill="#FFFFFF" d="M381.297,45.666c0,0,0.237,1.977,0.424,5.208c0.273,3.244,0.13,7.689-0.288,12.578
							c-0.414,4.855-1.181,9.222-1.532,12.392c-0.438,3.172-0.83,5.156-0.83,5.156s-0.236-1.977-0.424-5.208
							c-0.273-3.244-0.129-7.689,0.288-12.578c0.414-4.856,1.181-9.222,1.532-12.392C380.906,47.649,381.297,45.666,381.297,45.666z
							"/>
					</g>
				</g>
			</g>
			<g opacity="0.3">
				<g>
					<g>
						<path fill="#FFFFFF" d="M394.651,130.332c0,0-1.107-1.966-2.81-5.164c-1.689-3.205-4.008-7.659-5.925-12.905
							c-0.941-2.628-1.676-5.202-2.163-7.589c-0.455-2.396-0.734-4.582-0.744-6.433c-0.007-0.46-0.013-0.898-0.02-1.313
							c0.025-0.415,0.049-0.806,0.071-1.172c0.039-0.729,0.093-1.353,0.194-1.86c0.174-1.005,0.27-1.562,0.27-1.562
							s0.044,0.562,0.122,1.575c0.016,0.503,0.101,1.115,0.208,1.821c0.048,0.352,0.099,0.728,0.153,1.126
							c0.079,0.396,0.162,0.813,0.249,1.252c0.314,1.752,0.888,3.798,1.549,6.048c0.695,2.247,1.552,4.688,2.471,7.255
							c1.872,5.122,3.604,9.809,4.721,13.268C394.126,128.133,394.65,130.332,394.651,130.332z"/>
					</g>
				</g>
			</g>
			<g opacity="0.3">
				<g>
					<g>
						<path fill="#FFFFFF" d="M392.426,164.999c0,0,0.607-2.378,1.712-6.155c1.082-3.787,2.619-8.97,4.174-14.69
							c1.501-5.734,2.569-10.983,3.224-14.849c0.328-1.929,0.468-3.511,0.648-4.604c0.165-1.096,0.257-1.702,0.257-1.702
							s0.048,0.61,0.135,1.711c0.056,1.102,0.228,2.71,0.211,4.696c-0.031,3.967-0.506,9.501-2.049,15.389
							c-1.595,5.867-3.753,10.914-5.426,14.491C393.615,162.857,392.426,164.999,392.426,164.999z"/>
					</g>
				</g>
			</g>
			<g opacity="0.3">
				<g>
					<g>
						<path fill="#FFFFFF" d="M409.118,148.332c0,0-0.23,0.507-0.646,1.423c-0.433,0.907-1.03,2.245-1.879,3.83
							c-1.68,3.183-4.221,7.456-7.306,11.942c-3.068,4.493-5.984,8.435-8.023,11.363c-1.054,1.444-1.801,2.676-2.392,3.494
							c-0.579,0.825-0.9,1.282-0.9,1.282s0.197-0.521,0.551-1.461c0.383-0.928,0.861-2.323,1.653-3.94
							c1.515-3.276,3.954-7.636,7.038-12.152c3.097-4.502,6.128-8.382,8.323-11.206c1.096-1.415,1.984-2.561,2.598-3.354
							C408.769,148.767,409.118,148.332,409.118,148.332z"/>
					</g>
				</g>
			</g>
			<g opacity="0.3">
				<g>
					<g>
						<path fill="#FFFFFF" d="M406.892,162.332c0,0-0.009,0.561-0.023,1.573c-0.008,0.256-0.016,0.54-0.024,0.852
							c-0.038,0.308-0.08,0.641-0.125,1c-0.095,0.719-0.188,1.55-0.411,2.435c-0.103,0.447-0.209,0.916-0.32,1.404
							c-0.129,0.482-0.285,0.976-0.438,1.491c-0.294,1.04-0.702,2.106-1.121,3.237c-0.876,2.238-1.965,4.639-3.173,7.086
							c-1.195,2.453-2.38,4.745-3.35,6.862c-0.947,2.121-1.764,4.056-2.23,5.746c-0.127,0.422-0.248,0.825-0.362,1.206
							c-0.077,0.388-0.15,0.755-0.219,1.097c-0.072,0.346-0.139,0.668-0.2,0.965c-0.058,0.298-0.059,0.573-0.089,0.821
							c-0.101,1.003-0.156,1.559-0.156,1.559s-0.084-0.555-0.236-1.558c-0.028-0.253-0.091-0.538-0.1-0.848
							c-0.003-0.312-0.006-0.65-0.009-1.013c0-0.367,0.001-0.759,0.001-1.175c0.044-0.412,0.092-0.847,0.141-1.304
							c0.177-1.845,0.728-3.98,1.494-6.28c0.787-2.294,1.859-4.711,3.062-7.181c1.217-2.465,2.423-4.751,3.492-6.843
							c0.513-1.051,1.037-2.04,1.453-2.988c0.22-0.473,0.432-0.929,0.635-1.367c0.184-0.446,0.358-0.874,0.526-1.283
							c0.365-0.813,0.602-1.574,0.837-2.242c0.117-0.335,0.227-0.647,0.328-0.934c0.076-0.293,0.146-0.562,0.208-0.803
							C406.745,162.872,406.892,162.332,406.892,162.332z"/>
					</g>
				</g>
			</g>
			<g opacity="0.3">
				<g>
					<g>
						<path fill="#FFFFFF" d="M413.568,181.665c0,0-0.096,0.516-0.269,1.446c-0.202,0.916-0.381,2.265-0.596,3.918
							c-0.458,3.297-0.608,7.972-2.42,13.098c-1.106,2.562-2.517,4.563-3.771,6.407c-1.262,1.823-2.395,3.431-3.229,4.849
							c-0.845,1.412-1.366,2.64-1.622,3.532c-0.157,0.442-0.202,0.8-0.257,1.043c-0.051,0.245-0.077,0.374-0.077,0.374
							s-0.011-0.13-0.03-0.379c-0.015-0.249-0.066-0.625-0.022-1.104c0.028-0.964,0.273-2.373,0.872-3.997
							c0.588-1.629,1.495-3.47,2.564-5.428c1.052-1.946,2.312-4.064,3.24-6.217c1.626-4.568,2.456-9.213,3.529-12.448
							c0.528-1.621,1.018-2.914,1.446-3.768C413.339,182.138,413.568,181.665,413.568,181.665z"/>
					</g>
				</g>
			</g>
			<g opacity="0.3">
				<g>
					<g>
						<path fill="#FFFFFF" d="M409.118,208.332c0,0-0.003,0.47-0.009,1.318c0.006,0.431-0.039,0.949-0.115,1.551
							c-0.059,0.607-0.153,1.295-0.317,2.042c-0.275,1.513-0.793,3.258-1.446,5.16c-0.676,1.889-1.514,3.914-2.45,5.989
							c-0.934,2.055-1.822,4.013-2.632,5.795c-0.365,0.896-0.763,1.738-1.052,2.547c-0.157,0.403-0.309,0.792-0.454,1.166
							c-0.126,0.38-0.247,0.745-0.363,1.093c-0.258,0.695-0.413,1.341-0.568,1.91c-0.079,0.286-0.152,0.552-0.22,0.797
							c-0.047,0.249-0.09,0.476-0.129,0.68c-0.168,0.828-0.261,1.287-0.261,1.287s-0.046-0.468-0.13-1.311
							c-0.018-0.214-0.038-0.452-0.059-0.711c0.004-0.26,0.008-0.542,0.013-0.845c0.012-0.608,0.017-1.31,0.128-2.068
							c0.047-0.383,0.096-0.784,0.147-1.201c0.081-0.411,0.165-0.839,0.251-1.282c0.161-0.895,0.439-1.812,0.709-2.792
							c0.598-1.929,1.385-4.001,2.331-6.093c1.904-4.177,3.854-7.752,4.985-10.487c0.307-0.677,0.545-1.301,0.744-1.856
							c0.216-0.552,0.394-1.033,0.501-1.435C408.977,208.778,409.118,208.332,409.118,208.332z"/>
					</g>
				</g>
			</g>
			<g opacity="0.3">
				<g>
					<g>
						<path fill="#FFFFFF" d="M404.666,223.665c0,0,0.1,0.441,0.279,1.234c0.092,0.4,0.19,0.894,0.249,1.472
							c0.066,0.578,0.17,1.242,0.183,1.976c0.094,1.473,0.029,3.23-0.178,5.162c-0.228,1.925-0.61,4.016-1.132,6.157
							c-1.064,4.273-2.253,7.996-2.902,10.775c-0.331,1.385-0.588,2.523-0.716,3.318c-0.151,0.798-0.235,1.24-0.235,1.24
							s-0.056-0.448-0.157-1.255c-0.107-0.813-0.162-1.997-0.137-3.464c0.036-2.937,0.652-6.965,1.709-11.206
							c0.526-2.104,1.027-4.107,1.484-5.932c0.426-1.817,0.793-3.461,1.011-4.863c0.142-0.7,0.194-1.338,0.275-1.902
							c0.088-0.565,0.127-1.053,0.153-1.454C404.626,224.114,404.666,223.665,404.666,223.665z"/>
					</g>
				</g>
			</g>
			<g opacity="0.3">
				<g>
					<g>
						<path fill="#FFFFFF" d="M391.312,198.999c0,0-0.083,1.773-0.442,4.602c-0.367,2.826-1.038,6.686-1.97,10.858
							c-0.913,4.174-1.762,7.922-2.315,10.689c-0.288,1.38-0.429,2.512-0.594,3.296c-0.155,0.786-0.242,1.222-0.242,1.222
							s-0.053-0.439-0.15-1.231c-0.07-0.794-0.242-1.956-0.265-3.39c-0.069-2.867,0.182-6.862,1.114-11.121
							c0.95-4.249,2.23-7.955,3.203-10.622C390.616,200.636,391.312,198.999,391.312,198.999z"/>
					</g>
				</g>
			</g>
			<g opacity="0.3">
				<g>
					<g>
						<path fill="#FFFFFF" d="M369.057,182.332c0,0,0.766,1.479,1.833,3.905c1.044,2.401,2.481,5.707,4.067,9.357
							c0.789,1.804,1.617,3.465,2.396,4.97c0.415,0.733,0.782,1.457,1.194,2.085c0.379,0.656,0.775,1.234,1.15,1.759
							c0.351,0.549,0.734,0.987,1.056,1.395c0.162,0.204,0.313,0.395,0.452,0.57c0.153,0.162,0.294,0.309,0.42,0.442
							c0.506,0.548,0.787,0.852,0.787,0.852s-0.368-0.194-1.031-0.545c-0.167-0.092-0.352-0.194-0.554-0.307
							c-0.189-0.132-0.393-0.275-0.613-0.429c-0.437-0.315-0.955-0.666-1.446-1.136c-0.518-0.448-1.065-0.963-1.591-1.57
							c-0.563-0.583-1.071-1.27-1.618-1.992c-1.037-1.472-2.065-3.179-2.891-5.067c-1.679-3.774-2.497-7.399-2.977-10.015
							C369.219,183.983,369.057,182.332,369.057,182.332z"/>
					</g>
				</g>
			</g>
			<g opacity="0.3">
				<g>
					<g>
						<path fill="#FFFFFF" d="M382.41,174.999c0,0-0.02,1.055-0.223,2.66c-0.075,0.809-0.31,1.73-0.403,2.779
							c-0.132,1.04-0.326,2.162-0.61,3.322c-0.355,2.349-1.046,4.436-1.353,6.012c-0.388,1.563-0.75,2.56-0.75,2.56
							s-0.267-0.987-0.503-2.631c-0.319-1.646-0.239-3.94,0.145-6.432c0.297-1.221,0.658-2.367,1.029-3.389
							c0.334-1.035,0.874-1.879,1.252-2.609C381.804,175.829,382.41,174.999,382.41,174.999z"/>
					</g>
				</g>
			</g>
			<g opacity="0.3">
				<g>
					<g>
						<path fill="#FFFFFF" d="M376.846,156.999c0,0,0.032,0.315,0.088,0.88c0.015,0.278,0.062,0.619,0.122,1.009
							c0.049,0.39,0.112,0.829,0.211,1.311c0.33,1.931,1.043,4.485,1.822,7.349c0.78,2.863,1.402,5.544,1.754,7.531
							c0.359,1.985,0.453,3.254,0.453,3.254s-0.688-1.066-1.639-2.843c-0.942-1.778-2.172-4.285-2.991-7.289
							c-0.821-3.001-0.954-5.92-0.654-7.977c0.057-0.514,0.151-0.975,0.25-1.375c0.087-0.4,0.178-0.739,0.281-1.012
							C376.738,157.298,376.846,156.999,376.846,156.999z"/>
					</g>
				</g>
			</g>
			<g opacity="0.3">
				<g>
					<g>
						<path fill="#FFFFFF" d="M386.861,146.332c0,0-0.037,0.298-0.104,0.835c-0.085,0.532-0.179,1.327-0.416,2.265
							c-0.456,1.882-1.336,4.415-2.6,6.985c-1.243,2.573-2.508,4.778-3.34,6.461c-0.454,0.829-0.701,1.544-0.956,2.026
							c-0.241,0.489-0.375,0.761-0.375,0.761s-0.003-0.3-0.009-0.84c0.025-0.536-0.027-1.354,0.139-2.312
							c0.252-1.944,1.012-4.566,2.281-7.189c1.283-2.609,2.683-4.779,3.702-6.38c0.506-0.804,0.918-1.457,1.203-1.91
							C386.692,146.583,386.861,146.332,386.861,146.332z"/>
					</g>
				</g>
			</g>
			<g opacity="0.3">
				<g>
					<g>
						<path fill="#FFFFFF" d="M381.297,124.332c0,0,0.353,1.57,0.729,4.087c0.333,2.513,0.875,5.985,1.08,9.839
							c0.206,3.875,0.122,7.396-0.171,9.956c-0.25,2.554-0.525,4.119-0.525,4.119s-0.353-1.57-0.729-4.086
							c-0.333-2.513-0.875-5.985-1.08-9.839c-0.206-3.874-0.122-7.395,0.17-9.955C381.022,125.897,381.297,124.332,381.297,124.332z
							"/>
					</g>
				</g>
			</g>
			<g opacity="0.3">
				<g>
					<g>
						<path fill="#FFFFFF" d="M379.072,108.999c0,0,1.255,7.759,1.255,17.333s-1.255,17.333-1.255,17.333s-1.254-7.759-1.254-17.333
							S379.072,108.999,379.072,108.999z"/>
					</g>
				</g>
			</g>
		</g>
	</g>
</g>
</svg>
