<?xml version="1.0" encoding="utf-8"?>
<!-- Generator: Adobe Illustrator 25.0.1, SVG Export Plug-In . SVG Version: 6.00 Build 0)  -->
<svg version="1.1" id="Capa_1" xmlns="http://www.w3.org/2000/svg" xmlns:xlink="http://www.w3.org/1999/xlink" x="0px" y="0px"
	 viewBox="0 0 800 800" enable-background="new 0 0 800 800" xml:space="preserve">
<g id="ojos">
	<g id="_x35_">
		<path opacity="0.3" enable-background="new    " d="M382.666,369.668c-0.341-0.589-0.729-1.133-1.14-1.657
			c0.056,0.014,0.113,0.029,0.169,0.043c0.648,0.163,1.385,0.413,2.023,0.652c-1.095-0.771-2.285-1.485-3.519-2.169
			c-4.464-4.391-11.463-6.257-17.387-7.941c-5.997-2.361-11.499-3.346-18.561-3.346c-15.807,0-32.761-2.037-46.25,5.749
			c-4.181,2.414-7.258,5.259-11,8.251l0.792-0.23c-4.505,4.04-7.258,8.414-9.7,14.261c4.012-2.853,7.077-5.368,11.65-7.037
			c3.182-1.162,10.768-2.776,11.506-6.918c0.551,3.26-3.444,5.458-5.437,7.487c-2.695,2.744-3.171,6.259-2.506,10.133
			c1.017,5.924,7.517,11.997,12.756,14.75c12.588,6.616,31.201,4.041,42.181-4.256c0.952-0.72,1.957-1.411,2.997-2.066
			c-0.088-0.042-0.176-0.077-0.265-0.124c-13.033-6.872-29.065-7.886-43.474-6.249c-7.042,0.8-6.965-10.209,0-11
			c15.785-1.793,32.977-0.132,47.394,6.941c0.661,0.495,1.339,0.956,2.054,1.343c-0.079-0.148-0.167-0.288-0.251-0.432
			c0.043,0.026,0.089,0.052,0.133,0.078c-0.048-0.034-0.097-0.065-0.145-0.1c-2.637-4.521-7.215-7.399-6.351-13.498
			c1.442-10.177,18.328-3.703,22.926,1.074c3.258,3.385,6.16,7.451,6.408,12.26c0.281,5.45-0.898,11.203-0.593,16.307
			c0.565-1.086,0.974-2.611,1.332-3.975c1.266-4.814,1.747-9.582,2.927-14.324C384.581,378.661,385.418,374.424,382.666,369.668z
			 M353.177,383.538c-0.569-0.353-1.129-0.695-1.653-1.019c-0.234-0.401-0.463-0.809-0.689-1.219
			C351.602,382.068,352.378,382.824,353.177,383.538z"/>
		<path opacity="0.3" enable-background="new    " d="M463.584,368.589c5.903,1.475,13.004,2.724,16.863,7.384
			c-0.379-5.778-8.67-11.036-12.87-13.947c-3.512-2.434-8.794-6.53-13.327-6.525c-10.451,0.011-21.956,7.534-23.474,19.472
			c0.664-1.226,1.525-2.375,2.585-3.384c6.925-6.593,19.984-5.814,28.461-3.46C462.394,368.286,462.982,368.439,463.584,368.589z"/>
		<path opacity="0.3" enable-background="new    " d="M472.75,319c-14.176-0.75-28.865,4.506-37.182,16.556
			c-0.162,0.234-0.317,0.47-0.478,0.705c-6.823,8.008-13.367,16.344-20.652,24.177c-4.033,4.336-8.075,7.864-12.67,11.254
			c4.534-0.525,12.696-4.802,15.492-8.605c-1.465,5.592-7.196,10.851-11.477,14.376c3.957-1.624,7.844-4.241,11.661-6.281
			c4.15-2.218,7.415-4.083,9.761-8.164c-2.196,6.021-9.79,9.693-10.899,16.038c-1.28,7.323,4.32,13.254,10.749,15.889
			c7.018,2.876,15.329,2.556,23.195,2.556c7.032,0,15.547-0.551,20.938-5.061c2.443-2.045,4.934-4.869,6.726-7.964
			c-10.591,4.645-20.888-4.958-31.388,0.024c-1.194,0.567-2.361,0.694-3.427,0.507c1.18,3.391-0.411,7.58-4.85,6.994
			c-8.241-1.089-10.825-9.228-8.052-15.812c0.31-5.416,3.737-11.343,6.233-15.257c3.585-5.622,7.896-10.81,11.763-16.236
			c3.554-4.987,8.213-11.596,14.361-12.889c6.302-1.325,16.909-0.571,17.694,7.194c0.216,2.135-0.295,4.112-1.234,5.906
			c3.052-3.796,6.434-7.679,6.734-12.406C486.219,325.14,479.764,319.371,472.75,319z M415.25,361.25l18.506-22.987
			C428.285,346.625,423.774,355.086,415.25,361.25z"/>
		<path opacity="0.3" enable-background="new    " d="M479.016,344.906c-1.007,1.253-1.978,2.496-2.79,3.757
			C477.342,347.535,478.3,346.272,479.016,344.906z"/>
		<path opacity="0.3" enable-background="new    " d="M357.756,386.614c0.973,0.891,1.442,1.996,1.512,3.135
			c0.56,0.002,1.127-0.011,1.707-0.049C360.145,388.609,359.011,387.58,357.756,386.614z"/>
		<g>
			<path fill="#EDEDE2" d="M360.834,389.877c-2.308,1.125-4.33,3.078-6.792,4.14c-2.628,1.13-5.374,2.11-8.01,2.935
				c-5.791,1.81-11.776,3.64-17.807,3.745c-8.894,0.152-23.786-6.71-21.718-19.014c1.663-0.275,2.665,0.847,4.068,1.281
				c1.581,0.491,3.295,0.577,4.977,0.633c3.296,0.108,6.351,1.042,9.504,1.503c6.441,0.945,12.738,2.013,19.394,2.611
				c5.393,0.484,10.055,2.627,15.528,2.827"/>
			<path fill="#EDEDE2" d="M480.802,373.525c1.61,1.67,1.448,6.092,1.482,8.4c0.045,3.353-0.305,5.485-2.912,7.593
				c-4.213,3.4-10.435,4.204-15.607,4.451c-10.241,0.487-26.898,2.198-32.637-8.397c-1.191-2.199-0.942-3.908,0.015-6.08
				c3.289-0.072,6.508,0.126,9.704-0.077c3.023-0.19,5.832-0.786,8.965-0.665c6.419,0.252,11.975-1.124,17.958-2.334
				c1.957-0.394,4.128-0.504,6.05-0.916c1.744-0.371,4.376-0.137,5.763-1.223"/>
			<path d="M436.335,337.854c-1.079,6.022-9.445,12.613-13.244,17.293c-4.621,5.69-10.346,9.875-16.708,13.246
				c-4.068,2.156-8.956,4.033-12.703,5.361c2.404,0.133,6.261-3.64,8.186-5.083c2.706-2.028,4.815-4.621,6.98-7.12
				c4.575-5.282,7.511-10.128,10.701-16.349c-1.468,3.445-2.338,6.017-3.909,9.482c10.742-10.232,19.122-22.467,28.76-33.637
				c5.69-6.596,15.079-11.126,23.529-10.65c-2.352,0.576-4.867,1.983-7.007,3.298c8.086,0.927,15.495-2.983,21.153,5.266
				c4.27,6.217,5.4,13.673,1.393,20.217c0.656-4.511,3.116-6.847-0.386-11.191c-2.352-2.916-5.629-5.247-9.296-6.159
				c-8.272-2.058-15.066,2.321-20.649,8.308c-5.163,5.536-9.82,11.207-14.571,17.155c-2.526,3.164-5.048,6.233-8.142,9.016
				c-1.344,1.207-7.797,7.758-9.484,6.695c-0.054-0.002-0.107-0.004-0.162-0.006c8.107-4.706,11.416-13.72,16.897-20.84
				c-2.004,3.057-6.144,6.772-9.155,8.941c2.281-4.528,8.311-7.325,8.395-12.925"/>
			<path d="M296.006,359.855c5.945-4.203,15.538-6.083,22.378-7.152c9.283-1.451,19.591-0.162,29.202,0.19
				c7.499,0.275,13.93,2.828,20.339,6.423c5.907,3.312,12.176,6.581,17.901,9.741c-3.466,0.204-8.06-2.831-11.263-3.958
				c-3.791-1.335-7.325-2.917-11.353-3.676c-8.923-1.681-19.108-2.033-28.549-1.923c-16.108,0.186-33.809,1.231-47.089,11.182
				c-2.69,2.016-5.107,4.533-7.28,7.078c-0.062-3.031,5.296-8.432,7.267-10.782c2.749-3.281,5.856-6.35,9.668-8.258"/>
			<g>
				<g>
					<g>
						<path d="M373.384,389.522c0,0-1.038,0.375-2.999,1.015c-0.984,0.296-2.218,0.49-3.664,0.79
							c-1.433,0.17-3.113,0.41-4.915,0.499c-7.227,0.41-17.311,0.594-28.313-1.145c-10.999-1.707-20.634-4.953-27.247-7.963
							c-3.359-1.375-5.924-2.853-7.72-3.784c-1.774-0.974-2.756-1.513-2.756-1.513s1.092,0.255,3.066,0.716
							c1.973,0.449,4.753,1.276,8.27,1.984c6.952,1.679,16.574,3.5,27.233,5.155c10.656,1.687,20.426,2.861,27.536,3.815
							c1.786,0.253,3.355,0.354,4.771,0.506c1.391,0.024,2.621,0.132,3.614,0.094C372.271,389.582,373.384,389.522,373.384,389.522z
							"/>
					</g>
				</g>
			</g>
			<g>
				<g>
					<g>
						<path d="M363.46,390.874c0,0-0.474,0.191-1.375,0.554c-0.899,0.366-2.236,0.853-3.889,1.661
							c-1.674,0.743-3.67,1.772-6.001,2.951c-1.168,0.596-2.402,1.241-3.75,1.896c-0.671,0.33-1.361,0.669-2.07,1.017
							c-0.727,0.325-1.473,0.658-2.236,1c-1.51,0.721-3.21,1.268-4.947,1.919c-0.903,0.263-1.843,0.503-2.798,0.759
							c-0.486,0.108-0.945,0.294-1.468,0.34c-0.516,0.064-1.037,0.128-1.562,0.192c-4.093,0.339-8.474,0.017-12.949-1.148
							c-2.241-0.562-4.491-1.399-6.705-2.502c-2.205-1.114-4.39-2.513-6.325-4.385c-0.474-0.477-0.926-0.987-1.388-1.488
							c-0.455-0.509-0.834-1.095-1.251-1.648c-0.775-1.171-1.502-2.463-1.958-3.923c-0.98-2.886-0.839-6.29,0.333-9.081
							c1.128-2.826,2.915-5.113,4.881-7.001c1.981-1.886,4.177-3.398,6.519-4.582c1.161-0.57,2.326-1.041,3.483-1.504
							c1.2-0.431,2.438-0.801,3.688-1.048c2.501-0.502,5.06-0.555,7.47-0.171c4.858,0.767,8.896,3.157,11.995,5.802
							c1.542,1.323,2.937,2.806,4.108,4.096c1.206,1.326,2.379,2.567,3.499,3.754c4.468,4.748,8.547,8.068,11.619,10.059
							c0.771,0.486,1.438,0.964,2.054,1.306c0.619,0.342,1.142,0.631,1.565,0.865c0.849,0.474,1.294,0.722,1.294,0.722
							s-0.479-0.175-1.391-0.508c-0.458-0.169-1.024-0.379-1.693-0.627c-0.669-0.252-1.4-0.63-2.249-1.014
							c-3.366-1.562-8.03-4.456-13.075-8.813c-1.259-1.083-2.576-2.225-3.909-3.44c-1.368-1.248-2.65-2.379-4.139-3.464
							c-2.943-2.119-6.459-3.797-10.274-4.161c-1.901-0.185-3.861-0.04-5.805,0.443c-0.976,0.24-1.932,0.573-2.905,0.963
							c-0.981,0.442-1.98,0.886-2.928,1.389c-3.668,2.009-7.207,5.2-8.711,8.923c-0.764,1.851-0.814,3.706-0.271,5.463
							c0.534,1.739,1.717,3.502,3.129,4.974c2.897,2.931,6.769,4.913,10.631,6.17c3.883,1.264,7.827,1.844,11.46,1.844
							c0.439-0.016,0.873-0.032,1.304-0.047c0.431,0.007,0.872-0.133,1.303-0.19c0.87-0.153,1.724-0.303,2.561-0.449
							c1.676-0.461,3.314-0.805,4.845-1.351c0.771-0.25,1.523-0.495,2.257-0.732c0.732-0.264,1.444-0.52,2.137-0.77
							c1.392-0.508,2.704-0.988,3.931-1.437c2.469-0.889,4.604-1.652,6.39-2.163c1.761-0.574,3.177-0.862,4.123-1.086
							C362.963,390.987,363.46,390.874,363.46,390.874z"/>
					</g>
				</g>
			</g>
			<g>
				<g>
					<g>
						<path d="M475.331,368.252c0,0,0.433,0.336,1.257,0.978c0.801,0.669,1.995,1.667,3.279,3.226
							c1.274,1.54,2.723,3.688,3.288,6.667c0.274,1.477,0.261,3.15-0.179,4.839c-0.434,1.687-1.276,3.376-2.477,4.881
							c-2.414,3.01-6.119,5.336-10.498,6.413c-1.098,0.251-2.233,0.46-3.407,0.536c-0.58,0.06-1.188,0.046-1.77,0.065
							c-0.533,0.004-1.071,0.006-1.612,0.01c-2.207,0.054-4.479,0.11-6.809,0.167c-4.71,0.064-9.8,0.085-15.144-1.195
							c-2.669-0.656-5.368-1.699-7.852-3.393c-2.554-1.658-4.728-4.362-5.748-7.402c-1.059-3.043-1.112-6.19-0.646-9.066
							c0.469-2.892,1.429-5.586,2.707-8.045c0.343-0.604,0.669-1.212,1.026-1.8c0.385-0.573,0.752-1.15,1.152-1.706
							c0.428-0.539,0.842-1.093,1.282-1.604c0.457-0.488,0.912-0.973,1.364-1.455c1.878-1.863,4.002-3.469,6.324-4.625
							c2.316-1.161,4.816-1.843,7.25-2.037c2.438-0.202,4.792,0.06,6.951,0.581c4.334,1.058,7.912,3.033,10.913,5.057
							c3.002,2.047,5.456,4.193,7.488,6.181c2.034,1.986,3.653,3.813,4.928,5.34c1.278,1.524,2.195,2.765,2.818,3.602
							c0.606,0.85,0.924,1.296,0.924,1.296s-0.375-0.399-1.088-1.159c-0.725-0.747-1.785-1.857-3.22-3.208
							c-1.431-1.354-3.22-2.966-5.399-4.691c-2.174-1.727-4.749-3.565-7.755-5.249c-2.999-1.667-6.47-3.2-10.293-3.846
							c-3.805-0.668-7.946-0.242-11.569,1.839c-1.814,1.019-3.501,2.407-5.033,4.047c-0.368,0.424-0.739,0.85-1.112,1.278
							c-0.35,0.438-0.66,0.895-0.997,1.341c-0.312,0.468-0.602,0.961-0.908,1.441c-0.282,0.497-0.537,1.015-0.811,1.522
							c-1.012,2.077-1.756,4.339-2.094,6.641c-0.346,2.297-0.241,4.645,0.486,6.706c0.724,2.07,2.024,3.749,3.844,4.985
							c1.842,1.3,4.014,2.224,6.261,2.835c4.541,1.229,9.362,1.449,13.972,1.604c2.314,0.072,4.597,0.108,6.848,0.209
							c0.565,0.031,1.126,0.062,1.683,0.093c0.509,0.012,0.984,0.06,1.476,0.04c0.975,0.003,1.935-0.11,2.874-0.254
							c1.876-0.322,3.646-0.926,5.234-1.72c1.576-0.816,2.963-1.835,4.083-2.996c2.242-2.333,3.216-5.289,2.975-7.896
							c-0.1-1.305-0.447-2.508-0.86-3.588c-0.457-1.062-0.952-2.018-1.496-2.823c-1.051-1.636-2.097-2.767-2.8-3.528
							C475.714,368.643,475.331,368.252,475.331,368.252z"/>
					</g>
				</g>
			</g>
			<g>
				<g>
					<g>
						<path d="M491.5,371.5c0,0-0.891,0.459-2.501,1.289c-1.612,0.825-3.968,1.968-6.934,3.268c-2.965,1.3-6.552,2.743-10.68,4.044
							c-4.113,1.311-8.863,2.376-13.921,2.746c-5.056,0.359-9.815,0.077-14.06-0.329c-4.254-0.406-8.049-0.92-11.236-1.379
							c-3.187-0.466-5.766-0.886-7.548-1.187c-1.782-0.322-2.768-0.5-2.768-0.5s0.997-0.098,2.8-0.274
							c1.803-0.164,4.413-0.363,7.635-0.516c3.222-0.16,7.058-0.266,11.281-0.326c4.229-0.06,8.814-0.101,13.531-0.436
							c4.714-0.347,9.168-1.033,13.263-1.857c4.09-0.811,7.803-1.641,10.933-2.343c3.145-0.693,5.69-1.255,7.448-1.643
							C490.518,371.698,491.5,371.5,491.5,371.5z"/>
					</g>
				</g>
			</g>
			<path d="M469.328,378.082c-3.453,1.922-8.135,2.504-12.089,2.635c-1.031,4.049,0.772,9.264,5.892,11.008
				C473.703,395.327,475.542,382.195,469.328,378.082z"/>
			<path d="M329.45,385.794c-8.633,2.131,0.864,21.074,11.94,15.006c3.73-2.045,5.681-7.858,2.135-11.097
				c-2.652-2.421-10.545-3.719-14.126-3.85"/>
		</g>
		<g opacity="0.2">
			<g>
				<g>
					<path fill="#FFFFFF" d="M339.333,382.333c0,0-0.592,0.389-1.418,0.737c-0.823,0.313-1.894,0.727-3.01,0.62
						c-1.148-0.039-2.18-0.57-2.971-1.047c-0.779-0.489-1.268-0.977-1.268-0.977s0.486-0.483,1.284-0.965
						c0.785-0.494,1.93-0.934,3.186-0.888c1.279,0.117,2.383,0.688,3.103,1.342C338.965,381.776,339.333,382.333,339.333,382.333z"
						/>
				</g>
			</g>
		</g>
		<g opacity="0.2">
			<g>
				<g>
					<path fill="#FFFFFF" d="M463,371.333c0,0-1.375,0.481-3.578,0.987c-2.204,0.51-5.199,1.068-8.443,1.4
						c-3.23,0.381-6.145,0.58-8.344,0.827c-1.104,0.095-1.976,0.292-2.625,0.346C439.36,374.962,439,375,439,375
						s0.259-0.243,0.758-0.657c0.508-0.39,1.228-1.052,2.237-1.628c1.991-1.21,5.055-2.446,8.551-2.854
						c3.491-0.357,6.627,0.058,8.855,0.518C461.632,370.844,463,371.333,463,371.333z"/>
				</g>
			</g>
		</g>
		<g opacity="0.2">
			<g>
				<g>
					<path fill="#FFFFFF" d="M338.667,394.667c0,0-1.942-0.373-1.942-0.833c0-0.461,1.942-0.833,1.942-0.833
						s1.941,0.373,1.941,0.833C340.609,394.294,338.667,394.667,338.667,394.667z"/>
				</g>
			</g>
		</g>
		<g opacity="0.2">
			<g>
				<g>
					<path fill="#FFFFFF" d="M466.667,386.334c0,0-0.517,0.007-1.064-0.321c-0.547-0.307-1.019-1.068-0.83-1.758
						c0.186-0.694,0.9-0.955,1.473-1.006c0.593-0.042,1.088,0.086,1.088,0.086s0.264,0.387,0.598,0.879
						c0.308,0.457,0.621,0.897,0.59,1.06c-0.036,0.161-0.538,0.209-0.994,0.472C467.073,385.985,466.667,386.334,466.667,386.334z"
						/>
				</g>
			</g>
		</g>
	</g>
</g>
</svg>
