<?xml version="1.0" encoding="utf-8"?>
<!-- Generator: Adobe Illustrator 25.0.1, SVG Export Plug-In . SVG Version: 6.00 Build 0)  -->
<svg version="1.1" id="Capa_1" xmlns="http://www.w3.org/2000/svg" xmlns:xlink="http://www.w3.org/1999/xlink" x="0px" y="0px"
	 viewBox="0 0 800 800" enable-background="new 0 0 800 800" xml:space="preserve">
<g id="ojos">
	<g id="_x38_">
		<path opacity="0.3" enable-background="new    " d="M414,371c-3.001,6.609-11.496,6.086-15.876,1.376
			C392.662,366.503,391,360.22,391,353.5c0,6.626-0.943,16.174,3.876,21.124c5.751,5.907,8.544,5.082,14.874,4.376
			c6.457-0.721,14.761,3.087,19.361,7.389c5.352,5.005,13.019,6.719,20.4,5.623c12.016-1.783,21.422-17.463,31.55-21.998
			c-8.324-1.746-10.796-12.156-18.012-16.137c4.533-4.805,24.159,0.633,24.485-10.189c-5.104,3.899-15.369,3.345-21.924,2.702
			c-8.283-0.812-14.616-1.646-22.586,1.111c-6.42,2.221-13.639,4.689-18.15,9.875"/>
		<path opacity="0.3" enable-background="new    " d="M305.5,349.5c-3.343,0.118-5.811-0.439-8.851-1.536
			c5.006,4.588,11.191,9.167,15.912,14.049c-6.036,4.576-9.717,8.883-8.087,17.512c1.347,7.132,8.385,11.061,14.637,12.363
			c14.664,3.056,29.067,2.72,39.251-9.027c4.365-5.035,20.236-0.535,14.013-3.236c-26.402-11.457,10.125,8.875,14.449,5.897
			c-8.575-5.272-9.592-25.386-7.299-30.846c-4.276,6.823-6.112,16.36-2.226,23.372c-8.615-5.033-14.767-12.829-21.423-20.451
			c-6.82-7.808-19.744-9.619-29.202-12.621c4.326,1.77,16.708,10.275,19.076,14.523c-7.75-4.5-19.937-5.894-26.75-6.502
			c-6.311-0.563-12.039-4.317-18-4.498"/>
		<g>
			<path fill="#EDEDE2" d="M437.46,360.719c6.951-6.384,14.119-8.451,22.47-3.417c3.209,1.934,6.03,4.414,9.011,6.731
				c3.321,2.582,5.209,4.023,10.416,6.211c-4.782,2.395-9.006,3.615-13.616,7.571c-5.026,4.314-8.701,5.692-15.439,5.685
				c-6.072-0.006-12.137,0.248-16.682-4.027c-4.396-4.138-3.369-11.147,0.217-15.336c1.28-1.496,2.919-2.727,4.453-3.832"/>
			<path fill="#EDEDE2" d="M325.623,363.618c3.808-4.453,12.803,0.995,16.972,2.083c4.679,1.222,12.255,2.287,13.265,8.272
				c2.681,15.869-18.381,13.132-27.43,11.275c-5.088-1.043-11.912-2.494-13.588-8.386c-2.111-7.422,3.194-10.598,9.539-11.588"/>
			<path d="M396.469,374.12c7.507,9.028,15.542-2.924,18.949-9.108c3.798-6.892,9.739-15.364,16.613-19.714
				c-1.27,1.11-1.925,2.65-2.711,3.99c2.607-0.981,4.884-3.139,7.158-4.646c-0.117,0.599,0.223,1.482,0.127,2.094
				c5.006,0.573,10.974-4.226,15.634-5.39c5.584-1.396,12.826-1.114,18.251-1.114c-3.027-0.389-5.543,0.896-7.302,3.207
				c3.29,0.513,5.983-1.377,9.025-2.211c0.125-0.145,0.12-0.151-0.021-0.021c-0.805,0.71-1.27,1.842-1.709,2.605
				c0.75-0.133,1.357-0.025,2.067-0.266c0.077,0.28-0.058,0.782,0.126,1.004c3.623,0.18,12.245,1.468,14.902-0.913
				c-0.985,4.704-11.535,4.246-15.32,4.246c-6.179,0-11.343,0.427-16.624,2.942c1.582-1.143,3.207-2.117,4.846-3.233
				c-3.424-0.245-6.213,2.26-9.4,2.849c1.255-0.538,4.104-2.45,5.747-3.668c-4.497,0.016-9.842,2.556-14.002,4.105
				c-4.232,1.576-8.766,3.3-12.369,6.214c-6.802,5.499-10.438,13.884-18.229,18.21c-5.603,3.11-12.231,4.584-16.853-1.184"/>
			<path d="M319.585,339.14c5.615,0.362,12.628,3.453,17.426,6.513c-0.977-2.287-4.423-4.119-6.466-5.337
				c7.172-0.804,18.398,8.488,23.566,13.125c6.818,6.118,10.988,13.855,16.762,20.771c2.793,3.347,6.244,5.574,9.416,8.326
				c-7.672-4.421-15.771-8.641-22.545-14.512c-7.126-6.179-13.318-13.535-21.861-17.49c-5.492-2.542-11.736-3.951-18.01-3.744
				c3.309-0.306,5.542,2.643,7.778,4.754c-4.721,0.314-9.483-3.363-13.957-4.406c1.742,1.761,3.591,3.776,4.929,5.782
				c-2.096-0.838-3.921-3.245-6.092-4.254c0.696,0.979,1.68,1.861,2.732,2.514c-1.523-0.069-2.926-0.704-4.18-1.431
				c0.997,2.65,4.584,4.414,5.265,7.268c-10.14-1.9-17.825-13.712-28.542-13.506c6.232-0.548,11.51,3.919,16.962,5.775
				c-0.3-1.016-1.697-2.288-2.185-2.495c1.885-0.036,3.461,0.792,5.108,1.027c-1.523-2.328-4.081-3.363-6.384-4.691
				c6.191-0.101,11.431,3.051,17.252,2.933c-4.689-1.06-10.537-3.571-14.52-4.733c6.334,0.812,15.3,1.05,21.042,3.678
				c-3.585-3.664-9.719-5.9-13.754-6.958c3.258-0.052,6.344,1.146,9.528,1.456"/>
			<g>
				<g>
					<g>
						<path d="M319.262,382.525c0,0-0.353-0.178-1.024-0.518c-0.65-0.378-1.641-0.917-2.69-1.987c-0.5-0.55-1.022-1.267-1.27-2.231
							c-0.269-0.963-0.099-2.109,0.339-3.143c0.93-2.071,2.686-3.802,4.63-5.511c0.98-0.856,2.032-1.699,3.114-2.568
							c0.536-0.432,1.083-0.873,1.64-1.323l0.424-0.343l0.521-0.368c0.35-0.251,0.709-0.494,1.089-0.677
							c3.028-1.651,6.563-2.072,10.125-2.018c3.573,0.129,7.271,0.791,10.929,2.13c1.829,0.67,3.653,1.5,5.419,2.592
							c1.755,1.1,3.489,2.447,4.901,4.369c0.727,0.927,1.266,2.097,1.645,3.319c0.102,0.65,0.298,1.283,0.256,1.952
							c-0.001,0.331-0.005,0.663-0.019,0.991l-0.181,0.958c-0.095,0.656-0.387,1.201-0.605,1.787
							c-0.253,0.557-0.585,1.036-0.886,1.544c-0.338,0.455-0.699,0.876-1.051,1.306c-0.371,0.399-0.767,0.751-1.15,1.12
							c-3.126,2.69-6.743,4.265-10.266,5.048c-3.53,0.786-6.944,0.819-10.051,0.499c-3.106-0.395-5.909-1.133-8.372-2.029
							c-4.922-1.849-8.389-4.361-10.516-6.287c-0.52-0.497-0.981-0.939-1.381-1.321c-0.357-0.422-0.66-0.78-0.904-1.068
							c-0.48-0.576-0.733-0.878-0.733-0.878s0.301,0.255,0.874,0.74c0.283,0.241,0.633,0.539,1.047,0.892
							c0.446,0.31,0.961,0.668,1.54,1.07c2.335,1.545,5.965,3.455,10.756,4.658c2.398,0.575,5.061,0.983,7.912,1.088
							c2.849,0.034,5.879-0.25,8.861-1.121c2.968-0.854,5.906-2.368,8.263-4.539c1.139-1.054,2.013-2.318,2.218-3.476
							c0.023-0.146,0.052-0.29,0.086-0.434c-0.007-0.145-0.014-0.289-0.011-0.433c0.046-0.288-0.104-0.579-0.116-0.875
							c-0.221-0.587-0.455-1.213-0.939-1.811c-0.88-1.214-2.189-2.311-3.611-3.227c-1.429-0.921-2.984-1.685-4.563-2.325
							c-3.164-1.289-6.452-2.051-9.576-2.366c-3.106-0.257-6.147-0.08-8.5,0.958c-0.309,0.109-0.576,0.262-0.838,0.417l-0.402,0.222
							l-0.452,0.299c-0.607,0.398-1.204,0.788-1.789,1.172c-1.165,0.753-2.276,1.462-3.297,2.169
							c-2.035,1.404-3.795,2.809-4.743,4.349c-0.445,0.768-0.684,1.557-0.59,2.298c0.077,0.743,0.408,1.413,0.78,1.971
							c0.791,1.104,1.669,1.803,2.24,2.274C318.947,382.29,319.262,382.525,319.262,382.525z"/>
					</g>
				</g>
			</g>
			<g>
				<g>
					<g>
						<path d="M347.678,367.223c0,0-0.215-0.091-0.623-0.264c-0.413-0.162-0.982-0.46-1.776-0.716
							c-1.538-0.596-3.842-1.255-6.69-1.699c-2.839-0.444-6.282-0.626-9.856-0.009c-0.449,0.062-0.897,0.142-1.336,0.271
							c-0.441,0.118-0.895,0.21-1.336,0.343c-0.865,0.312-1.758,0.591-2.577,1.034c-1.64,0.827-3.253,1.928-4.41,3.358
							c-0.615,0.716-1.15,1.571-1.616,2.388c-0.457,0.823-0.773,1.639-0.98,2.418c-0.364,1.555-0.095,2.901,0.76,4.182
							c0.87,1.269,2.218,2.332,3.579,3.199c1.384,0.857,2.802,1.544,4.131,2.117c2.67,1.137,4.974,1.857,6.566,2.337
							c1.609,0.461,2.5,0.715,2.5,0.715s-0.929,0.047-2.616-0.005c-1.686-0.061-4.134-0.215-7.145-0.854
							c-1.504-0.328-3.149-0.784-4.883-1.517c-1.713-0.764-3.579-1.775-5.184-3.592c-0.783-0.915-1.466-2.063-1.836-3.373
							c-0.375-1.305-0.427-2.732-0.192-4.053c0.247-1.312,0.692-2.555,1.272-3.685c0.589-1.12,1.24-2.19,2.092-3.2
							c1.727-2.109,3.934-3.488,6.151-4.447c1.109-0.504,2.248-0.783,3.354-1.067c0.556-0.117,1.111-0.183,1.656-0.269
							c0.545-0.098,1.084-0.139,1.616-0.155c4.265-0.251,7.957,0.592,10.859,1.638c2.91,1.056,5.073,2.293,6.452,3.29
							c0.712,0.456,1.199,0.914,1.547,1.185C347.499,367.075,347.678,367.223,347.678,367.223z"/>
					</g>
				</g>
			</g>
			<g>
				<g>
					<g>
						<path d="M480.468,370.501c0,0-0.227-0.012-0.657-0.036c-0.427-0.047-1.089-0.018-1.906-0.182
							c-1.654-0.242-4.042-0.997-6.67-2.53c-2.646-1.501-5.403-3.806-8.375-6.034c-1.494-1.088-3.061-2.131-4.726-2.926
							c-1.667-0.787-3.45-1.213-5.34-1.327c-1.887-0.117-3.789,0.14-5.596,0.676c-1.808,0.512-3.544,1.215-5.12,2.079
							c-3.191,1.667-5.822,3.763-7.847,5.713c-2.02,1.961-3.489,3.781-4.354,5.14c-0.486,0.655-0.751,1.225-0.985,1.59
							c-0.221,0.374-0.338,0.57-0.338,0.57s0.054-0.221,0.154-0.641c0.118-0.414,0.222-1.064,0.523-1.835
							c0.501-1.593,1.527-3.813,3.245-6.31c1.725-2.48,4.178-5.234,7.587-7.544c1.682-1.18,3.635-2.199,5.811-2.961
							c2.159-0.781,4.62-1.223,7.164-1.071c2.535,0.139,5.023,0.856,7.082,1.993c2.057,1.138,3.743,2.519,5.22,3.869
							c2.9,2.739,5.102,5.31,7.233,7.149c2.102,1.861,4.062,3.069,5.537,3.712c0.723,0.36,1.336,0.506,1.735,0.676
							C480.254,370.422,480.468,370.501,480.468,370.501z"/>
					</g>
				</g>
			</g>
			<g>
				<g>
					<g>
						<path d="M448.773,355.201c0,0-1.023,0.735-2.998,1.876c-1.944,1.17-4.94,2.624-8.144,4.858
							c-1.567,1.135-3.198,2.487-4.36,4.234c-1.139,1.713-1.951,3.903-1.821,6.053c0.05,2.16,1.118,4.27,2.826,5.95
							c0.882,0.82,1.915,1.527,3.052,2.093c1.132,0.586,2.378,0.938,3.761,1.212c2.738,0.637,5.598,0.671,8.343,0.589
							c0.69-0.036,1.372-0.071,2.048-0.106c0.672-0.083,1.338-0.164,1.997-0.244c0.33-0.04,0.658-0.079,0.984-0.119
							c0.32-0.063,0.64-0.126,0.956-0.188c0.636-0.124,1.265-0.245,1.886-0.365c0.601-0.17,1.194-0.338,1.78-0.504
							c0.291-0.085,0.595-0.154,0.872-0.25c0.267-0.107,0.532-0.214,0.796-0.32c0.523-0.224,1.07-0.384,1.567-0.645
							c0.487-0.288,0.972-0.535,1.451-0.854c1.928-1.197,3.637-2.542,5.3-3.758c1.655-1.215,3.291-2.251,4.84-2.908
							c1.549-0.659,2.954-0.994,4.101-1.15c1.148-0.146,2.036-0.185,2.638-0.164c0.599,0.008,0.913,0.012,0.913,0.012
							s-0.308,0.063-0.893,0.185c-0.584,0.103-1.436,0.321-2.491,0.666c-1.054,0.355-2.289,0.906-3.585,1.736
							c-1.299,0.832-2.616,1.987-4.041,3.381c-1.425,1.388-3.008,3.015-4.963,4.564c-0.47,0.396-1.024,0.77-1.559,1.161
							c-0.555,0.37-1.186,0.648-1.798,0.979c-0.311,0.159-0.624,0.319-0.94,0.481c-0.317,0.145-0.638,0.251-0.961,0.379
							c-0.65,0.244-1.309,0.492-1.975,0.742c-0.679,0.188-1.366,0.377-2.062,0.569c-0.349,0.093-0.7,0.188-1.053,0.282
							c-0.357,0.068-0.716,0.136-1.076,0.204c-0.724,0.13-1.455,0.262-2.193,0.396c-0.746,0.076-1.5,0.153-2.261,0.23
							c-3.04,0.224-6.274,0.267-9.562-0.48c-1.634-0.322-3.348-0.828-4.874-1.656c-1.532-0.805-2.933-1.83-4.124-3.052
							c-2.345-2.462-3.775-5.846-3.581-9.062c0.115-3.228,1.506-5.926,3.217-7.964c1.741-2.038,3.803-3.295,5.651-4.274
							c3.759-1.885,6.914-2.762,9.038-3.545C447.611,355.685,448.773,355.201,448.773,355.201z"/>
					</g>
				</g>
			</g>
			<path d="M326.346,383.13c-0.148,0.304-0.256,0.64-0.316,1.013c-0.431,2.703,6.4,3.107,8.48,3.299
				c2.049,0.191,7.146,0.768,7.969-1.1c0.629,0.006,1.268,0.009,1.92,0.009l1.64,0.546
				C358.727,375.866,324.348,363.098,326.346,383.13z"/>
			<path d="M442.215,381.978c-6.538-6.349,0.394-16.241,7.65-16.94c9.968-0.96,12.347,8.317,11.941,16.311
				c-6.12-0.231-10.976,4.811-16.858,3.908"/>
			<g>
				<g>
					<g>
						<path d="M387.57,382.525c0,0-0.328-0.223-0.919-0.623c-0.302-0.202-0.668-0.455-1.028-0.824
							c-0.365-0.361-0.839-0.738-1.221-1.27c-0.204-0.259-0.418-0.53-0.641-0.812c-0.218-0.287-0.39-0.618-0.597-0.948
							c-0.432-0.654-0.745-1.418-1.104-2.218c-0.626-1.625-1.096-3.491-1.329-5.462c-0.421-3.951-0.039-7.479,0.262-9.995
							c0.317-2.519,0.565-4.079,0.565-4.079s0.239,1.568,0.408,4.105c0.183,2.534,0.298,6.015,0.699,9.747
							c0.221,1.864,0.542,3.602,0.95,5.157c0.248,0.757,0.439,1.505,0.739,2.151c0.142,0.327,0.249,0.663,0.401,0.957
							c0.156,0.294,0.306,0.577,0.448,0.847c0.258,0.566,0.615,0.992,0.879,1.412c0.259,0.427,0.54,0.748,0.774,1.01
							C387.316,382.223,387.57,382.525,387.57,382.525z"/>
					</g>
				</g>
			</g>
			<g>
				<g>
					<g>
						<path d="M376.094,339.353c0,0-0.3-0.105-0.839-0.294c-0.275-0.092-0.604-0.224-0.967-0.415
							c-0.369-0.182-0.798-0.384-1.23-0.673c-0.908-0.525-1.872-1.318-2.875-2.273c-0.971-0.981-1.932-2.162-2.79-3.485
							c-1.703-2.661-2.72-5.3-3.404-7.208c-0.675-1.916-1.011-3.138-1.011-3.138s0.773,1.009,1.882,2.706
							c1.118,1.691,2.553,4.064,4.167,6.585c0.815,1.256,1.615,2.422,2.387,3.456c0.8,1.001,1.536,1.915,2.246,2.595
							c0.335,0.368,0.675,0.655,0.968,0.923c0.288,0.277,0.552,0.496,0.777,0.664C375.848,339.154,376.094,339.353,376.094,339.353z
							"/>
					</g>
				</g>
			</g>
			<g>
				<g>
					<g>
						<path d="M350.957,338.808c0,0,0.359,0.038,1.006,0.105c0.642,0.097,1.616,0.145,2.761,0.427
							c2.293,0.55,5.388,1.718,8.482,3.442c3.097,1.7,5.768,3.339,7.829,4.345c0.499,0.296,0.982,0.47,1.403,0.645
							c0.422,0.179,0.786,0.333,1.084,0.46c0.6,0.266,0.933,0.414,0.933,0.414s-0.359-0.042-1.005-0.119
							c-0.327-0.045-0.726-0.101-1.189-0.165c-0.465-0.069-1.005-0.134-1.561-0.321c-2.299-0.573-5.33-1.849-8.422-3.548
							c-3.08-1.713-5.795-3.239-7.869-4.231C352.282,339.365,350.957,338.808,350.957,338.808z"/>
					</g>
				</g>
			</g>
			<g>
				<g>
					<g>
						<path d="M373.907,340.447c0,0-1.385,0.029-3.565-0.065c-2.169-0.183-5.176-0.12-8.462-0.394
							c-3.309-0.1-6.299-0.457-8.485-0.679c-2.18-0.253-3.531-0.502-3.531-0.502s1.351-0.238,3.539-0.472
							c2.184-0.265,5.224-0.394,8.579-0.292c3.358,0.278,6.38,0.707,8.506,1.375C372.624,340,373.907,340.447,373.907,340.447z"/>
					</g>
				</g>
			</g>
			<g>
				<g>
					<g>
						<path d="M398.498,329.518c0,0-0.353,0.134-0.989,0.374c-0.315,0.116-0.701,0.258-1.148,0.422
							c-0.433,0.19-0.925,0.407-1.469,0.646c-2.154,0.97-4.821,2.794-6.361,5.85c-0.8,1.512-1.318,3.134-1.792,4.621
							c-0.455,1.515-0.865,2.88-1.21,4.03c-0.696,2.319-1.24,3.73-1.24,3.73s0.067-1.506,0.285-3.917
							c0.12-1.207,0.264-2.643,0.572-4.241c0.314-1.59,0.74-3.375,1.66-5.125c0.9-1.754,2.264-3.201,3.696-4.12
							c0.686-0.518,1.453-0.789,2.112-1.128c0.705-0.231,1.348-0.473,1.952-0.617c0.605-0.12,1.152-0.228,1.634-0.324
							c0.483-0.067,0.904-0.092,1.244-0.125C398.122,329.545,398.498,329.518,398.498,329.518z"/>
					</g>
				</g>
			</g>
			<g>
				<g>
					<g>
						<path d="M415.985,326.786c-0.001,0-1.028,1.391-3.07,3.273c-2.014,1.905-4.978,4.293-8.131,6.949
							c-3.15,2.65-5.817,5.226-7.123,7.54c-0.674,1.139-1.018,2.178-1.168,2.919c-0.096,0.37-0.113,0.666-0.141,0.867
							c-0.026,0.203-0.039,0.309-0.039,0.309s-0.016-0.106-0.045-0.307c-0.025-0.203-0.084-0.504-0.078-0.897
							c-0.029-0.783,0.087-1.956,0.589-3.302c0.955-2.736,3.499-5.889,6.746-8.614c3.258-2.742,6.502-4.728,8.79-6.231
							C414.624,327.82,415.985,326.785,415.985,326.786z"/>
					</g>
				</g>
			</g>
			<g>
				<g>
					<g>
						<path d="M409.975,386.351c0,0-0.292,0.261-0.817,0.732c-0.536,0.449-1.264,1.158-2.133,2.033
							c-1.734,1.771-3.809,4.414-5.807,7.58c-1.999,3.166-3.773,6.147-5.206,8.226c-1.42,2.087-2.432,3.287-2.432,3.287
							s0.605-1.44,1.579-3.755c1-2.297,2.339-5.506,4.419-8.806c2.083-3.307,4.709-5.833,6.816-7.273
							c1.061-0.719,1.947-1.241,2.592-1.543C409.622,386.522,409.975,386.351,409.975,386.351z"/>
					</g>
				</g>
			</g>
			<g>
				<g>
					<g>
						<path d="M414.346,392.361c0,0-0.252,0.799-0.803,2.035c-0.529,1.261-1.444,2.858-2.654,4.469
							c-1.147,1.617-2.441,2.9-3.244,3.926c-0.863,0.993-1.495,1.592-1.495,1.592s0.191-0.809,0.658-2.089
							c0.415-1.323,1.343-2.933,2.524-4.596c1.204-1.605,2.501-2.9,3.408-3.852C413.678,392.907,414.346,392.361,414.346,392.361z"
							/>
					</g>
				</g>
			</g>
			<g>
				<g>
					<g>
						<path d="M361.885,386.351c0,0,1.141,0.154,2.935,0.568c1.791,0.416,4.243,1.112,6.812,2.266
							c2.559,1.181,4.711,2.616,6.129,3.821c0.729,0.571,1.234,1.151,1.605,1.506c0.355,0.374,0.553,0.582,0.553,0.582
							s-0.263-0.12-0.734-0.337c-0.477-0.206-1.107-0.578-1.948-0.931c-1.651-0.739-3.915-1.753-6.412-2.871
							c-2.5-1.123-4.736-2.257-6.35-3.126C362.862,386.963,361.885,386.351,361.885,386.351z"/>
					</g>
				</g>
			</g>
			<g>
				<g>
					<g>
						<path d="M359.153,392.361c0,0,0.199,0.03,0.554,0.084c0.35,0.075,0.898,0.134,1.511,0.356
							c1.249,0.406,2.872,1.273,4.366,2.489c1.482,1.221,2.657,2.418,3.555,3.296c0.91,0.838,1.489,1.425,1.489,1.425
							s-0.196-0.048-0.545-0.134c-0.345-0.101-0.869-0.226-1.471-0.473c-1.2-0.493-2.782-1.39-4.25-2.6
							c-1.472-1.196-2.665-2.351-3.614-3.152c-0.463-0.417-0.885-0.686-1.159-0.928C359.31,392.492,359.153,392.361,359.153,392.361
							z"/>
					</g>
				</g>
			</g>
		</g>
		<path opacity="0.3" enable-background="new    " d="M392,352"/>
		<path opacity="0.3" enable-background="new    " d="M364,323c0.771,3.77,1.472,9.498,4.325,12.524
			c-5.787-0.071-15.91,1.277-21.325,2.726c3.475,0.809,13.391,1.643,15.825,4.274c-2.482-0.059-5.037-2.044-5.248-4.45
			c3.44-0.287,10.673,2.676,18.173,1.176c-5.303-2.097-6.813-9.465-9.75-13.75"/>
		<g opacity="0.3">
			<g>
				<g>
					<path fill="#FFFFFF" d="M452.335,374c0,0-2.914-0.597-2.914-1.333s2.914-1.333,2.914-1.333s2.912,0.597,2.912,1.333
						S452.335,374,452.335,374z"/>
				</g>
			</g>
		</g>
		<g opacity="0.3">
			<g>
				<g>
					<path fill="#FFFFFF" d="M340.668,378c0,0-2.914-0.149-2.914-0.333c0-0.184,2.914-0.333,2.914-0.333s2.912,0.149,2.912,0.333
						S340.668,378,340.668,378z"/>
				</g>
			</g>
		</g>
		<g opacity="0.3">
			<g>
				<g>
					<path fill="#FFFFFF" d="M339.999,377.668c0,0,0.576-0.482,1.315-0.846c0.78-0.337,1.546-0.671,1.91-0.41
						c0.28,0.156,0.153,0.973,0.105,1.696c-0.046,0.764,0.004,1.561,0.004,1.561s-0.358,0.641-1.066,1.152
						c-0.741,0.533-1.686,0.807-2.329,0.402c-0.516-0.364-0.529-1.29-0.327-2.037C339.778,378.406,339.999,377.668,339.999,377.668z
						"/>
				</g>
			</g>
		</g>
	</g>
</g>
</svg>
