<?xml version="1.0" encoding="utf-8"?>
<!-- Generator: Adobe Illustrator 25.0.1, SVG Export Plug-In . SVG Version: 6.00 Build 0)  -->
<svg version="1.1" id="Capa_1" xmlns="http://www.w3.org/2000/svg" xmlns:xlink="http://www.w3.org/1999/xlink" x="0px" y="0px"
	 viewBox="0 0 800 800" enable-background="new 0 0 800 800" xml:space="preserve">
<g id="ojos">
	<g id="_x31_2">
		<g>
			<path fill="#C11111" d="M369.76,331.228c15.876-2.858,31.853-2.097,46.327-3.22c15.289-1.186,28.159,1.791,43.114,2.913
				c15.015,1.127,29.811,3.051,44.643,5.772c13.139,2.411,25.694,4.84,31.952,17.944c6.067,12.705,6.771,26.126,6.435,41.189
				c-0.162,7.278-0.831,15.863-2.164,22.65c-0.591,2.995-1.913,7.091-3.467,9.658c-1.43,2.361-2.877,7.436-4.798,10.046
				c-8.12,11.025-13.242,15.304-27.077,18.373c-7.203,1.598-13.716,4.225-21.62,4.011c-7.595-0.204-13.979-1.269-21.352-2.791
				c-6.976-1.44-13.775-3.936-20.483-6.806c-6.426-2.749-12.245-5.689-18.27-9.406c-12.742-7.86-23.904-17.361-39.527-16.912
				c-15.632,0.45-24.802,7.064-38.537,13.883c-12.902,6.404-21.916,11.728-43.044,9.197c-7.06-0.238-14.091-2.41-20.876-3.902
				c-7.162-1.576-13.26-2.395-20.004-5.625c-13.266-6.353-20.163-15.597-24.727-29.533c-2.52-7.693-3.733-14.066-2.687-22.301
				c0.934-7.353-0.066-14.395,2.805-21.341c5.311-12.85,12.814-21.39,25.874-25.39c14.495-4.439,30.739-6.278,46.608-6.718
				c16.213-0.45,30.366-0.674,46.257-1.875c4.766-0.36,10.06-0.655,15.075-0.794"/>
			<path fill="#E9F1F4" d="M282.15,345.264c14.35-3.645,32.126-2.027,46.811-3.233c15.4-1.265,27.297-0.758,44.428-1.958
				c16.043-0.445,34.079-2.111,50.213-2.603c14.243-0.434,29.477,3.215,43.163,5.596c13.963,2.429,28.311,2.884,42.154,6.166
				c14.224,3.372,15.993,21.204,16.999,33.749c2.075,25.827-2.488,59.688-31.017,66.159c-27.426,6.223-58.148-9.43-81.179-23.396
				c-11.128-6.749-19.022-12.33-32.022-12.65c-14.587-0.358-24.021,9.336-36.558,15.521c-13.484,6.653-30.625,7.863-46.187,8.293
				c-13.489,0.372-26.666-2.645-36.727-11.43c-15.377-10.574-23.644-55.564-1.221-71.044c6.963-4.808,14.995-7.411,23.087-8.739"/>
			<path fill="#FFFFFF" d="M460.409,374.887c-5.895,0.158-11.23,2.425-16.591,4.753c-3.409,1.482-8.15,4.555-11.881,4.221
				c-1.292-11.14,15.532-16.391,23.092-19.649c-12.866-0.294-25.915-0.864-38.9-1.186c-0.742-2.975,5.781-7.509,7.729-9.116
				c3.677-3.031,7.601-5.868,11.514-8.607c2.575-1.802,5.147-3.626,7.754-5.355c-3.769-0.448-7.512-1.024-11.123-1.364
				c-6.423-0.607-12.833-0.847-19.254-0.885c-11.427,0.726-22.812,1.708-34.296,2.738c-8.969,0.805-17.979,1.336-26.988,1.272
				c-5.35-0.038-11.4,0.924-16.676-0.499c-3.042,2.893-7.085,5.47-9.674,7.685c-3.63,3.105-7.348,6.171-10.941,9.273
				c-1.27,1.097-3.959,2.586-4.44,4.179c6.918,0.234,14.005-0.618,20.907-1.075c10.955-0.726,21.979-1.783,32.96-2.607
				c9.871-0.741,19.649-2.438,29.56-2.701c3.375-0.089,6.705-0.428,10.098-0.522c1.355-0.038,5.852-0.887,6.847,0.222
				c3.532,3.933-21.595,21.856-24.164,25.213c-3.513,4.592,3.657,3.229,6.615,3.147c4.876-0.136,9.747-0.725,14.64-0.611
				c0.463,2.714-5.264,6.432-7.16,8.092c6.985,0.273,14.061-0.184,21.026,0.002c4.325,0.116,8.907,0.632,13.17,1.508
				c1.963,0.402,5.951,0.777,7.377,2.158c-7.165,4.614-13.758,10.653-20.319,16.109c-4.19,3.485-8.512,7.024-12.243,10.979
				c3.68,1.188,6.79,3.872,9.998,6.694c3.399,2.99,7.468,4.998,11.365,7.289c0.366,0.125,0.732,0.251,1.103,0.375
				c1.55,0.512,3.27,1.119,4.951,1.871c1.243-8.753,4.552-16.763,9.862-24.518c7.298-10.657,17.026-18.464,27.386-26.036
				c6.135-4.484,12.214-9.938,18.767-13.468C481.77,374.945,471.127,374.603,460.409,374.887z"/>
			<g>
				<g>
					<g>
						<g>
							<g>
								<path d="M539.177,416.98c0,0,0.113-1.064,0.329-3.09c0.211-2.025,0.523-5.014,0.84-8.867
									c0.314-3.854,0.633-8.575,0.721-14.059c0.084-5.478-0.059-11.738-1.015-18.544c-0.492-3.396-1.189-6.932-2.305-10.487
									c-1.141-3.536-2.64-7.14-4.879-10.412c-1.088-1.657-2.428-3.166-3.874-4.582c-1.453-1.407-3.182-2.513-5.03-3.508
									c-3.724-1.949-7.982-3.112-12.415-3.953c-4.442-0.849-9.097-1.375-13.855-2.182c-2.373-0.399-4.746-0.684-7.155-1.038
									c-1.202-0.17-2.411-0.34-3.625-0.512c-1.224-0.145-2.452-0.291-3.686-0.438c-4.942-0.587-9.974-1.185-15.078-1.792
									c-5.11-0.539-10.295-1.441-15.523-2.104c-2.606-0.316-5.197-0.631-7.771-0.943c-1.288-0.146-2.567-0.339-3.85-0.445
									c-1.282-0.091-2.561-0.183-3.834-0.273c-2.549-0.156-5.074-0.423-7.587-0.487c-2.514-0.021-5.008-0.042-7.481-0.063
									c-2.471-0.082-4.926,0.094-7.356,0.195c-2.431,0.11-4.838,0.218-7.22,0.326c-4.786,0.247-9.472,0.489-14.043,0.726
									c-4.572,0.23-9.03,0.454-13.362,0.672c-4.332,0.156-8.537,0.307-12.603,0.453c-8.13,0.295-15.703,0.569-22.616,0.82
									c-6.912,0.265-13.164,0.504-18.656,0.714c-5.484,0.326-10.208,0.607-14.069,0.836c-7.726,0.444-11.998,0.689-11.998,0.689
									s4.262-0.381,11.969-1.072c3.857-0.337,8.574-0.751,14.052-1.23c5.487-0.343,11.735-0.733,18.642-1.165
									c6.909-0.435,14.476-0.843,22.599-1.27c4.062-0.213,8.263-0.434,12.59-0.66c4.322-0.278,8.77-0.563,13.331-0.856
									c4.561-0.287,9.237-0.581,14.012-0.881c2.4-0.13,4.826-0.262,7.276-0.395c2.45-0.122,4.92-0.316,7.43-0.252
									c2.505,0.006,5.033,0.013,7.581,0.02c2.547,0.052,5.107,0.31,7.69,0.459c1.29,0.088,2.586,0.177,3.886,0.266
									c1.299,0.103,2.591,0.295,3.894,0.44c2.602,0.314,5.221,0.629,7.855,0.947c5.246,0.665,10.346,1.566,15.462,2.124
									c5.103,0.633,10.131,1.257,15.07,1.869c1.236,0.156,2.467,0.311,3.692,0.465c1.227,0.183,2.447,0.365,3.663,0.546
									c2.422,0.376,4.853,0.693,7.198,1.111c4.676,0.841,9.342,1.421,13.877,2.346c4.524,0.918,8.96,2.183,12.902,4.322
									c1.946,1.082,3.824,2.331,5.375,3.881c1.529,1.545,2.92,3.176,4.038,4.942c2.3,3.496,3.777,7.263,4.877,10.921
									c1.072,3.677,1.704,7.293,2.127,10.749c0.816,6.924,0.802,13.226,0.574,18.727c-0.232,5.505-0.686,10.226-1.115,14.073
									c-0.432,3.848-0.839,6.825-1.117,8.844C539.326,415.921,539.177,416.98,539.177,416.98z"/>
							</g>
						</g>
					</g>
					<g>
						<g>
							<g>
								<path d="M238.009,361.062c0,0-0.123,0.388-0.363,1.146c-0.258,0.751-0.576,1.89-0.969,3.388
									c-0.375,1.501-0.843,3.364-1.188,5.6c-0.378,2.232-0.799,4.815-1.093,7.738c-0.61,5.831-0.938,13.082,0.311,21.318
									c0.656,4.1,1.673,8.455,3.436,12.813c1.735,4.362,4.196,8.731,7.533,12.715c3.341,3.971,7.55,7.537,12.489,10.317
									c2.448,1.425,5.095,2.615,7.852,3.655c2.744,1.084,5.645,1.836,8.651,2.566c5.989,1.466,12.235,2.803,18.717,3.782
									c6.472,0.974,13.229,1.605,20.078,1.402c6.81-0.419,13.701-2.108,20.386-4.759c6.707-2.632,13.234-6.132,19.909-9.724
									c6.663-3.634,13.797-7.023,21.604-8.86c3.895-0.906,7.958-1.384,12.052-1.202c4.099,0.177,8.176,1.021,12.071,2.552
									c7.56,3.337,14.169,7.86,20.677,12.201c6.486,4.354,12.893,8.584,19.719,11.584c6.845,3.006,13.947,5.172,20.983,6.774
									c7.049,1.578,14.079,2.578,20.966,2.854c6.878,0.263,13.631-0.123,19.985-1.501c3.175-0.683,6.255-1.578,9.17-2.754
									c2.907-1.189,5.649-2.637,8.161-4.334c2.523-1.681,4.782-3.654,6.733-5.832c1.969-2.168,3.732-4.488,5.245-6.883
									c0.798-1.173,1.455-2.418,2.156-3.618c0.627-1.241,1.29-2.449,1.826-3.703c1.15-2.472,2.064-4.985,2.853-7.471
									c1.554-4.983,2.506-9.893,3.031-14.58c0.538-4.686,0.699-9.147,0.642-13.314c-0.127-8.341-1.092-15.496-2.08-21.287
									c-1.007-5.796-2.088-10.241-2.859-13.242c-0.389-1.5-0.697-2.641-0.916-3.405c-0.214-0.765-0.323-1.157-0.323-1.157
									s0.118,0.389,0.35,1.149c0.236,0.759,0.569,1.893,0.992,3.385c0.836,2.985,2.012,7.411,3.134,13.2
									c1.104,5.786,2.207,12.945,2.479,21.338c0.131,4.193,0.044,8.693-0.425,13.439c-0.455,4.746-1.343,9.738-2.85,14.832
									c-0.766,2.541-1.661,5.118-2.802,7.66c-0.53,1.288-1.191,2.535-1.816,3.814c-0.7,1.239-1.358,2.523-2.161,3.738
									c-1.525,2.483-3.292,4.874-5.308,7.152c-2.007,2.294-4.343,4.384-6.95,6.167c-2.597,1.799-5.433,3.336-8.435,4.602
									c-3.009,1.251-6.182,2.209-9.444,2.945c-6.533,1.483-13.441,1.939-20.465,1.729c-7.031-0.225-14.192-1.19-21.374-2.749
									c-7.176-1.588-14.395-3.743-21.44-6.797c-7.086-3.08-13.624-7.379-20.126-11.72c-6.494-4.319-13.096-8.787-20.257-11.946
									c-3.582-1.406-7.426-2.214-11.251-2.378c-3.835-0.176-7.672,0.264-11.395,1.12c-7.465,1.738-14.428,4.994-21.051,8.572
									c-6.676,3.553-13.315,7.072-20.203,9.725c-6.872,2.672-14.006,4.378-21.113,4.752c-7.08,0.148-13.893-0.56-20.447-1.609
									c-6.552-1.058-12.826-2.473-18.845-4.02c-1.502-0.412-2.998-0.751-4.468-1.215c-0.734-0.238-1.465-0.477-2.193-0.714
									c-0.723-0.246-1.426-0.535-2.135-0.799c-2.815-1.102-5.519-2.36-8.021-3.86c-5.043-2.926-9.333-6.664-12.706-10.796
									c-3.371-4.145-5.82-8.66-7.517-13.133c-1.726-4.472-2.683-8.906-3.275-13.065c-1.119-8.351-0.65-15.633,0.076-21.474
									c0.353-2.931,0.826-5.504,1.251-7.733c0.394-2.238,0.902-4.093,1.31-5.588c0.426-1.492,0.769-2.623,1.044-3.37
									C237.877,361.447,238.009,361.062,238.009,361.062z"/>
							</g>
						</g>
					</g>
					<g>
						<g>
							<g>
								<path d="M443.626,329.543c0,0-0.903-0.069-2.623-0.2c-0.858-0.066-1.922-0.149-3.179-0.246
									c-0.628-0.042-1.303-0.115-2.027-0.145c-0.725-0.022-1.497-0.046-2.314-0.072c-6.536-0.321-16.01-0.18-27.667,0.783
									c-5.831,0.462-12.214,1.065-19.074,1.677c-3.426,0.32-6.997,0.555-10.662,0.846c-3.668,0.268-7.451,0.378-11.327,0.578
									c-15.508,0.575-32.545,0.371-50.344,1.191c-8.865,0.546-17.612,1.154-25.968,1.857c-4.176,0.388-8.263,0.852-12.232,1.481
									c-3.956,0.678-7.815,1.438-11.474,2.531c-3.639,1.119-7.17,2.349-10.324,4.073l-1.199,0.605l-1.128,0.703
									c-0.744,0.474-1.507,0.913-2.222,1.405c-1.354,1.081-2.793,2.031-3.942,3.26c-2.506,2.243-4.416,4.915-5.954,7.643
									c-0.828,1.334-1.408,2.769-2.066,4.125c-0.526,1.415-1.134,2.768-1.525,4.164c-1.762,5.519-2.53,10.768-2.863,15.38
									c-0.327,4.621-0.208,8.625-0.025,11.886c0.117,1.63,0.21,3.08,0.37,4.329c0.138,1.252,0.244,2.314,0.385,3.164
									c0.25,1.706,0.381,2.602,0.381,2.602s-0.167-0.89-0.485-2.585c-0.175-0.846-0.322-1.903-0.506-3.152
									c-0.206-1.247-0.352-2.695-0.527-4.328c-0.299-3.265-0.554-7.286-0.369-11.96c0.193-4.666,0.812-10.003,2.466-15.697
									c0.364-1.438,0.949-2.845,1.457-4.314c0.642-1.416,1.207-2.91,2.033-4.319c1.525-2.864,3.478-5.728,6.06-8.143
									c1.19-1.317,2.668-2.346,4.073-3.507c0.738-0.53,1.524-1.004,2.294-1.515l1.168-0.756l1.235-0.654
									c3.262-1.856,6.885-3.188,10.616-4.395c3.749-1.179,7.68-2.008,11.703-2.745c4.031-0.687,8.168-1.197,12.379-1.623
									c8.432-0.776,17.093-1.417,26.067-1.969c17.918-0.825,34.954-0.465,50.406-0.809c15.442-0.286,29.32-1.688,41.042-2.255
									c11.712-0.659,21.234-0.493,27.768,0.059c0.817,0.055,1.589,0.107,2.315,0.155c0.724,0.056,1.397,0.153,2.025,0.219
									c1.253,0.145,2.313,0.267,3.17,0.367C442.727,329.439,443.626,329.543,443.626,329.543z"/>
							</g>
						</g>
					</g>
				</g>
				<g>
					<g>
						<g>
							<g>
								<path d="M524.81,413.895c0,0,0.098-0.934,0.282-2.713c0.181-1.779,0.448-4.403,0.716-7.786
									c0.259-3.384,0.53-7.529,0.573-12.341c0.027-4.806-0.119-10.301-1.069-16.25c-0.482-2.969-1.179-6.048-2.251-9.126
									c-1.067-3.072-2.576-6.136-4.69-8.866c-3.991-6.001-11.934-7.31-19.687-8.569c-3.943-0.574-8.024-0.982-12.214-1.46
									c-2.094-0.234-4.233-0.539-6.372-0.879c-2.12-0.271-4.261-0.545-6.42-0.821c-8.664-1.129-17.636-2.299-26.824-3.497
									c-4.612-0.614-9.1-1.135-13.561-1.672c-4.468-0.273-8.863-0.786-13.203-0.696c-1.084-0.011-2.163-0.021-3.237-0.031
									s-2.144-0.04-3.21,0.033c-2.133,0.095-4.244,0.189-6.334,0.282c-4.17,0.168-8.309,0.415-12.316,0.605
									c-16.056,0.916-30.52,1.178-42.653,1.676c-6.068,0.217-11.558,0.413-16.378,0.585c-4.815,0.276-8.962,0.514-12.352,0.708
									c-6.784,0.375-10.535,0.582-10.535,0.582s3.741-0.343,10.506-0.964c3.385-0.302,7.527-0.672,12.335-1.102
									c4.817-0.305,10.302-0.652,16.365-1.036c12.125-0.805,26.583-1.374,42.586-2.518c4.011-0.249,8.086-0.544,12.315-0.763
									c2.109-0.115,4.24-0.232,6.392-0.35c1.074-0.083,2.161-0.063,3.252-0.062c1.091,0.002,2.188,0.003,3.288,0.004
									c4.41-0.122,8.873,0.368,13.413,0.63c4.501,0.522,9.113,1.052,13.689,1.66c9.189,1.234,18.159,2.439,26.823,3.603
									c2.173,0.297,4.326,0.592,6.459,0.884c2.094,0.352,4.157,0.668,6.239,0.925c4.158,0.522,8.264,0.985,12.261,1.625
									c3.992,0.656,7.894,1.455,11.579,2.781c1.824,0.732,3.613,1.511,5.213,2.728c1.503,1.239,2.808,2.605,3.912,4.087
									c2.202,2.966,3.705,6.216,4.738,9.42c1.037,3.211,1.671,6.379,2.086,9.414c0.812,6.079,0.802,11.618,0.631,16.449
									c-0.186,4.836-0.594,8.98-0.968,12.359c-0.383,3.378-0.745,5.991-0.993,7.763
									C524.943,412.965,524.81,413.895,524.81,413.895z"/>
							</g>
						</g>
					</g>
					<g>
						<g>
							<g>
								<path d="M252.48,366.274c0,0-0.134,0.338-0.395,0.998c-0.288,0.648-0.715,1.613-1.276,2.879
									c-0.537,1.269-1.299,2.827-1.762,4.779c-0.22,0.972-0.317,2.071-0.498,3.217c-0.156,1.153-0.373,2.376-0.444,3.687
									c-0.506,5.204-0.665,11.701,0.807,18.984c0.196,0.906,0.396,1.827,0.599,2.764c0.24,0.926,0.561,1.847,0.845,2.794
									c0.147,0.472,0.294,0.947,0.443,1.426c0.145,0.48,0.375,0.934,0.561,1.407c0.392,0.938,0.789,1.892,1.193,2.858
									c1.87,3.748,4.318,7.463,7.506,10.829c3.25,3.309,7.253,6.134,11.765,8.399c1.152,0.52,2.316,1.044,3.491,1.574
									c1.207,0.448,2.451,0.835,3.691,1.263c2.466,0.912,5.091,1.27,7.812,1.554c10.905,1.027,22.683-0.288,35.126-0.92
									c1.577-0.038,3.071-0.176,4.577-0.365c0.753-0.13,1.509-0.26,2.266-0.391c0.749-0.178,1.501-0.355,2.254-0.534
									c2.996-0.805,5.931-1.982,8.81-3.382c5.768-2.802,11.293-6.486,17.229-9.847c2.976-1.709,6.093-3.204,9.307-4.571
									c3.223-1.348,6.591-2.496,10.107-3.239c3.51-0.734,7.179-1.09,10.849-0.739c1.83,0.188,3.663,0.476,5.449,0.976
									c0.893,0.246,1.789,0.489,2.663,0.843l1.32,0.489c0.423,0.188,0.818,0.413,1.228,0.617c6.59,3.262,12.5,7.155,18.423,10.892
									c5.899,3.753,11.66,7.513,17.488,10.844c2.898,1.723,5.839,3.169,8.817,4.518c3.026,1.261,6.094,2.365,9.168,3.328
									c6.15,1.922,12.337,3.293,18.436,4.079c6.097,0.791,12.124,0.956,17.891,0.336c5.761-0.604,11.278-2.06,16.078-4.555
									c2.399-1.238,4.616-2.721,6.592-4.418c0.955-0.884,1.906-1.755,2.745-2.724c0.448-0.455,0.843-0.959,1.224-1.472
									c0.389-0.506,0.775-1.009,1.16-1.51c0.385-0.501,0.769-1,1.149-1.496c0.345-0.521,0.657-1.061,0.984-1.586
									c0.626-1.068,1.337-2.075,1.877-3.162c0.529-1.094,1.053-2.175,1.57-3.244c0.279-0.525,0.483-1.08,0.685-1.633
									c0.207-0.551,0.412-1.099,0.616-1.643c0.903-2.148,1.379-4.382,2.017-6.504c0.247-1.08,0.441-2.158,0.661-3.216
									c0.222-1.058,0.432-2.104,0.539-3.151c0.135-1.043,0.269-2.072,0.4-3.085c0.135-1.014,0.153-2.024,0.235-3.013
									c0.056-0.99,0.154-1.964,0.173-2.925c0.01-0.961,0.02-1.907,0.03-2.837c0.021-7.444-0.775-13.843-1.626-19.018
									c-0.395-2.597-0.913-4.873-1.303-6.857c-0.467-1.969-0.861-3.634-1.18-4.981c-0.72-2.673-1.099-4.076-1.099-4.076
									s0.414,1.394,1.2,4.049c0.352,1.34,0.785,2.998,1.299,4.957c0.437,1.978,1.007,4.247,1.46,6.842
									c0.966,5.171,1.902,11.577,2.025,19.08c0.008,0.938,0.016,1.892,0.023,2.862c0,0.97-0.081,1.955-0.119,2.956
									c-0.063,1-0.064,2.022-0.182,3.05c-0.115,1.028-0.232,2.072-0.35,3.132c-0.09,1.063-0.283,2.128-0.49,3.205
									c-0.204,1.078-0.383,2.178-0.615,3.28c-0.611,2.17-1.061,4.454-1.946,6.666c-0.199,0.56-0.4,1.122-0.602,1.689
									c-0.197,0.569-0.398,1.14-0.675,1.684c-0.514,1.105-1.033,2.223-1.559,3.353c-0.538,1.124-1.25,2.173-1.879,3.281
									c-0.329,0.546-0.644,1.105-0.99,1.648c-0.385,0.517-0.771,1.036-1.16,1.559c-0.39,0.523-0.781,1.048-1.174,1.575
									c-0.386,0.534-0.787,1.061-1.251,1.547c-0.864,1.025-1.848,1.955-2.84,2.896c-2.047,1.811-4.353,3.398-6.849,4.728
									c-4.992,2.677-10.711,4.251-16.644,4.942c-5.941,0.705-12.122,0.596-18.357-0.154c-6.24-0.745-12.554-2.091-18.841-4.006
									c-3.143-0.96-6.278-2.063-9.391-3.339c-3.077-1.366-6.17-2.871-9.097-4.592c-5.938-3.356-11.729-7.107-17.63-10.839
									c-5.896-3.703-11.875-7.608-18.157-10.714c-3.101-1.549-6.45-2.375-9.841-2.713c-3.392-0.33-6.813-0.009-10.134,0.677
									c-6.646,1.414-12.925,4.276-18.759,7.483c-5.854,3.271-11.439,6.953-17.414,9.806c-2.982,1.424-6.06,2.635-9.225,3.457
									c-0.797,0.182-1.592,0.363-2.384,0.544c-0.8,0.147-1.604,0.263-2.402,0.393c-1.617,0.192-3.242,0.319-4.773,0.341
									c-12.364,0.508-24.235,1.713-35.396,0.52c-1.394-0.141-2.769-0.378-4.131-0.618c-0.68-0.158-1.356-0.315-2.03-0.472
									c-0.678-0.146-1.297-0.43-1.943-0.637c-1.275-0.458-2.552-0.876-3.789-1.357c-1.203-0.563-2.395-1.121-3.574-1.674
									c-4.619-2.402-8.707-5.387-12.002-8.854c-3.233-3.524-5.682-7.388-7.524-11.257c-0.395-0.994-0.784-1.976-1.168-2.941
									c-0.18-0.487-0.406-0.954-0.545-1.446c-0.143-0.491-0.285-0.979-0.425-1.462c-0.271-0.969-0.58-1.911-0.805-2.857
									c-0.188-0.955-0.373-1.895-0.555-2.818c-1.349-7.415-1.047-13.952-0.425-19.17c0.1-1.315,0.344-2.536,0.527-3.688
									c0.209-1.151,0.328-2.228,0.576-3.227c0.519-1.98,1.319-3.511,1.887-4.772c0.592-1.251,1.044-2.205,1.348-2.846
									C252.338,366.608,252.48,366.274,252.48,366.274z"/>
							</g>
						</g>
					</g>
					<g>
						<g>
							<g>
								<path d="M435.373,339.317c0,0-0.798-0.059-2.316-0.17c-1.52-0.09-3.75-0.349-6.64-0.381
									c-5.771-0.253-14.129-0.068-24.416,0.824c-5.145,0.414-10.78,0.981-16.835,1.519c-3.041,0.196-6.186,0.398-9.426,0.607
									c-1.621,0.102-3.266,0.204-4.933,0.309c-1.667,0.107-3.357,0.222-5.067,0.237c-6.837,0.149-14.015,0.305-21.456,0.467
									c-3.714,0.072-7.493,0.146-11.329,0.22c-3.821,0.207-7.699,0.416-11.623,0.628c-15.729,1.011-30.789,1.652-43.956,4.826
									c-6.535,1.599-12.667,3.851-17.336,7.47c-1.139,0.928-2.221,1.873-3.109,2.991c-0.958,1.056-1.733,2.227-2.515,3.361
									c-1.447,2.35-2.537,4.787-3.419,7.176c-1.652,4.827-2.399,9.446-2.746,13.508c-0.34,4.071-0.269,7.605-0.128,10.485
									c0.175,2.879,0.429,5.11,0.638,6.616c0.217,1.507,0.33,2.298,0.33,2.298s-0.149-0.785-0.434-2.281
									c-0.275-1.498-0.625-3.72-0.917-6.604c-0.256-2.885-0.463-6.437-0.264-10.565c0.207-4.12,0.805-8.834,2.357-13.849
									c0.834-2.486,1.89-5.043,3.34-7.545c0.786-1.213,1.571-2.465,2.559-3.613c0.912-1.204,2.065-2.272,3.257-3.287
									c2.439-1.979,5.255-3.611,8.284-4.917c3.026-1.322,6.248-2.387,9.595-3.253c6.697-1.747,13.871-2.796,21.302-3.552
									c3.717-0.379,7.503-0.674,11.337-0.955c1.912-0.143,3.838-0.287,5.776-0.432c1.94-0.133,3.915-0.219,5.889-0.329
									c3.955-0.205,7.863-0.406,11.714-0.605c3.847-0.048,7.637-0.096,11.361-0.143c7.435-0.065,14.608-0.128,21.44-0.189
									c1.709,0.014,3.389-0.071,5.047-0.146c1.659-0.072,3.295-0.142,4.908-0.211c3.228-0.137,6.361-0.269,9.39-0.397
									c6.067-0.395,11.715-0.809,16.888-1.071c10.34-0.588,18.748-0.466,24.519,0.018c2.892,0.148,5.117,0.503,6.631,0.66
									C434.579,339.223,435.373,339.317,435.373,339.317z"/>
							</g>
						</g>
					</g>
				</g>
			</g>
		</g>
	</g>
</g>
</svg>
