<?xml version="1.0" encoding="utf-8"?>
<!-- Generator: Adobe Illustrator 25.0.1, SVG Export Plug-In . SVG Version: 6.00 Build 0)  -->
<svg version="1.1" id="Capa_1" xmlns="http://www.w3.org/2000/svg" xmlns:xlink="http://www.w3.org/1999/xlink" x="0px" y="0px"
	 viewBox="0 0 800 800" enable-background="new 0 0 800 800" xml:space="preserve">
<g id="ojos">
	<g id="_x32__2_">
		<path opacity="0.3" enable-background="new    " d="M354.91,382.965c-3.001,5.276-7.896,8.578-13.552,11.056
			c-4.493,1.968-11.133,5.171-15.299,0.888c-5.849-6.014,3.204-13.935,7.947-16.782c3.25-1.951,6.981-4.082,10.784-4.676
			c1.066-0.166,2.188-0.262,3.327-0.351c0.603-0.439,1.281-0.675,1.983-0.742c-2.372-0.539-4.969-0.847-7.106-1.351
			c-3.747-0.884-6.679-1.031-10.235,0.75c-6.139,3.075-9.928,8.674-14.195,13.999c-3.912,4.882-11.386,12.117-11.318,18.488
			c0.084,7.786,15.665,7.024,20.519,5.519c5.387-1.671,10.571-4.185,15.987-5.568c4.388-1.121,13.673-2.272,13.5-8.694l0.25-0.25
			c1.63-3.579,1.353-8.454,0.383-12.764C356.898,382.698,355.907,382.845,354.91,382.965z"/>
		<path opacity="0.3" enable-background="new    " d="M421,342c-16.628-17.429-23.158,9.907-22.023,22.023
			c0.691,7.386,2.754,13.916,3.023,21.977c0.235,7.057-0.947,17.053,3.996,22.147c1.396-4.479,6.27-7.582,8.755-12.369
			c2.665-5.133,3.354-11.562,5.221-16.806c3.397-9.545,11.354-20.787,7.028-30.972"/>
		<g>
			<path fill="#87654D" d="M431.069,415.591c-1.733-1.135-4.221-0.912-5.651-2.712c-1.478-1.857-1.48-4.941-1.714-7.258
				c-0.28-2.735-0.553-4.252-3.312-5.134c-2.12-0.678-4.619-0.171-6.591-1.481c-3.571-2.375-4.889-9.003-0.498-11.008
				c2.228-1.017,5.211-0.761,7.569-1.433c1.387-0.396,1.881-0.348,2.245-1.945c0.263-1.15,0.238-2.403,0.475-3.54
				c0.558-2.664,0.765-5.686,1.027-8.441c0.273-2.864-0.229-5.79,0.791-8.492c2.556-0.283,5.44-0.798,7.929-0.405
				c2.083,0.329,3.941,1.366,5.955,2.199c2.05,0.848,4.33,1.47,6.459,2.168c1.017,0.333,2.196,0.898,3.104,0.302
				c0.615-0.404,1.315-1.864,1.792-2.477c1.348-1.73,2.599-3.32,4.314-4.651c2.282-1.772,4.035-2.206,7.066-2.08
				c2.387,0.1,4.019,1.65,6.284,2.187c2.545,0.602,4.107-1.775,5.199-3.745c1.497-2.705-2.089-2.724-4.031-3.013
				c-2.388-0.355-4.719-0.912-7.078-1.129c-5.327-0.489-10.658-1.411-16.121-1.665c-5.229-0.243-10.298-0.529-15.417-1.029
				c-4.211-0.412-11.199-1.756-15.041,0.575c-4.098,2.489-4.465,8.204-4.661,12.308c-0.233,4.931-2.045,9.123-2.785,13.839
				c-0.755,4.809-2.181,9.094-2.436,14.154c-0.264,5.241,0.088,10.65,0.159,15.856c0.062,4.701-0.436,11.161,2.577,14.932
				c2.174,2.718,10.97-2.318,13.907-3.096c2.836-0.752,6.473-1.442,8.859-2.971"/>
			<path fill="#87654D" d="M468.614,354.184c2.359-0.292,4.779,0.77,6.915,1.31c2.377,0.601,4.781,0.925,7.251,1.287
				c4.091,0.6,9.594,1.943,11.779,5.778c2.491,4.37,2.685,9.073,2.96,14.331c0.286,5.49,0.498,10.853,0.518,16.34
				c0.016,4.656-2.282,9.104-2.966,13.677c-0.711,4.758-0.984,9.748-1.952,14.431c-1.114,5.39-5.629,6.343-10.641,6.604
				c-5.502,0.287-11.085,0.409-16.496,0.691c-10.888,0.567-21.702,1.135-31.931-0.497c-4.44-0.708-8.926-1.095-13.586-1.304
				c-4.048-0.182-8.253-1.107-11.225-4.384c3.972-2.176,8.296-4.063,12.467-6.244c0.948-0.495,1.883-1.102,2.84-1.568
				c1.43-0.694,1.811-0.349,3.288-0.212c2.643,0.243,5.31-0.611,7.977-0.75c2.606-0.137,5.286-0.168,7.861,0.083
				c2.579,0.251,3.064,2.27,4.09,4.268c2.114,4.111,7.668,5.184,11.906,4.128c1.823-0.454,3.987-1.808,5.441-3.034
				c0.974-0.82,1.378-1.459,1.57-2.712c0.192-1.254-0.094-2.393,1.525-2.76c1.099-0.249,2.453,0.393,3.529,0.497
				c1.298,0.124,2.533,0.063,3.852,0.128c2.568,0.127,4.83,0.284,6.768-1.521c1.07-0.998,1.208-1.334,1.359-2.743
				c0.131-1.227-0.091-2.23,0.879-3.176c1.584-1.546,4.114-1.109,5.339-3.285c1.161-2.064,1.418-4.306,0.249-6.354
				c-0.484-0.848-0.76-2.262-1.313-2.946c-0.671-0.828-2.148-0.858-3.037-1.21c-2.762-1.092-1.513-3.603-0.97-5.805
				c0.584-2.37,0.298-5.264,0.438-7.7c0.111-1.934,0.859-5.895-0.514-7.527c-1.625-1.934-4.712-1.379-6.958-1.266
				c-2.71,0.134-5.793,1.444-8.435,1.082c-0.346-1.408,0.156-2.983,0.076-4.488c-0.086-1.618-0.209-3.058-0.73-4.475
				c-0.975-2.654-1.013-5.76,0.062-8.349"/>
			<path fill="#DDC9B8" d="M462.861,359.159c4.02,1.792,7.949,4.957,7.161,9.944c-0.39,2.465-1.487,4.592-1.724,7.141
				c-0.242,2.592-0.097,5.277,0.046,8.014c0.107,2.07-0.139,5.674,1.659,6.968c1.66,1.197,5.336,0.683,7.418,0.574
				c4.503-0.234,9.977-0.439,12.598,3.811c1.078,1.747,1.929,5.44,0.843,7.345c-1.056,1.852-4.316,2.619-6.193,2.991
				c-5.062,1.005-8.942-2.222-14.116-1.765c-6.963,0.614-3.714,7.02-4.385,11.922c-0.692,5.062-7.121,6.267-11.418,5.442
				c-3.689-0.705-7.92-4.926-8.288-8.594c-0.504-5.031-0.891-9.562-6.305-11.325c-4.599-1.496-10.176-0.777-15.195-0.751
				c-3.926,0.021-9.78-0.803-12.768-3.799c-4.216-4.227,0.483-7.616,4.216-9.613c1.943-1.04,4.263-2.066,6.627-1.716
				c2.15,0.317,4.271,1.468,6.398,1.882c2.292,0.446,4.686,0.583,6.949,1.095c1.992,0.45,4.758,1.755,6.881,1.348
				c4.09-0.783,4.427-8.595,4.727-11.772c0.455-4.841,0.087-9.357,2.592-13.694c2.059-3.563,7.599-6.925,11.884-5.889
				c0.214,0.051,0.414,0.173,0.552,0.269"/>
			<path fill="#FFFFFF" d="M446.339,413.793c-1.532-4.539,0.54-10.482-5.126-12.633c-2.225-0.844-5.108-0.696-7.586-0.564
				c-2.649,0.14-5.546-0.334-8.169,0.26c-0.446,0.102-0.832,0.158-1.298,0.258c0.007,4.102-1.152,11.915,3.858,12.929
				c4.91,0.994,11.073-0.279,16.146-0.303c0.594-0.002,1.053,0.093,1.674,0.079"/>
			<path fill="#FFFFFF" d="M483.41,407.353c-0.534,1.067-0.726,2.154-0.992,3.232c-0.207,0.839-0.165,2.65-0.708,3.331
				c-1.254,1.574-5.97,0.69-7.63,0.444c-1.217-0.182-2.373-0.236-3.646-0.358c-0.938-0.089-3.007,0.154-3.857-0.3
				c-1.218-0.65-1.442-5.915-0.755-7.276c1.395-2.76,7.215-2.671,9.757-2.012c2.539,0.66,6.643,1.794,8.688,3.394"/>
			<path fill="#FFFFFF" d="M468.456,373.564c1.826-1.552,4.036-2.06,6.246-2.626c2.11-0.541,5.105-1.617,7.411-1.258
				c4.988,0.775,2.661,9.444,2.501,12.728c-0.115,2.362,0.559,5.717-0.253,7.867c-0.855,2.264-4.694,1.807-6.764,1.683
				c-2.142-0.128-4.8-0.272-6.715-1.356c-2.533-1.436-2.564-3.648-2.704-6.334c-0.167-3.2,0.021-6.488,0.504-9.546"/>
			<path fill="#FFFFFF" d="M449.691,369.198c-4.433,0.263-24.537-11.083-25.015-2.537c-0.299,5.372,0.573,10.329-0.881,15.237
				c-0.286,0.971-0.961,2.305-0.654,3.378c0.397,1.38,1.322,1.395,2.753,1.527c2.503,0.233,4.814,0.801,7.238,1.303
				c2.363,0.487,4.778,1.123,7.23,1.487c1.814,0.267,5.636-0.001,6.765-1.596c1.365-1.93,0.821-5.107,1.146-7.38
				c0.335-2.334,1.014-4.666,1.271-7.108c0.14-1.318,0.101-2.748,0.498-3.996"/>
			<path d="M411.624,354.799c2.956-2.956-0.089-7.761,0.076-10.893c0.199-3.75,2.637-6.519,0.107-10.475
				c1.37,2.412,3.421,4.609,4.684,6.951c0.31-0.819,0.368-2.145,0.146-3.245c2.29,2.768,6.572,3.646,10.062,3.6
				c0.127-0.676,0.718-1.154,0.883-1.608c3.124,5.263,13.634,8.04,19.016,8.632c-1.521,0.097-3.482-2.11-4.495-3.671
				c3.174,1.772,6.083,2.417,9.244,3.931c2.893,1.385,5.956,3.352,9.259,3.566c-4.586,0.239-7.87-0.86-11.941-1.288
				c-4.389-0.461-9.156,0.499-13.469,0.306c-4.143-0.185-8.36-0.681-12.586-0.673c-2.21,0.003-4.346,0.013-6.142,1.064
				c-1.562,0.912-2.474,2.618-4.202,3.441"/>
			<g>
				<g>
					<g>
						<path d="M357.807,382.191c0,0,0.098,0.469,0.286,1.36c0.184,0.894,0.45,2.213,0.674,3.943c0.214,1.728,0.474,3.873,0.181,6.44
							c-0.203,1.27-0.439,2.678-1.14,4.06c-0.279,0.722-0.784,1.356-1.236,2.048c-0.559,0.599-1.101,1.279-1.809,1.776
							c-0.659,0.583-1.426,0.991-2.204,1.443c-0.388,0.23-0.805,0.366-1.216,0.555c-0.415,0.163-0.831,0.387-1.264,0.498
							c-0.858,0.249-1.753,0.581-2.641,0.732c-0.448,0.095-0.899,0.19-1.355,0.285c-0.474,0.094-0.808,0.202-1.222,0.301
							c-3.223,0.833-6.59,2.548-10.279,4.332c-1.851,0.892-3.806,1.81-5.953,2.579c-2.141,0.764-4.499,1.393-7.059,1.52
							c-0.64,0.062-1.272,0.021-1.911-0.008c-0.652-0.016-1.249-0.091-1.859-0.158c-0.609-0.065-1.219-0.124-1.854-0.275
							c-0.628-0.148-1.262-0.218-1.891-0.444c-2.503-0.718-5.119-1.974-7.159-4.277c-1.041-1.113-1.777-2.566-2.241-4.058
							c-0.137-0.766-0.38-1.537-0.343-2.301l-0.007-1.144c0.019-0.375,0.097-0.733,0.149-1.099c0.488-2.913,1.936-5.276,3.46-7.182
							c1.433-1.711,2.84-3.393,4.218-5.039c1.369-1.64,2.722-3.253,4.082-4.806c2.723-3.107,5.434-5.989,8.324-8.451
							c1.395-1.221,3.057-2.404,4.76-3.12c1.701-0.724,3.419-1.209,5.062-1.369c3.292-0.41,6.175,0.033,8.62,0.47
							c2.449,0.465,4.498,1.003,6.174,1.422c3.344,0.86,5.222,1.226,5.222,1.226s-1.919-0.038-5.366-0.413
							c-1.721-0.176-3.822-0.427-6.235-0.575c-2.402-0.128-5.161-0.196-7.964,0.475c-1.411,0.288-2.789,0.854-4.119,1.574
							c-1.348,0.737-2.487,1.714-3.722,2.984c-2.438,2.464-4.848,5.427-7.31,8.611c-1.228,1.614-2.485,3.268-3.77,4.958
							c-0.655,0.858-1.316,1.725-1.984,2.6c-0.656,0.841-1.317,1.689-1.985,2.545c-1.188,1.569-2.064,3.254-2.299,4.89
							c-0.022,0.201-0.079,0.407-0.083,0.604c0.012,0.195,0.02,0.389,0.021,0.584l-0.001,0.292c0.013,0.095,0.043,0.185,0.062,0.277
							c0.042,0.184,0.078,0.368,0.109,0.556c0.259,0.703,0.562,1.408,1.149,2.01c1.085,1.246,2.788,2.186,4.659,2.742
							c1.841,0.546,4.03,0.839,5.858,0.841c3.784-0.065,7.646-1.593,11.372-3.117c3.747-1.527,7.461-3.126,11.361-3.795
							c0.476-0.073,1.017-0.175,1.424-0.218c0.423-0.05,0.843-0.1,1.258-0.148c0.853-0.064,1.596-0.281,2.375-0.42
							c0.396-0.059,0.733-0.213,1.098-0.313c0.351-0.123,0.731-0.199,1.054-0.354c0.65-0.301,1.322-0.56,1.865-0.958
							c0.611-0.325,1.055-0.804,1.559-1.213c0.395-0.5,0.868-0.938,1.152-1.497c0.701-1.034,1.057-2.223,1.385-3.333
							c0.561-2.273,0.61-4.389,0.641-6.093c0.025-1.714-0.036-3.057-0.075-3.964C357.827,382.669,357.807,382.191,357.807,382.191z"
							/>
					</g>
				</g>
			</g>
			<path d="M295.609,373.736c7.02-2.738,10.812-11.775,17.865-13.748c2.263-0.633,4.026-0.398,6.135-1.384
				c1.778-0.833,3.393-2.007,5.136-2.912c4.317-2.243,8.554-4.167,11.831-8.096c-0.741,1.633-2.128,3.065-3.057,4.597
				c4.648-0.629,6.85-5.509,10.791-6.727c1.206,1.681,7.22,0.704,9.343,0.805c2.986,0.141,6.86,0.524,9.655-0.76
				c4.354-2,7.635-9.237,12.889-9.026c-6.04,0.315-10.132,2.036-15.175,4.359c2.55-2.132,5.606-4.874,8.523-6.582
				c-4.798-0.107-8.612,2.767-12.898,4.305c-4.529,1.626-9.829,2.311-14.52,3.256c-4.674,0.942-9.263,2.052-13.578,4.416
				c-3.363,1.844-9.34,3.75-11.886,6.57c-0.183,0.202-0.798,0.538-0.934,0.635c2.908-0.233,7.509-1.624,9.648-3.684
				c-4.772,5.743-12.37,5.594-17.489,10.538c-4.343,4.194-8.553,9.126-12.608,13.457"/>
			<g>
				<g>
					<g>
						<path d="M483.325,355.822c0,0-0.389,0.018-1.129,0.055c-0.739,0.015-1.839,0.126-3.25,0.082
							c-2.828,0.031-6.936-0.282-11.93-0.897c-2.5-0.291-5.208-0.639-8.132-0.892c-1.459-0.138-2.941-0.165-4.476-0.265
							c-1.519-0.129-3.132-0.084-4.774-0.078c-1.661,0.001-3.363,0.002-5.103,0.003c-0.879-0.004-1.768-0.008-2.664-0.013
							c-0.899-0.018-1.824-0.12-2.749-0.18c-1.849-0.151-3.742-0.239-5.672-0.595c-1.906-0.328-3.746-0.736-5.581-1.072
							c-3.633-0.672-7.213-1.076-10.005-0.128c-1.426,0.473-2.375,1.19-3.207,2.376c-0.815,1.153-1.381,2.588-1.795,4.062
							c-0.828,2.976-1.106,6.083-1.455,9.027c-0.164,1.459-0.383,2.99-0.669,4.307c-0.27,1.349-0.528,2.643-0.775,3.878
							c-0.981,4.914-1.704,8.897-2.064,11.678c-0.343,2.79-0.532,4.334-0.532,4.334s-0.041-1.559-0.117-4.377
							c-0.028-2.823,0.182-6.919,0.652-11.94c0.124-1.248,0.253-2.555,0.388-3.916c0.165-1.387,0.232-2.695,0.277-4.18
							c0.11-2.933,0.139-6.167,0.883-9.655c0.385-1.736,0.953-3.565,2.059-5.316l0.425-0.652l0.518-0.616
							c0.325-0.42,0.746-0.797,1.189-1.163c0.871-0.729,1.883-1.215,2.878-1.601c2.023-0.757,4.141-0.954,6.164-0.909
							c2.031,0.049,4.007,0.337,5.941,0.692c1.934,0.355,3.787,0.782,5.555,1.115c1.737,0.354,3.523,0.477,5.268,0.676
							c0.876,0.084,1.73,0.213,2.602,0.264c0.876,0.041,1.743,0.082,2.601,0.122c1.735,0.09,3.435,0.178,5.092,0.264
							c1.675,0.093,3.302,0.154,4.91,0.401c1.594,0.216,3.163,0.373,4.629,0.635c2.933,0.501,5.642,1.114,8.092,1.66
							c4.895,1.125,8.845,1.942,11.626,2.301c1.384,0.238,2.471,0.29,3.206,0.389C482.938,355.779,483.325,355.822,483.325,355.822z
							"/>
					</g>
				</g>
			</g>
			<g>
				<g>
					<g>
						<path d="M493.936,416.732c0,0,0.16-1.44,0.45-4.045c0.161-1.3,0.357-2.89,0.586-4.736c0.233-1.841,0.545-3.937,0.772-6.245
							c0.131-1.152,0.268-2.359,0.41-3.617c0.099-1.253,0.149-2.547,0.237-3.885c0.084-1.337,0.207-2.709,0.114-4.163
							c-0.018-1.464-0.038-2.971-0.057-4.517c-0.037-3.071-0.095-6.269-0.361-9.522c-0.288-3.231-0.705-6.596-1.816-9.622
							c-0.521-1.535-1.29-2.843-2.139-3.991c-0.506-0.463-0.905-1.023-1.504-1.393c-0.556-0.409-1.194-0.772-1.862-1.079
							c-2.695-1.244-5.818-1.813-8.816-2.318c-3.01-0.507-5.975-0.919-8.764-1.716c-2.647-0.562-5.114-1.085-7.366-1.563
							c-4.549-1.004-8.246-1.626-10.842-1.86c-1.296-0.169-2.308-0.178-2.995-0.232c-0.689-0.043-1.052-0.066-1.052-0.066
							s0.36-0.039,1.046-0.113c0.686-0.059,1.703-0.213,3.018-0.239c2.63-0.157,6.475-0.044,11.147,0.453
							c1.164,0.125,2.384,0.256,3.654,0.392c0.632,0.068,1.277,0.139,1.935,0.21c0.327,0.035,0.658,0.07,0.991,0.106l0.503,0.054
							l0.253,0.027c0.116,0.008,0.353,0.063,0.386,0.066c2.559,0.493,5.448,0.678,8.556,0.999c3.098,0.338,6.482,0.714,9.973,2.161
							c0.868,0.367,1.732,0.814,2.568,1.393c0.872,0.532,1.57,1.332,2.319,2.064c1.272,1.599,2.272,3.378,2.906,5.224
							c0.355,0.918,0.571,1.843,0.833,2.757c0.177,0.915,0.413,1.827,0.527,2.728c0.276,1.803,0.449,3.575,0.519,5.301
							c0.164,3.457,0.055,6.75-0.104,9.854c-0.088,1.542-0.174,3.046-0.258,4.507c-0.019,1.478-0.264,2.928-0.474,4.322
							c-0.215,1.392-0.399,2.741-0.631,4.015c-0.279,1.257-0.547,2.463-0.803,3.615c-0.491,2.308-1.059,4.348-1.533,6.149
							c-0.482,1.795-0.899,3.342-1.239,4.606C494.324,415.336,493.936,416.732,493.936,416.732z"/>
					</g>
				</g>
			</g>
			<g>
				<g>
					<g>
						<path d="M422.645,427.885c0,0,1.456,0.002,4.088,0.005c1.312,0.015,2.918,0.033,4.781,0.054
							c0.93,0.017,1.924,0.034,2.978,0.054c1.054,0.016,2.165,0.071,3.336,0.013c2.336-0.052,4.895-0.107,7.642-0.168
							c1.37-0.018,2.787-0.037,4.247-0.056c1.459-0.012,2.952-0.158,4.486-0.227c6.135-0.288,12.869-0.978,20.061-1.427
							c1.809-0.104,3.596-0.205,5.356-0.306c1.76,0.013,3.339-0.045,4.867-0.252c1.515-0.208,2.917-0.579,4.066-1.196
							c1.152-0.612,2.047-1.472,2.702-2.558c0.648-1.086,1.103-2.351,1.334-3.68c0.161-0.645,0.195-1.342,0.302-1.998
							c0.078-0.709,0.155-1.406,0.231-2.093c0.323-2.742,0.624-5.298,0.898-7.631c1.151-9.327,2.062-15.079,2.062-15.079
							s0.129,5.821,0.018,15.207c-0.041,2.346-0.086,4.914-0.135,7.673c-0.087,2.633,0.064,6.038-1.64,9.311
							c-0.829,1.632-2.216,3.142-3.891,4.127c-1.671,1.003-3.515,1.539-5.323,1.853c-1.807,0.311-3.667,0.415-5.391,0.433
							c-1.717,0.114-3.459,0.229-5.222,0.347c-7.091,0.442-13.952,0.881-20.22,0.782c-1.565-0.029-3.094,0.013-4.571-0.089
							c-1.476-0.102-2.909-0.2-4.295-0.296c-2.765-0.216-5.34-0.416-7.691-0.6c-1.175-0.072-2.285-0.258-3.338-0.402
							c-1.051-0.151-2.041-0.295-2.968-0.43c-1.849-0.28-3.441-0.522-4.743-0.72C424.079,428.117,422.645,427.885,422.645,427.885z"
							/>
					</g>
				</g>
			</g>
			<g>
				<g>
					<g>
						<path d="M412.506,357.035c0,0-0.568,4.307-1.766,11.757c-0.598,3.72-1.343,8.181-2.249,13.263
							c-0.252,1.278-0.329,2.539-0.517,3.858c-0.037,0.329-0.09,0.657-0.116,0.991c-0.008,0.336-0.016,0.674-0.024,1.014
							c-0.018,0.679-0.036,1.367-0.055,2.063c-0.04,1.39,0.091,2.854,0.122,4.325c0.099,1.498,0.199,3.028,0.302,4.589
							c-0.002-0.025-0.007-0.082-0.012-0.138c0.081,0.761,0.176,1.643,0.28,2.62c0.062,0.962,0.098,2.009,0.14,3.12
							c0.049,2.186,0.019,4.612,0.129,6.97l0.054,1.376l0.131,1.33l0.127,1.323l0.237,1.263l0.23,1.255l0.373,1.173l0.343,1.107
							c0.018,0.067,0.039,0.073,0.074,0.14l0.142,0.237l0.28,0.478c0.805,1.215,1.873,2.145,3.166,2.801
							c1.29,0.661,2.775,1.053,4.294,1.311c3.061,0.514,6.189,0.525,9.23,0.866c3.032,0.431,5.673,1.041,8.127,1.513
							c4.885,1.002,8.844,1.657,11.62,1.908c1.385,0.169,2.467,0.194,3.202,0.239c0.737,0.043,1.124,0.065,1.124,0.065
							s-0.385,0.039-1.118,0.114c-0.734,0.068-1.821,0.205-3.228,0.232c-2.811,0.14-6.91-0.006-11.902-0.498
							c-2.49-0.216-5.244-0.572-8.053-0.734c-2.815-0.09-5.99,0.142-9.484-0.224c-1.744-0.194-3.603-0.551-5.441-1.38
							c-1.834-0.812-3.587-2.193-4.817-3.947l-0.431-0.671l-0.213-0.339c-0.071-0.132-0.213-0.298-0.255-0.451
							c-0.172-0.493-0.344-0.988-0.518-1.485c-0.161-0.478-0.334-0.958-0.482-1.441c-0.102-0.487-0.203-0.976-0.306-1.466
							c-0.098-0.492-0.196-0.985-0.295-1.48c-0.053-0.49-0.106-0.982-0.16-1.477l-0.153-1.486l-0.062-1.472
							c-0.116-2.548-0.056-4.96-0.056-7.105c-0.015-1.052-0.029-2.042-0.042-2.945c-0.051-0.88-0.097-1.675-0.136-2.36l-0.012-0.138
							c-0.04-1.592-0.096-3.141-0.106-4.677c0.04-1.555-0.012-3.056,0.116-4.552c0.066-0.747,0.132-1.484,0.195-2.212
							c0.034-0.363,0.066-0.724,0.1-1.083c0.052-0.356,0.131-0.707,0.195-1.057c0.289-1.383,0.494-2.785,0.844-4.028
							c1.312-5.037,2.513-9.446,3.522-13.055C411.213,361.224,412.506,357.035,412.506,357.035z"/>
					</g>
				</g>
			</g>
			<g>
				<g>
					<g>
						<path d="M450.123,365.483c0,0,0.214,2.263,0.289,5.82c0.054,1.804,0.134,3.907,0.009,6.303
							c-0.058,1.195-0.131,2.449-0.25,3.749c-0.2,1.31-0.437,2.666-0.712,4.047c-0.071,0.345-0.143,0.688-0.213,1.028
							c-0.113,0.375-0.251,0.764-0.382,1.137c-0.068,0.188-0.129,0.373-0.207,0.56l-0.301,0.563
							c-0.223,0.37-0.365,0.738-0.685,1.081c-0.302,0.337-0.549,0.696-0.911,0.976c-0.368,0.27-0.719,0.567-1.111,0.761
							c-0.4,0.174-0.803,0.368-1.196,0.478c-0.392,0.085-0.784,0.166-1.162,0.222c-1.493,0.127-2.696-0.125-3.782-0.352
							c-1.067-0.253-2.014-0.541-2.86-0.793c-1.694-0.512-3.056-0.88-4.037-1.057c-0.488-0.104-0.872-0.126-1.138-0.173
							c-0.267-0.039-0.406-0.06-0.406-0.06s0.134-0.041,0.39-0.118c0.257-0.067,0.641-0.207,1.146-0.299
							c1.008-0.216,2.52-0.359,4.342-0.353c1.782-0.021,4.026,0.177,5.766-0.26c0.842-0.26,1.318-0.622,1.73-1.307
							c0.131-0.123,0.188-0.39,0.292-0.58l0.148-0.307l0.107-0.375c0.076-0.252,0.153-0.505,0.23-0.761
							c0.061-0.316,0.121-0.634,0.183-0.955c0.252-1.279,0.532-2.52,0.83-3.719c0.225-1.234,0.454-2.428,0.701-3.564
							c0.502-2.262,0.947-4.378,1.409-6.104C449.308,367.575,450.123,365.483,450.123,365.483z"/>
					</g>
				</g>
			</g>
			<g>
				<g>
					<g>
						<path d="M466.922,383.442c0,0-0.029-0.846,0.094-2.374c0.112-1.526,0.407-3.723,0.718-6.384
							c0.15-1.33,0.296-2.777,0.354-4.297c0.057-1.514,0.012-3.117-0.311-4.617c-0.33-1.502-0.98-2.802-2.055-3.648
							c-0.545-0.425-1.205-0.76-1.95-1.028c-0.764-0.24-1.608-0.427-2.496-0.516c-1.724-0.202-3.327,0.046-4.699,0.679
							c-1.359,0.666-2.534,1.726-3.451,3.003c-1.856,2.561-2.834,5.587-3.471,8.111c-0.63,2.554-0.903,4.716-1.047,6.214
							c-0.137,1.502-0.158,2.35-0.158,2.35s-0.237-0.81-0.492-2.326c-0.247-1.514-0.501-3.742-0.364-6.536
							c0.169-2.773,0.61-6.201,2.576-9.715c0.978-1.735,2.486-3.466,4.564-4.636c2.09-1.148,4.621-1.57,6.986-1.286
							c1.162,0.119,2.314,0.378,3.45,0.783c1.13,0.438,2.232,1.052,3.165,1.892c0.941,0.834,1.643,1.896,2.105,2.958
							c0.458,1.067,0.715,2.146,0.811,3.161c0.2,2.036-0.023,3.855-0.333,5.487c-0.318,1.633-0.734,3.091-1.146,4.401
							c-0.834,2.615-1.627,4.65-2.119,6.083C467.152,382.629,466.922,383.442,466.922,383.442z"/>
					</g>
				</g>
			</g>
			<g>
				<g>
					<g>
						<path d="M481.824,393.571c0,0-0.511-0.019-1.432-0.052c-0.918-0.006-2.199,0.058-3.818,0.19
							c-0.807,0.062-1.724,0.123-2.76,0.106c-1.04-0.051-2.301-0.183-3.61-0.906c-1.31-0.711-2.383-2.078-2.89-3.414
							c-0.512-1.317-0.841-2.757-0.87-4.12c-0.11-2.756,0.31-5.121,0.744-7.278c0.454-2.145,0.982-3.994,1.423-5.564
							c0.43-1.564,0.819-2.836,1.042-3.726c0.256-0.894,0.398-1.389,0.398-1.389s0.104,0.502,0.252,1.425
							c0.166,0.924,0.294,2.266,0.377,3.927c0.074,1.653,0.055,3.628-0.002,5.743c-0.043,2.1-0.168,4.441-0.074,6.64
							c0.018,1.11,0.222,2.063,0.446,2.95c0.248,0.874,0.586,1.413,1.076,1.864c1.01,0.919,3.061,1.267,4.626,1.667
							c1.616,0.389,2.933,0.856,3.785,1.251C481.39,393.303,481.824,393.571,481.824,393.571z"/>
					</g>
				</g>
			</g>
			<g>
				<g>
					<g>
						<path d="M468.473,403.686c0,0,0.719,0.064,2.003,0.239c1.283,0.168,3.133,0.458,5.379,0.711
							c2.229,0.236,4.936,0.488,7.582,0.082c1.304-0.22,2.551-0.64,3.404-1.368c0.43-0.363,0.798-0.771,1.069-1.3
							c0.271-0.516,0.498-1.151,0.627-1.767c0.088-0.613,0.137-1.291,0.053-1.876c-0.083-0.584-0.252-1.103-0.521-1.582
							c-0.518-0.962-1.54-1.751-2.689-2.361c-2.353-1.2-5.014-1.73-7.204-2.09c-2.217-0.352-4.068-0.499-5.352-0.593
							c-1.29-0.075-2.005-0.116-2.005-0.116s0.683-0.229,1.951-0.533c1.271-0.296,3.128-0.675,5.491-0.839
							c2.357-0.132,5.247-0.189,8.515,0.945c1.594,0.601,3.404,1.582,4.654,3.444c0.617,0.912,1.039,1.994,1.229,3.089
							c0.189,1.1,0.146,2.169-0.027,3.278c-0.226,1.098-0.599,2.101-1.159,3.068c-0.555,0.965-1.366,1.805-2.249,2.428
							c-1.805,1.271-3.782,1.603-5.471,1.673c-3.417,0.056-6.143-0.803-8.366-1.553c-2.218-0.781-3.919-1.573-5.096-2.117
							C469.121,403.994,468.473,403.686,468.473,403.686z"/>
					</g>
				</g>
			</g>
			<g>
				<g>
					<g>
						<path d="M465.811,419.19c0,0-0.017-0.109-0.047-0.318c-0.032-0.208-0.059-0.502-0.147-0.884
							c-0.136-0.757-0.423-1.832-0.737-3.18c-0.309-1.353-0.678-2.975-0.801-4.93c-0.046-0.983-0.057-2.045,0.218-3.255
							c0.106-0.59,0.353-1.245,0.676-1.888c0.202-0.326,0.396-0.656,0.645-0.967c0.288-0.301,0.595-0.597,0.918-0.868
							c0.362-0.223,0.739-0.43,1.118-0.612c0.389-0.146,0.853-0.266,1.226-0.314c0.756-0.086,1.402-0.041,1.99,0.039
							c1.173,0.166,2.128,0.487,3.03,0.802c1.78,0.65,3.243,1.371,4.48,1.95c1.232,0.589,2.232,1.035,2.956,1.292
							c0.362,0.145,0.65,0.219,0.85,0.276c0.202,0.06,0.309,0.092,0.309,0.092s-0.105,0.03-0.307,0.088
							c-0.203,0.056-0.512,0.145-0.911,0.192c-0.804,0.129-1.991,0.178-3.411,0.078c-1.42-0.089-3.078-0.322-4.811-0.557
							c-0.856-0.107-1.758-0.233-2.551-0.243c-0.394-0.008-0.754,0.018-1.01,0.064c-0.124,0.031-0.162,0.055-0.254,0.081
							c-0.073,0.065-0.151,0.109-0.247,0.137c-0.277,0.189-0.603,0.691-0.849,1.405c-0.26,0.691-0.415,1.541-0.553,2.362
							c-0.26,1.667-0.421,3.308-0.63,4.691c-0.204,1.389-0.436,2.532-0.693,3.305c-0.107,0.385-0.245,0.678-0.326,0.87
							C465.855,419.089,465.811,419.19,465.811,419.19z"/>
					</g>
				</g>
			</g>
			<g>
				<g>
					<g>
						<path d="M446.406,408.305c0,0,0.062,0.566,0.172,1.588c0.146,1.002,0.409,2.443,1.061,3.999
							c0.301,0.786,0.774,1.56,1.302,2.318c0.567,0.738,1.254,1.417,2.051,1.998c1.638,1.127,3.715,1.782,6.186,1.887
							c2.554,0.17,4.824,0.008,6.037-0.931c1.263-0.956,1.916-3.049,2.382-4.737c0.464-1.729,0.838-3.199,1.142-4.188
							c0.312-0.994,0.509-1.533,0.51-1.533c0,0,0.049,0.571,0.138,1.602c0.084,1.032,0.235,2.496,0.278,4.376
							c-0.003,0.947,0.014,1.991-0.225,3.19c-0.23,1.175-0.671,2.575-1.77,3.808c-1.11,1.234-2.7,1.932-4.208,2.28
							c-0.381,0.073-0.765,0.148-1.152,0.224c-0.374,0.026-0.751,0.055-1.131,0.082c-0.775,0.077-1.498,0.011-2.256-0.015
							c-3.071-0.107-6.212-1.362-8.227-3.384c-1.002-1.016-1.739-2.15-2.238-3.266c-0.457-1.134-0.753-2.213-0.839-3.206
							c-0.213-1.982,0.07-3.52,0.311-4.541C446.203,408.837,446.406,408.305,446.406,408.305z"/>
					</g>
				</g>
			</g>
			<g>
				<g>
					<g>
						<path d="M418.78,401.319c0-0.001,2.282-0.652,6.001-1.418c3.707-0.732,9.006-1.645,15.042-0.746
							c0.779,0.157,1.562,0.335,2.327,0.557c0.786,0.324,1.539,0.526,2.293,1.053c0.745,0.41,1.455,1.085,2.005,1.8
							c0.241,0.394,0.518,0.778,0.676,1.183c0.142,0.406,0.295,0.817,0.387,1.208c0.322,1.587,0.144,2.832,0.064,3.956
							c-0.116,1.12-0.222,2.081-0.26,2.975c-0.1,1.777,0.211,3.19,0.479,4.203c0.375,0.985,0.584,1.53,0.584,1.53
							c-0.001,0-0.417-0.399-1.159-1.225c-0.639-0.87-1.53-2.303-1.976-4.288c-0.233-0.975-0.389-2.071-0.517-3.159
							c-0.147-1.074-0.261-2.222-0.6-3.043c-0.345-0.82-0.809-1.26-1.684-1.691c-0.369-0.248-0.982-0.36-1.486-0.56
							c-0.594-0.127-1.197-0.257-1.807-0.388c-5.33-0.805-10.471-0.989-14.24-1.287C421.136,401.706,418.78,401.318,418.78,401.319z
							"/>
					</g>
				</g>
			</g>
			<g>
				<g>
					<g>
						<path d="M443.426,389.128c0,0-0.226,0.035-0.656,0.102c-0.433,0.054-1.076,0.112-1.907,0.135
							c-1.661,0.048-4.064-0.058-6.989-0.288c-2.923-0.215-6.386-0.567-10.137-0.692c-1.87-0.059-3.819-0.048-5.708,0.195
							c-1.869,0.235-3.727,0.776-4.715,1.774c-0.252,0.247-0.453,0.518-0.614,0.802c-0.163,0.324-0.378,0.791-0.498,1.168
							c-0.307,0.81-0.355,1.523-0.268,2.107c0.096,0.581,0.376,1.099,0.887,1.604c0.508,0.5,1.197,0.945,1.948,1.313
							c1.529,0.72,3.221,1.201,4.831,1.551c1.617,0.351,3.171,0.59,4.6,0.779c2.862,0.373,5.228,0.544,6.862,0.672
							c1.641,0.126,2.549,0.195,2.549,0.195s-0.893,0.184-2.52,0.456c-1.629,0.262-3.995,0.614-6.975,0.759
							c-1.489,0.069-3.133,0.087-4.919-0.041c-1.785-0.135-3.719-0.405-5.779-1.125c-1.025-0.383-2.097-0.898-3.11-1.733
							c-1.007-0.816-1.935-2.097-2.27-3.582c-0.342-1.471-0.175-2.971,0.238-4.206c0.08-0.333,0.215-0.623,0.334-0.929
							c0.141-0.312,0.21-0.585,0.416-0.929c0.363-0.684,0.831-1.309,1.376-1.841c1.102-1.072,2.407-1.707,3.637-2.106
							c1.24-0.391,2.436-0.558,3.588-0.655c2.301-0.166,4.421,0.008,6.398,0.269c3.951,0.536,7.349,1.414,10.189,2.14
							c2.837,0.743,5.111,1.356,6.706,1.694c0.797,0.169,1.422,0.274,1.85,0.335C443.2,389.102,443.426,389.128,443.426,389.128z"/>
					</g>
				</g>
			</g>
			<g>
				<g>
					<g>
						<path d="M446.792,368.134c0-0.001-0.694-0.011-1.879-0.278c-1.185-0.257-2.852-0.724-4.84-1.304
							c-1.988-0.572-4.305-1.268-6.801-1.832c-1.246-0.272-2.544-0.53-3.83-0.62c-0.639-0.044-1.284-0.058-1.861,0.03
							c-0.279,0.042-0.567,0.119-0.76,0.194c-0.154,0.087-0.33,0.16-0.409,0.322c-0.15,0.233-0.356,0.851-0.433,1.446
							c-0.103,0.597-0.138,1.247-0.162,1.889c-0.032,1.298,0.027,2.611,0.092,3.903c0.055,1.299,0.169,2.548,0.079,3.928
							c-0.098,1.207-0.189,2.35-0.275,3.406c-0.338,4.131-0.565,6.921-0.573,7.016c-0.048,0.372-1.017,0.591-2.163,0.49
							c-1.146-0.102-2.033-0.501-1.983-0.892c0.017-0.096,0.508-2.913,1.236-7.083c0.18-1.019,0.373-2.12,0.578-3.284
							c0.17-0.998,0.191-2.272,0.254-3.572c0.058-1.308,0.122-2.682,0.291-4.104c0.097-0.715,0.2-1.435,0.401-2.184
							c0.202-0.744,0.409-1.496,1.104-2.359c0.291-0.435,0.837-0.589,1.287-0.79c0.468-0.133,0.858-0.183,1.266-0.208
							c0.797-0.04,1.527,0.053,2.236,0.168c1.417,0.237,2.723,0.632,3.975,1.031c2.494,0.817,4.735,1.73,6.663,2.487
							c1.924,0.765,3.528,1.382,4.675,1.748C446.103,368.057,446.792,368.134,446.792,368.134z"/>
					</g>
				</g>
			</g>
			<g>
				<g>
					<g>
						<path d="M424.182,371.792c0,0-0.086-0.509-0.235-1.401c-0.072-0.897-0.3-2.205,0.059-3.8c0.202-0.783,0.547-1.657,1.258-2.382
							c0.712-0.727,1.746-1.147,2.782-1.323c2.104-0.348,4.271,0.039,6.337,0.508c4.14,0.995,8.048,2.495,10.983,3.362
							c1.463,0.447,2.668,0.745,3.481,0.886c0.416,0.089,0.713,0.102,0.932,0.138c0.218,0.032,0.315,0.018,0.333,0.025
							c0.206,0.024,0.314,0.981,0.244,2.128c-0.071,1.148-0.425,2.047-0.789,2.003c-0.049-0.001-0.712-0.118-1.692-0.427
							c-0.988-0.302-2.279-0.806-3.741-1.46c-2.931-1.286-6.577-3.235-10.348-4.658c-1.875-0.691-3.822-1.268-5.583-1.195
							c-0.872,0.038-1.689,0.256-2.299,0.737c-0.609,0.48-1.003,1.163-1.273,1.842c-0.512,1.395-0.468,2.719-0.505,3.603
							C424.161,371.278,424.182,371.792,424.182,371.792z"/>
					</g>
				</g>
			</g>
			<g>
				<g>
					<g>
						<path d="M484.038,388.499c0,0-0.009-0.125-0.025-0.36c-0.023-0.236-0.041-0.583-0.035-1.025
							c-0.004-0.885,0.061-2.15,0.168-3.658c0.102-1.509,0.239-3.268,0.285-5.134c0.04-1.838,0.002-3.909-0.576-5.511
							c-0.333-0.809-0.686-1.093-1.384-1.283c-0.695-0.174-1.567-0.146-2.405-0.06c-1.711,0.211-3.374,0.673-4.812,1.083
							c-1.442,0.418-2.681,0.798-3.614,1.036c-0.926,0.244-1.555,0.352-1.608,0.353c-0.358,0.036-0.688-0.873-0.735-2.021
							c-0.048-1.149,0.075-2.101,0.275-2.12c0.018-0.004,0.108,0.006,0.338-0.021c0.222-0.022,0.528-0.041,0.961-0.103
							c0.846-0.104,2.094-0.318,3.632-0.558c1.541-0.228,3.365-0.506,5.446-0.495c1.048,0.038,2.169,0.105,3.366,0.582
							c0.301,0.152,0.598,0.31,0.885,0.478c0.272,0.232,0.55,0.467,0.788,0.725c0.194,0.291,0.394,0.59,0.549,0.889l0.306,0.889
							c0.483,2.311,0.167,4.35-0.097,6.252c-0.294,1.895-0.658,3.623-0.953,5.104c-0.301,1.481-0.525,2.713-0.635,3.584
							c-0.062,0.435-0.089,0.778-0.097,1.013C484.045,388.374,484.038,388.499,484.038,388.499z"/>
					</g>
				</g>
			</g>
			<g>
				<g>
					<g>
						<path d="M482.07,369.766c-0.009,0.036,0.382-0.115,1.002,0.172c0.621,0.295,1.225,1.14,1.597,2.208
							c0.794,2.15,1.104,5.155,1.287,8.126c0.175,2.979,0.19,5.957,0.227,8.176c0.017,1.109,0.038,2.025,0.067,2.652
							c0.02,0.302,0.035,0.542,0.046,0.709c0.013,0.157,0.02,0.245,0.021,0.256c0.004,0.145-0.928,0.319-2.075,0.388
							s-2.086-0.088-2.091-0.351c-0.001-0.033,0.028-0.486,0.115-1.177c0.088-0.69,0.231-1.628,0.41-2.733
							c0.354-2.208,0.853-5.093,1.196-7.98c0.337-2.879,0.545-5.791,0.169-7.891c-0.169-1.05-0.565-1.869-1.062-2.232
							C482.477,369.733,482.057,369.795,482.07,369.766z"/>
					</g>
				</g>
			</g>
			<g>
				<g>
					<g>
						<path d="M446.588,411.766c0,0-0.474,0.192-1.302,0.529c-0.412,0.176-0.924,0.36-1.513,0.569
							c-0.586,0.218-1.253,0.45-1.99,0.673c-2.934,0.928-6.975,1.965-11.221,2.098c-0.532,0.021-1.105-0.002-1.662-0.013
							c-0.579-0.108-1.16-0.116-1.744-0.349c-0.592-0.153-1.148-0.465-1.696-0.791c-0.504-0.393-0.997-0.811-1.357-1.317
							c-0.734-0.984-1.18-2.071-1.416-3.033c-0.27-0.979-0.397-1.874-0.508-2.692c-0.196-1.631-0.271-2.925-0.355-3.83
							c-0.082-0.892-0.131-1.416-0.134-1.45c-0.011-0.272,0.913-0.542,2.062-0.604c1.148-0.062,2.089,0.129,2.1,0.427
							c0,0.035-0.002,0.607-0.042,1.537c-0.029,0.931-0.114,2.233-0.123,3.692c0.004,1.441,0.081,3.124,0.76,4.333
							c0.326,0.611,0.828,1.097,1.574,1.414c0.334,0.21,0.791,0.261,1.196,0.406c0.459,0.062,0.907,0.143,1.396,0.188
							c3.956,0.387,8.021-0.104,11.012-0.647c0.753-0.126,1.436-0.271,2.041-0.41c0.606-0.132,1.136-0.249,1.564-0.371
							C446.095,411.897,446.588,411.766,446.588,411.766z"/>
					</g>
				</g>
			</g>
			<g>
				<g>
					<g>
						<path d="M423.721,410.478c0,0,0.054,0.078,0.154,0.224c0.092,0.151,0.248,0.355,0.479,0.584
							c0.452,0.465,1.222,0.993,2.253,1.361c2.073,0.748,5.061,0.875,8.017,0.681c2.965-0.192,5.923-0.655,8.167-1.03
							c1.133-0.191,2.08-0.352,2.752-0.465c0.694-0.106,1.102-0.169,1.129-0.173c0.226-0.014,0.455,0.908,0.513,2.057
							s-0.054,2.089-0.248,2.101c-0.052,0-1.589-0.006-3.865-0.016c-2.315-0.011-5.414-0.06-8.499-0.392
							c-3.074-0.327-6.179-0.998-8.238-2.172c-1.026-0.581-1.74-1.282-2.117-1.838c-0.195-0.276-0.316-0.508-0.383-0.675
							C423.76,410.565,423.721,410.478,423.721,410.478z"/>
					</g>
				</g>
			</g>
			<g>
				<g>
					<g>
						<path d="M483.4,406.584c0,0,0.052,0.38,0.143,1.046c0.08,0.669,0.222,1.617,0.274,2.791c0.008,0.59,0.031,1.236-0.11,1.944
							c-0.129,0.695-0.41,1.5-1.053,2.139c-0.641,0.647-1.511,0.963-2.335,1.154l-0.63,0.123l-0.622,0.058
							c-0.421,0.052-0.83,0.041-1.247,0.046c-1.649-0.04-3.217-0.274-4.621-0.414c-0.712-0.077-1.373-0.119-2.006-0.163
							c-0.613,0.007-1.211-0.052-1.719,0.004c-1.046,0.036-1.812,0.252-2.352,0.368c-0.491,0.214-0.773,0.319-0.793,0.325
							c-0.147,0.039-0.614-0.8-1.043-1.866s-0.563-1.998-0.3-2.077c0.031-0.009,0.53-0.127,1.363-0.293
							c0.824-0.061,1.992-0.143,3.273,0.031c2.588,0.245,5.582,1.424,8.383,2.01c1.388,0.239,2.868,0.321,3.788-0.304
							c0.928-0.639,1.227-2.027,1.375-3.113c0.141-1.121,0.163-2.086,0.196-2.754C483.388,406.967,483.4,406.584,483.4,406.584z"/>
					</g>
				</g>
			</g>
			<g>
				<g>
					<g>
						<path d="M467.281,414.366c0,0,1.438,0.067,3.59,0.103c2.133,0.011,5.053,0.023,7.691-0.597l0.914-0.258
							c0.142-0.076,0.484-0.25,0.705-0.406c0.497-0.312,0.85-0.707,1.119-1.099c0.523-0.787,0.638-1.743,0.64-2.667
							c-0.004-0.922-0.113-1.773-0.188-2.382c-0.083-0.624-0.132-0.991-0.136-1.016c-0.01-0.197,0.915-0.405,2.064-0.466
							c1.148-0.061,2.088,0.055,2.098,0.258c-0.001,0.025-0.016,0.417-0.041,1.082c-0.04,0.68-0.079,1.656-0.302,2.9
							c-0.224,1.207-0.698,2.858-1.967,4.138c-0.62,0.618-1.365,1.13-2.144,1.441c-0.403,0.171-0.725,0.282-1.26,0.423l-1.207,0.112
							c-3.075,0.142-5.923-0.424-8.056-0.817C468.679,414.69,467.281,414.366,467.281,414.366z"/>
					</g>
				</g>
			</g>
			<g>
				<g>
					<g>
						<path d="M431.185,368.652c0.004,0.011,0.248,0.076,0.59,0.076c0.174,0.035,0.392,0.017,0.635,0.331
							c0.109,0.149,0.23,0.413,0.222,0.729c-0.003,0.348-0.08,0.607-0.223,0.906l-1.474,0.493c-0.202,0.1-0.47,0.158-0.767,0.154
							c-0.133,0.014-0.345-0.061-0.528-0.136c-0.198-0.095-0.359-0.151-0.567-0.344c-0.654-0.52-0.986-1.694-0.654-2.398
							c0.281-0.698,0.787-0.949,1.156-1.009c0.771-0.125,1.232,0.255,1.23,0.228c0,0,0.038,0.131,0.1,0.348
							c0.074,0.202,0.141,0.468,0.337,0.674c0.07,0.084,0.264,0.242,0.086,0.113c-0.05-0.031-0.109-0.057-0.179-0.074
							c-0.034-0.008-0.07-0.015-0.109-0.018c-0.011-0.006-0.023-0.011-0.038-0.015c-0.029-0.008-0.068-0.01-0.112,0
							c-0.027,0.008,0.028-0.006,0.025-0.011c-0.049,0.017,0.181-0.091,0.219-0.195c0.038-0.065,0.198-0.229,0.246-0.348
							c0.079-0.139,0.071-0.233,0.178-0.43c-0.007,0.073-0.02,0.213-0.017,0.372c-0.334,0.435-0.652,0.849-0.825,1.075
							c0.229,0.246,0.354,0.104-0.033,0.178c-0.066,0.01-0.13,0.023-0.19,0.04l-0.086,0.027l0.034-0.003
							c0.039-0.021,0.074-0.052,0.11-0.08c0.075-0.048,0.125-0.151,0.184-0.217C430.944,368.778,431.188,368.639,431.185,368.652z"
							/>
					</g>
				</g>
			</g>
			<g>
				<g>
					<g>
						<path d="M436.438,374.328c0.001,0,0.184,0.054,0.435,0.224c0.117,0.096,0.284,0.204,0.333,0.543
							c0.027,0.161-0.03,0.443-0.232,0.698c-0.094,0.117-0.253,0.248-0.372,0.32c-0.113,0.072-0.247,0.136-0.392,0.185l-0.788-0.218
							c-0.292,0.052-0.643,0.044-1.021-0.131c-0.365-0.218-0.868-0.537-1.062-1.573c-0.054-0.282-0.022-0.695,0.082-1.041
							c0.127-0.372,0.336-0.717,0.586-0.942c0.263-0.263,0.492-0.362,0.744-0.469c0.225-0.076,0.42-0.096,0.614-0.106
							c0.701,0.027,1.018,0.366,1.263,0.641c0.217,0.301,0.323,0.594,0.374,0.817c0.053,0.219,0.063,0.358,0.063,0.358
							s-0.093,0.101-0.246,0.267c-0.147,0.155-0.334,0.385-0.483,0.621c-0.061,0.13-0.134,0.246-0.145,0.373l-0.004,0.09
							l-0.021-0.156c-0.003-0.114-0.024-0.234-0.067-0.357c-0.038-0.204-0.17-0.4-0.222-0.443c-0.054-0.04-0.029-0.023-0.041-0.032
							c0.055,0.017,0.065,0.011,0.175,0.005c0.053-0.014,0.152-0.036,0.248-0.075c0.073-0.04,0.189-0.091,0.292-0.154
							c0.095-0.063,0.182-0.137,0.298-0.217c0.052-0.04,0.101-0.082,0.147-0.125l0.067-0.066c0.013-0.014-0.013,0.004-0.013,0.007
							c-0.085,0.115-0.139,0.326-0.184,0.555c-0.3,0.233-0.582,0.452-0.748,0.581c0.013,0.337,0.153,0.249-0.111,0.157
							c-0.077-0.019-0.152-0.038-0.225-0.056c-0.068-0.013-0.041-0.005-0.02-0.002c0.018,0.004,0.037,0.007,0.054,0.001
							c0.069-0.016,0.141-0.03,0.202-0.06C436.27,374.43,436.439,374.328,436.438,374.328z"/>
					</g>
				</g>
			</g>
			<g>
				<g>
					<g>
						<path d="M429.324,377.343c0,0,0.093,0.045,0.235,0.089c0.136,0.044,0.343,0.064,0.564,0.078
							c0.126,0.031,0.232,0.009,0.392,0.108c0.078,0.051,0.148,0.061,0.235,0.161c0.086,0.097,0.17,0.21,0.247,0.337
							c0.147,0.33,0.214,0.772,0.136,1.16c-0.016,0.099-0.042,0.217-0.065,0.302l-0.07,0.217c-0.054,0.147-0.121,0.297-0.2,0.445
							l-0.219,0.408l-1.914,0.054c-0.286,0.008-0.703-0.073-1.17-0.448c-0.292-0.251-0.573-0.552-0.787-1.093
							c-0.211-0.505-0.252-1.269,0.028-1.829c0.261-0.533,0.662-0.82,0.951-0.913c0.31-0.124,0.56-0.112,0.773-0.082
							c0.427,0.067,0.702,0.259,0.894,0.404c0.188,0.148,0.283,0.256,0.283,0.256s-0.034,0.136-0.091,0.366
							c-0.049,0.215-0.123,0.522-0.091,0.804c0,0.069,0.022,0.137,0.051,0.196c0.009,0.023,0.039,0.072,0.031,0.068
							c-0.041-0.055-0.071-0.101-0.116-0.149c-0.203-0.204-0.331-0.293-0.427-0.314c-0.082-0.019,0.039,0.023,0.23-0.085
							c0.176-0.097,0.49-0.335,0.724-0.653c0.058-0.066,0.11-0.133,0.16-0.202c0.012-0.017-0.004,0-0.003,0.001
							c0.008,0.013,0.012,0.032,0.014,0.057c0.01,0.049,0.036,0.117,0.037,0.195c-0.87,0.189-1.728,0.376-2.131,0.463
							c0.132,0.16,0.289,0.298,0.463,0.41c0.087,0.056,0.179,0.105,0.272,0.148l0.118,0.074c0.037,0.02,0.077,0.034,0.12,0.044
							c0.045,0.011,0.104,0.013,0.065,0.01c-0.037-0.002-0.025,0.004-0.076,0.014c-0.182,0.016-0.374,0.076-0.495,0.14
							c0.061,0.001,0.08-0.073,0.122-0.109c0.083-0.072,0.112-0.249,0.171-0.358C428.974,377.545,429.339,377.329,429.324,377.343z"
							/>
					</g>
				</g>
			</g>
			<g>
				<g>
					<g>
						<path d="M442.878,371.018c-0.022,0.034,0.702-0.299,1.713,0.382c0.469,0.345,1.005,0.997,1.035,2.054
							c0.012,0.52-0.162,1.138-0.536,1.665c-0.188,0.269-0.419,0.492-0.678,0.688c-0.132,0.101-0.317,0.202-0.487,0.287
							l-0.258,0.117l-0.099,0.035l-0.301,0.089c-0.224,0.052-0.455,0.085-0.68,0.095c-0.262-0.001-0.554-0.044-0.811-0.114
							c-0.271-0.089-0.544-0.229-0.77-0.387c-0.907-0.723-1.014-1.567-0.987-2.113c0.091-1.151,0.785-1.853,1.425-2.118
							c0.635-0.27,1.19-0.115,1.451,0.014c0.231,0.166,0.362,0.279,0.362,0.279s-0.095,0.145-0.272,0.366
							c-0.078,0.121-0.103,0.26-0.12,0.392c-0.021,0.15-0.009,0.299,0.05,0.423c0.06,0.128,0.157,0.223,0.27,0.275
							c0.143,0.058,0.025-0.009-0.141,0.02c-0.186,0.005-0.55,0.178-0.589,0.286c0.002-0.005-0.003-0.002-0.003-0.002
							c0.02-0.057,0.017-0.092,0.011-0.145c0.005-0.106-0.015-0.204-0.052-0.288l-0.007-0.016l-0.352-0.94l0.007-0.002l0.023-0.01
							l0.05-0.018l0.14,0.087l0.142,0.089c0.006,0.03-0.016,0.062-0.017,0.094c-0.011,0.058-0.005,0.152,0.012,0.186
							c0.015,0.028,0.036,0.058,0.064,0.086l0.032,0.035c0.025,0.019-0.035-0.029-0.172-0.052l-0.098-0.013
							c0.028,0.003,0.059,0.002,0.082-0.007c0.058-0.014,0.115-0.043,0.165-0.087c0.11-0.086,0.196-0.218,0.268-0.369
							c0.138-0.302,0.166-0.654,0.163-0.923C442.903,371.2,442.878,371.018,442.878,371.018z"/>
					</g>
				</g>
			</g>
			<g>
				<g>
					<g>
						<path d="M437.39,379.897c-0.023,0.014,0.516,0.293,0.772,1.097c0.035,0.215,0.112,0.438,0.038,0.737
							c-0.101,0.299-0.165,0.637-0.506,0.943c-0.155,0.152-0.34,0.306-0.538,0.421c-0.196,0.097-0.417,0.179-0.649,0.237
							c-0.252,0.068-0.421,0.062-0.632,0.062c-0.19-0.007-0.44-0.024-0.577-0.076c-0.596-0.162-0.934-0.477-1.099-0.735
							l-1.085-1.697l0.254-0.369c0.141-0.204,0.261-0.34,0.442-0.529c0.104-0.111,0.213-0.21,0.32-0.294
							c0.081-0.064,0.303-0.23,0.451-0.297c0.294-0.16,0.803-0.23,0.975-0.127c0.263,0.067,0.332,0.189,0.435,0.286
							c0.27,0.412,0.412,0.72,0.429,0.723c0.017-0.003-0.181,0.329-0.506,0.694c-0.025,0.046-0.052,0.095-0.079,0.146
							c-0.048,0.035,0.018,0.184-0.014-0.078c-0.01-0.084-0.028-0.17-0.057-0.256c-0.005-0.025,0-0.021-0.003-0.035
							c-0.002-0.01-0.007-0.022-0.015-0.035c-0.015-0.022,0.035,0.061,0.056,0.079c0.028,0.033,0.06,0.06,0.096,0.082l0.054,0.028
							l0.124,0.098c0.174,0.129,0.368,0.231,0.576,0.301c0.066,0.028,0.092,0.016,0.09,0.027l0.026,0.027l0.05,0.051l0.085,0.086
							c-0.227-0.564-0.451-1.122-0.831-2.066c0.074-0.051,0.145-0.087,0.204-0.101c0.035-0.001,0.055-0.013,0.058-0.03
							c0.002,0.016,0.032-0.104-0.028,0.147c-0.242,0.639,0.006,1.158-0.091,0.94c-0.005-0.004-0.009-0.005-0.012-0.004
							c-0.017-0.025-0.055-0.076-0.084-0.107c-0.064-0.067-0.132-0.117-0.2-0.151c0.005,0.036,0.203,0.055,0.324,0.062
							C436.813,380.16,437.388,379.873,437.39,379.897z"/>
					</g>
				</g>
			</g>
			<g>
				<g>
					<g>
						<path d="M441.223,383.665c0,0,0.072-0.161,0.303-0.429c0.237-0.228,0.682-0.581,1.423-0.624
							c0.363-0.01,0.798,0.032,1.247,0.271c0.442,0.224,0.939,0.632,1.212,1.352c0.291,0.702,0.208,1.679-0.193,2.377
							c-0.398,0.675-0.871,1.084-1.48,1.409c-0.604,0.313-1.27,0.406-1.924,0.355c-0.63-0.02-1.646-0.43-2.117-1.175
							c-0.483-0.729-0.459-1.401-0.368-1.863c0.106-0.471,0.308-0.802,0.516-1.061c0.878-1.008,1.724-0.932,1.694-0.961
							c0,0,0.01,0.177,0.027,0.49c0.033,0.295,0.106,0.697,0.282,1.039c0.085,0.167,0.201,0.321,0.326,0.373
							c0.023,0.022,0.067,0.009,0.092,0.009l-0.234,0.055c-0.166,0.058-0.257,0.108-0.302,0.15c0.002-0.008-0.035,0.034-0.013,0.008
							c0.029-0.039,0.028-0.05,0.05-0.103c0.04-0.083,0.06-0.167,0.063-0.245l0.032-0.198l0.035-0.49l-0.004-0.006l-0.011-0.01
							c-0.023-0.062-0.008-0.077-0.018-0.083c0.002,0.003,0.002,0.004,0.01,0.012c0,0.008,0.034,0.01,0.007,0.038
							c-0.006,0.012-0.01,0.025-0.011,0.039l-0.001,0.003v0.001v0.001c-0.088-0.066,0.766,0.576,0.405,0.305l0.017,0.012
							l0.032,0.022l0.069,0.041c0.258,0.174,0.325,0.101,0.201,0.134c-0.046,0.014-0.148,0.051-0.206,0.101
							c-0.041,0.024-0.082,0.053-0.11,0.082c0.02-0.011,0.038-0.041,0.048-0.066c0.066-0.12,0.041-0.273-0.01-0.433
							c-0.113-0.319-0.407-0.566-0.654-0.724C441.413,383.743,441.223,383.665,441.223,383.665z"/>
					</g>
				</g>
			</g>
			<g>
				<g>
					<g>
						<path d="M430.057,404.076c-0.023,0.014,0.543,0.248,0.863,1.012c0.069,0.197,0.15,0.414,0.119,0.696
							c-0.008,0.272-0.067,0.581-0.279,0.911c-0.358,0.642-1.381,1.303-2.573,1.001c-0.289-0.067-0.577-0.191-0.859-0.403
							c-0.259-0.169-0.532-0.488-0.712-0.814c-0.18-0.32-0.281-0.778-0.275-1.135c0.026-0.34,0.125-0.73,0.263-0.946
							c0.135-0.207,0.293-0.389,0.454-0.534c0.148-0.101,0.287-0.158,0.426-0.215c0.288-0.13,0.504-0.095,0.712-0.083
							c0.413,0.024,0.694,0.217,0.9,0.327c0.199,0.123,0.305,0.218,0.305,0.218s-0.014,0.14-0.038,0.376
							c-0.01,0.226-0.073,0.521-0.01,0.811c0.027,0.134,0.037,0.292,0.147,0.35c-0.096-0.109-0.237-0.215-0.362-0.296
							c-0.065-0.068-0.156-0.127-0.272-0.157c-0.094-0.025-0.088-0.041-0.166-0.031c0.013-0.003-0.004-0.002,0.031-0.019
							c0.078-0.044,0.141-0.168,0.159-0.239c0.011-0.127,0.022-0.134-0.135-0.326c-0.048-0.052-0.079-0.064-0.142-0.111
							c-0.038-0.032-0.075-0.062-0.113-0.087c-0.035-0.021,0.033,0.02,0.049,0.025c0.118,0.07,0.25,0.05,0.391,0.041
							c0.297-0.014,0.56-0.145,0.772-0.222C429.927,404.132,430.057,404.076,430.057,404.076z"/>
					</g>
				</g>
			</g>
			<g>
				<g>
					<g>
						<path d="M437.413,405.677c0,0,0.116,0.092,0.281,0.279c0.148,0.195,0.418,0.453,0.526,0.888
							c0.047,0.224,0.148,0.438,0.093,0.76c-0.056,0.315-0.089,0.652-0.46,1.07c-0.081,0.098-0.17,0.193-0.265,0.285
							c-0.128,0.091-0.271,0.178-0.423,0.253c-0.303,0.163-0.642,0.251-1.026,0.25c-0.763,0.022-1.415-0.317-1.874-0.76
							c-0.224-0.225-0.393-0.49-0.531-0.758c-0.114-0.289-0.205-0.582-0.228-0.883c-0.053-0.626,0.149-1.226,0.46-1.657
							c0.161-0.188,0.338-0.352,0.515-0.482c0.178-0.14,0.341-0.165,0.505-0.228c0.335-0.12,0.602-0.095,0.831-0.049
							c0.471,0.061,0.755,0.305,0.958,0.45c0.196,0.157,0.291,0.27,0.291,0.27c0.029,0.006-0.331,0.578-0.397,1.181
							c-0.02,0.143-0.017,0.287,0.085,0.381c-0.027-0.057-0.209-0.201-0.223-0.229c-0.036-0.045-0.092-0.088-0.169-0.117
							c-0.027-0.012-0.013-0.014-0.046-0.021c-0.012,0.002,0.053,0.004,0.052-0.004c0.068-0.01,0.097-0.051,0.055-0.012
							c-0.053,0.025-0.122,0.201-0.12,0.223c-0.003,0.009-0.004,0.022,0,0.041c-0.001-0.022-0.008-0.054-0.017-0.071
							c-0.01-0.018-0.021-0.032-0.031-0.04c-0.026-0.06-0.059-0.113-0.096-0.158c-0.036-0.045-0.077-0.081-0.119-0.111l-0.066-0.043
							l-0.103-0.099c-0.224-0.179-0.1-0.078-0.048-0.064c0.127,0.066,0.27-0.022,0.422-0.038c0.32-0.057,0.58-0.244,0.807-0.333
							C437.28,405.741,437.413,405.677,437.413,405.677z"/>
					</g>
				</g>
			</g>
			<g>
				<g>
					<g>
						<path d="M432.986,409.543c0.001,0,0.349,0.175,0.759,0.551c0.393,0.373,0.887,1.102,0.733,2.194l-0.062,0.448l-1.558,0.674
							c-0.297,0.128-0.797,0.244-1.48,0.037c-0.433-0.143-0.883-0.384-1.26-0.834c-0.368-0.425-0.598-1.027-0.585-1.537
							c0.018-1.062,0.616-1.528,1.013-1.732c0.873-0.368,1.438-0.048,1.435-0.079c0,0,0.024,0.142,0.065,0.383
							c0.042,0.225,0.129,0.534,0.288,0.766c0.047,0.056,0.096,0.105,0.143,0.146c0.037,0.038,0.183,0.072,0.021,0.03
							c-0.153-0.05-0.32-0.047-0.372-0.036c-0.167,0.062,0.177-0.027,0.338-0.629c0.046-0.124,0.069-0.242,0.084-0.363
							c0.021-0.099,0.018-0.088,0.02-0.074l0.006,0.025c0.015,0.038,0.062,0.085,0.09,0.154c-0.663,0.459-1.318,0.913-1.62,1.122
							c0.305-0.044,0.829-0.35,1.224-0.682C432.663,409.773,432.987,409.543,432.986,409.543z"/>
					</g>
				</g>
			</g>
			<g>
				<g>
					<g>
						<path d="M443.273,410.329c0,0,0.111,0.092,0.265,0.293c0.148,0.205,0.375,0.506,0.391,1.01
							c0.074,0.459-0.205,1.284-1.075,1.773c-0.904,0.486-1.987,0.352-2.763-0.193c-0.397-0.283-0.728-0.662-0.948-1.188
							c-0.221-0.514-0.293-1.221-0.043-1.854c0.23-0.567,0.713-0.997,1.033-1.073c0.174-0.066,0.348-0.121,0.496-0.138
							c0.136,0.006,0.263,0.018,0.381,0.038c0.48,0.059,0.752,0.308,0.954,0.454c0.193,0.157,0.287,0.271,0.287,0.271
							s-0.058,0.135-0.156,0.367c-0.079,0.22-0.239,0.505-0.226,0.806c-0.003,0.071-0.001,0.139,0.004,0.2
							c0.002,0.023,0.055,0.076,0.052,0.062c-0.031-0.056-0.068-0.11-0.114-0.162c-0.094-0.109-0.242-0.207-0.239-0.226
							c-0.021-0.018-0.048-0.036-0.081-0.05l-0.055-0.017c-0.004,0,0.013,0.004,0.017,0.004c0.014,0.003,0.025,0.001,0.029-0.002
							c-0.007-0.005,0.009-0.003,0.069-0.008c0.104-0.009,0.118-0.052,0.24-0.093c0.184-0.101,0.311-0.247,0.332-0.287
							c0.028-0.041-0.033,0.041-0.051,0.16c-0.018,0.049-0.024,0.112-0.015,0.183c-0.005,0.021-0.006,0.053,0.008,0.092
							c0.02,0.047-0.013-0.036-0.018-0.028c-0.005-0.006-0.01-0.009-0.013-0.009c-0.02-0.031-0.049-0.07-0.074-0.099
							c-0.054-0.062-0.143-0.117-0.043-0.037c0.059,0.044,0.118,0.033,0.186,0.047c0.286,0.051,0.584-0.07,0.799-0.15
							C443.137,410.384,443.273,410.329,443.273,410.329z"/>
					</g>
				</g>
			</g>
			<g>
				<g>
					<g>
						<path d="M444.699,405.958c-0.029-0.01,0.236,0.55-0.076,1.311c-0.072,0.194-0.2,0.389-0.402,0.569
							c-0.178,0.191-0.466,0.34-0.801,0.442c-0.668,0.169-1.786,0.061-2.521-1.104c-0.17-0.287-0.298-0.681-0.322-1.059
							c-0.014-0.425,0.052-0.84,0.245-1.188c0.09-0.177,0.2-0.348,0.316-0.483c0.108-0.109,0.227-0.211,0.35-0.3
							c0.119-0.086,0.256-0.174,0.367-0.221c0.101-0.034,0.201-0.064,0.301-0.086c0.818-0.168,1.2,0.147,1.497,0.384
							c0.302,0.243,0.435,0.552,0.543,0.751c0.1,0.208,0.139,0.344,0.139,0.344s-0.082,0.113-0.219,0.303
							c-0.122,0.19-0.32,0.407-0.434,0.686c-0.046,0.137-0.142,0.252-0.118,0.387l0.013,0.091l0.003,0.016l-0.016-0.059l-0.038-0.12
							c-0.081-0.184-0.062-0.256-0.133-0.382c-0.028-0.057-0.064-0.113-0.108-0.167c-0.029-0.043-0.032-0.065-0.062-0.098
							c-0.025-0.029-0.058-0.058-0.098-0.08c-0.011-0.009-0.011-0.015-0.025-0.021c-0.072-0.015,0.064,0.008,0.143-0.058
							c0.196-0.132,0.23-0.275,0.237-0.456c0.005-0.061,0-0.116-0.012-0.163c-0.007-0.018-0.012-0.047-0.017-0.091l-0.01-0.053
							l0.014,0.042c0.036,0.121,0.118,0.236,0.224,0.317C444.104,405.792,444.709,405.938,444.699,405.958z"/>
					</g>
				</g>
			</g>
			<g>
				<g>
					<g>
						<path d="M430.015,384.248c0,0,0.123,0.086,0.3,0.283c0.156,0.203,0.415,0.513,0.36,1.126
							c-0.026,0.298-0.195,0.705-0.571,1.027c-0.368,0.331-0.905,0.515-1.361,0.545c-0.94,0.051-1.716-0.24-2.353-0.923
							c-0.307-0.359-0.609-0.819-0.7-1.59c-0.02-0.19-0.013-0.423,0.015-0.625c0.042-0.231,0.102-0.458,0.203-0.663
							c0.204-0.428,0.517-0.727,0.794-0.897c0.583-0.346,0.947-0.284,1.268-0.261c0.294,0.06,0.529,0.159,0.711,0.28
							c0.372,0.236,0.598,0.508,0.75,0.714c0.15,0.205,0.222,0.34,0.222,0.34s-0.095,0.114-0.258,0.31
							c-0.156,0.183-0.38,0.44-0.56,0.713c-0.096,0.133-0.16,0.281-0.185,0.407l0.013,0.092c0.016,0.049-0.03-0.08-0.05-0.12
							c-0.032-0.066-0.031-0.098-0.053-0.149c-0.035-0.093-0.082-0.185-0.142-0.273c-0.036-0.07-0.067-0.126-0.123-0.184
							c-0.172-0.212-0.245-0.098,0.043-0.137c0.258-0.033,0.649-0.27,0.845-0.456c0.207-0.19,0.218-0.26,0.138-0.118
							c-0.075,0.126-0.186,0.402-0.213,0.639c-0.058,0.543,0.188,0.471-0.192,0.227c0.222,0.13,0.554-0.013,0.754-0.114
							C429.888,384.32,430.015,384.248,430.015,384.248z"/>
					</g>
				</g>
			</g>
			<g>
				<g>
					<g>
						<path d="M481.96,372.616c0,0,0.108,0.111,0.259,0.331c0.143,0.225,0.342,0.54,0.365,1.078
							c-0.018,0.271-0.022,0.627-0.46,1.082c-0.239,0.226-0.613,0.429-1.071,0.474c-0.439,0.04-0.865-0.069-1.161-0.206
							c-0.611-0.288-0.943-0.642-1.213-0.999c-0.262-0.362-0.429-0.749-0.514-1.18c-0.082-0.429-0.071-0.882,0.045-1.332
							c0.121-0.454,0.365-0.907,0.703-1.255c0.713-0.73,1.613-0.798,2.088-0.633c0.986,0.351,1.178,1.004,1.204,0.976
							c0.03,0.004-0.527,0.469-0.72,1.05c-0.013,0.075-0.02,0.145-0.02,0.208c0.006,0.035,0.016,0.067,0.026,0.097l0.017,0.042
							c0.001,0.003-0.024-0.036-0.022-0.037c-0.048-0.094-0.112-0.126-0.043-0.079c0.065,0.046,0.228,0.115,0.449,0.141
							c0.114,0.021,0.224,0.019,0.324,0.018c0.039-0.005,0.03,0.003,0.038,0.011c0,0.01-0.002,0.021-0.016,0.036l-0.022,0.02
							c0.012-0.004-0.052,0.021-0.125,0.064c-0.286,0.146-0.69,0.457-0.864,0.739c-0.09,0.147-0.116,0.237-0.114,0.289
							c0,0.003-0.002-0.003-0.005-0.009c-0.011-0.047-0.026-0.068-0.053-0.107c-0.036-0.068-0.082-0.123-0.133-0.164
							c-0.056-0.055-0.139-0.145-0.215-0.197c-0.032-0.024-0.093-0.064-0.106-0.067c0.013,0.013,0.029,0.011,0.044,0.017
							l0.101,0.021c0.291,0.003,0.619-0.153,0.84-0.252C481.823,372.68,481.96,372.616,481.96,372.616z"/>
					</g>
				</g>
			</g>
			<g>
				<g>
					<g>
						<path d="M472.52,381.703c0,0,0.127-0.114,0.441-0.221c0.303-0.093,0.872-0.131,1.482,0.291
							c0.596,0.404,1.141,1.296,0.988,2.445c-0.068,0.566-0.363,1.188-0.848,1.66c-0.185,0.221-0.652,0.506-0.963,0.643
							l-0.204,0.089l-0.052,0.021l-0.185,0.055l-0.019,0.004l-0.036,0.008l-0.074,0.015l-0.302,0.048
							c-0.37,0.06-0.913,0.013-1.366-0.169c-0.485-0.182-0.895-0.517-1.173-0.879c-0.555-0.75-0.59-1.473-0.506-2.034
							c0.176-1.152,0.988-1.825,1.641-2.038c0.674-0.223,1.172-0.052,1.448,0.083c0.285,0.157,0.403,0.273,0.403,0.273
							s-0.124,0.148-0.277,0.365c-0.147,0.224-0.296,0.566-0.224,0.864c0.023,0.138,0.108,0.267,0.206,0.34
							c0.036,0.032,0.12,0.069,0.147,0.073c-0.019-0.007-0.041-0.007-0.109-0.011c-0.108-0.01-0.405,0.073-0.529,0.186
							c-0.144,0.124,0.012,0.099-0.039-0.343c-0.007-0.054-0.018-0.104-0.033-0.152l-0.012-0.036l-0.007-0.017l-0.003-0.009
							l-0.002-0.004c-0.515-0.712-0.142-0.197-0.256-0.356l0.002,0.001l0.068,0.025l0.27,0.099c0,0.051-0.068,0.22-0.028,0.201
							c0.045,0.048,0.009,0.006-0.052-0.011c-0.022-0.006-0.05-0.012-0.059-0.011c-0.022,0,0.035,0.001,0.061-0.003
							c0.025-0.004,0.053-0.01,0.084-0.022c0.117-0.041,0.231-0.132,0.305-0.249c0.163-0.237,0.138-0.595,0.031-0.835
							C472.635,381.858,472.52,381.703,472.52,381.703z"/>
					</g>
				</g>
			</g>
			<g>
				<g>
					<g>
						<path d="M474.552,376.307c0,0-0.092,0.098-0.292,0.212c-0.102,0.055-0.225,0.125-0.406,0.125
							c-0.089,0.004-0.188,0-0.295-0.018c-0.114-0.036-0.248-0.122-0.373-0.228c-0.26-0.204-0.453-0.754-0.395-1.192
							c0.034-0.441,0.192-0.794,0.329-1.051c0.297-0.528,0.671-0.862,1.069-1.016c0.817-0.312,1.605,0.144,2.038,0.655
							c0.222,0.257,0.365,0.527,0.449,0.735c0.084,0.204,0.114,0.338,0.114,0.338s-0.301,0.479-0.534,1.009
							c-0.243,0.525-0.407,1.082-0.56,1.146c-0.041,0.017-0.08-0.002-0.112-0.047c0.002,0.033-0.103-0.181-0.2-0.315
							c-0.104-0.142-0.219-0.273-0.302-0.385c-0.217-0.231-0.408-0.375-0.536-0.422c-0.128-0.051-0.146-0.008-0.061-0.047
							c0.058-0.023,0.078-0.051,0.121-0.094c0.069-0.043,0.181-0.172,0.098-0.076c-0.086,0.098-0.103,0.218-0.12,0.317
							C474.552,376.159,474.552,376.307,474.552,376.307z"/>
					</g>
				</g>
			</g>
			<g>
				<g>
					<g>
						<path d="M478.627,378.408c0,0,0.114,0.091,0.278,0.256c0.163,0.167,0.386,0.398,0.558,0.734
							c0.095,0.158,0.171,0.352,0.194,0.605c0.007,0.13,0.045,0.228,0.006,0.402c-0.038,0.173-0.096,0.355-0.175,0.537
							c-0.071,0.181-0.33,0.456-0.561,0.646c-0.224,0.208-0.593,0.335-0.948,0.418c-0.192,0.043-0.363,0.058-0.475,0.05
							c-0.132-0.003-0.267-0.013-0.4-0.033c-0.133-0.019-0.275-0.048-0.394-0.082c-0.081-0.029-0.162-0.061-0.241-0.098
							c-0.192-0.086-0.372-0.191-0.465-0.267l-1.1-0.881l0.098-0.776c0.029-0.239,0.077-0.424,0.163-0.672
							c0.051-0.157,0.112-0.305,0.18-0.441l0.139-0.266c0.064-0.112,0.134-0.217,0.207-0.312c0.121-0.172,0.371-0.392,0.605-0.525
							c0.262-0.162,0.395-0.129,0.573-0.159c0.19-0.024,0.267,0.022,0.354,0.058c0.085,0.037,0.178,0.073,0.24,0.118
							c0.238,0.186,0.439,0.366,0.586,0.493c0.158,0.135,0.25,0.213,0.25,0.213s-0.013,0.122-0.064,0.321
							c-0.053,0.203-0.151,0.475-0.292,0.759c-0.032,0.071-0.037,0.137-0.055,0.204l-0.022,0.099
							c-0.009,0.018,0.001,0.031,0.019,0.042c0.004-0.013-0.026-0.109-0.043-0.159c-0.042-0.122-0.099-0.241-0.172-0.356
							l-0.101-0.145l0.001-0.01c0.018-0.01-0.099-0.078,0.109,0.052c0.071,0.037,0.147,0.061,0.223,0.072
							c0.045,0.009,0.064,0.002,0.129,0.015l0.299,0.079l0.306,0.06c0.078,0.014,0.268,0.038,0.234,0.03
							c0.022-0.003,0.041-0.008,0.058-0.014c0.073,0.041,0.137,0.16,0.167,0.233c-0.258-0.428-0.516-0.854-1.001-1.657
							c0.005-0.012,0.008-0.023,0.009-0.031l-0.002-0.009c-0.001,0,0.001-0.003-0.002,0.001l-0.032,0.069l-0.062,0.143
							c-0.066,0.161-0.122,0.327-0.168,0.496c-0.046,0.096-0.083,0.163-0.108,0.255c-0.025,0.087-0.038,0.18-0.039,0.275
							l0.005,0.131l-0.008,0.024c-0.004,0.018-0.003,0.042,0.005,0.067c0.004,0.013,0.01,0.026,0.017,0.039
							c-0.006-0.02-0.018-0.044-0.027-0.064c-0.022-0.04-0.05-0.072-0.08-0.097c-0.035-0.032-0.039-0.011-0.137-0.116
							c-0.157-0.15-0.333-0.259-0.513-0.329l-0.067-0.024c-0.005,0.004,0.009,0.009,0.014,0.007l0.044,0.002l0.094,0.003
							c0.131,0.015,0.282-0.022,0.429-0.08C478.142,378.577,478.627,378.408,478.627,378.408z"/>
					</g>
				</g>
			</g>
			<g>
				<g>
					<g>
						<path d="M476.853,388.747c0,0,0.301,0.354,0.654,0.699c0.175,0.207,0.382,0.394,0.516,0.693
							c0.058,0.179,0.101,0.375,0.121,0.583c-0.034,0.304-0.183,0.706-0.384,1.042l-0.653,1.086l-2.16-0.939
							c-0.147-0.064-0.326-0.169-0.557-0.45c-0.045-0.05-0.113-0.147-0.177-0.251c-0.066-0.113-0.105-0.172-0.175-0.335
							c-0.069-0.164-0.122-0.329-0.159-0.501c-0.045-0.241-0.058-0.49-0.034-0.729c0.033-0.257,0.116-0.539,0.221-0.741
							c0.097-0.178,0.236-0.377,0.351-0.49c0.103-0.096,0.212-0.183,0.321-0.258c0.084-0.045,0.164-0.081,0.246-0.114
							c0.585-0.18,0.837,0.018,1.144,0.131c0.609,0.322,1.056,0.558,1.056,0.558s0.116,0.57-0.014,1.247
							c-0.028,0.154-0.058,0.318-0.089,0.491c-0.018,0.08-0.012,0.147-0.02,0.216c-0.001,0.034,0.016,0.057,0.023,0.083
							c0,0.006,0.018,0.038,0.005,0.023c-0.128-0.164-0.15-0.212-0.205-0.288c-0.101-0.143-0.222-0.285-0.348-0.41
							c-0.059-0.08-0.133-0.152-0.221-0.212c-0.067-0.051-0.082-0.069-0.143-0.091c-0.029-0.01-0.012-0.009-0.031-0.012
							c0.037,0.03,0.533-0.115,1.098-0.618l0.241-0.2c0.082-0.071,0.17-0.155,0.135-0.128c-0.015-0.006-0.002,0.013,0,0.024
							c0.007,0.027,0.006,0.059-0.002,0.092c-0.747,0.408-1.488,0.813-1.853,1.013c-0.119-0.132-0.257-0.231-0.399-0.299
							c-0.072-0.034-0.146-0.06-0.219-0.078l-0.11-0.022l-0.055-0.007c-0.026-0.009,0.028,0.018-0.094-0.032
							c-0.122-0.047-0.109-0.044-0.1-0.042c0.105-0.026,0.208-0.052,0.307-0.077c0.245-0.119,0.526-0.308,0.785-0.405
							C476.432,388.745,476.853,388.747,476.853,388.747z"/>
					</g>
				</g>
			</g>
			<g>
				<g>
					<g>
						<path d="M483.222,384.119c0.021-0.007-0.061,0.286,0.086,0.567c0.064,0.162,0.265,0.134,0.275,0.504
							c0.011,0.395-0.279,0.922-0.571,1.253l-0.3,0.341l-1.653-0.802c-0.289-0.14-0.621-0.389-0.886-0.857
							c-0.257-0.476-0.407-1.251-0.14-2.021c0.391-1.092,1.286-1.587,1.91-1.686c0.656-0.114,1.18,0.06,1.56,0.27
							c0.381,0.218,0.623,0.49,0.768,0.697c0.145,0.21,0.201,0.347,0.201,0.347s-0.439,0.462-0.719,1.024
							c-0.136,0.279-0.232,0.581-0.193,0.784l0.025,0.069l0.013,0.028c-0.004-0.004-0.031-0.04-0.038-0.055
							c-0.04-0.077-0.136-0.168-0.183-0.224c-0.052-0.06-0.142-0.12-0.169-0.144c-0.067-0.04-0.083-0.046-0.099-0.053
							c-0.037-0.003,0.193,0.043,0.494-0.066c0.309-0.09,0.067-0.023,0.058,0.025c-0.054,0.077-0.105,0.149-0.151,0.215
							c-0.809-0.19-1.59-0.375-1.953-0.46l0.023,0.049c0.017,0.026-0.002,0.004,0.071,0.104c0.054,0.071,0.119,0.145,0.173,0.203
							c0.018,0.029,0.039,0.058,0.062,0.084c0.018,0.033,0.185,0.151,0.057,0.055c-0.034-0.023-0.069-0.044-0.104-0.06
							c-0.015-0.006-0.042-0.019-0.045-0.018c0.008,0.01,0.022,0.003,0.032,0.004c0.155,0.05,0.48-0.259,0.716-0.275
							C483.025,383.94,483.217,384.145,483.222,384.119z"/>
					</g>
				</g>
			</g>
			<g>
				<g>
					<g>
						<path d="M468.779,405.034c0-0.001,0.122-0.141,0.402-0.312c0.281-0.177,0.71-0.368,1.278-0.47
							c0.571-0.082,1.255-0.141,2.154,0.296c0.239,0.15,0.473,0.28,0.735,0.586c0.062,0.07,0.123,0.138,0.184,0.218
							c0.062,0.1,0.123,0.203,0.179,0.311c0.113,0.208,0.206,0.442,0.249,0.745c0.053,0.292,0.061,0.579,0.006,0.856
							c-0.045,0.288-0.129,0.572-0.23,0.756c-0.096,0.195-0.232,0.445-0.343,0.573c-0.111,0.137-0.231,0.27-0.357,0.396
							c-0.04,0.039-0.079,0.077-0.102,0.1c0.092-0.091,0.127-0.127,0.163-0.163c-0.114,0.115-0.233,0.226-0.355,0.33
							c-0.117,0.101-0.233,0.2-0.46,0.325c-0.223,0.115-0.355,0.204-0.663,0.291c-0.328,0.078-0.627,0.136-0.983,0.096
							c-0.783-0.077-1.351-0.521-1.626-0.873c-0.12-0.162-0.257-0.36-0.316-0.506c-0.058-0.143-0.108-0.284-0.15-0.424
							c-0.216-1.013,0.037-1.636,0.265-2.175c0.249-0.523,0.562-0.891,0.828-1.104c0.258-0.213,0.452-0.25,0.441-0.253
							c-0.017,0.029,0.226,0.673,0.783,1.319c0.253,0.305,0.601,0.716,0.837,0.741l0.018-0.012c0.013-0.008,0.014-0.011-0.049,0.022
							c-0.088,0.047-0.174,0.101-0.258,0.16c-0.165,0.112-0.273,0.155-0.392,0.285c-0.219,0.197-0.239,0.341-0.237,0.307
							c0.005,0,0.001-0.178-0.045-0.226c-0.02-0.007-0.051-0.143-0.091-0.223c-0.04-0.089-0.089-0.172-0.145-0.247
							c-0.06-0.091-0.112-0.11-0.197-0.237c-0.084-0.123-0.175-0.24-0.271-0.352c-0.057-0.066-0.02-0.024-0.026-0.034l0.163-0.163
							l-0.012,0.004c-0.019-0.015,0.022,0.033,0.061,0.074l0.115,0.115c0.08,0.074,0.166,0.144,0.257,0.207
							c0.192,0.13,0.213,0.189,0.363,0.256c0.167,0.064,0.188,0.08,0.237,0.094c0.02,0.007,0.073,0.01,0.076,0.008
							c-0.016-0.001-0.029,0-0.038,0.003c-0.015,0.004-0.005,0.006-0.03,0.012c-0.048,0.009-0.093,0.023-0.132,0.042
							c-0.04,0.019-0.075,0.041-0.104,0.066c-0.059,0.03-0.131,0.069-0.188,0.111c-0.13,0.087-0.179,0.172-0.344,0.306
							c-0.102,0.097-0.043,0.039-0.049,0.04l0.022-0.034c-0.011-0.261-0.306-0.696-0.554-1.036
							C469.336,405.528,468.779,405.034,468.779,405.034z"/>
					</g>
				</g>
			</g>
		</g>
		<path opacity="0.3" enable-background="new    " d="M352,343c14.779-9.003,18,17.221,18,25.698
			c0.606-5.283,1.486-10.507,1.997-15.701c0.78-7.936,2.536-9.859-3.997-12.997c-9.228-4.433-20.985,3.202-29.246,5.754
			c-18.156,5.61-34.317,15.661-46.628,31.07c13.932-2.825,24.811-18.258,39.097-22.602c19.228-5.847,34.946-0.713,34.725,21.424
			c2.636-6.929,8.338-19.959,7.048-27.65c-1.89-11.266-14.406-9.66-23.997-7.997"/>
		<path opacity="0.3" enable-background="new    " d="M315,385c-18.623,9.099-24.943,37.073,2,37
			c16.533-0.045,42.984-6.287,40-28.697c0.219,1.497-2.69,5.509-2.75,6.947c-10.912,2.729-16.839,6.611-28.25,7.75
			c-6.983,0.696-12.56,1.244-15.754-4.246c-2.919-5.015-1.426-11.949,3.754-14.754"/>
		<g opacity="0.3">
			<g>
				<g>
					<path fill="#FFFFFF" d="M449.667,359.333c0,0-0.415,0.094-1.175,0.227c-0.756,0.118-1.87,0.336-3.237,0.422
						c-2.739,0.212-6.53,0.138-10.552-0.521c-4.014-0.653-7.528-1.613-10.122-2.299c-1.294-0.368-2.354-0.591-3.094-0.817
						c-0.742-0.222-1.153-0.345-1.153-0.345s0.412-0.106,1.167-0.262c0.752-0.137,1.861-0.398,3.229-0.512
						c2.738-0.278,6.549-0.257,10.59,0.401c4.03,0.661,7.548,1.675,10.13,2.424c1.288,0.394,2.342,0.658,3.074,0.904
						C449.26,359.198,449.667,359.333,449.667,359.333z"/>
				</g>
			</g>
		</g>
		<g opacity="0.3">
			<g>
				<g>
					<path fill="#FFFFFF" d="M318.334,375.668c0,0,0.369-0.417,1.034-1.17c0.672-0.744,1.638-1.818,2.921-3.083
						c1.292-1.252,2.885-2.736,5.011-4.053c2.092-1.312,4.822-2.476,7.895-2.603c0.799-0.047,1.43-0.022,2.093-0.01
						c0.657,0.014,1.307,0.038,1.95,0.073c1.28,0.057,2.525,0.172,3.705,0.294c2.368,0.294,4.493,0.665,6.245,1.166
						c0.878,0.216,1.66,0.486,2.339,0.725c0.682,0.225,1.257,0.455,1.719,0.672c0.915,0.421,1.422,0.655,1.422,0.655
						s-0.556-0.023-1.559-0.065c-0.493-0.038-1.099-0.057-1.803-0.054c-0.701-0.011-1.489-0.037-2.368-0.008
						c-1.743-0.011-3.82,0.109-6.114,0.183c-1.154,0.047-2.364,0.097-3.619,0.148c-0.631,0.017-1.273,0.034-1.925,0.051
						c-0.648,0.014-1.349,0.01-1.895,0.049c-4.665,0.208-8.851,2.672-11.933,4.332c-1.542,0.853-2.817,1.552-3.712,2.008
						C318.842,375.436,318.334,375.668,318.334,375.668z"/>
				</g>
			</g>
		</g>
	</g>
</g>
</svg>
