<?xml version="1.0" encoding="utf-8"?>
<!-- Generator: Adobe Illustrator 25.0.1, SVG Export Plug-In . SVG Version: 6.00 Build 0)  -->
<svg version="1.1" id="Capa_1" xmlns="http://www.w3.org/2000/svg" xmlns:xlink="http://www.w3.org/1999/xlink" x="0px" y="0px"
	 viewBox="0 0 800 800" enable-background="new 0 0 800 800" xml:space="preserve">
<g id="ojos">
	<g id="_x39_">
		<g>
			<path opacity="0.3" enable-background="new    " d="M472,358.67c-8.12-3.63-14.95-8.95-22.33-14.09
				c-4.65-3.24-9.67-5.35-14.78-7.09c-2.35-2.31-4.76-4.55-7.399-6.49h-1.99c-5.16-3.98-9.49-8.29-15.39-11.14
				c-2.17-1.05-8-3.76-10.26-2.01c-2.28,1.78-1.82,8.51-2.09,11.16c-1.59,15.76-1.76,32.34-1.76,48.49v10.99
				c0.84-12.721,10.89-21.17,21.14-27.1c6.521-3.77,10.95-6.7,19.24-5.89c6.66,0.65,13.24,4.13,19.54,6.51
				c2.96,1.12,5.93,1.49,9.18,1.47c1.44,1.22,2.75,2.5,3.9,3.85c-5.52,0.96-26.33,0.08-31.59,2.24C433,371.38,427.22,377,427,382
				h2.33c3.97,6,22.939,5.08,28.99,2.82c8.319-3.101,14.449-9.88,22.699-13.07c5.54-2.14,17.48-3.38,20.851-9.4
				C491.18,362.61,481.29,362.82,472,358.67z M465.25,360.15c-1.57-0.32-3.8-0.93-6.52-1.69c-5.471-1.49-12.82-4.04-21.021-3.84
				c-4.25,0.04-8.24,0.21-11.83,0.69c-3.6,0.44-6.77,1.25-9.38,2.14c-2.61,0.9-4.64,1.91-6.03,2.65c-1.38,0.8-2.14,1.23-2.14,1.23
				s0.61-0.63,1.79-1.72c1.2-1.06,3.04-2.52,5.59-3.93c2.55-1.4,5.81-2.76,9.58-3.6c3.76-0.88,7.99-1.3,12.37-1.34
				c1.08-0.04,2.21,0.03,3.33,0.12c0.55,0.04,1.1,0.09,1.649,0.13c0.54,0.04,1.061,0.18,1.591,0.26c1.039,0.22,2.079,0.36,3.05,0.65
				c0.97,0.29,1.92,0.57,2.85,0.85c3.62,1.25,6.73,2.65,9.28,3.89c5.1,2.49,8.26,4.03,8.26,4.03S466.8,360.48,465.25,360.15z"/>
			<path opacity="0.3" enable-background="new    " d="M396,392.071c0-1.035,0-2.26,0-3.584
				C395.923,389.647,395.917,390.839,396,392.071z"/>
		</g>
		<g>
			<path opacity="0.3" enable-background="new    " d="M363.12,340.99c-2-6.8-7.25-12.98-13.31-15.28
				c-0.09-1.23-0.15-2.43-0.13-3.59c-0.59,1.04-1.29,2.01-2.05,2.94c-4.78-1.03-9.85,0.46-14.13,5.94l0.5,0.5
				c-3.64,5.97-10.01,9.99-14.59,15.42c-5.23,4.25-10.69,8.45-16.14,12.33c-3.32,2.37-6.64,5.3-10.35,7
				c-3.74,1.71-8.92,1.88-11.54,5.67c3.29,1.48,6.95,1.62,10.2,3.82c2.94,1.979,5.77,4.52,8.44,6.85
				c7.43,6.51,12.23,12.41,22.65,12.41c5.5,0,10.43,0.17,15.25-2.42c3.82-2.05,6-6.28,9.75-8.25l-0.34-1.66
				c-5.82-1.07-11.54-3.34-17.31-4.35c-6.12-1.08-12.13-1.92-17.98-3.73c0.81-1.439,1.59-2.88,2.4-4.32
				c4.42-0.689,8.92-1.169,13.18-3.149c6.69-3.1,11.73-6.18,19.88-4.62c14.38,2.76,17.6,16.23,17.97,29.12
				c-0.01-1.22-0.02-2.69,0.02-3.63C366.23,373.03,367.27,355.08,363.12,340.99z M356.33,361.63c-1.09-0.61-2.67-1.49-4.72-2.12
				c-2.04-0.63-4.52-1-7.24-0.7c-2.72,0.26-5.67,1.13-8.75,2.3c-3.09,1.16-6.05,2.47-8.81,3.58c-2.76,1.12-5.32,2.04-7.53,2.67
				c-2.21,0.62-4.03,0.98-5.31,1.13c-0.63,0.09-1.13,0.11-1.46,0.14c-0.33,0.02-0.51,0.04-0.51,0.04s0.65-0.28,1.81-0.77
				s2.78-1.29,4.74-2.34s4.25-2.39,6.85-3.83c2.6-1.43,5.52-3,8.85-4.26c3.32-1.25,6.78-2.03,10.01-1.93
				c3.24,0.04,6.08,1.02,8.13,2.19c2.08,1.18,3.43,2.52,4.32,3.42c0.86,0.97,1.29,1.52,1.29,1.52S357.41,362.3,356.33,361.63z"/>
			<path opacity="0.3" enable-background="new    " d="M365.479,392.159c0.003,0.22,0.007,0.423,0.01,0.606
				C365.486,392.564,365.483,392.361,365.479,392.159z"/>
			<path opacity="0.3" enable-background="new    " d="M365.489,392.766c0.004,0.269,0.009,0.538,0.011,0.806
				C365.5,393.418,365.495,393.13,365.489,392.766z"/>
		</g>
		<g>
			<path fill="#D8A3A3" d="M430.242,356.648c4.841-1.534,10.434,0.42,14.672,2.006c4.386,1.641,8.944,3.306,13.509,4.331
				c6.205,1.393,12.837,3.215,19.332,3.035c-5.756,6.526-10.482,13.327-18.669,17.269c-4.602,2.215-9.83,1.877-15.168,1.877
				c-5.421,0-10.035-0.489-14.685-3.173c-3.237-1.869-7.364-4.175-9.497-7.501c-1.218-1.899-1.893-5.29-2.002-7.504
				c-0.117-2.435,0.522-4.449,2.123-6.216c2.688-2.966,7.719-3.128,11.385-3.79"/>
			<g>
				<g>
					<g>
						<path fill="#B54040" d="M463.097,367.655c0,0-0.449,0.336-1.171,0.912c-0.353,0.279-0.898,0.579-1.502,0.705
							c-0.159,0.026-0.315,0.073-0.515,0.058c-0.191,0.011-0.418-0.096-0.561-0.199c-0.287-0.211-0.529-0.393-0.819-0.564
							c-0.578-0.305-1.166-0.454-1.731-0.362c-0.562,0.09-1.095,0.271-1.548,0.359c-0.46,0.08-0.833,0.119-1.094,0.099
							c-0.254-0.006-0.398-0.009-0.398-0.009s0.142-0.024,0.393-0.067c0.254-0.025,0.608-0.124,1.037-0.258
							c0.431-0.145,0.911-0.376,1.537-0.528c0.634-0.159,1.397-0.012,2.047,0.345c0.314,0.182,0.61,0.417,0.845,0.605
							c0.206,0.178,0.433,0.153,0.733,0.118c0.594-0.084,1.041-0.277,1.444-0.506C462.572,367.896,463.097,367.655,463.097,367.655z
							"/>
					</g>
				</g>
			</g>
			<g>
				<g>
					<g>
						<path fill="#B54040" d="M454.924,374.326c0,0,0.212-0.072,0.591-0.201c0.19-0.071,0.426-0.141,0.708-0.195
							c0.279-0.064,0.6-0.137,0.958-0.177c0.716-0.114,1.574-0.15,2.517-0.212c0.934-0.056,1.986-0.131,2.975-0.421
							c0.98-0.341,1.762-1.033,2.579-1.552l0.31-0.183c0.04-0.017,0.109-0.08,0.193-0.091l0.173-0.04
							c0.228-0.059,0.45-0.101,0.668-0.112c0.434-0.047,0.836-0.017,1.195,0.011c0.719,0.072,1.288,0.147,1.689,0.164
							c0.398,0.003,0.621,0.004,0.621,0.004s-0.223,0.026-0.62,0.072c-0.402,0.028-0.989,0.013-1.7,0.003
							c-0.354,0.002-0.742,0.004-1.144,0.076c-0.202,0.023-0.405,0.076-0.609,0.142l-0.155,0.045
							c-0.032,0.003-0.05,0.027-0.11,0.063l-0.284,0.188c-0.752,0.524-1.544,1.279-2.647,1.669
							c-1.111,0.326-2.165,0.357-3.117,0.372c-0.95,0.016-1.8-0.008-2.508,0.044c-0.357,0.009-0.675,0.051-0.955,0.086
							c-0.283,0.025-0.523,0.068-0.717,0.117C455.143,374.281,454.924,374.326,454.924,374.326z"/>
					</g>
				</g>
			</g>
			<g>
				<g>
					<g>
						<path fill="#B54040" d="M460.262,379.828c0,0-0.262,0.033-0.742,0.05c-0.24,0.007-0.536,0.014-0.884-0.019
							c-0.343-0.057-0.757-0.011-1.196-0.428c0.004,0.004,0.014,0.016,0.022,0.027c-0.299-0.268-0.301-0.765-0.209-1.148
							c0.081-0.401,0.226-0.812,0.254-1.206c-0.004-0.807-0.815-1.415-1.072-2.034l0.006,0.012
							c-0.428-0.749-0.413-1.467-0.401-1.902c0.034-0.441,0.054-0.69,0.054-0.69s0.024,0.248,0.068,0.687
							c0.06,0.44,0.131,1.078,0.582,1.725l0.006,0.012c0.139,0.239,0.384,0.489,0.671,0.825c0.279,0.353,0.562,0.783,0.571,1.396
							c-0.04,0.502-0.208,0.914-0.297,1.275c-0.102,0.364-0.098,0.642,0.028,0.788l0.023,0.028c0.176,0.213,0.621,0.324,0.927,0.385
							c0.326,0.071,0.616,0.107,0.853,0.136C459.995,379.799,460.262,379.828,460.262,379.828z"/>
					</g>
				</g>
			</g>
			<g>
				<g>
					<g>
						<path fill="#B54040" d="M455.426,379.995c0,0-0.519-0.301-1.393-0.749c-0.429-0.239-0.961-0.511-1.454-0.999
							c-0.242-0.241-0.482-0.55-0.591-0.943c-0.116-0.39-0.085-0.824,0.037-1.22c-0.001,0.005-0.004,0.015-0.007,0.024
							c0.009-0.03,0.023-0.082,0.038-0.134c0.237-0.793,0.634-1.401,0.88-2.001c0.268-0.586,0.391-1.153,0.252-1.594
							c-0.134-0.451-0.506-0.681-0.72-0.841c-0.242-0.137-0.379-0.214-0.379-0.214s0.15,0.053,0.415,0.147
							c0.239,0.127,0.675,0.301,0.909,0.818c0.236,0.512,0.142,1.203-0.096,1.833c-0.218,0.644-0.594,1.299-0.793,1.978
							c-0.013,0.044-0.025,0.088-0.032,0.113l-0.007,0.024c-0.225,0.651-0.042,1.287,0.388,1.735
							c0.401,0.462,0.892,0.789,1.283,1.073C454.968,379.593,455.426,379.995,455.426,379.995z"/>
					</g>
				</g>
			</g>
			<g>
				<g>
					<g>
						<path fill="#B54040" d="M445.919,375.493c0,0-0.092,0.146-0.254,0.405c-0.151,0.265-0.373,0.656-0.512,1.168
							c-0.06,0.255-0.113,0.543-0.057,0.832c0.006,0.148,0.068,0.286,0.127,0.427c0.046,0.124,0.167,0.217,0.282,0.312
							c0.254,0.179,0.619,0.275,0.991,0.396c0.369,0.125,0.833,0.229,1.178,0.659c0.054,0.083,0.107,0.166,0.137,0.213
							c-0.004-0.01-0.006-0.014-0.008-0.018c0.252,0.474,0.065,1.039-0.143,1.354c-0.199,0.348-0.4,0.637-0.458,0.932
							c-0.136,0.6,0.326,1.111,0.718,1.423c0.401,0.331,0.767,0.565,0.995,0.757c0.234,0.184,0.339,0.312,0.339,0.312
							s-0.125-0.107-0.381-0.252c-0.25-0.154-0.639-0.332-1.094-0.628c-0.226-0.15-0.47-0.336-0.682-0.607
							c-0.2-0.276-0.362-0.656-0.29-1.073c0.119-0.802,0.891-1.422,0.561-2.001l-0.009-0.018c-0.02-0.023-0.052-0.064-0.08-0.108
							c-0.407-0.488-1.379-0.514-2.021-1.012c-0.341-0.271-0.499-0.695-0.495-1.034c-0.033-0.355,0.061-0.672,0.156-0.939
							c0.211-0.534,0.49-0.895,0.681-1.138C445.805,375.624,445.919,375.493,445.919,375.493z"/>
					</g>
				</g>
			</g>
			<g>
				<g>
					<g>
						<path fill="#B54040" d="M439.082,382.997c-0.026-0.008,0.222-0.418,0.364-1.119c0.174-0.715-0.152-1.616-0.553-2.685
							c-0.017-0.047-0.032-0.095-0.042-0.122c0.006,0.013,0.008,0.019,0.01,0.024c-0.206-0.534-0.383-1.104-0.25-1.631
							c0.129-0.505,0.332-0.865,0.443-1.193c0.211-0.657,0.166-1.115,0.194-1.111c-0.03-0.001,0.139,0.43,0.033,1.167
							c-0.061,0.361-0.214,0.781-0.275,1.203c-0.069,0.424,0.109,0.883,0.296,1.364l0.01,0.024c0.009,0.027,0.025,0.073,0.042,0.121
							c0.177,0.523,0.361,1.043,0.438,1.551c0.101,0.509,0,0.99-0.111,1.351C439.404,382.66,439.057,382.983,439.082,382.997z"/>
					</g>
				</g>
			</g>
			<g>
				<g>
					<g>
						<path fill="#B54040" d="M437.581,372.658c-0.044-0.025,0.295,0.601-0.222,1.467c-0.508,0.85-1.719,1.48-2.949,2.059
							c-0.611,0.308-1.175,0.62-1.633,0.972c-0.443,0.365-0.774,0.77-0.992,1.156c-0.21,0.389-0.351,0.729-0.418,0.974
							c-0.078,0.241-0.123,0.377-0.123,0.377s0.018-0.143,0.05-0.395c0.022-0.257,0.107-0.623,0.272-1.062
							c0.174-0.436,0.485-0.924,0.944-1.361c0.469-0.421,1.055-0.779,1.684-1.096c1.264-0.593,2.418-1.069,2.967-1.764
							C437.725,373.294,437.548,372.636,437.581,372.658z"/>
					</g>
				</g>
			</g>
			<g>
				<g>
					<g>
						<path fill="#B54040" d="M426.074,376.326c0,0,0.109-0.068,0.302-0.188c0.191-0.12,0.458-0.313,0.749-0.59
							c0.602-0.535,1.291-1.412,2.15-2.33c0.853-0.922,1.83-1.624,2.643-1.872c0.4-0.128,0.736-0.185,0.969-0.182
							c0.228-0.005,0.357-0.008,0.357-0.008s-0.126,0.03-0.346,0.083c-0.223,0.041-0.533,0.156-0.888,0.331
							c-0.723,0.347-1.544,1.079-2.384,1.982c-0.843,0.9-1.65,1.728-2.352,2.186c-0.34,0.239-0.649,0.386-0.864,0.467
							C426.196,376.283,426.074,376.326,426.074,376.326z"/>
					</g>
				</g>
			</g>
			<g>
				<g>
					<g>
						<path fill="#B54040" d="M432.411,366.487c0,0-0.667,0.375-1.769,0.905c-0.27,0.142-0.573,0.28-0.866,0.48
							c-0.148,0.096-0.31,0.187-0.46,0.295c-0.134,0.119-0.271,0.241-0.412,0.366c-0.26,0.286-0.498,0.622-0.794,0.978
							c-0.126,0.186-0.327,0.336-0.515,0.495c-0.18,0.174-0.401,0.289-0.625,0.408c-0.959,0.417-1.944,0.261-2.733,0.075
							c-0.802-0.201-1.486-0.453-2.07-0.628c-1.16-0.386-1.93-0.372-1.93-0.372s0.772-0.139,1.989,0.136
							c0.606,0.119,1.314,0.313,2.097,0.463c0.775,0.14,1.661,0.229,2.447-0.117c0.19-0.104,0.381-0.199,0.531-0.345
							c0.159-0.134,0.331-0.245,0.461-0.424c0.276-0.313,0.55-0.665,0.851-0.96c0.171-0.133,0.338-0.263,0.5-0.39
							c0.169-0.104,0.341-0.184,0.502-0.272c0.32-0.183,0.642-0.296,0.928-0.412C431.686,366.752,432.411,366.487,432.411,366.487z"
							/>
					</g>
				</g>
			</g>
			<g>
				<g>
					<g>
						<path fill="#B54040" d="M430.076,363.819c-0.013-0.032-0.242,0.359-0.917,0.518c-0.685,0.176-1.58-0.166-2.463-0.093
							c-0.897,0.062-1.771,0.378-2.441,0.342c-0.677-0.019-1.015-0.292-1.017-0.267c0.003-0.021,0.396,0.128,1,0.025
							c0.609-0.078,1.386-0.501,2.428-0.585c1.065-0.064,1.866,0.391,2.464,0.336C429.732,364.079,430.068,363.791,430.076,363.819z
							"/>
					</g>
				</g>
			</g>
			<g>
				<g>
					<g>
						<path fill="#B54040" d="M420.403,362.985c0,0,0.201-0.063,0.56-0.176c0.368-0.079,0.842-0.351,1.441-0.653
							c0.588-0.314,1.328-0.729,2.266-0.837c0.905-0.121,1.896-0.043,2.822-0.356c0.923-0.263,1.658-0.983,2.546-1.311
							c0.872-0.382,1.75-0.281,2.414-0.212c0.674,0.117,1.21,0.24,1.568,0.365c0.358,0.115,0.56,0.18,0.56,0.18
							s-0.207-0.038-0.577-0.106c-0.367-0.08-0.912-0.143-1.574-0.197c-0.66-0.006-1.468-0.039-2.23,0.348
							c-0.777,0.318-1.49,1.074-2.56,1.398c-1.049,0.345-2.066,0.225-2.926,0.3c-0.856,0.053-1.582,0.384-2.203,0.649
							c-0.629,0.25-1.142,0.471-1.526,0.507C420.611,362.948,420.403,362.985,420.403,362.985z"/>
					</g>
				</g>
			</g>
			<path fill="#D8A3A3" d="M306.835,373.326c1.611,8.236,10.966,16.387,19.016,17.672c8.333,1.331,18.861-3.34,24.641-9.871
				c2.902-3.281,4.324-8.978,2.835-13.435c-0.303-0.905-0.896-2.149-1.297-3.043c-0.63-1.401-1.251-1.384-2.872-1.46
				c-2.715-0.126-5.312-0.374-7.968-0.371c-5.281,0.006-9.222,1.554-13.883,3.794c-4.052,1.949-7.703,4.564-12.003,5.675
				c-2.891,0.748-5.629,1.204-8.801,1.204"/>
			<g>
				<g>
					<g>
						<path fill="#B54040" d="M343.69,365.654c0,0,0.472,0.128,1.221,0.392c0.744,0.264,1.739,0.713,2.864,0.998
							c1.06,0.179,2.203-0.112,3-0.025c0.4,0.028,0.727,0.087,0.933,0.178c0.205,0.081,0.321,0.126,0.321,0.126
							s-0.123-0.019-0.339-0.052c-0.212-0.046-0.531-0.042-0.913-0.009c-0.383,0.024-0.838,0.124-1.352,0.207
							c-0.52,0.077-1.1,0.184-1.765,0.047c-1.211-0.309-2.16-0.877-2.851-1.249C344.133,365.897,343.69,365.654,343.69,365.654z"/>
					</g>
				</g>
			</g>
			<g>
				<g>
					<g>
						<path fill="#B54040" d="M351.195,369.656c0,0-0.173-0.015-0.481-0.042c-0.304-0.057-0.749-0.008-1.293,0.048
							c-0.276,0.038-0.57,0.093-0.902,0.123c-0.166,0.016-0.338,0.032-0.514,0.049c-0.184,0.035-0.393-0.023-0.57-0.033
							c-0.367-0.053-0.816-0.152-1.163-0.458c-0.324-0.285-0.6-0.585-0.893-0.827c-1.369-0.869-2.853-1.345-3.921-1.513
							c-0.27-0.055-0.515-0.074-0.733-0.076c-0.218-0.011-0.407-0.024-0.558,0.006c-0.307,0.034-0.479,0.053-0.479,0.053
							s0.168-0.046,0.468-0.127c0.151-0.053,0.342-0.067,0.565-0.085c0.224-0.027,0.479-0.038,0.761-0.013
							c1.129,0.057,2.68,0.409,4.183,1.36c0.361,0.298,0.64,0.616,0.907,0.866c0.253,0.242,0.586,0.334,0.933,0.409
							c0.188,0.023,0.33,0.083,0.494,0.064c0.17-0.002,0.336-0.005,0.496-0.007c0.32-0.001,0.63-0.026,0.907-0.034
							C350.539,369.378,351.195,369.692,351.195,369.656z"/>
					</g>
				</g>
			</g>
			<g>
				<g>
					<g>
						<path fill="#B54040" d="M343.857,373.659c0,0,0.519-0.074,1.315-0.188c0.827-0.153,1.932-0.358,3.142-0.582
							c1.238-0.212,2.392-0.287,3.222-0.236c0.414,0.012,0.746,0.089,0.975,0.115c0.225,0.036,0.353,0.057,0.353,0.057
							s-0.13,0.007-0.358,0.019c-0.23,0.02-0.56,0.003-0.966,0.052c-0.812,0.072-1.914,0.262-3.144,0.473
							c-1.23,0.218-2.374,0.329-3.201,0.345C344.364,373.709,343.857,373.659,343.857,373.659z"/>
					</g>
				</g>
			</g>
			<g>
				<g>
					<g>
						<path fill="#B54040" d="M350.027,376.16c0,0-0.552,0.021-1.402,0.053c-0.434,0.005-0.957,0.04-1.549-0.073
							c-0.577-0.112-1.254-0.353-1.752-0.858c-0.512-0.468-0.877-0.987-1.251-1.388c-0.372-0.404-0.792-0.615-1.194-0.699
							c-0.206-0.004-0.394-0.009-0.56-0.012c-0.167,0.014-0.309,0.056-0.427,0.074c-0.237,0.043-0.371,0.068-0.371,0.068
							s0.127-0.051,0.35-0.142c0.115-0.04,0.252-0.11,0.423-0.153c0.174-0.023,0.377-0.06,0.604-0.078
							c0.461,0.021,1.017,0.231,1.461,0.647c0.438,0.404,0.828,0.903,1.292,1.323c0.903,0.875,2.135,0.951,2.982,1.048
							C349.497,376.054,350.027,376.16,350.027,376.16z"/>
					</g>
				</g>
			</g>
			<g>
				<g>
					<g>
						<path fill="#B54040" d="M345.024,379.329c0,0,0.062,0.032,0.166,0.085c0.116,0.048,0.261,0.148,0.42,0.333
							c0.138,0.203,0.197,0.515,0.191,0.793c-0.002,0.279,0.037,0.516,0.156,0.771c0.232,0.518,0.625,0.971,0.83,1.358
							c0.18,0.408,0.239,0.662,0.239,0.662s-0.183-0.218-0.436-0.519c-0.281-0.296-0.77-0.646-1.078-1.305
							c-0.158-0.324-0.173-0.718-0.121-0.991c0.048-0.278,0.052-0.472,0.004-0.653C345.251,379.515,345,379.342,345.024,379.329z"/>
					</g>
				</g>
			</g>
			<g>
				<g>
					<g>
						<path fill="#B54040" d="M341.188,387.501c0,0-0.063-0.275-0.176-0.762c-0.119-0.472-0.257-1.251-0.937-1.765l-0.015-0.013
							c-0.19-0.159-0.545-0.269-0.961-0.393c-0.208-0.066-0.436-0.13-0.674-0.248c-0.234-0.11-0.496-0.281-0.642-0.617
							c-0.179-0.526,0.118-0.938,0.299-1.236c0.21-0.313,0.426-0.568,0.58-0.83c0.071-0.129,0.139-0.256,0.152-0.376
							c0.02-0.075,0.03-0.072,0-0.136c-0.026-0.058-0.03-0.119-0.07-0.176c-0.129-0.231-0.294-0.442-0.458-0.622
							c-0.325-0.365-0.617-0.643-0.808-0.846c-0.186-0.204-0.292-0.319-0.292-0.319s0.124,0.095,0.342,0.263
							c0.221,0.168,0.55,0.398,0.93,0.732c0.191,0.165,0.391,0.363,0.572,0.624c0.051,0.059,0.078,0.148,0.117,0.225
							c0.013,0.035,0.048,0.094,0.058,0.148l-0.021,0.155c-0.012,0.194-0.084,0.356-0.16,0.521c-0.158,0.315-0.375,0.601-0.55,0.887
							c-0.169,0.283-0.336,0.596-0.231,0.825c0.105,0.277,0.613,0.458,0.999,0.597c0.405,0.148,0.806,0.287,1.075,0.564
							c-0.006-0.005-0.012-0.011-0.015-0.013c0.764,0.696,0.781,1.554,0.836,2.029C341.17,387.219,341.188,387.501,341.188,387.501z
							"/>
					</g>
				</g>
			</g>
			<g>
				<g>
					<g>
						<path fill="#B54040" d="M335.352,379.329c0.019-0.007,0,0.18,0.145,0.431c0.073,0.125,0.192,0.243,0.365,0.379
							c0.164,0.135,0.385,0.334,0.485,0.65c0-0.002-0.002-0.007-0.004-0.012c0.065,0.246,0.23,0.509,0.239,0.894
							c0.054,0.381-0.074,0.767-0.141,1.124c-0.051,0.254-0.157,0.565-0.307,0.766c-0.141,0.203-0.184,0.326-0.183,0.528
							c-0.006,0.185,0.041,0.404,0.076,0.563c0.034,0.145,0.161,0.278,0.264,0.401c0.229,0.241,0.42,0.471,0.483,0.659
							c0.065,0.184,0.077,0.288,0.077,0.288c-0.001,0-0.143-0.406-0.724-0.768c-0.131-0.113-0.303-0.226-0.409-0.458
							c-0.082-0.213-0.152-0.408-0.177-0.668c-0.046-0.244,0.057-0.588,0.194-0.785c0.127-0.203,0.172-0.376,0.229-0.624
							c0.075-0.387,0.2-0.721,0.175-1.008c0.027-0.289-0.098-0.579-0.115-0.806l-0.004-0.013c-0.077-0.454-0.559-0.726-0.63-1.063
							C335.297,379.496,335.373,379.327,335.352,379.329z"/>
					</g>
				</g>
			</g>
			<g>
				<g>
					<g>
						<path fill="#B54040" d="M327.347,388.334c0.004,0.009,0.124-0.117,0.399-0.256c0.27-0.15,0.699-0.282,1.197-0.473
							c0.247-0.097,0.511-0.216,0.745-0.39c0.118-0.105,0.214-0.167,0.278-0.315c0.092-0.125,0.145-0.267,0.177-0.418
							c0.159-0.588-0.275-1.39-0.039-2.322c0.24-0.865,0.771-1.521,1.206-2.074c0.447-0.549,0.742-1.083,0.771-1.602
							c0.005-1.044-0.447-1.652-0.397-1.655c0,0,0.089,0.146,0.246,0.404c0.134,0.271,0.361,0.672,0.394,1.252
							c0.041,0.584-0.261,1.259-0.682,1.842c-0.409,0.591-0.864,1.217-1.068,1.958c-0.092,0.352-0.064,0.723-0.019,1.102
							c0.056,0.374,0.099,0.806-0.014,1.197c-0.057,0.2-0.141,0.376-0.262,0.522c-0.089,0.166-0.268,0.293-0.401,0.383
							c-0.296,0.18-0.592,0.275-0.858,0.347c-0.533,0.138-0.962,0.207-1.243,0.312C327.491,388.241,327.352,388.343,327.347,388.334
							z"/>
					</g>
				</g>
			</g>
			<g>
				<g>
					<g>
						<path fill="#B54040" d="M321.843,380.33c0,0-0.233,0.227-0.62,0.555c-0.186,0.172-0.441,0.335-0.672,0.571
							c-0.229,0.238-0.485,0.488-0.766,0.74c-0.483,0.574-0.962,1.072-1.25,1.494c-0.312,0.401-0.527,0.643-0.527,0.643
							s0.108-0.298,0.32-0.771c0.184-0.485,0.587-1.09,1.105-1.701c0.297-0.269,0.592-0.513,0.863-0.726
							c0.272-0.21,0.566-0.327,0.792-0.452C321.551,380.45,321.843,380.33,321.843,380.33z"/>
					</g>
				</g>
			</g>
			<g>
				<g>
					<g>
						<path fill="#B54040" d="M322.011,386.166c0.033,0.011-0.167-0.609,0.191-1.541c0.356-0.925,1.178-2.025,2.453-2.889
							c0.471-0.259,0.955-0.375,1.346-0.511c0.397-0.13,0.691-0.3,0.871-0.501l0.017-0.019c0.529-0.547,0.586-1.312,0.772-1.736
							c0.088-0.222,0.163-0.391,0.244-0.488c0.072-0.099,0.11-0.152,0.11-0.152s-0.027,0.059-0.079,0.169
							c-0.06,0.105-0.104,0.282-0.156,0.505c-0.04,0.233-0.09,0.518-0.147,0.846c-0.074,0.33-0.168,0.741-0.493,1.107
							c0.005-0.005,0.009-0.01,0.017-0.019c-0.201,0.296-0.58,0.548-0.998,0.707c-0.416,0.168-0.87,0.294-1.268,0.516
							c-1.125,0.767-2.044,1.756-2.467,2.564c-0.128,0.198-0.191,0.395-0.249,0.571c-0.072,0.173-0.111,0.328-0.113,0.46
							C322.029,386.018,322.011,386.166,322.011,386.166z"/>
					</g>
				</g>
			</g>
			<g>
				<g>
					<g>
						<path fill="#B54040" d="M325.346,376.16c0,0-0.031,0.086-0.089,0.25c-0.067,0.157-0.175,0.412-0.459,0.625
							c-0.281,0.229-0.745,0.274-1.217,0.25c-0.47-0.015-1.024-0.076-1.479,0.198l-0.019,0.009c-0.33,0.174-0.658,0.482-0.945,0.964
							c-0.29,0.456-0.642,1.112-1.355,1.421c-0.643,0.169-1.091-0.021-1.503,0.04c-0.213,0.031-0.306,0.079-0.468,0.237
							c-0.148,0.138-0.243,0.277-0.273,0.446c-0.042,0.167-0.016,0.395-0.08,0.628c-0.053,0.236-0.175,0.431-0.293,0.583
							c-0.223,0.335-0.505,0.591-0.779,0.791c-0.578,0.373-1.125,0.458-1.483,0.508c-0.364,0.043-0.565,0.052-0.565,0.052
							s0.198-0.045,0.551-0.126c0.346-0.092,0.864-0.242,1.353-0.629c0.231-0.206,0.466-0.457,0.645-0.775
							c0.249-0.329,0.213-0.583,0.248-1.102c0.031-0.26,0.186-0.511,0.361-0.683c0.143-0.176,0.46-0.374,0.722-0.389
							c0.517-0.067,1.056,0.071,1.38-0.031c0.522-0.22,0.84-0.74,1.164-1.219c0.315-0.494,0.761-0.884,1.178-1.049
							c-0.008,0.004-0.015,0.008-0.018,0.009c0.627-0.315,1.226-0.173,1.679-0.127c0.461,0.061,0.86,0.06,1.128-0.113
							C325.259,376.571,325.319,376.128,325.346,376.16z"/>
					</g>
				</g>
			</g>
			<g>
				<g>
					<g>
						<path fill="#B54040" d="M324.345,373.492c0,0-0.199,0.097-0.554,0.271c-0.379,0.11-0.977,0.205-1.685,0.061
							c-0.705-0.116-1.507-0.403-2.375-0.259c-0.428,0.078-0.854,0.225-1.242,0.513c-0.394,0.278-0.779,0.639-1.253,0.95
							c-0.982,0.658-2.115,0.611-2.931,0.893c-0.859,0.239-1.413,0.876-1.896,1.384c-0.475,0.546-1.063,0.796-1.457,0.835
							c-0.398,0.028-0.615,0.021-0.615,0.021s0.22-0.023,0.6-0.095c0.383-0.09,0.876-0.358,1.29-0.921
							c0.424-0.529,0.986-1.289,1.943-1.61c0.922-0.35,1.972-0.34,2.804-0.915c0.425-0.277,0.814-0.63,1.255-0.926
							c0.437-0.309,0.962-0.476,1.449-0.535c1.002-0.108,1.823,0.266,2.481,0.428c0.67,0.196,1.228,0.165,1.613,0.103
							C324.139,373.563,324.345,373.492,324.345,373.492z"/>
					</g>
				</g>
			</g>
			<g>
				<g>
					<g>
						<path d="M467.129,376.166c-0.008-0.032-0.311,0.228-1.043,0.196c-0.356-0.018-0.881-0.304-1.063-0.866
							c-0.095-0.264-0.129-0.575-0.111-0.866c-0.011-0.062-0.009-0.139-0.012-0.162c0.01-0.023-0.054,0.02-0.098,0.052
							c-0.039,0.028-0.065,0.052-0.089,0.076c-0.033,0.025,0.031-0.013-0.075,0.059c-0.092,0.06-0.185,0.121-0.279,0.184
							c-0.189,0.138-0.372,0.279-0.577,0.455c-0.332,0.282-0.717,0.587-1.119,0.824c-0.188,0.1-0.374,0.197-0.557,0.293
							c-0.182,0.105-0.363,0.206-0.56,0.297c-0.386,0.169-0.787,0.359-1.318,0.289c-0.263-0.037-0.511-0.206-0.633-0.381
							c-0.141-0.173-0.204-0.342-0.259-0.495c-0.202-0.615-0.239-1.084-0.301-1.418c-0.048-0.331-0.075-0.516-0.075-0.516
							s0.087,0.167,0.242,0.463c0.156,0.291,0.348,0.761,0.639,1.227c0.151,0.232,0.326,0.405,0.477,0.359
							c0.173-0.011,0.479-0.163,0.774-0.358c0.149-0.095,0.308-0.209,0.47-0.327c0.173-0.111,0.349-0.225,0.528-0.34
							c0.317-0.221,0.618-0.477,0.976-0.78c0.204-0.174,0.444-0.353,0.679-0.507c0.124-0.072,0.246-0.143,0.366-0.213
							c0.103-0.066,0.392-0.154,0.565-0.224c0.393-0.158,0.773-0.266,1.113-0.352c0.164-0.042,0.321-0.083,0.471-0.122
							c0.142-0.036,0.185-0.019,0.262-0.021c-0.377,0.682-0.772,1.306-0.865,1.735c-0.058,0.232-0.069,0.427-0.049,0.614
							c0.039,0.37,0.277,0.607,0.553,0.714C466.728,376.247,467.14,376.14,467.129,376.166z"/>
					</g>
				</g>
			</g>
			<g>
				<g>
					<g>
						<path d="M466.635,367.253c0,0-0.129,0.072-0.357,0.201c-0.228,0.114-0.533,0.331-0.882,0.609
							c-0.708,0.55-1.527,1.461-2.585,2.417c-0.535,0.473-1.097,0.892-1.658,1.212c-0.577,0.301-1.128,0.53-1.628,0.59
							c-0.24,0.056-0.468,0.049-0.662,0.05c-0.192,0.009-0.357-0.014-0.491-0.045c-0.258-0.053-0.403-0.083-0.403-0.083
							s0.143-0.033,0.398-0.092c0.125-0.022,0.275-0.059,0.442-0.131c0.167-0.063,0.355-0.12,0.548-0.234
							c0.795-0.375,1.678-1.176,2.711-2.108c1.029-0.932,2.133-1.721,3.051-2.064c0.452-0.175,0.835-0.271,1.105-0.288
							C466.486,367.265,466.635,367.253,466.635,367.253z"/>
					</g>
				</g>
			</g>
			<g>
				<g>
					<g>
						<path d="M455.988,380.869c-0.01-0.003,0.064-0.173,0.104-0.478c0.025-0.151,0.023-0.333,0.033-0.565
							c0.012-0.137,0.025-0.292,0.04-0.463c-0.014-0.021-0.134-0.003-0.168,0c-0.026,0.004-0.044,0.008-0.057,0.014
							c-0.094-0.028-0.19-0.058-0.289-0.088c-0.392-0.153-0.855-0.393-1.205-0.85c-0.471-0.603-0.491-1.34-0.41-1.854
							c0.082-0.535,0.243-0.964,0.395-1.312c0.306-0.694,0.566-1.089,0.566-1.089s0.008,0.478-0.018,1.212
							c-0.008,0.71-0.109,1.792,0.361,2.364c0.177,0.237,0.452,0.434,0.733,0.607c0.075,0.041,0.149,0.08,0.221,0.119
							c0.15,0.062,0.297,0.122,0.438,0.181c0.25,0.11,0.539,0.195,0.63,0.293c-0.203,0.21-0.412,0.43-0.56,0.617
							c-0.043,0.071-0.084,0.139-0.125,0.206l-0.069,0.152c-0.093,0.21-0.181,0.407-0.28,0.546
							C456.137,380.767,455.979,380.863,455.988,380.869z"/>
					</g>
				</g>
			</g>
			<g>
				<g>
					<g>
						<path d="M452.027,373.938c0,0-0.193,0.072-0.46,0.302c-0.267,0.232-0.613,0.606-0.996,1.106
							c-0.381,0.499-0.806,1.119-1.203,1.824c-0.188,0.352-0.383,0.732-0.497,1.099c-0.045,0.163-0.072,0.378-0.049,0.368
							c0.02-0.008-0.062,0.02-0.101,0.044c-0.064,0.034,0.079-0.03,0.098-0.036l0.012,0.009c0.016,0.012,0.021,0.024,0.035,0.045
							l0.214,0.175c0.709,0.494,1.562,0.913,2.297,1.295c0.749,0.379,1.427,0.722,2,1.012c1.145,0.581,1.869,0.927,1.869,0.927
							s-0.807-0.079-2.065-0.402c-0.629-0.161-1.371-0.375-2.182-0.67c-0.811-0.307-1.684-0.636-2.587-1.261
							c-0.114-0.085-0.232-0.195-0.345-0.293c-0.122-0.163-0.268-0.294-0.314-0.549c-0.105-0.477,0.027-0.736,0.103-1.01
							c0.197-0.505,0.459-0.896,0.717-1.264c0.53-0.716,1.089-1.274,1.596-1.702c0.506-0.427,0.968-0.713,1.307-0.866
							c0.176-0.069,0.308-0.121,0.408-0.129C451.977,373.945,452.027,373.938,452.027,373.938z"/>
					</g>
				</g>
			</g>
			<g>
				<g>
					<g>
						<path d="M443.609,382.85c0,0,0.057-0.111,0.156-0.307c0.044-0.098,0.123-0.202,0.167-0.339
							c0.029-0.143,0.082-0.292,0.105-0.449c0.005-0.329-0.089-0.65-0.323-1.012c-0.254-0.364-0.603-0.756-0.964-1.243
							c-0.352-0.475-0.714-1.06-0.736-1.745c-0.017-0.68,0.351-1.22,0.687-1.458c0.322-0.291,0.631-0.406,0.838-0.497
							c0.202-0.083,0.318-0.13,0.318-0.13s-0.078,0.099-0.214,0.271c-0.138,0.168-0.353,0.397-0.511,0.714
							c-0.417,0.658-0.219,1.264,0.523,2.182c0.336,0.455,0.68,0.944,0.904,1.48c0.227,0.556,0.211,1.181,0.016,1.601
							c-0.109,0.198-0.245,0.349-0.346,0.481c-0.113,0.123-0.243,0.191-0.332,0.261C443.714,382.78,443.609,382.85,443.609,382.85z"
							/>
					</g>
				</g>
			</g>
			<g>
				<g>
					<g>
						<path d="M434.201,382.85c0,0-0.027-0.072-0.064-0.226c-0.025-0.151-0.027-0.38,0.031-0.653
							c0.122-0.538,0.476-1.205,0.998-1.755c0.523-0.557,1.099-0.921,1.527-1.176c0.43-0.251,0.726-0.398,0.726-0.398
							s-0.078,0.325-0.317,0.782c-0.234,0.457-0.623,1.032-1.116,1.558c-0.498,0.526-0.988,0.92-1.319,1.247
							C434.334,382.544,434.201,382.85,434.201,382.85z"/>
					</g>
				</g>
			</g>
			<g>
				<g>
					<g>
						<path d="M434.697,374.433c-0.018-0.003,0.137-0.245,0.141-0.7c0.011-0.471-0.271-1.139-0.461-0.985
							c-0.057,0.177-0.072,0.262-0.146,0.399c-0.209,0.306-0.465,0.611-0.764,0.892c-0.598,0.566-1.341,1.054-2.128,1.484
							c-0.901,0.491-1.772,0.875-2.525,1.26c-0.243,0.137-0.228,0.107-0.291,0.133l-0.095,0.038
							c-0.011,0.018,0.021,0.044,0.031,0.07c0.036,0.054,0.067,0.109,0.134,0.187c0.128,0.115,0.251,0.225,0.369,0.331
							c0.226,0.231,0.475,0.371,0.683,0.522c0.204,0.161,0.402,0.255,0.569,0.328c0.334,0.161,0.521,0.251,0.521,0.251
							c0.021-0.039-0.863,0.032-2.093-0.641c-0.15-0.088-0.308-0.18-0.471-0.276c-0.222-0.182-0.452-0.37-0.689-0.565l-0.191-0.16
							l-0.098-0.082c-0.025-0.027-0.098-0.058-0.037-0.081c0.133-0.102,0.267-0.205,0.402-0.31c0.27-0.213,0.643-0.463,0.771-0.558
							c0.749-0.505,1.605-0.958,2.472-1.431c0.757-0.414,1.458-0.816,2.025-1.247c0.285-0.214,0.53-0.438,0.743-0.661
							c0.322-0.446,0.63-0.974,0.821-1.317c0.035,0.038,0.066,0.05,0.102,0.098l0.114,0.219c0.075,0.143,0.144,0.278,0.199,0.404
							c0.125,0.243,0.195,0.507,0.259,0.73c0.044,0.259,0.065,0.417,0.049,0.575c0.001,0.157-0.033,0.299-0.062,0.422
							C434.909,374.256,434.679,374.425,434.697,374.433z"/>
					</g>
				</g>
			</g>
			<g>
				<g>
					<g>
						<path d="M420.585,374.185c0.014,0.006,0.056-0.215,0.299-0.559c0.128-0.154,0.361-0.381,0.731-0.369
							c0.36,0.012,0.669,0.207,0.981,0.373c0.311,0.173,0.637,0.356,0.957,0.404c0.105,0.02,0.362-0.005,0.545-0.003
							c0.204,0.005,0.388-0.063,0.587-0.085c0.373-0.117,0.705-0.3,1.051-0.608c0.322-0.305,0.792-0.718,1.182-1.04
							c1.645-1.42,3.461-2.492,4.942-2.763c0.733-0.142,1.349-0.115,1.745-0.006c0.201,0.03,0.346,0.113,0.446,0.142
							c0.098,0.038,0.149,0.057,0.149,0.057s-0.225-0.033-0.613-0.024c-0.389-0.002-0.942,0.113-1.568,0.369
							c-1.27,0.508-2.758,1.687-4.382,3.086c-0.418,0.346-0.826,0.683-1.222,1.01c-0.436,0.352-1.001,0.617-1.545,0.706
							c-0.565,0.055-0.992,0.025-1.515-0.1c-0.491-0.169-0.807-0.459-1.078-0.683c-0.268-0.226-0.498-0.43-0.708-0.482
							c-0.207-0.064-0.408,0.033-0.562,0.14C420.714,373.993,420.594,374.196,420.585,374.185z"/>
					</g>
				</g>
			</g>
			<g>
				<g>
					<g>
						<path d="M438.163,361.806c0,0-0.115,0.062-0.318,0.171c-0.211,0.09-0.518,0.299-0.932,0.393
							c-0.825,0.259-2.016,0.345-3.251,0.269c-1.233-0.091-2.286-0.177-3.092-0.181c-0.799,0.055-1.32,0.091-1.32,0.091
							s0.112-0.068,0.31-0.187c0.205-0.107,0.502-0.309,0.904-0.454c0.803-0.287,2.01-0.483,3.263-0.388
							c1.249,0.077,2.317,0.266,3.114,0.295c0.404,0.048,0.717-0.018,0.954-0.005C438.029,361.807,438.163,361.806,438.163,361.806z
							"/>
					</g>
				</g>
			</g>
			<g>
				<g>
					<g>
						<path d="M418.852,364.282c0,0,0.245,0.021,0.685,0.059c0.44,0.055,1.078,0.215,1.82,0.484c0.73,0.274,1.597,0.6,2.555,0.96
							c0.235,0.077,0.476,0.155,0.721,0.235c0.241,0.05,0.488,0.101,0.738,0.152c0.249,0.052,0.482,0.008,0.728,0.028
							c0.242,0.009,0.53-0.083,0.799-0.116c2.206-0.475,4.178-1.366,5.514-2.093c0.35-0.169,0.624-0.375,0.884-0.54
							c0.263-0.162,0.48-0.313,0.635-0.463c0.334-0.282,0.521-0.44,0.521-0.44s-0.141,0.201-0.395,0.562
							c-0.121,0.192-0.304,0.394-0.532,0.613c-0.226,0.222-0.474,0.496-0.796,0.73c-1.245,0.997-3.152,2.195-5.615,2.731
							c-0.32,0.042-0.607,0.132-0.945,0.122c-0.331-0.021-0.682,0-0.978-0.078c-0.295-0.082-0.585-0.162-0.868-0.241
							c-0.26-0.111-0.515-0.22-0.763-0.327c-0.966-0.455-1.757-0.948-2.432-1.326c-0.672-0.39-1.23-0.67-1.633-0.825
							C419.081,364.364,418.852,364.282,418.852,364.282z"/>
					</g>
				</g>
			</g>
			<g>
				<g>
					<g>
						<path d="M340.37,366.262c0,0,0.386-0.384,1.095-0.929c0.728-0.496,1.846-1.125,3.217-1.358
							c1.365-0.224,2.584-0.086,3.45,0.032c0.866,0.135,1.398,0.275,1.398,0.275s-0.534,0.141-1.393,0.286
							c-0.855,0.161-2.028,0.309-3.265,0.513c-1.235,0.209-2.328,0.523-3.158,0.755C340.91,366.115,340.37,366.262,340.37,366.262z"
							/>
					</g>
				</g>
			</g>
			<g>
				<g>
					<g>
						<path d="M351.017,369.728c0,0-0.14,0.062-0.389,0.17c-0.241,0.121-0.555,0.331-0.901,0.645
							c-0.353,0.308-0.724,0.736-1.289,1.16c-0.537,0.433-1.463,0.765-2.335,0.58c-0.221-0.019-0.415-0.122-0.618-0.185
							c-0.2-0.074-0.396-0.134-0.571-0.28c-0.378-0.23-0.634-0.563-0.834-0.873c-0.344-0.644-0.511-1.118-0.741-1.532
							c-0.131-0.188-0.251-0.359-0.357-0.511c-0.116-0.146-0.242-0.249-0.333-0.349c-0.19-0.198-0.298-0.31-0.298-0.31
							s0.143,0.06,0.397,0.165c0.126,0.061,0.296,0.119,0.468,0.226c0.165,0.126,0.353,0.268,0.56,0.425
							c0.367,0.355,0.741,0.905,1.082,1.345c0.341,0.435,0.83,0.627,1.439,0.772c1.163,0.285,2.178-0.667,3.122-1.103
							c0.463-0.224,0.88-0.323,1.162-0.345C350.866,369.714,351.017,369.728,351.017,369.728z"/>
					</g>
				</g>
			</g>
			<g>
				<g>
					<g>
						<path d="M342.846,375.423c0,0,0.028,0.176,0.078,0.488c0.04,0.314,0.097,0.765,0.167,1.316
							c0.033,0.273,0.092,0.564,0.158,0.867c0.051,0.2,0.058,0.152,0.082,0.202c0.025,0.027,0.045,0.042,0.062,0.046
							c0.021,0,0.035,0.005,0.044-0.023l0.015-0.092c0.031-0.077-0.003-0.094,0.4-0.596c0.338-0.366,0.797-0.735,1.353-0.803
							c0.532-0.075,1.004,0.035,1.378,0.176c0.757,0.287,1.304,0.641,1.8,0.892c0.488,0.257,0.894,0.448,1.185,0.565
							c0.292,0.115,0.457,0.18,0.457,0.18s-0.178-0.003-0.496-0.009c-0.32-0.016-0.785-0.078-1.344-0.211
							c-1.086-0.189-2.728-1.16-3.492-0.048l-0.165,0.209c-0.031,0.044-0.049,0.048-0.091,0.124l-0.133,0.251
							c-0.176,0.314-0.354,0.7-0.52,0.921c-0.163,0.24-0.323,0.476-0.48,0.707c-0.04,0.117-0.073-0.046-0.108-0.106l-0.103-0.232
							c-0.066-0.152-0.132-0.302-0.197-0.45c-0.1-0.283-0.197-0.56-0.291-0.829c-0.054-0.276-0.118-0.649-0.118-0.775
							c-0.005-0.35,0.005-0.671,0.042-0.957c0.062-0.574,0.158-1.02,0.219-1.331C342.811,375.597,342.846,375.423,342.846,375.423z"
							/>
					</g>
				</g>
			</g>
			<g>
				<g>
					<g>
						<path d="M345.57,383.84c0,0-0.335-0.342-0.803-0.893c-0.51-0.531-1.148-1.135-2.059-1.728
							c-0.771-0.619-1.74-1.048-2.284-1.691c-0.551-0.623-0.527-1.158-0.549-1.135c0,0,0.082,0.085,0.227,0.233
							c0.062,0.078,0.155,0.155,0.275,0.228c0.108,0.083,0.235,0.165,0.396,0.234c0.294,0.159,0.691,0.281,1.138,0.453
							c0.441,0.152,1.001,0.415,1.464,0.775c0.976,0.628,1.606,1.641,1.872,2.339C345.49,383.379,345.57,383.84,345.57,383.84z"/>
					</g>
				</g>
			</g>
			<g>
				<g>
					<g>
						<path d="M323.04,384.088c0,0,0.541,0.058,1.366,0.24c0.41,0.078,0.894,0.197,1.356,0.174c0.464,0.001,0.907-0.147,1.38-0.458
							c0.482-0.262,0.811-0.631,1.17-1.052c0.347-0.418,0.663-0.799,0.932-1.124c0.548-0.66,0.974-1,0.974-1
							s-0.194,0.508-0.493,1.289c-0.155,0.394-0.35,0.866-0.636,1.375c-0.143,0.255-0.317,0.518-0.536,0.779
							c-0.225,0.261-0.518,0.525-0.832,0.692c-0.293,0.208-0.658,0.323-1,0.427c-0.362,0.052-0.723,0.09-1.041,0.014
							c-0.648-0.108-1.105-0.385-1.479-0.595C323.47,384.403,323.04,384.088,323.04,384.088z"/>
					</g>
				</g>
			</g>
			<g>
				<g>
					<g>
						<path d="M334.676,381.612c0,0,0.014,0.371-0.108,0.937c-0.102,0.554-0.407,1.326-0.458,1.911
							c-0.021,0.283,0.029,0.501,0.163,0.758c0.131,0.25,0.336,0.49,0.517,0.683c0.372,0.393,0.628,0.663,0.628,0.663
							s-0.093-0.011-0.252-0.03c-0.162-0.025-0.4-0.055-0.68-0.162c-0.282-0.096-0.624-0.243-0.95-0.56
							c-0.327-0.298-0.603-0.87-0.545-1.431c0.145-1.099,0.741-1.635,1.073-2.078C334.427,381.894,334.676,381.612,334.676,381.612z
							"/>
					</g>
				</g>
			</g>
			<g>
				<g>
					<g>
						<path d="M324.03,377.898c0,0,0.037,0.136,0.101,0.375c0.029,0.125,0.065,0.278,0.105,0.454
							c0.008,0.186,0.016,0.396,0.026,0.627c0.01,0.237-0.063,0.492-0.109,0.776c-0.091,0.265-0.186,0.573-0.361,0.844
							c-0.318,0.578-0.843,1.064-1.383,1.477c-0.546,0.414-1.06,0.735-1.477,1.06c-0.4,0.33-0.71,0.668-0.909,1.018
							c-0.385,0.707-0.417,1.304-0.449,1.292c0,0-0.029-0.138-0.08-0.381c-0.063-0.249-0.08-0.626,0.001-1.102
							c0.092-0.476,0.363-1.019,0.777-1.505c0.419-0.472,0.943-0.882,1.455-1.272c1.05-0.747,1.726-1.498,1.983-2.307
							c0.063-0.199,0.121-0.38,0.171-0.54c0.029-0.168,0.054-0.313,0.074-0.433C324.003,378.037,324.03,377.898,324.03,377.898z"/>
					</g>
				</g>
			</g>
			<g>
				<g>
					<g>
						<path d="M313.384,380.374c0,0,0.147-0.095,0.407-0.265c0.271-0.139,0.597-0.437,0.936-0.817
							c0.323-0.413,0.62-0.93,0.955-1.587c0.356-0.648,0.785-1.398,1.619-2.019c1.002-0.522,1.832-0.452,2.606-0.434
							c0.766,0.045,1.432,0.2,1.977,0.373c0.544,0.168,0.966,0.363,1.238,0.527c0.264,0.167,0.413,0.261,0.413,0.261
							s-0.171-0.035-0.475-0.097c-0.298-0.062-0.74-0.116-1.279-0.14c-0.537-0.029-1.18-0.039-1.871,0.022
							c-0.661,0.057-1.504,0.154-2.005,0.439c-1.08,0.793-1.793,2.381-2.796,3.064c-0.496,0.333-0.929,0.521-1.25,0.568
							C313.556,380.336,313.384,380.374,313.384,380.374z"/>
					</g>
				</g>
			</g>
			<path d="M442.619,356.359c-8.348,0.194-9.217,9.248-4.449,14.353c4.301,4.607,13.57,5.192,16.89-1.418
				c4.434-8.828-7.853-9.972-12.441-12.44"/>
			<path d="M335.419,363.787c7.656-0.182,9.235,11.02,2.172,13.561c-6.774,2.437-16.082-3.15-10.405-10.406
				c2.33-2.978,5.822-1.067,8.727-2.909"/>
			<g>
				<g>
					<g>
						<path d="M478.27,365.519c0,0-0.692,1.017-1.943,2.856c-1.266,1.827-2.992,4.54-5.581,7.653
							c-1.274,1.572-2.871,3.167-4.735,4.714c-1.837,1.582-4.117,2.979-6.642,4.095c-5.066,2.249-11.3,3.153-17.595,2.365
							c-3.149-0.385-6.164-1.15-8.955-2.186c-1.379-0.484-2.82-1.131-4.071-1.86c-1.269-0.728-2.44-1.534-3.525-2.386
							c-2.173-1.701-4.002-3.604-5.451-5.604c-1.427-2.009-2.5-4.139-2.882-6.293c-0.426-2.134-0.028-4.246,0.857-5.704
							c0.861-1.489,2.002-2.399,2.939-3.028c0.471-0.323,0.909-0.566,1.301-0.754c0.38-0.208,0.714-0.355,0.99-0.46
							c0.543-0.221,0.828-0.337,0.828-0.337s-0.259,0.167-0.751,0.483c-0.249,0.15-0.548,0.351-0.88,0.616
							c-0.345,0.246-0.725,0.549-1.116,0.925c-0.786,0.733-1.682,1.738-2.217,3.09c-0.558,1.335-0.64,3.01-0.081,4.721
							c1.101,3.447,4.296,6.94,8.383,9.73c1.027,0.698,2.118,1.353,3.263,1.93c1.158,0.588,2.303,1.044,3.633,1.459
							c2.589,0.853,5.346,1.492,8.202,1.841c5.713,0.71,11.265,0.129,15.92-1.559c2.328-0.847,4.447-1.897,6.281-3.192
							c1.855-1.261,3.508-2.571,4.908-3.927c2.839-2.672,4.966-5.107,6.51-6.707C477.387,366.379,478.269,365.519,478.27,365.519z"
							/>
					</g>
				</g>
			</g>
			<g>
				<g>
					<g>
						<path d="M498.076,363.291c0,0-0.283,0.148-0.821,0.43c-0.272,0.141-0.609,0.314-1.007,0.52
							c-0.409,0.181-0.893,0.359-1.438,0.576c-2.176,0.832-5.543,1.604-9.702,1.883c-4.133,0.288-9.065,0.573-14.643,0.138
							c-2.779-0.184-5.729-0.745-8.678-1.484c-2.861-0.868-5.827-1.796-8.842-2.77c-2.951-0.934-5.823-1.876-8.593-2.811
							c-2.72-0.826-5.407-1.283-8.005-1.495c-2.595-0.206-5.08-0.135-7.382,0.155c-2.295,0.328-4.385,0.897-6.242,1.586
							c-3.683,1.469-6.268,3.564-7.81,5.221c-0.814,0.803-1.324,1.532-1.69,2.015c-0.369,0.484-0.562,0.738-0.562,0.738
							s0.146-0.284,0.422-0.825c0.279-0.543,0.668-1.364,1.363-2.307c1.299-1.926,3.679-4.534,7.471-6.588
							c1.904-0.975,4.109-1.839,6.571-2.426c2.465-0.55,5.164-0.849,8.005-0.812c2.831,0.039,5.838,0.394,8.815,1.182
							c2.875,0.854,5.848,1.764,8.883,2.726c2.962,0.955,5.829,1.915,8.603,2.868c2.765,0.794,5.41,1.449,8.05,1.802
							c5.239,0.765,10.137,0.972,14.225,1.162c4.075,0.201,7.341-0.069,9.576-0.538c0.555-0.126,1.056-0.223,1.483-0.333
							c0.42-0.134,0.776-0.247,1.063-0.338C497.771,363.387,498.076,363.291,498.076,363.291z"/>
					</g>
				</g>
			</g>
			<g>
				<g>
					<g>
						<path d="M296.302,369.977c0,0,0.213,0.099,0.618,0.288c0.412,0.171,0.966,0.513,1.769,0.754
							c1.542,0.595,3.884,1.188,6.776,1.154c0.725-0.039,1.473-0.007,2.256-0.121c0.389-0.041,0.786-0.083,1.19-0.126
							c0.402-0.071,0.812-0.144,1.228-0.218c0.835-0.112,1.668-0.422,2.538-0.623c0.432-0.122,0.873-0.209,1.312-0.357
							c0.438-0.161,0.881-0.323,1.33-0.488c3.599-1.273,7.419-3.226,11.66-5.108c4.232-1.86,8.597-3.437,12.822-3.796
							c4.162-0.405,7.977,0.09,10.961,1.184c1.503,0.507,2.753,1.269,3.784,1.967c1.002,0.764,1.763,1.527,2.292,2.216
							c0.25,0.352,0.473,0.664,0.665,0.935c0.152,0.294,0.282,0.542,0.386,0.742c0.201,0.398,0.306,0.607,0.306,0.607
							s-0.153-0.178-0.443-0.516c-0.143-0.167-0.319-0.373-0.528-0.616c-0.237-0.213-0.51-0.46-0.818-0.736
							c-0.627-0.531-1.466-1.079-2.485-1.589c-1.055-0.449-2.257-0.924-3.678-1.159c-2.803-0.544-6.278-0.527-9.991,0.179
							c-3.694,0.65-7.576,2.28-11.722,4.102c-4.141,1.834-8.239,3.663-12.261,4.691c-0.5,0.13-0.994,0.258-1.482,0.385
							c-0.492,0.112-1,0.164-1.487,0.245c-0.985,0.121-1.918,0.337-2.851,0.347c-0.462,0.02-0.917,0.039-1.363,0.058
							c-0.448-0.015-0.887-0.03-1.318-0.044c-0.858-0.002-1.681-0.157-2.458-0.243c-3.123-0.469-5.457-1.592-6.886-2.532
							c-0.75-0.416-1.234-0.893-1.593-1.155C296.484,370.123,296.302,369.977,296.302,369.977z"/>
					</g>
				</g>
			</g>
			<g>
				<g>
					<g>
						<path d="M351.264,363.292c0,0,0.132,0.236,0.383,0.685c0.241,0.456,0.653,1.106,1.016,2.027
							c0.787,1.788,1.774,4.637,1.47,8.354c-0.016,0.935-0.292,1.868-0.48,2.872c-0.144,0.484-0.321,0.969-0.49,1.47
							c-0.087,0.25-0.176,0.503-0.266,0.757c-0.118,0.246-0.236,0.494-0.355,0.744c-0.949,2.014-2.387,3.94-4.163,5.646
							c-3.586,3.37-8.445,6.007-14.022,7.136c-2.793,0.544-5.634,0.664-8.405,0.134c-2.667-0.57-5.072-1.543-7.205-2.767
							c-2.129-1.224-3.946-2.696-5.455-4.229c-1.494-1.553-2.668-3.167-3.626-4.689c-1.861-3.093-2.784-5.839-3.298-7.736
							c-0.27-0.947-0.412-1.697-0.508-2.205c-0.097-0.505-0.148-0.771-0.148-0.771s0.105,0.249,0.307,0.724
							c0.196,0.475,0.48,1.174,0.913,2.043c0.837,1.741,2.181,4.208,4.304,6.833c1.087,1.29,2.348,2.626,3.844,3.872
							c1.51,1.227,3.241,2.366,5.182,3.288c1.932,0.919,4.107,1.635,6.355,2.017c2.169,0.32,4.59,0.189,7-0.288
							c4.838-0.973,9.273-3.11,12.61-5.79c1.655-1.359,3.022-2.871,4.001-4.463c0.125-0.199,0.25-0.395,0.374-0.59
							c0.102-0.21,0.202-0.419,0.301-0.626c0.195-0.415,0.406-0.82,0.586-1.227c0.259-0.839,0.627-1.631,0.745-2.441
							c0.729-3.208,0.302-6.021-0.139-7.877c-0.183-0.952-0.454-1.656-0.597-2.15C351.343,363.55,351.264,363.292,351.264,363.292z"
							/>
					</g>
				</g>
			</g>
			<path d="M306.948,368.49c1.331-3.505,2.129-5.963,4.89-8.974c2.101-2.29,4.531-5.127,5.266-7.644
				c-0.814,3.161-1.708,6.793-3.687,9.587c3.934-2.536,5.428-7.448,8.14-11.042c2.608-3.46,6.159-6.968,9.864-9.233
				c0.093-0.091,0.091-0.093-0.007-0.007c-1.54,1.293-2.125,2.882-2.999,4.499c-0.087,0.096-0.091,0.091-0.014-0.014
				c3.94-2.543,5.758-6.647,8.951-9.58c0.033,0.75,0.385,1.346,0.334,2.167c3.719,0.232,5.805-3.115,7.835-5.631
				c0.084,1.59-1.06,3.705-1.441,4.714c0.894-3.3,0.974-7.45,2.747-10.341c-0.546,1.335-1.788,2.632-2.754,3.781
				c0.086-1.552,0.976-2.916,1.9-4.14c-2.365,0.478-4.464,0.76-7.087,0.76c-1.205,0-2.754,0.251-3.906-0.055
				c-1.111-0.295-1.85-1.49-2.987-0.873c1.232,1.518,3.288,1.985,5.067,2.407c-1.864,0.766-4.484,0.098-6.405,0.689
				c-1.833,0.565-3.16,1.512-4.581,2.845c-2.444,2.289-5.291,5.347-8.269,6.759c2.266-0.79,4.762-2.983,6.251-4.741
				c-2.091,3.44-4.359,5.632-7.106,8.59c2.575-2.292,6.236-4.186,7.836-7.364c0.05,5.018-3.625,8.065-7.495,10.998
				c-3.353,2.542-5.999,5.491-8.771,8.732c2.74-0.548,4.708-2.807,6.368-4.87c-1.077,3.048-2.55,5.526-4.288,8.264
				c-1.887,2.972-1.885,6.743-3.404,9.47"/>
			<path d="M403.254,326.402c2.77-0.47,6.784,2.767,8.431,4.865c0.052-2.839-1.185-4.696-2.204-7.056
				c2.188,0.346,3.508,3.039,3.932,5.087c-0.035-3.1-0.879-4.756-2.389-7.37c3.319,0.297,10.168,4.387,10.799,7.866
				c0.002-1.486,0.277-3.264-0.32-4.592c-0.09-0.093-0.092-0.09-0.006,0.007c4.652,3.394,9.664,5.425,13.652,10.032
				c-0.1-0.829,0.031-1.422-0.353-2.177c2.494,1.436,4.039,3.966,6.842,5.215c2.912,1.299,5.914,2.427,8.366,4.432
				c-0.319-1.37-1.664-2.579-2.58-3.707c4.137,3.122,7.884,4.607,11.052,9.112c-0.621-3.883-8.25-4.197-11.143-5.381
				c-3.675-1.502-7.635-3.298-11.103-5.52c-0.1-0.085-0.101-0.083-0.009,0.007c2.227,1.14,3.588,4.164,5.816,5.532
				c-1.902-0.039-4.187-1.569-5.909-2.18c-2.113-0.75-4.116-1.055-6.164-1.799c0.615,0.112,2.09,1.257,2.728,2.184
				c-2.551,0.386-6.357-0.969-8.943-1.381c-2.832-0.452-5.353-1.987-8.071-2.747c-0.007,1.452,1.376,2.859,2.407,3.88
				c-1.318,0.019-1.803-0.955-2.934-1.448c-1.099-0.48-2.524-0.299-3.672-0.786c-2.115-0.9-3.555-3.031-5.66-3.919
				c2.051-0.027,3.838,1.175,5.32,2.45c-1.188-1.833-2.88-4.426-4.453-5.408c1.797-0.165,4.024,0.926,4.875,2.512
				C409.85,331.094,406.466,327.629,403.254,326.402"/>
		</g>
		<g opacity="0.3">
			<g>
				<g>
					<path fill="#FFFFFF" d="M337.667,373c0,0-0.606-0.553-1.195-1.174c-0.554-0.623-1.22-1.3-1.127-1.899
						c0.034-0.661,0.805-1.246,1.526-1.773c0.732-0.498,1.462-0.821,1.462-0.821s0.726,0.318,1.45,0.858
						c0.736,0.512,1.42,1.357,1.362,2.276c-0.126,0.97-0.967,1.717-1.853,2.083C338.438,372.934,337.667,373,337.667,373z"/>
				</g>
			</g>
		</g>
		<g opacity="0.3">
			<g>
				<g>
					<path fill="#FFFFFF" d="M448.001,367.667c0,0-0.687-0.424-1.362-0.972c-0.676-0.554-1.341-1.205-1.269-1.843
						c0.032-0.676,0.754-1.298,1.495-1.757c0.736-0.46,1.47-0.762,1.47-0.762s0.723,0.296,1.442,0.805
						c0.715,0.509,1.448,1.226,1.41,2.024c-0.082,0.831-0.887,1.51-1.662,1.918C448.749,367.496,448.001,367.667,448.001,367.667z"
						/>
				</g>
			</g>
		</g>
	</g>
</g>
</svg>
