<?xml version="1.0" encoding="utf-8"?>
<!-- Generator: Adobe Illustrator 25.0.1, SVG Export Plug-In . SVG Version: 6.00 Build 0)  -->
<svg version="1.1" id="Capa_1" xmlns="http://www.w3.org/2000/svg" xmlns:xlink="http://www.w3.org/1999/xlink" x="0px" y="0px"
	 viewBox="0 0 800 800" enable-background="new 0 0 800 800" xml:space="preserve">
<g id="ojos">
	<g id="_x33__2_">
		<path opacity="0.3" enable-background="new    " d="M433,345c-6.413-2.403-27.391-7.014-28.797-12.9
			c8.434,8.991,4.336,30.27,4.797,42.567c0.485,12.958,6.691,14.927,18,21.333c14.462,8.193,55.085,20.933,70.92,11.223
			c-18.006,2.158-17.389-29.288-25.167-39.975C460.618,350.576,442.585,349.515,427,342"/>
		<path opacity="0.3" enable-background="new    " d="M372.997,325.299c-1.068,7.159-6.29,13.209-12.552,18.31
			c1.249-2.021,2.505-3.898,3.408-5.454c-7.785,4.117-14.067,11.62-22.853,15.845l-1-1c-10.999,11.266-33.896,13.097-47.646,20.052
			c10.748,0.244,22.225-2.971,31.495-6.9c-3.09,11.364-11.329,24.093-19.498,32.9c15.753,1.792,36.911,10.241,52.895,3.194
			c6.071-2.677,11.04-8.408,11.742-15.069c0.769-1.839,1.444-3.883,2.009-6.181C375.061,364.478,373.016,342.56,372.997,325.299z"/>
		<path fill="#EDEDE2" d="M462.989,390.016c0.466,0.668,1.515,1.702,1.63,2.539c0.259,1.902-0.986,1.518-2.465,1.63
			c-2.658,0.202-5.164,0.566-7.838,0.667c-5.288,0.199-10.621,1.123-15.973,0.63c-4.674-0.431-7.921-2.505-11.877-4.965
			c-4.664-2.9-9.747-4.667-12.998-9.418c-2.186-3.195-3.099-8.497-1.493-12.052c3.236-7.166,14.593-8.376,21.292-6.511
			c4.166,1.161,8.215,3.142,11.83,5.676c3.607,2.527,7.126,5.292,9.682,9c2.58,3.745,3.76,8.185,6.501,11.836
			c0.628,0.838,1.391,1.752,2.043,2.47"/>
		<path fill="#EDEDE2" d="M325.247,386.68c0.599-4.287,2.37-8.724,4.882-12.461c2.513-3.736,5.027-8.594,9.127-10.553
			c7.439-3.556,18.928-5.587,22.43-0.834c5.503,7.754,13.408,17.178,5.754,23.348c-7.201,5.805-20.192,8.661-29.354,7.175
			c-2.164-0.351-4.393-0.908-6.375-1.797c-1.868-0.838-3.213-2.225-4.962-3.377"/>
		<path d="M433.029,344.766c-6.686-4.191-13.944-4.457-20.81-8.021c0.176,0.618,0.549,1.206,0.993,1.546
			c-1.648,0.186-4.136-1.604-5.404-2.582c0.434,1.824,3.52,3.72,5.193,4.443c-2.099-0.035-3.689-0.078-5.49-1.011
			c1.747,1.068,3.366,2.228,5.348,2.855c2.384,0.753,4.95,0.84,7.426,1.32c4.426,0.859,8.622,2.383,12.95,3.719
			c4.047,1.25,8.031,3.292,11.982,5.04c0.061,0.06,0.06,0.061-0.005,0.005c-1.748-1.529-2.991-2.796-5.096-3.804
			c-2.109-1.011-4.878-1.502-6.757-2.687"/>
		<path d="M347.239,349.222c0.985-0.975,1.693-2.217,2.766-3.177c1.133-1.015,2.526-1.662,3.796-2.476
			c2.303-1.477,4.369-3.179,6.452-5.014c-0.404,0.461-0.866,0.927-1.274,1.358c1.558-0.774,3.815-2.138,4.773-3.671
			c-0.25,0.914-1.154,1.835-1.761,2.594c1.603-0.806,4.023-1.777,5.064-3.25c-1.308,1.73-4.019,3.778-4.771,5.689
			c2.203-0.435,4.738-3.307,5.887-5.07c-5.028,6.707-12.385,10.572-19.733,14.214c-0.92,0.455-1.846,0.805-2.693,1.381
			c0.196-0.803,0.654-1.426,1.167-2.083"/>
		<g>
			<g>
				<g>
					<path d="M477.355,372.163c0,0-0.224-0.14-0.649-0.407c-0.214-0.137-0.479-0.306-0.793-0.505
						c-0.325-0.19-0.669-0.447-1.033-0.763c-1.574-1.154-3.486-3.26-5.759-5.764c-0.574-0.606-1.176-1.241-1.803-1.902
						c-0.325-0.305-0.657-0.617-0.995-0.934c-0.331-0.324-0.674-0.643-1.051-0.915c-0.364-0.288-0.735-0.581-1.112-0.879
						c-0.385-0.276-0.812-0.479-1.218-0.73l-0.62-0.364l-0.698-0.309c-0.472-0.204-0.929-0.431-1.422-0.629
						c-1.999-0.768-4.185-1.46-6.518-2.172c-2.338-0.732-4.798-1.482-7.341-2.6c-2.452-1.144-4.638-2.295-6.824-3.393
						c-2.17-1.085-4.263-2.133-6.257-3.13c-3.997-1.955-7.638-3.612-10.774-4.735c-3.126-1.122-5.788-1.706-7.589-1.443
						c-0.896,0.131-1.514,0.498-1.892,0.811c-0.331,0.352-0.499,0.569-0.498,0.57c-0.001-0.001,0.101-0.239,0.363-0.689
						c0.308-0.409,0.898-0.973,1.862-1.323c1.928-0.699,4.884-0.598,8.299,0.063c3.431,0.664,7.385,1.885,11.633,3.523
						c2.124,0.819,4.325,1.742,6.572,2.756c2.237,0.997,4.571,2.145,6.824,3.195c4.466,1.929,9.359,3.257,13.588,5.364
						c0.53,0.268,1.046,0.58,1.555,0.864c0.254,0.146,0.506,0.29,0.756,0.434c0.242,0.176,0.483,0.351,0.723,0.524
						c0.467,0.357,0.958,0.679,1.372,1.054c0.393,0.393,0.78,0.778,1.16,1.158c0.392,0.37,0.723,0.766,1.036,1.162
						c0.317,0.391,0.63,0.775,0.935,1.151c0.559,0.773,1.091,1.52,1.573,2.234c1.895,2.866,3.307,5.178,4.571,6.582
						c0.288,0.378,0.564,0.694,0.831,0.939c0.258,0.259,0.476,0.478,0.651,0.655C477.17,371.974,477.355,372.163,477.355,372.163z"
						/>
				</g>
			</g>
		</g>
		<g>
			<g>
				<g>
					<path d="M365.344,338.502c0,0-0.701,0.507-1.967,1.422c-0.639,0.44-1.407,0.995-2.278,1.674
						c-0.876,0.669-1.885,1.396-2.967,2.264c-2.191,1.681-4.761,3.741-7.703,5.947c-2.955,2.195-6.27,4.571-10.055,6.7
						c-3.798,2.102-7.574,3.695-11.007,5.025c-3.434,1.32-6.542,2.402-9.125,3.371c-1.309,0.457-2.456,0.938-3.488,1.325
						c-1.037,0.379-1.909,0.749-2.623,1.054c-1.447,0.59-2.248,0.917-2.248,0.917s0.686-0.528,1.926-1.483
						c0.624-0.479,1.397-1.053,2.332-1.655c0.93-0.61,1.985-1.335,3.196-2.034c4.789-2.949,11.794-6.197,19.003-10.155
						c7.151-4.094,13.653-8.269,18.678-10.772c1.234-0.656,2.402-1.175,3.413-1.64c1.006-0.476,1.897-0.837,2.636-1.109
						C364.532,338.806,365.344,338.502,365.344,338.502z"/>
				</g>
			</g>
		</g>
		<g>
			<g>
				<g>
					<path d="M315.843,395.428c0,0,0.164-0.182,0.475-0.529c0.302-0.354,0.792-0.828,1.339-1.51c1.122-1.338,2.597-3.371,4.05-6.066
						c1.482-2.686,2.837-6.077,4.487-9.912c1.692-3.825,3.701-8.136,7.255-12.03c1.876-1.934,4.037-3.367,6.239-4.408
						c2.199-1.06,4.46-1.722,6.643-2.108c4.378-0.753,8.524-0.215,11.593,1.193c3.112,1.388,4.914,3.577,5.8,5.119
						c0.451,0.784,0.732,1.419,0.883,1.863c0.159,0.438,0.242,0.668,0.242,0.668s-0.138-0.201-0.4-0.585
						c-0.249-0.386-0.667-0.928-1.247-1.559c-1.158-1.254-3.139-2.817-5.99-3.549c-2.824-0.759-6.405-0.722-10.137,0.286
						c-3.696,1.015-7.671,2.945-10.618,5.963c-0.699,0.73-1.393,1.658-2.066,2.514c-0.32,0.449-0.638,0.894-0.954,1.336
						c-0.3,0.458-0.598,0.913-0.893,1.363c-1.158,1.827-2.201,3.681-3.195,5.485c-1.977,3.617-3.889,6.964-5.898,9.501
						c-1.984,2.555-3.927,4.317-5.343,5.396c-0.696,0.554-1.297,0.908-1.674,1.177C316.046,395.293,315.843,395.428,315.843,395.428
						z"/>
				</g>
			</g>
		</g>
		<g>
			<g>
				<g>
					<path d="M370.789,382.558c0,0-0.167,0.235-0.485,0.682c-0.336,0.432-0.757,1.15-1.488,1.907
						c-1.353,1.617-3.654,3.734-6.981,5.657c-3.331,1.883-7.673,3.57-12.718,4.375c-2.517,0.439-5.207,0.588-7.999,0.519
						c-1.399-0.025-2.813-0.17-4.261-0.353c-0.729-0.124-1.464-0.25-2.204-0.376c-0.751-0.226-1.52-0.404-2.265-0.693
						c-1.487-0.536-2.949-1.311-4.261-2.374c-1.304-1.086-2.362-2.612-2.863-4.254c-0.515-1.645-0.502-3.304-0.261-4.777
						c0.254-1.48,0.751-2.791,1.287-4.018c1.136-2.412,2.547-4.419,3.973-6.172c1.433-1.749,2.898-3.237,4.293-4.52
						c2.795-2.562,5.311-4.306,7.111-5.39c0.905-0.536,1.628-0.913,2.125-1.151c0.501-0.227,0.764-0.347,0.764-0.347
						s-0.23,0.172-0.67,0.5c-0.434,0.333-1.059,0.841-1.833,1.523c-1.538,1.376-3.664,3.479-5.984,6.298
						c-2.28,2.808-4.908,6.38-6.532,10.607c-0.361,1.053-0.678,2.138-0.79,3.206c-0.102,1.065-0.025,2.092,0.302,2.985
						c0.328,0.892,0.887,1.675,1.714,2.343c0.854,0.645,1.882,1.208,3.061,1.629c0.574,0.226,1.183,0.362,1.764,0.557
						c0.637,0.118,1.269,0.236,1.897,0.353c1.283,0.188,2.569,0.367,3.839,0.442c2.537,0.17,5.018,0.196,7.365-0.026
						c4.705-0.37,8.88-1.445,12.234-2.759c3.342-1.349,5.858-2.955,7.444-4.255c0.847-0.597,1.382-1.197,1.802-1.552
						C370.575,382.753,370.789,382.558,370.789,382.558z"/>
				</g>
			</g>
		</g>
		<g>
			<g>
				<g>
					<path d="M413.499,381.569c0,0,0.322,0.281,0.938,0.816c0.629,0.518,1.479,1.365,2.698,2.305c0.606,0.47,1.28,0.993,2.018,1.565
						c0.725,0.584,1.608,1.09,2.496,1.704c0.458,0.288,0.898,0.635,1.41,0.901c0.506,0.274,1.026,0.558,1.562,0.849
						c0.541,0.279,1.069,0.618,1.657,0.872c0.589,0.249,1.193,0.504,1.811,0.766c1.208,0.588,2.578,0.918,3.959,1.353
						c0.684,0.247,1.418,0.358,2.159,0.49c0.737,0.136,1.488,0.274,2.252,0.415c0.77,0.051,1.552,0.103,2.346,0.155
						c0.79,0.057,1.58,0.13,2.467,0.083c1.728-0.045,3.518-0.042,5.352-0.036c3.652,0.02,7.455,0.071,11.327-0.107
						c0.97-0.038,1.945-0.085,2.91-0.192c0.434-0.039,0.869-0.08,1.306-0.12c0.063-0.009,0.028-0.012,0.043-0.017
						c0.006-0.008-0.001-0.014-0.012-0.019c-0.004-0.001-0.006-0.002-0.013-0.009c-0.014-0.018,0.02,0.029-0.031-0.043
						c-0.156-0.225-0.321-0.448-0.465-0.679c-2.417-3.66-4.253-7.398-6.149-10.798c-1.88-3.411-3.871-6.485-6.247-8.943
						c-4.852-4.893-10.846-7.656-16.007-8.994c-2.598-0.674-5.026-1.006-7.174-1.106c-2.144-0.048-4.014,0.04-5.517,0.305
						c-0.763,0.081-1.415,0.271-1.994,0.39c-0.583,0.112-1.059,0.267-1.443,0.393c-0.776,0.244-1.185,0.372-1.185,0.372
						s0.386-0.185,1.12-0.539c0.367-0.181,0.825-0.403,1.394-0.594c0.564-0.198,1.207-0.478,1.969-0.659
						c1.5-0.464,3.4-0.79,5.637-0.987c2.237-0.146,4.812-0.067,7.619,0.385c5.57,0.907,12.249,3.29,18.036,8.517
						c2.857,2.652,5.199,5.992,7.248,9.469c2.068,3.481,3.931,7.108,6.164,10.482c0.134,0.217,0.283,0.417,0.426,0.623l0.92,1.244
						c0.613,0.833,1.225,1.663,1.835,2.49l0.892,1.216c0.14,0.198,0.316,0.412,0.424,0.597l-0.763,0.109
						c-1.014,0.145-2.023,0.29-3.03,0.434c-0.994,0.13-2.026,0.315-2.971,0.397l-0.348,0.036l-0.196,0.014l-0.393,0.028
						l-0.784,0.055c-1.047,0.091-2.073,0.114-3.09,0.126c-4.067,0.069-7.929-0.151-11.57-0.365
						c-1.814-0.102-3.581-0.211-5.311-0.278c-0.846-0.007-1.748-0.14-2.626-0.263c-0.873-0.123-1.732-0.245-2.578-0.364
						c-0.818-0.216-1.623-0.429-2.413-0.638c-0.788-0.208-1.564-0.397-2.281-0.722c-1.45-0.591-2.867-1.08-4.091-1.82
						c-0.624-0.338-1.233-0.668-1.827-0.991c-0.588-0.328-1.107-0.736-1.638-1.085c-0.522-0.36-1.03-0.71-1.522-1.049
						c-0.496-0.332-0.913-0.739-1.349-1.085c-0.842-0.731-1.675-1.347-2.34-2.028c-0.673-0.668-1.287-1.278-1.841-1.827
						c-1.1-1.097-1.837-2.06-2.386-2.66C413.777,381.893,413.499,381.569,413.499,381.569z"/>
				</g>
			</g>
		</g>
		<path d="M346.534,360.283c4.272-3.471,13.564,0.518,15.838,5.447c3.104,6.73-2.87,12.075-8.523,14.243
			c-16.523,6.336-24.062-16.016-7.811-19.195"/>
		<path d="M441.714,365.233c-11.118-6.499-22.371,14.697-8.304,20.185c5.131,2.002,14.227,3.809,16.692-2.392
			c2.846-7.163-2.269-11.895-5.418-16.803"/>
		<g>
			<g>
				<g>
					<path fill="#FFFFFF" d="M352.334,364.334c0,0-0.317-0.396-0.436-1.014c-0.103-0.578,0.125-1.515,1.091-1.805
						c0.466-0.12,0.954-0.04,1.304,0.194c0.369,0.201,0.55,0.564,0.67,0.846c0.184,0.626,0.037,1.112,0.037,1.112
						s-0.449,0.309-0.767,0.687c-0.153,0.224-0.276,0.409-0.284,0.611c0.008-0.011,0.003-0.117,0.003-0.08
						c0.003,0.026,0.005,0.017,0.012,0.043c0.015,0.072,0.041,0.128,0.069,0.169c0.03,0.05,0.001,0.013-0.02-0.015l-0.084-0.093
						c-0.135-0.146-0.356-0.24-0.599-0.359C352.858,364.449,352.334,364.334,352.334,364.334z"/>
				</g>
			</g>
		</g>
		<g>
			<g>
				<g>
					<path fill="#FFFFFF" d="M441.667,369c0,0,0.288-0.406,0.856-0.592c0.271-0.07,0.644-0.08,0.944,0.072
						c0.325,0.152,0.561,0.407,0.655,0.713c0.244,1.202-1.824,1.434-1.789,1.473c0,0-0.485-0.113-0.974-0.259
						c-0.247-0.056-0.487-0.149-0.677-0.167c-0.094-0.01-0.169-0.037-0.224-0.028l-0.036,0.009l-0.014,0.004l0.07-0.014
						c0.097-0.021,0.194-0.047,0.293-0.08c0.235-0.046,0.422-0.161,0.436-0.165c0.133-0.116-0.097,0.106,0.068-0.068
						C441.563,369.514,441.667,369,441.667,369z"/>
				</g>
			</g>
		</g>
		<g opacity="0.3">
			<g>
				<g>
					<path fill="#FFFFFF" d="M351,366.667c0,0-1.942-0.746-1.942-1.667c0-0.92,1.942-1.667,1.942-1.667s1.941,0.746,1.941,1.667
						C352.942,365.921,351,366.667,351,366.667z"/>
				</g>
			</g>
		</g>
		<g opacity="0.3">
			<g>
				<g>
					<path fill="#FFFFFF" d="M439.668,374c0,0-0.473-0.26-0.934-0.764c-0.485-0.494-0.842-1.269-0.697-2.048
						c0.198-0.753,0.848-1.277,1.475-1.522c0.614-0.266,1.155-0.333,1.155-0.333s0.357,0.438,0.673,0.988
						c0.293,0.561,0.632,1.197,0.484,1.725c-0.086,0.526-0.67,0.933-1.151,1.312C440.168,373.724,439.668,374,439.668,374z"/>
				</g>
			</g>
		</g>
		<path d="M331.75,358.25c-7.987,5.428-17.936,7.421-24.83,14.469c1.062-1.783,2.764-3.094,4.054-4.669
			c-1.938-0.26-3.711,1.33-5.186,2.426c1.34-3.359,6.447-6.12,9.281-8.164c3.271-2.36,7.024-4.865,9.456-8.211
			c-1.445,1.437-3.171,2.844-4.305,4.562c2.237-1.934,4.98-3.613,7.337-5.35c1.914-1.41,3.658-3.562,5.702-4.555
			c2.537-1.233,5.3-1.74,7.798-3.439c3.037-2.065,6.177-4.225,8.656-6.975c-2.27,2.592-4.268,5.582-6.68,8.057
			c2.4-1.523,4.728-3.091,6.968-4.908c1.075-0.871,2.31-2.565,3.487-3.199c1.034-0.557,3.006-0.643,4.206-1.099
			c1.081-0.411,2.251-1.287,3.369-1.632c1.273-0.394,2.637-0.182,3.95-0.562c2.002-0.58,4.332-2.415,5.517-4.15
			c-3.35,2.343-6.665,5.448-9.192,8.68c1.181-0.671,2.584-1.556,3.236-2.742c0.091-0.094,0.094-0.091,0.007,0.007
			c-4.658,3.961-9.855,7.287-14.518,11.267c-4.233,3.614-9.82,6.766-13.463,10.962c0.397-0.521,0.417-0.883,0.668-1.431
			c-2.47,1.722-5.02,2.732-7.673,4.133c1.136-1.59,2.697-2.65,4.068-3.988c-1.03-0.024-2.001,0.318-2.913,0.762"/>
		<path d="M419.75,340.5c-3.736-0.171-5.992-2.131-9.249-3.507c-2.938-1.24-5.629-2.806-7.663-5.511
			c2.314,0.805,4.23,2.644,6.1,4.08c2.306,1.77,4.341,1.79,6.837,2.838c-0.261-0.411-0.254-0.946-0.5-1.349
			c1.997-0.214,5.629,2.513,7.414,3.505c2.475,1.375,5.373,2.59,7.572,4.357c-0.75-3.447-4.899-4.957-7.422-6.688
			c4.061,2.158,8.895,4.188,13.136,5.75c-0.393-0.84-0.945-1.616-1.18-2.443c3.416,1.86,6.916,3.591,10.155,5.773
			c3.25,2.189,6.49,3.603,9.705,5.464c-1.767-0.931-4.057-2.009-5.366-3.481c4.246,2.141,8.581,3.624,12.767,5.657
			c4.578,2.223,6.023,5.658,9.101,9.518c-2.542-1.135-5.186-3.488-7.657-4.962c-3.146-1.877-5.982-2.722-9.499-3.256
			c-6.679-1.013-14.81-3.167-20.661-7.006c2.855-0.049,4.642,0.776,7.066,1.975c-3.252-3.265-9.443-3.972-13.599-5.275
			c-4.666-1.463-8.85-3.438-13.592-3.438c3.745,0,8.913,0.329,11.816,1.755c-2.884-0.693-6.64-1.91-8.78-4.005"/>
	</g>
</g>
</svg>
