<?xml version="1.0" encoding="utf-8"?>
<!-- Generator: Adobe Illustrator 25.0.1, SVG Export Plug-In . SVG Version: 6.00 Build 0)  -->
<svg version="1.1" id="Capa_1" xmlns="http://www.w3.org/2000/svg" xmlns:xlink="http://www.w3.org/1999/xlink" x="0px" y="0px"
	 viewBox="0 0 800 800" enable-background="new 0 0 800 800" xml:space="preserve">
<g id="ojos">
	<g id="_x34__2_">
		<path opacity="0.3" enable-background="new    " d="M404.5,331c1.611,6.122,2.152,14.362,5.5,20
			c3.511,5.914,11.325,7.037,6.624,13.624c-6.815,9.548-14.576,27.316-5,38.253c4.94,5.643,12.283,6.065,18.874,7.626
			c8.331,1.972,8.692,7.707,9.502,15.498c1,9.634,11.248,6.525,9.361-2.361c-0.653-3.075-2.971-7.69-1.859-11.137
			c0.969-3.004,4.975-4.647,7.973-5.527c5.862-1.725,12.096-0.935,17.387-4.613c5.16-3.587,7.399-9.664,7.139-15.861
			c-0.532-12.653-13.978-21.146-24.851-22.998c10.116,0.928,19.321-0.901,28.865,2.484c7.273,2.58,16.726,6.915,22.021,13.328
			c-5.613-12.875-16.675-20.798-29.521-24.828c-6.729-2.111-13.258-3.739-20.515-4.486c-7.778-0.8-14.875-0.739-21.985-3.014
			c-8.157-2.61-20.763-5.739-27.015-12.486"/>
		<path opacity="0.3" enable-background="new    " d="M328.5,336.5c-5.902,0-12.717-0.816-18.125,0.875
			c-4.702,1.471-9.672,4.072-13.764,6.736c-8.82,5.74-14.151,12.337-18.924,21.45c5.232-3.977,9.757-8.02,15.924-9.95
			c4.453-1.395,16.314-1.784,17.887-6.185c-0.098,6.457-7.064,12.508-10.624,17.436c-3.969,5.496-8.307,11.105-7.874,18.137
			c0.405,6.593,5.737,11.603,11.375,14.625c5.995,3.213,15.357,2.009,20.222,6.239c4.494,3.908,5.418,15.546,15.428,11.161
			c4.03-1.765,2.271-5.71,4.476-8.523c2.202-2.811,5.837-3.208,8.998-4.002c6.385-1.603,12.823-2.402,16.389-9.111
			c3.552-6.682,2.256-14.349-0.291-20.998c-2.258-5.896-2.616-12.751-8.098-16.891c-6.171-4.66-12.873-4.938-20.462-5.613
			c5.771-4.039,13.533,3.173,19.974,1.124c6.954-2.212,5.513-10.827,2.962-15.835c-0.31,8.497-9.076,9.422-15.474,6.823
			c-6.761-2.746-11.911-5.499-19-7"/>
		<path opacity="0.3" enable-background="new    " d="M471.5,281.5c0,8.795-2.065,12.146-7.111,18.889
			c-4.451,5.948-7.732,11.278-8.414,18.611c-0.867,9.324,1.399,13.884,10.04,16.486c6.872,2.069,13.964,1.152,17.36-6.11
			c3.653-7.811,1.469-14.676-3.85-20.864c-5.587-6.502-7.815-15.522-7.025-24.012"/>
		<g>
			<g>
				<path fill="#80CED8" d="M483.533,327.68c-3.674,2.648-10.83,3.518-15.31,1.803c-5.63-2.158-6.655-7.412-6.452-13.059
					c0.369-10.303,8.799-18.156,9.754-28.141c0.383-3.981-0.096-7.854-2.484-10.908c9.433,2.119,11.671,13.792,14.127,21.027
					c1.961,5.774,7.674,24.169,0.365,28.527"/>
				<g>
					<g>
						<g>
							<path fill="#FFFFFF" d="M475.278,290.535c0,0,0.001,0.16,0.003,0.465c0.016,0.311-0.048,0.757-0.122,1.338
								c-0.17,1.157-0.561,2.799-1.137,4.782c-1.128,3.974-3.071,9.305-4.895,15.151c-0.9,2.921-1.641,5.72-1.867,8.225
								c-0.085,1.242-0.034,2.4,0.253,3.368c0.263,0.988,0.871,1.676,1.601,2.151c0.191,0.104,0.356,0.257,0.562,0.327
								c0.207,0.076,0.408,0.149,0.603,0.221c0.385,0.185,0.812,0.185,1.188,0.28c0.38,0.095,0.75,0.093,1.09,0.113
								c0.341,0.016,0.655,0.044,0.94,0.047c1.146-0.047,1.781-0.074,1.781-0.074s-0.615,0.188-1.726,0.526
								c-0.284,0.065-0.607,0.112-0.962,0.176c-0.355,0.059-0.741,0.145-1.172,0.132c-0.429-0.014-0.893,0.074-1.392-0.042
								c-0.252-0.042-0.51-0.085-0.775-0.129c-0.269-0.043-0.526-0.184-0.803-0.281c-1.077-0.422-2.226-1.39-2.781-2.696
								c-0.594-1.28-0.818-2.723-0.865-4.184c-0.029-2.92,0.604-5.968,1.538-9.015c1.906-6.096,4.532-11.148,6.323-14.824
								c0.908-1.833,1.63-3.319,2.056-4.375C475.153,291.166,475.278,290.535,475.278,290.535z"/>
						</g>
					</g>
				</g>
				<path fill="#C12929" d="M415.244,389.965c-0.659,4.16,1.776,3.928,3.667,6.089c1.738,1.986,1.797,3.448,4.306,5.074
					c4.048,2.622,8.749,3.902,12.57,6.565c3.686,2.568,5.453,8.617,6.095,13.04c0.306,2.103-1.133,7.559,0.267,9.116
					c2.657,2.958,5.163-1.051,4.987-3.49c-0.292-4.049-3.592-8.43-4.856-12.401c-2.193-6.89,2.186-7.451,7.859-8.317
					c8.777-1.341,20.188-2.592,22.831-12.24c-15.265,11.99-41.198,15.83-56.317,0.784c-1.001-0.993-1.876-1.923-2.534-3.094"/>
				<path fill="#C12929" d="M305.684,385.463c-0.207,0.857-0.006,2.084,0.065,2.936c3.027,1.033,3.478,4.625,6.031,6.351
					c2.347,1.587,6.173,2.64,8.911,3.846c6.326,2.788,14.883,2.022,14.315,11.575c2.004-0.051,2.847-2.145,4.753-3.01
					c-1.745-7.824,9.471-4.81,13.93-5.921c3.359-0.837,10.58-5.878,12.363-8.948c-4.427-0.005-8.457,4.94-12.802,5.846
					c-5.654,1.178-12.356,0.459-18.302,0.458c-10.195-0.001-20.094-4.092-28.244-10.026c-1.086-0.791-2.163-1.744-3.273-2.355"/>
				<path fill="#C12929" d="M422.352,369.316c3.711-7.059,12.346-6.091,19.017-6.748c6.581-0.648,13.642,1.266,18.824,5.935
					c2.667,2.404,4.19,4.887,6.118,7.637c1.828,2.613,4.252,4.865,5.509,7.742c1.227,2.81,2.472,7.783,0.507,10.645
					c-1.753,2.553-5.72,3.85-8.442,4.815c-3.547,1.259-7.316,1.415-11.027,1.982c-3.575,0.546-6.728,1.689-10.243,2.568
					c-6.872,1.721-13.456-1.27-19.191-5.126c-4.693-3.157-9.586-9.451-9.325-15.19c0.295-6.483,6.464-11.59,10.757-16.26"/>
				<path fill="#C12929" d="M333.047,355.308c6.544-0.608,14.341,3.01,20.02,5.746c6.11,2.943,9.779,9.204,10.993,15.522
					c0.692,3.596,0.743,7.502,1.494,11.015c0.957,4.475-0.52,5.3-4.488,6.991c-3.105,1.32-6.652,3.041-10.007,3.251
					c-4.109,0.258-8.252-0.052-12.258-0.251c-13.475-0.667-32.303-0.258-33.27-18.01c-0.393-7.23,3.739-13.277,9.575-17.442
					c4.746-3.389,12.633-7.522,18.442-7.073"/>
				<g>
					<g>
						<g>
							<path fill="#7C1111" d="M453.621,375.82c0,0-0.08,0.152-0.222,0.423c-0.159,0.262-0.321,0.701-0.689,1.12
								c-0.636,0.923-1.77,1.986-3.133,2.997c-1.392,0.972-2.76,1.676-3.783,2.1c-0.5,0.236-0.939,0.351-1.226,0.461
								c-0.291,0.098-0.454,0.153-0.454,0.153s0.153-0.08,0.425-0.223c0.27-0.152,0.68-0.321,1.149-0.609
								c0.96-0.529,2.244-1.326,3.607-2.278c1.331-0.988,2.513-1.929,3.226-2.755c0.408-0.373,0.613-0.767,0.812-1.004
								C453.518,375.959,453.621,375.82,453.621,375.82z"/>
						</g>
					</g>
				</g>
				<g>
					<g>
						<g>
							<path fill="#7C1111" d="M456.623,390.578c0,0-0.205,0.061-0.571,0.171c-0.372,0.1-0.913,0.243-1.612,0.295
								c-0.349,0.022-0.741,0.024-1.161-0.093c-0.211-0.05-0.422-0.162-0.619-0.309c-0.192-0.152-0.339-0.427-0.372-0.687
								c-0.064-0.529,0.092-0.997,0.128-1.458c0.047-0.462-0.066-0.879-0.408-1.196c-0.695-0.71-1.588-1.153-2.376-1.597
								c-0.797-0.431-1.511-0.892-1.997-1.405c-0.987-1.051-0.979-2.01-1.017-1.977c0.031-0.032,0.169,0.904,1.185,1.802
								c0.502,0.443,1.204,0.828,2.018,1.218c0.802,0.402,1.753,0.828,2.532,1.619c0.444,0.392,0.611,1.069,0.525,1.583
								c-0.062,0.518-0.219,0.979-0.185,1.359c0.01,0.362,0.335,0.614,0.686,0.733c0.351,0.126,0.721,0.158,1.054,0.166
								c0.673,0.01,1.225-0.072,1.602-0.127C456.412,390.613,456.623,390.578,456.623,390.578z"/>
						</g>
					</g>
				</g>
				<g>
					<g>
						<g>
							<path fill="#7C1111" d="M441.863,398.334c0,0,0.151-0.302,0.376-0.849c0.166-0.568,0.236-1.46-0.222-2.419
								c-0.427-0.967-1.261-1.931-2.114-3.083c-0.429-0.571-0.849-1.228-1.104-2.005c-0.143-0.387-0.168-0.816-0.169-1.249
								l0.127-0.642c0.048-0.214,0.173-0.398,0.258-0.6c0.49-0.807,1.213-1.209,1.869-1.642c0.664-0.424,1.351-0.74,1.997-1.047
								c1.312-0.575,2.524-1.015,3.567-1.3c1.033-0.313,1.897-0.471,2.49-0.566c0.598-0.069,0.93-0.107,0.93-0.107
								s-0.327,0.065-0.916,0.182c-0.582,0.139-1.425,0.355-2.431,0.723c-1.015,0.34-2.193,0.833-3.466,1.439
								c-0.624,0.322-1.293,0.651-1.924,1.07c-0.305,0.221-0.661,0.401-0.939,0.663l-0.427,0.388l-0.205,0.183l-0.113,0.237
								c-0.395,0.667-0.431,1.444-0.203,2.134c0.215,0.695,0.59,1.33,0.994,1.905c0.797,1.154,1.613,2.189,2.004,3.225
								c0.425,1.036,0.282,1.978,0.068,2.538C442.039,398.053,441.863,398.334,441.863,398.334z"/>
						</g>
					</g>
				</g>
				<g>
					<g>
						<g>
							<path fill="#7C1111" d="M444.365,384.325c0,0-0.058-0.073-0.167-0.211c-0.1-0.145-0.281-0.333-0.517-0.571
								c-0.255-0.224-0.566-0.498-0.93-0.815c-0.358-0.326-0.783-0.735-1.051-1.341c0.002,0.004,0.007,0.014,0.012,0.025
								c-0.262-0.415-0.496-0.995-0.64-1.643c-0.158-0.637-0.272-1.347-0.706-1.866c-1.428-1.494-3.003-2.852-3.407-4.316
								c-0.093-0.363-0.022-0.751,0.179-0.983c0.197-0.236,0.441-0.324,0.623-0.4c0.191-0.061,0.34-0.096,0.443-0.109
								c0.103-0.018,0.156-0.027,0.156-0.027s-0.052,0.017-0.15,0.048c-0.1,0.026-0.243,0.08-0.42,0.159
								c-0.167,0.092-0.385,0.206-0.529,0.422c-0.145,0.213-0.172,0.516-0.067,0.828c0.217,0.628,0.758,1.274,1.389,1.934
								c0.634,0.677,1.396,1.31,2.159,2.136c0.54,0.66,0.632,1.46,0.767,2.079c0.118,0.637,0.298,1.159,0.504,1.559l0.012,0.022
								l0.001,0.003c0.202,0.544,0.564,0.955,0.891,1.303c0.332,0.345,0.629,0.644,0.854,0.9c0.215,0.267,0.373,0.476,0.457,0.635
								C444.317,384.246,444.365,384.325,444.365,384.325z"/>
						</g>
					</g>
				</g>
				<g>
					<g>
						<g>
							<path fill="#7C1111" d="M437.86,383.074c0,0-0.119,0.233-0.332,0.652c-0.107,0.21-0.232,0.474-0.438,0.742
								c-0.203,0.268-0.388,0.615-0.699,0.91c-0.547,0.659-1.38,1.289-2.408,1.788c-1.04,0.49-2.329,0.665-3.622,0.649
								c-0.643,0.003-1.273-0.053-1.816,0.056c-0.547,0.101-1.029,0.422-1.489,0.706c-0.929,0.588-1.6,1.312-2.198,1.904
								c-0.598,0.593-1.064,1.094-1.443,1.381c-0.361,0.3-0.562,0.467-0.562,0.467s0.183-0.187,0.512-0.522
								c0.345-0.317,0.763-0.856,1.315-1.489c0.547-0.628,1.213-1.434,2.145-2.078c0.467-0.312,0.969-0.68,1.623-0.822
								c0.648-0.141,1.282-0.082,1.92-0.088c1.267,0.013,2.45-0.12,3.457-0.541c0.986-0.431,1.819-0.978,2.394-1.578
								c0.323-0.264,0.527-0.586,0.749-0.832c0.226-0.246,0.371-0.493,0.497-0.69C437.718,383.293,437.86,383.074,437.86,383.074z"
								/>
						</g>
					</g>
				</g>
				<g>
					<g>
						<g>
							<path fill="#7C1111" d="M351.309,392.58c0.021-0.023-0.483-0.137-1.026-0.743c-0.281-0.295-0.489-0.739-0.665-1.235
								c-0.16-0.503-0.259-1.065-0.351-1.642c-0.156-1.157-0.416-2.144-0.858-2.756c-0.439-0.604-0.87-0.86-0.852-0.878
								c-0.017,0.022,0.467,0.156,1.039,0.725c0.578,0.57,0.999,1.667,1.15,2.833c0.164,1.167,0.314,2.186,0.732,2.81
								C350.877,392.32,351.329,392.561,351.309,392.58z"/>
						</g>
					</g>
				</g>
				<g>
					<g>
						<g>
							<path fill="#7C1111" d="M327.294,371.817c0,0,0.343-0.344,1.012-0.95c0.699-0.566,1.798-1.294,3.146-2.195l0.006-0.004
								l0.013-0.007c0.555-0.302,1.152-0.799,1.695-1.513c0.28-0.349,0.563-0.735,0.889-1.12c0.154-0.197,0.34-0.379,0.514-0.572
								c0.224-0.21,0.427-0.323,0.646-0.491c0.585-0.464,1.243-0.771,1.85-1.114c0.643-0.265,1.243-0.572,1.859-0.744
								c0.303-0.098,0.599-0.193,0.886-0.286c0.293-0.068,0.579-0.135,0.855-0.199c0.547-0.145,1.073-0.201,1.548-0.269
								c0.473-0.083,0.911-0.079,1.29-0.101c0.38-0.028,0.707-0.022,0.975,0.005c0.532,0.035,0.828,0.054,0.828,0.054
								s-0.296,0.008-0.828,0.022c-0.266-0.004-0.589,0.017-0.964,0.073c-0.374,0.05-0.802,0.076-1.264,0.188
								c-0.464,0.097-0.975,0.181-1.506,0.351c-0.267,0.076-0.543,0.153-0.828,0.233c-0.277,0.103-0.562,0.208-0.855,0.315
								c-0.595,0.189-1.17,0.507-1.79,0.774c-0.579,0.344-1.214,0.648-1.772,1.092c-0.193,0.146-0.44,0.299-0.585,0.435
								c-0.168,0.184-0.344,0.352-0.498,0.542c-0.314,0.379-0.618,0.746-0.907,1.094c-0.576,0.72-1.27,1.256-1.884,1.538
								c0.008-0.004,0.016-0.009,0.018-0.011c-1.406,0.854-2.528,1.495-3.265,2.003
								C327.678,371.514,327.294,371.817,327.294,371.817z"/>
						</g>
					</g>
				</g>
				<g>
					<g>
						<g>
							<path fill="#7C1111" d="M332.547,382.073c0,0,0.018,0.19,0.049,0.528c0.026,0.173,0.022,0.383-0.006,0.626
								c-0.022,0.243-0.032,0.526-0.108,0.825c-0.237,1.208-0.827,2.839-1.835,4.424c-0.46,0.833-1.138,1.492-1.71,2.039
								c-0.581,0.555-1.091,1.054-1.441,1.536c-0.347,0.481-0.545,0.932-0.613,1.262c-0.077,0.327-0.09,0.518-0.09,0.518
								s-0.018-0.188,0.015-0.532c0.023-0.345,0.17-0.84,0.484-1.381c0.315-0.54,0.803-1.102,1.353-1.69
								c0.553-0.596,1.144-1.203,1.587-2.005c0.987-1.551,1.665-3.079,2.013-4.228c0.104-0.285,0.142-0.552,0.192-0.787
								c0.057-0.234,0.086-0.439,0.083-0.607C332.537,382.263,332.547,382.073,332.547,382.073z"/>
						</g>
					</g>
				</g>
				<g>
					<g>
						<g>
							<path d="M422.31,398.725c0,0,0.39,0.143,1.131,0.414c0.748,0.25,1.806,0.732,3.242,1.13c2.81,0.912,7.018,2.024,12.171,1.746
								c2.584-0.046,5.315-0.654,8.354-1.351c3.177-0.697,6.452-1.207,9.82-1.975c3.347-0.751,6.81-1.725,9.808-3.383
								c0.728-0.432,1.44-0.883,2.071-1.407c0.626-0.512,1.241-1.106,1.62-1.658c0.826-1.127,1.151-2.397,0.903-3.954
								c-0.226-1.54-0.925-3.18-1.815-4.732c-0.896-1.559-1.98-3.053-3.13-4.479c-2.321-2.845-4.851-5.509-7.348-7.789
								c-2.514-2.285-5.108-4.19-7.731-5.534c-0.632-0.391-1.338-0.611-1.993-0.909c-0.662-0.293-1.32-0.54-1.969-0.783
								c-1.283-0.422-2.554-0.706-3.808-0.846c-2.508-0.267-4.869-0.073-6.928,0.232c-2.061,0.319-3.837,0.729-5.283,1.09
								c-2.894,0.73-4.495,1.178-4.495,1.179c0,0,1.487-0.728,4.26-1.892c1.389-0.579,3.11-1.249,5.19-1.862
								c2.08-0.595,4.546-1.126,7.382-1.148c1.414-0.002,2.919,0.162,4.451,0.501c0.743,0.192,1.501,0.396,2.256,0.645
								c0.753,0.257,1.552,0.437,2.302,0.805c3.102,1.253,6.125,3.143,8.989,5.429c2.872,2.311,5.604,4.908,8.251,7.929
								c1.314,1.521,2.587,3.166,3.704,5.03c1.102,1.865,2.098,3.964,2.476,6.468c0.126,0.606,0.087,1.286,0.119,1.922
								c-0.042,0.654-0.123,1.325-0.259,1.973c-0.341,1.298-0.91,2.553-1.704,3.555c-0.789,1.057-1.641,1.807-2.537,2.51
								c-0.898,0.701-1.843,1.26-2.788,1.773c-1.901,0.999-3.834,1.637-5.714,2.162c-1.884,0.521-3.729,0.877-5.518,1.157
								c-3.568,0.575-6.97,0.838-9.98,1.222c-3.132,0.431-6.211,0.786-8.983,0.523c-5.579-0.338-9.749-2.117-12.424-3.452
								c-1.377-0.618-2.355-1.271-3.052-1.641C422.668,398.932,422.31,398.725,422.31,398.725z"/>
						</g>
					</g>
				</g>
				<g>
					<g>
						<g>
							<path d="M303.814,381.893c0,0,0.266,0.42,0.773,1.22c0.241,0.406,0.573,0.887,0.982,1.442
								c0.201,0.278,0.417,0.578,0.648,0.898c0.251,0.305,0.517,0.63,0.799,0.974c1.145,1.353,2.642,2.933,4.655,4.38
								c2.005,1.453,4.519,2.744,7.467,3.656c2.928,0.93,6.37,1.411,9.96,1.606c3.719,0.027,7.779,0.068,11.955,0.005
								c4.174-0.097,8.524-0.382,12.808-1.268c1.054-0.256,2.171-0.411,3.164-0.807c0.511-0.169,1.023-0.34,1.538-0.511l0.774-0.252
								l0.648-0.343c1.771-0.871,3.159-2.154,3.832-3.807c0.706-1.651,0.757-3.704,0.393-5.778c-0.361-2.081-1.084-4.17-1.939-6.182
								c-0.434-1.006-0.896-2-1.387-2.976c-0.486-0.977-0.991-1.931-1.556-2.786c-0.543-0.883-1.062-1.773-1.715-2.554
								c-0.615-0.809-1.201-1.632-1.913-2.325c-2.668-2.942-5.811-5.165-9.029-6.772c-0.822-0.373-1.63-0.74-2.423-1.101
								c-0.83-0.295-1.645-0.583-2.443-0.866c-1.601-0.565-3.119-0.961-4.64-1.141c-3.028-0.399-5.879-0.177-8.358,0.2
								c-2.485,0.377-4.622,0.881-6.366,1.298c-3.493,0.864-5.424,1.341-5.424,1.341s1.835-0.766,5.202-2.059
								c1.689-0.635,3.768-1.399,6.279-2.07c2.503-0.665,5.482-1.228,8.867-1.106c1.686,0.039,3.482,0.339,5.231,0.796
								c0.877,0.233,1.772,0.47,2.683,0.712c0.896,0.326,1.807,0.657,2.734,0.995c3.659,1.493,7.387,3.765,10.606,6.956
								c0.851,0.756,1.567,1.647,2.311,2.537c0.782,0.862,1.424,1.844,2.087,2.829c0.696,0.978,1.28,1.991,1.842,3.026
								c0.565,1.032,1.104,2.1,1.617,3.202c1.01,2.21,1.909,4.574,2.41,7.196c0.485,2.591,0.571,5.596-0.637,8.489
								c-0.158,0.354-0.29,0.72-0.478,1.058l-0.634,0.977c-0.394,0.68-0.96,1.191-1.483,1.742c-0.506,0.586-1.143,0.936-1.724,1.384
								c-0.579,0.464-1.231,0.728-1.858,1.057l-0.947,0.461l-0.92,0.292c-0.613,0.191-1.224,0.382-1.832,0.572
								c-1.215,0.435-2.427,0.579-3.625,0.831c-4.798,0.848-9.405,0.935-13.717,0.809c-4.317-0.165-8.324-0.467-12.149-0.782
								c-3.922-0.505-7.459-1.32-10.562-2.624c-3.091-1.283-5.66-2.964-7.608-4.736c-1.96-1.77-3.309-3.593-4.3-5.116
								c-0.241-0.385-0.469-0.749-0.683-1.091c-0.191-0.354-0.37-0.685-0.536-0.993c-0.336-0.611-0.601-1.136-0.786-1.576
								C304.018,382.348,303.814,381.893,303.814,381.893z"/>
						</g>
					</g>
				</g>
				<path d="M352.994,340.963c14.322,4.74,7.916-15.336,19.376-16.832c-4.841-0.339-6.613,6.062-6.833,9.571
					c-0.296,4.715,2.109,10.463-2.633,13.211c-8.607,4.989-18.501-1.473-26.341-4.042c-4.872-1.597-10.952-3.061-16.122-0.967
					c1.734-1.423,3.213-2.333,5.37-2.609c-16.88,0.284-32.489,6.078-45.318,17.14c12.827-12.157,26.292-23.51,44.108-24.391
					c7.367-0.365,15.279,0.682,21.345,4.315c-4.555-0.259-10.073-3.368-14.95-1.321c5.365-0.268,9.953,2.05,14.811,3.539
					c3.755,1.151,12.669,2.667,16.379,0.308c0.125-0.12,0.121-0.124-0.01-0.01c-2.494,2.04-7.218,2.525-10.502,2.417"/>
				<path d="M394.253,324.79c7.302,3.051,11.286,12.764,15.273,18.723c4.818,7.201,16.515,10.279,24.665,10.66
					c10.837,0.507,22.482-1.705,33.014-0.007c8.606,1.386,18.066,4.771,26.06,8.995c2.842,1.501,5.442,3,7.799,5.229
					c-6.19-6.182-12.082-10.442-19.921-13.977c-8.138-3.67-15.377-8.925-23.92-10.737c-11.453-2.43-25.315,1.048-35.532-4.307
					c3.803,2.924,10.887,6.178,15.188,5.554c-8.531,0-16.579-3.123-23.481-7.592c-6.054-3.919-11.922-11.025-18.814-13.202"/>
				<g>
					<g>
						<g>
							<path d="M485.6,313.072c0,0,0.075,0.3,0.218,0.87c0.137,0.572,0.336,1.417,0.532,2.525c0.187,1.108,0.397,2.478,0.419,4.116
								c0.014,1.628-0.16,3.569-1.031,5.602c-0.823,2.053-2.605,3.99-4.891,5.267c-2.311,1.264-5.067,1.945-7.991,1.89
								c-2.903-0.058-6.072-0.807-8.834-2.793c-1.356-0.977-2.614-2.314-3.473-3.904c-0.864-1.578-1.34-3.322-1.535-5.038
								c-0.371-3.453,0.224-6.636,1.044-9.531c0.422-1.418,0.893-2.799,1.41-4.154c0.286-0.664,0.556-1.331,0.853-1.968
								c0.311-0.626,0.619-1.245,0.923-1.856c1.272-2.398,2.623-4.514,3.782-6.494c1.166-1.977,2.132-3.828,2.816-5.596
								c1.304-3.544,1.291-6.748,0.938-8.905c-0.094-1.101-0.383-1.915-0.49-2.492c-0.132-0.573-0.201-0.874-0.201-0.874
								s0.129,0.279,0.376,0.812c0.221,0.543,0.674,1.309,0.974,2.4c0.379,1.068,0.711,2.434,0.868,4.071
								c0.166,1.641,0.034,3.546-0.39,5.6c-0.478,2.033-1.281,4.171-2.262,6.339c-0.975,2.173-2.108,4.39-3.121,6.721
								c-0.239,0.584-0.481,1.175-0.726,1.772c-0.23,0.6-0.431,1.211-0.653,1.822c-0.388,1.238-0.76,2.538-1.098,3.873
								c-0.633,2.609-1.034,5.373-0.745,7.965c0.148,1.29,0.476,2.483,1.007,3.509c0.523,1.023,1.271,1.884,2.195,2.62
								c1.836,1.457,4.218,2.233,6.527,2.455c2.319,0.234,4.611-0.119,6.492-0.895c1.885-0.812,3.389-2.051,4.276-3.599
								c0.925-1.523,1.367-3.206,1.594-4.711c0.224-1.514,0.256-2.864,0.272-3.967c0.008-1.105-0.022-1.97-0.043-2.556
								C485.611,313.381,485.6,313.072,485.6,313.072z"/>
						</g>
					</g>
				</g>
				<g>
					<g>
						<g>
							<path d="M366.528,388.163c0,0-0.102-0.557-0.295-1.617c-0.195-1.058-0.5-2.618-1-4.588c-0.519-1.962-1.219-4.352-2.419-6.924
								c-1.211-2.555-2.893-5.325-5.421-7.753c-0.316-0.301-0.636-0.607-0.96-0.915c-0.334-0.297-0.694-0.574-1.045-0.867
								c-0.684-0.604-1.484-1.108-2.252-1.67c-0.809-0.515-1.629-1.038-2.506-1.524c-0.89-0.466-1.789-0.977-2.715-1.392
								c-1.838-0.887-3.817-1.585-5.931-2.062c-2.105-0.48-4.316-0.816-6.601-0.865c-4.55-0.113-9.392,0.566-13.943,2.407
								c-2.283,0.922-4.465,2.061-6.4,3.572c-1.957,1.511-3.738,3.343-5.185,5.403c-1.446,2.057-2.519,4.311-2.991,6.591
								c-0.485,2.277-0.364,4.557,0.358,6.641c0.71,2.082,1.998,4.004,3.595,5.578c1.59,1.588,3.51,2.839,5.518,3.852
								c4.043,2.018,8.41,3.119,12.539,3.85c4.142,0.75,8.1,1.088,11.706,1.331c3.61,0.256,6.861,0.181,9.727-0.009
								c2.859-0.24,5.328-0.592,7.336-0.95c2.013-0.334,3.572-0.646,4.63-0.851c1.059-0.202,1.615-0.308,1.615-0.308
								s-0.539,0.175-1.564,0.508c-1.026,0.333-2.539,0.827-4.516,1.383c-0.982,0.301-2.09,0.582-3.31,0.877
								c-1.211,0.328-2.557,0.564-4.002,0.849c-2.899,0.478-6.262,0.861-9.963,0.902c-3.698,0.055-7.755,0.016-12.124-0.48
								c-4.358-0.488-9.083-1.356-13.815-3.44c-2.349-1.052-4.708-2.432-6.782-4.35c-2.071-1.902-3.849-4.314-4.92-7.187
								c-1.082-2.858-1.303-6.115-0.685-9.155c0.6-3.057,1.953-5.887,3.707-8.388c1.761-2.504,3.885-4.653,6.247-6.432
								c2.378-1.803,5.018-3.108,7.632-4.085c5.275-1.973,10.736-2.526,15.816-2.161c2.547,0.176,5.003,0.675,7.324,1.347
								c2.321,0.664,4.513,1.593,6.477,2.704c1.974,1.088,3.737,2.265,5.4,3.534c0.797,0.674,1.611,1.285,2.314,2.004
								c0.358,0.35,0.723,0.682,1.06,1.035c0.326,0.365,0.648,0.726,0.966,1.083c2.534,2.874,4.07,6.029,5.071,8.816
								c0.991,2.811,1.442,5.317,1.748,7.352c0.284,2.042,0.403,3.631,0.469,4.709C366.497,387.597,366.528,388.163,366.528,388.163
								z"/>
						</g>
					</g>
				</g>
				<g>
					<g>
						<g>
							<path d="M474.708,393.608c0,0-0.166-0.524-0.481-1.522c-0.149-0.5-0.35-1.115-0.605-1.834
								c-0.241-0.723-0.531-1.553-0.894-2.473c-0.697-1.846-1.633-4.075-2.968-6.504c-1.33-2.427-3.073-5.059-5.425-7.539
								c-2.357-2.472-5.375-4.71-8.942-6.469c-1.817-0.828-3.714-1.684-5.727-2.219c-2.01-0.562-4.126-0.925-6.299-1.018
								c-4.345-0.202-8.913,0.735-13.114,2.878c-4.194,2.169-8.183,5.332-10.907,9.403c-1.357,2.024-2.347,4.215-2.743,6.398
								c-0.404,2.182-0.185,4.329,0.666,6.241c0.83,1.925,2.303,3.539,4.024,5.22c0.414,0.411,0.809,0.845,1.232,1.233
								c0.441,0.36,0.881,0.719,1.318,1.075c0.437,0.359,0.87,0.716,1.302,1.071c0.438,0.346,0.923,0.608,1.378,0.915
								c3.654,2.439,7.654,3.875,11.567,4.471c3.917,0.631,7.718,0.419,11.145-0.059c1.727-0.176,3.344-0.583,4.895-0.858
								c1.527-0.396,2.992-0.689,4.331-1.101c2.696-0.748,4.998-1.506,6.877-2.138c1.878-0.635,3.333-1.147,4.316-1.503
								c0.986-0.348,1.505-0.531,1.505-0.531s-0.49,0.249-1.424,0.721c-0.933,0.477-2.315,1.163-4.117,2.01
								c-1.804,0.845-4.025,1.855-6.678,2.884c-1.312,0.552-2.772,0.997-4.299,1.546c-1.564,0.431-3.193,0.996-4.98,1.336
								c-3.531,0.8-7.569,1.356-11.95,0.958c-4.364-0.357-9.05-1.72-13.332-4.292c-0.532-0.323-1.102-0.606-1.612-0.972
								c-0.504-0.376-1.011-0.755-1.521-1.135c-0.509-0.383-1.022-0.769-1.536-1.157c-0.487-0.413-0.938-0.866-1.411-1.302
								c-0.933-0.916-1.898-1.685-2.814-2.83l-0.693-0.81c-0.231-0.271-0.407-0.604-0.613-0.907
								c-0.385-0.628-0.827-1.224-1.095-1.938c-1.31-2.717-1.691-5.961-1.163-8.96c0.511-3.017,1.785-5.799,3.433-8.262
								c1.658-2.467,3.66-4.588,5.856-6.396c2.217-1.792,4.531-3.273,7.024-4.465c4.963-2.378,10.409-3.273,15.416-2.792
								c2.506,0.23,4.903,0.777,7.133,1.544c2.25,0.749,4.246,1.804,6.154,2.838c3.782,2.189,6.902,4.913,9.208,7.787
								c2.305,2.884,3.865,5.823,4.986,8.461c1.125,2.643,1.824,5.002,2.314,6.938c0.259,0.965,0.451,1.831,0.605,2.583
								c0.168,0.749,0.292,1.385,0.379,1.902C474.611,393.067,474.708,393.608,474.708,393.608z"/>
						</g>
					</g>
				</g>
				<path d="M337.729,371.494c-6.026-4.728-12.845,4.021-6.684,8.993c6.312,5.096,11.957-4.278,7.014-9.323"/>
				<path d="M445.331,376.445c-7.87-1.02-11.107,10.244-2.657,11.57c8.96,1.404,10.851-11.98,2.327-11.24"/>
				<g>
					<g>
						<g>
							<path d="M337.265,361.425c0,0-0.483,0.16-1.217,0.402c-0.727,0.241-1.691,0.557-2.721,0.832
								c-1.031,0.27-1.942,0.468-2.557,0.763c-0.305,0.146-0.545,0.318-0.696,0.469c-0.15,0.164-0.236,0.258-0.236,0.258
								c0.024,0.025-0.173-0.555,0.316-1.357c0.47-0.782,1.51-1.524,2.719-1.836c1.217-0.322,2.358-0.207,3.15-0.009
								C336.822,361.144,337.265,361.425,337.265,361.425z"/>
						</g>
					</g>
				</g>
				<g>
					<g>
						<g>
							<path d="M352.119,366.129c-0.005,0.017-0.228-0.156-0.653-0.288c-0.208-0.062-0.472-0.098-0.67,0.031
								c-0.202,0.11-0.383,0.372-0.578,0.717c-0.199,0.342-0.401,0.766-0.76,1.215c-0.171,0.226-0.421,0.452-0.699,0.635
								c-0.279,0.151-0.551,0.32-0.88,0.431c-0.688,0.231-1.47,0.165-2.127-0.003c-0.652-0.179-1.202-0.395-1.733-0.533
								l-0.382-0.084c-0.219-0.042-0.269-0.071-0.341-0.091l-0.222-0.072c-0.244-0.08-0.483-0.159-0.719-0.236
								c-0.025-0.015-0.034-0.041-0.078-0.009c-0.013,0.001-0.147,0.167-0.244,0.27c-0.105,0.117-0.213,0.227-0.324,0.332
								c-0.427,0.423-0.907,0.767-1.423,0.991c-0.492,0.277-0.951,0.393-1.37,0.505c-0.823,0.239-1.5,0.304-1.932,0.457
								c-0.456,0.121-0.709,0.188-0.709,0.188s0.212-0.157,0.592-0.438c0.38-0.311,1.014-0.594,1.713-1.022
								c0.351-0.201,0.743-0.415,1.055-0.704c0.35-0.24,0.673-0.571,0.974-0.977c0.075-0.097,0.148-0.197,0.219-0.301
								c0.082-0.115,0.115-0.18,0.282-0.402c0.152-0.196,0.356-0.41,0.609-0.511c0.254-0.109,0.548-0.091,0.823-0.063l0.346,0.07
								l0.237,0.059l0.454,0.123l0.223,0.062c0.077,0.023,0.174,0.047,0.11,0.032l0.543,0.111c0.696,0.184,1.292,0.45,1.782,0.625
								c0.488,0.16,0.884,0.238,1.269,0.18c0.197-0.032,0.405-0.123,0.601-0.177c0.174-0.074,0.333-0.154,0.491-0.29
								c0.321-0.255,0.616-0.602,0.927-0.914c0.306-0.307,0.663-0.627,1.107-0.709c0.448-0.085,0.768,0.114,0.961,0.255
								C351.987,365.902,352.105,366.142,352.119,366.129z"/>
						</g>
					</g>
				</g>
				<g>
					<g>
						<g>
							<path d="M359.546,371.328c0,0-0.123,0.121-0.341,0.337c-0.197,0.244-0.324,0.571-0.471,1.115
								c-0.08,0.271-0.214,0.611-0.458,0.944l-0.215,0.248l-0.145,0.154l-0.19,0.094c-0.233,0.124-0.431,0.206-0.652,0.26
								c-0.884,0.228-1.641,0.19-2.035,0.436c-0.061,0.039-0.124,0.071-0.163,0.086l-0.092,0.061
								c-0.462,0.247-0.855,0.72-1.292,1.289c-0.417,0.551-0.975,1.112-1.546,1.348c-1.184,0.432-1.811,0.006-1.806,0.067
								c-0.032-0.028,0.728-0.127,1.352-0.762c0.299-0.328,0.508-0.768,0.783-1.4c0.267-0.594,0.688-1.487,1.638-2.065
								c-0.021,0.013-0.04,0.026-0.091,0.06c0.087-0.058,0.244-0.156,0.406-0.248c1.122-0.542,2.055-0.273,2.579-0.333
								c0.141,0.005,0.278-0.021,0.362-0.032c0.063,0.023,0.107-0.027,0.238-0.094c0.2-0.136,0.378-0.314,0.552-0.528
								c0.334-0.446,0.772-0.82,1.09-0.923C359.377,371.346,359.546,371.328,359.546,371.328z"/>
						</g>
					</g>
				</g>
				<g>
					<g>
						<g>
							<path d="M362.27,381.478c0,0-0.188,0.131-0.523,0.366c-0.332,0.211-0.745,0.631-1.331,1.079
								c-0.288,0.234-0.602,0.488-1.066,0.713c-0.116,0.06-0.234,0.121-0.353,0.182c-0.14,0.059-0.327,0.061-0.461,0.086
								c-0.278,0.06-0.667,0.005-0.992-0.108c-0.698-0.288-1.034-0.693-1.34-0.807c-0.079-0.024-0.146-0.075-0.23-0.091
								c-0.071-0.011-0.201-0.043-0.201-0.043c-0.01-0.007-0.029,0.006-0.042,0.008l-0.125,0.017
								c-0.079-0.001-0.199,0.042-0.307,0.068c-0.891,0.232-1.966,0.725-3.115,0.76c-1.27,0.036-2.053-0.562-2.675-0.903
								c-0.609-0.378-1.088-0.629-1.476-0.725c-0.379-0.085-0.617-0.109-0.617-0.108c0,0,0.208-0.087,0.631-0.167
								c0.425-0.074,1.081-0.002,1.797,0.185c0.698,0.165,1.535,0.426,2.196,0.237c0.766-0.15,1.596-0.639,2.822-0.987
								c0.16-0.039,0.299-0.087,0.494-0.1l0.279-0.027c0.119,0.004,0.238-0.05,0.355,0.002c0.263,0.069,0.386,0.108,0.57,0.167
								c0.168,0.056,0.323,0.159,0.478,0.242c0.604,0.387,0.912,0.812,1.099,0.908c0.11,0.055,0.193,0.12,0.362,0.118
								c0.089,0,0.133,0.032,0.199,0.017l0.244-0.066c0.336-0.063,0.704-0.208,1.036-0.344c0.676-0.245,1.232-0.495,1.658-0.566
								C362.042,381.519,362.27,381.478,362.27,381.478z"/>
						</g>
					</g>
				</g>
				<g>
					<g>
						<g>
							<path d="M360.536,377.27c0,0,0.065,0.275,0.056,0.645c-0.016,0.377-0.082,0.826-0.336,1.158
								c-0.205,0.328-0.609,0.484-0.875,0.645c-0.294,0.152-0.578,0.276-0.578,0.276s-0.153-0.215-0.237-0.612
								c-0.108-0.415-0.014-0.917,0.262-1.342c0.291-0.382,0.719-0.578,1.066-0.663C360.247,377.281,360.536,377.27,360.536,377.27z
								"/>
						</g>
					</g>
				</g>
				<g>
					<g>
						<g>
							<path d="M359.546,376.527c0,0-0.089,0.254-0.249,0.71c-0.109,0.479-0.134,1.105-0.12,2.01
								c-0.001,0.446-0.06,1.011-0.319,1.579c-0.107,0.298-0.319,0.524-0.506,0.811c-0.122,0.17-0.253,0.249-0.348,0.353
								l-0.33,0.306c-0.438,0.382-0.953,0.782-1.034,1.021c-0.094,0.222-0.115,0.725,0.008,1.354
								c0.025,0.145,0.038,0.326,0.059,0.375l0.123,0.428c0.087,0.284,0.183,0.564,0.284,0.841c0.222,0.572,0.437,1.123,0.641,1.649
								c0.209,0.547,0.401,1.115,0.483,1.71c0.099,0.584-0.013,1.263-0.327,1.703c-0.619,0.901-1.39,1.071-1.833,1.274
								c-0.476,0.137-0.741,0.214-0.741,0.214s0.218-0.163,0.609-0.456c0.345-0.307,0.971-0.761,1.177-1.427
								c0.247-0.615-0.173-1.409-0.717-2.394c-0.273-0.495-0.576-1.027-0.85-1.629c-0.136-0.299-0.266-0.615-0.381-0.943
								l-0.161-0.504c-0.082-0.262-0.075-0.415-0.11-0.596l-0.073-0.531l-0.008-0.59c-0.014-0.182,0.031-0.417,0.083-0.642
								c0.031-0.221,0.127-0.445,0.262-0.662c0.116-0.234,0.271-0.377,0.422-0.527c0.158-0.168,0.292-0.25,0.43-0.352
								c0.288-0.213,0.507-0.338,0.753-0.502c0.94-0.523,1.307-1.153,1.532-1.993c0.195-0.824,0.466-1.575,0.741-1.995
								C359.366,376.721,359.546,376.527,359.546,376.527z"/>
						</g>
					</g>
				</g>
				<g>
					<g>
						<g>
							<path d="M348.405,395.838c0,0,0.029-0.176,0.079-0.49c0.054-0.31,0.129-0.759,0.176-1.285
								c0.042-0.524,0.042-1.126-0.124-1.667c-0.152-0.543-0.515-1.044-1-1.602c-0.245-0.276-0.51-0.547-0.772-0.813l-0.199-0.197
								l-0.099-0.098l-0.206-0.183c-0.258-0.233-0.512-0.461-0.76-0.684l-0.338-0.312l-0.08-0.075
								c0.015-0.025,0.064-0.052,0.094-0.077l0.203-0.15c0.257-0.186,0.507-0.368,0.749-0.543c0.214-0.149,0.491-0.351,0.604-0.412
								c0.137-0.079,0.269-0.155,0.394-0.227c1.096-0.448,1.773-0.592,1.773-0.592s-0.495,0.553-1.247,1.299
								c-0.084,0.106-0.172,0.218-0.264,0.334c-0.115,0.134-0.076,0.135-0.108,0.196c-0.018,0.09-0.05,0.142,0.1,0.167
								c0.048,0.012,0.085,0.017,0.111,0.018l0.018-0.001l0.123,0.089c0.082,0.061,0.167,0.118,0.247,0.187
								c0.329,0.262,0.661,0.556,0.974,0.908c0.619,0.693,1.119,1.625,1.15,2.542c0.047,0.909-0.236,1.625-0.502,2.149
								c-0.278,0.527-0.563,0.896-0.769,1.145C348.524,395.703,348.405,395.838,348.405,395.838z"/>
						</g>
					</g>
				</g>
				<g>
					<g>
						<g>
							<path d="M342.216,387.172c0,0,0.157,0.645,0.266,1.744c0.006,1.067-0.114,2.715-1.073,4.19
								c-0.938,1.452-2.111,2.353-2.953,2.997c-0.848,0.633-1.439,0.974-1.439,0.974s0.256-0.627,0.78-1.559
								c0.512-0.93,1.333-2.122,2.117-3.344c0.795-1.212,1.27-2.442,1.698-3.395C341.929,387.807,342.216,387.172,342.216,387.172z"
								/>
						</g>
					</g>
				</g>
				<g>
					<g>
						<g>
							<path d="M334.293,387.42c0,0,0.081,0.04,0.237,0.117c0.161,0.074,0.378,0.216,0.647,0.442c0.24,0.245,0.582,0.57,0.725,1.138
								c0.16,0.556,0.036,1.303-0.368,1.92c0.008-0.011,0.028-0.041,0.049-0.071c-0.169,0.254-0.324,0.592-0.694,0.81
								c-0.171,0.136-0.356,0.218-0.554,0.273c-0.206,0.078-0.397,0.112-0.583,0.128c-0.751,0.083-1.449-0.015-1.893,0.059
								c-0.368,0.062-0.96,0.203-1.268,0.291c-0.162,0.052-0.122,0.021-0.16,0.037c-0.028,0.013-0.054-0.001-0.061,0.167
								c-0.013,0.323,0.056,0.766,0.089,1.146c0.028,0.385,0.068,0.711,0.129,1.016c0.113,0.606,0.317,1.06,0.549,1.322
								c0.224,0.274,0.443,0.349,0.432,0.366c0.01-0.021-0.221,0.029-0.593-0.143c-0.379-0.157-0.852-0.589-1.209-1.224
								c-0.183-0.312-0.349-0.685-0.482-1.062c-0.135-0.38-0.299-0.742-0.398-1.293c-0.049-0.263-0.062-0.752,0.153-1.129
								c0.189-0.382,0.657-0.665,0.939-0.775c0.59-0.229,0.962-0.337,1.586-0.456c0.947-0.12,1.607,0.063,2.075,0.061
								c0.46,0.013,0.601-0.061,0.846-0.248l0.049-0.071c0.315-0.318,0.486-0.644,0.516-1.004c0.041-0.363-0.112-0.709-0.226-0.986
								c-0.141-0.269-0.272-0.486-0.379-0.616C334.346,387.494,334.293,387.42,334.293,387.42z"/>
						</g>
					</g>
				</g>
				<g>
					<g>
						<g>
							<path d="M430.104,379.25c0,0-0.165,0.003-0.484-0.015c-0.323,0.003-0.788-0.112-1.325-0.369
								c-1.097-0.518-2.129-1.833-3.169-2.345c-0.535-0.249-1.284-0.432-1.921-0.591c-0.668-0.16-1.274-0.305-1.789-0.428
								c-1.044-0.249-1.708-0.462-1.708-0.462s0.652-0.228,1.735-0.419c0.543-0.09,1.194-0.179,1.939-0.169
								c0.751,0.021,1.561,0.056,2.511,0.482c0.919,0.473,1.494,1.187,1.906,1.77c0.405,0.583,0.709,1.089,1.029,1.461
								C429.457,378.918,430.123,379.219,430.104,379.25z"/>
						</g>
					</g>
				</g>
				<g>
					<g>
						<g>
							<path d="M434.81,377.27c0,0-0.206-0.01-0.573-0.028c-0.374-0.033-0.905-0.069-1.597-0.402
								c-0.331-0.162-0.78-0.592-0.837-1.207c-0.051-0.586,0.131-1.057,0.263-1.46c0.141-0.41,0.277-0.792,0.358-1.154
								c0.022-0.177,0.068-0.356,0.06-0.523c0.001-0.085,0.018-0.171-0.002-0.253c-0.012-0.081-0.018-0.188-0.018-0.189
								c0.018,0.036-0.075-0.153-0.17-0.264c-0.109-0.133-0.237-0.269-0.383-0.405c-0.293-0.267-0.607-0.529-0.932-0.764
								c-0.64-0.478-1.265-0.891-1.797-1.23c-1.062-0.686-1.8-1.036-1.8-1.036s0.836-0.085,2.137,0.221
								c0.648,0.15,1.409,0.38,2.223,0.768c0.408,0.189,0.825,0.434,1.248,0.744c0.21,0.158,0.422,0.343,0.627,0.567
								c0.212,0.253,0.39,0.468,0.569,0.965c0.237,1.435-0.356,2.455-0.765,3.163c-0.216,0.36-0.369,0.651-0.413,0.822
								c-0.049,0.15-0.018,0.324,0.164,0.529c0.367,0.382,0.843,0.669,1.147,0.842C434.634,377.165,434.81,377.27,434.81,377.27z"/>
						</g>
					</g>
				</g>
				<g>
					<g>
						<g>
							<path d="M438.028,365.387c0,0,0.229,0.354,0.45,0.773c0.328,0.424,0.645,0.797,1.092,1.388
								c0.417,0.598,0.748,1.431,0.71,2.083c0.008,0.307-0.117,0.569-0.165,0.721c-0.062,0.157-0.106,0.233-0.106,0.233
								s-0.062-0.077-0.168-0.21c-0.116-0.125-0.203-0.302-0.397-0.469c-0.337-0.347-0.851-0.677-1.33-1.365
								c-0.118-0.183-0.226-0.359-0.312-0.552c-0.079-0.21-0.144-0.417-0.192-0.613c-0.085-0.402-0.041-0.806-0.003-1.097
								C437.81,365.669,438.028,365.387,438.028,365.387z"/>
						</g>
					</g>
				</g>
				<g>
					<g>
						<g>
							<path d="M443.969,364.891c0,0,0.105-0.008,0.305,0c0.203-0.005,0.49,0.043,0.858,0.219c0.35,0.195,0.771,0.681,0.83,1.317
								c0.068,0.62-0.111,1.158-0.328,1.636c-0.466,0.948-1.069,1.497-1.481,1.962c-0.419,0.443-0.677,0.807-0.677,0.807
								s-0.038-0.098-0.085-0.294c-0.056-0.197-0.075-0.485-0.058-0.839c0.032-0.705,0.338-1.628,0.707-2.39
								c0.179-0.38,0.358-0.702,0.435-0.917c0.086-0.207,0.109-0.399,0.036-0.657C444.304,365.247,443.941,364.902,443.969,364.891z
								"/>
						</g>
					</g>
				</g>
				<g>
					<g>
						<g>
							<path d="M449.911,374.299c0,0,0.079-0.117,0.219-0.322c0.151-0.182,0.306-0.492,0.414-0.827
								c0.091-0.351,0.089-0.727,0.02-1.172c-0.11-0.501-0.23-1.044-0.356-1.616c-0.13-0.622-0.197-1.305-0.135-1.945
								c0.045-0.644,0.305-1.244,0.593-1.645c0.319-0.392,0.627-0.624,0.871-0.727c0.232-0.117,0.356-0.165,0.356-0.165
								c0.032,0.012-0.321,0.517-0.423,1.252c-0.098,0.744,0.189,1.619,0.466,2.887c0.126,0.634,0.193,1.315,0.115,1.974
								c-0.092,0.674-0.397,1.281-0.77,1.64c-0.383,0.345-0.733,0.51-0.99,0.567C450.043,374.274,449.911,374.299,449.911,374.299z"
								/>
						</g>
					</g>
				</g>
				<g>
					<g>
						<g>
							<path d="M466.004,379.002c0,0-0.102,0.018-0.294,0.055c-0.094,0.023-0.211,0.025-0.338,0.073
								c-0.118,0.058-0.256,0.125-0.411,0.2c-0.272,0.215-0.566,0.484-0.818,0.924c-0.066,0.105-0.136,0.208-0.198,0.335
								c-0.064,0.121-0.117,0.223-0.263,0.466c-0.241,0.416-0.522,0.886-0.848,1.397c-0.331-0.322-0.727-0.724-1.182-1.202
								l-0.169-0.178l-0.101-0.099l-0.206-0.204c-0.139-0.136-0.28-0.276-0.427-0.421c-0.58-0.565-1.218-1.186-1.893-1.626
								c-0.735-0.49-1.344-0.544-1.766-0.457l-0.095,0.025c-0.772,0.138-1.691,0.489-2.409,0.749
								c-0.742,0.277-1.387,0.54-1.907,0.775c-0.522,0.235-0.916,0.447-1.171,0.616c-0.257,0.167-0.353,0.31-0.36,0.305
								c0.008,0.008,0.038-0.171,0.232-0.435c0.188-0.263,0.512-0.615,0.965-1.006c0.452-0.393,1.03-0.829,1.731-1.274
								c0.73-0.439,1.453-0.918,2.611-1.276c-0.025,0.006-0.051,0.013-0.095,0.025c0.373-0.131,0.924-0.287,1.527-0.187
								c0.599,0.079,1.191,0.336,1.692,0.66c0.937,0.619,1.58,1.368,2.125,2.038c0.132,0.17,0.259,0.336,0.383,0.497l0.175,0.238
								l0.085,0.117c0.012,0.02,0.007,0.021,0.012,0.033c0.024,0.08,0.071,0.191,0.138,0.328c0.065-0.03,0.147-0.094,0.244-0.178
								c0.024-0.008,0.145-0.146,0.244-0.258c0.096-0.112,0.209-0.216,0.313-0.315c0.403-0.412,0.885-0.655,1.266-0.785
								c0.202-0.026,0.381-0.048,0.536-0.068c0.15-0.003,0.277,0.04,0.376,0.053C465.903,378.981,466.004,379.002,466.004,379.002z"
								/>
						</g>
					</g>
				</g>
				<g>
					<g>
						<g>
							<path d="M470.956,386.925c0,0-0.201-0.023-0.56-0.064c-0.358-0.035-0.852-0.143-1.468-0.205
								c-1.237-0.13-2.885-0.231-4.73-0.335c-1.852-0.084-3.573-0.261-4.829-0.462c-1.257-0.204-2.03-0.418-2.03-0.418
								s0.772-0.227,2.017-0.462c1.243-0.238,2.978-0.505,4.939-0.417c1.97,0.108,3.726,0.679,4.888,1.251
								c0.584,0.283,1.016,0.604,1.317,0.794C470.792,386.81,470.956,386.925,470.956,386.925z"/>
						</g>
					</g>
				</g>
				<g>
					<g>
						<g>
							<path d="M470.213,393.114c0,0-0.174-0.026-0.484-0.073c-0.315-0.005-0.712,0.019-1.239,0.17
								c-0.265,0.066-0.57,0.145-0.95,0.191c-0.2,0.004-0.415,0.023-0.652-0.021c-0.241-0.052-0.503-0.119-0.705-0.235
								c-0.438-0.196-0.882-0.634-1.126-1.036c-0.254-0.401-0.411-0.703-0.626-1.014c-0.464-0.677-0.897-1.485-1.164-2.207
								c-0.268-0.746-0.408-1.457-0.436-2.056c-0.025-0.599,0.017-1.075,0.093-1.397c0.07-0.315,0.11-0.492,0.11-0.492
								s0.06,0.17,0.164,0.474c0.088,0.301,0.264,0.721,0.488,1.205c0.455,0.989,1.252,2.122,2.216,3.503
								c0.267,0.389,0.472,0.839,0.612,1.134c0.146,0.298,0.245,0.447,0.445,0.618c0.189,0.175,0.349,0.239,0.624,0.319
								c0.275,0.055,0.578,0.09,0.87,0.133c0.589,0.062,1.089,0.276,1.366,0.45C470.091,392.996,470.213,393.114,470.213,393.114z"
								/>
						</g>
					</g>
				</g>
				<g>
					<g>
						<g>
							<path d="M451.893,391.383c0,0,0.148,0.134,0.415,0.374c0.282,0.203,0.711,0.478,1.19,0.376
								c0.48-0.059,1.074-0.475,1.922-0.835c0.421-0.186,0.947-0.337,1.537-0.368c0.603-0.037,1.232,0.147,1.794,0.422
								c-0.014-0.007-0.039-0.019-0.065-0.032c0.046,0.024,0.128,0.066,0.21,0.108c1.156,0.608,1.742,1.568,2.199,2.325
								c0.45,0.783,0.766,1.478,1.086,2.021c0.316,0.542,0.623,0.955,0.898,1.189c0.266,0.244,0.449,0.361,0.449,0.36
								c0,0-0.052-0.007-0.15-0.022c-0.096-0.023-0.257-0.025-0.436-0.099c-0.384-0.104-0.899-0.397-1.435-0.86
								c-0.537-0.459-1.072-1.087-1.625-1.728c-0.554-0.635-1.141-1.297-1.792-1.618c-0.047-0.026-0.093-0.052-0.119-0.066
								l-0.064-0.032c-0.633-0.344-1.264-0.378-2.046-0.208c-0.764,0.14-1.585,0.459-2.409,0.3c-0.844-0.163-1.18-0.764-1.353-1.066
								C451.967,391.576,451.893,391.383,451.893,391.383z"/>
						</g>
					</g>
				</g>
				<g>
					<g>
						<g>
							<path d="M447.932,400.789c0,0-0.073-0.011-0.213-0.033c-0.14-0.031-0.349-0.034-0.62-0.142
								c-0.139-0.043-0.295-0.095-0.457-0.221c-0.172-0.099-0.334-0.277-0.403-0.504c-0.092-0.232-0.012-0.5,0.11-0.757
								c0.064-0.129,0.167-0.249,0.268-0.376c0.096-0.106,0.185-0.188,0.283-0.286c0.397-0.354,0.864-0.657,1.399-0.929
								c0.509-0.28,1.258-0.488,1.858-0.578c0.623-0.113,1.252-0.216,1.864-0.36c0.301-0.074,0.605-0.155,0.861-0.261
								c0.262-0.097,0.494-0.234,0.561-0.323c0.043-0.048,0.038-0.059,0.056-0.073c-0.004-0.004,0.059,0.056-0.115-0.228
								c-0.142-0.216-0.332-0.452-0.532-0.677c-0.402-0.453-0.836-0.885-1.253-1.292c-0.84-0.813-1.623-1.535-2.278-2.142
								c-1.319-1.211-2.133-1.958-2.133-1.958s1.041,0.396,2.624,1.281c0.791,0.443,1.719,1.002,2.71,1.721
								c0.495,0.363,1.006,0.762,1.515,1.244c0.255,0.244,0.509,0.507,0.758,0.843c0.129,0.184,0.238,0.328,0.372,0.668
								c0.136,0.323,0.108,0.673,0.017,1.007c-0.037,0.206-0.211,0.557-0.441,0.8c-0.423,0.447-0.861,0.62-1.254,0.764
								c-0.399,0.143-0.774,0.218-1.139,0.281c-0.724,0.116-1.401,0.152-2.02,0.183c-0.645,0.022-1.067,0.063-1.586,0.22
								c-0.494,0.144-0.953,0.32-1.324,0.521c-0.086,0.052-0.17,0.102-0.252,0.151c-0.05,0.036-0.111,0.069-0.159,0.115
								c-0.091,0.089-0.196,0.213-0.185,0.345c0.011,0.261,0.203,0.445,0.41,0.585c0.189,0.156,0.391,0.235,0.508,0.308
								C447.866,400.753,447.932,400.789,447.932,400.789z"/>
						</g>
					</g>
				</g>
				<g>
					<g>
						<g>
							<path d="M436.791,394.6c0,0-0.034,0.779,0.276,1.907c0.148,0.562,0.364,1.217,0.665,1.872
								c0.292,0.641,0.72,1.329,1.181,1.608c0.406,0.283,1.115,0.286,1.884,0.187c0.753-0.087,1.518-0.191,2.166-0.17
								c0.651,0.014,1.179,0.138,1.51,0.282c0.33,0.146,0.487,0.256,0.487,0.256s-0.2-0.006-0.532,0.016
								c-0.334,0.024-0.794,0.126-1.336,0.318c-0.55,0.188-1.17,0.481-1.973,0.75c-0.399,0.132-0.852,0.259-1.395,0.285
								c-0.532,0.032-1.199-0.075-1.756-0.436c-0.558-0.354-0.91-0.833-1.151-1.287c-0.248-0.458-0.399-0.912-0.495-1.343
								c-0.195-0.864-0.199-1.641-0.134-2.281c0.067-0.641,0.216-1.146,0.352-1.477c0.064-0.166,0.131-0.288,0.181-0.368
								C436.766,394.641,436.791,394.6,436.791,394.6z"/>
						</g>
					</g>
				</g>
				<g>
					<g>
						<g>
							<path d="M422.184,395.096c0,0,0.095-0.263,0.265-0.736c0.103-0.232,0.28-0.506,0.53-0.803
								c0.153-0.123,0.312-0.284,0.517-0.399c0.218-0.071,0.465-0.223,0.729-0.222c1.101-0.117,2.208,0.44,3.208,1.02
								c0.513,0.298,1.02,0.607,1.527,0.886c0.495,0.262,1.023,0.449,1.29,0.4c0.037-0.004,0.075-0.002,0.099,0.001l0.128-0.028
								c0.165-0.034,0.26-0.073,0.369-0.166c0.109-0.092,0.228-0.265,0.328-0.492c0.21-0.448,0.354-1.023,0.554-1.589
								c0.097-0.284,0.218-0.578,0.367-0.863c0.084-0.108,0.177-0.382,0.362-0.488c0.114-0.09,0.227-0.179,0.337-0.266
								c0.431-0.314,0.849-0.571,1.245-0.778c0.791-0.416,1.495-0.63,1.994-0.677c0.494-0.066,0.763,0.022,0.759,0.003
								c0,0.001-1.065,0.224-2.267,1.382c-0.305,0.275-0.623,0.593-0.942,0.946l-0.221,0.259c-0.036,0.047-0.007,0.051-0.061,0.168
								c-0.061,0.208-0.118,0.436-0.165,0.699c-0.105,0.522-0.167,1.126-0.415,1.828c-0.121,0.346-0.308,0.741-0.655,1.098
								c-0.341,0.361-0.855,0.61-1.34,0.682c0.028-0.006,0.057-0.012,0.128-0.028c-0.082,0.013-0.226,0.037-0.372,0.06
								c-1.077,0.1-1.786-0.355-2.374-0.691c-0.57-0.372-1.061-0.757-1.506-1.109c-0.889-0.713-1.67-1.272-2.353-1.373
								c-0.693-0.14-1.237,0.384-1.572,0.698C422.36,394.888,422.184,395.096,422.184,395.096z"/>
						</g>
					</g>
				</g>
				<g>
					<g>
						<g>
							<path d="M420.45,387.42c0,0,0.302-0.041,0.846-0.116c0.548-0.052,1.348-0.123,2.354-0.066
								c0.503,0.035,1.058,0.098,1.655,0.225c0.368,0.099,0.888,0.304,1.376,0.48c0.248,0.111,0.5,0.223,0.755,0.337l0.396,0.178
								c0.115,0.024,0.029,0.074-0.017,0.12l-0.146,0.139c-0.397,0.37-0.797,0.772-1.248,1.132
								c-0.339,0.273-0.685,0.552-1.037,0.836c-0.252,0.217-0.513,0.437-0.723,0.657c-0.129,0.112-0.183,0.214-0.268,0.313
								c-0.138,0.117-0.004,0.142-0.158,0.175l-0.006,0.144c-0.013,0.045-0.035,0.126-0.059,0.206
								c-0.036,0.098-0.074,0.202-0.053,0.229c-0.009,0.05-0.022,0.099,0,0.094c-0.027,0.024,0.076,0.13,0.244,0.272
								c0.362,0.269,0.889,0.684,1.175,1.103c-0.018-0.024-0.03-0.037-0.041-0.051c0.788,0.992,1.354,1.961,1.852,2.783
								c0.486,0.832,0.951,1.486,1.389,2.006c0.453,0.493,0.851,0.87,1.158,1.076c0.299,0.23,0.459,0.354,0.459,0.354
								s-0.191-0.067-0.547-0.193c-0.37-0.112-0.873-0.369-1.484-0.774c-0.589-0.425-1.257-1.039-1.896-1.794
								c-0.65-0.747-1.325-1.592-2.11-2.408l-0.042-0.051c-0.178-0.161-0.415-0.335-0.945-0.684
								c-0.241-0.191-0.64-0.454-0.842-1.003c-0.129-0.273-0.138-0.524-0.128-0.78c-0.01-0.282,0.056-0.468,0.117-0.663
								c0.053-0.162,0.105-0.322,0.136-0.414c-0.018,0.052-0.036,0.105-0.045,0.133c0.229-0.66,0.581-1.019,0.882-1.304
								c0.311-0.296,0.618-0.521,0.92-0.744l0.444-0.308c0.138-0.093,0.111-0.062,0.18-0.102c0.096-0.05,0.122-0.043,0.213-0.092
								c0.107-0.043,0.004-0.071-0.013-0.123c-0.062-0.046-0.064-0.083-0.235-0.16c-0.503-0.205-0.993-0.366-1.448-0.502
								c-0.916-0.261-1.691-0.404-2.224-0.511C420.748,387.473,420.45,387.42,420.45,387.42z"/>
						</g>
					</g>
				</g>
				<g>
					<g>
						<g>
							<path d="M421.688,381.478c0,0,0.277-0.102,0.776-0.287c0.514-0.138,1.278-0.327,2.246-0.373
								c0.485-0.04,1.019-0.02,1.597,0.012c0.289,0.039,0.589,0.079,0.897,0.121c0.166,0.032,0.286,0.06,0.495,0.122
								c0.257,0.087,0.517,0.175,0.78,0.264c0.262,0.112,0.526,0.226,0.795,0.34l0.412,0.179c0.044,0.036,0.196,0.049,0.153,0.104
								l-0.134,0.168c-0.376,0.468-0.76,0.946-1.15,1.433c-0.424,0.567-0.669,1.042-1.188,1.743
								c-0.522,0.696-1.394,1.218-2.132,1.39c-0.731,0.194-1.438,0.251-2.014,0.328c-1.2,0.14-2.222,0.274-2.863,0.724
								c-0.648,0.445-0.978,1.146-1.14,1.624c-0.164,0.497-0.255,0.774-0.255,0.774s-0.006-0.296-0.015-0.828
								c0.014-0.52,0.097-1.389,0.817-2.224c0.749-0.838,1.988-1.224,3.189-1.534c0.629-0.168,1.215-0.284,1.766-0.471
								c0.557-0.193,0.905-0.436,1.259-0.871c0.331-0.442,0.792-1.166,1.208-1.649c-0.004,0.028,0.044-0.008,0.085-0.027
								c0.044-0.026,0.006-0.047-0.011-0.084c-0.013-0.015-0.03-0.031-0.053-0.05c-0.072-0.033-0.233-0.106-0.35-0.146
								c-0.263-0.084-0.517-0.165-0.763-0.244c-0.508-0.124-0.985-0.25-1.435-0.318c-0.895-0.171-1.639-0.207-2.16-0.234
								C421.979,381.474,421.688,381.478,421.688,381.478z"/>
						</g>
					</g>
				</g>
				<g>
					<g>
						<g>
							<path d="M427.63,384.697c0,0-0.185,0.046-0.512,0.13c-0.33,0.087-0.812,0.172-1.433,0.235
								c-0.614,0.012-1.438,0.029-2.277-0.372c-0.822-0.379-1.578-0.997-2.197-1.69c-0.611-0.64-1.038-1.183-1.591-1.478
								c-0.535-0.308-1.172-0.471-1.738-0.596c-1.148-0.231-1.889-0.438-1.889-0.438c0-0.001,0.712-0.234,1.91-0.444
								c0.602-0.087,1.387-0.169,2.298,0.108c0.929,0.264,1.697,1.011,2.312,1.659c0.571,0.642,1.1,1.179,1.618,1.579
								c0.506,0.41,1.115,0.596,1.648,0.795C426.91,384.499,427.63,384.697,427.63,384.697z"/>
						</g>
					</g>
				</g>
			</g>
			<g>
				<g>
					<g>
						<g>
							<path d="M324.153,371.328c0,0-0.121-0.124-0.341-0.349c-0.246-0.225-0.505-0.612-0.81-1.137
								c-0.063-0.133-0.129-0.273-0.199-0.419l-0.104-0.228l-0.053-0.118c-0.011-0.012-0.017-0.017-0.028-0.036
								c-0.091-0.098-0.107-0.247-0.262-0.117c-0.056,0.04-0.098,0.075-0.124,0.107c-0.083,0.05-0.333,0.177-0.505,0.265
								c-0.204,0.1-0.41,0.201-0.677,0.295c-0.112,0.049-0.291,0.092-0.519,0.11c-0.221,0.048-0.427-0.068-0.657-0.06
								c-0.257-0.15-0.519-0.207-0.773-0.5c-0.282-0.27-0.445-0.661-0.521-0.983c-0.133-0.718-0.105-1.09-0.205-1.349
								c-0.059-0.121-0.112-0.256-0.208-0.386c-0.095-0.113-0.204-0.229-0.389-0.378c-0.355-0.276-0.809-0.738-0.99-1.2
								c-0.257-0.549-0.211-1-0.165-1.379c0.599-1.38-0.727-1.504-0.639-1.546c0.003,0.014,0.207-0.051,0.631,0.022
								c0.216,0.04,0.519,0.175,0.669,0.506c0.162,0.358,0.158,0.712,0.22,1.016c0.048,0.294,0.162,0.628,0.322,0.77
								c0.202,0.251,0.41,0.374,0.806,0.594c0.19,0.104,0.45,0.271,0.692,0.49c0.229,0.219,0.425,0.497,0.595,0.813
								c0.308,0.65,0.3,1.327,0.377,1.627c0.035,0.125,0.054,0.166,0.074,0.183c-0.011,0.022,0.027,0.036,0.057,0.051
								c0.042,0.022,0.009,0.023,0.016,0.034c0.029-0.009-0.053,0.048,0.15-0.001c0.161-0.033,0.358-0.095,0.551-0.154
								c0.223-0.069,0.441-0.136,0.654-0.202c0.357-0.125,0.677-0.159,0.976-0.191c0.15-0.009,0.299-0.018,0.444-0.027
								c0.03,0.008,0.086-0.026,0.092,0.017l0.027,0.115l0.052,0.224c0.061,0.282,0.121,0.555,0.178,0.819l0.039,0.2l0.015,0.118
								l0.029,0.23c0.017,0.151,0.034,0.297,0.05,0.435c0.102,0.53,0.182,0.976,0.303,1.255
								C324.1,371.164,324.153,371.328,324.153,371.328z"/>
						</g>
					</g>
				</g>
				<g>
					<g>
						<g>
							<path d="M327.123,367.862c0,0-0.165-0.022-0.494-0.1c-0.297-0.116-0.784-0.369-1.129-0.925
								c-0.352-0.539-0.545-1.262-0.704-1.95c-0.084-0.333-0.161-0.681-0.271-0.926c-0.023-0.066-0.061-0.109-0.082-0.157
								c-0.017-0.036-0.017-0.02-0.021-0.022c-0.006,0.002-0.007,0.007-0.007,0.007v-0.004c0.007-0.01-0.009-0.006-0.047,0.013
								c-0.15,0.1-0.296,0.198-0.441,0.294c-0.348,0.213-0.653,0.404-1.076,0.569c-0.101,0.045-0.24,0.088-0.392,0.103
								c-0.149,0.026-0.284,0.05-0.398,0.016c-0.232-0.038-0.382-0.089-0.562-0.135c-0.325-0.106-0.581-0.241-0.831-0.351
								c-0.952-0.489-1.467-0.889-1.467-0.889s0.663,0.017,1.684,0.083c0.249,0,0.535,0.031,0.806,0.023
								c0.119-0.009,0.242-0.018,0.369-0.028c0.11-0.013,0.056-0.035,0.159-0.108c0.191-0.138,0.466-0.382,0.725-0.604
								c0.43-0.372,0.875-0.758,1.333-1.154c0.11,0.056,0.302,0.154,0.495,0.252c0.179,0.081,0.339,0.19,0.491,0.308
								c0.161,0.105,0.311,0.223,0.416,0.398c0.113,0.158,0.256,0.313,0.306,0.469c0.054,0.136,0.113,0.267,0.142,0.389
								c0.136,0.5,0.136,0.906,0.146,1.284c-0.003,0.735-0.042,1.312,0.037,1.776c0.067,0.466,0.285,0.798,0.468,1.039
								C326.999,367.743,327.123,367.862,327.123,367.862z"/>
						</g>
					</g>
				</g>
				<g>
					<g>
						<g>
							<path d="M321.43,381.478c-0.009,0.007,0.151,0.091,0.354,0.358c0.21,0.258,0.414,0.767,0.39,1.396
								c-0.028,1.276-0.78,2.772-1.748,4.105c-0.961,1.337-2.018,2.372-2.342,3.185c-0.171,0.39-0.092,0.744,0.076,0.989
								c0.159,0.242,0.308,0.359,0.299,0.365c0.004-0.011-0.175-0.011-0.48-0.156c-0.297-0.112-0.766-0.594-0.771-1.302
								c-0.009-1.381,0.854-2.781,1.788-4.112c0.964-1.325,1.918-2.369,2.313-3.246c0.207-0.433,0.258-0.83,0.219-1.119
								C321.498,381.65,321.419,381.481,321.43,381.478z"/>
						</g>
					</g>
				</g>
				<g>
					<g>
						<g>
							<path d="M327.37,382.964c0.025,0.012-0.431,0.499-0.528,1.297c-0.131,0.788,0.134,1.914,0.182,3.337
								c0.076,1.406-0.281,2.888-0.907,3.723c-0.628,0.845-1.251,1.03-1.223,1.051c0,0,0.053-0.142,0.148-0.392
								c0.109-0.231,0.192-0.597,0.266-1.008c0.129-0.851,0.018-1.943-0.046-3.324c-0.043-1.349,0.104-2.834,0.772-3.737
								C326.696,383.009,327.41,382.994,327.37,382.964z"/>
						</g>
					</g>
				</g>
				<g>
					<g>
						<g>
							<path d="M322.172,382.469c0,0-0.197-0.198-0.492-0.598c-0.306-0.391-0.71-0.991-1.245-1.646
								c-0.265-0.307-0.589-0.687-0.89-0.833c-0.276-0.168-0.628-0.163-1.085-0.04c-0.461,0.115-1.006,0.366-1.693,0.548
								c-0.338,0.095-0.735,0.16-1.16,0.159c-0.427,0.01-0.896-0.112-1.278-0.28c-0.762-0.289-1.449-0.955-1.812-1.504
								c-0.396-0.559-0.545-0.796-0.9-0.928c-0.787-0.308-1.792-0.063-2.581,0.17c-0.794,0.253-1.437,0.547-1.841,0.804
								c-0.218,0.115-0.357,0.236-0.462,0.314c-0.105,0.079-0.16,0.121-0.16,0.121c0.01,0.011,0.111-0.256,0.441-0.644
								c0.32-0.4,0.866-0.902,1.65-1.395c0.194-0.127,0.407-0.248,0.642-0.354c0.227-0.121,0.479-0.222,0.756-0.308
								c0.262-0.108,0.586-0.145,0.91-0.2c0.332-0.005,0.676-0.009,1.046,0.06c0.191,0.058,0.386,0.124,0.58,0.199
								c0.187,0.086,0.351,0.225,0.525,0.348c0.309,0.258,0.546,0.56,0.729,0.781c0.384,0.459,0.676,0.707,1.169,0.914
								c0.765,0.421,1.836-0.082,3.186-0.272c0.666-0.092,1.511,0.027,2.04,0.527c0.528,0.469,0.716,0.931,0.934,1.344
								c0.385,0.833,0.582,1.518,0.742,1.985C322.07,382.214,322.172,382.469,322.172,382.469z"/>
						</g>
					</g>
				</g>
				<g>
					<g>
						<g>
							<path d="M326.876,377.022c0,0-0.231,0.006-0.644,0.016c-0.427,0.034-1.049-0.094-1.77-0.353
								c-0.73-0.267-1.495-0.698-2.301-1.055c-0.802-0.332-1.647-0.472-2.577-0.449c-0.922,0.082-1.794,0.365-2.593,0.737
								c-0.795,0.385-1.519,0.832-2.141,1.201c-1.244,0.756-2.086,1.142-2.086,1.142s0.557-0.722,1.525-1.821
								c0.493-0.545,1.102-1.192,1.939-1.798c0.842-0.591,1.955-1.112,3.237-1.218c1.281-0.058,2.514,0.32,3.4,0.898
								c0.858,0.577,1.476,1.179,2.02,1.592c0.547,0.415,1.027,0.73,1.404,0.857C326.666,376.931,326.876,377.022,326.876,377.022z"
								/>
						</g>
					</g>
				</g>
			</g>
		</g>
		<g>
			<g>
				<g>
					<path fill="#FFFFFF" d="M338,382.334c0,0-0.504-0.021-1.063-0.255c-0.579-0.26-1.109-0.628-1.193-1.138
						c-0.069-0.417,0.364-0.897,0.765-1.229c0.464-0.402,0.824-0.713,0.824-0.713s0.504,0.021,1.062,0.255
						c0.579,0.26,1.109,0.628,1.193,1.138c0.069,0.417-0.364,0.896-0.765,1.228C338.36,382.023,338,382.334,338,382.334z"/>
				</g>
			</g>
		</g>
		<g>
			<g>
				<g>
					<path fill="#FFFFFF" d="M444.668,390c0,0-0.484-0.228-0.966-0.615c-0.237-0.2-0.489-0.415-0.653-0.704
						c-0.162-0.293-0.259-0.629-0.231-0.969c0.123-0.737,0.747-1.308,1.385-1.503c0.615-0.226,1.132-0.209,1.132-0.209
						s0.291,0.386,0.682,0.904c0.301,0.473,0.736,0.917,0.656,1.29c-0.014,0.225-0.15,0.427-0.349,0.622
						c-0.197,0.2-0.433,0.428-0.68,0.599C445.155,389.769,444.668,390,444.668,390z"/>
				</g>
			</g>
		</g>
		<path fill="#C12929" d="M466.25,393.75c0.992,0.004,1.996-0.015,2.975,0.05c-0.668,1.71-2.876,3.015-4.28,3.895
			c-1.815,1.138-4.107,1.042-5.899,2.349c0.015,0.104,0.008,0.56-0.006,0.671c1.627,0.996,2.839-0.164,4.673,0.074
			c0.026,0.325,0.026,0.596-0.006,0.918c-12.397,3.672-30.1,10.149-40.769-0.894c-0.461-0.478-1.068-0.994-1.493-1.507
			c-0.211-0.255-1.03-0.307-1.213-0.605c-0.328-0.536,0.04-1.21-0.231-1.7c-0.181-0.326-0.078-0.978-0.238-1.317
			c-0.148-0.315-0.897-0.325-1.08-0.614c-0.511-0.808-1.02-1.313-1.143-2.286c1.218,0.418,2.662,3.207,3.767,4.163
			c1.498,1.296,2.302,3.178,4.401,3.272c0.651-2.129-1.397-2.247-2.45-3.529c-1.034-1.261-0.729-3.215-2.468-4.15
			c1.38,2.007,4.175,5.354,6.518,6.156c1.595,0.547,3.824,0.495,5.438,0.812c1.659,0.327,3.356,0.913,5.014,1.236
			c3.079,0.599,8.026-0.186,10.938-1.299c1.996-0.764,2.926-1.077,5.306-1.194c1.952-0.097,3.532-0.55,5.25-1.25
			c2.037-0.83,4.138-2.059,6.25-2.75"/>
		<path fill="#C12929" d="M361.75,388c2.694,7.323-10.111,7.237-13.974,9.312c1.354,1.065,3.874,0.171,5.461,0.175
			c2.039,0.004,3.729,0.7,5.743,0.568c-1.508,0.391-2.753,1.395-4.237,1.938c-1.748,0.639-4.072,0.16-5.993,0.257
			c-3.93,0.197-7.857,0.938-11.75,1c-3.706,0.06-7.424-1.168-11-1.75c-3.46-0.564-6.888-1.673-10.188-3.062
			c-2.372-0.998-4.353-2.764-6.537-3.986c1.633-1.581,4.415,1.391,6.176,2.099c2.035,0.816,4.113,2.136,6.761,1.912
			c0.434-1.81-2.534-2.614-3.919-3.006c-0.069-0.864-0.526-1.488-1.268-1.906c3.168-0.606,6.359,2.982,9.043,4.131
			c2.787,1.193,8.002,1.775,11.137,1.613c0.684,3.845,4.309-0.7,5.037-1.3c1.814-1.494,4.764-1.497,7.256-1.494
			c2.944,0.003,4.907-0.02,7.431-1.319c2.528-1.303,2.77-2.989,4.569-4.681"/>
	</g>
</g>
</svg>
