<?xml version="1.0" encoding="utf-8"?>
<!-- Generator: Adobe Illustrator 25.0.1, SVG Export Plug-In . SVG Version: 6.00 Build 0)  -->
<svg version="1.1" id="Capa_1" xmlns="http://www.w3.org/2000/svg" xmlns:xlink="http://www.w3.org/1999/xlink" x="0px" y="0px"
	 viewBox="0 0 800 800" enable-background="new 0 0 800 800" xml:space="preserve">
<g id="ojos">
	<g id="_x31_0">
		<path opacity="0.3" enable-background="new    " d="M372.527,380.473c-2.532-8.9-16.441-14.225-23.527-17.473l-0.5,1.5
			c-0.38-0.111-0.746-0.246-1.107-0.385c-1.038-0.596-2.063-1.191-3.061-1.781c-7.781-4.597-13.833-11.577-22.249-15.418
			c-5.175-2.362-18.012-8.292-23.417-3.583l0.429-0.086c-2.832,1.077-7.176,5.439-8.354,7.16c-2.486,3.628-2.779,9.43-3.814,13.593
			c-1.965,7.909-4.563,18.013-12.27,22.915c-1.243,0.791-2.588,1.398-3.872,2.102c6.149,0.1,12.562-0.351,18.882-0.351
			c5.278,0,13.862,2.088,18.541-0.344c-3.819-2.154,1.586-10.137,3.885-11.897c3.728-2.855,8.908-3.815,13.248-5.103
			c5.814-1.725,12.148-2.344,18.366-1.924c4.382,6.152,16.284,7.557,22.169,13.225c10.553,10.164,3.399,20.499,3.598,32.725
			C373.007,405.602,375.52,390.987,372.527,380.473z"/>
		<path opacity="0.3" enable-background="new    " d="M380.333,319.667c-7.452,0.646-12.401,7.858-19.26,10.406
			c-4.043,1.501-8.149,1.594-12.74,1.594c-4.771,0-8.236,0.879-12.567,1.665c10.139,0.011,18.194,2.178,26.476,7.418
			c7.398,4.681,13.592,12.286,21.758,15.583c7.595,3.067,14.764,1.149,20.615-4.284c-8.485,2.703-13.316-5.883-15.208-12.716
			C387.303,331.73,386.631,324.948,380.333,319.667"/>
		<path opacity="0.3" enable-background="new    " d="M474.667,343.667c6.02-0.605,5,7.999,5,11.381
			c1.282-5.08-7.466-4.455-10.25-3.631c-3.767,1.113-7.315,4.228-10.482,6.501c-3.275,2.351-6.275,4.86-9.517,7.165
			c-3.274,2.328-7.261,3.657-10.701,5.682c-0.124,0.122-0.121,0.125,0.01,0.01c9.727-13.444,17.552-26.107,35.94-26.107"/>
		<path opacity="0.3" enable-background="new    " d="M230.333,450.666c17.6-36.385,64.878-40.512,100.081-45.598
			c10.893-1.573,21.765-3.3,32.677-4.743c10.117-1.339,20.45-1.886,30.405-4.226c-0.335,0.079,5.803,5.797,6.327,6.142
			c2.529,1.668,5.334,3.064,8.108,4.262c21.025,9.071,49.164,4.596,64.51-13.145c4.054-4.686,8.325-10.886,10.559-16.691
			c6.334-1,23.696-3.355,30.334-7.333c-19.43,4.036-51.436,7-71.001,11.184c-19.554,4.182-39.713,6.011-58.704,10.777
			c-18.356,4.608-37.654,9.132-57.296,10.037c-10.678,0.492-19.83,2.7-29.963,4.704c-9.02,1.783-18.59,3.949-27.036,7.964
			c-8.375,3.98-15.196,9.186-21.832,15.834c-6.919,6.932-17.44,11.654-16.502,22.832"/>
		<g>
			<path fill="#EDEDE2" d="M306.281,363.216c1.748-0.708,3.955-0.525,5.886-0.744c1.886-0.213,3.673-0.901,5.622-1.007
				c4.119-0.224,8.35,2.034,12.264,2.998c3.559,0.876,6.402,1.726,9.749,3.631c3.052,1.738,4.948,3.951,5.129,7.504
				c0.13,2.585-1.178,4.849-0.349,7.478c0.661,2.094,1.97,3.805,4.09,4.502c-1.982,0.033-3.843-0.048-5.864,0.281
				c-1.932,0.314-3.938,0.372-6.007,0.372c-4.427,0-8.82,0.25-13.259,0.25c-8.601,0-17.161-0.238-25.516-1.373
				c-2.878-0.391-5.808-0.904-8.483-1.901c-0.187-1.357,2.28-2.85,3.23-3.604c1.391-1.105,2.812-2.228,3.975-3.634
				c2.461-2.977,4.02-6.568,6.25-9.656c1.48-2.049,3.409-3.965,4.535-6.222"/>
			<path fill="#EDEDE2" d="M397.531,318.711c4.598,0.136,9.904,5.192,12.663,8.724c3.381,4.326,6.53,7.75,11.96,9.275
				c-9.14,2.314-13.075,11.976-20.788,16.988c-9.922,6.447-17.748-1.49-25.221-7.972c-2.218-1.924-4-4.164-6.096-6.286
				c-2.387-2.415-4.619-3.051-7.74-4.304c3.684-4.458,8.909-10.765,13.836-13.715c5.432-3.253,16.426-5.463,22.888-3.086"/>
			<path d="M291.52,353.174c0.363-7.357,13.115-7.876,17.765-5.639c1.585,0.763,16.186,10.251,16.567,9.606
				c-0.043-0.003-0.086-0.006-0.13-0.008c-2.522-0.203-4.14-5.434-6.455-6.627c2.872-0.619,6.113,2.767,8.2,4.339
				c2.449,1.846,4.698,3.922,7.131,5.756c5.194,3.915,11.305,6.028,17.331,7.922c5.283,1.662,8.305,4.611,12.143,8.578
				c0.034-0.949,0.118-1.702,0.292-2.617c0.621,0.967,2.468,3.067,3.205,1.015c2.4-0.001,4.934,3.401,6.097,5.329
				c0.133-7.477-8.134-9.43-13.318-12.304c-5.401-2.992-9.479-7.459-14.168-11.624c-0.343-0.304-0.568-0.566-0.897-0.827
				c-0.093-0.091-0.09-0.094,0.007-0.008c1.653,1.897,2.257,4.791,3.576,6.975c-5.017-2.59-9.846-8.607-14.08-12.528
				c-4.714-4.364-9.057-8.351-15.042-10.46c-5.288-1.864-13.039-2.477-18.326-0.255c-4.947,2.079-10.185,6.854-9.648,12.633"/>
			<path d="M423.725,365.058c2.631-1.718,4.872-4.383,7.73-5.639c3.114-1.369,6.388-1.79,9.613-3.274
				c2.907-1.335,5.884-2.77,8.459-4.643c2.767-2.01,5.667-5.176,8.673-6.685c0.175-0.087,0.522-0.418,0.645-0.519
				c-0.871,1.13-2.007,2.251-2.902,3.385c5.197-2.128,8.083-5.875,14.328-5.651c2.616,0.094,5.059,0.537,7.124,2.284
				c2.251,1.902,2.018,3.969,2.531,6.554c-0.003-1.032,0.017-2.084-0.043-3.1c-9.741-3.919-19.413,4.446-26.671,10.057
				c2.08-0.505,4.576-1.832,5.688-3.818c-1.79,2.355-3.273,4.196-5.897,5.664c-1.341,0.749-2.707,1.333-4.078,1.863
				c-1.088,0.42-3.153,1.86-4.203,1.986c-1.575,0.191-3.102-0.698-4.903-0.693c-1.991,0.005-3.53,0.138-5.252,0.688
				c-2.965,0.947-6.684,2.375-9.85,2.282"/>
			<g>
				<g>
					<g>
						<path d="M428.818,337.724c0,0-0.276,0.017-0.804,0.05c-0.527,0.025-1.305,0.092-2.312,0.089
							c-1.996-0.001-5.01,0.086-8.615-1.274c-0.444-0.188-0.898-0.381-1.363-0.578c-0.472-0.191-0.888-0.511-1.351-0.777
							c-0.954-0.515-1.757-1.27-2.626-2.031c-1.647-1.518-3.1-3.347-4.58-5.087c-1.486-1.744-2.995-3.319-4.871-4.336
							c-1.915-1.078-4.168-1.76-6.597-2.085c-2.442-0.325-4.867-0.308-7.27-0.032c-1.206,0.164-2.446,0.269-3.577,0.461
							c-1.128,0.181-2.215,0.438-3.271,0.726c-4.225,1.172-7.746,3.296-10.59,5.282c-2.827,2.031-5.002,3.93-6.51,5.232
							c-1.505,1.318-2.337,2.048-2.337,2.048s0.602-0.932,1.783-2.555c1.188-1.618,2.937-3.952,5.509-6.559
							c2.588-2.549,6.1-5.456,10.836-7.288c1.177-0.448,2.41-0.853,3.697-1.16c1.277-0.314,2.539-0.502,3.858-0.749
							c2.658-0.445,5.581-0.567,8.519-0.171c2.942,0.392,5.842,1.334,8.317,2.903c0.614,0.42,1.257,0.791,1.778,1.296
							c0.549,0.475,1.092,0.947,1.53,1.466c0.475,0.504,0.914,1.01,1.292,1.525c0.406,0.511,0.776,1.016,1.113,1.513
							c1.382,1.988,2.52,3.818,3.77,5.323c0.621,0.705,1.189,1.447,1.896,1.964c0.344,0.271,0.641,0.604,1.008,0.82
							c0.363,0.229,0.718,0.454,1.063,0.674c2.859,1.699,5.743,2.269,7.66,2.698c0.969,0.226,1.736,0.346,2.253,0.452
							C428.546,337.67,428.818,337.724,428.818,337.724z"/>
					</g>
				</g>
			</g>
			<g>
				<g>
					<g>
						<path d="M349.932,334.754c0,0,0.317-0.047,0.922-0.136c0.606-0.084,1.498-0.23,2.661-0.322
							c2.306-0.188,5.779-0.468,10.022,0.763c0.539,0.122,1.055,0.347,1.59,0.569c0.526,0.236,1.105,0.413,1.624,0.723
							c0.527,0.303,1.064,0.612,1.611,0.927c0.558,0.312,1.027,0.713,1.56,1.08c2.059,1.526,4.018,3.405,5.931,5.389
							c3.807,3.927,7.651,8.457,12.843,9.659c0.662,0.086,1.306,0.231,1.967,0.298c0.673,0.004,1.335,0.06,2.004,0.046
							c0.678-0.06,1.351-0.118,2.018-0.177c0.317-0.043,0.602-0.114,0.905-0.164c0.298-0.07,0.595-0.166,0.893-0.243
							c2.378-0.752,4.61-2.258,6.669-3.849c4.108-3.255,7.693-6.817,11.27-9.178c1.775-1.193,3.522-2.12,5.164-2.662
							c1.637-0.554,3.127-0.744,4.322-0.726c1.199,0.041,2.1,0.212,2.693,0.376c0.588,0.174,0.896,0.266,0.896,0.266
							s-0.319-0.021-0.928-0.061c-0.602-0.034-1.497-0.01-2.602,0.168c-1.104,0.202-2.405,0.627-3.779,1.374
							c-1.38,0.737-2.813,1.822-4.291,3.163c-2.995,2.662-5.982,6.479-10.118,10.37c-2.1,1.901-4.546,3.895-7.803,5.111
							c-0.413,0.134-0.823,0.28-1.249,0.397c-0.431,0.098-0.876,0.214-1.304,0.288c-0.834,0.098-1.675,0.196-2.522,0.294
							c-0.859,0.042-1.744-0.003-2.624-0.016c-0.884-0.075-1.778-0.253-2.672-0.393c-3.591-0.839-6.621-2.891-8.924-5.062
							c-2.333-2.19-4.137-4.497-5.857-6.58c-3.392-4.191-6.571-7.583-10.144-9.141c-3.539-1.63-6.902-2.012-9.169-2.259
							c-1.145-0.133-2.042-0.175-2.65-0.223C350.252,334.779,349.932,334.754,349.932,334.754z"/>
					</g>
				</g>
			</g>
			<g>
				<g>
					<g>
						<path d="M535.666,365.332c0,0-4.825,0.966-13.551,2.713c-8.754,1.589-21.438,3.826-37.11,6.507
							c-3.927,0.648-8.004,1.435-12.266,2.203c-2.13,0.39-4.303,0.788-6.516,1.193c-2.219,0.438-4.478,0.883-6.776,1.337
							c-4.591,0.877-9.34,1.784-14.23,2.718c-2.432,0.494-4.908,0.96-7.4,1.493c-2.478,0.575-4.99,1.158-7.534,1.748
							c-10.21,2.476-21.013,5.188-32.387,6.935c-2.829,0.534-5.705,0.909-8.603,1.298c-2.894,0.39-5.811,0.783-8.749,1.179
							c-5.804,0.744-11.743,1.651-17.728,2.561c-23.953,3.72-46.761,7.492-67.327,11.609c-5.135,1.046-10.134,2.115-14.919,3.332
							c-2.395,0.601-4.731,1.259-6.951,2.008c-1.11,0.384-2.148,0.793-3.168,1.317c-0.512,0.262-1.022,0.522-1.53,0.781
							c-0.512,0.25-1.016,0.517-1.5,0.831c-0.98,0.597-1.953,1.188-2.917,1.775c-0.94,0.638-1.872,1.27-2.796,1.896
							c-1.872,1.215-3.588,2.598-5.336,3.852c-1.72,1.296-3.341,2.649-4.965,3.929c-1.583,1.326-3.09,2.672-4.587,3.96
							c-1.457,1.328-2.821,2.686-4.185,3.976c-1.335,1.315-2.52,2.699-3.738,3.99c-0.636,0.634-1.114,1.337-1.629,2.009
							c-0.528,0.656-0.977,1.378-1.424,2.081c-0.927,1.385-1.729,2.799-2.507,4.163c-3.07,5.484-5.391,10.406-7.184,14.467
							c-1.774,4.069-3.081,7.268-3.884,9.465c-0.831,2.189-1.267,3.34-1.267,3.34s0.382-1.169,1.11-3.396
							c0.704-2.235,1.87-5.49,3.481-9.643c1.632-4.145,3.764-9.169,6.665-14.82c0.737-1.407,1.497-2.865,2.398-4.319
							c0.433-0.735,0.864-1.486,1.403-2.208c0.517-0.728,1.016-1.501,1.631-2.157c1.194-1.355,2.365-2.814,3.68-4.195
							c1.341-1.353,2.688-2.777,4.127-4.172c1.476-1.352,2.966-2.764,4.533-4.156c1.608-1.344,3.214-2.763,4.924-4.127
							c1.741-1.325,3.442-2.771,5.324-4.064c0.928-0.664,1.864-1.334,2.809-2.009c0.983-0.633,1.975-1.271,2.976-1.915
							c0.98-0.668,2.107-1.181,3.17-1.785c1.082-0.588,2.267-1.089,3.431-1.52c2.34-0.85,4.718-1.572,7.142-2.235
							c4.845-1.34,9.856-2.513,15.005-3.655c20.607-4.497,43.402-8.512,67.418-12.242c6.014-0.914,11.934-1.804,17.857-2.535
							c2.92-0.376,5.82-0.749,8.696-1.119c2.873-0.365,5.725-0.713,8.525-1.216c11.278-1.624,21.952-4.151,32.215-6.452
							c2.589-0.551,5.146-1.095,7.668-1.632c2.527-0.491,5.028-0.909,7.488-1.355c4.918-0.884,9.703-1.588,14.301-2.397
							c2.3-0.394,4.56-0.781,6.779-1.161c2.235-0.348,4.429-0.689,6.579-1.024c4.302-0.654,8.429-1.326,12.367-1.853
							c15.755-2.19,28.504-3.962,37.315-5.188C530.806,366.085,535.666,365.332,535.666,365.332z"/>
					</g>
				</g>
			</g>
			<path d="M394.161,390.865c-1.043-7.86,6.264-16.766,12.614-21.042c7.599-5.117,17.357-8.055,25.995-9.331
				c10.176-1.503,20.673-0.634,29.465,3.227c7.26,3.188,18.731,6.065,17.413,15.924c-1.111,8.31-9.471,14.546-16.413,17.916
				c-7.847,3.81-16.742,7.469-25.158,8.838c-14.614,2.376-37.596,0.116-42.267-16.852"/>
			<path d="M433.439,374.032c0.211-7.647,10.746-14.242,16.173-18.154c6.368-4.589,14.397-12.873,23.105-10.893
				c2.372,0.54,3.143,1.765,4.563,3.589c-1.332-4.305-9.663-2.025-12.402-0.536c-3.628,1.971-7.031,4.471-10.233,7.261
				c-6.39,5.568-12.35,12.504-17.172,19.466c-0.738,1.068-1.495,2.286-2.317,3.193c0.216-1.223-0.141-2.14-0.726-2.938"/>
			<path d="M394.82,320.066c-5.276,0-7.956,1.608-9.911,6.592c-1.809,4.612,0.78,8.184,4.219,11.313
				c3.357,3.056,8.518,3.066,11.708-0.338c2.892-3.087,2.7-10.156-0.009-13.358c-2.209-2.613-4.909-3.764-7.986-4.54"/>
			<path d="M323.525,366.771c-5.441-0.153-9.024,4.058-6.674,9.315c1.766,3.949,5.523,6.783,9.645,7.188
				c5.194,0.51,10.867,0.564,11.224-5.61c0.291-5.053-2.646-8.767-7.19-9.975c-1.926-0.512-4.129-1.221-6.344-0.918"/>
			<g>
				<g>
					<g>
						<path d="M303.392,366.11c0,0-0.308,1.143-0.947,3.219c-0.198,0.506-0.419,1.069-0.661,1.685
							c-0.242,0.619-0.496,1.299-0.887,1.975c-0.372,0.685-0.743,1.442-1.201,2.208c-0.52,0.731-1.068,1.505-1.645,2.317
							c-1.234,1.506-2.653,3.042-4.16,4.739c-0.379,0.421-0.765,0.848-1.157,1.282c-0.17,0.211-0.195,0.277-0.277,0.397
							c-0.065,0.104-0.115,0.193-0.152,0.267c-0.06,0.049,0.065,0.041,0.134,0.047l0.209,0.008c0.126,0.005,0.237,0.001,0.331-0.006
							c0.032,0,0.025-0.007,0.085-0.003l0.477,0.065c0.319,0.044,0.639,0.088,0.961,0.133c1.286,0.184,2.634,0.306,3.984,0.477
							c1.352,0.174,2.742,0.302,4.146,0.456c1.406,0.148,2.832,0.299,4.276,0.452c5.776,0.626,11.284,1.106,16.282,1.499
							c1.247,0.075,2.464,0.148,3.647,0.22c1.185,0.094,2.329,0.053,3.443,0.092c2.221,0.078,4.311,0.032,6.221,0.01
							c3.824-0.039,6.939-0.13,9.094-0.108c2.153,0.016,3.344,0.025,3.344,0.025s-1.17,0.222-3.286,0.624
							c-2.117,0.366-5.168,0.975-8.985,1.536c-1.911,0.283-4.005,0.591-6.291,0.76c-1.14,0.083-2.323,0.243-3.539,0.261
							c-1.218,0.031-2.472,0.062-3.757,0.094c-5.127-0.006-10.748-0.234-16.603-0.869c-1.466-0.134-2.91-0.32-4.333-0.505
							c-1.423-0.187-2.824-0.361-4.199-0.596c-1.377-0.232-2.721-0.423-4.049-0.694c-0.332-0.067-0.662-0.133-0.989-0.2
							c-0.452-0.096-0.9-0.191-1.347-0.286c-1.16-0.243-2.284-0.5-3.365-0.793c-0.536-0.138-1.069-0.275-1.598-0.411l-0.778-0.202
							l-0.192-0.05c-0.058-0.019,0.072-0.091,0.099-0.134l0.305-0.298c0.798-0.774,1.585-1.539,2.36-2.292
							c0.735-0.708,1.46-1.404,2.172-2.09c0.432-0.388,0.857-0.77,1.275-1.146c1.662-1.505,3.282-2.875,4.667-4.16
							c0.637-0.671,1.244-1.311,1.817-1.915c0.53-0.646,0.984-1.298,1.441-1.889c0.476-0.58,0.823-1.185,1.157-1.736
							c0.339-0.552,0.648-1.056,0.927-1.51C302.843,367.162,303.392,366.11,303.392,366.11z"/>
					</g>
				</g>
			</g>
			<g>
				<g>
					<g>
						<path d="M347.292,387.234c0,0-0.221-0.138-0.641-0.401c-0.206-0.141-0.495-0.28-0.75-0.551
							c-0.258-0.263-0.628-0.52-0.886-0.947c-0.641-0.766-1.093-1.997-1.216-3.41c-0.138-1.417,0.034-2.997,0.136-4.621
							c0.107-1.62,0.034-3.301-0.673-4.648c-0.697-1.279-2.219-2.316-4.066-3.156c-1.838-0.85-3.971-1.502-6.24-2.16
							c-0.575-0.167-1.156-0.335-1.741-0.504c-0.604-0.184-1.213-0.37-1.827-0.557c-0.562-0.175-1.128-0.352-1.697-0.53
							c-0.568-0.183-1.138-0.379-1.729-0.476c-1.179-0.222-2.314-0.572-3.494-0.672c-1.167-0.148-2.308-0.349-3.475-0.378
							c-2.279-0.153-4.663-0.296-6.771-0.337c-2.138-0.04-4.14,0.024-5.942,0.317c-1.801,0.292-3.383,0.847-4.685,1.638
							c-2.63,1.579-4.059,3.956-4.905,5.562c-0.462,0.806-0.702,1.491-0.912,1.938c-0.2,0.454-0.305,0.692-0.305,0.692
							s0.046-0.256,0.133-0.742c0.102-0.484,0.187-1.221,0.478-2.128c0.246-0.92,0.631-2.038,1.285-3.267
							c0.17-0.306,0.347-0.622,0.529-0.95c0.223-0.305,0.453-0.62,0.69-0.944c0.226-0.338,0.52-0.634,0.82-0.943
							c0.3-0.31,0.6-0.642,0.969-0.909c1.391-1.183,3.225-2.129,5.249-2.72c2.028-0.596,4.226-0.9,6.498-1.059
							c2.307-0.155,4.559-0.178,7.079-0.13c1.24-0.024,2.522,0.143,3.819,0.278c1.302,0.085,2.6,0.448,3.92,0.705
							c0.668,0.116,1.298,0.333,1.925,0.542c0.628,0.209,1.251,0.416,1.87,0.622c1.157,0.39,2.298,0.774,3.419,1.151
							c2.306,0.792,4.578,1.65,6.661,2.843c1.038,0.6,2.039,1.26,2.924,2.102c0.438,0.427,0.858,0.858,1.226,1.383
							c0.396,0.484,0.616,1.097,0.894,1.627c0.839,2.315,0.489,4.451,0.136,6.099c-0.375,1.677-0.774,3.081-0.88,4.322
							c-0.116,1.23,0.041,2.303,0.456,3.086c0.143,0.427,0.425,0.72,0.609,1.02c0.181,0.308,0.419,0.496,0.583,0.676
							C347.11,387.048,347.292,387.234,347.292,387.234z"/>
					</g>
				</g>
			</g>
			<path d="M305.373,363.14c-7.495-0.975-10.83,10.898-11.568,16.058c1.495-1.602,4.097-3.264,4.635-4.884
				c-0.098,2.853,0.588,5.612-0.664,7.681c2.328-6.716,14.287-12.494,13.143-20.471c-1.219,0.962-2.691,1.72-4.226,1.946"/>
		</g>
		<g>
			<g>
				<g>
					<path d="M441,380.667c0,0,1.422-0.401,3.911-1.103c0.623-0.176,1.312-0.37,2.064-0.582c0.76-0.174,1.582-0.363,2.461-0.564
						c1.76-0.394,3.739-0.887,5.929-1.263c2.183-0.417,4.55-0.864,7.067-1.243c2.514-0.418,5.171-0.803,7.921-1.199
						c5.494-0.804,11.378-1.569,17.184-2.605c11.67-2.341,23.626-3.338,32.323-5.001c2.164-0.46,4.18-0.79,5.919-1.244
						c1.735-0.456,3.255-0.855,4.515-1.187c2.44-0.846,3.877-1.343,3.972-1.376c0.756-0.247,1.682,0.367,2.067,1.366
						c0.386,1.001,0.04,2.028-0.773,2.295c-0.102,0.031-1.646,0.499-4.271,1.296c-1.328,0.293-2.93,0.647-4.76,1.05
						c-1.828,0.397-3.9,0.653-6.144,1.034c-9.007,1.338-20.843,1.83-32.544,3.685c-5.915,0.807-11.816,1.329-17.338,1.907
						c-2.76,0.282-5.427,0.557-7.945,0.871c-2.526,0.274-4.899,0.624-7.091,0.949c-2.198,0.285-4.186,0.694-5.957,1.015
						c-0.885,0.165-1.713,0.319-2.478,0.461c-0.757,0.181-1.452,0.346-2.08,0.496C442.436,380.324,441,380.667,441,380.667z"/>
				</g>
			</g>
		</g>
		<g opacity="0.1">
			<g>
				<g>
					<path fill="#FFFFFF" d="M470.5,388c0,0-0.53,0.442-1.488,1.242c-0.476,0.407-1.084,0.869-1.795,1.402
						c-0.704,0.544-1.523,1.138-2.452,1.762c-1.836,1.285-4.116,2.675-6.712,4.111c-2.611,1.406-5.566,2.806-8.76,4.058
						c-3.203,1.23-6.349,2.151-9.243,2.835c-2.913,0.61-5.56,1.051-7.809,1.174c-1.117,0.108-2.135,0.123-3.026,0.119
						c-0.891,0.018-1.655,0.004-2.281-0.057C425.689,404.552,425,404.5,425,404.5s0.688-0.057,1.93-0.158
						c0.619-0.029,1.373-0.123,2.244-0.253c0.872-0.108,1.861-0.243,2.944-0.47c2.177-0.357,4.721-1.027,7.521-1.797
						c2.786-0.843,5.817-1.855,8.954-3.059c3.127-1.226,6.071-2.487,8.723-3.71c2.634-1.252,5.002-2.411,6.943-3.477
						c0.981-0.515,1.858-1.001,2.619-1.446c0.769-0.434,1.433-0.807,1.959-1.137C469.908,388.354,470.5,388,470.5,388z"/>
				</g>
			</g>
		</g>
		<g opacity="0.1">
			<g>
				<g>
					<path fill="#FFFFFF" d="M332.334,375.334c0,0-2.913-0.597-2.913-1.334s2.913-1.333,2.913-1.333s2.912,0.597,2.912,1.333
						S332.334,375.334,332.334,375.334z"/>
				</g>
			</g>
		</g>
		<g opacity="0.1">
			<g>
				<g>
					<path fill="#FFFFFF" d="M393,331.667c0,0-0.648-0.357-1.206-0.987c-0.267-0.314-0.56-0.694-0.648-1.101
						c-0.099-0.405-0.074-0.838,0.127-1.186c0.494-0.69,1.541-0.805,2.362-0.49c0.818,0.272,1.365,0.765,1.365,0.765
						s0.228,0.754,0.529,1.448c0.259,0.689,0.757,1.332,0.634,1.444c-0.04,0.1-0.245,0.094-0.553,0.078
						c-0.315-0.025-0.67-0.001-1.062-0.008C393.779,331.632,393.001,331.667,393,331.667z"/>
				</g>
			</g>
		</g>
		<g opacity="0.1">
			<g>
				<g>
					<path fill="#FFFFFF" d="M331.001,378.334c0,0-2.914-1.567-2.914-3.5s2.914-3.5,2.914-3.5s2.912,1.567,2.912,3.5
						C333.913,376.767,331.001,378.334,331.001,378.334z"/>
				</g>
			</g>
		</g>
	</g>
</g>
</svg>
