<?xml version="1.0" encoding="utf-8"?>
<!-- Generator: Adobe Illustrator 25.0.1, SVG Export Plug-In . SVG Version: 6.00 Build 0)  -->
<svg version="1.1" id="Capa_1" xmlns="http://www.w3.org/2000/svg" xmlns:xlink="http://www.w3.org/1999/xlink" x="0px" y="0px"
	 viewBox="0 0 800 800" enable-background="new 0 0 800 800" xml:space="preserve">
<g id="ojos">
	<g id="_x31_1">
		<path opacity="0.3" enable-background="new    " d="M362.5,357.25c-2.236-1.228-7.198,1.444-9.493,2.257
			c-3.597,1.274-7.02,1.254-10.987,1.549c3.103,1.705,7.454,1.15,10.98,1.998c3.786,0.911,7.143,2.786,10.743,4.258
			c7.714,3.152,15.544,4.938,24.189,4.938c5.836,0,11.86-0.836,17.568-0.056c5.146,0.704,11.079,3.907,16.213,3.519
			c0.383-3.247,3.156-7.866,1.799-11.462c-1.356-3.595-8.176-3.116-11.262-3.737c-4.085-0.822-8.149-1.653-12.5-1.264
			c-4.812,0.43-9.305,1.756-14.25,2c-7.37,0.364-15.896,0.576-22.25-3"/>
		<path opacity="0.3" enable-background="new    " d="M247.501,429.834c0.328-0.328,0.659-0.637,0.988-0.958
			c-2.712,2.026-5.258,4.256-7.621,6.702C243.136,433.708,245.473,431.865,247.501,429.834z"/>
		<path opacity="0.3" enable-background="new    " d="M230.999,452.666c-0.103-1.225-0.061-2.368,0.092-3.449
			c-0.251,0.484-0.518,0.952-0.758,1.449L230.999,452.666z"/>
		<path opacity="0.3" enable-background="new    " d="M231.091,449.217c2.687-5.185,5.98-9.706,9.777-13.639
			C236.248,439.39,231.923,443.323,231.091,449.217z"/>
		<path d="M352.202,358.185c3.848-0.565,7.75-2.397,11.613-2.326c4.211,0.077,8.108,1.303,12.503,1.309
			c3.961,0.008,8.051-0.06,11.916-0.828c4.152-0.823,9.055-2.876,13.215-3.012c0.242-0.007,0.806-0.199,0.994-0.249
			c-1.565,0.818-3.423,1.489-5.019,2.298c6.945,0.305,12.133-2.408,19.035,1.085c2.892,1.463,5.406,3.228,6.822,6.263
			c1.542,3.306,0.208,5.508-0.558,8.68c0.532-1.162,1.101-2.334,1.562-3.506c-8.915-9.459-24.125-5.077-35.193-2.537
			c2.6,0.512,6.094,0.315,8.373-1.34c-3.233,1.718-5.856,3.017-9.566,3.305c-1.895,0.146-3.734,0.094-5.55-0.022
			c-1.44-0.092-4.509,0.454-5.755,0.052c-1.868-0.605-3.123-2.395-5.15-3.324c-2.24-1.028-4.039-1.677-6.259-1.953
			c-3.824-0.474-8.744-0.799-12.254-2.545"/>
		<g>
			<g>
				<g>
					<path d="M535.666,365.332c0,0-4.825,0.966-13.551,2.713c-8.754,1.589-21.438,3.826-37.11,6.507
						c-3.927,0.648-8.004,1.435-12.266,2.203c-2.13,0.39-4.303,0.788-6.516,1.193c-2.219,0.438-4.478,0.883-6.776,1.337
						c-4.591,0.877-9.34,1.784-14.23,2.718c-2.432,0.494-4.908,0.96-7.4,1.493c-2.478,0.575-4.99,1.158-7.534,1.748
						c-10.21,2.476-21.013,5.188-32.387,6.935c-2.829,0.534-5.705,0.909-8.603,1.298c-2.894,0.39-5.811,0.783-8.749,1.179
						c-5.804,0.744-11.743,1.651-17.728,2.561c-23.953,3.72-46.761,7.492-67.327,11.609c-5.135,1.046-10.134,2.115-14.919,3.332
						c-2.395,0.601-4.731,1.259-6.951,2.008c-1.11,0.384-2.148,0.793-3.168,1.317c-0.512,0.262-1.022,0.522-1.53,0.781
						c-0.512,0.25-1.016,0.517-1.5,0.831c-0.98,0.597-1.953,1.188-2.917,1.775c-0.94,0.638-1.872,1.27-2.796,1.896
						c-1.872,1.215-3.588,2.598-5.336,3.852c-1.72,1.296-3.341,2.649-4.965,3.929c-1.583,1.326-3.09,2.672-4.587,3.96
						c-1.457,1.328-2.821,2.686-4.185,3.976c-1.335,1.315-2.52,2.699-3.738,3.99c-0.636,0.634-1.114,1.337-1.629,2.009
						c-0.528,0.656-0.977,1.378-1.424,2.081c-0.927,1.385-1.729,2.799-2.507,4.163c-3.07,5.484-5.391,10.406-7.184,14.467
						c-1.774,4.069-3.081,7.268-3.884,9.465c-0.831,2.189-1.267,3.34-1.267,3.34s0.382-1.169,1.11-3.396
						c0.704-2.235,1.87-5.49,3.481-9.643c1.632-4.145,3.764-9.169,6.665-14.82c0.737-1.407,1.497-2.865,2.398-4.319
						c0.433-0.735,0.864-1.486,1.403-2.208c0.517-0.728,1.016-1.501,1.631-2.157c1.194-1.355,2.365-2.814,3.68-4.195
						c1.341-1.353,2.688-2.777,4.127-4.172c1.476-1.352,2.966-2.764,4.533-4.156c1.608-1.344,3.214-2.763,4.924-4.127
						c1.741-1.325,3.442-2.771,5.324-4.064c0.928-0.664,1.864-1.334,2.809-2.009c0.983-0.633,1.975-1.271,2.976-1.915
						c0.98-0.668,2.107-1.181,3.17-1.785c1.082-0.588,2.267-1.089,3.431-1.52c2.34-0.85,4.718-1.572,7.142-2.235
						c4.845-1.34,9.856-2.513,15.005-3.655c20.607-4.497,43.402-8.512,67.418-12.242c6.014-0.914,11.934-1.804,17.857-2.535
						c2.92-0.376,5.82-0.749,8.696-1.119c2.873-0.365,5.725-0.713,8.525-1.216c11.278-1.624,21.952-4.151,32.215-6.452
						c2.589-0.551,5.146-1.095,7.668-1.632c2.527-0.491,5.028-0.909,7.488-1.355c4.918-0.884,9.703-1.588,14.301-2.397
						c2.3-0.394,4.56-0.781,6.779-1.161c2.235-0.348,4.429-0.689,6.579-1.024c4.302-0.654,8.429-1.326,12.367-1.853
						c15.755-2.19,28.504-3.962,37.315-5.188C530.806,366.085,535.666,365.332,535.666,365.332z"/>
				</g>
			</g>
		</g>
		<path d="M332.185,400.982c-1.291-9.729,7.753-20.753,15.615-26.048c9.406-6.335,21.486-9.971,32.178-11.55
			c12.596-1.86,25.59-0.785,36.473,3.995c8.987,3.946,23.188,7.507,21.556,19.711c-1.376,10.287-11.724,18.006-20.317,22.178
			c-9.713,4.716-20.725,9.245-31.143,10.94c-18.09,2.94-46.538,0.143-52.32-20.86"/>
		<g>
			<g>
				<g>
					<path d="M441,380.667c0,0,1.422-0.401,3.911-1.103c0.623-0.176,1.312-0.37,2.064-0.582c0.76-0.174,1.582-0.363,2.461-0.564
						c1.76-0.394,3.739-0.887,5.929-1.263c2.183-0.417,4.55-0.864,7.067-1.243c2.514-0.418,5.171-0.803,7.921-1.199
						c5.494-0.804,11.378-1.569,17.184-2.605c11.67-2.341,23.626-3.338,32.323-5.001c2.164-0.46,4.18-0.79,5.919-1.244
						c1.735-0.456,3.255-0.855,4.515-1.187c2.44-0.846,3.877-1.343,3.972-1.376c0.756-0.247,1.682,0.367,2.067,1.366
						c0.386,1.001,0.04,2.028-0.773,2.295c-0.102,0.031-1.646,0.499-4.271,1.296c-1.328,0.293-2.93,0.647-4.76,1.05
						c-1.828,0.397-3.9,0.653-6.144,1.034c-9.007,1.338-20.843,1.83-32.544,3.685c-5.915,0.807-11.816,1.329-17.338,1.907
						c-2.76,0.282-5.427,0.557-7.945,0.871c-2.526,0.274-4.899,0.624-7.091,0.949c-2.198,0.285-4.186,0.694-5.957,1.015
						c-0.885,0.165-1.713,0.319-2.478,0.461c-0.757,0.181-1.452,0.346-2.08,0.496C442.436,380.324,441,380.667,441,380.667z"/>
				</g>
			</g>
		</g>
		<path opacity="0.3" enable-background="new    " d="M519.75,369c-7.881,0.027-15.02,2.193-22.75,2.944
			c-3.907,0.38-7.646,0.925-11.5,1.306c-3.533,0.349-6.617,1.725-9.987,2.263c-14.583,2.33-30.07,4.173-44.318,7.933
			c-7.538,1.989-15.925,0.926-23.194-1.695c-4.261-1.536-8.022-4.261-11.988-6.319c-2.36-1.226-15.081-6.227-14.3-8.642
			c-5.183,3.374-11.002,5.725-16.157,9.467c-6.99,5.073-10.994,12.628-17.75,17.813c-4.319,3.315-10.541,5.434-16.321,6.656
			c-2.175-0.008-4.334,0.034-6.429,0.33c-3.636,0.513-7.138,2.021-10.806,2.749c-7.641,1.518-15.284,2.592-22.764,4.182
			c-6.523,1.386-13.705,2.385-19.798,4.952c-5.437,2.291-12.286,6.334-16.189,10.811l-2.25,1c2.907-0.577,5.888-3.559,8.807-4.688
			c3.51-1.358,7.15-2.386,10.693-3.562c7.122-2.365,14.333-3.757,21.756-5.243c6.297-1.261,12.994-1.486,19.494-2.451
			c5.15-0.765,10.447-1.531,15.727-2.004c2.286,2.586,4.525,5.277,7.224,7.51c11.848,9.804,25.185,13.439,40.549,13.439
			c14.739,0,29.753-4.93,42.811-11.189c5.876-2.816,11.379-5.953,15.75-11c2.171-2.506,4.125-5.052,5.25-8.256
			c1.079-3.075,2.517-7.995,2.227-11.268c11.532-1.652,23.885-5.208,35.268-8.232c6.969-1.852,13.938-3.705,20.931-5.069
			c3.554-0.693,7.069-1.505,10.708-2.042c2.8-0.413,8.612-0.505,10.806-2.194L519.75,369z"/>
		<g opacity="0.1">
			<g>
				<g>
					<path fill="#FFFFFF" d="M405.667,371.333c0,0-0.895-0.017-2.513-0.047c-1.605-0.034-3.906,0.014-6.69,0.232
						c-2.771,0.273-6.181,0.66-9.864,1.068c-3.689,0.421-7.68,0.92-11.757,1.696c-2.027,0.392-4.034,0.814-5.854,1.336
						c-1.82,0.485-3.559,1.138-5.225,1.79c-3.333,1.328-6.255,2.936-8.745,4.261c-2.469,1.372-4.467,2.559-5.853,3.383
						c-1.377,0.837-2.167,1.281-2.167,1.281s0.543-0.714,1.575-1.973c1.042-1.249,2.598-3.018,4.721-5.04
						c2.154-1.979,4.816-4.306,8.271-6.31c1.731-0.989,3.615-1.958,5.72-2.702c2.077-0.769,4.224-1.315,6.471-1.751
						c4.487-0.852,8.796-1.001,12.646-0.883c3.861,0.133,7.253,0.473,10.189,0.933c2.918,0.518,5.202,1.21,6.729,1.784
						C404.847,370.98,405.667,371.333,405.667,371.333z"/>
				</g>
			</g>
		</g>
		<g opacity="0.1">
			<g>
				<g>
					<path fill="#FFFFFF" d="M384,371.333c0,0-0.252,0.231-0.742,0.6c-0.488,0.371-1.227,0.847-2.163,1.322
						c-1.88,0.964-4.525,1.855-7.247,2.215c-1.36,0.19-2.618,0.261-3.785,0.293c-1.144,0.062-2.226,0.06-3.148,0.148
						c-0.481,0.014-0.896,0.083-1.291,0.124c-0.401,0.033-0.743,0.089-1.025,0.146c-0.6,0.097-0.933,0.151-0.933,0.151
						s0.109-0.316,0.383-0.877c0.133-0.287,0.318-0.624,0.581-0.973c0.256-0.357,0.56-0.784,0.958-1.165
						c0.771-0.831,1.852-1.616,3.141-2.286c1.287-0.634,2.774-1.117,4.322-1.332c3.1-0.405,5.765,0.171,7.703,0.664
						C382.689,370.875,384,371.333,384,371.333z"/>
				</g>
			</g>
		</g>
	</g>
</g>
</svg>
