<?xml version="1.0" encoding="utf-8"?>
<!-- Generator: Adobe Illustrator 25.0.1, SVG Export Plug-In . SVG Version: 6.00 Build 0)  -->
<svg version="1.1" id="Capa_1" xmlns="http://www.w3.org/2000/svg" xmlns:xlink="http://www.w3.org/1999/xlink" x="0px" y="0px"
	 viewBox="0 0 800 800" enable-background="new 0 0 800 800" xml:space="preserve">
<g id="ojos">
	<g id="_x31__2_">
		<g>
			<path opacity="0.3" enable-background="new    " d="M433.775,373.608c-9.326-2.872-18.505-2.627-23.967,6.643
				c-3.45,5.855-5.287,7.774-6.089,11.37c-0.268,0.174-0.538,0.332-0.813,0.472c0.039-10.338,0.318-20.483,0.318-30.759
				c0-6.23-1.185-16.829,1.002-24.012c-0.113-3.193,0.594-6.952,2.328-11.467c-0.266,2.591-0.158,4.756,0.25,6.594
				c0.121-0.134,0.226-0.288,0.354-0.414c-0.174,2.518,2.186,5.441,4.348,7.479c3.857,2.695,9.463,3.739,15.275,5.264
				c9.964,2.615,19.623,6.638,29.777,8.223l2,2c30.1,3.412,21.041,43.753,31.853,62.846c-4.663-3.418-10.029-9.233-15.606-11.092
				c-7.709-2.566-14.248,0.926-21.194,2.298c-11.638,2.298-29.648-1.663-36.948-11.853c9.48,0.696,14.848-3.657,22.897-6.199
				c8.426-2.661,17.543-3.026,25.826-6.174c10.84-15.493-26.508-23.41-35.072-26.581c-0.491-0.182-0.98-0.362-1.468-0.542
				c-3.862-0.81-7.63-0.693-10.879,1.371C407.685,365.603,431.446,371.306,433.775,373.608z"/>
			<path opacity="0.3" enable-background="new    " d="M375.559,334c1.398,9.989-4.46,10.739-8.274,17.726
				c-3.412,6.249-3.173,14.568-3.503,21.497c-0.643,13.463,3.357,32.62-9.227,40.773c-11.103,7.194-29.589,7.326-42.996,8.004
				c-17.288,0.874-36.107,4.694-33-18c2.814-20.551,28.796-29.574,44.754-37.249c8.432-4.055,15.288-9.954,23-14.974
				c8.122-5.286,17.157-8.709,25.246-13.777"/>
			<g>
				<path fill="#AAAAAA" d="M306.621,402.258c-6.539-3.705-16.109-12.166-14.805-20.643c0.571-3.717,3.889-7.82,6.259-10.755
					c2.815-3.487,7.046-5.592,7.046-10.295c0-4.2-3.252-9.018-7.671-9.172c-5.321-0.186-10.358-0.132-14.968,1.876
					c-4.605,2.005-5.975,5.927-6.213,10.631c-0.278,5.527,0.007,11.141,0,16.677c-0.002,2.627,0.44,5.065,0.704,7.634
					c0.268,2.575,0.202,5.287,0.46,7.878c0.256,2.57,0.562,5.149,0.67,7.835c0.109,2.656-0.682,5.511-0.332,8.005
					c0.668,4.762,8.347,5.881,12.173,5.503c5.172-0.512,10.101-2.25,15.511-2.001c2.66,0.123,5.203,0.872,7.836,1.001
					c2.768,0.135,5.57-0.008,8.34,0c5.445,0.015,10.475-1.398,15.847-1.663c5.172-0.257,10.968,0.121,16.006-0.875
					c2.089-0.414,4.501-0.822,5.958-2.511c1.432-1.658,2.213-3.965,2.714-5.957c1.263-5.012,1.334-10.209,1.334-15.677
					c0-5.414,0.358-11.078-0.667-16.176c-1.048-5.211-0.927-10.507-0.667-15.844c0.112-2.308,0.601-6.067-0.162-8.176
					c-0.845-2.336-4.065-2.279-6.175-2.496c-5.336-0.55-11.061-0.167-16.51-0.167c-5.551,0-11.051-0.118-16.353,0.658
					c-4.862,0.712-10.026,1.128-14.991,1.685c-2.526,0.284-4.98,0.565-7.517,0.821c-1.928,0.195-6.049-0.055-5.211,3.005
					c0.521,1.905,3.045,3.969,4.256,5.463c1.053,1.299,2.102,4.122,3.627,4.877c1.969,0.974,5.502-0.273,7.344-0.829
					c2.338-0.705,4.57-1.214,7.165-1.338c4.418-0.211,8.978,2.352,12.841,4.336c4.144,2.129,7.164,5.046,9.799,8.842
					c2.73,3.934,3.473,8.769,1.208,13.171c-0.952,1.853-2.32,3.443-3.543,5.124c-1.241,1.707-1.9,3.68-3.503,5.174
					c-3.319,3.095-7.66,4.449-11.969,4.874c-2.523,0.249-5.379,0.314-8.001,0.17c-2.134-0.115-5.338,0.095-6.838-1.5"/>
				<path fill="#FFE600" d="M318.797,360.231c-4.57,0.017-9.354,2.254-13.381,3.961c-3.893,1.652-7.95,5.019-10.098,8.751
					c-2.334,4.057-4.648,8.98-4.207,13.805c0.385,4.19,5.336,8.514,8.719,10.627c4.105,2.565,9.789,3.091,14.459,3.552
					c4.871,0.481,10.911,1.28,15.517-0.666c3.668-1.55,7.504-5.848,9.377-9.302c2.467-4.551,2.777-9.361,0.792-14.226
					c-1.612-3.952-4.479-7.911-7.968-10.535c-4.15-3.121-7.754-4.294-12.674-5.503c-0.274-0.067-0.59-0.179-0.871-0.296"/>
				<path fill="#EDEDE2" d="M431.781,374.406c-5.243-2.756-14.912-6.312-15.509,3.254c-0.13,2.076,0.103,4.175-0.001,6.253
					c-0.1,2.007-0.799,3.278-1.195,5.059c-0.66,2.965-1.929,7.909,0.383,10.513c2.25,2.535,6.749,2.804,9.762,3.246
					c3.512,0.514,6.924,1.533,10.369,2.14c7.02,1.237,15.006,2.364,21.525-0.876c3.01-1.494,5.969-3.62,9.173-4.585
					c4.29-1.292,6.981-0.27,10.032,2.928c-0.027-1.365-1.537-3.129-2.006-4.423c-0.571-1.572-1.035-3.143-1.516-4.738
					c-0.932-3.088-1.808-6.027-3.557-8.95c-3.76-6.282-9.956-8.324-16.948-8.317c-7.202,0.008-13.684-0.621-20.263-2.002"/>
				<path d="M383.358,326.248c-3.822,2.474-5.303,8.861-5.94,12.873c-0.219,1.372-0.179,2.688-0.67,3.952
					c-0.616,1.59-1.045,1.534-1.897,2.722c-1.329,1.852-2.394,4.452-3.044,5.916c0.005-1.848-0.203-3.717,0.627-5.263
					c-5.32-0.317-8.265,2.826-13.5,2.243c-5.154-0.574-9.74-1.559-15.191-0.996c-10.179,1.048-20.465,2.163-31.019,2.647
					c-6.263,0.287-15.957-1.294-21.759,0.586c3.338,0.532,6.355-1.69,9.297-2.815c3.479-1.332,6.579-1.732,10.48-1.732
					c7.008,0,13.877-1.302,20.01-4.315c-1.061,0.535-2.209,1.13-3.15,1.601c3.606,0.561,7.588-2.204,11.197-2.566
					c4.35-0.436,8.836,0.232,13.202,0c4.192-0.223,6.75-1.749,10.481-3.383c3.635-1.593,6.722-1.933,9.933-4.488
					c-0.656,1.047-1.464,2.155-2.127,3.282c2.668-1.402,4.772-3.685,7.129-5.675c0.274,0.25,0.713,0.476,0.989,0.724
					c1.54-1.051,2.396-2.792,3.631-3.992"/>
				<path d="M480.398,370.477c0.13-3.259-5.469-7.432-7.832-9.323c-3.748-2.999-7.725-4.792-12.222-6.27
					c-3.992-1.313-8.129-3.246-12.036-5.118c-4.426-2.12-8.514-5.787-13.46-6.023c-6.522-0.311-8.985-1.082-14.202-4.588
					c-0.139,0.295-0.236,0.6-0.377,0.909c-2.795,0.562-2.935-1.488-4.96-2.526c-2.032-1.042-3.643-0.445-5.464-2.459
					c-2.805-3.103-3.564-7.932-4.721-11.682c0.051,3,0.311,6.336-0.296,9.143c-0.565,2.611-2.054,5.07-1.097,7.994
					c1.444,4.415,6.378,7.925,8.688,12.005c-0.301-2.233-2.562-5.806-4.184-7.498c6.283,2.725,13.179,7.125,19.755,8.532
					c8.054,1.724,13.79,3.562,21.329,6.956c-0.779-1.004-1.827-2.007-2.803-2.938c5.811-0.24,11.09,2.927,16.395,4.827
					c4.359-2.81,13.588,3.008,17.156,5.751"/>
				<path d="M437.489,374.438c-5.058,0.766-5.458,6.953-5.282,11.223c0.189,4.567,3.367,7.697,7.521,9.314
					c8.434,3.284,21-1.369,17.244-12.625c-1.27-3.806-4.42-6.446-7.914-6.574c-4.256-0.155-10.01,0.913-13.22-1.998"/>
				<g>
					<g>
						<g>
							<path d="M476.768,403.153c0,0-0.217-0.199-0.631-0.577c-0.203-0.191-0.456-0.425-0.785-0.665
								c-0.317-0.251-0.681-0.542-1.13-0.805c-0.868-0.552-2.011-1.142-3.4-1.329c-1.383-0.19-2.969,0.019-4.571,0.74
								c-0.801,0.361-1.611,0.818-2.418,1.373c-0.408,0.269-0.803,0.584-1.215,0.888c-0.429,0.334-0.771,0.668-1.291,1.014
								c-1.899,1.472-4.214,2.646-6.817,3.41c-2.604,0.76-5.468,1.01-8.336,0.862c-2.876-0.142-5.763-0.649-8.629-1.271
								c-2.809-0.646-5.55-1.276-8.198-1.886c-1.32-0.31-2.466-0.479-3.8-0.636c-1.301-0.163-2.618-0.332-3.919-0.59
								c-1.299-0.26-2.591-0.596-3.833-1.142c-1.229-0.539-2.457-1.344-3.292-2.525c-0.2-0.293-0.362-0.614-0.532-0.918
								c-0.159-0.311-0.242-0.665-0.354-0.99c-0.135-0.345-0.099-0.616-0.142-0.917c-0.023-0.293-0.047-0.582-0.07-0.869
								c-0.071-0.582-0.008-1.103,0.01-1.629c0.031-0.521,0.032-1.036,0.113-1.517c0.495-3.885,1.354-6.831,1.814-8.908
								c0.25-1.034,0.425-1.839,0.524-2.389c0.111-0.551,0.17-0.84,0.17-0.84s-0.002,0.295-0.006,0.856
								c0.005,0.564-0.022,1.395-0.095,2.46c-0.105,2.126-0.488,5.221-0.486,8.917c-0.02,0.465,0.041,0.923,0.068,1.395
								c0.041,0.467,0.038,0.965,0.156,1.407c0.044,0.227,0.088,0.456,0.133,0.687c0.054,0.216,0.057,0.5,0.166,0.645
								c0.095,0.17,0.141,0.355,0.255,0.518c0.126,0.157,0.225,0.328,0.354,0.482c1.061,1.23,3.243,1.79,5.567,2.074
								c1.177,0.146,2.422,0.228,3.735,0.318c1.284,0.074,2.804,0.227,4.156,0.496c2.761,0.485,5.522,1.135,8.319,1.742
								c5.565,1.239,10.818,2.026,15.356,1.02c2.248-0.486,4.344-1.318,6.1-2.415c0.443-0.222,0.942-0.599,1.397-0.879
								c0.488-0.286,0.959-0.581,1.449-0.83c0.968-0.513,1.955-0.925,2.935-1.222c1.96-0.604,3.938-0.589,5.494-0.118
								c1.573,0.464,2.69,1.312,3.494,2.036c0.418,0.353,0.736,0.715,1.012,1.027c0.286,0.3,0.495,0.581,0.661,0.81
								C476.592,402.916,476.768,403.153,476.768,403.153z"/>
						</g>
					</g>
				</g>
				<g>
					<g>
						<g>
							<path d="M413.725,399.193c0,0,0.174-1.438,0.486-4.04c0.291-2.596,0.958-6.34,0.642-10.91
								c-0.088-2.315-0.331-4.982,0.325-7.914c0.298-1.427,0.812-3.024,1.984-4.462c0.321-0.339,0.599-0.725,1.024-0.981
								c0.402-0.271,0.792-0.594,1.258-0.746c0.452-0.185,0.914-0.391,1.382-0.45c0.469-0.095,0.946-0.191,1.398-0.183
								c1.855-0.082,3.569,0.296,5.212,0.75c1.644,0.463,3.22,1.052,4.78,1.588c0.777,0.268,1.546,0.52,2.312,0.733
								c0.77,0.186,1.529,0.361,2.316,0.514c1.598,0.235,3.256,0.388,5.004,0.443c3.479,0.145,7.052,0.103,10.594,0.709
								c0.38,0.042,0.758,0.085,1.135,0.127c0.424,0.053,0.846,0.105,1.266,0.157c0.844,0.113,1.686,0.241,2.524,0.416
								c1.671,0.334,3.336,0.806,4.892,1.537c1.557,0.723,2.973,1.724,4.112,2.885c1.138,1.162,2.049,2.436,2.736,3.725
								c0.352,0.635,0.668,1.305,0.945,1.919c0.254,0.615,0.504,1.219,0.749,1.811c0.484,1.185,0.95,2.322,1.394,3.407
								c1.814,4.321,3.028,7.932,3.906,10.399c0.853,2.475,1.325,3.844,1.325,3.844s-0.67-1.286-1.88-3.611
								c-1.207-2.324-2.853-5.716-5.093-9.816c-0.544-1.031-1.115-2.111-1.71-3.236c-0.295-0.563-0.596-1.138-0.902-1.724
								c-0.318-0.567-0.627-1.098-0.985-1.636c-1.41-2.163-3.338-4.004-5.898-4.995c-1.275-0.51-2.694-0.842-4.204-1.073
								c-0.751-0.122-1.531-0.207-2.325-0.283c-0.849-0.073-1.705-0.146-2.569-0.22c-3.114-0.439-6.532-0.357-10.171-0.5
								c-1.815-0.059-3.669-0.236-5.502-0.541c-0.912-0.189-1.83-0.419-2.714-0.66c-0.874-0.267-1.709-0.569-2.512-0.873
								c-1.601-0.608-3.099-1.232-4.55-1.71c-1.443-0.478-2.855-0.831-4.097-0.844c-1.247-0.014-2.217,0.32-2.959,1.093
								c-0.738,0.775-1.283,1.914-1.633,3.14c-0.767,2.401-0.806,4.931-0.948,7.267c-0.171,4.804-1.335,8.497-1.975,11.018
								C414.108,397.796,413.725,399.193,413.725,399.193z"/>
						</g>
					</g>
				</g>
				<g>
					<g>
						<g>
							<path d="M322.094,371.953c0,0,2.084,1.884,2.084,4.208c0,2.325-2.084,4.208-2.084,4.208s-2.082-1.884-2.082-4.208
								S322.094,371.953,322.094,371.953z"/>
						</g>
					</g>
				</g>
				<g>
					<g>
						<g>
							<path d="M308.231,379.133c0,0-0.519-0.434-1.028-1.149c-0.508-0.714-1.008-1.674-1.024-2.671
								c-0.032-0.985,0.434-1.864,0.817-2.564c0.444-0.776,0.739-1.291,0.739-1.291s0.151,0.055,0.395,0.192
								c0.234,0.134,0.607,0.375,0.912,0.704c0.675,0.671,1.269,1.726,1.303,2.872c0.018,1.137-0.526,2.109-1.059,2.792
								C308.754,378.702,308.231,379.133,308.231,379.133z"/>
						</g>
					</g>
				</g>
				<g>
					<g>
						<g>
							<path d="M301.05,382.351c0,0,0.068,0.143,0.197,0.414c0.141,0.266,0.28,0.675,0.569,1.155
								c0.503,0.983,1.383,2.321,2.673,3.682c1.286,1.362,3.079,2.68,5.227,3.602c1.07,0.473,2.253,0.786,3.477,1
								c0.613,0.115,1.244,0.153,1.882,0.2c0.657-0.001,1.322,0.008,2.015-0.034c5.429-0.265,10.207-2.667,12.388-5.572
								c1.131-1.431,1.68-2.911,1.956-3.975c0.139-0.532,0.173-0.963,0.236-1.257c0.052-0.296,0.08-0.452,0.08-0.452
								s0.034,0.153,0.099,0.443c0.051,0.293,0.181,0.731,0.234,1.31c0.105,1.147,0.072,2.933-0.801,4.972
								c-0.855,2.024-2.575,4.205-5.038,5.788c-2.426,1.619-5.554,2.742-8.931,2.903c-0.829,0.049-1.669,0.025-2.494-0.016
								c-0.839-0.09-1.662-0.2-2.45-0.41c-1.574-0.405-3.037-1.001-4.287-1.79c-2.515-1.559-4.259-3.609-5.279-5.491
								c-1.027-1.892-1.456-3.556-1.605-4.702c-0.111-0.564-0.094-1.021-0.126-1.317C301.058,382.507,301.05,382.351,301.05,382.351
								z"/>
						</g>
					</g>
				</g>
				<g>
					<g>
						<g>
							<path d="M298.08,369.23c0,0,0.58-0.565,1.684-1.642c0.556-0.539,1.243-1.205,2.056-1.992c0.387-0.419,0.926-0.734,1.44-1.148
								c0.541-0.374,1.062-0.878,1.739-1.196c2.525-1.603,6.106-2.861,10.401-3.169c4.287-0.281,9.285,0.517,14.261,2.853
								c2.429,1.251,4.958,2.75,7.106,4.933c0.585,0.493,1.08,1.087,1.582,1.688c0.49,0.609,1.062,1.167,1.463,1.867
								c0.434,0.677,0.872,1.36,1.313,2.05c0.35,0.75,0.703,1.505,1.059,2.268c0.664,1.543,1.117,3.164,1.427,4.872
								c0.307,1.704,0.466,3.498,0.316,5.331c-0.245,3.663-1.689,7.442-4.165,10.461c-2.457,3.043-5.768,5.345-9.375,6.918
								c-3.619,1.576-7.563,2.467-11.61,2.698c-7.969,0.486-16.92-1.654-23.531-7.826c-3.245-3.077-5.725-7.301-6.21-11.899
								c-0.267-2.274-0.08-4.564,0.453-6.694c0.531-2.136,1.389-4.11,2.417-5.917c2.093-3.549,4.724-6.627,7.829-9.073
								c3.091-2.443,6.615-4.222,10.266-5.194c3.65-0.981,7.413-1.143,10.934-0.579c3.539,0.531,6.771,1.916,9.571,3.616
								c1.439,0.804,2.678,1.862,3.925,2.836c0.596,0.53,1.123,1.152,1.672,1.717c0.265,0.293,0.554,0.566,0.791,0.873l0.674,0.939
								c1.872,2.438,3.007,5.166,3.843,7.775c0.174,0.665,0.347,1.321,0.518,1.97c0.194,0.642,0.224,1.311,0.339,1.951
								c0.078,0.646,0.224,1.274,0.239,1.908c0.023,0.632,0.046,1.255,0.069,1.87c0.007,0.307,0.03,0.61,0.022,0.913
								c-0.022,0.303-0.044,0.603-0.066,0.902c-0.045,0.595-0.09,1.181-0.134,1.758c-0.141,1.157-0.412,2.27-0.735,3.311
								c-0.667,2.09-1.73,3.88-2.94,5.287c-1.206,1.417-2.537,2.467-3.792,3.273c-2.518,1.618-4.692,2.392-6.138,2.924
								c-0.727,0.264-1.291,0.436-1.668,0.553c-0.377,0.118-0.57,0.179-0.57,0.179s0.186-0.08,0.549-0.235
								c0.364-0.155,0.906-0.382,1.601-0.713c1.379-0.663,3.457-1.637,5.731-3.399c2.264-1.723,4.669-4.472,5.571-8.343
								c0.217-0.965,0.384-1.966,0.433-3.021c0.001-0.533,0.001-1.074,0.002-1.622c0.001-0.274,0.002-0.549,0.003-0.827
								c-0.013-0.278-0.056-0.558-0.083-0.839c-0.06-0.562-0.121-1.131-0.182-1.708c-0.052-0.577-0.232-1.145-0.341-1.728
								c-0.147-0.576-0.206-1.18-0.426-1.75c-0.193-0.576-0.388-1.159-0.585-1.749c-0.909-2.297-2.064-4.654-3.814-6.659
								l-0.624-0.779c-0.218-0.251-0.478-0.46-0.714-0.694c-0.496-0.447-0.944-0.94-1.479-1.367
								c-1.147-0.782-2.255-1.649-3.552-2.279c-2.513-1.349-5.311-2.392-8.298-2.697c-2.973-0.337-6.083-0.071-9.085,0.856
								c-3.001,0.921-5.883,2.496-8.413,4.616c-2.532,2.107-4.709,4.802-6.387,7.768c-1.622,2.951-2.497,6.244-2.076,9.424
								c0.366,3.186,2.102,6.192,4.616,8.601c2.544,2.398,5.754,4.143,9.116,5.22c1.684,0.539,3.413,0.914,5.148,1.124
								c1.742,0.198,3.546,0.288,5.268,0.223c6.91-0.248,13.694-2.765,17.702-7.355c1.999-2.273,3.193-5.033,3.527-7.901
								c0.186-1.433,0.126-2.892-0.06-4.324c-0.185-1.43-0.508-2.869-0.999-4.173c-1.876-5.292-6.001-9.277-10.299-11.708
								c-4.366-2.407-8.938-3.503-12.954-3.545c-4.021-0.02-7.5,0.872-10.042,2.193c-0.683,0.248-1.21,0.684-1.765,0.997
								c-0.53,0.354-1.081,0.608-1.5,0.986c-0.877,0.703-1.62,1.298-2.22,1.779C298.713,368.725,298.08,369.23,298.08,369.23z"/>
						</g>
					</g>
				</g>
				<g>
					<g>
						<g>
							<path d="M362.202,351.899c0,0,0.071,1.339,0.198,3.761c0.133,2.417,0.349,5.912,0.807,10.179
								c0.097,1.068,0.301,2.173,0.451,3.328c0.081,0.577,0.163,1.165,0.247,1.764c0.062,0.638,0.126,1.288,0.191,1.949
								c0.223,2.531,0.461,5.236,0.712,8.082c0.111,1.423,0.226,2.882,0.342,4.372c0.093,1.505,0.216,3.204,0.079,4.825
								c-0.193,3.285-0.883,6.495-1.298,9.644c-0.208,1.575-0.326,3.097-0.319,4.613c-0.001,0.346-0.029,0.822-0.056,1.275
								c-0.036,0.454-0.036,0.9-0.108,1.353c-0.085,0.452-0.169,0.903-0.253,1.352c-0.088,0.447-0.286,0.906-0.432,1.351
								c-0.128,0.45-0.406,0.881-0.639,1.31c-0.214,0.439-0.551,0.819-0.875,1.199c-0.302,0.4-0.701,0.697-1.083,1.004
								c-0.372,0.332-0.798,0.528-1.208,0.76c-1.67,0.845-3.328,1.092-4.844,1.239c-3.066,0.241-5.688,0.035-8.256,0.099
								c-2.462-0.035-4.756,0.173-6.94,0.375c-1.072,0.111-2.133,0.165-3.137,0.199c-0.499,0.012-0.986,0.06-1.45,0.038
								c-0.462-0.038-0.911-0.075-1.343-0.111c-1.728-0.133-3.222-0.31-4.415-0.352c-2.418-0.146-3.756-0.228-3.756-0.228
								s1.337-0.133,3.755-0.373c1.225-0.14,2.69-0.173,4.397-0.265c0.426-0.019,0.866-0.039,1.321-0.06
								c0.452-0.036,0.904-0.142,1.375-0.21c0.936-0.148,1.922-0.312,2.987-0.544c2.094-0.432,4.495-0.903,7.122-1.099
								c2.506-0.282,5.337-0.309,7.961-0.693c1.308-0.202,2.586-0.516,3.565-1.087c0.981-0.568,1.623-1.373,2.02-2.502
								c0.075-0.3,0.204-0.562,0.253-0.888l0.153-0.978c0.047-0.328,0.031-0.682,0.054-1.022c0.014-0.343,0.037-0.666,0.03-1.124
								c-0.038-1.699,0.082-3.434,0.309-5.132c0.454-3.393,1.176-6.495,1.441-9.422c0.173-1.481,0.122-2.843,0.107-4.329
								c-0.033-1.5-0.065-2.968-0.097-4.4c-0.034-2.866-0.067-5.589-0.098-8.138c-0.002-0.608-0.004-1.207-0.006-1.794
								c-0.026-0.623-0.052-1.234-0.078-1.834c-0.036-1.197-0.122-2.344-0.1-3.437c0.018-4.374,0.285-7.883,0.512-10.301
								C362.058,353.234,362.202,351.899,362.202,351.899z"/>
						</g>
					</g>
				</g>
				<g>
					<g>
						<g>
							<path d="M355.765,413.545c0,0-1.44,0.212-4.043,0.598c-2.605,0.347-6.398,0.967-11.077,1.335
								c-2.341,0.21-4.905,0.438-7.657,0.686c-2.754,0.271-5.697,0.56-8.793,0.864c-6.196,0.572-13.014,1.123-20.176,1.576
								c-3.581,0.227-7.078,0.417-10.456,0.578c-0.845,0.038-1.682,0.077-2.51,0.114c-0.815,0.007-1.62,0.007-2.43,0.034
								c-1.637,0.035-3.392,0.056-5.161-0.359c-0.439-0.072-0.876-0.237-1.307-0.399l-0.64-0.242l-0.624-0.352
								c-0.849-0.412-1.559-1.129-2.111-1.795c-1.116-1.411-1.671-3.048-1.917-4.54c-0.25-1.505-0.251-2.911-0.217-4.222
								c0.058-1.287,0.112-2.522,0.165-3.701c0.129-2.348,0.186-4.458,0.27-6.322c0.023-1.861,0.043-3.465,0.06-4.775
								c-0.067-2.628-0.105-4.082-0.105-4.082s0.251,1.438,0.704,4.036c0.179,1.307,0.355,2.913,0.557,4.783
								c0.142,1.866,0.327,4.003,0.438,6.352c0.169,2.347,0.105,4.98,0.703,7.396c0.302,1.205,0.814,2.311,1.597,3.166
								c0.427,0.425,0.8,0.778,1.35,0.981l0.377,0.191l0.444,0.128c0.294,0.089,0.583,0.19,0.918,0.219
								c1.277,0.227,2.738,0.161,4.341,0.049c0.813-0.065,1.65-0.1,2.494-0.139c0.826-0.066,1.661-0.134,2.502-0.202
								c3.368-0.266,6.854-0.517,10.427-0.742c7.146-0.452,13.957-0.763,20.157-0.974c3.102-0.088,6.049-0.171,8.807-0.249
								c2.761-0.047,5.341,0.005,7.693,0.02c4.713,0.111,8.49-0.026,11.127-0.015C354.307,413.544,355.765,413.545,355.765,413.545z
								"/>
						</g>
					</g>
				</g>
				<g>
					<g>
						<g>
							<path d="M278.274,412.06c0,0-0.209-1.531-0.586-4.301c-0.333-2.771-0.953-6.762-1.477-11.743
								c-0.131-1.245-0.284-2.55-0.406-3.912c-0.09-1.364-0.184-2.783-0.28-4.253c-0.196-2.943-0.327-6.074-0.478-9.379
								c-0.124-3.306-0.317-6.766-0.343-10.376c-0.011-1.817,0.003-3.706,0.228-5.683c0.233-1.965,0.684-4.073,1.783-6.066
								c1.078-2,2.873-3.646,4.809-4.593c1.918-0.967,3.993-1.417,5.756-1.683c3.642-0.63,7.191-0.881,10.515-0.963
								c3.329-0.092,6.47-0.073,9.388-0.081c2.924-0.029,5.648-0.057,8.135-0.081c4.984-0.108,9.057-0.121,11.855,0.071
								c2.788,0.262,4.329,0.407,4.329,0.407s-1.542,0.069-4.329,0.194c-2.777,0.169-6.765,0.658-11.727,1.246
								c-2.491,0.257-5.223,0.54-8.152,0.789c-2.918,0.217-6.036,0.45-9.316,0.694c-3.257,0.259-6.619,0.648-10.028,1.342
								c-1.768,0.319-3.293,0.728-4.679,1.442c-1.371,0.711-2.449,1.729-3.191,3.077c-0.749,1.344-1.153,2.975-1.375,4.674
								c-0.222,1.703-0.281,3.472-0.321,5.24c-0.08,3.565-0.037,7.024-0.093,10.311c-0.049,3.289-0.096,6.414-0.139,9.338
								c-0.023,1.461-0.046,2.873-0.068,4.23c0.017,1.356,0.032,2.658,0.047,3.9c0.042,4.975,0.183,9.02,0.156,11.818
								C278.278,410.515,278.274,412.06,278.274,412.06z"/>
						</g>
					</g>
				</g>
				<g>
					<g>
						<g>
							<path d="M289.662,351.652c0,0,1.609-0.202,4.518-0.566c2.908-0.341,7.154-0.878,12.357-1.314
								c5.199-0.464,11.417-0.979,18.354-1.468c3.438-0.271,7.046-0.556,10.787-0.852c1.878-0.111,3.746-0.341,5.656-0.526
								c0.954-0.094,1.914-0.188,2.882-0.284c0.967-0.088,1.948-0.271,2.931-0.401c1.982-0.275,3.942-0.547,5.873-0.815
								c2.007-0.224,4.167-0.413,6.458,0.249c1.129,0.335,2.29,0.956,3.164,1.875c0.206,0.236,0.412,0.469,0.603,0.716
								c0.178,0.267,0.35,0.537,0.515,0.808c0.216,0.555,0.464,1.122,0.597,1.676c0.521,2.249,0.126,4.275-0.184,5.976
								c-0.165,0.851-0.316,1.684-0.412,2.383c-0.005,0.784-0.01,1.558-0.015,2.32c0.032,1.621,0.072,3.219,0.061,4.803
								c-0.102,3.244-0.397,6.004-0.593,8.601c-0.256,5.195-0.318,9.439-0.39,12.371c-0.081,2.933-0.126,4.555-0.126,4.555
								s-0.169-1.614-0.474-4.532c-0.288-2.919-0.708-7.143-0.932-12.419c-0.042-2.636,0.015-5.606-0.112-8.516
								c-0.099-1.494-0.246-3.074-0.383-4.728c-0.024-0.421-0.049-0.845-0.074-1.272l-0.037-0.644
								c-0.005-0.226-0.039-0.387-0.023-0.751c0.075-0.979,0.19-1.834,0.309-2.691c0.236-1.69,0.383-3.274,0.01-4.571
								c-0.092-0.319-0.246-0.582-0.342-0.884c-0.088-0.11-0.169-0.223-0.245-0.34l-0.301-0.33c-0.422-0.411-0.969-0.69-1.644-0.873
								c-1.359-0.367-3.118-0.261-4.949-0.01c-1.92,0.281-3.869,0.566-5.841,0.855c-0.997,0.131-1.972,0.31-2.97,0.395
								c-0.997,0.088-1.987,0.175-2.971,0.262c-1.965,0.162-3.909,0.356-5.795,0.415c-3.78,0.168-7.437,0.331-10.899,0.421
								c-6.895,0.126-13.133,0.16-18.395,0.146c-5.238-0.003-9.477-0.005-12.406-0.007
								C291.286,351.664,289.662,351.652,289.662,351.652z"/>
						</g>
					</g>
				</g>
			</g>
			<g opacity="0.3">
				<g>
					<g>
						<path fill="#FFFFFF" d="M438.225,387c0,0-0.27-0.561-0.451-1.309c-0.164-0.748-0.314-1.679,0.025-2.481
							c0.268-0.801,1.024-1.372,1.591-1.809c0.602-0.436,1.17-0.734,1.17-0.734s0.396,0.439,0.716,1.196
							c0.351,0.774,0.478,1.783,0.145,2.75c-0.386,0.921-1.17,1.561-1.89,1.905C438.821,386.878,438.225,387,438.225,387z"/>
					</g>
				</g>
			</g>
			<g opacity="0.3">
				<g>
					<g>
						<path fill="#FFFFFF" d="M280.892,364c0,0,0.025-0.265,0.074-0.77c0.019-0.256,0.053-0.572,0.161-0.935
							c0.047-0.185,0.098-0.383,0.151-0.596c0.066-0.21,0.174-0.42,0.271-0.652c0.399-0.911,1.206-1.984,2.495-2.73
							c1.273-0.761,2.893-1.21,4.627-1.513c1.742-0.3,3.604-0.471,5.523-0.802c1.997-0.294,4.134-0.592,6.388-0.885
							c2.249-0.275,4.609-0.565,7.055-0.864c2.444-0.277,4.971-0.564,7.584-0.712c5.208-0.347,10.122-0.719,14.665-0.918
							c4.526-0.222,8.637-0.236,12.079-0.135c3.446,0.144,6.225,0.34,8.135,0.617c1.904,0.253,2.958,0.393,2.958,0.393
							s-1.06,0.076-2.974,0.213c-1.909,0.087-4.663,0.377-8.046,0.717c-3.386,0.383-7.399,0.877-11.874,1.459
							c-4.461,0.557-9.435,1.178-14.635,1.524c-2.594,0.146-5.133,0.374-7.586,0.544c-2.454,0.173-4.823,0.316-7.065,0.423
							c-2.247,0.11-4.386,0.195-6.391,0.261c-2.076,0.117-3.96,0.045-5.618,0.095c-1.656,0.051-3.113,0.229-4.278,0.681
							c-1.172,0.436-1.997,1.186-2.516,1.932c-0.124,0.19-0.263,0.362-0.361,0.541c-0.089,0.186-0.172,0.36-0.249,0.522
							c-0.172,0.321-0.267,0.614-0.337,0.854C280.974,363.748,280.892,364,280.892,364z"/>
					</g>
				</g>
			</g>
		</g>
	</g>
</g>
</svg>
