<?xml version="1.0" encoding="utf-8"?>
<!-- Generator: Adobe Illustrator 25.0.1, SVG Export Plug-In . SVG Version: 6.00 Build 0)  -->
<svg version="1.1" id="Capa_1" xmlns="http://www.w3.org/2000/svg" xmlns:xlink="http://www.w3.org/1999/xlink" x="0px" y="0px"
	 viewBox="0 0 800 800" enable-background="new 0 0 800 800" xml:space="preserve">
<g id="ojos">
	<g id="_x36_">
		<g>
			<g>
				<g>
					<g>
						<path d="M472.009,384.932c0,0-0.57,0.789-1.602,2.214c-0.501,0.735-1.218,1.539-2.052,2.482
							c-0.812,0.971-1.831,1.973-2.971,3.077c-0.561,0.566-1.177,1.115-1.821,1.684c-0.653,0.566-1.295,1.175-2.037,1.763
							c-0.75,0.585-1.525,1.19-2.324,1.813c-0.856,0.551-1.739,1.118-2.643,1.699c-3.712,2.178-8.289,3.877-13.283,4.429
							c-1.248,0.094-2.482,0.28-3.699,0.225c-1.217-0.01-2.413,0.011-3.595-0.168c-0.589-0.068-1.172-0.136-1.75-0.203l-0.86-0.105
							c-0.283-0.047-0.561-0.129-0.838-0.192c-1.105-0.283-2.2-0.513-3.229-0.845c-4.144-1.344-7.401-3.389-10.06-5.074
							c-2.638-1.736-4.664-3.25-6.096-4.262c-1.419-1.033-2.204-1.604-2.204-1.604s0.892,0.386,2.504,1.083
							c1.61,0.7,3.901,1.811,6.724,3.099c2.835,1.239,6.176,2.759,10.01,3.634c0.957,0.218,1.955,0.339,2.956,0.531
							c0.252,0.04,0.502,0.099,0.758,0.125l0.778,0.044c0.52,0.033,1.045,0.065,1.574,0.099c1.051,0.117,2.143,0.053,3.245,0.037
							c1.105,0.03,2.208-0.163,3.333-0.243c4.487-0.495,8.647-1.788,12.217-3.479c0.882-0.453,1.74-0.894,2.575-1.323
							c0.807-0.493,1.589-0.971,2.346-1.434c0.762-0.462,1.486-0.987,2.193-1.446c0.708-0.467,1.389-0.914,2.006-1.372
							c1.26-0.893,2.415-1.693,3.357-2.478c0.969-0.759,1.823-1.403,2.448-2.006C471.282,385.574,472.009,384.932,472.009,384.932z"
							/>
					</g>
				</g>
			</g>
			<g>
				<g>
					<g>
						<path d="M359.124,391.533c0,0-0.126,0.189-0.366,0.549c-0.244,0.358-0.59,0.903-1.113,1.543
							c-1.008,1.314-2.611,3.127-4.872,5.078c-2.258,1.949-5.164,4.043-8.699,5.902c-3.543,1.795-7.745,3.5-12.645,3.721
							c-2.418,0.089-4.726-0.18-6.876-0.655c-2.153-0.469-4.172-1.085-6.022-1.82c-3.721-1.43-6.827-3.183-9.321-4.79
							c-2.491-1.62-4.377-3.095-5.622-4.181c-0.635-0.524-1.092-0.977-1.413-1.266c-0.316-0.296-0.482-0.451-0.482-0.451
							s0.796,0.435,2.234,1.22c1.434,0.779,3.549,1.827,6.192,2.982c2.646,1.145,5.838,2.398,9.443,3.408
							c1.796,0.526,3.703,0.953,5.671,1.279c1.967,0.336,4.016,0.505,6.048,0.43c4.038-0.164,7.978-1.451,11.428-2.822
							c3.453-1.422,6.475-3.014,8.926-4.508c2.452-1.496,4.33-2.904,5.577-3.946c0.642-0.504,1.096-0.944,1.418-1.232
							C358.955,391.685,359.124,391.533,359.124,391.533z"/>
					</g>
				</g>
			</g>
			<path d="M411.605,340.043c3.906,0.527,5.729-3.267,6.932-5.66c0.091,1.678-0.344,3.205-0.957,4.603
				c3.643,0.323,6.781-3.902,10.859-3.894c4.225,0.008,8.679,2.415,12.846,1.063c-1.216-0.177-2.41-0.032-3.248,0.515
				c7.008,1.487,12.883,6.515,20.388,6.062c-1.438,3.238,12.566,12.738,15.184,15.417c-1.706-0.861-3.517-1.554-5.106-2.617
				c5.139,3.008,7.51,9.188,11.635,13.251c-4.455-2.279-8.674-5.982-13.08-8.604c-4.219-2.511-9.29-8.539-14.094-9.242
				c4.925-0.134,9.285,6.741,11.989,10.529c-2.546-1.651-4.86-3.701-7.458-5.331c-2.58-1.618-6.053-2.526-7.889-4.645
				c2.658,1.529,4.391,3.697,6.18,5.997c-5.525-3.757-10.662-7.341-17.105-8.871c-6.207-1.474-14.193-2.936-19.414-6.56
				c0.35,2.88,5.168,5.292,7.168,6.825c-2.816,0.049-5.7-2.259-8.159-3.524c-0.114,1.712-0.025,3.495-0.125,5.206
				c-3.987-0.894-6.397-5.485-11.065-5.898c2.486-0.085,4.309,0.807,6.471,0.921c-0.405-0.491-0.562-1.322-0.926-1.845
				c0.393-0.005,0.843-0.113,1.238-0.117c0.32-1.792-1.077-3.244-2.262-4.241"/>
			<path d="M296.742,371.399c7.686-0.351,6.495-15.507,8.25-19.522c0.178,1.312-0.007,2.744-0.335,3.911
				c0.462-1.195,1.049-2.288,1.674-3.416c-0.099,0.83,0.097,1.7,0.058,2.499c1.938-2.515,3.036-5.966,5.123-8.64
				c1.987-2.546,4.663-4.49,6.7-7.063c0.095,1.788-1.355,3.102-2.277,4.456c2.573-1.373,4.124-3.282,6.88-4.242
				c2.799-0.975,6.145-1.15,8.607-3.184c-0.015,0.387,0.032,0.787,0.026,1.154c4.29,0.218,8.924,0.794,12.097-2.227
				c0.59,4.172-4.663,5.543-7.081,7.573c1.089-0.212,2.167-0.743,3.134-1.304c-0.506,0.584-0.785,1.366-1.483,1.965
				c1.513-0.021,2.669-0.934,3.795-1.873c-1.749,4.17-5.438,4.287-9.209,5.488c-3.348,1.065-6.812,3.574-9.497,5.899
				c0.314-1.58,1.906-2.748,3.11-3.952c-3.165,1.995-6.963,2.764-10.017,5.066c-2.841,2.142-4.3,5.422-6.281,8.146
				c-0.089-0.322-0.061-0.611-0.139-0.935c-5.223,2.586-7.102,11.259-14.128,11.19"/>
		</g>
		<path opacity="0.3" enable-background="new    " d="M359.073,379.594c-1.323-4.383-1.999-9.845-6.741-10.593
			c-5.276-0.832-10.544-1.607-15.999-1.667c-10.896-0.12-19.121,1.486-28.082,7.592c-1.819,1.24-3.726,2.52-5.275,4.283
			c3.954-6.781,12.575-13.277,18.782-17.784c6.46-4.69,14.03-8.383,18.241-15.759c0.582-1.02,1.035-2.235,1.284-3.282
			c-7.571,2.657-16.711,0.96-23.616,5.616l0.667,2c-5.994,2.542-11.132,9.592-14.668,14.666c-1.875,2.69-3.331,5.77-5.917,8.083
			c-2.782,2.49-6.851,3.127-9.465,4.25c10.507,0.086,7.331,15.973,11.957,22.427c5.627,7.85,15.124,11.253,24.091,11.574
			C341.299,411.608,365.227,399.985,359.073,379.594z M349.747,396.738c-3.38,1.768-6.948,3.164-10.597,4.109
			c-5.725,1.839-11.755,2.843-17.215,0.942c-0.192-0.066-0.375-0.157-0.566-0.23c-4.914-0.975-9.649-3.016-13.925-6.338
			c-0.017-0.013-0.03-0.027-0.046-0.04c-1.825-1.245-3.285-2.831-4.021-5.27c-1.296-4.291,2.072-8.711,5.142-11.233
			c7.111-5.844,17.345-8.272,26.405-7.697c7.76,0.493,17.049,2.646,22.56,8.641C364.104,386.826,356.299,393.94,349.747,396.738z"/>
		<path opacity="0.3" enable-background="new    " d="M475.583,365.418C472.891,361.9,467.656,354.623,463,354l-5-2.333
			c-3.014-2.345-7.48-3.23-10.918-5.083c-3.446-1.857-7.143-3.89-10.822-4.843c-4.404-1.141-8.844-1.754-13.593-1.741
			c-1.767,0.005-5.698-0.726-6.943,0.649c-1.128,1.247-0.357,5.318-0.439,6.968c-0.465,0.081-0.777,0.28-1.166,0.383
			c4.146,2.435,8.298,2.993,12.541,4.323c8.758,2.744,17.552,4.797,25.665,9.759c6.479,3.963,15.97,8.476,19.033,15.793
			c-2.683-3.247-6.757-5.148-10.348-6.886c-3.746-1.812-7.923-4.244-11.936-5.064c-9.56-1.955-21.853-0.096-30.48,2.335
			c-10.037,2.828-15.072,10.957-14.535,21.349c7.039,2.508,12.9,7.929,19.941,11.058c7.837,3.483,14.612,6.444,23.667,6
			c8.953-0.439,17.258-5.735,22.918-12.732c2.681-3.314,4.925-6.727,7.831-9.852c3.192-3.433,6.989-4.475,10.3-7.082
			C483.485,374.739,479.185,370.124,475.583,365.418z M466.443,387.083c-9.419,6.02-20.633,9.496-31.833,9.458
			c-7.227-0.023-20.979-0.563-22.947-9.809c-1.893-8.895,7.303-12.674,14.492-13.912c0.173-0.029,0.349-0.061,0.523-0.09
			c12.773-4.52,28.9-1.805,39.765,4.854C470.05,379.796,469.939,384.849,466.443,387.083z"/>
		<g opacity="0.2">
			<g>
				<g>
					<path fill="#FFFFFF" d="M352.667,391c0,0-0.492,0.507-1.382,1.423c-0.441,0.474-1.03,0.991-1.739,1.567
						c-0.698,0.593-1.509,1.258-2.477,1.888c-0.48,0.326-0.984,0.668-1.508,1.023c-0.552,0.311-1.127,0.636-1.722,0.972
						c-1.178,0.71-2.547,1.254-3.975,1.875c-2.91,1.075-6.338,1.977-10.126,1.849c-7.149-0.376-13.466-2.659-17.286-5.499
						c-1.91-1.409-3.188-2.872-3.854-3.995c-0.382-0.522-0.551-1.014-0.711-1.307c-0.143-0.303-0.218-0.462-0.218-0.462
						s0.123,0.127,0.357,0.37c0.247,0.23,0.532,0.623,1.034,1.005c0.907,0.844,2.405,1.832,4.375,2.714
						c3.942,1.778,9.912,2.943,16.491,3.294c3.114,0.103,6.159-0.435,8.934-1.087c1.365-0.411,2.706-0.713,3.905-1.184
						c0.612-0.21,1.203-0.413,1.771-0.608c0.557-0.23,1.09-0.451,1.6-0.663c1.042-0.394,1.946-0.83,2.745-1.218
						c0.811-0.371,1.507-0.704,2.047-1.024C352.046,391.332,352.667,391,352.667,391z"/>
				</g>
			</g>
		</g>
		<g opacity="0.2">
			<g>
				<g>
					<path fill="#FFFFFF" d="M463,385.333c0,0-0.48,0.414-1.345,1.162c-0.435,0.379-0.983,0.822-1.66,1.278
						c-0.671,0.466-1.429,1.027-2.332,1.526c-0.449,0.259-0.92,0.53-1.411,0.812c-0.497,0.27-1.032,0.512-1.582,0.78
						c-1.094,0.555-2.315,1.005-3.604,1.497c-2.597,0.896-5.545,1.639-8.688,2.037c-3.147,0.372-6.166,0.38-8.887,0.2
						c-2.72-0.225-5.143-0.593-7.145-1.065c-1.004-0.206-1.898-0.461-2.682-0.681c-0.784-0.212-1.451-0.424-1.992-0.618
						c-1.077-0.383-1.673-0.595-1.673-0.595s0.632-0.001,1.772-0.003c0.566,0.013,1.259,0.014,2.062-0.001
						c0.801-0.007,1.708,0.004,2.71-0.033c1.999-0.016,4.367-0.141,6.967-0.28c2.602-0.185,5.436-0.429,8.392-0.777
						c2.953-0.376,5.741-0.837,8.279-1.338c1.255-0.293,2.473-0.518,3.581-0.836c0.558-0.149,1.107-0.272,1.624-0.42
						c0.517-0.157,1.012-0.307,1.484-0.45c0.964-0.26,1.798-0.588,2.554-0.842c0.763-0.244,1.403-0.494,1.923-0.712
						C462.411,385.561,463,385.333,463,385.333z"/>
				</g>
			</g>
		</g>
	</g>
</g>
</svg>
