<?xml version="1.0" encoding="utf-8"?>
<!-- Generator: Adobe Illustrator 25.0.1, SVG Export Plug-In . SVG Version: 6.00 Build 0)  -->
<svg version="1.1" id="Capa_1" xmlns="http://www.w3.org/2000/svg" xmlns:xlink="http://www.w3.org/1999/xlink" x="0px" y="0px"
	 viewBox="0 0 800 800" enable-background="new 0 0 800 800" xml:space="preserve">
<g id="narices_1_">
	<g id="_x34__3_">
		<g>
			<path opacity="0.3" enable-background="new    " d="M355.24,446.168c6.796-7.348,12.344-14.818,16.919-24.316
				c2.245-4.658,3.891-10.343,4.852-15.499c0.833-4.48,0.243-12.842,1.831-16.008c0.014,12.269,0.604,24.843-1.733,36.455
				c-1.07,5.31-0.028,11.799-6.23,13.108c-5.748,1.214-8.706,1.241-13.933,5.689"/>
			<path fill="#D12020" d="M378.276,435.646c2.913-0.107,5.653,1.999,8.745,2.144c3.839,0.181,6.077-0.088,9.23,2.282
				c2.407,1.809,4.632,2.837,7.187,4.111c2.034,1.016,5.636,3.147,7.274,4.847c1.829,1.898,2.271,5.481,3.662,7.892
				c1.359,2.355,2.978,4.617,4.271,7.033c3.121,5.826,3.381,12.917,2.713,19.681c-1.145,11.602-9.443,23.362-20.475,28.155
				c-5.832,2.534-10.216,5.853-17.069,4.484c-6.059-1.208-11.969-2.807-17.687-4.911c-5.393-1.985-10.705-4.955-14.675-9.438
				c-4.048-4.571-5.852-10.436-7.506-15.955c-1.864-6.226-1.48-13.352-0.272-19.658c1.215-6.354,4.336-10.416,8.205-15.683
				c2.591-3.526,5.284-8.248,9.321-10.506c4.62-2.583,11.923-2.9,17.074-3.412"/>
			<path opacity="0.3" enable-background="new    " d="M376.356,436.285c-3.372-0.102-6.406-0.45-9.437,1.014
				c-2.55,1.233-4.775,2.848-6.613,5.119c-4.026,4.978-5.594,10.056-5.919,16.263c-0.326,6.207,1.342,13.841,4.905,18.983
				c3.819,5.509,10.389,6.824,16.637,6.824c7.234,0,13.008-0.332,18.77-4.905c5.247-4.165,7.151-9.421,7.466-15.782
				c0.427-8.638-0.046-18.41-8.078-23.212c5.641,2.675,10.728,3.151,15.065,8.333c3.197,3.823,7.213,8.067,9.435,12.521
				c2.877,5.768,2.552,13.06,2.561,19.633c0.008,6.654-0.737,11.534-4.693,16.85c-2.241,3.012-5.216,7.748-12.583,12.584
				c-6.825,4.48-11.325,4.384-17.276,4.906c-6.188,0.544-14.661-1.514-20.044-3.679c-5.097-2.05-9.984-7.018-14.242-10.452
				c-4.918-3.964-7.304-9.916-8.165-15.725c-0.967-6.531-1.287-14.031-0.629-20.689c1.092-11.058,10.659-21.752,20.945-25.546
				c3.509-1.296,8.144-3.517,11.897-3.467"/>
			<path opacity="0.3" enable-background="new    " d="M420.507,488.114c5.444-0.714,10.559-4.296,15.644-6.275
				c5.378-2.093,10.801-4.071,16.173-6.183c9.202-3.616,18.355-7.715,26.396-13.544c8.823-6.397,14.227-14.554,20.566-23.176
				c2.161-2.939,4.447-5.768,6.719-8.62c-12.797,17.628-32.923,30.674-52.436,39.834c-5.668,2.661-11.316,5.702-17.271,6.874
				c-3.18,0.625-6.442,0.699-9.65,1.232c-1.426,0.237-3.157,0.667-4.426,1.333c-1.881,0.984-1.209,1.254-1.072,3.406
				c0.105,1.631,0.121,3.322-0.641,4.692"/>
			<g>
				<path opacity="0.3" enable-background="new    " d="M262.673,430.953l0.213,0.853c1.915,1.29,2.903,3.486,4.906,4.692
					c1.339,0.808,2.634,1.53,3.906,2.327c-1.059-0.833-2.106-1.701-3.106-2.701C266.739,434.272,264.151,432.946,262.673,430.953z"
					/>
				<path opacity="0.3" enable-background="new    " d="M390.533,515.019c-8.74,1.706-15.73-0.769-23.348-4.011
					c-6.468-2.752-13.364-6.48-17.477-12.67c-2.668-4.015-3.307-20.527-9.088-19.767c-0.278-0.11-0.556-0.215-0.826-0.312
					l-1.617-0.809c-0.012,0.059-0.02,0.114-0.033,0.172c-2.379-0.949-4.779-1.608-7.171-2.565
					c-5.666-2.268-11.71-4.658-17.323-7.359c-5.188-2.496-9.811-6.324-14.509-9.604c-4.743-3.309-9.329-6.255-14.131-9.379
					c-3.894-2.531-7.585-5.737-11.305-8.529c-0.662-0.498-1.332-0.937-2.006-1.359c1.028,0.808,2.066,1.582,3.085,2.413
					c4.567,3.722,8.22,8.313,12.903,11.845c4.67,3.521,10.081,6.277,15.039,9.489c4.859,3.148,9.58,6.199,14.774,8.905
					c4.524,2.358,9.214,3.934,13.64,6.4c2.057,1.147,4.079,2.365,6.184,3.413c0.065,0.031,0.139,0.062,0.206,0.094
					c-4.239,36.173,44.948,46.381,69.342,28.33c1.473-1.089,2.879-1.788,4.021-3.173
					C404.229,508.941,397.571,513.646,390.533,515.019z"/>
			</g>
			<path opacity="0.2" fill="#FFFFFF" enable-background="new    " d="M389.793,443.324c11.521,3.864,8.364,26.113-2.985,28.059
				c-15.587,2.672-6.581-21.363-0.33-26.683c0.926-0.788,2.073-1.539,3.316-1.803"/>
			<g>
				<g>
					<g>
						<g>
							<path d="M399.991,442.236c0,0,1.038,0.759,3.017,2.203c0.993,0.716,2.166,1.68,3.585,2.778
								c1.41,1.108,2.997,2.44,4.669,4.075c1.672,1.63,3.45,3.544,5.131,5.856c1.684,2.303,3.285,5.003,4.501,8.133
								c1.214,3.123,2.056,6.676,2.196,10.5c0.004,0.478,0.007,0.959,0.011,1.444l0.005,0.729l-0.065,0.729
								c-0.088,0.978-0.176,1.968-0.266,2.972l-0.068,0.756l-0.148,0.748c-0.102,0.499-0.203,1.003-0.307,1.509
								c-0.234,1.005-0.346,2.059-0.715,3.054c-0.32,1.01-0.645,2.031-0.972,3.065c-0.335,1.032-0.839,2.012-1.26,3.038
								c-0.221,0.509-0.443,1.021-0.667,1.535c-0.245,0.504-0.54,0.986-0.811,1.484c-0.566,0.982-1.085,2.01-1.711,2.984
								c-2.512,3.902-5.744,7.558-9.709,10.706c-4.066,3.007-8.954,5.204-14.249,6.222c-5.287,1.035-10.933,0.959-16.479-0.229
								c-5.544-1.188-11.017-3.466-15.918-6.86c-4.898-3.369-9.222-7.93-12.293-13.319c-6.314-10.821-7.145-24.845-2.479-37.139
								c2.339-6.147,6.087-11.751,11.042-15.943c2.47-2.095,5.229-3.825,8.156-5.105c2.923-1.293,6.024-2.096,9.09-2.545
								c6.164-0.912,12.387-0.302,18.071,1.444c5.702,1.734,10.878,4.601,15.279,8.156c8.835,7.08,14.547,17.107,15.787,27.131
								c1.186,10.023-1.265,19.517-5.688,26.743c-4.37,7.31-10.716,12.296-16.965,14.733c-3.141,1.214-6.239,1.784-9.083,2.012
								c-2.85,0.227-5.461,0.13-7.784-0.085c-4.653-0.422-8.196-1.178-10.601-1.636c-2.399-0.496-3.659-0.756-3.659-0.756
								s1.268,0.213,3.683,0.619c2.417,0.371,5.984,1.002,10.612,1.27c2.311,0.14,4.892,0.151,7.678-0.156
								c2.782-0.308,5.776-0.955,8.772-2.213c5.964-2.526,11.943-7.492,15.961-14.603c4.083-7.03,6.198-16.196,4.896-25.624
								c-1.347-9.4-6.88-18.751-15.299-25.31c-4.191-3.293-9.092-5.924-14.432-7.484c-5.328-1.573-11.092-2.079-16.773-1.195
								c-5.688,0.814-11.172,3.174-15.643,7.029c-4.484,3.821-7.927,8.967-10.097,14.666c-4.339,11.41-3.593,24.497,2.143,34.456
								c2.826,5.039,6.751,9.251,11.296,12.46c4.536,3.216,9.645,5.418,14.831,6.604c5.19,1.187,10.481,1.337,15.439,0.45
								c4.961-0.866,9.564-2.84,13.408-5.569c3.743-2.863,6.925-6.288,9.408-9.974c0.62-0.92,1.136-1.895,1.702-2.825
								c0.271-0.473,0.566-0.929,0.812-1.408c0.226-0.489,0.45-0.977,0.673-1.461c0.426-0.977,0.938-1.909,1.281-2.894
								c0.339-0.987,0.674-1.964,1.005-2.929c0.384-0.952,0.508-1.96,0.76-2.923c0.112-0.485,0.223-0.968,0.333-1.447l0.162-0.718
								l0.083-0.725c0.111-0.965,0.221-1.917,0.329-2.855l0.082-0.703l0.013-0.699c0.009-0.465,0.018-0.927,0.026-1.386
								c-0.038-3.673-0.751-7.112-1.841-10.173c-2.21-6.151-5.853-10.677-9.035-13.993c-1.601-1.67-3.138-3.051-4.504-4.202
								c-1.375-1.142-2.51-2.145-3.478-2.896C401.001,443.033,399.991,442.236,399.991,442.236z"/>
						</g>
					</g>
				</g>
				<g>
					<g>
						<g>
							<path d="M353.34,466.2c0,0-0.29-0.47-0.568-1.367c-0.054-0.225-0.061-0.482-0.079-0.765c0.002-0.28-0.046-0.597,0.058-0.909
								c0.082-0.314,0.169-0.664,0.317-0.988c0.171-0.302,0.368-0.614,0.589-0.911c0.961-1.072,1.953-1.513,2.718-1.889
								c0.732-0.373,1.297-0.565,1.297-0.565s-0.101,0.557-0.455,1.386c-0.357,0.792-1.074,1.808-1.76,2.581
								c-0.142,0.203-0.292,0.385-0.46,0.557c-0.137,0.181-0.246,0.362-0.392,0.532c-0.165,0.16-0.223,0.371-0.343,0.549
								c-0.103,0.186-0.233,0.358-0.322,0.536C353.643,465.669,353.34,466.2,353.34,466.2z"/>
						</g>
					</g>
				</g>
				<g>
					<g>
						<g>
							<path d="M354.869,488.379c0,0-0.182-0.074-0.518-0.246c-0.346-0.155-0.804-0.486-1.263-1.043
								c-0.47-0.559-0.811-1.397-0.967-2.349c-0.115-0.941-0.037-1.96,0.193-2.939c0.488-1.95,1.312-3.421,1.806-4.535
								c0.261-0.556,0.453-1.021,0.564-1.357c0.119-0.343,0.186-0.535,0.186-0.535s0.073,0.184,0.182,0.544
								c0.109,0.357,0.206,0.902,0.224,1.566c0.061,1.34-0.243,3.126-0.673,4.859c-0.203,0.869-0.386,1.647-0.497,2.354
								c-0.067,0.688-0.093,1.324,0.035,1.865C354.374,487.656,354.909,488.363,354.869,488.379z"/>
						</g>
					</g>
				</g>
				<g>
					<g>
						<g>
							<path d="M371.949,506.477c0,0-0.968-0.113-2.452-0.573c-1.476-0.462-3.497-1.28-5.374-2.857
								c-1.862-1.545-3.138-3.794-3.02-5.582c0.011-0.217,0.009-0.417,0.04-0.605c0.053-0.185,0.103-0.358,0.149-0.521
								c0.049-0.155,0.096-0.299,0.138-0.433c0.072-0.12,0.139-0.229,0.198-0.329c0.241-0.385,0.379-0.57,0.379-0.57
								c0.053-0.007-0.213,1.036,0.261,2.292c0.434,1.264,1.749,2.577,3.379,3.959c1.639,1.382,3.24,2.651,4.406,3.611
								C371.22,505.825,371.949,506.477,371.949,506.477z"/>
						</g>
					</g>
				</g>
				<g>
					<g>
						<g>
							<path d="M375.518,493.731c0,0-0.394,0.085-0.983-0.008c-0.566-0.108-1.361-0.448-1.825-1.245
								c-0.46-0.805-0.366-1.747-0.098-2.291c0.124-0.278,0.309-0.477,0.419-0.603c0.118-0.127,0.195-0.187,0.195-0.187
								s0.232,0.3,0.56,0.724c0.324,0.391,0.712,0.733,0.96,1.181c0.257,0.448,0.415,1.011,0.547,1.522
								C375.436,493.314,375.518,493.731,375.518,493.731z"/>
						</g>
					</g>
				</g>
				<g>
					<g>
						<g>
							<path d="M379.342,450.905c0,0-0.378,0.225-1.06,0.629c-0.678,0.405-1.668,0.98-2.797,1.76
								c-1.115,0.764-2.388,1.833-3.254,3.169c-0.888,1.249-0.679,3.025-0.901,5.372c-0.04,0.575-0.197,1.151-0.334,1.725
								c-0.096,0.293-0.187,0.588-0.294,0.869c-0.134,0.266-0.267,0.53-0.398,0.792c-0.578,0.987-1.229,1.744-1.733,2.447
								c-0.268,0.351-0.464,0.684-0.652,1.008c-0.073,0.161-0.145,0.319-0.217,0.476c-0.06,0.17-0.081,0.371-0.125,0.552
								c-0.082,0.373-0.161,0.733-0.237,1.08c-0.035,0.37-0.069,0.726-0.102,1.065c-0.15,1.369-0.145,2.527-0.251,3.321
								c-0.087,0.789-0.135,1.227-0.135,1.227s-0.082-0.432-0.232-1.211c-0.113-0.779-0.412-1.883-0.557-3.324
								c-0.039-0.361-0.09-0.738-0.116-1.14c0.015-0.415,0.03-0.847,0.046-1.293c0.018-0.227,0.008-0.452,0.051-0.693
								c0.068-0.248,0.137-0.499,0.207-0.754c0.18-0.472,0.393-0.951,0.642-1.373c0.485-0.868,1.035-1.658,1.426-2.448
								c0.084-0.195,0.17-0.392,0.256-0.59l0.175-0.612c0.084-0.442,0.214-0.897,0.244-1.392c0.121-0.958,0.114-2.03,0.307-3.14
								c0.066-0.549,0.255-1.115,0.441-1.655c0.102-0.269,0.267-0.521,0.4-0.772c0.135-0.256,0.279-0.496,0.472-0.685
								c1.387-1.645,2.968-2.479,4.306-3.052c1.341-0.558,2.454-0.862,3.222-1.067C378.914,451.009,379.342,450.905,379.342,450.905
								z"/>
						</g>
					</g>
				</g>
				<g>
					<g>
						<g>
							<path d="M409.934,466.963c0,0,0.006,0.207,0.017,0.578c0.019,0.363,0.067,0.873,0.155,1.501
								c0.155,1.25,0.457,2.968,0.406,4.954c-0.046,1.973-0.535,3.883-1.333,5.097c-0.418,0.605-0.882,0.993-1.234,1.171
								c-0.375,0.157-0.56,0.21-0.56,0.21s0.11-0.171,0.309-0.477c0.167-0.309,0.309-0.774,0.396-1.343
								c0.143-1.173,0.027-2.816,0.073-4.728c0.05-1.904,0.335-3.718,0.775-5.007c0.208-0.642,0.459-1.149,0.659-1.474
								C409.809,467.121,409.934,466.963,409.934,466.963z"/>
						</g>
					</g>
				</g>
				<g>
					<g>
						<g>
							<path d="M405.853,474.611c0,0,0.462-0.034,1.218,0.147c0.334,0.153,0.795,0.323,1.172,0.696
								c0.185,0.189,0.387,0.397,0.551,0.64c0.138,0.254,0.265,0.532,0.371,0.823c0.323,1.202-0.035,2.192-0.349,2.823
								c-0.339,0.634-0.669,0.99-0.669,0.99s-0.254-0.426-0.505-1.057c-0.266-0.63-0.545-1.419-0.734-2.096
								c-0.168-0.671-0.386-1.286-0.599-1.924C406.03,475.101,405.853,474.611,405.853,474.611z"/>
						</g>
					</g>
				</g>
				<g>
					<g>
						<g>
							<path d="M415.541,472.318c0,0,0.145,0.883,0.263,2.222c0.144,1.354,0.346,3.181,0.164,5.292
								c-0.101,1.105-0.444,2.203-0.86,3.033c-0.414,0.84-0.854,1.522-1.21,2.09c-0.355,0.57-0.66,1.032-0.845,1.37
								c-0.202,0.336-0.315,0.523-0.315,0.523s-0.023-0.215-0.041-0.613c-0.026-0.4,0.004-0.977,0.095-1.677
								c0.092-0.703,0.262-1.504,0.442-2.344c0.181-0.849,0.302-1.665,0.394-2.607c0.171-1.984,0.564-3.876,1.008-5.199
								C415.109,473.077,415.54,472.318,415.541,472.318z"/>
						</g>
					</g>
				</g>
				<g>
					<g>
						<g>
							<path d="M399.991,501.123c0,0-0.5,0.61-1.514,1.425c-1.031,0.751-2.692,1.613-4.654,1.847
								c-1.949,0.214-3.659-0.095-4.872-0.383c-1.212-0.295-1.961-0.593-1.961-0.593s0.751-0.29,1.962-0.583
								c1.21-0.298,2.856-0.585,4.587-0.775c1.724-0.208,3.263-0.411,4.467-0.59C399.174,501.233,399.991,501.123,399.991,501.123z"
								/>
						</g>
					</g>
				</g>
				<g>
					<g>
						<g>
							<path d="M536,364c0,0-0.495,0.439-1.422,1.263c-0.91,0.837-2.148,2.181-3.499,4.056c-1.31,1.902-2.739,4.328-4.042,7.275
								c-1.3,2.947-2.52,6.375-3.679,10.169c-1.171,3.792-2.258,7.956-3.566,12.333c-0.316,1.097-0.688,2.197-1.044,3.316
								c-0.388,1.105-0.78,2.225-1.177,3.357c-0.763,2.273-1.702,4.542-2.575,6.879c-1.916,4.607-4.009,9.343-6.623,13.921
								c-0.606,1.17-1.372,2.256-2.055,3.395l-1.056,1.693c-0.362,0.56-0.776,1.086-1.162,1.632
								c-0.799,1.072-1.547,2.188-2.393,3.231l-2.631,3.066c-7.262,7.879-15.551,14.791-23.95,20.357
								c-8.362,5.639-16.824,9.902-24.283,13.089c-7.469,3.189-13.97,5.245-18.596,6.597c-2.328,0.62-4.17,1.15-5.47,1.456
								c-1.301,0.303-2.037,0.475-2.129,0.496c-1.461,0.327-2.801-0.17-2.99-1.107c-0.19-0.938,0.811-1.957,2.235-2.275
								c0.09-0.02,0.814-0.175,2.092-0.448c1.278-0.274,3.09-0.759,5.383-1.32c4.555-1.233,10.965-3.118,18.355-6.1
								c7.38-2.978,15.774-6.995,24.107-12.37c8.366-5.302,16.675-11.949,23.979-19.556l2.618-2.93
								c0.846-0.999,1.598-2.076,2.4-3.108c0.389-0.525,0.805-1.031,1.17-1.572l1.069-1.641c0.692-1.104,1.467-2.153,2.087-3.294
								c2.665-4.453,4.833-9.098,6.828-13.632c0.915-2.304,1.894-4.538,2.699-6.787c0.418-1.118,0.832-2.225,1.24-3.317
								c0.376-1.101,0.766-2.182,1.104-3.267c1.391-4.327,2.565-8.478,3.817-12.257c1.24-3.783,2.536-7.203,3.903-10.138
								c1.37-2.935,2.857-5.346,4.213-7.228c1.396-1.856,2.664-3.178,3.593-3.998C535.496,364.429,536,364,536,364z"/>
						</g>
					</g>
				</g>
				<g>
					<g>
						<g>
							<path d="M233.999,352c0,0,0.428,0.543,1.23,1.563c0.433,0.489,0.838,1.18,1.322,1.989c0.238,0.406,0.52,0.829,0.773,1.306
								c0.233,0.487,0.481,1.005,0.743,1.552c2.133,4.375,3.915,11.138,5.428,19.309c0.784,4.084,1.523,8.528,2.505,13.177
								c1.007,4.648,2.205,9.492,4.585,14.113c4.276,9.419,10.378,18.738,17.676,27.012c0.451,0.521,0.889,1.055,1.351,1.566
								l1.439,1.486l2.871,2.968c0.928,1.015,1.986,1.895,2.981,2.833c1.007,0.925,2.012,1.848,3.012,2.767
								c2.062,1.768,4.179,3.441,6.23,5.14c2.121,1.634,4.234,3.223,6.331,4.762c8.401,6.135,16.603,11.383,23.965,15.262
								c7.333,3.947,13.839,6.421,18.515,7.743c1.175,0.307,2.224,0.61,3.149,0.826c0.931,0.18,1.73,0.335,2.386,0.462
								c1.309,0.287,2.06,0.313,2.151,0.336c1.463,0.174,2.6,1.096,2.54,2.049c-0.06,0.955-1.411,1.576-3.018,1.383
								c-0.097-0.022-0.917-0.072-2.305-0.4c-0.697-0.148-1.546-0.33-2.535-0.541c-0.977-0.247-2.074-0.586-3.306-0.933
								c-4.892-1.483-11.57-4.185-18.972-8.354c-7.439-4.106-15.635-9.582-23.987-15.934c-2.085-1.593-4.183-3.235-6.286-4.922
								c-2.053-1.767-4.168-3.508-6.227-5.344c-0.998-0.952-2-1.909-3.005-2.868c-0.991-0.972-2.045-1.886-2.968-2.935l-2.855-3.067
								l-1.429-1.535c-0.458-0.528-0.893-1.078-1.34-1.615c-7.237-8.535-13.232-18.097-17.367-27.7
								c-0.511-1.204-1.07-2.37-1.528-3.574c-0.421-1.223-0.877-2.423-1.183-3.647c-0.168-0.608-0.335-1.212-0.501-1.813
								c-0.14-0.606-0.279-1.208-0.417-1.807c-0.292-1.194-0.509-2.386-0.742-3.558c-0.896-4.692-1.548-9.148-2.251-13.24
								c-1.351-8.185-2.992-14.945-5.031-19.344c-0.25-0.55-0.487-1.071-0.71-1.561c-0.243-0.48-0.515-0.906-0.744-1.315
								c-0.467-0.815-0.857-1.514-1.279-2.009C234.416,352.552,233.999,352,233.999,352z"/>
						</g>
					</g>
				</g>
			</g>
		</g>
		<g opacity="0.2">
			<g>
				<g>
					<path fill="#FFFFFF" d="M381.667,471.668c0,0,0.451-0.172,1.263-0.48c0.197-0.072,0.417-0.151,0.657-0.238
						c0.229-0.117,0.478-0.244,0.747-0.381c0.531-0.27,1.133-0.532,1.741-0.959c0.307-0.19,0.629-0.391,0.964-0.599
						c0.323-0.226,0.641-0.492,0.979-0.741c0.694-0.468,1.324-1.114,2.022-1.715c1.308-1.306,2.613-2.828,3.624-4.551
						c1.933-3.312,1.503-7.281,0.861-10.193c-0.31-1.456-0.63-2.663-0.852-3.5c-0.218-0.843-0.338-1.31-0.338-1.31
						s0.329,0.356,0.88,1.037c0.55,0.682,1.318,1.691,2.121,3.071c0.793,1.378,1.635,3.156,1.996,5.406
						c0.161,1.12,0.232,2.355,0.016,3.629c-0.207,1.271-0.635,2.56-1.295,3.76c-1.345,2.307-3.182,3.99-4.985,5.227
						c-0.945,0.563-1.818,1.114-2.734,1.446c-0.448,0.181-0.87,0.368-1.291,0.509c-0.431,0.113-0.845,0.222-1.24,0.326
						c-0.773,0.232-1.517,0.284-2.15,0.345c-0.315,0.026-0.607,0.052-0.877,0.074c-0.273-0.016-0.523-0.03-0.748-0.043
						C382.135,471.726,381.667,471.668,381.667,471.668z"/>
				</g>
			</g>
		</g>
	</g>
</g>
</svg>
