<?xml version="1.0" encoding="utf-8"?>
<!-- Generator: Adobe Illustrator 25.0.1, SVG Export Plug-In . SVG Version: 6.00 Build 0)  -->
<svg version="1.1" id="Capa_1" xmlns="http://www.w3.org/2000/svg" xmlns:xlink="http://www.w3.org/1999/xlink" x="0px" y="0px"
	 viewBox="0 0 800 800" enable-background="new 0 0 800 800" xml:space="preserve">
<g id="narices_1_">
	<g id="_x37__1_">
		<g>
			<path opacity="0.3" enable-background="new    " d="M370.76,493.98c-0.61-1.54-1.72-2.711-3.1-3.601
				c-2.02-1.28-3.9-2.899-6.27-3.27c-6.23-0.99-11.29,2.21-17.18,1.83c-4.22-0.28-9.58-3.73-11.93-7.351
				c-1.5-2.32-1.91-4.939-1.74-7.81c0.18-2.74,1.96-4.48,3.94-6.32c0.56-0.52,1.11-1.09,1.68-1.56c0.58,0.47,1.14,0.939,1.7,1.409
				c1.51,1.261,2.99,2.48,4.59,3.421c2.13,1.26,4.47,2.02,7.39,1.75c0.08-0.07,0.16-0.141,0.23-0.2l0.13-0.37
				c0.11,0.01,0.23,0,0.34,0.01c1.41-0.939,3.34-1.42,4.49-2.49c0.25-0.229,0.48-0.489,0.69-0.77c0.49-0.36,0.97-0.76,1.44-1.19
				c4.13-3.8,0.95-11.21-0.56-15.439c-0.8-2.24-1.45-4.57-3.08-6.46c-2.15-2.48-4.23-2.67-7.44-2.67c-2.21,0-3.88-0.03-5.53,0.64
				c0.04-0.11,0.1-0.23,0.16-0.34l-0.25-0.12c0.17-0.08,0.33-0.2,0.49-0.3c1.9-3.38,4.89-5.45,10.72-5.45
				c9.51,0,14.14-4.21,13.98-13.88c2,4.77-0.96,10.91,0.02,15.88c0.55,2.84,2.28,3.16,3.75,5.65c1.44,2.47,1.28,4.979,1.25,7.71
				c-0.15-7.62-11.29-17.95-18.62-12.61c1.96,2.27,3.72,2.85,4.88,4.189c5.58,4.57,8.26,12.65,5.03,19.591
				c-1.74,3.75-4.61,7.26-4.25,11.64c0.31,3.76,5.76,5.4,7.88,8.11C367.92,486.6,369.88,490.28,370.76,493.98z"/>
			<path opacity="0.7" fill="#B22512" enable-background="new    " d="M334.101,450.195c-0.215-2.053,2.876-4.187,4.351-5.383
				c2.442-1.977,4.486-1.917,7.627-1.917c3.21,0,5.292,0.19,7.44,2.67c1.635,1.891,2.284,4.22,3.083,6.46
				c1.509,4.233,4.687,11.646,0.562,15.44c-4.303,3.956-9.635,5.407-15.16,3.083c-3.786-1.591-6.121-5.836-7.903-9.311
				c-2.092-4.078-3.574-7.93,0.187-11.604"/>
			<path opacity="0.3" enable-background="new    " d="M344.02,443.125c-0.33-0.04-0.65-0.072-0.96-0.053
				c0.05-0.04,0.11-0.07,0.16-0.102c0.78-0.389,1.62-0.52,2.49-0.4l-1.18,0.43h-0.01L344.02,443.125z"/>
			<path opacity="0.3" enable-background="new    " d="M359.2,462.22c0.01,0.011,0.01,0.021,0,0.021c-0.1,0.5-0.25,1.029-0.43,1.58
				c-0.53,1.569-1.41,3.1-2.54,4.449c-2.13,2.54-5.14,4.421-8.28,4.57c-5.17,0.25-9.3-4.439-12.49-8.09
				c-2.24-2.56-3.4-5.52-3.32-8.55c0.04-1.88,0.56-3.78,1.59-5.63c0.11-0.2,0.23-0.41,0.36-0.62c0,0,0-0.01,0.01-0.01
				c0.05-0.101,0.11-0.19,0.17-0.29c0.01-0.011,0.01-0.011,0.02-0.02c1.9-3.05,5.04-6.44,8.77-6.58c-3.71,2-6.01,8.84-3.48,11.78
				c3.28,3.83,9.79,5.46,13.75,2.05c1.96-1.68,2.53-4.04,2.69-6.52c0.19,0.559,0.38,1.12,0.58,1.67
				C357.56,454.72,359.2,458.7,359.2,462.22z"/>
			<g opacity="0.2">
				<g>
					<g>
						<path fill="#FFFFFF" d="M419.886,468.974c0,0-0.263-0.186-0.735-0.522c-0.116-0.082-0.244-0.174-0.385-0.274
							c-0.155-0.076-0.325-0.158-0.507-0.247c-0.178-0.089-0.368-0.184-0.569-0.283c-0.205-0.092-0.442-0.145-0.677-0.226
							c-0.93-0.346-2.121-0.463-3.415-0.496c-1.309-0.001-2.742,0.199-4.235,0.497c-2.985,0.647-5.622,1.649-7.478,2.51
							c-0.469,0.206-0.887,0.408-1.246,0.602c-0.365,0.185-0.684,0.341-0.93,0.491c-0.505,0.285-0.787,0.444-0.787,0.444
							s0.233-0.225,0.654-0.628c0.208-0.209,0.487-0.433,0.811-0.693c0.32-0.27,0.7-0.555,1.137-0.848
							c1.721-1.2,4.339-2.605,7.536-3.301c1.599-0.32,3.172-0.443,4.6-0.3c1.42,0.177,2.694,0.503,3.637,1.053
							C419.222,467.795,419.849,469.033,419.886,468.974z"/>
					</g>
				</g>
			</g>
			<g>
				<g>
					<g>
						<g>
							<path d="M357.55,454.705c0,0,0.102,0.234,0.297,0.68c0.097,0.225,0.216,0.503,0.358,0.831
								c0.143,0.329,0.32,0.708,0.416,1.166c0.119,0.455,0.251,0.961,0.395,1.515c0.099,0.563,0.136,1.188,0.211,1.861
								c0.078,0.675-0.041,1.398-0.062,2.174c-0.012,0.39-0.144,0.77-0.216,1.176c-0.103,0.397-0.143,0.828-0.31,1.229
								c-0.539,1.655-1.518,3.357-2.972,4.861c-1.448,1.509-3.496,2.674-5.837,3.189c-2.341,0.52-4.985,0.269-7.373-0.767
								c-2.415-1.001-4.514-2.745-6.202-4.835c-3.36-4.205-4.782-9.531-4.039-14.174c0.733-4.666,3.624-8.316,6.812-9.813
								c1.582-0.758,3.121-1.072,4.448-1.226c1.334-0.142,2.476-0.136,3.404-0.108c1.855,0.062,2.871,0.162,2.871,0.162
								s-1.024,0.061-2.857,0.238c-1.797,0.209-4.555,0.459-7.251,2.061c-2.656,1.575-4.884,4.963-5.28,8.97
								c-0.422,4.007,0.966,8.627,3.894,12.284c1.464,1.813,3.239,3.324,5.194,4.195c1.937,0.905,4.034,1.198,5.97,0.886
								c1.93-0.314,3.714-1.149,5.05-2.347c1.337-1.19,2.338-2.595,2.966-4.029c0.188-0.346,0.255-0.727,0.387-1.077
								c0.101-0.358,0.265-0.696,0.31-1.05c0.089-0.703,0.282-1.368,0.28-2.003c0-0.634,0.038-1.232,0.01-1.781
								c-0.071-0.548-0.137-1.049-0.195-1.499c-0.035-0.459-0.156-0.847-0.251-1.186c-0.093-0.342-0.172-0.631-0.236-0.864
								C357.617,454.952,357.55,454.705,357.55,454.705z"/>
						</g>
					</g>
				</g>
				<g>
					<g>
						<g>
							<path d="M312.959,455.151c0,0,0.327-0.289,0.916-0.811c0.58-0.54,1.497-1.23,2.719-1.981c0.645-0.311,1.311-0.765,2.14-1
								c0.407-0.131,0.821-0.309,1.268-0.41c0.455-0.079,0.922-0.16,1.402-0.244c1.939-0.201,4.116,0.061,6.213,0.8
								c2.029,0.721,3.924,1.493,5.626,2.296c0.841,0.426,1.645,0.81,2.358,1.263c0.359,0.218,0.709,0.42,1.036,0.631
								c0.316,0.23,0.619,0.451,0.909,0.662c0.591,0.399,1.06,0.854,1.471,1.243c0.205,0.193,0.396,0.374,0.572,0.54
								c0.152,0.19,0.29,0.362,0.415,0.519c0.482,0.623,0.75,0.969,0.75,0.969s-0.326-0.289-0.913-0.811
								c-0.144-0.129-0.305-0.272-0.48-0.429c-0.196-0.133-0.409-0.277-0.637-0.434c-0.453-0.312-0.954-0.679-1.577-0.99
								c-0.301-0.167-0.616-0.342-0.944-0.524c-0.342-0.159-0.697-0.325-1.065-0.497c-0.724-0.361-1.542-0.665-2.384-1.018
								c-1.706-0.655-3.62-1.339-5.622-2.05c-1.946-0.681-3.871-0.994-5.628-0.947c-0.439,0.04-0.867,0.079-1.283,0.117
								c-0.415,0.054-0.805,0.183-1.193,0.264c-0.788,0.133-1.457,0.486-2.109,0.701c-1.25,0.561-2.257,1.089-2.912,1.516
								C313.333,454.928,312.959,455.151,312.959,455.151z"/>
						</g>
					</g>
				</g>
				<g>
					<g>
						<g>
							<path d="M324.556,430.77c0.023,0.005-0.168,0.415-0.277,1.168c-0.145,0.753,0.027,1.872,0.597,3.077
								c0.564,1.218,1.567,2.503,2.778,3.848c1.199,1.371,2.687,2.697,4.085,4.446c0.611,0.898,1.208,1.776,1.785,2.624
								c0.141,0.213,0.28,0.425,0.419,0.635c0.117,0.221,0.232,0.439,0.347,0.655c0.226,0.435,0.448,0.859,0.664,1.273
								c0.889,1.649,1.508,3.194,2.071,4.48c1.103,2.567,1.731,4.188,1.731,4.188s-0.951-1.451-2.381-3.862
								c-0.72-1.195-1.508-2.667-2.49-4.205c-0.237-0.391-0.48-0.79-0.727-1.198c-0.123-0.205-0.247-0.412-0.372-0.621
								c-0.142-0.196-0.286-0.393-0.431-0.593c-0.57-0.804-1.16-1.635-1.765-2.486c-1.261-1.587-2.747-3.053-3.876-4.551
								c-1.151-1.484-2.071-2.966-2.512-4.366c-0.449-1.39-0.432-2.636-0.143-3.392C324.308,431.131,324.579,430.777,324.556,430.77
								z"/>
						</g>
					</g>
				</g>
				<g>
					<g>
						<g>
							<path d="M333.355,431.889c0,0,0.323,0.246,0.907,0.688c0.147,0.113,0.309,0.24,0.487,0.378
								c0.159,0.16,0.331,0.333,0.517,0.518c0.37,0.375,0.807,0.798,1.184,1.349c0.2,0.268,0.409,0.551,0.627,0.845
								c0.184,0.315,0.375,0.643,0.573,0.983c0.426,0.672,0.71,1.465,1.073,2.275c0.622,1.659,1.083,3.556,1.355,5.562
								c0.507,4.024,0.265,7.656,0.073,10.256c-0.21,2.604-0.398,4.212-0.398,4.212s-0.176-1.613-0.329-4.218
								c-0.17-2.602-0.298-6.19-0.788-10.061c-0.263-1.932-0.614-3.745-1.075-5.357c-0.281-0.782-0.476-1.567-0.805-2.232
								c-0.148-0.343-0.291-0.674-0.429-0.993c-0.168-0.303-0.33-0.593-0.483-0.87c-0.285-0.576-0.635-1.034-0.929-1.452
								c-0.148-0.21-0.285-0.405-0.412-0.585c-0.146-0.163-0.28-0.312-0.4-0.447C333.623,432.192,333.355,431.889,333.355,431.889z"
								/>
						</g>
					</g>
				</g>
				<g>
					<g>
						<g>
							<path d="M431.138,468.127c0,0,0.475,0.316,1.379,0.919c0.456,0.298,0.972,0.731,1.609,1.211
								c0.634,0.483,1.306,1.152,1.908,2.014c1.206,1.698,2.202,4.271,1.896,7.333c-0.173,1.508-0.709,3.157-1.861,4.529
								c-1.14,1.35-2.812,2.465-4.812,2.807c-0.993,0.162-2.016,0.133-3.029,0.009c-1.004-0.155-2.006-0.39-2.989-0.684
								c-1.964-0.577-3.92-1.335-5.917-1.676c-0.504-0.064-1.011-0.124-1.521-0.114l-0.768-0.019l-0.386-0.012l-0.383,0.056
								c-0.511,0.086-1.029,0.12-1.542,0.241c-0.508,0.147-1.021,0.296-1.537,0.445c-2.033,0.748-3.993,1.938-5.848,3.375
								c-1.894,1.475-3.592,3.057-4.969,5.067c-1.409,1.994-2.602,4.298-4.086,6.593c-0.743,1.156-1.55,2.271-2.524,3.382
								c-1.008,1.107-2.243,2.053-3.624,2.727c-2.779,1.368-5.995,1.574-8.957,1.023c-2.947-0.498-5.862-1.934-8.025-3.956
								c-2.194-2.029-3.688-4.472-5.022-6.786c-0.325-0.576-0.648-1.15-0.971-1.721c-0.328-0.55-0.673-1.045-1.005-1.568
								c-0.705-1.005-1.468-1.951-2.311-2.769c-1.679-1.641-3.717-2.717-5.898-2.939c-2.16-0.229-4.433,0.285-6.621,0.859
								c-2.2,0.582-4.412,1.257-6.686,1.493c-1.124,0.149-2.292,0.105-3.396-0.006c-0.543-0.115-1.081-0.229-1.614-0.341
								c-0.533-0.107-1.021-0.337-1.523-0.498l-0.742-0.266c-0.24-0.102-0.467-0.232-0.699-0.347
								c-0.458-0.239-0.919-0.462-1.358-0.71c-0.814-0.601-1.684-1.085-2.35-1.793c-0.348-0.334-0.708-0.647-1.03-0.986
								c-0.292-0.368-0.58-0.732-0.865-1.09l-0.421-0.534c-0.123-0.188-0.226-0.39-0.338-0.581
								c-0.218-0.387-0.434-0.768-0.646-1.143c-0.389-0.767-0.618-1.579-0.915-2.326c-0.124-0.384-0.205-0.775-0.305-1.152
								c-0.082-0.384-0.125-0.771-0.187-1.145c-0.173-1.515,0-2.952,0.391-4.184c0.389-1.236,0.97-2.269,1.563-3.128
								c1.194-1.725,2.439-2.776,3.254-3.488c0.414-0.353,0.742-0.605,0.964-0.773c0.221-0.17,0.333-0.257,0.333-0.257
								s-0.107,0.095-0.315,0.28c-0.209,0.183-0.518,0.457-0.907,0.835c-0.762,0.761-1.926,1.888-2.98,3.631
								c-1.06,1.703-1.961,4.166-1.468,6.97c0.497,2.767,2.02,5.829,4.747,8.065c0.629,0.62,1.454,1.022,2.208,1.538
								c0.409,0.208,0.838,0.39,1.261,0.59c0.214,0.095,0.422,0.206,0.643,0.29l0.682,0.209c0.459,0.125,0.909,0.321,1.386,0.395
								c0.475,0.082,0.954,0.164,1.437,0.247c0.971,0.052,1.948,0.062,2.969-0.112c2.034-0.283,4.115-0.985,6.353-1.655
								c2.238-0.649,4.667-1.331,7.395-1.128c2.705,0.193,5.35,1.53,7.338,3.417c1.01,0.94,1.887,1.99,2.694,3.103
								c0.377,0.568,0.786,1.145,1.139,1.717c0.332,0.569,0.665,1.141,1,1.714c1.332,2.248,2.745,4.448,4.604,6.133
								c1.864,1.683,4.118,2.812,6.72,3.272c2.546,0.471,5.154,0.277,7.32-0.773c1.083-0.519,2.05-1.244,2.866-2.12
								c0.811-0.907,1.6-1.951,2.301-3.017c1.428-2.136,2.676-4.455,4.252-6.604c1.551-2.182,3.591-3.996,5.581-5.452
								c2.031-1.49,4.211-2.742,6.546-3.519c0.598-0.152,1.191-0.305,1.779-0.455c0.597-0.121,1.213-0.15,1.809-0.224l0.449-0.045
								l0.448,0.023l0.891,0.05c0.594,0.015,1.17,0.103,1.738,0.198c2.27,0.48,4.205,1.336,6.075,1.962
								c0.932,0.321,1.844,0.572,2.74,0.753c0.894,0.147,1.77,0.208,2.605,0.111c1.663-0.204,3.134-1.076,4.185-2.195
								c1.054-1.133,1.613-2.566,1.845-3.936c0.435-2.781-0.348-5.296-1.407-6.987c-0.528-0.861-1.126-1.539-1.721-2.058
								c-0.6-0.513-1.085-0.979-1.517-1.305C431.589,468.476,431.138,468.127,431.138,468.127z"/>
						</g>
					</g>
				</g>
				<g>
					<g>
						<g>
							<path d="M344.953,456.719c0,0,0.089-0.586,0.136-1.459c0.057-0.873,0.104-2.049,0.133-3.257
								c0.028-1.208-0.001-2.203-0.41-2.767c-0.412-0.596-1.087-0.768-1.058-0.796c0,0,0.131-0.043,0.403-0.1
								c0.137-0.032,0.309-0.065,0.512-0.027c0.208,0.02,0.458,0.046,0.701,0.186c0.533,0.216,1.006,0.769,1.296,1.409
								c0.31,0.651,0.41,1.388,0.404,2.134c-0.042,1.497-0.591,2.721-1.107,3.517C345.447,456.367,344.953,456.719,344.953,456.719z
								"/>
						</g>
					</g>
				</g>
				<g>
					<g>
						<g>
							<path d="M349.154,456.942c0,0,0.365-0.579,0.936-1.484c0.27-0.442,0.536-0.972,0.699-1.518
								c0.139-0.555,0.14-1.129,0.055-1.746c-0.331-1.378-0.762-2.732-1.238-3.585c-0.114-0.226-0.229-0.423-0.357-0.57
								c-0.121-0.16-0.222-0.32-0.338-0.399c-0.229-0.202-0.358-0.315-0.358-0.315c-0.035,0.022,0.766-0.081,1.739,0.666
								c0.964,0.723,1.936,2.047,2.363,3.837c0.169,0.996-0.018,2.001-0.441,2.746c-0.441,0.732-0.986,1.2-1.455,1.522
								c-0.472,0.323-0.875,0.525-1.159,0.654C349.314,456.873,349.154,456.942,349.154,456.942z"/>
						</g>
					</g>
				</g>
				<g>
					<g>
						<g>
							<path d="M362.949,445.086c0,0-0.078-0.148-0.218-0.412c-0.118-0.262-0.352-0.612-0.639-0.995
								c-0.593-0.772-1.54-1.591-2.728-2.36c-1.179-0.774-2.351-1.431-3.263-1.853c-0.906-0.43-1.551-0.643-1.551-0.643
								s0.164-0.045,0.454-0.124c0.296-0.066,0.738-0.138,1.287-0.137c1.092-0.013,2.649,0.27,4.092,1.216
								c1.455,0.933,2.333,2.415,2.551,3.526c0.111,0.558,0.127,1.009,0.078,1.316C362.98,444.927,362.949,445.086,362.949,445.086z
								"/>
						</g>
					</g>
				</g>
				<g>
					<g>
						<g>
							<path d="M362.55,469.47c0,0,0.195-0.188,0.545-0.523c0.354-0.328,0.865-0.8,1.493-1.381c1.223-1.142,2.866-2.808,3.337-4.99
								c0.474-2.259,0.138-4.598-0.091-6.251c-0.133-0.834-0.251-1.522-0.349-1.994c-0.087-0.478-0.135-0.743-0.135-0.743
								s0.145,0.228,0.405,0.64c0.261,0.414,0.601,1.032,0.965,1.833c0.349,0.805,0.748,1.789,0.967,2.964
								c0.228,1.17,0.361,2.507,0.042,3.957c-0.334,1.444-1.132,2.698-2.026,3.521c-0.891,0.843-1.798,1.419-2.579,1.817
								c-0.774,0.416-1.426,0.677-1.871,0.87C362.802,469.369,362.55,469.47,362.55,469.47z"/>
						</g>
					</g>
				</g>
				<g>
					<g>
						<g>
							<path d="M357.95,473.497c0,0-0.19,0.196-0.532,0.548c-0.34,0.364-0.897,0.817-1.635,1.326
								c-1.49,0.972-3.793,2.087-6.676,2.165c-1.483-0.016-2.817-0.468-3.873-0.943c-1.07-0.479-1.962-0.989-2.72-1.36
								c-0.378-0.204-0.725-0.358-1.035-0.491c-0.308-0.147-0.58-0.259-0.809-0.324c-0.461-0.161-0.717-0.25-0.717-0.25
								s0.273-0.013,0.764-0.035c0.252-0.018,0.556-0.003,0.906,0.043c0.355,0.032,0.759,0.083,1.189,0.183
								c1.743,0.315,4.022,1.296,6.289,1.33c2.401-0.059,4.683-0.629,6.272-1.146c0.793-0.277,1.451-0.52,1.881-0.735
								C357.702,473.607,357.95,473.497,357.95,473.497z"/>
						</g>
					</g>
				</g>
				<g>
					<g>
						<g>
							<path d="M351.551,478.865c0,0-0.311,0.207-0.836,0.397c-0.522,0.191-1.267,0.366-2.072,0.303
								c-0.751-0.06-1.395-0.346-1.888-0.618c-0.487-0.272-0.803-0.529-0.803-0.529s0.311-0.206,0.836-0.395
								c0.521-0.189,1.275-0.359,2.07-0.294c0.741,0.057,1.396,0.34,1.887,0.61C351.235,478.609,351.551,478.865,351.551,478.865z"
								/>
						</g>
					</g>
				</g>
				<g>
					<g>
						<g>
							<path d="M365.349,484.011c0,0-0.727-0.104-1.868-0.269c-1.129-0.151-2.651-0.307-4.236-0.316
								c-0.793,0.005-1.518,0.073-2.173,0.197c-0.65,0.134-1.214,0.357-1.68,0.614c-0.452,0.268-0.833,0.54-1.056,0.769
								c-0.246,0.222-0.384,0.346-0.384,0.346c0.036,0.022,0.056-0.766,0.825-1.804c0.39-0.502,0.993-1.033,1.781-1.398
								c0.784-0.354,1.72-0.569,2.68-0.572c1.929,0.015,3.516,0.688,4.545,1.291C364.824,483.477,365.349,484.011,365.349,484.011z"
								/>
						</g>
					</g>
				</g>
				<g>
					<g>
						<g>
							<path d="M409.141,480.878c0,0-0.115,0.031-0.335,0.091c-0.217,0.07-0.545,0.115-0.936,0.29
								c-0.802,0.271-1.887,0.849-3.069,1.753c-2.383,1.803-5.051,5.015-7.477,8.898c-1.29,1.957-2.352,3.815-3.447,5.575
								c-1.081,1.738-2.229,3.256-3.376,4.353c-1.159,1.09-2.274,1.759-3.086,2.081c-0.389,0.197-0.73,0.262-0.94,0.344
								c-0.216,0.068-0.33,0.104-0.33,0.104s0.103-0.061,0.298-0.178c0.189-0.128,0.496-0.256,0.832-0.523
								c0.709-0.464,1.625-1.283,2.542-2.45c0.909-1.182,1.795-2.719,2.706-4.507c0.9-1.769,1.951-3.839,3.239-5.79
								c2.525-4.047,5.741-7.172,8.535-8.683c1.39-0.764,2.63-1.149,3.5-1.258c0.427-0.095,0.773-0.069,0.998-0.09
								C409.021,480.882,409.141,480.878,409.141,480.878z"/>
						</g>
					</g>
				</g>
				<g>
					<g>
						<g>
							<path d="M431.737,473.272c0,0,0.237,0.628,0.433,1.669c0.19,1.038,0.344,2.508,0.023,4.129
								c-0.312,1.607-1.126,3.076-2.12,3.757c-1.008,0.7-1.767,0.475-1.735,0.514c0,0,0.132-0.1,0.365-0.276
								c0.219-0.175,0.482-0.471,0.697-0.87c0.449-0.793,0.695-2.052,0.98-3.488c0.287-1.439,0.597-2.798,0.865-3.798
								C431.513,473.907,431.737,473.272,431.737,473.272z"/>
						</g>
					</g>
				</g>
				<g>
					<g>
						<g>
							<path d="M435.136,473.945c0,0,0.235,0.636,0.482,1.676c0.115,0.524,0.241,1.153,0.266,1.888
								c0.035,0.726-0.025,1.574-0.348,2.439c-0.064,0.16-0.125,0.319-0.161,0.411c0.019-0.046,0.025-0.065,0.032-0.083
								c-0.34,0.892-0.918,1.524-1.437,1.979c-0.528,0.445-1.016,0.755-1.403,1.025c-0.387,0.271-0.711,0.489-0.901,0.674
								c-0.21,0.18-0.327,0.28-0.327,0.28s0.037-0.151,0.103-0.422c0.064-0.283,0.238-0.662,0.487-1.109
								c0.505-0.893,1.407-1.939,1.736-3.011l0.033-0.083c0.023-0.067,0.062-0.185,0.104-0.302c0.465-1.238,0.65-2.656,0.892-3.679
								C434.909,474.594,435.136,473.945,435.136,473.945z"/>
						</g>
					</g>
				</g>
			</g>
			<g opacity="0.2">
				<g>
					<g>
						<path fill="#FFFFFF" d="M350.667,446.334c0,0-0.172-0.027-0.476-0.075c-0.137-0.025-0.301-0.044-0.492-0.033
							c-0.184,0.003-0.364,0-0.57,0.047c-0.792,0.124-1.503,0.535-2.48,0.732c-0.974,0.208-2.08,0.211-3.002,0.248
							c-0.915,0.022-1.648,0.081-1.648,0.081s0.012-0.176,0.081-0.484c0.07-0.308,0.214-0.743,0.488-1.212
							c0.53-0.941,1.62-2.071,3.276-2.433c0.825-0.169,1.689-0.113,2.446,0.143c0.762,0.283,1.392,0.706,1.765,1.218
							C350.818,445.572,350.633,446.362,350.667,446.334z"/>
					</g>
				</g>
			</g>
			<g opacity="0.2">
				<g>
					<g>
						<path fill="#FFFFFF" d="M347,445.666c0,0.001-0.135,0.504-0.18,0.998c-0.039,0.474-0.025,1.009-0.163,1.04
							c-0.182,0.081-0.563-0.29-0.956-0.633c-0.376-0.356-0.702-0.737-0.702-0.737s-0.112-0.486-0.143-1.012
							c-0.051-0.521,0.058-1.098,0.417-1.247c0.422-0.14,0.936,0.198,1.288,0.665C346.899,445.19,347,445.666,347,445.666z"/>
					</g>
				</g>
			</g>
			<g opacity="0.2">
				<g>
					<g>
						<path fill="#FFFFFF" d="M347.667,445.667c0,0-0.001,0.501-0.196,1.053c-0.192,0.569-0.594,1.107-1.124,1.172
							c-1.03,0.067-1.68-1.892-1.68-1.892s0.708-1.935,1.35-1.978c0.3-0.046,0.655,0.416,0.986,0.813
							C347.372,445.298,347.667,445.667,347.667,445.667z"/>
					</g>
				</g>
			</g>
			<g opacity="0.2">
				<g>
					<g>
						<path fill="#FFFFFF" d="M420.333,467.667c0,0-0.095-0.052-0.274-0.15c-0.171-0.104-0.427-0.24-0.775-0.357
							c-0.683-0.254-1.69-0.424-2.923-0.353c-2.475,0.122-5.809,1.16-9.457,2.458c-3.65,1.305-6.979,2.605-9.315,3.758
							c-1.167,0.575-2.079,1.121-2.683,1.559c-0.296,0.222-0.532,0.404-0.672,0.544c-0.153,0.137-0.233,0.209-0.233,0.209
							s0.032-0.103,0.092-0.298c0.056-0.203,0.172-0.483,0.347-0.844c0.356-0.71,1.007-1.684,1.98-2.72
							c1.938-2.071,5.134-4.419,9.184-5.867c4.034-1.441,8.184-1.645,11.037-0.721c1.426,0.445,2.449,1.172,2.988,1.774
							c0.282,0.293,0.447,0.556,0.55,0.739C420.279,467.574,420.333,467.667,420.333,467.667z"/>
					</g>
				</g>
			</g>
		</g>
	</g>
</g>
</svg>
