<?xml version="1.0" encoding="utf-8"?>
<!-- Generator: Adobe Illustrator 25.0.1, SVG Export Plug-In . SVG Version: 6.00 Build 0)  -->
<svg version="1.1" id="Capa_1" xmlns="http://www.w3.org/2000/svg" xmlns:xlink="http://www.w3.org/1999/xlink" x="0px" y="0px"
	 viewBox="0 0 800 800" enable-background="new 0 0 800 800" xml:space="preserve">
<g id="narices_1_">
	<g id="_x33__3_">
		<g>
			<g>
				<path fill="#470F09" d="M376.969,504.053c3.581-2.835,7.95-5.674,10.796-9.326c3.773-4.843,3.803-10.675,3.803-16.715
					c0-5.746-3.301-10.156-7.743-13.564c-4.008-3.072-7.84-7.091-12.183-9.715c-2.517-1.52-5.356-0.878-7.748-2.117
					c-2.178-1.128-3.758-3.834-4.877-5.973c-1.433-2.734-0.501-5.948-0.501-9.074c0-1.342,0.485-9.204,0.485-9.893
					c0-0.037,0-0.073,0-0.109c0,2.329-3.085,4.475-4.585,6.1c-1.596,1.728-3.589,3.928-4.977,5.919
					c-3.16,4.532-4.136,10.702-2.186,15.984c1.762,4.777,5.127,8.607,9.259,11.591c2.312,1.67,3.986,3.08,4.705,5.919
					c0.623,2.46,0.973,6.953,0.143,9.432c-0.484,1.45-1.575,1.421-0.167,2.8c0.773,0.758,2.289,1.131,3.208,1.722
					c1.905,1.224,3.704,2.911,5.265,4.586c3.846,4.128,6.908,7.609,6.908,13.421"/>
				<path opacity="0.3" enable-background="new    " d="M379.731,461.834c1.96,0.334,4.707,4.916,5.332,6.702
					c1.083,3.092,1.035,6.612,1.209,10.037c3.764-0.802-0.558,8.606-1.56,9.938c-2.216,2.942-5.202,4.283-8.463,5.292
					c1.778-1.646,2.971-3.462,3.886-5.666c-0.316,1.197-0.921,2.734-1.799,3.61c0.685-1.628,2.036-3.64,1.744-5.435
					c-1.271,1.511-1.529,4.484-3.466,5.489c-0.353-2.333,2.037-5.229,2.48-7.477c0.503-2.551,1.018-6.743,0.207-9.258
					c-0.606,0.628-1.012,1.654-1.554,2.479c-0.076-0.896-0.014-2.026,0.374-2.667c-0.304,0.273-0.59,0.181-0.921,0.339
					c-0.26-0.72-0.302-1.543-0.261-2.308c-1.073-0.206-1.209-1.921-1.184-2.958c-0.342,0.146-0.968,0.01-1.322,0.138
					c-0.181-0.621-0.264-1.233-0.261-1.918c-2.116,1.227-2.746,1.641-2.719-1.338c-1.708,2.035-1.825-1.559-1.774-2.564
					c-0.133,0.737-0.57,1.329-1.362,1.281c-0.089-1.025-0.354-1.979-0.217-3.057c-1.091,1.627-1.633-0.582-2.575-1.055
					c-0.579-0.291-1.515-0.064-2.175-0.347c-0.492-0.21-1.058-0.797-1.529-1.079c-1.47-0.881-1.81-0.867-2.016-2.718
					c-0.175-1.555,0.233-2.733-0.967-3.907c0.711-0.082,1.431-0.061,2.124,0.08c-0.571-2.028-3.677-1.448-4.828-3.25
					c0.652,0.782,1.597,2.237,2.535,2.691c1.078,0.522,2.739,0.225,3.886,0.45c2.345,0.462,4.768,1.408,7.112,2.117
					c4.922,1.483,7.736,3.889,11.641,7.342"/>
				<path opacity="0.3" enable-background="new    " d="M369.669,454.337c-4.619-0.884-7.971-4.216-9.262-8.494
					c-1.276-4.234-2.821-11.343-1.195-15.604c-0.056,1.255-1.221,2.088-1.917,3.043c-0.749,1.027-1.208,2.1-1.682,3.251
					c-1.037,2.512-2.128,5.81-1.485,8.686c1.002,4.494,8.875,7.935,12.779,9.268c1.346,0.46,3.234,0.807,4.172,1.229
					c-2.006-0.073-4.607-1.469-6.316-2.341c0.972,1.309,2.536,2.268,3.654,3.536c-2.517-0.611-5.043-1.891-7.605-2.352
					c0.32,0.663,0.857,1.295,1.336,1.869c-0.879-0.562-1.769-1.239-2.717-1.666c0.352,0.532,0.778,1.133,1.142,1.67
					c-0.456-0.411-1.061-0.738-1.517-1.09c0.084,2.032,2.279,3.793,3.911,4.765c2.349,1.399,2.872,2.642,2.998,5.459
					c0.24-0.451,0.47-1.131,0.587-1.744c0.732,0.946,0.559,2.419,0.543,3.663c0.132-0.191,0.306-0.398,0.404-0.551
					c0.875,1.348,0.801,3.423,0.779,5.088c0.394-1.025,0.97-2.182,1.796-3.012c0.195,0.596,0.28,1.349,0.188,2.037
					c0.057-0.804,0.559-1.383,1.34-1.494c0.281,0.658,0.297,1.408,0.278,2.13c1.645-2.164,3.807,2.892,3.737,4.325
					c0.186,0.049,0.348,0.008,0.533,0.06c0.038,0.715,0.13,1.168-0.29,1.562c2.144-1.371,3.882,0.823,1.168,1.969
					c1.599-0.159,1.445,2.451,0.602,2.913c0.34-0.44,0.895-0.718,1.278-0.925c0.138,2.374,0.568,6.128-0.119,8.245
					c-0.439-1.857,3.391-4.784,4.854-5.286c0.101,0.643,0.097,1.331-0.172,1.878c0.046-1.311,1.424-2.232,2.534-2.673
					c-0.077,0.699-0.014,0.681-0.512,1.145c1.247-5.247,0.706-13.157-1.667-18.085c-2.365-4.911-7.068-7.294-11.64-9.663
					c-0.749-0.389-1.527-0.804-2.318-1.036"/>
				<path opacity="0.3" enable-background="new    " d="M383.084,465.583c0.426,1.212,1.342,2.31,1.825,3.541
					c0.639,1.621,0.483,3.133,0.587,4.898c0.188,3.203,0.549,6.472-0.832,9.148c-0.003-1.512,0.322-3.727-0.199-4.989
					c-0.534,0.888-1.058,2.189-1.73,2.972c-0.105-1.29-0.289-2.64-0.276-3.915c-2.139,3.803-2.889-2.186-3.863-3.768
					c-1.149-1.864-2.943-4.287-4.34-6.15c-3.027-4.037-8.096-5.561-11.609-8.858c0.734,0.589,1.625,1.136,2.412,1.611
					c-0.703-0.72-1.507-1.3-2.225-2c1.421,0.513,2.909,1.114,4.285,1.715c-0.05-0.658-0.254-1.3-0.586-1.869
					c0.937,0.024,1.83,0.559,2.701,0.938c-0.127-0.562-0.202-1.182-0.531-1.727c2.29-0.297,6.023,1.662,8.064,2.584
					c2.122,0.958,5.478,3.061,6.516,5.278"/>
				<path opacity="0.3" enable-background="new    " d="M370.853,455.521c1.265,1.305,2.92,1.555,0.607,3.122
					c0.281-0.135,0.701-0.227,0.941-0.33c-0.245,0.603-0.796,1.15-1.287,1.716c0.732-0.139,1.536-0.588,2.269-0.734
					c-0.154,0.918-1.054,1.725-1.715,2.461c0.497-0.355,1.189-0.547,1.716-0.686c0.41,0.878,0.236,1.814-0.488,2.506
					c1.727,0.004,1.207,2.368,1.701,3.378c0.546,1.119,1.847,2.55,2.619,3.512c1.647,2.056,3.26,4.017,2.589,6.978
					c1.022-0.724,2.715-2.272,3.9-1.601c-0.263,0.168-0.496,0.262-0.787,0.369c0.244-0.42,0.269-0.812,0.723-1.223
					c0.076-0.07,0.079-0.067,0.01,0.01c-0.216,0.029-0.54-0.015-0.733,0.025c-0.178-0.928,0.093-1.82,0.132-2.698
					c-2.592-0.942,1.247-3.452,2.131-4.182c-0.153-0.094-0.483-0.168-0.68-0.228c-0.117-1.792-3.574-4.982-4.918-6.327
					c-1.559-1.559-4.169-4.44-6.362-4.686"/>
				<path fill="none" stroke="#000000" stroke-width="0.7074" stroke-miterlimit="10" d="M374.206,456.705
					c1.23,1.051,1.275,3.035,0.469,4.354c1.201,0.018,2.257-0.595,3.446-0.577c0.097,0.857-0.586,1.482-1.282,1.953
					c2.124-0.171-0.018,2.065-0.444,2.713c1.445-0.018,1.873,1.806,0.636,2.564c0.207,0.007,0.482,0.08,0.696,0.069
					c0.145,0.934-0.408,1.364-0.374,2.15c0.03,0.692,0.725,1.366,0.631,2.328c0.956-0.048,2.002-0.204,2.357,0.817
					c-0.299,0.242-0.372,0.418-0.783,0.567c0.728-1.741,2.736-1.016,3.782-1.933c0.649-0.572,1.438-2.889,1.894-3.723
					c-0.805-0.133-1.573,0.036-2.317,0.128c0.116-1.979-0.663-4.681-1.951-6.136c-0.829-0.938-4.129-3.853-5.182-3.896"/>
				<path opacity="0.3" enable-background="new    " d="M404.193,437.766c0.012-3.365,0.422-6.157-0.789-9.262
					c-1.072-2.749-2.172-5.343-2.751-8.101c-1.364-6.507-2.865-12.948-4.593-19.518c-2.056-7.824-3.016-16.038-4.898-23.823
					c0.108,6.493-0.228,13.153,0.404,19.472c0.319,3.183,0.382,6.387,0.999,9.469c0.539,2.697,1.115,5.772-0.352,8.341
					c-0.538,0.942-1.665,1.709-2.027,2.707c-0.544,1.503-0.145,1.422,1.035,2.758c1.642,1.858,3.154,3.743,4.835,5.577
					c1.53,1.672,3.249,3.503,4.432,5.427c1.154,1.874,3.287,5.107,3.114,7.349"/>
				<path opacity="0.3" enable-background="new    " d="M378.745,504.25c2.57,0.105,5.027,2.427,7.892,2.564
					c3.088,0.148,5.89-0.506,8.631-1.823c4.885-2.347,8.436-6.402,12.233-10.258c4.158-4.227,6.645-7.886,7.5-13.608
					c0.92-6.153,1.053-12.763-0.795-18.697c-1.066-3.436-2.897-6.627-5.031-9.51c-1.012-1.368-2.28-2.704-3.16-4.147
					c-1.031-1.692-1.022-3.361-1.435-5.213c2.413,2.986,5.316,5.732,7.655,8.813c1.272,1.676,2.301,3.397,3.254,5.321
					c0.911,1.84,1.099,4.521,2.274,5.894c0.377-0.77,0.604-1.514,0.867-2.309c5.212-0.467,3.682,10.876,3.517,13.973
					c-0.103,1.958-0.436,5.389-2.219,6.659c-2.832,2.015-3.113-1.682-4.449-3.088c-0.098,2.631-1.941,5.117-2.205,7.877
					c-0.275,2.873-0.526,5.817-1.829,8.429c-2.22,4.447-4.661,8.938-8.583,12.329c-7.385,6.388-16.445,0.778-23.919-1.824"/>
				<path opacity="0.6" fill="#ED1C24" enable-background="new    " d="M368.091,454.337c2.606-0.279,5.166,2.948,4.932,5.327
					c-0.143,1.458-1.089,2.549-0.788,4.142c0.25,1.328,1.262,1.828,2.02,2.912c1.782,2.544,2.294,5.183,2.122,8.334
					c-0.082,1.495,0.037,3.411-0.641,4.73c-0.604,1.175-1.666,1.547-2.564,2.521c-1.011,1.097-3.283,2.839-3.858,4.188
					c-0.811,1.902,0.3,4.828,0.355,6.712c0.051,1.729-1.831,4.428-1.193,5.928c0.676,1.59,4.377,2.552,4.187,0.017
					c1.04,0.564,2.26,1.52,2.766,2.707c4.81-1.924,7.057-8.313,8.291-12.752c1.632-5.87,1.804-11.828,0.74-17.989
					c-1.375-7.974-7.885-14.789-15.777-16.775"/>
				<path opacity="0.6" fill="#ED1C24" enable-background="new    " d="M376.574,470.317c2.218,5.792,2.097,12.129-0.74,17.607
					c-1.104,2.132-2.964,3.82-4.236,5.825c-1.619,2.552-1.103,5.377-1.934,8.128c-0.666,2.201-7.015,14.317-1.213,12.99
					c1.04-2.804,1.858-5.274,2.007-8.251c0.163-3.252-0.023-5.827,1.184-8.68c1.005-2.375,2.537-4.614,3.994-6.703
					c1.592-2.281,2.362-4.77,3.3-7.31c1.181-3.201,2.671-10.103-0.784-12.621"/>
				<g opacity="0.2">
					<g>
						<g>
							<path fill="#FFFFFF" d="M383.084,419.615c0,0,0.515,0.22,1.443,0.616c0.468,0.193,1.029,0.455,1.673,0.776
								c0.65,0.311,1.384,0.677,2.17,1.135c3.132,1.761,7.495,4.707,10.413,9.715c1.324,2.502,2.217,5.022,2.798,7.382
								c0.587,2.355,0.827,4.558,0.731,6.404c-0.08,1.846-0.505,3.32-1.005,4.218c-0.196,0.475-0.478,0.772-0.623,0.993
								c-0.157,0.214-0.239,0.326-0.239,0.326s0.064-0.125,0.184-0.362c0.109-0.242,0.334-0.562,0.458-1.051
								c0.354-0.926,0.568-2.365,0.459-4.121c-0.097-1.758-0.511-3.833-1.211-6.062c-0.692-2.228-1.651-4.639-2.9-6.997
								c-1.327-2.256-2.96-4.247-4.65-5.852c-1.699-1.594-3.349-2.936-4.825-3.945c-0.721-0.53-1.399-0.975-2-1.36
								c-0.594-0.396-1.112-0.73-1.545-0.987C383.559,419.91,383.084,419.615,383.084,419.615z"/>
						</g>
					</g>
				</g>
				<g opacity="0.2">
					<g>
						<g>
							<path fill="#FFFFFF" d="M392.554,426.718c0,0,0.173,0.101,0.481,0.281c0.299,0.196,0.777,0.448,1.281,0.865
								c1.006,0.832,2.232,2.249,3.09,4.036c0.842,1.783,1.324,3.451,1.683,4.666c0.374,1.203,0.566,1.988,0.567,1.988
								c0,0-0.529-0.599-1.261-1.662c-0.713-1.069-1.565-2.623-2.368-4.321c-0.815-1.688-1.601-3.142-2.278-4.191
								c-0.337-0.519-0.672-0.9-0.872-1.2C392.67,426.884,392.554,426.718,392.554,426.718z"/>
						</g>
					</g>
				</g>
				<g>
					<g>
						<g>
							<g>
								<path d="M389.005,418.048c0,0,0.145-0.27,0.405-0.754c0.141-0.224,0.27-0.527,0.411-0.875
									c0.073-0.168,0.151-0.348,0.233-0.538c0.065-0.198,0.133-0.408,0.205-0.628c0.314-0.852,0.521-1.916,0.739-3.054
									c0.171-1.162,0.291-2.423,0.351-3.75c0.026-1.328-0.022-2.581-0.132-3.736c-0.175-1.126-0.337-2.188-0.658-3.023
									c-0.12-0.443-0.292-0.813-0.448-1.148c-0.076-0.172-0.146-0.333-0.21-0.481c-0.083-0.137-0.158-0.262-0.225-0.375
									c-0.278-0.474-0.434-0.738-0.434-0.738s0.269,0.129,0.764,0.411c0.122,0.071,0.264,0.149,0.411,0.244
									c0.133,0.11,0.278,0.229,0.435,0.357c0.318,0.259,0.678,0.571,0.993,0.981c0.718,0.776,1.31,1.886,1.814,3.185
									c0.436,1.311,0.701,2.829,0.665,4.418c-0.067,1.587-0.417,3.073-0.911,4.349c-0.545,1.264-1.167,2.335-1.865,3.107
									c-0.168,0.195-0.323,0.382-0.482,0.548c-0.173,0.154-0.337,0.3-0.49,0.436c-0.301,0.271-0.569,0.484-0.822,0.625
									C389.27,417.908,389.005,418.048,389.005,418.048z"/>
							</g>
						</g>
					</g>
					<g>
						<g>
							<g>
								<path d="M404.096,451.295c0,0,0.025-0.159,0.073-0.462c0.037-0.306,0.148-0.737,0.188-1.314
									c0.148-1.134,0.202-2.791,0.004-4.781c-0.194-1.993-0.728-4.314-1.591-6.781c-0.891-2.461-2.14-5.059-3.731-7.621
									c-3.173-5.145-7.166-9.045-10.502-11.276c-1.668-1.116-3.153-1.849-4.218-2.27c-0.525-0.24-0.956-0.359-1.242-0.469
									c-0.288-0.105-0.44-0.158-0.44-0.158s0.161,0.011,0.466,0.032c0.304,0.031,0.765,0.037,1.34,0.146
									c1.164,0.159,2.846,0.561,4.807,1.411c1.951,0.857,4.163,2.182,6.325,4.022c2.154,1.845,4.251,4.203,5.99,6.986
									c1.731,2.787,2.924,5.717,3.611,8.477c0.662,2.769,0.85,5.351,0.673,7.483c-0.173,2.135-0.614,3.809-1.04,4.905
									c-0.178,0.559-0.402,0.963-0.518,1.245C404.163,451.149,404.096,451.295,404.096,451.295z"/>
							</g>
						</g>
					</g>
					<g>
						<g>
							<g>
								<path d="M413.998,476.997c0,0,0.018,0.311,0.051,0.905c0.027,0.593,0.095,1.47,0.098,2.601
									c0.037,2.26,0.024,5.562-0.686,9.603c-0.344,2.02-0.896,4.214-1.695,6.507c-0.83,2.296-1.985,4.708-3.662,6.963
									c-1.668,2.251-3.865,4.355-6.588,5.889c-2.708,1.538-5.956,2.456-9.295,2.414c-3.341-0.023-6.529-0.993-9.231-2.416
									c-1.344-0.693-2.645-1.532-3.816-2.467c-0.549-0.513-1.134-0.984-1.626-1.522c-0.471-0.554-0.962-1.085-1.391-1.643
									c-1.712-2.25-2.841-4.592-3.91-6.7c-1.069-2.128-2.002-4.016-3.234-5.535c-2.37-3.109-5.11-4.949-6.964-6.182
									c-0.939-0.617-1.696-1.055-2.209-1.353c-0.512-0.303-0.781-0.461-0.781-0.461s0.289,0.119,0.837,0.347
									c0.551,0.226,1.362,0.56,2.38,1.062c0.518,0.233,1.078,0.524,1.681,0.868c0.304,0.169,0.62,0.345,0.95,0.527
									c0.317,0.206,0.646,0.42,0.987,0.642c1.374,0.876,2.834,2.068,4.256,3.59c2.961,3.065,4.726,7.771,7.968,11.627
									c0.408,0.477,0.86,0.912,1.291,1.38c0.448,0.448,0.967,0.818,1.448,1.241c1.039,0.754,2.163,1.432,3.41,2.033
									c2.446,1.199,5.163,1.962,7.978,1.985c2.81,0.034,5.535-0.683,7.901-1.935c2.374-1.247,4.386-3.005,5.986-4.945
									c3.215-3.894,4.803-8.445,5.877-12.238c1.046-3.828,1.436-7.069,1.675-9.301c0.136-1.117,0.184-1.99,0.238-2.582
									C413.971,477.309,413.998,476.997,413.998,476.997z"/>
							</g>
						</g>
					</g>
					<g>
						<g>
							<g>
								<path d="M418.715,473.225c0,0-0.098-0.148-0.283-0.431c-0.177-0.29-0.417-0.73-0.685-1.322
									c-0.506-1.19-1.151-2.98-1.349-5.369c-0.07-1.192-0.087-2.557,0.489-4.056c0.159-0.37,0.336-0.749,0.625-1.123
									c0.124-0.199,0.278-0.356,0.441-0.506c0.185-0.155,0.269-0.309,0.549-0.464c0.27-0.14,0.526-0.348,0.825-0.44
									c0.304-0.056,0.61-0.199,0.93-0.135c0.329-0.021,0.62,0.121,0.921,0.249c0.144,0.075,0.263,0.194,0.396,0.29
									c0.136,0.097,0.262,0.204,0.363,0.345c0.107,0.132,0.212,0.271,0.31,0.413c0.083,0.131,0.136,0.242,0.202,0.368
									c0.141,0.258,0.218,0.473,0.299,0.691c0.163,0.44,0.272,0.869,0.366,1.3c0.18,0.861,0.284,1.711,0.321,2.607
									c0.035,1.708,0.021,3.405-0.106,5.188c-0.136,1.771-0.339,3.504-0.686,5.162l-0.12,0.619l-0.059,0.307
									c-0.011,0.102-0.086,0.352-0.104,0.398c-0.124,0.389-0.247,0.774-0.369,1.155c-0.26,0.776-0.553,1.539-0.897,2.276
									c-0.345,0.737-0.736,1.456-1.303,2.131c-0.125,0.169-0.293,0.334-0.469,0.492l-0.257,0.232l-0.326,0.211l-0.328,0.193
									c-0.133,0.05-0.27,0.094-0.405,0.133c-0.137,0.036-0.271,0.08-0.408,0.098c-0.142,0.003-0.285,0.001-0.426-0.006
									c-0.294,0.005-0.539-0.072-0.77-0.172c-0.244-0.087-0.465-0.191-0.62-0.327c-0.161-0.121-0.352-0.262-0.541-0.426
									c-0.135-0.208-0.322-0.421-0.402-0.612c-0.355-0.776-0.401-1.42-0.451-2.028c-0.111-2.402,0.193-4.196,0.265-5.474
									c0.117-1.265,0.056-1.97,0.056-1.97s0.247,0.676,0.409,1.955c0.203,1.259,0.288,3.16,0.743,5.272
									c0.115,0.509,0.288,1.061,0.52,1.383c0.087,0.199,0.655,0.411,0.831,0.365c0.174-0.021,0.455-0.237,0.767-0.712
									c0.303-0.454,0.571-1.059,0.8-1.708c0.233-0.648,0.438-1.346,0.625-2.076c0.093-0.375,0.187-0.754,0.281-1.137
									c0.036-0.147,0.021-0.09,0.034-0.189l0.039-0.29l0.081-0.585c0.246-1.559,0.393-3.198,0.522-4.881
									c0.12-1.677,0.181-3.365,0.228-4.927c0.008-0.738-0.04-1.493-0.133-2.18c-0.048-0.343-0.107-0.677-0.188-0.965
									c-0.041-0.147-0.078-0.296-0.114-0.376l-0.064-0.183c-0.034-0.138-0.203-0.206-0.364-0.124
									c-0.115,0.096-0.433,0.27-0.55,0.44c-0.163,0.153-0.306,0.374-0.445,0.603c-0.532,0.947-0.742,2.135-0.843,3.197
									c-0.18,2.163,0.073,3.993,0.304,5.224c0.13,0.614,0.257,1.09,0.358,1.409C418.657,473.058,418.715,473.225,418.715,473.225z
									"/>
							</g>
						</g>
					</g>
					<g>
						<g>
							<g>
								<path d="M402.681,434.083c0,0,0.069,0.137,0.201,0.395c0.124,0.263,0.343,0.645,0.547,1.16
									c0.457,1.017,0.979,2.548,1.692,4.341c0.347,0.902,0.792,1.835,1.324,2.724c0.533,0.783,1.435,1.637,2.275,2.544
									c0.923,0.887,1.891,1.777,2.924,2.839c0.255,0.261,0.512,0.525,0.771,0.79c0.239,0.298,0.48,0.597,0.724,0.898
									c0.485,0.606,0.986,1.22,1.387,1.894c1.821,2.579,2.829,5.506,3.462,8.103c0.137,0.659,0.27,1.302,0.399,1.926
									c0.094,0.629,0.151,1.242,0.219,1.832c0.162,1.177,0.149,2.283,0.175,3.283c0.046,0.999-0.062,1.905-0.094,2.693
									c-0.034,0.789-0.122,1.465-0.2,2.017c-0.156,1.096-0.243,1.703-0.243,1.703s-0.079-0.607-0.222-1.704
									c-0.061-0.546-0.137-1.212-0.275-1.979c-0.142-0.766-0.22-1.642-0.446-2.587c-0.775-3.78-2.062-8.974-5.264-13.655
									c-0.363-0.617-0.796-1.153-1.205-1.699c-0.203-0.274-0.404-0.547-0.604-0.817c-0.229-0.26-0.457-0.519-0.683-0.774
									c-0.879-1.015-1.83-2.058-2.677-3.067c-0.809-1.092-1.614-2.038-2.214-3.276c-0.489-1.182-0.778-2.275-0.959-3.264
									c-0.379-1.975-0.526-3.551-0.712-4.633c-0.069-0.549-0.174-0.957-0.221-1.247
									C402.708,434.234,402.681,434.083,402.681,434.083z"/>
							</g>
						</g>
					</g>
					<g>
						<g>
							<g>
								<path d="M386.41,467.094c0,0,0.34,0.336,0.953,0.94c0.326,0.299,0.646,0.72,1.013,1.222
									c0.185,0.252,0.383,0.522,0.593,0.809c0.176,0.307,0.362,0.63,0.557,0.97c0.81,1.36,1.481,3.127,2.028,5.15
									c0.488,2.033,0.756,4.34,0.675,6.764c-0.132,2.423-0.631,4.707-1.339,6.692c-0.8,1.959-1.694,3.652-2.752,4.859
									c-0.255,0.306-0.474,0.609-0.726,0.863c-0.262,0.242-0.509,0.472-0.741,0.685c-0.23,0.208-0.445,0.401-0.643,0.579
									c-0.212,0.162-0.426,0.287-0.606,0.409c-0.729,0.457-1.134,0.711-1.134,0.711s0.29-0.374,0.813-1.049
									c0.127-0.167,0.28-0.338,0.425-0.545c0.13-0.219,0.271-0.456,0.423-0.711c0.151-0.248,0.314-0.514,0.485-0.796
									c0.161-0.285,0.288-0.618,0.446-0.944c0.667-1.286,1.136-2.962,1.603-4.782c0.379-1.862,0.649-3.921,0.772-6.107
									c0.07-2.19,0.008-4.279-0.174-6.188c-0.239-1.889-0.506-3.618-0.93-5.021c-0.097-0.358-0.189-0.697-0.275-1.019
									c-0.116-0.312-0.225-0.605-0.327-0.88c-0.199-0.558-0.37-1.048-0.572-1.413C386.612,467.522,386.41,467.094,386.41,467.094z
									"/>
							</g>
						</g>
					</g>
					<g>
						<g>
							<g>
								<path d="M374.149,473.225c0,0,1.607-0.611,4.19-1.594c1.3-0.479,2.871-1.021,4.688-1.445
									c1.822-0.389,3.892-0.645,6.079-0.482c2.11,0.191,4.109,0.412,5.938,0.771c1.821,0.358,3.444,0.854,4.721,1.472
									c1.278,0.611,2.218,1.28,2.783,1.824c0.303,0.247,0.485,0.498,0.631,0.64c0.138,0.15,0.21,0.229,0.21,0.229
									s-0.086-0.065-0.25-0.187c-0.171-0.113-0.387-0.321-0.723-0.513c-0.631-0.433-1.626-0.93-2.907-1.357
									c-2.566-0.898-6.327-1.159-10.519-1.511c-2.026-0.15-3.978,0.004-5.748,0.252c-1.768,0.283-3.363,0.651-4.707,0.965
									C375.845,472.93,374.149,473.225,374.149,473.225z"/>
							</g>
						</g>
					</g>
					<g>
						<g>
							<g>
								<path d="M375.329,480.062c0,0,1.61-0.374,4.246-0.877c0.661-0.121,1.383-0.254,2.159-0.396
									c0.777-0.138,1.623-0.172,2.507-0.26c1.762-0.132,3.746-0.32,5.758-0.344c4.049-0.12,7.842,0.04,10.475,0.801
									c1.314,0.363,2.333,0.834,2.951,1.281c0.328,0.19,0.531,0.415,0.684,0.538c0.146,0.132,0.224,0.2,0.224,0.2
									s-0.09-0.053-0.26-0.153c-0.174-0.093-0.402-0.268-0.753-0.397c-0.661-0.323-1.693-0.612-2.987-0.797
									c-2.601-0.399-6.23-0.219-10.309-0.1c-2.06,0.025-3.946,0.125-5.709,0.128c-0.875,0.023-1.712-0.02-2.491,0.037
									c-0.78,0.052-1.506,0.101-2.17,0.145C376.993,480.027,375.329,480.062,375.329,480.062z"/>
							</g>
						</g>
					</g>
					<g>
						<g>
							<g>
								<path d="M380.517,484.779c0,0,0.248-0.123,0.694-0.344c0.457-0.192,1.104-0.596,1.979-0.807
									c0.437-0.124,0.915-0.259,1.427-0.404c0.518-0.132,1.079-0.195,1.67-0.295c1.182-0.222,2.493-0.238,3.869-0.279
									c2.75,0.064,5.215,0.472,6.947,0.963c0.873,0.198,1.552,0.496,2.023,0.654c0.466,0.177,0.726,0.275,0.726,0.275
									s-0.278-0.023-0.776-0.066c-0.501-0.033-1.201-0.159-2.089-0.187c-1.759-0.146-4.182-0.204-6.843-0.267
									c-1.328,0.042-2.602-0.029-3.748,0.061c-0.574,0.032-1.129,0.019-1.638,0.069c-0.51,0.053-0.985,0.102-1.42,0.147
									c-0.889,0.038-1.556,0.268-2.054,0.338C380.791,484.728,380.517,484.779,380.517,484.779z"/>
							</g>
						</g>
					</g>
					<g>
						<g>
							<g>
								<path d="M374.149,491.145c0,0,0.305-0.113,0.853-0.318c0.554-0.192,1.389-0.412,2.434-0.556
									c2.099-0.34,5.003-0.258,8.125-0.292c3.146-0.037,6.048,0.103,8.124,0.345c2.08,0.298,3.336,0.585,3.336,0.585
									s-1.301,0.054-3.363,0.102c-2.073,0.102-4.905,0.305-8.092,0.342c-3.211,0.033-6.04-0.39-8.087-0.396
									c-1.025-0.03-1.858,0.016-2.432,0.08C374.47,491.105,374.149,491.145,374.149,491.145z"/>
							</g>
						</g>
					</g>
					<g>
						<g>
							<g>
								<path d="M385.704,494.917c0,0,0.305-0.185,0.852-0.381c0.554-0.228,1.318-0.319,2.158-0.273
									c0.811,0.071,1.53,0.323,2.038,0.506c0.515,0.197,0.847,0.385,0.847,0.385s-0.328,0.156-0.881,0.302
									c-0.562,0.157-1.311,0.248-2.126,0.176c-0.788-0.042-1.498-0.291-2.012-0.408
									C386.059,495.073,385.704,494.917,385.704,494.917z"/>
							</g>
						</g>
					</g>
					<g>
						<g>
							<g>
								<path d="M356.938,452.475c0,0,0.684-0.024,1.918-0.069c1.243-0.073,3.036,0.017,5.267,0.244
									c2.208,0.329,4.883,0.814,7.666,1.999c0.688,0.307,1.437,0.539,2.121,0.942c0.692,0.39,1.399,0.788,2.119,1.193
									c0.726,0.399,1.363,0.958,2.061,1.451c0.341,0.258,0.686,0.517,1.032,0.777c0.336,0.272,0.634,0.589,0.955,0.887
									c0.628,0.611,1.254,1.196,1.848,1.82c0.286,0.337,0.569,0.672,0.85,1.003c0.271,0.342,0.505,0.715,0.753,1.067
									c0.94,1.45,1.592,2.998,2.005,4.497c0.789,3.023,0.729,5.749,0.614,7.963c-0.133,2.221-0.358,3.982-0.478,5.209
									c-0.129,1.226-0.2,1.905-0.2,1.905s-0.116-0.674-0.265-1.901c-0.158-1.226-0.306-3.013-0.544-5.175
									c-0.249-2.154-0.584-4.707-1.519-7.239c-0.483-1.256-1.125-2.492-1.962-3.648c-0.223-0.281-0.423-0.578-0.662-0.854
									c-0.247-0.272-0.496-0.546-0.746-0.822c-0.561-0.537-1.13-1.081-1.706-1.633c-0.292-0.271-0.562-0.566-0.864-0.817
									c-0.309-0.241-0.616-0.481-0.921-0.72c-0.621-0.46-1.175-0.999-1.815-1.391c-0.631-0.41-1.251-0.812-1.858-1.207
									c-0.595-0.419-1.262-0.683-1.867-1.027c-2.449-1.34-4.873-2.148-6.922-2.823c-2.076-0.576-3.793-1.034-5.001-1.237
									C357.606,452.615,356.938,452.475,356.938,452.475z"/>
							</g>
						</g>
					</g>
					<g>
						<g>
							<g>
								<path d="M350.333,456.247c0,0,0.686,0.081,1.924,0.227c0.618,0.082,1.373,0.182,2.249,0.299
									c0.437,0.062,0.905,0.129,1.401,0.2c0.495,0.099,1.019,0.203,1.569,0.312c1.104,0.237,2.314,0.497,3.612,0.776
									c1.28,0.343,2.625,0.788,4.029,1.316c2.794,1.065,5.844,2.523,8.629,4.82c1.383,1.15,2.616,2.474,3.565,3.945
									c0.219,0.374,0.436,0.745,0.651,1.112c0.177,0.382,0.353,0.76,0.527,1.134c0.168,0.376,0.347,0.742,0.496,1.113
									c0.117,0.385,0.232,0.765,0.346,1.141c0.877,3.008,0.926,5.832,0.593,8.105c-0.054,0.57-0.222,1.103-0.321,1.605
									c-0.127,0.5-0.191,0.979-0.373,1.401c-0.329,0.848-0.541,1.589-0.847,2.145c-0.6,1.1-0.932,1.708-0.932,1.708
									s0.176-0.663,0.493-1.861c0.169-0.587,0.217-1.351,0.366-2.192c0.091-0.418,0.062-0.889,0.094-1.371
									c0.004-0.486,0.075-0.991,0.034-1.527c-0.046-2.136-0.469-4.66-1.479-7.191c-0.127-0.315-0.254-0.635-0.384-0.958
									c-0.158-0.31-0.34-0.612-0.509-0.924c-0.17-0.311-0.341-0.624-0.514-0.94c-0.197-0.297-0.395-0.597-0.596-0.898
									c-0.84-1.166-1.904-2.254-3.115-3.262c-2.433-2.012-5.165-3.54-7.724-4.803c-1.283-0.627-2.526-1.208-3.708-1.701
									c-1.198-0.454-2.314-0.876-3.333-1.262c-0.512-0.2-1-0.391-1.461-0.571c-0.473-0.163-0.918-0.316-1.335-0.461
									c-0.832-0.297-1.548-0.552-2.134-0.761C350.978,456.488,350.333,456.247,350.333,456.247z"/>
							</g>
						</g>
					</g>
					<g>
						<g>
							<g>
								<path d="M359.058,443.514c0,0-0.062-0.148-0.178-0.43c-0.103-0.285-0.316-0.697-0.464-1.262
									c-0.38-1.113-0.711-2.804-0.809-4.923c-0.229-4.239,0.856-10.131,3.241-16.01c2.296-5.961,5.355-10.878,7.631-14.302
									c2.262-3.445,3.784-5.517,3.784-5.517s-0.864,2.417-2.474,6.222c-1.634,3.801-3.951,8.915-6.167,14.672
									c-2.323,5.738-4.012,11.007-4.53,15.003c-0.269,1.984-0.321,3.634-0.221,4.768c0.008,0.575,0.107,1.009,0.131,1.314
									C359.039,443.353,359.058,443.514,359.058,443.514z"/>
							</g>
						</g>
					</g>
					<g>
						<g>
							<g>
								<path d="M357.88,467.33c0,0-0.6-0.334-1.683-0.938c-0.553-0.291-1.184-0.716-1.915-1.227
									c-0.362-0.261-0.773-0.511-1.165-0.836c-0.385-0.339-0.791-0.697-1.217-1.073c-0.213-0.191-0.432-0.388-0.655-0.589
									c-0.194-0.229-0.392-0.463-0.595-0.702c-0.398-0.485-0.84-0.976-1.245-1.528c-0.358-0.594-0.729-1.207-1.111-1.839
									c-0.336-0.655-0.584-1.373-0.885-2.096c-1.021-2.939-1.375-6.42-0.802-9.962c0.278-1.771,0.808-3.464,1.534-5.031
									c0.72-1.587,1.742-2.903,2.713-4.046c1.992-2.275,3.925-3.976,5.327-5.601c1.411-1.604,2.29-3.104,2.744-4.229
									c0.249-0.557,0.374-1.015,0.462-1.327c0.094-0.313,0.143-0.477,0.143-0.477s-0.006,0.171-0.017,0.497
									c-0.009,0.328-0.02,0.816-0.141,1.436c-0.194,1.241-0.79,3.037-1.99,4.979c-1.178,1.945-2.923,3.997-4.551,6.271
									c-0.8,1.15-1.581,2.341-2.094,3.669c-0.531,1.334-0.953,2.8-1.192,4.342c-0.499,3.081-0.367,6.126,0.269,8.752
									c0.202,0.639,0.345,1.293,0.568,1.892c0.26,0.586,0.513,1.155,0.757,1.706c0.291,0.533,0.625,1.027,0.916,1.523
									c0.149,0.248,0.295,0.49,0.438,0.727c0.173,0.216,0.343,0.427,0.508,0.634c0.332,0.418,0.649,0.817,0.949,1.194
									c0.309,0.373,0.651,0.683,0.945,0.999c0.596,0.624,1.115,1.17,1.582,1.57C357.38,466.863,357.88,467.33,357.88,467.33z"/>
							</g>
						</g>
					</g>
					<g>
						<g>
							<g>
								<path d="M368.726,482.184c0,0,0.966-1.311,2.518-3.42c1.537-2.12,3.592-5.089,6.043-8.263
									c2.464-3.169,4.985-5.834,6.96-7.591c0.968-0.896,1.861-1.505,2.431-1.968c0.586-0.442,0.911-0.688,0.911-0.688
									s-0.274,0.303-0.768,0.849c-0.482,0.558-1.25,1.283-2.084,2.29c-1.709,1.977-3.918,4.805-6.366,7.952
									c-2.439,3.157-4.785,5.942-6.598,7.856c-0.891,0.969-1.692,1.685-2.215,2.199
									C369.023,481.904,368.726,482.184,368.726,482.184z"/>
							</g>
						</g>
					</g>
					<g>
						<g>
							<g>
								<path d="M369.197,476.525c0,0,0.807-1.132,2.102-2.946c1.258-1.839,2.871-4.436,4.708-7.299
									c1.831-2.87,3.669-5.384,5.114-7.111c0.712-0.87,1.362-1.519,1.785-1.981c0.434-0.453,0.674-0.704,0.674-0.704
									s-0.729,1.185-1.9,3.085c-1.153,1.911-2.68,4.576-4.518,7.456c-1.848,2.878-3.784,5.34-5.328,6.984
									c-0.755,0.837-1.464,1.427-1.914,1.862C369.456,476.292,369.197,476.525,369.197,476.525z"/>
							</g>
						</g>
					</g>
					<g>
						<g>
							<g>
								<path d="M362.36,476.29c0,0,0.683-1.569,1.883-4.061c0.624-1.233,1.277-2.75,2.219-4.318
									c0.915-1.583,1.948-3.311,3.07-5.102c1.107-1.799,2.354-3.436,3.524-4.828c1.156-1.41,2.229-2.644,3.057-3.731
									c0.433-0.533,0.795-1.033,1.104-1.481c0.322-0.44,0.591-0.826,0.78-1.16c0.407-0.655,0.632-1.02,0.632-1.02
									s-0.158,0.399-0.442,1.119c-0.134,0.367-0.34,0.796-0.598,1.284c-0.245,0.498-0.542,1.056-0.909,1.646
									c-0.702,1.206-1.651,2.561-2.704,4.049c-1.073,1.48-2.191,3.085-3.29,4.868c-1.111,1.774-2.207,3.442-3.227,4.947
									c-1.045,1.489-1.849,2.923-2.619,4.066C363.345,474.886,362.36,476.29,362.36,476.29z"/>
							</g>
						</g>
					</g>
					<g>
						<g>
							<g>
								<path d="M361.417,473.696c0,0,0.148-0.419,0.415-1.174c0.288-0.744,0.61-1.855,0.985-3.225
									c0.765-2.745,1.428-6.599,2.587-10.869c0.667-2.139,1.501-4.048,2.226-5.788c0.709-1.739,1.375-3.298,1.79-4.646
									c0.112-0.337,0.218-0.657,0.319-0.96c0.074-0.309,0.144-0.6,0.208-0.872c0.135-0.547,0.262-1.02,0.281-1.415
									c0.095-0.794,0.148-1.234,0.148-1.234s0.024,0.445,0.067,1.248c0.044,0.408-0.008,0.898-0.067,1.472
									c-0.028,0.288-0.059,0.596-0.092,0.922c-0.063,0.32-0.13,0.658-0.2,1.014c-0.26,1.432-0.774,3.077-1.371,4.883
									c-0.61,1.797-1.36,3.737-1.992,5.766c-1.127,4.15-2.151,8.029-3.253,10.697c-0.545,1.337-1.033,2.398-1.441,3.095
									C361.635,473.309,361.417,473.696,361.417,473.696z"/>
							</g>
						</g>
					</g>
					<g>
						<g>
							<g>
								<path d="M357.644,472.989c0,0,0.114-0.438,0.319-1.229c0.115-0.39,0.229-0.873,0.331-1.442
									c0.112-0.566,0.257-1.203,0.354-1.924c0.492-2.866,0.784-6.829,1.35-11.297c0.409-2.252,1.012-4.29,1.537-6.143
									c0.516-1.85,1.014-3.506,1.307-4.919c0.18-0.704,0.286-1.347,0.378-1.915c0.109-0.567,0.181-1.059,0.201-1.464
									c0.076-0.812,0.117-1.264,0.117-1.264s0.035,0.452,0.097,1.268c0.045,0.412,0.047,0.915,0.018,1.499
									c-0.014,0.587-0.036,1.256-0.134,1.985c-0.129,1.475-0.466,3.194-0.86,5.091c-0.403,1.889-0.917,3.947-1.304,6.075
									c-0.551,4.359-1.201,8.412-2.037,11.232c-0.183,0.712-0.415,1.34-0.607,1.892c-0.181,0.555-0.369,1.022-0.546,1.394
									C357.83,472.575,357.644,472.989,357.644,472.989z"/>
							</g>
						</g>
					</g>
					<g>
						<g>
							<g>
								<path d="M355.758,472.281c0,0-0.136-1.495-0.354-3.897c-0.268-2.396-0.797-5.674-1.045-9.396
									c-0.147-3.751,0.169-7.053,0.157-9.456c0.019-0.603-0.005-1.143-0.019-1.62c-0.004-0.48-0.025-0.892-0.065-1.226
									c-0.057-0.675-0.088-1.05-0.088-1.05s0.107,0.361,0.299,1.013c0.104,0.328,0.201,0.734,0.286,1.211
									c0.095,0.477,0.206,1.021,0.273,1.628c0.357,2.422,0.386,5.806,0.529,9.428c0.243,3.639,0.434,7.004,0.36,9.44
									c-0.02,1.217-0.165,2.203-0.218,2.878C355.799,471.907,355.758,472.281,355.758,472.281z"/>
							</g>
						</g>
					</g>
					<g>
						<g>
							<g>
								<path d="M364.009,474.875c0,0,0.888-1.301,2.401-3.33c1.554-2.001,3.557-4.857,5.955-7.858
									c1.234-1.546,2.496-2.881,3.632-4.102c1.124-1.225,2.156-2.31,2.931-3.288c0.413-0.476,0.749-0.928,1.031-1.337
									c0.296-0.402,0.551-0.751,0.71-1.062c0.357-0.612,0.555-0.951,0.555-0.951s-0.129,0.373-0.362,1.045
									c-0.104,0.348-0.297,0.738-0.53,1.191c-0.22,0.463-0.494,0.977-0.844,1.512c-1.314,2.207-3.654,4.902-6.034,7.829
									c-2.42,3.028-4.707,5.689-6.521,7.466C365.156,473.8,364.009,474.875,364.009,474.875z"/>
							</g>
						</g>
					</g>
					<g>
						<g>
							<g>
								<path d="M360.003,482.657c0,0,0.371-0.217,1.039-0.608c0.335-0.201,0.751-0.434,1.258-0.654
									c0.503-0.229,1.07-0.517,1.726-0.75c2.591-1.058,6.357-1.938,10.413-2.895c4.032-1.125,7.74-1.948,10.431-2.619
									c2.692-0.634,4.372-0.963,4.372-0.963s-1.586,0.659-4.176,1.622c-2.571,0.992-6.223,2.158-10.301,3.295
									c-4.137,0.975-7.881,1.499-10.526,2.213c-0.672,0.147-1.254,0.35-1.779,0.501c-0.528,0.144-0.969,0.304-1.327,0.445
									C360.406,482.51,360.003,482.657,360.003,482.657z"/>
							</g>
						</g>
					</g>
					<g>
						<g>
							<g>
								<path d="M358.587,484.779c0,0,5.905-0.846,13.177-1.041c7.314-0.196,13.231,0.332,13.231,0.332s-5.905,0.846-13.177,1.041
									C364.504,485.308,358.587,484.779,358.587,484.779z"/>
							</g>
						</g>
					</g>
					<g>
						<g>
							<g>
								<path d="M363.538,473.047c0,0,0.121-0.366,0.338-1.027c0.201-0.666,0.589-1.577,0.914-2.764
									c0.303-1.2,0.722-2.583,1.124-4.176c0.215-0.791,0.423-1.616,0.692-2.476c0.287-0.857,0.582-1.746,0.886-2.655
									c0.703-1.768,1.396-3.391,2.197-4.877c0.4-0.735,0.719-1.442,1.142-2.075c0.439-0.64,0.897-1.132,1.298-1.605
									c0.806-0.923,1.392-1.71,1.657-2.338c0.174-0.299,0.211-0.564,0.278-0.734c0.056-0.175,0.085-0.267,0.085-0.267
									s-0.009,0.096-0.027,0.276c-0.031,0.179-0.016,0.464-0.134,0.797c-0.15,0.697-0.626,1.634-1.309,2.677
									c-0.33,0.521-0.727,1.082-1.045,1.683c-0.318,0.614-0.574,1.359-0.898,2.086c-0.642,1.444-1.283,3.162-1.97,4.894
									c-0.311,0.872-0.615,1.723-0.909,2.546c-0.29,0.837-0.57,1.646-0.836,2.415c-0.521,1.542-1.118,2.921-1.585,4.067
									c-0.492,1.143-1.047,2.008-1.365,2.62C363.728,472.714,363.538,473.047,363.538,473.047z"/>
							</g>
						</g>
					</g>
					<g>
						<g>
							<g>
								<path d="M367.783,445.696c0,0-1,6.308-3.057,13.89c-0.544,1.931-1.233,3.686-1.858,5.262
									c-0.616,1.577-1.198,2.984-1.586,4.195c-0.224,0.6-0.369,1.154-0.507,1.642c-0.152,0.486-0.255,0.911-0.312,1.265
									c-0.145,0.705-0.226,1.097-0.226,1.097s0.004-0.4,0.013-1.123c-0.006-0.365,0.024-0.81,0.098-1.32
									c0.061-0.513,0.126-1.102,0.27-1.736c0.23-1.286,0.658-2.773,1.157-4.406c0.508-1.628,1.104-3.386,1.625-5.233
									C365.452,451.664,367.783,445.696,367.783,445.696z"/>
							</g>
						</g>
					</g>
					<g>
						<g>
							<g>
								<path d="M359.765,441.452c0,0-0.062,1.717-0.162,4.48c-0.087,2.763-0.155,6.57-0.385,10.788
									c-0.239,4.22-0.729,8.04-1.255,10.771c-0.244,1.368-0.554,2.457-0.727,3.212c-0.192,0.751-0.298,1.167-0.298,1.167
									s0.131-1.712,0.343-4.467c0.183-2.755,0.327-6.554,0.565-10.762c0.23-4.211,0.643-8.029,1.073-10.773
									c0.206-1.373,0.454-2.475,0.599-3.236C359.676,441.873,359.765,441.452,359.765,441.452z"/>
							</g>
						</g>
					</g>
					<g>
						<g>
							<g>
								<path d="M383.818,454.185c0,0-0.993,1.201-2.589,3.131c-1.561,1.955-3.587,4.734-5.847,7.807
									c-2.246,3.086-4.395,5.821-6.034,7.736c-1.65,1.907-2.745,3.019-2.745,3.019s0.827-1.327,2.194-3.429
									c1.357-2.111,3.217-5.033,5.477-8.14c2.278-3.097,4.615-5.714,6.448-7.457c0.895-0.891,1.722-1.511,2.25-1.974
									C383.517,454.432,383.818,454.185,383.818,454.185z"/>
							</g>
						</g>
					</g>
					<g>
						<g>
							<g>
								<path d="M387.353,459.136c0,0-0.27,0.265-0.757,0.742c-0.253,0.226-0.528,0.537-0.841,0.901
									c-0.324,0.353-0.675,0.769-1.04,1.252c-0.756,0.936-1.575,2.121-2.522,3.421c-0.934,1.303-2.027,2.749-3.322,4.101
									c-2.589,2.704-5.045,5.023-6.888,6.602c-1.835,1.602-3.022,2.553-3.022,2.553s0.935-1.184,2.532-3.033
									c1.621-1.842,3.812-4.383,6.361-7.044c1.276-1.331,2.385-2.661,3.43-3.895c1.05-1.223,2.021-2.322,2.925-3.167
									c0.436-0.435,0.859-0.801,1.247-1.103c0.376-0.314,0.706-0.573,1.004-0.753
									C387.034,459.342,387.353,459.136,387.353,459.136z"/>
							</g>
						</g>
					</g>
					<g>
						<g>
							<g>
								<path d="M393.485,465.974c0,0-0.332,0.218-0.929,0.61c-0.606,0.381-1.468,0.971-2.583,1.601
									c-2.219,1.287-5.374,2.901-8.906,4.517c-3.522,1.631-6.702,3.081-8.957,4.256c-1.145,0.558-2.005,1.122-2.643,1.451
									c-0.629,0.344-0.978,0.534-0.978,0.534s0.305-0.254,0.855-0.71c0.565-0.435,1.34-1.149,2.409-1.862
									c2.103-1.484,5.191-3.274,8.737-4.916c3.551-1.624,6.822-2.913,9.179-3.886
									C392.021,466.586,393.485,465.974,393.485,465.974z"/>
							</g>
						</g>
					</g>
				</g>
			</g>
			<g opacity="0.2">
				<g>
					<g>
						<path fill="#FFFFFF" d="M406.679,457.667c0,0,0.27,0.237,0.741,0.709c0.243,0.233,0.521,0.534,0.801,0.915
							c0.288,0.376,0.633,0.81,0.924,1.332c0.654,1.025,1.216,2.354,1.683,3.878c0.424,1.526,0.701,3.245,0.753,5.028
							c0.078,3.572-0.618,6.658-1.178,8.871c-0.575,2.212-1.057,3.6-1.057,3.6s-0.489-1.394-0.884-3.674
							c-0.407-2.279-0.689-5.399-0.765-8.69c-0.036-1.631-0.071-3.184-0.103-4.599c-0.077-1.395-0.122-2.684-0.279-3.76
							c-0.043-0.553-0.145-1.035-0.214-1.478c-0.059-0.447-0.139-0.826-0.216-1.136
							C406.752,458.023,406.679,457.667,406.679,457.667z"/>
					</g>
				</g>
			</g>
		</g>
	</g>
</g>
</svg>
