<?xml version="1.0" encoding="utf-8"?>
<!-- Generator: Adobe Illustrator 25.0.1, SVG Export Plug-In . SVG Version: 6.00 Build 0)  -->
<svg version="1.1" id="Capa_1" xmlns="http://www.w3.org/2000/svg" xmlns:xlink="http://www.w3.org/1999/xlink" x="0px" y="0px"
	 viewBox="0 0 800 800" enable-background="new 0 0 800 800" xml:space="preserve">
<g id="narices_1_">
	<g id="_x31__3_">
		<g>
			<path fill="#9E884A" d="M356.005,481.305c2.605-1.913,5.388-1.877,8.334-0.466c2.576,1.235,5.324,1.546,6.956,4.141
				c-1.363,0.652-2.668,0.504-3.845,1.761c-1.122,1.198-1.232,2.233-1.759,3.676c-1.238,3.387-2.155,5.853-1.611,9.524
				c0.841,5.671,10.735,6.822,15.53,7.293c3.561,0.349,6.441-0.384,9.732-1.035c3.14-0.622,6.605-0.732,9.594-1.702
				c5.315-1.726,10.007-2.278,14.579-7.243c2.129-2.31,1.786-6.95,0.949-9.736c-0.803-2.68-3.144-3.977-4.153-6.476
				c-0.374-0.925-0.684-0.186-0.213-1.342c0.192-0.471,1.026-1.003,1.393-1.345c1.034-0.963,2.19-2.059,3.571-2.589
				c3.037-1.163,5.112,0.91,7.621,2.382c5.162,3.027,7.438,8.802,9.115,14.327c1.547,5.087-3.541,10.311-7.408,13.521
				c-2.244,1.862-5.564,2.205-8.138,3.256c-2.571,1.05-5.057,2.316-7.645,3.318c-3.092,1.197-5.808,2.002-9.673,2.623
				c-3.26,0.524-4.21,1.035-8.099,0.943c-6.396-0.151-12.689-0.125-18.82-0.46c-3.723-0.204-5.717-1.007-8.926-2.955
				c-2.318-1.408-4.351-2.908-6.506-4.654c-3.609-2.925-5.773-8.105-5.758-12.683c0.009-2.599,0.824-4.701,1.865-7.029
				c0.957-2.141,2.733-4.258,3.312-6.43"/>
			<path opacity="0.3" enable-background="new    " d="M367.739,487.861c-1.559,0.175-3.004-0.694-4.556-0.685
				c-1.454,0.008-2.96,0.522-4.117,1.405c-1.811,1.384-2.466,4.634-2.845,6.754c-0.365,2.048-0.289,4.152,0.395,6.126
				c1.377,3.978,4.718,7.828,8.09,10.275c2.067,1.499,4.43,2.507,6.761,3.514c-4.503-1.153-9.417-2.276-13.134-5.23
				c-3.345-2.657-5.12-7.016-6.538-10.931c-0.725-1.997-1.154-4.059-0.787-6.179c0.393-2.269,1.506-4.338,2.52-6.378
				c0.808-1.624,1.424-3.432,2.378-4.975c0.841-1.361,2.148-1.654,3.679-1.613c2.405,0.065,5.315,0.646,7.314,2.053
				c0.733,0.516,1.332,1.199,1.411,2.126c0.09,1.037-0.183,2.109-0.968,2.789c-0.357,0.311-0.664,0.608-0.914,1.02"/>
			<path opacity="0.2" fill="#FFFFFF" enable-background="new    " d="M400.384,514.849c1.936-0.688,3.715-1.427,5.575-2.5
				c5.32-3.075,11.179-5.749,15.73-9.964c2.418-2.241,3.901-5.245,5.205-8.224c0.555-1.271,1.113-2.542,1.649-3.82
				c0.297-0.709,0.584-1.436,0.684-2.204c0.091-0.71-0.007-1.404,0.218-2.099c-0.193,1.007,0.903,1.964,1.308,2.79
				c0.458,0.934,0.856,1.902,1.295,2.846c1.026,2.207,0.6,4.115-0.69,6.112c-1.071,1.656-2.169,3.439-3.502,4.861
				c-1.419,1.516-3.084,2.614-4.768,3.764c-2.02,1.379-4.054,2.079-6.277,3.054c-1.907,0.837-3.822,1.773-5.797,2.483
				c-1.915,0.69-3.818,1.158-5.73,1.729c-1.704,0.508-3.483,1.236-5.245,1.379"/>
			<path opacity="0.3" enable-background="new    " d="M413.774,484.963c0.894-1.934,2.787-3.783,4.623-4.814
				c0.952-0.535,1.92-1.046,2.9-1.467c0.375-0.161,1.131-0.298,1.09-0.813c-0.024-0.32-0.986-1.055-1.212-1.328
				c-1.49-1.815-4.392-0.343-6.157,0.364c-1.819,0.729-4.835,1.894-3.936,4.327c0.284,0.768,0.992,1.519,1.38,2.213"/>
			<path opacity="0.3" enable-background="new    " d="M348.136,455.216c-3.52,1.449-3.827,4.292-3.727,7.039
				c0.107,2.986,1.512,5.43,3.778,7.403c2.596,2.26,5.683,2.027,9.013,1.869c3.429-0.164,6.276,0.458,9.364,2.117
				c9.228,4.958,16.694,19.557,28.73,15.891c2.33-0.708,4.146-2.019,6.206-3.317c1.669-1.053,3.757-1.522,5.242-2.978
				c-0.596,2.628-4.269,3.986-6.382,5.161c-2.661,1.479-4.776,2.846-7.915,2.842c-3.249-0.003-6.677,0.37-9.53-0.821
				c-2.529-1.058-5.074-2.798-7.402-4.193c-2.433-1.46-4.931-2.548-7.495-3.733c-3.247-1.499-5.706-1.415-9.324-1.604
				c-3.21-0.168-5.888-1.391-9.11-1.873c-3.109-0.468-6.133-1.503-8.898-3.148c-3.769-2.241-4.172-8.664-2.75-12.423
				c1.023-2.7,4.503-6.471,8.645-7.609"/>
			<path opacity="0.3" enable-background="new    " d="M370.295,421.258c-0.344-4.074-1.421-7.847-2.733-11.627
				c-0.614-1.769-1.234-3.747-2.063-5.491c-0.744-1.562-2.366-3.094-2.939-4.433c1.701,6.078,2.83,12.312,2.495,19.066
				c-0.156,3.139-0.294,6.213-0.455,9.302c-1.082,7.608-3.893,15.811-9.596,21.515c-2.752,2.754-6.03,4.507-9.454,6.144
				c-1.648,0.787-3.448,1.475-4.626,2.832c-0.775,0.894-2.632,3.341-2.657,4.519l1.52-2.485c0.44-1.046,1.954-2.217,2.932-2.727
				c1.348-0.7,2.604-1.386,3.938-2.143c1.824-1.035,4.17-0.112,6.212-0.545c1.848-0.392,4.062-0.915,5.829-1.798
				c3.14-1.57,5.645-4.9,7.209-7.938c1.12-2.175,1.805-4.214,2.239-6.341C371.116,434.152,370.72,426.274,370.295,421.258z"/>
			<g opacity="0.2">
				<g>
					<g>
						<path fill="#FFFFFF" d="M410.047,461.427c0,0-1.094,0.4-2.843,1.042c-1.732,0.661-4.076,1.622-6.448,2.984
							c-1.18,0.69-2.246,1.427-3.173,2.164c-0.913,0.751-1.686,1.502-2.285,2.189c-0.596,0.688-1.064,1.281-1.346,1.718
							c-0.301,0.431-0.469,0.67-0.469,0.67s0.087-0.28,0.244-0.783c0.151-0.511,0.453-1.223,0.913-2.067
							c0.462-0.844,1.135-1.791,2.023-2.724c0.898-0.917,2.01-1.812,3.287-2.559c2.575-1.476,5.187-2.09,7.051-2.371
							c0.937-0.139,1.698-0.207,2.226-0.23C409.754,461.439,410.047,461.427,410.047,461.427z"/>
					</g>
				</g>
			</g>
			<g>
				<g>
					<g>
						<g>
							<path d="M429.123,456.691c0,0,0.449,0.263,1.28,0.804c0.824,0.55,2.061,1.349,3.428,2.695c0.659,0.69,1.37,1.528,1.826,2.664
								c0.47,1.119,0.525,2.602-0.056,3.939c-1.202,2.643-3.771,4.775-6.904,6.272c-3.137,1.52-6.842,2.336-10.511,3.512
								c-1.778,0.611-3.468,1.474-5.102,2.657c-1.625,1.179-3.166,2.617-4.745,4.152c-1.582,1.534-3.202,3.182-5.068,4.728
								c-1.858,1.541-4.009,2.977-6.482,3.895c-2.493,0.913-5.112,1.3-7.808,1.248c-2.699-0.062-5.413-0.718-7.911-1.755
								c-5.018-2.107-9.028-5.212-13.17-7.432c-1.03-0.558-2.106-1.118-3.057-1.506c-0.989-0.402-2.035-0.661-3.105-0.86
								c-2.148-0.376-4.381-0.433-6.596-0.497c-2.217-0.064-4.438-0.12-6.623-0.445c-2.175-0.319-4.336-0.946-6.185-2.072
								c-0.443-0.309-0.921-0.56-1.317-0.913c-0.394-0.354-0.783-0.705-1.17-1.053c-0.712-0.766-1.327-1.594-1.797-2.477
								c-0.931-1.77-1.364-3.666-1.388-5.45c-0.087-3.605,1.315-6.666,3.022-8.833c1.803-2.163,4-3.28,5.781-3.899
								c1.799-0.627,3.239-0.913,4.213-1.098c0.977-0.167,1.49-0.255,1.49-0.255s-0.502,0.133-1.46,0.386
								c-0.95,0.267-2.358,0.673-4.059,1.419c-1.689,0.736-3.677,1.966-5.179,4.047c-1.434,2.101-2.52,4.993-2.248,8.157
								c0.11,1.57,0.586,3.176,1.44,4.613c0.433,0.717,0.979,1.372,1.592,1.975c0.337,0.273,0.677,0.55,1.021,0.828
								c0.34,0.28,0.755,0.463,1.13,0.705c3.182,1.754,7.353,1.771,11.768,1.729c2.225-0.006,4.566-0.027,7.018,0.334
								c1.222,0.193,2.478,0.47,3.699,0.934c1.258,0.486,2.316,1.025,3.423,1.596c4.413,2.288,8.465,5.319,12.945,7.177
								c2.235,0.925,4.525,1.48,6.824,1.558c2.289,0.069,4.626-0.25,6.683-0.97c4.198-1.465,7.476-4.735,10.769-7.733
								c1.657-1.507,3.346-2.979,5.185-4.204c1.826-1.224,3.854-2.153,5.845-2.728c3.907-1.049,7.487-1.643,10.503-2.898
								c1.504-0.611,2.854-1.36,3.99-2.254c1.125-0.899,2.096-1.904,2.646-2.996c0.559-1.093,0.604-2.274,0.273-3.291
								c-0.323-1.023-0.923-1.869-1.504-2.577c-1.212-1.397-2.376-2.302-3.146-2.915
								C429.537,457.006,429.123,456.691,429.123,456.691z"/>
						</g>
					</g>
				</g>
				<g>
					<g>
						<g>
							<path d="M396.207,409.424c0,0,0.123,0.689,0.345,1.932c0.132,0.628,0.176,1.398,0.251,2.295
								c0.079,0.902,0.135,1.916,0.191,3.034c0.019,0.564,0.071,1.141,0.129,1.734c0.068,0.596,0.075,1.214,0.191,1.851
								c0.278,1.274,0.455,2.631,0.824,4.054c0.636,2.852,1.54,5.96,2.434,9.241c0.942,3.225,2.018,6.244,3.141,8.927
								c0.607,1.317,1.143,2.599,1.787,3.72c0.31,0.566,0.576,1.14,0.892,1.65c0.32,0.509,0.628,0.998,0.922,1.464
								c0.552,0.968,1.202,1.724,1.723,2.44c0.269,0.35,0.504,0.692,0.747,0.983c0.257,0.278,0.491,0.532,0.703,0.762
								c0.845,0.933,1.313,1.448,1.313,1.448s-0.56-0.418-1.57-1.174c-0.253-0.194-0.535-0.409-0.843-0.645
								c-0.294-0.251-0.585-0.553-0.913-0.864c-0.64-0.637-1.429-1.325-2.123-2.232c-0.364-0.442-0.746-0.906-1.144-1.39
								c-0.392-0.49-0.73-1.044-1.115-1.598c-0.794-1.099-1.473-2.366-2.21-3.695c-1.38-2.697-2.642-5.788-3.621-9.141
								c-0.907-3.327-1.683-6.532-2.116-9.522c-0.265-1.479-0.325-2.941-0.466-4.272c-0.049-0.672,0.014-1.336,0.02-1.962
								c0.015-0.631,0.039-1.229,0.095-1.788c0.092-1.12,0.176-2.133,0.249-3.023c0.066-0.886,0.154-1.653,0.134-2.274
								C396.197,410.12,396.207,409.424,396.207,409.424z"/>
						</g>
					</g>
				</g>
				<g>
					<g>
						<g>
							<path d="M368.49,415.363c0,0,0.157,0.443,0.439,1.242c0.259,0.808,0.698,1.969,1.07,3.45
								c0.715,2.954,1.44,7.209,0.957,11.943c-0.552,4.732-2.248,8.74-3.705,11.418c-0.74,1.341-1.498,2.334-1.961,3.043
								c-0.489,0.691-0.76,1.075-0.76,1.075s0.153-0.446,0.429-1.252c0.262-0.809,0.744-1.925,1.191-3.346
								c0.876-2.859,1.899-6.779,2.418-11.201c0.451-4.43,0.357-8.504,0.244-11.5c-0.07-1.494-0.212-2.704-0.249-3.553
								C368.516,415.834,368.49,415.363,368.49,415.363z"/>
						</g>
					</g>
				</g>
				<g>
					<g>
						<g>
							<path d="M380.876,516.175c0,0,1.291-0.012,3.552-0.031c1.13-0.021,2.501-0.046,4.076-0.075
								c1.573-0.037,3.343-0.174,5.27-0.321c3.826-0.529,8.303-1.229,12.881-2.767c1.139-0.402,2.297-0.812,3.469-1.227
								c1.158-0.459,2.33-0.923,3.513-1.391c2.357-0.967,4.759-1.938,7.037-3.093c2.274-1.154,4.429-2.535,6.175-4.263
								c0.405-0.459,0.893-0.84,1.227-1.353c0.358-0.489,0.715-0.977,1.069-1.462c0.333-0.495,0.565-1.042,0.853-1.553
								c0.312-0.503,0.461-1.062,0.645-1.603c0.724-2.165,0.725-4.415,0.193-6.432c-0.539-2.025-1.59-3.779-2.663-5.3
								c-2.255-3.008-4.784-5.031-6.606-6.348c-1.837-1.317-3.004-1.965-3.079-2.008c-0.598-0.357-0.82-1.119-0.498-1.698
								c0.323-0.58,1.103-0.739,1.744-0.356c0.079,0.047,1.297,0.766,3.204,2.217c1.893,1.454,4.519,3.664,6.89,7.02
								c1.131,1.702,2.244,3.681,2.799,6.023c0.55,2.33,0.469,4.978-0.429,7.412c-0.226,0.608-0.423,1.235-0.779,1.785
								c-0.331,0.56-0.615,1.158-0.995,1.69c-0.4,0.516-0.803,1.035-1.208,1.557c-0.381,0.541-0.92,0.951-1.376,1.433
								c-1.947,1.816-4.261,3.194-6.635,4.315c-2.383,1.121-4.822,2.023-7.21,2.923c-1.202,0.437-2.395,0.869-3.573,1.297
								c-1.195,0.384-2.375,0.764-3.536,1.137c-4.684,1.421-9.212,1.995-13.077,2.415c-1.941,0.093-3.723,0.177-5.298,0.169
								c-1.576-0.017-2.949-0.031-4.08-0.044C382.167,516.201,380.876,516.175,380.876,516.175z"/>
						</g>
					</g>
				</g>
				<g>
					<g>
						<g>
							<path d="M404.129,514.106c0,0-1.212,0.288-3.335,0.792c-2.128,0.473-5.204,1.044-8.951,1.319
								c-1.869,0.147-3.911,0.089-6.054,0.147c-2.137,0.032-4.408,0.072-6.757,0.024c-4.678-0.1-9.805-0.479-14.595-2.375
								c-4.774-1.869-8.966-5.298-11.467-9.54c-1.243-2.123-2.014-4.444-2.297-6.707c-0.283-2.262-0.142-4.454,0.313-6.386
								c0.86-3.897,2.567-6.806,3.834-8.742c1.298-1.938,2.223-2.956,2.28-3.023c0.48-0.544,1.261-0.612,1.741-0.156
								c0.481,0.457,0.514,1.233,0.072,1.733c-0.054,0.062-0.942,0.986-2.196,2.747c-1.227,1.757-2.876,4.399-3.756,7.899
								c-0.93,3.46-0.752,7.865,1.437,11.823c2.166,3.947,6.014,7.337,10.495,9.24c4.509,1.948,9.527,2.49,14.165,2.727
								c2.331,0.118,4.586,0.146,6.738,0.179c2.144,0.005,4.163,0.125,6.027,0.034c3.727-0.161,6.812-0.638,8.951-1.046
								C402.909,514.357,404.129,514.106,404.129,514.106z"/>
						</g>
					</g>
				</g>
				<g>
					<g>
						<g>
							<path d="M387.558,506.708c0,0,0.703-0.134,1.935-0.369c0.615-0.117,1.362-0.26,2.219-0.423
								c0.856-0.163,1.826-0.326,2.855-0.637c2.065-0.584,4.51-1.127,7.014-2.097c0.631-0.223,1.273-0.448,1.923-0.677
								c0.65-0.227,1.311-0.45,1.946-0.75c1.284-0.561,2.59-1.13,3.896-1.7c0.691-0.25,1.215-0.646,1.774-0.995
								c0.271-0.189,0.498-0.436,0.748-0.647c0.121-0.111,0.25-0.214,0.363-0.331l0.305-0.384c0.443-0.48,0.74-1.057,1.056-1.607
								c0.229-0.595,0.512-1.161,0.616-1.78c0.615-2.429,0.172-4.862-0.515-6.74c-0.698-1.905-1.717-3.281-2.48-4.172
								c-0.796-0.877-1.349-1.287-1.384-1.315c-0.268-0.233-0.16-0.855,0.238-1.385c0.399-0.53,0.996-0.726,1.332-0.435
								c0.041,0.035,0.687,0.568,1.574,1.655c0.854,1.1,1.951,2.77,2.641,5.001c0.676,2.205,1.041,5.007,0.178,7.824
								c-0.732,2.816-3.106,5.44-5.945,6.403c-1.357,0.511-2.715,1.021-4.05,1.522c-0.66,0.27-1.34,0.461-2.009,0.655
								c-0.668,0.196-1.328,0.391-1.977,0.582c-2.571,0.843-5.064,1.263-7.164,1.738c-1.047,0.257-2.03,0.37-2.896,0.488
								c-0.866,0.119-1.621,0.222-2.242,0.308C388.267,506.611,387.558,506.708,387.558,506.708z"/>
						</g>
					</g>
				</g>
				<g>
					<g>
						<g>
							<path d="M403.15,503.181c0,0-0.881,0.243-2.423,0.669c-0.768,0.231-1.718,0.435-2.805,0.684
								c-1.087,0.254-2.316,0.523-3.658,0.807c-1.344,0.277-2.788,0.626-4.319,0.982c-1.542,0.353-3.202,0.62-4.919,0.81
								c-3.438,0.351-7.179,0.44-10.877-0.271c-1.842-0.362-3.677-0.924-5.354-1.837c-0.407-0.252-0.828-0.479-1.218-0.754
								c-0.375-0.3-0.749-0.599-1.12-0.897c-0.331-0.355-0.659-0.71-0.985-1.061c-0.298-0.372-0.519-0.788-0.777-1.179
								c-0.932-1.61-1.43-3.407-1.502-5.126c-0.08-1.723,0.23-3.339,0.689-4.751c0.969-2.824,2.462-4.841,3.598-6.149
								c1.143-1.316,1.951-1.965,1.997-2.013c0.421-0.35,1.09-0.201,1.49,0.326c0.401,0.528,0.431,1.203,0.066,1.504
								c-0.04,0.042-0.779,0.589-1.843,1.72c-1.06,1.122-2.458,2.875-3.397,5.29c-0.446,1.206-0.763,2.572-0.755,4.022
								c0.002,1.445,0.355,2.968,1.093,4.379c0.686,1.435,1.903,2.568,3.377,3.454c1.468,0.88,3.156,1.481,4.894,1.897
								c3.492,0.824,7.168,0.897,10.559,0.69c1.702-0.119,3.333-0.312,4.871-0.598c1.547-0.295,3.007-0.584,4.361-0.806
								c1.354-0.229,2.591-0.447,3.685-0.655c1.095-0.204,2.053-0.368,2.826-0.566C402.261,503.388,403.15,503.181,403.15,503.181z"
								/>
						</g>
					</g>
				</g>
			</g>
		</g>
		<g opacity="0.2">
			<g>
				<g>
					<path fill="#FFFFFF" d="M412.333,460c0,0-0.092,0.022-0.266,0.065c-0.173,0.036-0.423,0.099-0.737,0.195
						c-0.629,0.186-1.506,0.499-2.544,0.947c-2.078,0.893-4.81,2.293-7.682,3.902c-2.869,1.605-5.352,3.169-6.745,4.757
						c-0.712,0.779-1.151,1.56-1.38,2.156c-0.134,0.297-0.186,0.544-0.237,0.714c-0.05,0.173-0.076,0.264-0.076,0.264
						s-0.031-0.089-0.091-0.257c-0.055-0.171-0.156-0.428-0.2-0.775c-0.129-0.689-0.137-1.779,0.28-3.031
						c0.785-2.547,3.254-5.387,6.551-7.215c3.309-1.852,6.747-2.445,9.215-2.423c1.238,0.008,2.239,0.175,2.905,0.354
						c0.334,0.086,0.586,0.176,0.754,0.245C412.246,459.965,412.333,460,412.333,460z"/>
				</g>
			</g>
		</g>
		<g opacity="0.2">
			<g>
				<g>
					<path fill="#FFFFFF" d="M376.333,431.334c0,0,0.47,0.788,0.928,2.096c0.497,1.3,0.819,3.15,0.675,5.169
						c-0.297,2.023-0.977,3.786-1.832,4.946c-0.787,1.171-1.438,1.789-1.438,1.789s-0.274-0.92-0.452-2.235
						c-0.11-1.3-0.419-3.064-0.141-4.902c0.13-1.88,0.773-3.553,1.247-4.816C375.831,432.129,376.333,431.334,376.333,431.334z"/>
				</g>
			</g>
		</g>
		<path opacity="0.3" enable-background="new    " d="M373.375,486.125c-7.752,3.163-4.471,15.084-0.4,19.574
			c-4.047-0.723-8.748-5.499-8.725-9.699c0.012-2.23,5.435-15.139,7.75-10.25"/>
		<path opacity="0.3" enable-background="new    " d="M432,490.667c1.432,4.505-0.93,10.134-3.375,13.958
			c-2.532,3.963-6.139,6.352-10.467,7.703c-5.08,1.587-10.284,2.172-15.94,2.172c2.164-0.082,4.549-1.519,6.625-2.167
			c2.046-0.639,4.062-1.542,6.116-2.374c3.893-1.578,7.919-2.839,11.241-5.746c4.021-3.52,5.973-7.952,5.8-13.213"/>
	</g>
</g>
</svg>
