<?xml version="1.0" encoding="utf-8"?>
<!-- Generator: Adobe Illustrator 25.0.1, SVG Export Plug-In . SVG Version: 6.00 Build 0)  -->
<svg version="1.1" id="Capa_1" xmlns="http://www.w3.org/2000/svg" xmlns:xlink="http://www.w3.org/1999/xlink" x="0px" y="0px"
	 viewBox="0 0 800 800" enable-background="new 0 0 800 800" xml:space="preserve">
<g id="narices_1_">
	<g id="_x31_0_1_">
		<g>
			<g>
				<g opacity="0.2">
					<g>
						<g>
							<path fill="#FFFFFF" d="M397.54,461.479c0,0-1.651-0.072-4.29-0.357c-2.635-0.249-6.254-0.803-10.139-0.728
								c-1.939,0.064-3.747,0.363-5.336,0.861c-1.61,0.458-2.933,1.229-4.054,1.873c-1.068,0.725-1.941,1.343-2.483,1.844
								c-0.573,0.474-0.891,0.736-0.891,0.736s0.247-0.331,0.693-0.927c0.429-0.62,1.165-1.417,2.152-2.356
								c1.042-0.859,2.354-1.89,4.07-2.564c1.688-0.713,3.697-1.161,5.795-1.227c4.212-0.073,7.803,0.947,10.358,1.623
								C395.971,460.975,397.54,461.479,397.54,461.479z"/>
						</g>
					</g>
				</g>
				<path opacity="0.3" enable-background="new    " d="M349.045,500.759c-4.562,0.376-12.691-5.458-14.072-9.948
					c-2.008-6.525,3.362-13.596,7.162-18.274c8.034-9.893,15.615-19.96,20.167-32.056c5.7-15.152,7.592-33.147,7.592-49.013
					c-0.014,26.329,7.841,55.866-11.219,77.689c-5.087,5.825-12.835,6.781-17.46,13.348c-5.5,7.809-2.639,16.161,6.471,18.255"/>
				<g>
					<g>
						<g>
							<g>
								<path d="M415.159,502.398c0,0,0.662,0.08,1.922,0.232c1.259,0.136,3.123,0.35,5.516,0.366
									c2.374-0.021,5.35-0.232,8.401-1.566c3.017-1.32,6.139-3.802,7.739-7.584c0.808-1.858,1.244-3.984,1.054-6.146
									c-0.095-1.075-0.316-2.161-0.747-3.188c-0.392-1.038-0.978-2.019-1.703-2.934c-1.421-1.852-3.432-3.32-5.694-4.555
									c-2.273-1.24-4.821-2.224-7.476-3.349c-2.695-1.155-5.381-2.648-7.89-4.393c-2.527-1.739-4.92-3.69-7.323-5.669
									c-1.235-1.001-2.367-1.991-3.575-2.894c-1.209-0.897-2.477-1.729-3.81-2.465c-2.66-1.479-5.559-2.609-8.593-3.267
									c-6.079-1.344-12.344-0.582-17.701,1.896c-5.321,2.254-8.892,7.073-12.94,11.215c-0.987,1.048-2.105,2.047-3.222,2.98
									c-0.581,0.434-1.157,0.864-1.729,1.292c-0.593,0.386-1.181,0.769-1.765,1.149c-2.359,1.454-4.689,2.656-6.83,3.929
									c-1.081,0.616-2.091,1.303-3.092,1.965c-0.986,0.655-1.865,1.352-2.67,2.118c-1.583,1.547-2.79,3.344-3.451,5.236
									c-1.398,3.817-0.117,7.764,1.983,10.222c2.135,2.52,4.982,3.618,7.225,4.314c2.296,0.655,4.156,0.923,5.407,1.109
									c1.258,0.167,1.919,0.255,1.919,0.255s-0.666-0.037-1.934-0.108c-1.266-0.095-3.142-0.227-5.526-0.738
									c-1.184-0.279-2.499-0.655-3.869-1.28c-1.364-0.624-2.79-1.522-4.027-2.829c-1.223-1.31-2.283-2.971-2.845-4.968
									c-0.306-0.988-0.428-2.059-0.457-3.157c0.026-1.098,0.166-2.228,0.495-3.337c0.654-2.22,1.933-4.325,3.634-6.142
									c0.859-0.898,1.832-1.736,2.853-2.478c1.008-0.73,2.03-1.485,3.125-2.169c2.163-1.402,4.449-2.694,6.638-4.149
									c0.535-0.374,1.075-0.751,1.618-1.13c0.511-0.409,1.026-0.82,1.545-1.234c0.981-0.881,1.944-1.782,2.882-2.835
									c1.894-2.048,3.735-4.324,5.895-6.529c2.134-2.199,4.745-4.311,7.789-5.681c2.922-1.387,6.177-2.366,9.538-2.762
									c3.365-0.403,6.846-0.232,10.236,0.505c3.392,0.734,6.606,2.006,9.527,3.66c1.463,0.824,2.849,1.752,4.161,2.749
									c1.306,0.999,2.516,2.087,3.676,3.054c2.352,1.998,4.651,3.941,7.004,5.636c2.355,1.711,4.759,3.126,7.269,4.291
									c2.557,1.172,5.175,2.272,7.602,3.701c2.414,1.423,4.679,3.188,6.27,5.437c0.805,1.1,1.462,2.311,1.884,3.58
									c0.459,1.253,0.67,2.557,0.723,3.823c0.106,2.548-0.52,4.947-1.527,6.986c-0.989,2.059-2.418,3.742-3.973,5.046
									c-1.575,1.295-3.256,2.201-4.913,2.821c-3.338,1.228-6.416,1.234-8.824,1.097c-2.425-0.179-4.271-0.526-5.52-0.754
									C415.813,502.528,415.159,502.398,415.159,502.398z"/>
							</g>
						</g>
					</g>
					<path d="M351.78,492.107c0.023-7.127,5.471-13.824,12.458-15.16c9.23-1.765,14.222,4.363,15.439,12.451
						c1.145,7.601-4.104,13.028-11.926,11.384c-3.615-0.762-15.272-4.984-16.241-8.947"/>
					<path d="M398.908,498.879c-5.52-2.014-6.724-16.958-2.649-20.525c5.522-4.831,14.782-3.969,20.186,0.55
						c3.713,3.104,7.868,13.036,3.52,16.927c-4.952,4.434-14.914-0.001-20.516,2.507"/>
					<g>
						<g>
							<g>
								<path d="M369.384,431.978c0,0,0.268,1.4,0.508,3.678c0.222,2.276,0.439,5.453-0.091,9.008
									c-0.216,0.877-0.445,1.73-0.679,2.548c-0.235,0.816-0.579,1.535-0.859,2.249c-0.569,1.426-1.211,2.61-1.73,3.633
									c-1.031,2.023-1.751,3.262-1.751,3.262s0.221-1.405,0.768-3.636c0.295-1.096,0.646-2.396,1.036-3.839
									c0.176-0.714,0.44-1.456,0.601-2.223c0.16-0.767,0.339-1.554,0.542-2.355c0.491-3.29,0.812-6.407,1.112-8.659
									C369.126,433.384,369.385,431.978,369.384,431.978z"/>
							</g>
						</g>
					</g>
					<g>
						<g>
							<g>
								<path d="M404.053,429.541c-0.001,0,0.279,1.72,0.633,4.462c0.435,2.736,0.976,6.479,1.989,10.478
									c1.046,3.989,2.442,7.464,3.552,9.992c0.569,1.252,1.11,2.234,1.435,2.946c0.333,0.709,0.518,1.103,0.518,1.103
									s-0.282-0.328-0.791-0.919c-0.491-0.607-1.26-1.456-2.073-2.605c-1.591-2.307-3.57-5.768-4.677-9.99
									c-1.07-4.227-1.091-8.163-1.003-10.954C403.806,431.253,404.052,429.541,404.053,429.541z"/>
							</g>
						</g>
					</g>
				</g>
			</g>
			<g opacity="0.2">
				<g>
					<g>
						<path fill="#FFFFFF" d="M374.999,427c0,0,0.487,1.185,1.021,3.093c0.522,1.906,1.107,4.588,0.928,7.661
							c-0.177,3.066-1.233,5.886-2.51,7.591c-0.157,0.211-0.307,0.411-0.449,0.601c-0.165,0.174-0.32,0.338-0.465,0.492
							c-0.288,0.302-0.544,0.545-0.791,0.714c-0.469,0.353-0.732,0.516-0.732,0.516s0.082-0.305,0.229-0.852
							c0.086-0.256,0.148-0.59,0.216-0.965c0.037-0.183,0.077-0.378,0.119-0.584c0.026-0.211,0.053-0.433,0.082-0.666
							c0.264-1.834,0.258-4.294,0.428-7.088c0.164-2.794,0.56-5.435,1.006-7.375C374.516,428.195,374.999,427,374.999,427z"/>
					</g>
				</g>
			</g>
		</g>
	</g>
</g>
</svg>
