<?xml version="1.0" encoding="utf-8"?>
<!-- Generator: Adobe Illustrator 25.0.1, SVG Export Plug-In . SVG Version: 6.00 Build 0)  -->
<svg version="1.1" id="Capa_1" xmlns="http://www.w3.org/2000/svg" xmlns:xlink="http://www.w3.org/1999/xlink" x="0px" y="0px"
	 viewBox="0 0 800 800" enable-background="new 0 0 800 800" xml:space="preserve">
<g id="narices_1_">
	<g id="_x32__3_">
		<g>
			<g>
				<path fill="#5F8937" d="M392.537,475.743c1.765,1.174,2.635,4.406,3.836,6.19c1.309,1.94,3.138,3.643,4.352,5.676
					c2.551,4.271,3.664,9.545,5.056,14.241c1.462,4.934,2.972,10.027,5.161,14.747c1.138,2.456,2.293,4.88,2.596,7.576
					c0.329,2.92,1.501,4.593,2.885,7.144c1.207,2.223,1.809,4.552,3.728,6.332c2.004,1.859,4.284,3.026,6.815,3.558
					c4.966,1.044,11.725,2.955,16.507,0.235c4.242-2.411,10.488-3.936,12.297-9.091c1.866-5.321,0.047-10.924-3.637-14.841
					c-1.415-1.505-2.416-2.894-4.01-4.263c-1.555-1.332-2.349-3.014-3.728-4.359c1.709-0.017,4.329,0.839,6.03,1.291
					c2.028,0.541,3.867,1.019,5.998,1.281c-3.891-2.65-7.673-5.028-10.865-8.711c-3.152-3.637-6.428-7.157-9.271-10.964
					c-5.921-7.926-10.49-16.518-15.133-25.171c-0.501-0.934-1.051-2.79-1.798-3.5c-0.995-0.948-2.626-0.62-4.114-0.615
					c-2.927,0.008-5.945-0.988-8.277,1.178c-3.623,3.365-7.526,6.107-11.164,9.463c-1.062,0.98-2.012,2.117-2.884,3.169"/>
				<g>
					<path opacity="0.3" enable-background="new    " d="M416.896,523.161c0.958-1.413,2.1-2.665,3.223-3.926
						c0.184-0.466,0.412-0.89,0.739-1.203l-0.416,0.277c-0.429,0.484-0.854,1.008-1.272,1.544c1.61-2.074-2.766-8.838-3.627-10.819
						c-2.855-6.578-5.275-13.255-8.736-19.566c-0.77-1.406-9.87-16.722-10.675-16.186l-1.135,0.758
						c-2.368,1.68,0.196,3.64,1.56,5.45c1.403,1.859,2.591,3.799,3.506,5.942c2.008,4.706,3.619,9.555,5.191,14.296
						c1.639,4.94,4.264,9.655,5.214,14.651c0.548,2.877,1.009,5.408,1.98,8.046c0.698,1.895,1.577,3.68,2.147,5.594
						C415.202,526.305,415.904,524.625,416.896,523.161z"/>
				</g>
				<path opacity="0.3" enable-background="new    " d="M425.388,522.435c5.498-6.244,14.078-9.042,22.843-9.49
					c-0.874-1.097-1.815-2.135-2.983-2.884c-1.181-0.76-1.943-1.4-3.427-1.399c-1.555,0.002-2.896,0.208-4.33,0.589
					c-2.546,0.675-5.785,0.823-8.155,2.154c-1.117,0.627-2.084,1.621-3.126,2.341c-0.825,0.573-2.893,1.286-3.287,2.221
					c-0.541,1.272,1.217,2.495,1.683,3.479C425.045,520.376,425.194,521.409,425.388,522.435z"/>
				<path opacity="0.3" enable-background="new    " d="M362.456,432.04c5.789-13.16,5.382-29.093,2.65-43.4
					c-0.014,11.595,0.337,24.346-4.817,34.403c-4.373,8.537-9.573,17.855-16.354,24.595c-5.775,5.74-14.759,11.785-11.39,21.503
					c2.907,8.386,19.212,6.32,25.255,4.513c-5.269,0.039-12.16,1.053-13.884-4.911c-1.457-5.043,3.499-10.288,6.146-13.989
					c6.094-8.525,11.01-16.279,14.296-25.728c0.135-0.39,0.217-0.745,0.368-1.147"/>
				<path opacity="0.3" enable-background="new    " d="M396.699,432.797c-4.802,2.311-8.6,7.31-10.983,11.852
					c0.158-9.365,6.519-25.353,18.929-20.933c2.203,0.784,7.518,4.402,7.733,6.972c-2.831,0.143-5.935-0.314-8.636,0.259
					c-2.395,0.508-4.81,1.353-7.231,2.04"/>
				<path opacity="0.3" enable-background="new    " d="M355.456,474.229c2.802-0.28,6.213-0.492,8.902,0.179
					c2.457,0.611,4.814,1.863,7.369,2.279c5.65,0.92,11.947,0.855,17.069-1.465c4.095-1.856,8.86-3.88,11.99-7.255
					c-1.816,1.492-3.777,2.709-4.839,4.753c-1.113,2.146-2.305,4.572-4.592,5.817c-4.478,2.439-12.215,3.155-17.358,1.929
					c-6.691-1.594-12.212-5.292-19.487-5.292"/>
				<g opacity="0.3">
					<g>
						<g>
							<path fill="#B3D68E" d="M445.888,507.337c0,0-0.608-0.434-1.708-1.216c-1.118-0.764-2.639-2-4.463-3.599
								c-3.605-3.233-8.133-8.291-12.071-14.563c-3.934-6.215-7.398-11.947-9.352-16.402c-0.246-0.554-0.48-1.08-0.702-1.579
								c-0.196-0.51-0.381-0.991-0.554-1.44c-0.353-0.895-0.633-1.673-0.814-2.327c-0.39-1.292-0.605-2.008-0.605-2.008
								s0.292,0.687,0.82,1.928c0.244,0.626,0.598,1.37,1.026,2.223c0.209,0.429,0.433,0.887,0.669,1.373
								c0.258,0.475,0.531,0.977,0.818,1.504c2.253,4.232,5.999,9.725,9.93,15.936c3.892,6.195,8.033,11.362,11.347,14.83
								c1.676,1.711,3.066,3.079,4.096,3.947C445.33,506.84,445.888,507.337,445.888,507.337z"/>
						</g>
					</g>
				</g>
				<g>
					<g>
						<path d="M434.103,459.84c-0.021,0.051-0.043,0.107-0.067,0.17c-0.026,0.06-0.056,0.129-0.087,0.204
							c-0.031,0.073-0.066,0.152-0.103,0.236c-0.036,0.086-0.079,0.177-0.123,0.272c-0.086,0.191-0.194,0.402-0.31,0.636
							c-0.061,0.114-0.125,0.233-0.193,0.358s-0.147,0.25-0.222,0.382c-0.315,0.524-0.725,1.103-1.272,1.658
							c-0.277,0.273-0.591,0.536-0.947,0.765c-0.358,0.23-0.756,0.426-1.195,0.562c-0.438,0.139-0.911,0.219-1.41,0.239
							c-0.498,0.019-1.021-0.021-1.557-0.111c-0.538-0.094-1.09-0.237-1.648-0.42c-0.14-0.049-0.278-0.097-0.421-0.145
							c-0.142-0.052-0.285-0.109-0.429-0.165c-0.147-0.056-0.293-0.111-0.44-0.168c-0.149-0.055-0.292-0.117-0.442-0.174
							c-0.717-0.29-1.45-0.622-2.218-0.968c-0.492-0.223-0.999-0.452-1.52-0.68c-0.669-0.293-1.364-0.581-2.101-0.839
							c-0.011-0.005-0.022-0.01-0.036-0.014c-0.354-0.127-0.723-0.243-1.1-0.351c-0.195-0.052-0.391-0.112-0.592-0.156
							c-0.1-0.022-0.2-0.055-0.301-0.078c-0.102-0.02-0.204-0.053-0.308-0.074l-0.154-0.058l-0.155-0.077
							c-0.015-0.003-0.03-0.017-0.046-0.023c-0.486,0.045-0.979,0.027-1.473-0.053c-0.027,0.043-0.055,0.071-0.083,0.07
							l-0.165,0.049c-0.055-0.002-0.108,0.109-0.164,0.109h-0.332c-0.887,0-1.789,0.039-2.678,0.268
							c-0.113,0.033-0.225-0.046-0.338-0.016c-0.114,0.033-0.229,0.063-0.335,0.105c-0.214,0.077-0.432,0.154-0.647,0.233
							c-0.422,0.173-0.848,0.344-1.265,0.548c-0.835,0.396-1.653,0.863-2.444,1.391c-1.585,1.056-3.033,2.358-4.398,3.746
							c-1.366,1.388-2.656,2.863-3.995,4.288c-1.34,1.425-2.739,2.799-4.298,3.967c-0.391,0.292-0.789,0.57-1.202,0.838
							l-0.155,0.101l-0.156,0.097c-0.105,0.065-0.209,0.131-0.314,0.194c-0.104,0.066-0.211,0.126-0.317,0.188
							c-0.106,0.061-0.214,0.122-0.32,0.183c-0.858,0.478-1.76,0.893-2.695,1.243c-1.87,0.7-3.872,1.146-5.931,1.302
							c-1.027,0.079-2.057,0.09-3.08,0.038c-1.021-0.053-2.031-0.174-3.028-0.35c-0.994-0.175-1.975-0.409-2.93-0.694
							c-0.122-0.035-0.241-0.073-0.358-0.111c-0.119-0.039-0.238-0.076-0.355-0.114c-0.235-0.077-0.469-0.162-0.704-0.244
							c-0.226-0.084-0.451-0.169-0.677-0.254c-0.219-0.098-0.439-0.196-0.66-0.293c-1.802-0.828-3.578-1.839-5.454-2.699
							c-0.938-0.429-1.902-0.821-2.897-1.133c-0.252-0.071-0.503-0.143-0.753-0.215c-0.254-0.062-0.509-0.122-0.763-0.181
							c-0.062-0.016-0.128-0.026-0.195-0.038l-0.195-0.036c-0.131-0.023-0.26-0.047-0.392-0.07
							c-0.128-0.026-0.264-0.036-0.396-0.053l-0.199-0.021c-0.066-0.007-0.129-0.011-0.194-0.016
							c-0.515-0.043-1.024-0.056-1.525-0.05c-0.5,0.006-0.993,0.031-1.476,0.072c-0.965,0.077-1.896,0.207-2.792,0.341
							c-0.9,0.135-1.768,0.277-2.615,0.388c-0.422,0.057-0.84,0.107-1.251,0.146c-0.413,0.038-0.818,0.068-1.219,0.083
							c-0.803,0.033-1.581,0.004-2.332-0.09c-0.188-0.027-0.376-0.048-0.554-0.085c-0.091-0.017-0.182-0.032-0.271-0.051
							c-0.089-0.021-0.178-0.041-0.266-0.061c-0.09-0.019-0.177-0.046-0.263-0.069c-0.087-0.025-0.175-0.046-0.259-0.075
							c-0.085-0.028-0.17-0.057-0.256-0.084c-0.085-0.027-0.168-0.062-0.249-0.093c-1.327-0.51-2.452-1.357-3.243-2.4
							c-0.195-0.263-0.38-0.528-0.538-0.809c-0.082-0.139-0.15-0.283-0.224-0.424c-0.037-0.071-0.066-0.145-0.1-0.216
							c-0.032-0.072-0.067-0.145-0.094-0.217c-0.236-0.583-0.403-1.183-0.491-1.78c-0.089-0.599-0.112-1.191-0.079-1.767
							c0.003-0.071,0.012-0.147,0.018-0.221c0.007-0.074,0.015-0.147,0.02-0.221c0.012-0.147,0.024-0.295,0.035-0.439
							c0.013-0.142,0.033-0.278,0.047-0.417c0.021-0.138,0.043-0.272,0.065-0.407c0.191-1.075,0.566-2.03,1.062-2.827
							c0.495-0.799,1.093-1.44,1.691-1.951c0.3-0.254,0.598-0.478,0.887-0.68c0.147-0.096,0.286-0.193,0.426-0.278
							c0.071-0.044,0.139-0.086,0.207-0.129c0.068-0.04,0.137-0.079,0.203-0.119c0.532-0.307,1.002-0.535,1.385-0.709
							c0.384-0.176,0.683-0.3,0.884-0.381c0.188-0.075,0.291-0.115,0.304-0.121c-0.013,0.004-0.118,0.034-0.314,0.091
							c-0.209,0.062-0.517,0.155-0.92,0.297c-0.4,0.14-0.894,0.327-1.46,0.591c-0.07,0.033-0.143,0.068-0.217,0.103
							c-0.073,0.038-0.145,0.074-0.221,0.112c-0.152,0.074-0.303,0.162-0.462,0.248c-0.314,0.179-0.643,0.385-0.977,0.626
							c-0.665,0.479-1.361,1.105-1.964,1.929c-0.301,0.413-0.577,0.872-0.813,1.375c-0.237,0.504-0.433,1.051-0.582,1.631
							c-0.036,0.145-0.068,0.291-0.103,0.438c-0.028,0.149-0.059,0.301-0.084,0.452c-0.022,0.147-0.046,0.296-0.067,0.446
							c-0.013,0.076-0.025,0.153-0.037,0.229c-0.012,0.077-0.028,0.151-0.035,0.233c-0.083,0.639-0.105,1.31-0.05,1.998
							c0.054,0.69,0.198,1.396,0.431,2.098c0.027,0.088,0.063,0.175,0.095,0.262c0.034,0.087,0.064,0.176,0.1,0.263
							c0.076,0.171,0.146,0.347,0.235,0.516c0.164,0.342,0.363,0.677,0.578,1.005c0.056,0.081,0.112,0.159,0.168,0.242
							c0.057,0.081,0.12,0.157,0.179,0.236c0.119,0.161,0.253,0.309,0.383,0.462c0.068,0.074,0.138,0.146,0.207,0.222
							c0.034,0.037,0.069,0.073,0.104,0.109l0.11,0.105c0.073,0.07,0.146,0.143,0.224,0.212c0.077,0.067,0.154,0.135,0.232,0.201
							c0.316,0.264,0.65,0.518,1.011,0.737l0.132,0.084l0.139,0.08c0.093,0.053,0.184,0.107,0.277,0.157
							c0.191,0.096,0.38,0.196,0.577,0.281c0.098,0.042,0.196,0.092,0.295,0.13c0.102,0.04,0.202,0.079,0.304,0.12
							c0.1,0.04,0.204,0.071,0.306,0.107c0.104,0.035,0.207,0.073,0.312,0.102c0.105,0.03,0.211,0.061,0.315,0.092
							c0.105,0.029,0.213,0.052,0.32,0.077c0.215,0.057,0.428,0.093,0.643,0.135c0.862,0.153,1.747,0.229,2.636,0.237
							c1.78,0.022,3.566-0.201,5.34-0.391c0.888-0.095,1.775-0.181,2.657-0.218c0.442-0.02,0.883-0.023,1.319-0.013
							c0.439,0.011,0.875,0.037,1.306,0.09c0.055,0.005,0.11,0.012,0.161,0.019l0.157,0.022c0.103,0.016,0.206,0.025,0.31,0.052
							c0.104,0.023,0.211,0.046,0.316,0.069l0.156,0.033c0.052,0.011,0.105,0.021,0.159,0.036c0.212,0.059,0.427,0.118,0.64,0.176
							c0.215,0.067,0.428,0.138,0.642,0.205c0.855,0.298,1.708,0.672,2.568,1.095c0.859,0.423,1.727,0.894,2.62,1.377
							c0.893,0.485,1.811,0.983,2.782,1.452c0.251,0.116,0.504,0.232,0.756,0.351c0.259,0.104,0.52,0.21,0.778,0.31
							c0.259,0.094,0.516,0.192,0.775,0.284c0.129,0.043,0.26,0.087,0.392,0.13c0.131,0.047,0.261,0.091,0.395,0.13
							c1.055,0.332,2.14,0.605,3.245,0.811c1.107,0.206,2.235,0.351,3.378,0.415c1.142,0.064,2.299,0.054,3.458-0.036
							c2.319-0.174,4.591-0.689,6.714-1.509c1.061-0.411,2.087-0.895,3.058-1.455c0.12-0.074,0.242-0.144,0.362-0.216
							c0.12-0.07,0.242-0.14,0.357-0.217c0.116-0.075,0.234-0.149,0.35-0.224l0.176-0.113l0.169-0.115
							c0.28-0.188,0.553-0.38,0.824-0.58c0.174-0.127,0.346-0.258,0.516-0.391c0.585-0.456,1.145-0.936,1.679-1.43
							c0.25-0.231,0.499-0.468,0.739-0.705c0.754-0.739,1.457-1.501,2.131-2.257c1.346-1.512,2.575-3.016,3.829-4.381
							c1.256-1.367,2.534-2.614,3.91-3.618c0.686-0.504,1.395-0.965,2.119-1.354c0.723-0.382,1.479-0.769,2.189-0.993
							c0.737-0.229,1.484-0.446,2.227-0.504c0.094-0.006,0.187-0.155,0.277-0.161c0.046-0.001,0.092-0.296,0.141-0.296h0.138
							c0.093,0,0.187,0.287,0.277,0.286c0.093,0.003,0.186,0.294,0.279,0.297l0.137,0.004l0.138,0.009
							c0.093,0.007,0.184,0.013,0.274,0.019c0.092,0.011,0.186,0.021,0.274,0.028l0.138,0.018l0.137,0.019
							c0.09,0.014,0.181,0.026,0.271,0.038c0.09,0.016,0.181,0.031,0.272,0.047c0.18,0.029,0.358,0.071,0.538,0.107
							c0.354,0.08,0.706,0.169,1.055,0.27c0.433,0.124,0.858,0.259,1.277,0.404c0.259,0.088,0.515,0.179,0.77,0.273
							c0.954,0.349,1.882,0.713,2.794,1.04c0.361,0.131,0.719,0.257,1.076,0.373c0.158,0.049,0.315,0.103,0.467,0.149
							c0.155,0.047,0.307,0.093,0.46,0.141c0.153,0.045,0.304,0.094,0.458,0.137c0.154,0.041,0.309,0.084,0.46,0.124
							c0.613,0.153,1.221,0.267,1.816,0.325c0.594,0.057,1.179,0.059,1.737-0.007c0.56-0.065,1.092-0.196,1.573-0.393
							c0.482-0.195,0.914-0.45,1.286-0.734c0.372-0.285,0.689-0.598,0.959-0.914c0.532-0.638,0.9-1.271,1.175-1.833
							c0.065-0.142,0.135-0.275,0.19-0.409c0.057-0.132,0.112-0.258,0.163-0.38c0.099-0.244,0.185-0.467,0.253-0.667
							c0.036-0.101,0.072-0.193,0.099-0.283c0.03-0.089,0.057-0.172,0.081-0.248c0.023-0.077,0.047-0.148,0.067-0.212
							c0.02-0.065,0.038-0.122,0.053-0.176c0.052-0.183,0.084-0.286,0.089-0.311C434.216,459.562,434.175,459.663,434.103,459.84z"
							/>
					</g>
					<g>
						<path d="M455.697,511.31c-0.044-0.03-0.239-0.166-0.573-0.393c-0.19-0.13-0.424-0.292-0.701-0.479
							c-0.068-0.046-0.14-0.098-0.212-0.151c-0.071-0.053-0.146-0.109-0.223-0.165c-0.154-0.114-0.319-0.235-0.49-0.365
							c-0.175-0.127-0.357-0.264-0.548-0.405c-0.186-0.146-0.384-0.302-0.588-0.464c-0.201-0.16-0.415-0.328-0.634-0.503
							c-0.112-0.085-0.223-0.178-0.332-0.272c-0.112-0.093-0.225-0.188-0.34-0.285c-0.23-0.193-0.468-0.392-0.712-0.597
							c-0.124-0.103-0.244-0.213-0.367-0.32c-0.123-0.109-0.246-0.22-0.374-0.331c-0.251-0.223-0.513-0.451-0.775-0.689
							c-0.26-0.241-0.525-0.487-0.797-0.74c-0.137-0.126-0.273-0.253-0.41-0.38c-0.138-0.133-0.275-0.264-0.414-0.398
							c-0.277-0.268-0.559-0.541-0.846-0.819c-0.282-0.283-0.571-0.572-0.863-0.864c-0.146-0.147-0.292-0.295-0.439-0.444
							c-0.143-0.152-0.285-0.308-0.429-0.463c-1.156-1.244-2.373-2.55-3.619-3.922c-2.489-2.743-5.094-5.733-7.473-8.938
							c-1.188-1.601-2.318-3.253-3.339-4.948c-0.25-0.423-0.493-0.847-0.737-1.266c-0.062-0.106-0.124-0.207-0.186-0.309
							c-0.061-0.1-0.122-0.201-0.186-0.301c-0.125-0.201-0.249-0.402-0.372-0.602c-0.5-0.804-1.001-1.603-1.497-2.384
							c-0.994-1.567-1.961-3.086-2.869-4.538c-0.908-1.453-1.753-2.844-2.518-4.145c-0.188-0.328-0.373-0.648-0.555-0.962
							c-0.088-0.156-0.179-0.312-0.267-0.465c-0.087-0.155-0.17-0.309-0.255-0.459c-0.167-0.303-0.331-0.598-0.49-0.885
							c-0.158-0.288-0.305-0.574-0.451-0.847c-0.143-0.275-0.286-0.541-0.419-0.799c-0.131-0.262-0.256-0.512-0.377-0.754
							c-0.121-0.244-0.239-0.474-0.349-0.699c-0.104-0.225-0.205-0.441-0.303-0.646c-0.06-0.128-0.117-0.25-0.172-0.369
							c-0.394-0.852-0.671-1.504-0.837-1.903c0.014,0.005,0.025,0.009,0.036,0.013c0.736,0.259,1.432,0.546,2.101,0.839
							c0.521,0.228,1.028,0.457,1.52,0.68c0.036,0.087,0.074,0.175,0.11,0.265c0.095,0.22,0.319,0.447,0.425,0.685
							c0.105,0.235,0.447,0.482,0.447,0.734c0,0.002,0,0.003,0,0.005c0,0.256,0.124,0.518,0.253,0.789
							c0.13,0.272,0.198,0.553,0.34,0.839c0.143,0.286,0.259,0.58,0.407,0.882c0.076,0.15,0.137,0.303,0.215,0.456
							c0.079,0.155,0.152,0.311,0.233,0.468c0.162,0.314,0.324,0.636,0.496,0.963c0.692,1.31,1.46,2.715,2.293,4.194
							c0.837,1.482,1.731,3.037,2.654,4.652c0.463,0.809,0.927,1.629,1.398,2.468c0.119,0.213,0.237,0.426,0.356,0.638
							c0.06,0.107,0.117,0.214,0.177,0.319c0.061,0.107,0.12,0.215,0.176,0.32c0.221,0.425,0.441,0.853,0.668,1.278
							c0.914,1.685,1.943,3.347,3.036,4.969c2.189,3.245,4.636,6.329,6.99,9.17c1.177,1.419,2.336,2.781,3.427,4.069
							c0.138,0.161,0.273,0.322,0.408,0.48c0.138,0.154,0.276,0.306,0.413,0.457c0.277,0.303,0.548,0.602,0.815,0.895
							c0.273,0.289,0.539,0.572,0.803,0.852c0.132,0.138,0.262,0.275,0.392,0.412c0.131,0.135,0.261,0.266,0.391,0.397
							c0.258,0.262,0.512,0.521,0.759,0.77c0.25,0.25,0.5,0.487,0.739,0.722c0.121,0.117,0.239,0.231,0.358,0.347
							c0.116,0.111,0.232,0.227,0.35,0.332c0.234,0.216,0.46,0.425,0.682,0.628c0.109,0.102,0.219,0.2,0.324,0.299
							c0.105,0.098,0.211,0.195,0.316,0.286c0.212,0.183,0.416,0.359,0.611,0.528c0.196,0.171,0.384,0.334,0.562,0.49
							c0.185,0.148,0.36,0.292,0.526,0.428c0.167,0.136,0.326,0.264,0.475,0.385c0.073,0.061,0.146,0.118,0.215,0.175
							c0.07,0.058,0.138,0.112,0.204,0.16c0.268,0.201,0.496,0.372,0.677,0.511C455.465,511.133,455.655,511.276,455.697,511.31z"/>
					</g>
					<g>
						<path d="M416.025,535.229c0,0-0.072-0.232-0.201-0.665c-0.129-0.434-0.326-1.07-0.551-1.887
							c-0.234-0.814-0.502-1.807-0.809-2.947c-0.305-1.14-0.642-2.428-1.024-3.825c-0.096-0.352-0.195-0.707-0.295-1.071
							c-0.102-0.362-0.212-0.731-0.319-1.106c-0.21-0.751-0.461-1.523-0.706-2.318c-0.234-0.799-0.466-1.623-0.707-2.464
							c-0.061-0.21-0.122-0.423-0.182-0.636c-0.063-0.211-0.127-0.425-0.189-0.638c-0.126-0.427-0.253-0.857-0.382-1.294
							c-1.031-3.479-2.193-7.176-3.462-10.833c-0.161-0.456-0.318-0.911-0.478-1.368c-0.081-0.229-0.156-0.457-0.24-0.684
							c-0.085-0.227-0.167-0.453-0.251-0.679c-0.165-0.454-0.331-0.905-0.496-1.354c-0.084-0.226-0.166-0.45-0.248-0.675
							c-0.084-0.224-0.17-0.446-0.258-0.668c-0.172-0.443-0.344-0.886-0.514-1.326c-0.085-0.221-0.168-0.438-0.254-0.657
							c-0.043-0.109-0.086-0.22-0.127-0.328c-0.045-0.108-0.088-0.217-0.131-0.325c-0.178-0.431-0.348-0.86-0.527-1.284
							c-0.178-0.423-0.354-0.846-0.533-1.26c-0.714-1.66-1.457-3.236-2.223-4.689c-0.096-0.183-0.188-0.363-0.283-0.544
							c-0.099-0.176-0.197-0.35-0.295-0.523c-0.097-0.174-0.191-0.346-0.289-0.517c-0.047-0.085-0.093-0.173-0.145-0.254
							c-0.05-0.083-0.099-0.166-0.149-0.247c-0.101-0.166-0.2-0.328-0.297-0.49c-0.049-0.079-0.098-0.16-0.146-0.24l-0.073-0.119
							l-0.042-0.069c-0.029-0.047-0.055-0.094-0.078-0.141c-0.086-0.166-0.17-0.329-0.254-0.492
							c-0.039-0.079-0.083-0.156-0.128-0.233c-0.041-0.078-0.085-0.155-0.127-0.23c-0.043-0.075-0.086-0.152-0.128-0.227
							c-0.045-0.075-0.09-0.151-0.132-0.226c-0.089-0.148-0.177-0.294-0.264-0.441c-0.182-0.287-0.353-0.571-0.533-0.846
							c-0.088-0.138-0.177-0.273-0.264-0.406c-0.089-0.133-0.178-0.264-0.262-0.395c-0.172-0.26-0.35-0.51-0.514-0.755
							c-0.673-0.975-1.283-1.831-1.784-2.55c-1.009-1.438-1.584-2.338-1.619-2.398c-0.147-0.237-0.138-0.541-0.009-0.829
							c0.132-0.288,0.385-0.56,0.727-0.756c0.343-0.194,0.706-0.278,1.016-0.261c0.31,0.017,0.562,0.137,0.702,0.358
							c0.034,0.058,0.525,0.909,1.455,2.37c0.464,0.731,1.035,1.614,1.68,2.646c0.16,0.261,0.326,0.523,0.494,0.805
							c0.084,0.138,0.169,0.279,0.255,0.422c0.085,0.146,0.17,0.291,0.258,0.44c0.175,0.294,0.347,0.607,0.525,0.923
							c0.088,0.161,0.174,0.324,0.262,0.488c0.043,0.082,0.088,0.166,0.131,0.25c0.045,0.085,0.086,0.17,0.131,0.256
							c0.043,0.086,0.087,0.174,0.13,0.259c0.044,0.088,0.087,0.175,0.127,0.266c0.081,0.173,0.162,0.35,0.243,0.527
							c-0.002-0.004-0.006-0.01-0.01-0.015c-0.001-0.004-0.001-0.002,0.003,0.006l0.011,0.017l0.016,0.032
							c0.024,0.043,0.049,0.086,0.072,0.131c0.047,0.086,0.096,0.174,0.143,0.263c0.096,0.175,0.191,0.352,0.289,0.529
							c0.05,0.089,0.099,0.18,0.146,0.271c0.051,0.088,0.094,0.181,0.142,0.272c0.091,0.184,0.185,0.368,0.278,0.556
							c0.093,0.188,0.187,0.374,0.283,0.564c0.09,0.189,0.18,0.383,0.27,0.577c0.727,1.55,1.416,3.207,2.066,4.933
							c0.164,0.433,0.321,0.869,0.482,1.308c0.164,0.438,0.315,0.883,0.476,1.328c0.039,0.11,0.079,0.223,0.118,0.335
							c0.037,0.111,0.076,0.223,0.113,0.337c0.076,0.225,0.15,0.449,0.227,0.677c0.152,0.452,0.305,0.906,0.457,1.361
							c0.077,0.229,0.156,0.456,0.228,0.686c0.073,0.231,0.145,0.461,0.22,0.691c0.145,0.462,0.291,0.925,0.438,1.389
							c0.072,0.23,0.145,0.463,0.221,0.693c0.073,0.233,0.14,0.466,0.21,0.7c0.141,0.468,0.278,0.934,0.418,1.4
							c1.108,3.737,2.103,7.498,2.976,11.031c0.108,0.442,0.216,0.88,0.322,1.314c0.054,0.217,0.106,0.433,0.159,0.648
							c0.052,0.214,0.102,0.428,0.151,0.641c0.203,0.85,0.396,1.683,0.593,2.491c0.21,0.805,0.422,1.585,0.602,2.351
							c0.091,0.382,0.183,0.757,0.268,1.125c0.083,0.369,0.166,0.732,0.246,1.087c0.319,1.419,0.596,2.718,0.849,3.872
							c0.254,1.151,0.475,2.155,0.671,2.978c0.186,0.824,0.354,1.468,0.464,1.908C415.967,534.994,416.025,535.229,416.025,535.229z
							"/>
					</g>
					<g>
						<path d="M428.258,529.738c0.242-0.224,0.509-0.471,0.567-0.552c0.106-0.145,0.23-0.315,0.375-0.503
							c0.123-0.16,0.257-0.336,0.408-0.524c0.562-0.705,1.322-1.607,2.319-2.636c0.315-0.328,0.654-0.666,1.019-1.015
							c0.366-0.349,0.757-0.707,1.174-1.071c0.835-0.729,1.778-1.482,2.848-2.223c1.073-0.738,2.272-1.462,3.629-2.083
							c0.68-0.309,1.397-0.59,2.157-0.827c0.758-0.237,1.564-0.416,2.403-0.526c0.104-0.017,0.212-0.024,0.317-0.035
							c0.107-0.011,0.212-0.023,0.32-0.028c0.216-0.015,0.43-0.028,0.65-0.029c0.22-0.009,0.44,0,0.66,0.004
							c0.111,0.002,0.224,0.015,0.335,0.021c0.11,0.007,0.223,0.014,0.335,0.028c0.112,0.014,0.225,0.025,0.337,0.039
							c0.111,0.015,0.226,0.034,0.337,0.053l0.17,0.027l0.169,0.035c0.113,0.024,0.225,0.046,0.338,0.073
							c0.225,0.059,0.45,0.112,0.673,0.188l0.168,0.054c0.057,0.016,0.111,0.035,0.167,0.056c0.111,0.041,0.221,0.083,0.332,0.124
							c0.111,0.04,0.22,0.093,0.329,0.137c0.109,0.048,0.22,0.093,0.327,0.147c0.108,0.054,0.216,0.106,0.323,0.158
							c0.105,0.057,0.211,0.115,0.317,0.174l0.159,0.087l0.155,0.096c0.102,0.062,0.205,0.127,0.309,0.192
							c0.101,0.066,0.2,0.136,0.302,0.206c0.051,0.034,0.102,0.068,0.151,0.102l0.146,0.111c0.098,0.073,0.195,0.148,0.293,0.224
							c0.095,0.077,0.189,0.157,0.284,0.236l0.143,0.116l0.064,0.058l0,0l0.073,0.067c0.092,0.083,0.183,0.167,0.275,0.25
							c0.354,0.345,0.705,0.7,1.031,1.095l0.123,0.146l0.061,0.073l0.06,0.076c0.077,0.103,0.155,0.204,0.233,0.307
							c0.078,0.102,0.147,0.212,0.224,0.317l0.111,0.162l0.104,0.165c0.068,0.112,0.141,0.221,0.206,0.336
							c0.064,0.117,0.127,0.233,0.193,0.349c0.122,0.237,0.244,0.477,0.346,0.728c0.213,0.497,0.381,1.022,0.501,1.566
							c0.022,0.096,0.055,0.189,0.055,0.284l0,0c0.128,0.456,0.135,0.922,0.143,1.39c0.023,1.135-0.182,2.279-0.566,3.353
							c-0.385,1.076-0.938,2.086-1.588,3.023c-0.651,0.939-1.407,1.808-2.226,2.614c-0.819,0.808-1.709,1.552-2.651,2.24
							c-0.943,0.688-1.939,1.321-2.983,1.891c-1.046,0.567-2.143,1.077-3.295,1.498c-0.575,0.211-1.172,0.4-1.776,0.555
							c-0.147,0.039-0.294,0.075-0.445,0.112c-0.145,0.037-0.295,0.072-0.445,0.105c-0.301,0.069-0.603,0.132-0.905,0.19
							c-1.21,0.232-2.441,0.384-3.685,0.468c-2.486,0.164-5.025,0.056-7.56-0.391c-1.266-0.223-2.515-0.531-3.729-0.938
							c-1.218-0.406-2.4-0.911-3.521-1.53c-1.122-0.619-2.18-1.355-3.131-2.215c-0.951-0.855-1.792-1.835-2.475-2.904
							c-0.089-0.132-0.166-0.269-0.249-0.403c-0.084-0.135-0.157-0.275-0.234-0.412c-0.05-0.084-0.183-0.172-0.229-0.259
							c-0.019-0.038-0.145-0.076-0.145-0.115l0,0c0-0.014,0.072-0.03,0.065-0.044c-0.035-0.07-0.027-0.139-0.062-0.212l-0.079-0.218
							l-0.089-0.218l-0.084-0.225l-0.085-0.222c-0.029-0.074-0.053-0.148-0.08-0.221c-0.052-0.145-0.104-0.293-0.148-0.442
							c-0.047-0.149-0.096-0.298-0.135-0.448c-0.228-0.795-0.376-1.608-0.446-2.425c-0.037-0.414-0.138-0.827-0.131-1.238
							c0.001-0.046-0.082-0.093-0.082-0.14c0,0,0,0,0-0.001c0-1.175,0.305-2.327,0.625-3.414c0.33-1.134,0.835-2.201,1.38-3.195
							c0.544-0.992,1.191-1.91,1.863-2.766c0.672-0.854,1.42-1.604,2.17-2.339c0.316-0.312,0.602-0.861,0.984-0.861h0.003
							c0.384,0,0.778-0.721,1.183-1.039c0.055-0.045,0.101-0.105,0.153-0.147c0.795-0.624,1.603-1.207,2.425-1.734
							c0.41-0.264,0.821-0.518,1.236-0.758c0.414-0.237,0.834-0.471,1.247-0.685c0.205-0.105,0.413-0.21,0.62-0.314
							c0.207-0.103,0.409-0.21,0.62-0.307c0.209-0.098,0.417-0.194,0.623-0.29c0.209-0.092,0.419-0.181,0.627-0.269
							c0.103-0.046,0.207-0.089,0.309-0.133c0.105-0.041,0.209-0.082,0.316-0.122c0.208-0.08,0.413-0.163,0.622-0.24
							c0.417-0.146,0.828-0.296,1.244-0.419c0.103-0.033,0.207-0.065,0.309-0.098l0.153-0.049l0.156-0.043
							c0.207-0.058,0.41-0.113,0.614-0.17s0.41-0.103,0.611-0.152c0.103-0.025,0.203-0.05,0.304-0.073
							c0.102-0.025,0.204-0.044,0.305-0.065c0.201-0.042,0.403-0.084,0.603-0.126c0.201-0.035,0.4-0.07,0.6-0.104
							c0.099-0.018,0.196-0.035,0.295-0.053c0.1-0.013,0.199-0.026,0.298-0.04c0.196-0.029,0.391-0.056,0.585-0.084
							c0.195-0.021,0.388-0.043,0.58-0.064c0.097-0.01,0.19-0.02,0.287-0.031c0.095-0.007,0.192-0.014,0.287-0.021
							c0.189-0.015,0.379-0.029,0.565-0.045c0.188-0.009,0.374,0.008,0.56-0.001c0.317-0.015,0.634-0.003,0.944-0.003l0,0
							c1.131,0,2.207,0.017,3.22,0.11c0.372,0.033,0.733,0.061,1.089,0.104c0.88,0.108,1.708,0.239,2.483,0.389
							c1.087,0.209,2.069,0.44,2.946,0.673c1.752,0.469,3.085,0.917,3.985,1.23c0.449,0.153,0.791,0.279,1.019,0.363
							c0.216,0.079,0.332,0.121,0.345,0.126c-0.013-0.004-0.133-0.037-0.353-0.102c-0.234-0.065-0.584-0.168-1.041-0.292
							c-0.917-0.248-2.275-0.605-4.04-0.963c-0.883-0.175-1.869-0.346-2.951-0.489c-0.472-0.062-0.959-0.119-1.466-0.167
							c-0.659-0.062-1.349-0.11-2.065-0.135c-0.574-0.023-1.166-0.03-1.773-0.019c-0.736,0.012-1.497,0.051-2.277,0.128
							c-0.176,0.018-0.355,0.036-0.537,0.053c-0.18,0.023-0.358,0.048-0.542,0.07c-0.09,0.013-0.183,0.022-0.275,0.033
							c-0.091,0.017-0.183,0.03-0.275,0.045c-0.183,0.03-0.367,0.06-0.553,0.089c-0.185,0.035-0.37,0.071-0.56,0.106
							c-0.093,0.019-0.188,0.036-0.28,0.054c-0.095,0.021-0.189,0.042-0.282,0.064c-0.189,0.043-0.378,0.085-0.568,0.127
							c-0.189,0.049-0.379,0.099-0.57,0.148c-0.095,0.025-0.19,0.047-0.288,0.075c-0.094,0.027-0.19,0.055-0.287,0.084
							c-0.188,0.056-0.385,0.107-0.576,0.17c-0.191,0.064-0.385,0.129-0.578,0.191l-0.146,0.047l-0.144,0.052
							c-0.096,0.035-0.193,0.07-0.291,0.107c-0.39,0.134-0.775,0.295-1.166,0.451c-0.193,0.08-0.387,0.168-0.582,0.253
							c-0.097,0.043-0.194,0.087-0.293,0.128c-0.096,0.047-0.193,0.093-0.291,0.139c-0.782,0.359-1.549,0.784-2.336,1.228
							c-0.781,0.441-1.549,0.924-2.308,1.453c-0.759,0.527-1.508,1.098-2.235,1.712c-0.098,0.082-0.193,0.166-0.29,0.247
							c0,0.002-0.002,0.003-0.002,0.004c-0.478,0.413-0.949,0.849-1.404,1.303c-0.141,0.14-0.28,0.279-0.416,0.424
							c-0.677,0.702-1.321,1.454-1.914,2.252c-0.589,0.797-1.131,1.645-1.591,2.54c-0.458,0.892-0.836,1.831-1.095,2.806
							c-0.26,0.973-0.398,1.979-0.391,2.991c0.006,1.015,0.162,2.032,0.464,3.023c0.033,0.123,0.078,0.245,0.12,0.369
							c0.039,0.124,0.086,0.246,0.133,0.369c0.022,0.058,0.044,0.121,0.067,0.181l0.074,0.177l0.074,0.178l0.082,0.171l0.082,0.172
							c0.029,0.058,0.062,0.118,0.092,0.175c0.062,0.116,0.122,0.233,0.189,0.347c0.064,0.113,0.128,0.229,0.201,0.34
							c0.069,0.111,0.135,0.226,0.213,0.334c0.578,0.881,1.288,1.689,2.103,2.406c0.812,0.719,1.728,1.344,2.712,1.876
							c1.969,1.07,4.202,1.774,6.522,2.185c2.323,0.409,4.684,0.523,6.99,0.388c1.151-0.069,2.291-0.201,3.403-0.402
							c0.278-0.051,0.555-0.104,0.831-0.163c0.135-0.03,0.271-0.061,0.41-0.094c0.138-0.031,0.274-0.064,0.411-0.098
							c0.533-0.13,1.054-0.286,1.572-0.467c1.036-0.363,2.044-0.811,3.01-1.314c0.968-0.505,1.895-1.071,2.771-1.683
							c0.877-0.613,1.701-1.275,2.458-1.986c0.755-0.709,1.445-1.467,2.035-2.266c0.587-0.803,1.073-1.648,1.418-2.524
							c0.341-0.873,0.534-1.774,0.547-2.665c0.006-0.443-0.027-0.887-0.111-1.318c-0.08-0.433-0.204-0.857-0.362-1.267
							c-0.075-0.206-0.17-0.404-0.262-0.604c-0.051-0.1-0.101-0.197-0.151-0.295c-0.049-0.098-0.108-0.193-0.161-0.288l-0.083-0.144
							l-0.088-0.141c-0.062-0.092-0.118-0.187-0.183-0.277c-0.063-0.09-0.128-0.181-0.192-0.272l-0.045-0.067l-0.053-0.065
							l-0.101-0.13c-0.266-0.349-0.567-0.675-0.867-0.993c-0.079-0.076-0.156-0.154-0.233-0.23l-0.116-0.115l-0.121-0.107
							c-0.08-0.073-0.161-0.145-0.239-0.217c-0.084-0.067-0.167-0.135-0.248-0.204l-0.125-0.101
							c-0.04-0.033-0.085-0.063-0.126-0.095l-0.255-0.191c-0.086-0.059-0.174-0.117-0.259-0.176l-0.132-0.087l-0.135-0.081
							c-0.088-0.053-0.178-0.107-0.267-0.161c-0.09-0.05-0.182-0.099-0.272-0.148c-0.091-0.051-0.183-0.093-0.275-0.139
							c-0.094-0.042-0.184-0.09-0.279-0.13c-0.095-0.039-0.186-0.078-0.28-0.117c-0.047-0.021-0.095-0.039-0.142-0.056l-0.143-0.052
							c-0.187-0.073-0.382-0.126-0.574-0.188c-0.095-0.026-0.193-0.051-0.288-0.076l-0.146-0.036l-0.147-0.031
							c-0.099-0.02-0.195-0.041-0.292-0.059c-0.099-0.016-0.195-0.03-0.293-0.048c-0.097-0.018-0.196-0.025-0.294-0.038
							c-0.098-0.009-0.194-0.024-0.293-0.03c-0.195-0.016-0.391-0.029-0.585-0.032c-0.194-0.008-0.39-0.003-0.582,0
							c-0.096,0-0.193,0.008-0.289,0.014c-0.096,0.004-0.192,0.006-0.287,0.019c-0.767,0.062-1.514,0.191-2.231,0.379
							c-0.718,0.185-1.41,0.414-2.068,0.676c-1.32,0.524-2.519,1.162-3.599,1.819c-1.079,0.663-2.046,1.348-2.908,2.015
							c-0.431,0.335-0.837,0.665-1.218,0.986c-0.379,0.323-0.738,0.635-1.068,0.938c-1.073,0.979-1.901,1.838-2.509,2.508
							c-0.146,0.161-0.28,0.31-0.4,0.448c-0.159,0.177-0.293,0.337-0.409,0.476c-0.118,0.138-0.214,0.253-0.291,0.348
							c-0.05,0.06-0.146,0.155-0.258,0.258L428.258,529.738z"/>
					</g>
					<g>
						<path d="M457.416,527.524c0,0.184-0.011,0.366-0.021,0.548c-0.017,0.183-0.03,0.364-0.056,0.545
							c-0.02,0.181-0.052,0.359-0.081,0.536c-0.038,0.179-0.071,0.354-0.116,0.529c-0.167,0.698-0.417,1.363-0.718,1.983
							c-0.608,1.245-1.431,2.298-2.286,3.188c-0.862,0.894-1.763,1.636-2.619,2.278c-0.857,0.641-1.67,1.182-2.4,1.648
							c-0.731,0.464-1.374,0.854-1.908,1.171c-0.532,0.317-0.952,0.563-1.239,0.731c-0.269,0.157-0.419,0.245-0.436,0.255
							c0.017-0.011,0.164-0.106,0.423-0.278c0.276-0.182,0.683-0.449,1.198-0.795c0.513-0.346,1.138-0.768,1.838-1.269
							c0.699-0.5,1.48-1.082,2.29-1.758c0.81-0.678,1.654-1.453,2.438-2.36c0.783-0.904,1.507-1.946,2.007-3.127
							c0.249-0.59,0.442-1.21,0.562-1.852c0.031-0.161,0.053-0.32,0.078-0.484c0.018-0.161,0.039-0.325,0.049-0.489
							c0.015-0.164,0.017-0.329,0.023-0.494c0-0.165,0.002-0.33-0.007-0.497c-0.002-0.165-0.017-0.332-0.029-0.498
							c-0.019-0.166-0.031-0.334-0.058-0.499c-0.043-0.333-0.108-0.662-0.187-0.993l-0.056-0.245
							c-0.021-0.084-0.047-0.164-0.069-0.246c-0.042-0.165-0.095-0.326-0.145-0.488c-0.107-0.324-0.218-0.646-0.35-0.957
							c-0.069-0.155-0.132-0.311-0.203-0.465l-0.222-0.459c-0.159-0.304-0.316-0.605-0.494-0.899
							c-0.168-0.299-0.356-0.586-0.537-0.875c-0.106-0.158-0.209-0.316-0.317-0.475l0,0c-0.085-0.125-0.173-0.251-0.263-0.373
							c-0.787-1.116-1.652-2.159-2.529-3.134c-0.875-0.975-1.773-1.875-2.648-2.705c-0.878-0.827-1.736-1.581-2.548-2.255
							c-1.458-1.205-2.763-2.151-3.764-2.815c-0.115-0.076-0.227-0.148-0.333-0.219c-0.428-0.278-0.788-0.498-1.065-0.661
							c1.131-0.012,2.207,0.041,3.22,0.135c0.372,0.035,0.733,0.073,1.089,0.117c0.299,0.245,0.607,0.505,0.928,0.781
							c0.407,0.352,0.83,0.728,1.267,1.129c0.806,0.742,1.653,1.57,2.516,2.475c0.86,0.906,1.739,1.886,2.596,2.947
							c0.855,1.06,1.699,2.19,2.466,3.408c0.196,0.301,0.376,0.614,0.561,0.925c0.177,0.317,0.358,0.633,0.522,0.96
							c0.334,0.652,0.642,1.322,0.888,2.029c0.128,0.352,0.23,0.708,0.326,1.064c0.045,0.178,0.092,0.358,0.131,0.539
							c0.018,0.091,0.04,0.18,0.058,0.272l0.046,0.271c0.06,0.342,0.135,0.687,0.135,1.032l0,0c0,0.022,0.008,0.045,0.011,0.066
							c0.018,0.184,0.025,0.369,0.037,0.552C457.414,527.157,457.424,527.34,457.416,527.524z"/>
					</g>
					<g>
						<path d="M429.682,528.301c-0.146,0.161-0.28,0.31-0.4,0.448c-0.159,0.177-0.293,0.337-0.409,0.476
							c-0.118,0.138-0.214,0.253-0.291,0.348c-0.05,0.06-0.146,0.155-0.258,0.258c-0.022-0.029-0.043-0.061-0.065-0.092
							c-0.035-0.051-0.069-0.102-0.107-0.154c-0.127-0.185-0.253-0.37-0.385-0.561c-0.502-0.763-0.991-1.579-1.469-2.428
							c-0.236-0.422-0.475-0.856-0.709-1.29c-0.119-0.216-0.237-0.433-0.357-0.653c-0.06-0.111-0.117-0.221-0.178-0.332
							l-0.045-0.084c-0.018-0.029-0.034-0.06-0.05-0.096l-0.031-0.068l-0.079-0.172c-0.211-0.458-0.414-0.913-0.611-1.362
							c-0.203-0.449-0.408-0.891-0.601-1.328c-0.192-0.438-0.391-0.864-0.577-1.284c-0.191-0.421-0.367-0.836-0.55-1.238
							c-0.148-0.332-0.291-0.656-0.43-0.977c-0.03-0.069-0.062-0.14-0.091-0.208c-0.166-0.387-0.314-0.761-0.472-1.122
							c-0.065-0.153-0.176-0.303-0.176-0.451v-0.001c0.383-0.349,0.777-0.685,1.181-1.005c0.147,0.218,0.29,0.442,0.442,0.675
							c0.172,0.262,0.345,0.529,0.523,0.81c0.048,0.073,0.093,0.148,0.142,0.225c0.225,0.358,0.453,0.729,0.688,1.112
							c0.236,0.381,0.462,0.78,0.696,1.186c0.233,0.408,0.471,0.823,0.696,1.259c0.228,0.433,0.461,0.874,0.685,1.327
							c0.222,0.456,0.439,0.921,0.657,1.395l0.081,0.627l0.045,0.461H427v-0.785c0,0.001,0.07-0.056,0.07-0.055l0.037-0.021
							c0.002,0.005,0.021-0.01,0.021-0.012l0.042,0.061c0.062,0.113,0.124,0.225,0.184,0.34c0.118,0.227,0.239,0.452,0.349,0.678
							c0.225,0.449,0.438,0.891,0.645,1.326c0.413,0.868,0.805,1.694,1.183,2.474c0.025,0.051,0.053,0.102,0.078,0.153
							C429.635,528.207,429.658,528.254,429.682,528.301z"/>
					</g>
					<g>
						<g>
							<g>
								<path d="M429.93,505.55c0,0-0.853-1.569-2.146-4.136c-1.251-2.594-3.223-6.001-5.397-9.814
									c-2.174-3.809-3.957-7.404-4.985-10.111c-0.56-1.333-0.885-2.463-1.126-3.232c-0.234-0.771-0.364-1.197-0.364-1.197
									s0.193,0.403,0.541,1.131c0.346,0.727,0.808,1.79,1.499,3.05c1.293,2.559,3.31,5.953,5.487,9.767
									c2.174,3.811,3.921,7.44,4.895,10.154C429.353,503.861,429.93,505.55,429.93,505.55z"/>
							</g>
						</g>
					</g>
					<g>
						<g>
							<g>
								<path d="M424.052,508.943c0,0-0.208-0.446-0.584-1.251c-0.373-0.805-0.871-1.979-1.637-3.365
									c-0.712-1.407-1.633-3.055-2.604-4.913c-0.472-0.942-0.967-1.931-1.48-2.955c-0.472-1.037-0.961-2.111-1.461-3.211
									c-0.486-1.106-0.96-2.186-1.418-3.229c-0.485-1.023-0.952-2.011-1.398-2.952c-0.897-1.892-1.58-3.628-2.454-4.946
									c-0.826-1.358-1.396-2.562-1.569-3.451c-0.039-0.224-0.088-0.417-0.102-0.589c0.002-0.173,0.004-0.319,0.005-0.438
									c0.004-0.233,0.006-0.357,0.006-0.357s0.016,0.122,0.046,0.354c0.015,0.114,0.032,0.256,0.054,0.423
									c0.037,0.164,0.11,0.348,0.174,0.555c0.277,0.831,0.947,1.903,1.892,3.169c1.009,1.248,1.862,2.977,2.859,4.819
									c0.491,0.935,1.006,1.914,1.539,2.93c0.475,1.038,0.965,2.112,1.467,3.213c0.485,1.107,0.959,2.19,1.416,3.234
									c0.465,1.034,0.914,2.032,1.342,2.982c0.869,1.905,1.656,3.623,2.238,5.109c0.633,1.46,0.997,2.704,1.265,3.552
									C423.907,508.474,424.052,508.943,424.052,508.943z"/>
							</g>
						</g>
					</g>
					<g>
						<g>
							<g>
								<path d="M416.814,502.951c0,0,0.766,0.359,2.168,0.954c0.703,0.291,1.571,0.632,2.605,0.903
									c1.024,0.257,2.26,0.479,3.512,0.16c0.319-0.054,0.609-0.209,0.918-0.327c0.276-0.183,0.588-0.322,0.833-0.573
									c0.541-0.43,0.978-1.041,1.277-1.69c0.588-1.325,0.361-3.089-0.737-4.273c-1.116-1.175-2.919-1.695-4.812-1.978
									c-1.947-0.312-3.953-0.652-6.017-1.234c-2.017-0.606-4.125-1.471-5.434-3.289c-0.645-0.913-0.943-1.967-0.986-3.017
									c-0.045-1.064,0.334-2.141,0.984-2.912c1.333-1.554,3.18-2.104,4.802-2.358c0.827-0.111,1.643-0.118,2.407-0.024
									c0.379,0.055,0.751,0.109,1.114,0.162c0.36,0.07,0.703,0.19,1.041,0.279c0.343,0.081,0.661,0.206,0.963,0.351
									c0.303,0.141,0.608,0.254,0.883,0.405c0.527,0.348,1.066,0.606,1.469,0.994c0.211,0.178,0.415,0.35,0.61,0.515
									c0.191,0.169,0.342,0.368,0.504,0.538c0.32,0.346,0.602,0.669,0.801,1.002c0.21,0.322,0.417,0.595,0.557,0.854
									c0.132,0.265,0.242,0.488,0.332,0.669c0.178,0.36,0.271,0.55,0.271,0.55s-0.109-0.181-0.317-0.525
									c-0.102-0.171-0.229-0.384-0.381-0.635c-0.157-0.245-0.384-0.499-0.612-0.8c-0.946-1.138-2.628-2.73-5.241-3.336
									c-0.325-0.067-0.651-0.163-0.993-0.211c-0.346-0.032-0.698-0.065-1.059-0.099c-0.717-0.052-1.462-0.01-2.22,0.126
									c-1.484,0.287-3.133,0.908-4.134,2.178c-0.488,0.628-0.736,1.411-0.686,2.235c0.054,0.824,0.319,1.704,0.832,2.388
									c1.039,1.421,2.913,2.236,4.833,2.801c1.943,0.55,3.952,0.915,5.874,1.255c1.934,0.332,4.004,0.912,5.375,2.439
									c1.338,1.534,1.512,3.725,0.728,5.295c-0.403,0.781-0.934,1.436-1.581,1.907c-0.297,0.269-0.669,0.424-0.999,0.611
									c-0.362,0.123-0.707,0.275-1.069,0.319c-1.436,0.275-2.712-0.054-3.749-0.383c-1.044-0.349-1.894-0.755-2.576-1.099
									C417.543,503.376,416.814,502.951,416.814,502.951z"/>
							</g>
						</g>
					</g>
					<g>
						<g>
							<g>
								<path d="M412.972,430.365c0,0-1.719,0.345-4.484,0.899c-2.734,0.576-6.444,1.451-10.235,2.908
									c-1.882,0.757-3.578,1.625-5.038,2.566c-0.701,0.503-1.396,0.965-1.953,1.504c-0.621,0.484-1.084,1.042-1.548,1.534
									c-0.117,0.124-0.231,0.244-0.342,0.362c-0.094,0.13-0.186,0.257-0.274,0.38c-0.183,0.249-0.355,0.483-0.516,0.702
									c-0.354,0.43-0.564,0.852-0.761,1.191c-0.404,0.687-0.627,1.067-0.627,1.067s0.075-0.438,0.21-1.226
									c0.076-0.398,0.149-0.898,0.368-1.433c0.1-0.275,0.206-0.568,0.319-0.88c0.059-0.156,0.119-0.317,0.181-0.482
									c0.083-0.154,0.168-0.313,0.256-0.476c0.354-0.648,0.731-1.389,1.299-2.062c0.508-0.732,1.182-1.39,1.906-2.081
									c1.495-1.309,3.372-2.481,5.473-3.323c4.241-1.625,8.314-1.801,11.166-1.675c1.434,0.058,2.585,0.196,3.376,0.318
									C412.535,430.292,412.972,430.365,412.972,430.365z"/>
							</g>
						</g>
					</g>
					<g>
						<g>
							<g>
								<path d="M368.199,411.824c0,0,0.078,0.482,0.218,1.354c0.071,0.44,0.147,0.982,0.162,1.612
									c0.02,0.63,0.089,1.361,0.027,2.156c-0.038,1.605-0.3,3.51-0.794,5.574c-0.52,2.054-1.28,4.258-2.272,6.46
									c-2.017,4.391-4.356,7.996-5.982,10.645c-1.644,2.656-2.665,4.307-2.665,4.307s0.11-0.477,0.31-1.335
									c0.201-0.862,0.561-2.088,1.065-3.581c1-2.993,2.726-6.97,4.672-11.21c0.958-2.128,1.836-4.146,2.577-6.008
									c0.712-1.867,1.298-3.579,1.679-5.059c0.233-0.734,0.339-1.416,0.484-2.015c0.151-0.599,0.231-1.122,0.293-1.553
									C368.118,412.305,368.199,411.824,368.199,411.824z"/>
							</g>
						</g>
					</g>
					<g>
						<g>
							<g>
								<path d="M420.999,531.725c0,0-0.055-0.203-0.055-0.453s0.055-0.452,0.055-0.452s0.055,0.202,0.055,0.452
									S420.999,531.725,420.999,531.725z"/>
							</g>
						</g>
					</g>
					<g>
						<g>
							<g>
								<path d="M421.679,534.438c0.011-0.008-0.182,0.051-0.351-0.102c-0.154-0.169-0.096-0.361-0.104-0.351
									c0.009,0.004,0.064,0.149,0.181,0.272C421.529,534.375,421.675,534.429,421.679,534.438z"/>
							</g>
						</g>
					</g>
					<g>
						<g>
							<g>
								<path d="M425.295,536.699c-0.016,0.011,0.305,0.197,0.519,0.591c0.093,0.196,0.168,0.39,0.158,0.536
									c0,0.121,0.001,0.23,0.001,0.23s-0.054-0.35-0.256-0.715C425.519,536.974,425.281,536.71,425.295,536.699z"/>
							</g>
						</g>
					</g>
					<g>
						<g>
							<g>
								<path d="M422.13,532.856c0,0,0.343,0.265,0.717,0.639c0.374,0.375,0.639,0.717,0.639,0.717s-0.342-0.265-0.717-0.639
									C422.395,533.197,422.13,532.856,422.13,532.856z"/>
							</g>
						</g>
					</g>
					<g>
						<g>
							<path fill="none" stroke="#000000" stroke-width="0.0565" stroke-miterlimit="10" d="M418.286,529.915"/>
						</g>
					</g>
					<g>
						<g>
							<g>
								<path d="M421.452,532.402c0,0-0.544-0.291-1.135-0.774c-0.586-0.495-0.902-1.035-0.902-1.035s0.399,0.467,0.974,0.951
									C420.858,531.923,421.452,532.402,421.452,532.402z"/>
							</g>
						</g>
					</g>
					<g>
						<g>
							<g>
								<path d="M423.713,534.211c0,0-0.123-0.031-0.263-0.067c-0.164-0.037-0.38-0.124-0.612-0.238
									c-0.22-0.135-0.413-0.269-0.523-0.399c-0.098-0.104-0.185-0.198-0.185-0.198s0.325,0.26,0.761,0.502
									c0.225,0.109,0.425,0.22,0.579,0.282C423.599,534.155,423.713,534.211,423.713,534.211z"/>
							</g>
						</g>
					</g>
					<g>
						<g>
							<path fill="none" stroke="#000000" stroke-width="0.0565" stroke-miterlimit="10" d="M424.617,534.211"/>
						</g>
					</g>
					<g>
						<g>
							<g>
								<path d="M423.938,532.177c0,0,0.202-0.055,0.452-0.055s0.453,0.055,0.453,0.055s-0.203,0.055-0.453,0.055
									S423.938,532.177,423.938,532.177z"/>
							</g>
						</g>
					</g>
					<g>
						<g>
							<g>
								<path d="M421.452,529.915c0,0,0.055,0.202,0.055,0.452s-0.055,0.452-0.055,0.452s-0.055-0.202-0.055-0.452
									S421.452,529.915,421.452,529.915z"/>
							</g>
						</g>
					</g>
					<g>
						<g>
							<path fill="none" stroke="#000000" stroke-width="0.0565" stroke-miterlimit="10" d="M420.772,528.784"/>
						</g>
					</g>
					<g>
						<g>
							<g>
								<path d="M421.679,529.464c0.027-0.005-0.506-0.06-0.734-0.616c-0.192-0.553,0.074-0.977,0.055-0.967
									c0,0-0.018,0.131-0.038,0.279c-0.005,0.171-0.007,0.409,0.085,0.647c0.095,0.237,0.258,0.407,0.393,0.512
									C421.566,529.396,421.679,529.464,421.679,529.464z"/>
							</g>
						</g>
					</g>
					<g>
						<g>
							<g>
								<path d="M425.069,532.856c0,0-0.209-0.096-0.481-0.222c-0.317-0.109-0.663-0.413-1.057-0.729
									c-0.316-0.394-0.62-0.738-0.729-1.057c-0.126-0.273-0.222-0.482-0.222-0.482s0.117,0.197,0.27,0.455
									c0.132,0.302,0.452,0.621,0.76,1.005c0.384,0.308,0.703,0.627,1.005,0.76C424.872,532.738,425.069,532.856,425.069,532.856z
									"/>
							</g>
						</g>
					</g>
					<g>
						<g>
							<g>
								<path d="M426.426,534.889c0.021-0.025-0.55,0.006-1.013-0.482c-0.413-0.573-0.078-1.122-0.118-1.099
									c0.031-0.017-0.165,0.548,0.203,1.029C425.9,534.774,426.444,534.867,426.426,534.889z"/>
							</g>
						</g>
					</g>
					<g>
						<g>
							<g>
								<path d="M430.27,536.699c0,0-0.224,0.033-0.515,0.077c-0.32,0.079-0.768,0.02-1.262-0.023
									c-0.474-0.143-0.917-0.246-1.176-0.455c-0.249-0.158-0.44-0.279-0.44-0.279s0.202,0.101,0.466,0.232
									c0.268,0.182,0.709,0.254,1.17,0.396c0.482,0.04,0.917,0.126,1.236,0.075C430.045,536.709,430.27,536.699,430.27,536.699z"
									/>
							</g>
						</g>
					</g>
					<g>
						<g>
							<g>
								<path d="M432.757,537.604c0,0-0.125,0.194-0.414,0.433c-0.288,0.228-0.759,0.498-1.338,0.544
									c-0.576,0.064-1.11-0.16-1.351-0.453c-0.249-0.287-0.276-0.531-0.288-0.523c0.011-0.008,0.069,0.23,0.327,0.485
									c0.252,0.261,0.753,0.442,1.302,0.382c0.552-0.043,1.016-0.277,1.315-0.479
									C432.608,537.781,432.757,537.604,432.757,537.604z"/>
							</g>
						</g>
					</g>
					<g>
						<g>
							<g>
								<path d="M434.34,536.925c0,0-0.059,0.15-0.129,0.33c-0.097,0.186-0.254,0.495-0.609,0.604
									c-0.361,0.102-0.654-0.106-0.821-0.23c-0.136-0.136-0.25-0.251-0.25-0.251s0.129,0.095,0.282,0.207
									c0.181,0.101,0.46,0.258,0.759,0.169c0.299-0.087,0.475-0.354,0.592-0.525C434.259,537.063,434.34,536.925,434.34,536.925z"
									/>
							</g>
						</g>
					</g>
					<g>
						<g>
							<g>
								<path d="M428.461,534.664c0,0,0.226,0.071,0.571,0.237c0.339,0.182,0.771,0.493,1.218,0.863
									c0.454,0.358,0.876,0.671,1.235,0.794c0.352,0.122,0.597,0.128,0.594,0.141c0.004-0.013-0.24,0.011-0.611-0.089
									c-0.378-0.101-0.83-0.4-1.286-0.76c-0.449-0.372-0.855-0.698-1.177-0.902C428.678,534.763,428.461,534.664,428.461,534.664z
									"/>
							</g>
						</g>
					</g>
					<g>
						<g>
							<g>
								<path d="M426.879,534.664c0.011,0.011-0.06-0.101,0.028-0.197c0.099-0.097,0.204-0.023,0.196-0.029
									c0.001,0.003-0.081,0.054-0.12,0.107C426.938,534.585,426.887,534.664,426.879,534.664z"/>
							</g>
						</g>
					</g>
					<g>
						<g>
							<g>
								<path d="M430.043,536.247c0,0-0.205,0.194-0.618,0.384c-0.409,0.185-1.028,0.371-1.727,0.324
									c-0.347-0.027-0.679-0.11-0.941-0.271c-0.257-0.168-0.433-0.398-0.504-0.617c-0.135-0.442-0.031-0.727-0.054-0.725
									c0.022-0.004-0.05,0.291,0.105,0.705c0.081,0.205,0.255,0.408,0.5,0.558c0.251,0.143,0.567,0.215,0.901,0.241
									c0.674,0.046,1.285-0.107,1.698-0.266C429.82,536.42,430.043,536.247,430.043,536.247z"/>
							</g>
						</g>
					</g>
					<g>
						<g>
							<g>
								<path d="M426.426,538.733c0,0,0.159,0.24,0.379,0.572c0.103,0.184,0.277,0.368,0.456,0.58
									c0.089,0.106,0.181,0.214,0.275,0.325c-0.017,0.069,0.055-0.128,0.118-0.275c0.238-0.606,0.501-1.131,0.707-1.502
									c0.19-0.351,0.327-0.604,0.327-0.604s-0.116,0.264-0.277,0.628c-0.183,0.383-0.419,0.917-0.653,1.517l-0.093,0.22
									l-0.066,0.159c-0.022,0.132-0.082-0.021-0.125-0.054c-0.097-0.121-0.19-0.239-0.283-0.354
									c-0.174-0.223-0.339-0.416-0.432-0.61C426.565,538.985,426.426,538.733,426.426,538.733z"/>
							</g>
						</g>
					</g>
					<g>
						<g>
							<g>
								<path d="M423.713,535.794c0,0,0.073,0.282,0.091,0.35c0.047,0.18,0.146,0.32,0.135,0.329
									c0.016-0.006-0.177-0.076-0.24-0.298C423.645,535.959,423.713,535.794,423.713,535.794z"/>
							</g>
						</g>
					</g>
					<g>
						<g>
							<g>
								<path d="M421.452,533.308c0,0-0.179,0.15-0.429,0.274c-0.251,0.125-0.478,0.177-0.478,0.177s0.179-0.15,0.429-0.274
									C421.225,533.359,421.452,533.308,421.452,533.308z"/>
							</g>
						</g>
					</g>
					<g>
						<g>
							<g>
								<path d="M424.165,535.342c0.009-0.027-0.612,0.099-1.304-0.218c-0.147-0.099-0.288-0.194-0.436-0.293
									c-0.121-0.104-0.201-0.228-0.281-0.317c-0.133-0.167-0.241-0.304-0.241-0.304s0.127,0.12,0.281,0.266
									c0.088,0.079,0.177,0.191,0.301,0.283c0.143,0.09,0.282,0.177,0.426,0.267C423.557,535.325,424.171,535.316,424.165,535.342
									z"/>
							</g>
						</g>
					</g>
					<g>
						<g>
							<g>
								<path d="M429.139,536.699c0,0-0.288,0.01-0.686,0.022c-0.424,0.009-1.013-0.003-1.657-0.095
									c-0.646-0.091-1.205-0.299-1.589-0.479c-0.375-0.204-0.59-0.354-0.59-0.354s0.231,0.127,0.612,0.303
									c0.392,0.155,0.946,0.332,1.583,0.422c0.636,0.09,1.219,0.13,1.642,0.148C428.852,536.685,429.139,536.699,429.139,536.699z
									"/>
							</g>
						</g>
					</g>
					<g>
						<g>
							<g>
								<path d="M432.53,532.177c0,0-0.029,0.271-0.137,0.699c-0.116,0.426-0.364,0.992-0.736,1.556
									c-0.381,0.558-0.794,1.008-1.102,1.322c-0.299,0.287-0.513,0.493-0.513,0.493s0.197-0.222,0.473-0.531
									c0.286-0.331,0.675-0.795,1.051-1.345c0.366-0.557,0.633-1.098,0.774-1.512C432.474,532.445,432.53,532.177,432.53,532.177z
									"/>
							</g>
						</g>
					</g>
					<g>
						<g>
							<g>
								<path d="M436.601,527.429c0,0-0.176,0.253-0.506,0.629c-0.346,0.362-0.888,0.8-1.535,1.202
									c-0.648,0.398-1.23,0.759-1.63,1.053c-0.367,0.298-0.624,0.507-0.624,0.507s0.214-0.222,0.59-0.551
									c0.387-0.317,0.96-0.705,1.606-1.103c0.644-0.4,1.193-0.808,1.555-1.147C436.401,527.666,436.601,527.429,436.601,527.429z"
									/>
							</g>
						</g>
					</g>
					<g>
						<g>
							<g>
								<path d="M440.445,529.464c0,0-0.248-0.727-0.445-1.306c-0.17-0.336-0.291-0.66-0.457-0.848
									c-0.127-0.185-0.23-0.335-0.23-0.335s0.122,0.136,0.272,0.302c0.191,0.175,0.342,0.494,0.516,0.841
									C440.366,528.846,440.445,529.464,440.445,529.464z"/>
							</g>
						</g>
					</g>
					<g>
						<g>
							<g>
								<path d="M434.113,533.08c0,0,0.319-0.159,0.781-0.389c0.483-0.238,1.146-0.584,1.923-0.87
									c0.782-0.283,1.537-0.367,2.077-0.379c0.541,0.022,0.872,0.057,0.872,0.057s-0.355-0.001-0.871-0.002
									c-0.535,0.039-1.269,0.148-2.041,0.428c-0.768,0.283-1.441,0.604-1.936,0.816
									C434.441,532.941,434.113,533.08,434.113,533.08z"/>
							</g>
						</g>
					</g>
					<g>
						<g>
							<path fill="none" stroke="#000000" stroke-width="0.0565" stroke-miterlimit="10" d="M431.4,534.211"/>
						</g>
					</g>
					<g>
						<g>
							<g>
								<path d="M434.34,533.533c0,0-0.237,0.01-0.549,0.021c-0.339,0.007-0.812-0.004-1.326-0.109
									c-0.513-0.12-0.938-0.363-1.184-0.604c-0.229-0.255-0.334-0.439-0.334-0.439s0.13,0.171,0.371,0.398
									c0.258,0.215,0.673,0.421,1.171,0.539c0.5,0.102,0.966,0.141,1.303,0.161C434.103,533.519,434.34,533.533,434.34,533.533z"
									/>
							</g>
						</g>
					</g>
					<g>
						<g>
							<g>
								<path d="M433.209,532.856c-0.011-0.009,0.088-0.149,0.135-0.329c0.018-0.067,0.092-0.35,0.092-0.35s0.068,0.165,0.014,0.381
									C433.386,532.779,433.193,532.85,433.209,532.856z"/>
							</g>
						</g>
					</g>
					<g>
						<g>
							<g>
								<path d="M432.757,533.08c0,0,0.014,0.038,0.027,0.076l0.01,0.039l0.005,0.021l0.002,0.012l0,0l0,0h-0.088h-0.001v-0.001
									v-0.003l-0.001-0.006c-0.006-0.031-0.009-0.065-0.009-0.102c0-0.144,0.055-0.262,0.055-0.262s0.055,0.117,0.055,0.262
									c0,0.036-0.003,0.07-0.009,0.102l-0.001,0.006v0.003v0.001h-0.001h-0.088l0,0l0,0l0.002-0.012l0.005-0.021l0.01-0.039
									C432.743,533.118,432.757,533.08,432.757,533.08z"/>
							</g>
						</g>
					</g>
					<g>
						<g>
							<path fill="none" stroke="#000000" stroke-width="0.0565" stroke-miterlimit="10" d="M431.175,532.856"/>
						</g>
					</g>
					<g>
						<g>
							<path fill="none" stroke="#000000" stroke-width="0.0565" stroke-miterlimit="10" d="M430.722,532.629"/>
						</g>
					</g>
					<g>
						<g>
							<g>
								<path d="M430.043,541.898c0,0,0.052-0.225,0.149-0.487c0.097-0.276,0.303-0.417,0.303-0.417s-0.111,0.197-0.201,0.458
									C430.195,541.716,430.043,541.898,430.043,541.898z"/>
							</g>
						</g>
					</g>
					<g>
						<g>
							<g>
								<path d="M427.781,544.612c0.018-0.001-0.1-0.342,0.017-0.782c0.067-0.235,0.295-0.336,0.433-0.353
									c0.12,0.003,0.23,0.006,0.23,0.006c0.027,0.021-0.433-0.016-0.559,0.383C427.797,544.252,427.797,544.618,427.781,544.612z"
									/>
							</g>
						</g>
					</g>
					<g>
						<g>
							<g>
								<path d="M429.366,545.518c0.011-0.027-0.268,0.093-0.548-0.131c-0.224-0.28-0.104-0.559-0.131-0.548
									c0.022-0.007,0.034,0.263,0.208,0.47C429.103,545.483,429.373,545.496,429.366,545.518z"/>
							</g>
						</g>
					</g>
					<g>
						<g>
							<g>
								<path d="M428.008,546.648c0.007,0.008-0.067-0.098,0.029-0.197c0.097-0.088,0.209-0.018,0.197-0.028
									c0,0.008-0.079,0.06-0.119,0.105C428.061,546.567,428.011,546.649,428.008,546.648z"/>
							</g>
						</g>
					</g>
					<g>
						<g>
							<g>
								<path d="M430.722,548.683c0,0-0.055-0.253-0.055-0.565c0-0.313,0.055-0.566,0.055-0.566s0.055,0.253,0.055,0.566
									C430.776,548.43,430.722,548.683,430.722,548.683z"/>
							</g>
						</g>
					</g>
					<g>
						<g>
							<path fill="none" stroke="#000000" stroke-width="0.0565" stroke-miterlimit="10" d="M428.688,550.266"/>
						</g>
					</g>
					<g>
						<g>
							<g>
								<path d="M427.781,552.299c0,0,0.037-0.125,0.127-0.225c0.048-0.11,0.091-0.226,0.1-0.227
									c-0.009-0.009,0.061,0.135-0.004,0.28C427.901,552.247,427.781,552.299,427.781,552.299z"/>
							</g>
						</g>
					</g>
					<g>
						<g>
							<g>
								<path d="M427.103,553.657c0,0,0.215-0.049,0.464-0.088c0.249-0.038,0.43-0.143,0.44-0.137
									c0.001-0.016-0.138,0.198-0.42,0.244C427.317,553.719,427.103,553.657,427.103,553.657z"/>
							</g>
						</g>
					</g>
					<g>
						<g>
							<g>
								<path d="M421.679,531.725c0.018,0.009-0.405-0.183-0.468-0.629c-0.044-0.424,0.241-0.729,0.241-0.729
									s0.267,0.318,0.304,0.658C421.795,531.345,421.684,531.709,421.679,531.725z"/>
							</g>
						</g>
					</g>
					<g>
						<g>
							<path fill="none" stroke="#000000" stroke-width="0.2827" stroke-miterlimit="10" d="M425.295,532.629"/>
						</g>
					</g>
					<g>
						<g>
							<g>
								<path d="M423.26,534.438c0.014,0.004,0.048-0.296-0.033-0.265c-0.021,0.072,0.256,0.051,0.259,0.038
									c-0.013-0.024,0.282,0.146,0.125,0.355C423.392,534.747,423.237,534.424,423.26,534.438z"/>
							</g>
						</g>
					</g>
					<g>
						<g>
							<g>
								<path d="M421.903,531.725c0,0,0.274,0.102,0.274,0.227c0,0.124-0.274,0.226-0.274,0.226s-0.274-0.102-0.274-0.226
									C421.629,531.826,421.903,531.725,421.903,531.725z"/>
							</g>
						</g>
					</g>
					<g>
						<g>
							<g>
								<path d="M424.165,531.499c-0.002-0.015-0.089-0.297-0.076-0.392c0.032-0.108,0.302-0.288,0.302-0.288
									s0.294,0.156,0.225,0.442C424.518,531.568,424.141,531.499,424.165,531.499z"/>
							</g>
						</g>
					</g>
					<g>
						<g>
							<g>
								<path d="M425.973,535.567c0,0-0.471-0.095-0.817-0.458c-0.164-0.2-0.241-0.448-0.279-0.616
									c-0.037-0.172-0.032-0.282-0.032-0.282s0.119,0.052,0.268,0.141c0.152,0.09,0.312,0.217,0.455,0.395
									C425.895,535.09,425.973,535.567,425.973,535.567z"/>
							</g>
						</g>
					</g>
					<g>
						<g>
							<g>
								<path d="M427.329,538.057c0,0-0.355-0.017-0.566-0.301c-0.163-0.215-0.111-0.604-0.111-0.604s0.355,0.016,0.568,0.3
									C427.382,537.668,427.329,538.057,427.329,538.057z"/>
							</g>
						</g>
					</g>
					<g>
						<g>
							<g>
								<path d="M427.555,538.057c0,0,0.125,0.017,0.284,0.064c0.154,0.062,0.364,0.092,0.544,0.195
									c0.365,0.153,0.751,0.401,0.756,0.418c0.013-0.021-0.421,0.302-0.975,0.085C427.636,538.56,427.56,538.038,427.555,538.057z
									"/>
							</g>
						</g>
					</g>
					<g>
						<g>
							<g>
								<path d="M423.713,537.604c0,0,0.094-0.039,0.212-0.071c0.119-0.03,0.257-0.056,0.386-0.006
									c0.281,0.019,0.533,0.304,0.533,0.304s-0.271,0.268-0.629,0.236c-0.175-0.057-0.312-0.178-0.392-0.279
									C423.742,537.685,423.713,537.604,423.713,537.604z"/>
							</g>
						</g>
					</g>
					<g>
						<g>
							<g>
								<path d="M421.679,536.019c0,0,0.05-0.274,0.112-0.274s0.112,0.274,0.112,0.274s-0.05,0.274-0.112,0.274
									S421.679,536.019,421.679,536.019z"/>
							</g>
						</g>
					</g>
					<g>
						<g>
							<g>
								<path d="M420.545,534.664c0,0-0.274,0.266-0.555,0.296c-0.13,0.024-0.27-0.031-0.364-0.041
									c-0.108-0.016-0.211-0.03-0.211-0.03s0.002-0.082,0.081-0.212c0.078-0.138,0.246-0.231,0.429-0.262
									C420.292,534.377,420.545,534.664,420.545,534.664z"/>
							</g>
						</g>
					</g>
					<g>
						<g>
							<g>
								<path d="M422.355,534.664c0,0-0.107,0.015-0.275-0.01c-0.178-0.014-0.381-0.117-0.568-0.277
									c-0.16-0.188-0.263-0.392-0.277-0.568c-0.024-0.169-0.01-0.275-0.01-0.275s0.11,0.048,0.241,0.127
									c0.12,0.088,0.307,0.174,0.435,0.329c0.154,0.128,0.24,0.313,0.327,0.434C422.308,534.554,422.355,534.664,422.355,534.664z
									"/>
							</g>
						</g>
					</g>
					<g>
						<g>
							<g>
								<path d="M425.747,537.377c-0.013,0.011-0.43-0.062-0.747-0.229c-0.296-0.172-0.592-0.439-0.609-0.449
									c-0.025,0.01,0.405-0.281,0.871-0.033C425.705,536.911,425.737,537.396,425.747,537.377z"/>
							</g>
						</g>
					</g>
					<g>
						<g>
							<path fill="none" stroke="#000000" stroke-width="0.2827" stroke-miterlimit="10" d="M428.461,538.959"/>
						</g>
					</g>
					<g>
						<g>
							<g>
								<path d="M431.175,535.567c0,0,0.319-0.226,0.744-0.153c0.323,0.053,0.611,0.38,0.611,0.38s-0.319,0.226-0.744,0.153
									C431.463,535.894,431.175,535.567,431.175,535.567z"/>
							</g>
						</g>
					</g>
					<g>
						<g>
							<g>
								<path d="M432.306,533.984c0,0-0.18,0.27-0.288,0.302c-0.094,0.013-0.376-0.073-0.391-0.075c0,0.025-0.071-0.352,0.236-0.451
									C432.15,533.69,432.306,533.984,432.306,533.984z"/>
							</g>
						</g>
					</g>
					<g>
						<g>
							<g>
								<path d="M433.209,533.08c0.008,0.024,0.065-0.614,0.631-1.046c0.288-0.185,0.581-0.3,0.812-0.306
									c0.228-0.021,0.366-0.004,0.366-0.004s-0.099,0.115-0.256,0.256c-0.165,0.126-0.35,0.341-0.596,0.495
									c-0.22,0.19-0.476,0.305-0.641,0.431C433.349,533.017,433.209,533.08,433.209,533.08z"/>
							</g>
						</g>
					</g>
					<g>
						<g>
							<g>
								<path d="M430.947,535.115c0,0,0.096-0.07,0.245-0.141c0.156-0.064,0.344-0.155,0.545-0.181
									c0.349-0.064,0.771-0.135,0.793-0.13c0.002-0.037-0.093,0.525-0.681,0.667c-0.264,0.038-0.498-0.008-0.65-0.082
									C431.042,535.183,430.947,535.115,430.947,535.115z"/>
							</g>
						</g>
					</g>
					<g>
						<g>
							<g>
								<path d="M428.688,534.664c0,0-0.065-0.015-0.12-0.08c-0.049-0.061-0.107-0.194-0.005-0.274
									c0.221-0.182,0.371,0.142,0.351,0.128c-0.011-0.004-0.05,0.293,0.033,0.265c0.003-0.004,0.002-0.013-0.005-0.021
									l-0.002-0.003l-0.001-0.001v-0.001l-0.061-0.039h0.001l0.002,0.002l0.01,0.008l0.019,0.012
									c0.007,0.002-0.044-0.016-0.074-0.014C428.763,534.641,428.688,534.664,428.688,534.664z"/>
							</g>
						</g>
					</g>
					<g>
						<g>
							<g>
								<path d="M428.913,538.507c0,0-0.1-0.094-0.216-0.247c-0.059-0.077-0.121-0.169-0.179-0.272
									c-0.074-0.089-0.141-0.186-0.193-0.297c-0.201-0.379-0.54-0.74-0.544-0.767c0,0,0.121-0.017,0.336,0.015
									c0.218-0.001,0.501,0.198,0.678,0.469c0.072,0.143,0.123,0.288,0.157,0.419c0.014,0.132,0.013,0.251,0.007,0.353
									C428.947,538.381,428.913,538.507,428.913,538.507z"/>
							</g>
						</g>
					</g>
					<g>
						<g>
							<g>
								<path d="M428.461,540.544c0,0,0.381-0.425,0.941-0.637c0.509-0.272,1.094-0.27,1.094-0.27s-0.298,0.47-0.88,0.774
									C429.023,540.638,428.461,540.544,428.461,540.544z"/>
							</g>
						</g>
					</g>
					<g>
						<g>
							<g>
								<path d="M425.521,542.805c0,0,0.14-0.525,0.576-0.925c0.477-0.371,1.006-0.433,1.006-0.433s-0.21,0.511-0.644,0.846
									C426.046,542.671,425.521,542.805,425.521,542.805z"/>
							</g>
						</g>
					</g>
					<g>
						<g>
							<g>
								<path d="M426.651,544.612c0,0-0.115-0.012-0.267-0.056c-0.148-0.045-0.342-0.119-0.517-0.263
									c-0.387-0.314-0.355-0.838-0.347-0.81c0.021,0.017,0.391,0.146,0.703,0.393c0.168,0.139,0.28,0.322,0.345,0.478
									C426.634,544.504,426.651,544.612,426.651,544.612z"/>
							</g>
						</g>
					</g>
					<g>
						<g>
							<g>
								<path d="M428.008,545.97c0,0-0.042-0.346,0.146-0.533c0.189-0.188,0.534-0.146,0.534-0.146s0.042,0.346-0.146,0.533
									C428.353,546.012,428.008,545.97,428.008,545.97z"/>
							</g>
						</g>
					</g>
					<g>
						<g>
							<g>
								<path d="M427.329,548.683c0,0,0.267-0.435,0.619-0.755c0.351-0.306,0.708-0.595,0.739-0.602c0,0,0.016,0.116-0.013,0.319
									c-0.009,0.217-0.141,0.464-0.352,0.683c-0.226,0.193-0.476,0.306-0.673,0.33
									C427.454,548.69,427.329,548.683,427.329,548.683z"/>
							</g>
						</g>
					</g>
					<g>
						<g>
							<g>
								<path d="M427.555,550.718c0,0-0.015,0.065-0.08,0.12c-0.061,0.049-0.194,0.106-0.274,0.004
									c-0.181-0.221,0.143-0.37,0.129-0.35c-0.004,0.012,0.295,0.05,0.265-0.032c-0.004-0.004-0.013-0.002-0.021,0.004
									l-0.003,0.003h-0.001l-0.041,0.06l0.002-0.002l0.008-0.01l0.012-0.019c0.004-0.009-0.016,0.044-0.014,0.073
									C427.531,550.643,427.555,550.718,427.555,550.718z"/>
							</g>
						</g>
					</g>
					<g>
						<g>
							<g>
								<path d="M427.555,552.979c0,0-0.274-0.202-0.274-0.451c0-0.25,0.274-0.452,0.274-0.452s0.274,0.202,0.274,0.452
									C427.829,552.776,427.555,552.979,427.555,552.979z"/>
							</g>
						</g>
					</g>
					<g>
						<g>
							<g>
								<path d="M427.555,554.562c0,0-0.274-0.101-0.274-0.226s0.274-0.225,0.274-0.225s0.274,0.1,0.274,0.225
									S427.555,554.562,427.555,554.562z"/>
							</g>
						</g>
					</g>
					<g>
						<g>
							<g>
								<path d="M429.366,548.457c0,0,0.355,0.192,0.492,0.611c0.111,0.331-0.041,0.745-0.041,0.745s-0.354-0.192-0.491-0.612
									C429.214,548.871,429.366,548.457,429.366,548.457z"/>
							</g>
						</g>
					</g>
					<g>
						<g>
							<path fill="none" stroke="#000000" stroke-width="0.2827" stroke-miterlimit="10" d="M430.495,546.423"/>
						</g>
					</g>
					<g>
						<g>
							<g>
								<path d="M431.853,544.612c0,0,0.417-0.226,0.958-0.155c0.457,0.056,0.85,0.382,0.85,0.382s-0.417,0.226-0.958,0.156
									C432.245,544.938,431.853,544.612,431.853,544.612z"/>
							</g>
						</g>
					</g>
					<g>
						<g>
							<g>
								<path d="M431.175,543.03c0,0,0.347-0.042,0.533,0.145s0.145,0.533,0.145,0.533s-0.346,0.043-0.533-0.145
									S431.175,543.03,431.175,543.03z"/>
							</g>
						</g>
					</g>
					<g>
						<g>
							<g>
								<path d="M430.495,544.612c0,0-0.108-0.16-0.248-0.4c-0.162-0.232-0.354-0.546-0.608-0.824
									c-0.251-0.277-0.516-0.486-0.757-0.619c-0.235-0.108-0.422-0.192-0.422-0.192s0.173-0.064,0.486-0.075
									c0.309,0.003,0.771,0.149,1.102,0.521C430.696,543.81,430.473,544.639,430.495,544.612z"/>
							</g>
						</g>
					</g>
					<g>
						<g>
							<g>
								<path d="M431.4,545.518c0,0,0.071,0.025,0.114,0.13c0.052,0.112-0.074,0.315-0.21,0.339
									c-0.257,0.051-0.349-0.251-0.357-0.243c-0.01-0.001,0.16-0.271,0.216-0.287c0.011-0.001,0.011,0.001,0.012,0.009
									c0.01,0.017,0.023,0.037,0.037,0.062c0.031,0.029-0.008,0.005,0.045,0.025C431.326,545.558,431.4,545.518,431.4,545.518z"/>
							</g>
						</g>
					</g>
					<g>
						<g>
							<g>
								<path d="M432.53,540.317c0,0,0.274,0.051,0.274,0.113s-0.274,0.113-0.274,0.113s-0.274-0.051-0.274-0.113
									S432.53,540.317,432.53,540.317z"/>
							</g>
						</g>
					</g>
					<g>
						<g>
							<g>
								<path d="M434.34,538.733c0,0,0.275,0.102,0.275,0.226c0,0.125-0.275,0.227-0.275,0.227s-0.274-0.102-0.274-0.227
									C434.065,538.835,434.34,538.733,434.34,538.733z"/>
							</g>
						</g>
					</g>
					<g>
						<g>
							<g>
								<path d="M428.234,537.604c0,0,0.203,0.058,0.498,0.179c0.288,0.138,0.699,0.269,1.103,0.497
									c0.427,0.152,0.782,0.403,1.079,0.475c0.29,0.109,0.486,0.205,0.486,0.205c0.028-0.023-0.847,0.261-1.801-0.185
									c-0.439-0.245-0.809-0.513-1.021-0.766C428.353,537.769,428.234,537.604,428.234,537.604z"/>
							</g>
						</g>
					</g>
					<g>
						<g>
							<g>
								<path d="M424.617,537.377c0,0,0.055-0.115,0.172-0.27c0.109-0.16,0.306-0.342,0.575-0.467
									c0.587-0.236,1.078,0.075,1.061,0.059c0,0-0.111,0.079-0.27,0.162c-0.166,0.067-0.353,0.208-0.579,0.285
									c-0.223,0.106-0.46,0.15-0.644,0.194C424.749,537.375,424.617,537.377,424.617,537.377z"/>
							</g>
						</g>
					</g>
					<g>
						<g>
							<g>
								<path d="M421.679,537.377c0,0,0.253-0.275,0.565-0.275c0.311,0,0.564,0.275,0.564,0.275s-0.253,0.274-0.564,0.274
									C421.932,537.651,421.679,537.377,421.679,537.377z"/>
							</g>
						</g>
					</g>
					<g>
						<g>
							<path fill="none" stroke="#000000" stroke-width="0.2827" stroke-miterlimit="10" d="M416.929,533.984"/>
						</g>
					</g>
					<g>
						<g>
							<g>
								<path d="M420.999,536.247c0.005-0.006-0.123,0.022-0.306-0.06c-0.19-0.072-0.391-0.28-0.487-0.547
									c-0.101-0.268-0.058-0.527-0.011-0.701c0.06-0.176,0.125-0.275,0.125-0.275s0.257,0.399,0.402,0.793
									C420.826,535.851,420.972,536.227,420.999,536.247z"/>
							</g>
						</g>
					</g>
					<g>
						<g>
							<g>
								<path d="M423.26,538.281c0,0,0.296-0.093,0.42,0.032c0.125,0.124,0.033,0.42,0.033,0.42s-0.295,0.093-0.42-0.032
									C423.167,538.576,423.26,538.281,423.26,538.281z"/>
							</g>
						</g>
					</g>
					<g>
						<g>
							<g>
								<path d="M423.26,535.567c0,0-0.354,0.274-0.791,0.274c-0.437,0-0.79-0.274-0.79-0.274s0.354-0.274,0.79-0.274
									C422.906,535.293,423.26,535.567,423.26,535.567z"/>
							</g>
						</g>
					</g>
					<g>
						<g>
							<g>
								<path d="M426.198,533.08c0,0,0.145,0.244,0.082,0.307c-0.062,0.063-0.308-0.079-0.308-0.079s-0.145-0.244-0.082-0.307
									C425.953,532.938,426.198,533.08,426.198,533.08z"/>
							</g>
						</g>
					</g>
					<g>
						<g>
							<g>
								<path d="M423.938,530.593c-0.006,0.007-0.095-0.287,0.066-0.414c0.213-0.097,0.413,0.196,0.386,0.188
									c-0.02,0.009-0.079,0.274-0.121,0.293C424.211,530.724,423.944,530.586,423.938,530.593z"/>
							</g>
						</g>
					</g>
					<g>
						<g>
							<g>
								<path d="M436.826,536.473c0.02-0.029-0.361,0.481-1.045,0.261c-0.32-0.125-0.49-0.416-0.533-0.612
									c-0.033-0.208-0.004-0.327-0.004-0.327c0.012,0.013,0.38,0.319,0.734,0.427
									C436.332,536.368,436.826,536.473,436.826,536.473z"/>
							</g>
						</g>
					</g>
					<g>
						<g>
							<g>
								<path d="M437.506,537.151c0,0-0.091-0.383,0.111-0.718c0.173-0.291,0.567-0.414,0.567-0.414s0.091,0.383-0.111,0.718
									C437.9,537.027,437.506,537.151,437.506,537.151z"/>
							</g>
						</g>
					</g>
					<g>
						<g>
							<g>
								<path d="M433.888,538.959c0,0-0.128-0.103-0.298-0.294c-0.161-0.196-0.387-0.474-0.482-0.882
									c-0.102-0.405,0.007-0.843,0.205-1.051c0.195-0.204,0.355-0.254,0.349-0.26c0,0-0.06,0.166-0.103,0.381
									c-0.04,0.225,0.011,0.487,0.083,0.804c0.071,0.317,0.161,0.643,0.195,0.89C433.882,538.793,433.888,538.959,433.888,538.959
									z"/>
							</g>
						</g>
					</g>
					<g>
						<g>
							<path fill="none" stroke="#000000" stroke-width="0.2827" stroke-miterlimit="10" d="M434.113,540.091"/>
						</g>
					</g>
					<g>
						<g>
							<g>
								<path d="M436.147,539.185c0,0,0.106,0.038,0.234,0.108c0.132,0.069,0.265,0.172,0.38,0.318
									c0.265,0.278,0.29,0.705,0.29,0.705s-0.422-0.046-0.71-0.352c-0.134-0.167-0.179-0.386-0.196-0.531
									C436.13,539.283,436.147,539.185,436.147,539.185z"/>
							</g>
						</g>
					</g>
					<g>
						<g>
							<g>
								<path d="M435.47,537.151c0.01-0.009-0.068,0.079-0.206,0.065c-0.143-0.008-0.295-0.081-0.382-0.194
									c-0.165-0.227-0.077-0.54-0.089-0.55c-0.008-0.014,0.369,0.002,0.521,0.213c0.078,0.1,0.088,0.215,0.098,0.3
									C435.416,537.082,435.467,537.144,435.47,537.151z"/>
							</g>
						</g>
					</g>
					<g>
						<g>
							<g>
								<path d="M435.922,539.638c0,0,0.405-0.274,0.904-0.274c0.5,0,0.905,0.274,0.905,0.274s-0.405,0.274-0.905,0.274
									C436.327,539.912,435.922,539.638,435.922,539.638z"/>
							</g>
						</g>
					</g>
					<g>
						<g>
							<g>
								<path d="M436.147,540.769c0,0-0.065-0.015-0.12-0.081c-0.049-0.061-0.103-0.195-0.002-0.275
									c0.22-0.179,0.371,0.145,0.35,0.131c0,0-0.023,0.068-0.021,0.143c-0.001,0.036,0.005,0.071,0.012,0.094
									c0.004,0.013,0.001-0.012-0.007-0.019c-0.011-0.016-0.034-0.023,0.008,0.002c0.011,0.005-0.043-0.016-0.072-0.014
									C436.224,540.746,436.147,540.769,436.147,540.769z"/>
							</g>
						</g>
					</g>
					<g>
						<g>
							<path fill="none" stroke="#000000" stroke-width="0.2827" stroke-miterlimit="10" d="M432.983,539.185"/>
						</g>
					</g>
					<g>
						<g>
							<g>
								<path d="M438.862,539.865c0,0-0.465,0.267-1.005,0.303c-0.266,0.036-0.518-0.009-0.706-0.019
									c-0.191-0.022-0.325-0.059-0.325-0.059s0.089-0.094,0.259-0.208c0.168-0.126,0.428-0.223,0.725-0.262
									C438.405,539.582,438.862,539.865,438.862,539.865z"/>
							</g>
						</g>
					</g>
					<g>
						<g>
							<g>
								<path d="M443.61,538.281c0,0-0.557,0.274-1.243,0.274c-0.688,0-1.244-0.274-1.244-0.274s0.557-0.275,1.244-0.275
									C443.054,538.007,443.61,538.281,443.61,538.281z"/>
							</g>
						</g>
					</g>
					<g>
						<g>
							<g>
								<path d="M447.682,537.83c0,0-0.064-0.022-0.112-0.113c-0.054-0.101-0.046-0.226,0.029-0.307c0.02-0.026,0.099,0,0.157,0.001
									c0.071-0.001,0.15-0.034,0.15-0.034s0.064,0.022,0.112,0.113c0.054,0.101,0.046,0.226-0.029,0.307
									c-0.021,0.026-0.099,0-0.157-0.001C447.761,537.797,447.682,537.83,447.682,537.83z"/>
							</g>
						</g>
					</g>
					<g>
						<g>
							<g>
								<path d="M445.42,537.377c0,0,0.455-0.275,1.018-0.275s1.018,0.275,1.018,0.275s-0.455,0.274-1.018,0.274
									S445.42,537.377,445.42,537.377z"/>
							</g>
						</g>
					</g>
					<g>
						<g>
							<g>
								<path d="M443.158,536.247c0,0,0.051-0.274,0.113-0.274c0.063,0,0.113,0.274,0.113,0.274s-0.051,0.274-0.113,0.274
									C443.209,536.521,443.158,536.247,443.158,536.247z"/>
							</g>
						</g>
					</g>
					<g>
						<g>
							<g>
								<path d="M442.481,536.699c0,0-0.355-0.016-0.568-0.301c-0.162-0.215-0.111-0.604-0.111-0.604s0.355,0.016,0.568,0.301
									C442.533,536.31,442.481,536.699,442.481,536.699z"/>
							</g>
						</g>
					</g>
					<g>
						<g>
							<path fill="none" stroke="#000000" stroke-width="0.2827" stroke-miterlimit="10" d="M442.707,538.507"/>
						</g>
					</g>
					<g>
						<g>
							<g>
								<path d="M442.481,539.865c0.02-0.009,0.079-0.274,0.12-0.293c0.059-0.065,0.325,0.072,0.331,0.065
									c0.006-0.007,0.096,0.286-0.065,0.415C442.654,540.149,442.454,539.857,442.481,539.865z"/>
							</g>
						</g>
					</g>
					<g>
						<g>
							<g>
								<path d="M437.958,539.638c0,0,0.108-0.032,0.278-0.043c0.169-0.019,0.4,0.008,0.628,0.134
									c0.497,0.284,0.456,0.851,0.449,0.815c-0.022-0.015-0.395-0.172-0.725-0.341c-0.179-0.098-0.328-0.241-0.45-0.352
									C438.024,539.735,437.958,539.638,437.958,539.638z"/>
							</g>
						</g>
					</g>
					<g>
						<g>
							<g>
								<path d="M439.767,538.733c0,0-0.766,0.224-1.724,0.16c-0.915-0.062-1.668-0.387-1.668-0.387s0.766-0.224,1.723-0.16
									C439.014,538.408,439.767,538.733,439.767,538.733z"/>
							</g>
						</g>
					</g>
					<g>
						<g>
							<g>
								<path d="M439.54,538.507c0,0.025-0.07-0.352,0.237-0.451c0.287-0.068,0.442,0.226,0.442,0.226s-0.18,0.269-0.289,0.302
									C439.837,538.596,439.555,538.508,439.54,538.507z"/>
							</g>
						</g>
					</g>
					<g>
						<g>
							<g>
								<path d="M433.209,540.317c0,0,0.332-0.575,0.936-1.052c0.315-0.232,0.642-0.386,0.905-0.445
									c0.256-0.07,0.419-0.087,0.419-0.087s-0.104,0.141-0.279,0.323c-0.182,0.171-0.413,0.426-0.713,0.647
									C433.883,540.172,433.209,540.317,433.209,540.317z"/>
							</g>
						</g>
					</g>
					<g>
						<g>
							<path fill="none" stroke="#000000" stroke-width="0.2827" stroke-miterlimit="10" d="M432.306,541.223"/>
						</g>
					</g>
					<g>
						<g>
							<path fill="none" stroke="#000000" stroke-width="0.2827" stroke-miterlimit="10" d="M432.079,538.733"/>
						</g>
					</g>
					<g>
						<g>
							<g>
								<path d="M435.019,540.769c0.006-0.007,0.094,0.287-0.068,0.415c-0.214,0.094-0.411-0.198-0.385-0.19
									c0.019-0.009,0.08-0.275,0.123-0.292C434.746,540.638,435.012,540.776,435.019,540.769z"/>
							</g>
						</g>
					</g>
					<g>
						<g>
							<path fill="none" stroke="#000000" stroke-width="0.2827" stroke-miterlimit="10" d="M432.983,539.412"/>
						</g>
					</g>
					<g>
						<g>
							<g>
								<path d="M432.53,540.994c0.026,0.005-0.544-0.148-0.772-0.746c-0.078-0.291-0.088-0.567-0.018-0.761
									c0.053-0.193,0.112-0.302,0.112-0.302s0.078,0.112,0.161,0.275c0.065,0.169,0.202,0.367,0.262,0.604
									C432.435,540.503,432.53,540.974,432.53,540.994z"/>
							</g>
						</g>
					</g>
					<g>
						<g>
							<g>
								<path d="M436.375,541.223c0,0-0.304,0.274-0.678,0.274c-0.375,0-0.679-0.274-0.679-0.274s0.304-0.275,0.679-0.275
									C436.071,540.948,436.375,541.223,436.375,541.223z"/>
							</g>
						</g>
					</g>
					<g>
						<g>
							<g>
								<path d="M436.826,542.577c0,0-0.052-0.389,0.111-0.604c0.213-0.284,0.568-0.3,0.568-0.3s0.052,0.389-0.112,0.604
									C437.182,542.56,436.826,542.577,436.826,542.577z"/>
							</g>
						</g>
					</g>
					<g>
						<g>
							<g>
								<path d="M437.052,543.483c0,0,0.131-0.076,0.33-0.157c0.201-0.069,0.463-0.184,0.761-0.24
									c0.591-0.138,1.171-0.056,1.171-0.056s-0.397,0.438-1.054,0.592c-0.331,0.064-0.641,0.045-0.86-0.022
									C437.18,543.544,437.052,543.483,437.052,543.483z"/>
							</g>
						</g>
					</g>
					<g>
						<g>
							<g>
								<path d="M434.113,544.612c0,0,0.095-0.471,0.458-0.817c0.2-0.164,0.449-0.241,0.616-0.279
									c0.172-0.037,0.282-0.032,0.282-0.032s-0.052,0.119-0.141,0.268c-0.09,0.152-0.217,0.312-0.396,0.455
									C434.591,544.535,434.113,544.612,434.113,544.612z"/>
							</g>
						</g>
					</g>
					<g>
						<g>
							<g>
								<path d="M434.565,546.648c0,0-0.371,0.052-0.567-0.272c-0.189-0.362,0.139-0.652,0.115-0.633
									c0.018,0.008,0.267,0.22,0.367,0.37C434.577,546.285,434.565,546.648,434.565,546.648z"/>
							</g>
						</g>
					</g>
					<g>
						<g>
							<g>
								<path d="M434.793,547.326c0,0,0.404-0.274,0.904-0.274c0.499,0,0.903,0.274,0.903,0.274s-0.404,0.274-0.903,0.274
									C435.197,547.601,434.793,547.326,434.793,547.326z"/>
							</g>
						</g>
					</g>
					<g>
						<g>
							<g>
								<path d="M436.147,549.588c0,0,0.051-0.274,0.114-0.274c0.062,0,0.113,0.274,0.113,0.274s-0.051,0.274-0.113,0.274
									C436.198,549.862,436.147,549.588,436.147,549.588z"/>
							</g>
						</g>
					</g>
					<g>
						<g>
							<g>
								<path d="M432.079,547.1c0,0,0.27,0.18,0.302,0.287c0.013,0.095-0.073,0.377-0.075,0.392c0.024,0-0.353,0.071-0.451-0.236
									C431.785,547.255,432.079,547.1,432.079,547.1z"/>
							</g>
						</g>
					</g>
					<g>
						<g>
							<g>
								<path d="M430.043,545.97c0,0,0.167,0.042,0.413,0.145c0.246,0.099,0.563,0.273,0.871,0.461
									c0.309,0.184,0.564,0.358,0.797,0.424c0.228,0.072,0.406,0.101,0.406,0.101c-0.001-0.009-0.135,0.108-0.417,0.174
									c-0.287,0.076-0.714-0.011-1.072-0.23c-0.36-0.221-0.589-0.504-0.753-0.712C430.128,546.121,430.043,545.97,430.043,545.97z
									"/>
							</g>
						</g>
					</g>
					<g>
						<g>
							<path fill="none" stroke="#000000" stroke-width="0.2827" stroke-miterlimit="10" d="M429.366,545.743"/>
						</g>
					</g>
					<g>
						<g>
							<g>
								<path d="M428.461,543.257c0,0,0.492-0.108,0.991,0.078c0.5,0.186,0.818,0.599,0.818,0.599s-0.491,0.109-0.991-0.078
									S428.461,543.257,428.461,543.257z"/>
							</g>
						</g>
					</g>
				</g>
				<path opacity="0.3" enable-background="new    " d="M419.5,538.334c1.2-1.784,3.731-3.269,5.496-4.541
					c2.154-1.553,4.419-2.222,6.838-2.954c5.266-1.596,10.26-1.672,16-1.671c3.122,0,5.581,0.46,8.179,1.938
					c-0.056-2.279,0.735-6.105-0.633-7.983c-0.899-1.234-3.352-3.339-4.709-3.959c-4.501-2.057-9.48-0.076-13.337,2.338
					c-3.287,2.057-5.656,5.162-8.842,7.44c-0.469-2.566-0.498-4.857-2.279-6.978c-1.766-2.103-3.176-3.016-3.745-5.783
					c-2.497,2.984-5.358,6.263-6.598,10.024c-0.667,2.025-1.049,5.117,0.001,7.092c0.949,1.786,2.811,3.123,3.463,5.037"/>
			</g>
			<path opacity="0.3" enable-background="new    " d="M372,480.5c3.577-0.237,7.53,1.197,10.994,1.757
				c3.509,0.566,6.126,2.168,8.824,4.681c4.477,4.171,9.311,8.802,12.621,14.068c1.903,3.03,3.852,6.825,4.768,10.212
				c-1.602-2.408-1.549-6.655-2.449-9.475c-1.04-3.261-1.74-6.519-3.257-9.756c-1.299-2.773-2.675-5.638-4.251-8.237
				c-1.294-2.136-3.734-6.529-5.95-7.462c-2.43,5.897-14.222,4.712-19.549,4.712"/>
			<g opacity="0.3">
				<g>
					<g>
						<path fill="#FFFFFF" d="M423.583,460.833c0,0-0.462-0.18-1.297-0.502c-0.201-0.081-0.425-0.17-0.669-0.268
							c-0.256-0.067-0.534-0.14-0.834-0.218c-0.29-0.08-0.601-0.164-0.931-0.255c-0.331-0.077-0.7-0.116-1.07-0.184
							c-2.971-0.498-7.188-0.753-11.239,0.379l-0.756,0.211c-0.242,0.092-0.482,0.184-0.721,0.275
							c-0.241,0.088-0.479,0.176-0.717,0.263c-0.226,0.111-0.449,0.222-0.672,0.331c-0.226,0.105-0.449,0.211-0.67,0.314
							c-0.228,0.129-0.455,0.256-0.68,0.383c-0.454,0.251-0.898,0.497-1.308,0.758c-1.676,1.01-3.097,2.024-4.141,3.071
							c-1.036,1.044-1.766,2.059-2.208,2.814c-0.432,0.779-0.672,1.211-0.672,1.211s0.016-0.486,0.098-1.407
							c0.112-0.908,0.432-2.237,1.213-3.76c0.782-1.521,2.102-3.117,3.767-4.567c0.412-0.376,0.853-0.722,1.311-1.063
							c0.23-0.172,0.454-0.349,0.7-0.519c0.266-0.164,0.533-0.328,0.803-0.494c0.274-0.162,0.551-0.326,0.829-0.491
							c0.295-0.131,0.592-0.264,0.892-0.397c0.302-0.129,0.603-0.268,0.915-0.383c0.318-0.095,0.639-0.19,0.961-0.287
							c2.597-0.735,5.174-0.699,7.364-0.323c2.214,0.387,4.079,1.057,5.56,1.846c0.37,0.196,0.725,0.36,1.043,0.562
							c0.308,0.217,0.599,0.421,0.871,0.612c0.264,0.192,0.509,0.371,0.734,0.536c0.201,0.197,0.385,0.377,0.551,0.539
							C423.259,460.47,423.583,460.833,423.583,460.833z"/>
					</g>
				</g>
			</g>
			<path d="M405.875,463.417c0.692-0.86,1.874-1.289,2.803-1.822c1.076-0.619,2.262-0.72,3.489-0.844
				c0.611-0.061,1.25-0.083,1.875-0.084c0.609-0.001,1.072,0.296,1.623,0.461c1.062,0.319,1.608,1.088,2.406,1.866
				c-1.296-0.232-2.631-0.535-3.946-0.535c-1.361,0-2.604,0.131-3.875,0.418c-0.582,0.132-1.239,0.304-1.744,0.471
				c0.282-0.205,0.884-0.349,0.989-0.674c-0.714-0.041-1.405,0.048-2.08,0.158c-0.544,0.088-1.351,0.094-1.831,0.377"/>
		</g>
	</g>
</g>
</svg>
