<?xml version="1.0" encoding="utf-8"?>
<!-- Generator: Adobe Illustrator 25.0.1, SVG Export Plug-In . SVG Version: 6.00 Build 0)  -->
<svg version="1.1" id="Capa_1" xmlns="http://www.w3.org/2000/svg" xmlns:xlink="http://www.w3.org/1999/xlink" x="0px" y="0px"
	 viewBox="0 0 800 800" enable-background="new 0 0 800 800" xml:space="preserve">
<g id="narices_1_">
	<g id="_x35__1_">
		<g>
			<g>
				<path opacity="0.3" enable-background="new    " d="M346.108,469.392c3.127-3.653,6.849-7.076,9.342-11.101
					c2.827-4.567,5.103-9.598,7.781-14.268c5.752-10.031,9.145-21.009,11.354-31.891c1.659-8.168,2.319-17.011,2.319-25.162
					c-0.369,2.945,0.097,6.43,0.097,9.476c0,3.149,0,6.299,0,9.449c0,6.375-0.178,12.633-0.511,18.898
					c-0.32,6.027-1.611,11.409-3.971,16.825c-1.956,4.489-3.838,9.235-7.402,13.081c-3.356,3.623-8.156,5.676-12.001,8.788
					c-2.184,1.765-3.265,3.552-3.569,6.094c-0.379,3.159,0.798,4.971,2.012,7.739c1.228,2.797,3.142,4.017,5.406,6.103
					c1.965,1.812,2.947,5.081,6.039,5.441c-4.145-3.667-9.669-3.265-14.325-5.814c-2.236-1.222-3.814-3.537-4.23-5.867
					c-0.558-3.129,1.595-4.806,1.66-7.602"/>
				<g opacity="0.2">
					<g>
						<g>
							<path fill="#FFFFFF" d="M428.962,478.978c0,0-0.97,0.341-2.516,0.884c-1.548,0.535-3.664,1.274-5.962,2.109
								c-2.286,0.852-4.33,1.675-5.666,2.537c-0.679,0.415-1.184,0.828-1.511,1.141c-0.323,0.327-0.503,0.51-0.503,0.51
								s0.112-0.234,0.314-0.653c0.224-0.411,0.618-0.989,1.224-1.588c1.19-1.236,3.227-2.483,5.617-3.37
								c2.399-0.872,4.674-1.258,6.321-1.426C427.932,478.949,428.962,478.978,428.962,478.978z"/>
						</g>
					</g>
				</g>
				<g>
					<g>
						<g>
							<path d="M431.616,470.185c0,0,0.35,0.348,1.016,1.009c0.651,0.674,1.65,1.642,2.71,3.11c0.513,0.742,1.046,1.631,1.321,2.756
								c0.145,0.56,0.163,1.185,0.072,1.831c-0.076,0.311-0.167,0.638-0.292,0.949c-0.166,0.286-0.295,0.62-0.512,0.884
								c-0.403,0.556-0.919,1.064-1.494,1.493c-0.602,0.359-1.221,0.746-1.872,1.113c-0.673,0.3-1.366,0.608-2.077,0.925
								c-0.728,0.253-1.476,0.528-2.245,0.78c-3.08,0.979-6.522,1.647-9.866,3.019c-1.684,0.677-3.32,1.523-4.895,2.621
								c-1.577,1.096-3.103,2.394-4.662,3.78c-3.105,2.745-6.438,5.988-10.915,8.023c-2.24,0.965-4.498,1.721-6.961,2.206
								c-2.442,0.475-5.004,0.64-7.579,0.381c-5.16-0.477-10.023-2.834-13.457-6.292c-0.417-0.445-0.832-0.889-1.245-1.329
								c-0.396-0.442-0.738-0.877-1.107-1.312c-0.716-0.863-1.424-1.696-2.134-2.5c-1.425-1.595-2.909-3.01-4.549-4.086
								c-3.253-2.142-7.296-2.931-10.772-4.801c-1.716-0.942-3.353-2.138-4.461-3.659c-1.149-1.477-1.861-3.28-1.941-5.021
								c-0.107-1.746,0.342-3.37,0.992-4.721c0.648-1.363,1.48-2.505,2.347-3.47c1.743-1.929,3.565-3.224,5.117-4.127
								c1.551-0.914,2.856-1.421,3.742-1.733c0.445-0.154,0.788-0.257,1.021-0.316c0.232-0.065,0.35-0.099,0.35-0.099
								s-0.115,0.044-0.34,0.13c-0.226,0.08-0.558,0.213-0.985,0.403c-0.851,0.384-2.094,0.991-3.541,2.003
								c-1.447,0.998-3.123,2.396-4.648,4.335c-0.758,0.969-1.46,2.089-1.965,3.353c-0.51,1.256-0.796,2.683-0.622,4.115
								c0.073,0.717,0.274,1.431,0.592,2.112c0.302,0.688,0.728,1.342,1.249,1.947c1.018,1.25,2.421,2.163,4.003,2.949
								c1.589,0.779,3.415,1.32,5.314,1.963c1.895,0.639,3.943,1.342,5.883,2.537c1.925,1.176,3.631,2.724,5.181,4.372
								c1.558,1.618,2.98,3.487,4.48,4.927c3.087,2.988,7.263,4.958,11.792,5.386c4.525,0.476,9.081-0.572,13.096-2.231
								c3.957-1.699,7.19-4.627,10.441-7.333c1.63-1.355,3.284-2.667,5.031-3.78c1.746-1.119,3.605-1.982,5.427-2.616
								c3.662-1.3,7.15-1.773,10.183-2.555c0.751-0.212,1.484-0.419,2.198-0.62c0.69-0.257,1.361-0.507,2.015-0.751
								c0.612-0.311,1.207-0.614,1.783-0.907c0.526-0.343,0.977-0.734,1.351-1.178c0.767-0.873,0.982-1.975,0.805-2.97
								c-0.166-1.001-0.598-1.887-1.038-2.638c-0.913-1.499-1.827-2.552-2.416-3.275
								C431.934,470.561,431.616,470.185,431.616,470.185z"/>
						</g>
					</g>
				</g>
				<g>
					<g>
						<path fill="#7A5656" d="M400.762,468.043c1.007-1.814,2.18-3.582,3.136-5.451c0.938-1.83,1.342-4.148,2.4-5.982
							c1.944-3.371,4.688-5.537,8.85-6.221c4.278-0.701,7.88,0.342,10.457,3.915c2.455,3.406,2.93,6.567,1.708,10.309
							c-1.357,4.155-3.415,6.357-7.022,8.939c-3.064,2.191-5.723,4.3-8.353,6.909c-2.804,2.781-5.716,5.544-8.96,7.85
							c-1.544,1.096-3.334,1.943-5.047,2.776c-2.098,1.021-3.157,1.207-5.488,0.565c-2.15-0.592-3.735-1.056-4.886-3.006
							c-0.876-1.482-1.016-4.015-0.076-5.405c0.919-1.361,3.313-3.226,4.599-4.194c1.531-1.154,2.501-1.565,3.523-3.148
							c1.56-2.41,3.194-4.872,4.91-7.092"/>
						<path opacity="0.3" enable-background="new    " d="M426.608,456.639c1.417,4.074,2.229,6.744,1.093,10.917
							c-1.156,4.253-2.737,7.255-6.592,9.708c-3.078,1.957-6.316,3.757-9.305,5.793c-2.877,1.957-5.641,4.13-8.627,6.022
							c-2.309,1.464-4.813,2.259-7.462,2.783c0.509-1.541,2.763-2.165,4.232-2.791c1.625-0.691,3.146-1.533,4.511-2.53
							c2.83-2.067,5.619-4.127,8.371-6.286c2.893-2.272,5.396-5.049,8.066-7.638c2.595-2.513,5.002-5.537,6.258-8.901
							c0.855-2.291,1.206-4.595-0.712-6.567"/>
						<path opacity="0.1" fill="#FFFFFF" enable-background="new    " d="M399.764,476.164c3.899-1.765,4.511-6.241,6.421-9.416
							c0.858-1.428,1.884-3.658,3.954-3.556c2.103,0.103,4.154,1.465,5.404,3.028c3.055,3.827-1.867,7.13-4.459,9.247
							c-2.667,2.179-6.46,6.734-10.05,2.906c-0.527-0.562-0.853-1.373-1.353-1.955"/>
						<g opacity="0.1">
							<g>
								<g>
									<path fill="#FFFFFF" d="M415.623,467.69c0,0-0.06,0.218-0.165,0.608c-0.058,0.197-0.127,0.438-0.208,0.718
										c-0.078,0.285-0.18,0.604-0.356,0.927c-0.576,1.362-1.749,3.08-3.373,4.643c-1.656,1.531-3.411,2.579-4.715,3.23
										c-0.646,0.339-1.209,0.534-1.581,0.696c-0.377,0.147-0.587,0.23-0.587,0.23s0.729-0.535,1.887-1.384
										c1.145-0.87,2.68-2.096,4.261-3.557c1.546-1.491,2.85-2.936,3.639-4.121c0.228-0.279,0.386-0.558,0.517-0.808
										c0.141-0.248,0.262-0.462,0.361-0.637C415.508,467.887,415.623,467.69,415.623,467.69z"/>
								</g>
							</g>
						</g>
						<g opacity="0.1">
							<g>
								<g>
									<path fill="#FFFFFF" d="M412.506,472.164c0,0-0.281,1.212-1.257,2.252c-0.524,0.49-1.064,0.86-1.541,1.01
										c-0.456,0.172-0.749,0.223-0.749,0.223s0.155-0.282,0.424-0.65c0.287-0.343,0.61-0.881,1.095-1.33
										C411.39,472.697,412.506,472.164,412.506,472.164z"/>
								</g>
							</g>
						</g>
					</g>
					<g>
						<g>
							<g>
								<path d="M423.221,451.829c0,0,0.666,0.654,1.789,1.927c0.553,0.644,1.226,1.442,1.881,2.48
									c0.638,1.036,1.307,2.335,1.515,3.941c0.239,1.592-0.084,3.442-0.844,5.114c-0.709,1.69-1.662,3.426-2.923,5.061
									c-1.249,1.642-2.762,3.211-4.465,4.643c-1.628,1.419-3.312,2.889-5.038,4.393c-6.881,6.144-13.721,11.297-19.861,12.999
									c-1.565,0.288-3.101,0.138-4.238-0.442c-1.151-0.551-1.909-1.342-2.444-2.006c-0.264-0.339-0.486-0.646-0.649-0.933
									c-0.177-0.276-0.316-0.515-0.412-0.717c-0.202-0.397-0.309-0.605-0.309-0.605s0.133,0.192,0.385,0.558
									c0.119,0.188,0.286,0.405,0.492,0.653c0.193,0.259,0.445,0.531,0.736,0.827c0.587,0.578,1.384,1.232,2.454,1.613
									c1.059,0.407,2.382,0.406,3.751,0.034c1.38-0.402,2.777-1.123,4.252-2.105c1.501-0.899,3.028-1.984,4.614-3.147
									c1.572-1.184,3.188-2.482,4.819-3.887c1.624-1.423,3.305-2.896,5.026-4.404c1.753-1.507,3.493-3.017,5.149-4.371
									c1.653-1.317,3.116-2.724,4.359-4.199c1.251-1.466,2.233-3.027,3.002-4.555c0.809-1.508,1.182-3.008,1.103-4.427
									c-0.055-1.413-0.544-2.668-1.052-3.717c-0.521-1.051-1.093-1.908-1.562-2.603
									C423.791,452.573,423.221,451.829,423.221,451.829z"/>
							</g>
						</g>
					</g>
					<g>
						<g>
							<g>
								<path d="M393.888,492.052c0,0-0.251-0.05-0.73-0.143c-0.478-0.099-1.185-0.234-2.083-0.497
									c-0.883-0.28-2.019-0.631-3.085-1.565c-0.521-0.472-0.999-1.109-1.232-1.933c-0.043-0.403-0.143-0.834-0.126-1.264
									c0.051-0.421,0.035-0.883,0.184-1.303c0.44-1.747,1.527-3.371,2.813-4.879c1.288-1.508,2.771-3,4.277-4.557
									c1.501-1.56,2.986-3.22,4.161-5.161c0.571-0.964,1.135-2.035,1.709-3.12c0.577-1.085,1.162-2.186,1.755-3.299
									c0.297-0.559,0.593-1.113,0.887-1.665c0.317-0.547,0.631-1.089,0.943-1.628c0.314-0.538,0.625-1.072,0.935-1.602
									c0.318-0.524,0.688-1.022,1.026-1.525c1.344-2.032,2.774-3.879,4.434-5.462c1.642-1.566,3.583-2.852,5.687-3.261
									c2.116-0.411,4.055,0.002,5.666,0.654c1.608,0.717,2.817,1.782,3.644,2.85c0.841,1.064,1.361,2.103,1.726,2.962
									c0.367,0.86,0.57,1.556,0.705,2.024c0.122,0.473,0.186,0.721,0.186,0.721s-0.094-0.238-0.271-0.691
									c-0.188-0.448-0.467-1.11-0.913-1.911c-0.442-0.799-1.05-1.748-1.931-2.672c-0.868-0.93-2.057-1.79-3.526-2.311
									c-1.47-0.469-3.264-0.694-4.958-0.238c-1.722,0.446-3.334,1.621-4.773,3.122c-1.445,1.503-2.78,3.349-4.01,5.315
									c-0.312,0.491-0.652,0.966-0.951,1.48c-0.293,0.52-0.588,1.044-0.885,1.572c-0.299,0.527-0.6,1.058-0.903,1.592
									c-0.29,0.549-0.583,1.102-0.877,1.657c-0.586,1.109-1.176,2.206-1.774,3.288c-0.59,1.079-1.17,2.142-1.838,3.21
									c-1.344,2.104-3.013,3.828-4.608,5.345c-1.604,1.516-3.13,2.893-4.458,4.262c-1.318,1.358-2.385,2.765-2.87,4.21
									c-0.164,0.354-0.163,0.72-0.244,1.07c-0.044,0.352,0.016,0.686,0.009,1.023c0.119,0.632,0.457,1.207,0.868,1.65
									c0.843,0.899,1.901,1.371,2.73,1.728c0.848,0.35,1.535,0.564,1.997,0.718C393.644,491.973,393.888,492.052,393.888,492.052z
									"/>
							</g>
						</g>
					</g>
					<g>
						<g>
							<g>
								<path d="M403.18,483.983c0,0-0.458-0.16-1.105-0.589c-0.639-0.431-1.421-1.136-2.091-2c-0.68-0.848-1.143-1.705-1.555-2.275
									c-0.184-0.323-0.386-0.51-0.512-0.689c-0.131-0.174-0.206-0.272-0.206-0.272s0.119,0.024,0.327,0.066
									c0.202,0.059,0.552,0.114,0.882,0.312c0.731,0.338,1.558,1.036,2.264,1.918c0.689,0.889,1.132,1.777,1.461,2.434
									C402.974,483.534,403.18,483.983,403.18,483.983z"/>
							</g>
						</g>
					</g>
					<g>
						<g>
							<g>
								<path d="M410.726,456.497c0,0,0.916,0.319,2.257,1.134c1.337,0.807,3.097,2.133,4.588,4.057
									c1.486,1.917,2.315,4.108,2.333,5.744c0.005,0.201,0.009,0.393,0.013,0.574c-0.023,0.181-0.045,0.352-0.065,0.512
									c-0.039,0.316-0.083,0.582-0.17,0.792c-0.145,0.411-0.226,0.641-0.226,0.641s-0.004-0.24-0.011-0.672
									c0.015-0.21-0.025-0.468-0.076-0.761c-0.022-0.145-0.046-0.299-0.07-0.463c-0.047-0.159-0.096-0.328-0.147-0.506
									c-0.382-1.417-1.42-3.155-2.789-4.932c-1.376-1.777-2.782-3.308-3.852-4.388
									C411.445,457.146,410.726,456.497,410.726,456.497z"/>
							</g>
						</g>
					</g>
					<g>
						<g>
							<g>
								<path d="M418.127,454.202c0,0,0.083,0.191,0.114,0.549c-0.009,0.327-0.104,0.938-0.739,1.325l-0.623,0.38l-0.327-0.692
									c-0.059-0.124-0.156-0.349-0.221-0.585c-0.055-0.526,0.22-0.992,0.593-1.203c0.407-0.191,0.715-0.183,0.944-0.102
									c0.466,0.153,0.579,0.461,0.586,0.436c0.003,0.017-0.286,0.1-0.511,0.323c-0.306,0.249-0.096,0.443-0.085,0.403
									c0.001,0.003-0.008,0.009-0.023,0.023c-0.382-0.125-0.76-0.249-0.95-0.312c0.22-0.01,0.524-0.138,0.797-0.275
									C417.921,454.315,418.127,454.202,418.127,454.202z"/>
							</g>
						</g>
					</g>
					<g>
						<g>
							<g>
								<path d="M421.707,457.56c0,0,0.025,0.169,0.034,0.412c-0.001,0.126,0.013,0.25-0.018,0.418
									c-0.043,0.18-0.116,0.39-0.229,0.608l-0.309,0.599l-0.697-0.696c-0.129-0.13-0.422-0.366-0.374-0.992
									c0.037-0.337,0.29-0.659,0.508-0.767c0.221-0.129,0.419-0.159,0.584-0.158c0.333,0.006,0.57,0.125,0.743,0.25
									c0.346,0.263,0.405,0.538,0.405,0.538s-0.271,0.064-0.538,0.213c-0.132,0.072-0.27,0.169-0.339,0.257
									c-0.022,0.019-0.02,0.045-0.031,0.059c-0.009-0.002,0.017,0.036-0.003,0l-0.063-0.104c-0.104-0.139-0.163-0.134-0.097-0.121
									c0.022,0.003,0.03,0,0.056-0.002c0.041,0.002,0.079-0.002,0.113-0.011c0.036-0.008,0.058-0.022,0.121-0.034
									c0.062-0.018,0.015-0.001,0.025-0.002c-0.021,0.012-0.003,0.07-0.02,0.108c-0.405-0.039-0.798-0.077-1.006-0.098
									c0.102-0.064,0.223-0.113,0.352-0.161c0.136-0.066,0.28-0.152,0.396-0.195C421.554,457.584,421.707,457.56,421.707,457.56z"
									/>
							</g>
						</g>
					</g>
					<g>
						<g>
							<g>
								<path d="M423.935,460.646c0,0,0.188,0.214,0.318,0.62c0.028,0.105,0.059,0.22,0.061,0.364
									c-0.003,0.142,0.012,0.309-0.177,0.583c-0.083,0.127-0.353,0.333-0.678,0.314c-0.289-0.017-0.484-0.147-0.59-0.232
									c-0.229-0.19-0.329-0.36-0.417-0.54c-0.141-0.375-0.239-0.68-0.024-1.254c0.06-0.141,0.215-0.339,0.427-0.432
									c0.219-0.084,0.385-0.058,0.508-0.021c0.207,0.085,0.304,0.194,0.375,0.288c0.142,0.192,0.186,0.358,0.221,0.478
									c0.03,0.119,0.039,0.189,0.039,0.189s-0.072-0.002-0.191-0.005c-0.114-0.004-0.286-0.018-0.445,0.001
									c-0.041,0-0.074,0.016-0.105,0.026c-0.016,0.006-0.033,0.009-0.034,0.023l-0.006,0.017c0.006-0.027,0.013-0.071,0.015-0.107
									c0.012-0.05,0.019-0.091,0.008-0.144c-0.007-0.042-0.001-0.042-0.018-0.069c0.004,0.008,0.026,0.04,0.147,0.086
									c0.055,0.019,0.114,0.024,0.199,0.042c0.039,0.005,0.078,0.008,0.117,0.007c0.016-0.001,0.012,0.004,0.018,0.006
									c0.014,0.004,0.029,0.029,0.044,0.053l0.092,0.179l0.031,0.076c0.004,0.013,0.005,0.019,0.002,0.021
									c0.014-0.011-0.031,0.029-0.066,0.063c-0.034,0.026-0.065,0.057-0.095,0.089c-0.12,0.137-0.178,0.238-0.177,0.295
									c-0.002,0.031,0.007-0.026-0.099-0.123c-0.036-0.021-0.116-0.095-0.191-0.139c-0.08-0.044-0.009,0.006-0.015-0.018
									c0.025-0.012,0.057-0.021,0.087-0.055c0.064-0.05,0.124-0.123,0.186-0.189C423.737,460.861,423.935,460.646,423.935,460.646
									z"/>
							</g>
						</g>
					</g>
					<g>
						<g>
							<g>
								<path d="M422.092,464.081c0,0,0.217,0.063,0.469,0.254c0.108,0.111,0.305,0.263,0.268,0.685
									c-0.062,0.404-0.284,0.638-0.466,0.793l-0.895,0.764l-0.286-1.148c-0.003-0.012-0.008-0.032-0.013-0.053
									c-0.074-0.316-0.075-0.727,0.297-1.102c0.123-0.099,0.237-0.178,0.389-0.201c0.151-0.023,0.336-0.01,0.42,0.044
									c0.191,0.107,0.297,0.252,0.305,0.35c0.095,0.415-0.11,0.582-0.084,0.589c0.004,0.022-0.257-0.119-0.465-0.06
									c-0.099,0.048,0.067-0.057,0.067-0.155c0.003-0.052,0.011-0.01,0.009-0.038c-0.008-0.015,0.029,0.063,0.054,0.062
									c0.071,0.067,0.19,0.088,0.304,0.105c0.058,0.007,0.106-0.011,0.164-0.007c0.012,0.002,0.014,0.004,0.012,0.008
									l-0.003,0.003c-0.464-0.151-0.927-0.302-1.181-0.385c0.022-0.022,0.103-0.057,0.105-0.04l0.027,0.016
									c0.059,0.041,0.116,0.074,0.117,0.081c0.024,0.026,0.102,0.057,0.107,0.055c-0.025-0.009-0.047-0.009-0.062-0.006
									c-0.079-0.007-0.068-0.007-0.051-0.01l0.032-0.011c0.043-0.026,0.075-0.089,0.112-0.142
									C421.965,464.283,422.092,464.081,422.092,464.081z"/>
							</g>
						</g>
					</g>
					<g>
						<g>
							<g>
								<path d="M419.539,460.891c-0.012,0.019,0.28-0.025,0.641,0.31c0.167,0.173,0.335,0.479,0.325,0.863
									c-0.01,0.375-0.185,0.767-0.452,1.054l-0.452,0.482l-0.544-0.439c-0.043-0.034-0.113-0.1-0.182-0.17
									c-0.342-0.308-0.498-0.882-0.379-1.297c0.093-0.438,0.403-0.68,0.631-0.803c0.51-0.213,0.795-0.021,0.787-0.047
									c0.012,0.006-0.201,0.265-0.236,0.575c-0.003,0.159,0.017,0.3,0.102,0.368c0.076,0.07,0.105,0.066,0.191,0.143
									c0.016,0.015,0.026,0.034,0.031,0.049c-0.396,0.018-0.789,0.035-0.996,0.044c0.22-0.186,0.436-0.236,0.525-0.552
									C419.602,461.181,419.526,460.889,419.539,460.891z"/>
							</g>
						</g>
					</g>
					<g>
						<g>
							<g>
								<path d="M416.786,458.309c-0.017,0.002,0.119,0.227,0.019,0.637c-0.036,0.103-0.06,0.22-0.203,0.342
									c-0.099,0.124-0.341,0.235-0.617,0.231c-0.605-0.069-0.888-0.493-0.999-0.843c-0.054-0.192-0.071-0.396-0.027-0.615
									c0.045-0.224,0.174-0.491,0.441-0.673c0.119-0.078,0.269-0.11,0.396-0.129c0.133-0.017,0.199,0.026,0.29,0.048
									c0.185,0.05,0.246,0.145,0.325,0.221c0.263,0.321,0.249,0.581,0.264,0.576c0.006,0.012-0.279,0.036-0.533,0.137
									c-0.054,0.03-0.133,0.047-0.118,0.107c0.015,0.035-0.02-0.187-0.017-0.176c0.012-0.013-0.025-0.079-0.021-0.064
									c0.031,0.039,0.025,0.018,0.089,0.057c0.068,0.042,0.125,0.032,0.203,0.049c0.209,0.014,0.153-0.003,0.168,0.02
									c-0.002,0.033,0.037-0.017-0.109,0.103c-0.051,0.033-0.1,0.076-0.132,0.14c-0.023,0.034-0.037,0.044-0.042,0.087
									c0.003,0.005,0.002-0.048-0.008-0.052c0.004,0.026-0.051-0.168-0.051-0.139c0.015,0.058,0.086,0.048,0.148,0.05
									C416.52,458.407,416.786,458.294,416.786,458.309z"/>
							</g>
						</g>
					</g>
					<g>
						<g>
							<g>
								<path d="M398.643,483.005c0,0,0.16,0.074,0.372,0.281c0.084,0.105,0.279,0.317,0.141,0.733
									c-0.16,0.368-0.365,0.508-0.567,0.677l-0.243,0.203l-0.55-0.351c-0.128-0.082-0.314-0.225-0.469-0.533
									c-0.089-0.178-0.21-0.522-0.043-0.936c0.188-0.445,0.652-0.586,0.869-0.561c0.481,0.038,0.682,0.286,0.821,0.47
									c0.248,0.406,0.158,0.691,0.171,0.685c0,0-0.288-0.08-0.581-0.043c-0.073,0.015-0.142,0.029-0.196,0.061
									c-0.029,0.01-0.046,0.036-0.062,0.05c-0.01,0.006-0.009,0.02-0.009,0.03c0.003-0.017-0.006-0.078-0.007-0.108
									c-0.007-0.169-0.122-0.269-0.073-0.23c-0.004-0.005,0.043,0.014,0.079,0.014l0.141-0.013c0.064-0.009,0.11-0.03,0.176-0.056
									c0.116-0.036,0.085-0.025,0.09-0.023c0.009,0.029,0.076,0.151,0.094,0.237c-0.32-0.06-0.633-0.118-0.793-0.147
									c0.059-0.01,0.158-0.02,0.193-0.013c0.02,0.005,0.049,0.008,0.069,0.015c-0.018-0.003,0.061,0.078,0.132,0.109
									c0.026,0.014,0,0.006,0.012,0.013c-0.063-0.013-0.052-0.013-0.021-0.018c0.041-0.019,0.065-0.081,0.094-0.131
									C398.571,483.182,398.643,483.005,398.643,483.005z"/>
							</g>
						</g>
					</g>
					<g>
						<g>
							<g>
								<path d="M395.254,480.72c0,0,0.169,0.172,0.236,0.612c0.019,0.412-0.305,1.061-0.845,1.285l-0.005,0.003l-1.001,0.532
									l-0.071-1.092c-0.012-0.189-0.044-0.29,0.015-0.55c0.024-0.176,0.199-0.562,0.485-0.684
									c0.577-0.229,0.777,0.021,0.928,0.113c0.151,0.125,0.238,0.251,0.297,0.344c0.059,0.092,0.086,0.149,0.086,0.149
									s-0.229,0.112-0.52,0.255c-0.074,0.028-0.121,0.081-0.166,0.119c-0.01,0.01-0.025,0.018-0.017,0.032
									c0.003,0.011,0.016,0.045,0-0.036c-0.011-0.053-0.032-0.111-0.056-0.16c0.001-0.011-0.001-0.024-0.008-0.039
									c0-0.008-0.036-0.044-0.023-0.027c0.022,0.023,0.047,0.038,0.072,0.047c0.011-0.01,0.177,0.064,0.33,0.075
									c0.081-0.044,0.065,0.064,0.078,0.096c-0.235-0.123-0.478-0.249-1.071-0.559l0.003-0.001
									c0.289-0.135,0.498-0.122,0.793-0.217C395.016,480.902,395.254,480.72,395.254,480.72z"/>
							</g>
						</g>
					</g>
					<g>
						<g>
							<g>
								<path d="M392.549,484.042c0,0-0.035,0.103,0.062,0.174c0.017,0.02,0.042,0.071,0.035,0.15
									c-0.009,0.095-0.059,0.188-0.151,0.272c-0.146,0.124-0.284,0.186-0.427,0.244l-0.108,0.043l-0.354-0.389
									c-0.107-0.117-0.228-0.279-0.271-0.564c-0.064-0.262,0.096-0.8,0.505-1.03c0.478-0.26,0.838-0.157,1.083-0.057
									c0.251,0.112,0.415,0.279,0.525,0.437c0.222,0.318,0.224,0.581,0.224,0.581s-0.262,0.032-0.546,0.11
									c-0.141,0.037-0.293,0.087-0.407,0.143c-0.056,0.025-0.107,0.054-0.124,0.078c-0.01,0.092-0.027-0.13-0.101-0.217
									c-0.002-0.015-0.03-0.046-0.036-0.049c0.014,0.011-0.003-0.004,0.026,0.015c0.038,0.021,0.056,0.021,0.103,0.032
									c0.056,0.02,0.156,0.025,0.109,0.02c-0.051,0.017-0.103,0.115-0.154,0.209c-0.18-0.135-0.349-0.261-0.461-0.345l0.088,0.08
									c0.033,0.045-0.011-0.004,0.077,0.167c0.004,0.023,0.017,0.047,0.039,0.064c0.022,0.015-0.033-0.027-0.046-0.023
									c-0.043-0.012,0.034-0.005,0.052-0.046C392.435,483.979,392.566,484.049,392.549,484.042z"/>
							</g>
						</g>
					</g>
					<g>
						<g>
							<g>
								<path d="M396.101,486.38c0,0-0.03,0.145-0.108,0.363c-0.032,0.096-0.151,0.276-0.325,0.41
									c-0.193,0.148-0.449,0.15-0.768,0.149l-0.445-0.001l0.033-0.68c0.007-0.151,0.04-0.355,0.097-0.59
									c0.114-0.208,0.293-0.495,0.578-0.601c0.119-0.055,0.248-0.107,0.363-0.131c0.107-0.01,0.214-0.013,0.317-0.01
									c0.222-0.004,0.355,0.067,0.506,0.119c0.28,0.123,0.477,0.286,0.617,0.448c0.287,0.314,0.372,0.59,0.372,0.59
									s-0.285,0.053-0.649,0.12c-0.34,0.05-0.863,0.182-0.827,0.211c-0.001,0.001-0.008-0.019-0.038-0.018
									c-0.049,0.023-0.093,0.043-0.132,0.062c-0.167-0.275-0.327-0.54-0.412-0.681
									C395.329,486.529,396.146,486.335,396.101,486.38z"/>
							</g>
						</g>
					</g>
					<g>
						<g>
							<g>
								<path d="M392.205,487.296c-0.007,0.007,0.162,0.053,0.35,0.315c0.087,0.133,0.179,0.334,0.168,0.611
									c-0.013,0.273-0.152,0.591-0.387,0.836l-0.141,0.147l-0.414-0.058c-0.162-0.022-0.364-0.041-0.607-0.188
									c-0.23-0.125-0.523-0.404-0.619-0.828c-0.093-0.366,0.011-0.761,0.198-1.006c0.18-0.265,0.428-0.407,0.657-0.491
									c0.471-0.147,0.866-0.025,1.102,0.127c0.482,0.317,0.54,0.662,0.556,0.647c0.004,0.014-0.354-0.018-0.71,0.101
									c-0.175,0.05-0.325,0.173-0.367,0.274c-0.025,0.049,0.004,0.106-0.013,0.086c-0.067-0.043-0.141-0.039-0.101-0.042
									c-0.007,0.001,0.084-0.028,0.117-0.068c0.04-0.019-0.009,0.016,0.026,0.034c0.016,0.054,0.097,0.115,0.14,0.188
									c-0.228,0.037-0.448,0.072-0.555,0.09c0.219-0.022,0.424-0.131,0.51-0.374C392.198,487.477,392.205,487.296,392.205,487.296
									z"/>
							</g>
						</g>
					</g>
					<g>
						<g>
							<g>
								<path d="M389.966,485.89c0,0,0.199,0.145,0.385,0.566c0.036,0.192,0.076,0.485,0.01,0.76
									c-0.075,0.26-0.203,0.566-0.404,0.757c-0.077,0.085-0.159,0.162-0.236,0.225l-0.148,0.119l-0.051,0.018
									c-0.101,0.033-0.203,0.057-0.298,0.071c-0.077,0.02-0.296,0.005-0.418-0.034c-0.044-0.006-0.182-0.064-0.292-0.159
									c-0.108-0.091-0.19-0.21-0.225-0.306c-0.055-0.182-0.037-0.401,0.019-0.538c-0.013,0.088-0.021,0.145-0.029,0.203
									c0.091-0.478,0.479-0.836,0.712-0.846c0.217-0.037,0.353-0.03,0.353-0.03s-0.01,0.137-0.047,0.344
									c-0.045,0.219,0.096,0.336,0.192,0.499l1.287,2.158l-1.674-2.071c-0.023-0.028-0.077-0.049-0.132-0.015
									c0.04-0.021,0.014-0.018,0.045-0.095c0.027-0.15-0.017-0.34-0.105-0.491c-0.068,0.033-0.136,0.065-0.215,0.103
									c0.035-0.06,0.08-0.12,0.132-0.177c0.281-0.28,0.505-0.399,0.771-0.608C389.806,486.086,389.966,485.89,389.966,485.89z"/>
							</g>
						</g>
					</g>
				</g>
			</g>
			<g opacity="0.2">
				<g>
					<g>
						<path fill="#FFFFFF" d="M353.002,463.94c0,0,0.779-0.307,2.188-0.861c1.392-0.562,3.484-1.282,5.663-2.649
							c1.106-0.661,2.136-1.552,3.163-2.646c0.521-0.565,1.059-1.15,1.613-1.752c0.568-0.591,1.016-1.29,1.553-1.947
							c2.024-2.726,3.805-6.033,5.262-9.711c2.901-7.377,4.19-14.665,5.105-19.932c0.43-2.645,0.745-4.805,0.961-6.3
							c0.217-1.498,0.338-2.327,0.338-2.327s0.072,0.836,0.203,2.346c0.107,1.513,0.225,3.704,0.223,6.425
							c-0.012,2.72-0.166,5.97-0.664,9.565c-0.506,3.589-1.375,7.539-2.948,11.5c-1.565,3.957-3.73,7.507-6.219,10.284
							c-0.65,0.666-1.229,1.381-1.897,1.939c-0.661,0.566-1.302,1.115-1.923,1.647c-1.286,1.062-2.659,1.924-3.976,2.446
							c-2.622,1.098-4.826,1.374-6.315,1.634C353.834,463.837,353.002,463.94,353.002,463.94z"/>
					</g>
				</g>
			</g>
			<g opacity="0.2">
				<g>
					<g>
						<path fill="#FFFFFF" d="M377.065,471.962c0.001,0-0.618,0.223-1.261,0.635c-0.659,0.395-1.386,0.958-2.356,1.282
							c-0.968,0.329-2.044,0.367-2.909,0.331c-0.862-0.038-1.494-0.17-1.494-0.17s0.191-0.613,0.695-1.365
							c0.499-0.748,1.344-1.646,2.603-2.076c1.257-0.43,2.661-0.226,3.543,0.27c0.441,0.229,0.753,0.52,0.93,0.737
							C376.994,471.827,377.065,471.962,377.065,471.962z"/>
					</g>
				</g>
			</g>
		</g>
	</g>
</g>
</svg>
