<?xml version="1.0" encoding="utf-8"?>
<!-- Generator: Adobe Illustrator 25.0.1, SVG Export Plug-In . SVG Version: 6.00 Build 0)  -->
<svg version="1.1" id="Capa_1" xmlns="http://www.w3.org/2000/svg" xmlns:xlink="http://www.w3.org/1999/xlink" x="0px" y="0px"
	 viewBox="0 0 800 800" enable-background="new 0 0 800 800" xml:space="preserve">
<g id="narices_1_">
	<g id="_x38__1_">
		<path opacity="0.3" enable-background="new    " d="M379.667,484.5c1.445-0.202,2.481,0.812,3.833,1.004
			c1.606,0.228,3.146-0.25,4.667,0.366c2.532,1.027,3.587,3.263,5.791,4.438c0.945-1.498,1.9-3.275,2.404-4.945
			c1.922-0.113,2.727-0.16,4.008,1.101c0.89,0.876,1.758,1.978,2.137,3.195c0.459,1.474,0.156,3.045,0.705,4.462
			c0.477,1.227,0.803,2.493,1.583,3.533c0.209-2.801-0.644-5.105-0.8-7.649c-0.149-2.431-0.951-5.289,0.963-6.713
			c0.98-0.729,1.942-1.463,3.167-0.921c1.281,0.568,1.116,1.909,1.88,2.588c0.438,0.388,1.058,0.202,1.494,0.542
			c0.702,0.546,0.448,0.634,0.83,1.337c0.434,0.799,1.243,2.036,1.374,2.959c0.186,1.314-0.764,2.319-0.837,3.69
			c1.366-1.47,1.3-3.499,1.3-5.486c0-0.912-0.27-2.304,0-3.167c0.36-1.154,0.893-1.143,2-1.667c2.979-1.412,4.778-4.47,7.357-5.832
			c-5.718-0.007-12.268-1.211-17.857-0.038c-2.6,0.545-4.625,1.877-6.792,3.411c-2.138,1.515-3.998,1.918-6.505,2.33
			c-3.382,0.556-6.56,1.129-10.204,1.129"/>
		<g>
			<g opacity="0.2">
				<g>
					<g>
						<path fill="#FFFFFF" d="M358.933,458.459c0,0-0.12-0.091-0.333-0.252c-0.216-0.156-0.482-0.413-0.847-0.682
							c-0.715-0.558-1.676-1.249-2.721-1.964c-1.064-0.684-2.067-1.235-2.882-1.609c-0.402-0.19-0.754-0.283-0.998-0.393
							c-0.246-0.103-0.386-0.161-0.386-0.161s0.144-0.036,0.399-0.099c0.259-0.046,0.65-0.16,1.135-0.168
							c0.964-0.028,2.374,0.212,3.648,1.036c1.249,0.851,2.039,1.981,2.457,2.838c0.222,0.424,0.323,0.81,0.412,1.058
							C358.892,458.315,358.933,458.459,358.933,458.459z"/>
					</g>
				</g>
			</g>
			<path opacity="0.7" fill="#B22512" enable-background="new    " d="M393.057,480.815c-1.98-4.531-5.721-7.348-8.215-11.905
				c-2.882-5.266-3.046-11.755,0.012-17.093c3.658-6.391,7.475-5.166,15.641-7.979c4.229-3.796,4.921-11.501,9.333-14.198
				c3.785-2.312,11.564,2.016,14.837,4.252c5.848,3.999,6.338,9.444,7.318,15.721c0.467,2.985,1.835,6.022,1.322,9.269
				c-0.469,2.968-2.402,4.591-4.059,7.054c-1.605,2.387-2.839,5.005-4.8,7.274c-3.131,3.627-3.849,2.476-8.301,2.214
				c-5.654-0.333-12.56,2.414-17.402,4.969"/>
			<path opacity="0.7" fill="#44100A" enable-background="new    " d="M400.786,478.985c-1.894-0.933-4.016-2.515-5.398-4.081
				c-1.579-1.788-2.211-3.898-2.878-6.041c-0.707-2.273-1.202-4.605-1.056-7.029c0.137-2.266,1.386-3.981,2.799-5.757
				c0.513-0.645,1.129-1.722,1.86-2.124c0.778-0.427,2.11-0.123,2.891-0.727c1.854-1.43,0.065-3.993,0.347-5.711
				c2.607-0.046,4.614-0.538,6.801-1.884c2.994-1.848,2.161-3.791,2.969-6.553c1.276-0.051,2.921,1.387,4.069,1.984
				c1.24,0.646,2.574,1.409,3.923,1.751c1.596,0.409,1.989,0.211,2.742-1.084c0.539-0.929,1.238-1.851,1.67-2.798
				c1.727,1.226,3.774,3.432,5.224,5.042c1.708,1.898,1.629,4.114,0.47,6.33c-0.544,1.044-1.626,2.125-1.494,3.376
				c0.125,1.185,1.103,1.363,1.713,2.277c0.951,1.421,1.76,4.16,1.787,5.876c0.04,2.605-1.669,3.205-3.318,4.814
				c-1.349,1.317-1.925,3.488-2.519,5.162c-0.318,0.901-0.284,2.48-0.907,3.242c-1.013,1.239-1.775,0.307-2.881-0.323
				c-3.224-1.838-5.085-0.831-8.066,0.893c-3.82,2.207-7.551,3.056-11.766,4.067"/>
			<path opacity="0.7" fill="#210705" enable-background="new    " d="M408.953,477.439c-0.204-2.47-4.097-2.046-5.834-2.107
				c-2.993-0.106-3.074-1.78-3.794-4.075c-0.587-1.865-2.679-3.116-3.059-4.924c-0.417-1.979,0.628-4.815,1.494-6.462
				c0.95-1.809,2.792-3.098,3.755-4.926c1.021-1.936,1.368-3.888,2.949-5.622c1.729-1.897,3.54-2.515,6.125-2.392
				c1.24,0.06,2.468,0.449,3.759,0.282c1.103-0.144,2.076-0.729,3.209-0.812c2.215-0.162,4.836,0.682,5.403,2.922
				c0.499,1.972,1.428,4.005,1.742,6.044c0.185,1.196,0.152,1.708,0.839,2.707c0.554,0.805,1.259,1.528,1.75,2.387
				c1.484,2.593-0.442,3.794-2.597,5.029c-1.872,1.073-3.59,2.005-3.09,4.393c0.492,2.354,1.1,3.549-1.31,5.276
				c-3.943,2.826-8.993,1.319-13.271,2.672c-0.202,0.064-0.357,0.102-0.552,0.172"/>
			<path opacity="0.3" fill="#FF0000" enable-background="new    " d="M399.329,444.12c-1.46,1.236-3.65,1.463-5.396,1.967
				c-2.224,0.642-2.949,2.2-4.12,4.048c-0.611,0.965-1.144,1.532-1.276,2.701c-0.133,1.179,0.089,2.362-0.145,3.516
				c-0.471,2.332-0.297,4.046-0.292,6.468c0.004,1.572-0.8,3.655-0.258,5.169c0.472,1.314,2.22,1.906,2.739,3.263
				c0.308,0.806,0.13,1.779,0.434,2.537c0.24,0.603,1.035,0.978,1.32,1.68c0.549,1.353,0.687,2.924,1.288,4.34
				c-2.488-2.574-5.754-4.781-7.384-8.024c-1.754-3.486-2.282-8.091-2.657-11.918c-0.205-2.092-0.288-4.784,0.583-6.615
				c0.734-1.542,1.981-3.293,3.022-4.671c2.771-3.669,7.301-2.979,11.278-3.889c0.327-0.075,0.689-0.172,1.013-0.29"/>
			<g>
				<g>
					<g>
						<g>
							<path d="M443.505,454.331c0,0,0.205,0.525,0.597,1.526c0.379,1.006,0.872,2.523,1.197,4.569
								c0.264,2.033,0.149,4.735-1.248,7.437c-1.425,2.658-3.724,5.254-6.909,7.319c-0.403,0.249-0.812,0.502-1.224,0.757
								c-0.42,0.245-0.879,0.431-1.326,0.651c-0.883,0.473-1.875,0.747-2.868,1.082c-2.015,0.506-4.266,0.849-6.522,0.543
								c-4.521-0.468-8.801-2.438-13.322-2.774c-2.281-0.206-4.539-0.083-6.792,0.6c-2.255,0.651-4.477,1.74-6.691,3.006
								c-0.555,0.325-1.112,0.651-1.671,0.978c-0.587,0.342-1.158,0.708-1.768,1.033c-1.208,0.666-2.455,1.293-3.749,1.852
								c-2.584,1.118-5.351,2-8.273,2.437c-2.915,0.436-5.93,0.392-8.793-0.312c-2.856-0.685-5.537-2.074-7.685-3.841
								c-2.224-1.712-3.961-3.752-5.68-5.482c-1.706-1.741-3.497-3.24-5.435-4.032c-1.909-0.809-4.184-0.857-6.359-0.749
								c-2.207,0.13-4.434,0.436-6.673,0.459c-2.232,0.024-4.49-0.258-6.496-1.192c-1.972-0.946-3.553-2.436-4.553-4.127
								c-1.04-1.677-1.508-3.53-1.608-5.262c-0.103-1.749,0.221-3.361,0.764-4.792c0.561-1.44,1.585-2.603,2.741-3.24
								c1.155-0.652,2.343-0.859,3.375-0.936c2.083-0.135,3.656,0.204,4.712,0.382c1.057,0.202,1.603,0.344,1.603,0.344
								s-0.557-0.092-1.623-0.206c-1.059-0.091-2.655-0.297-4.636-0.017c-0.98,0.146-2.068,0.429-3.037,1.074
								c-0.972,0.635-1.758,1.659-2.171,2.951c-0.839,2.593-0.678,6.031,1.245,8.825c0.933,1.396,2.319,2.551,3.972,3.247
								c1.654,0.672,3.608,0.85,5.646,0.734c2.047-0.109,4.21-0.495,6.552-0.727c2.339-0.193,4.922-0.294,7.519,0.674
								c2.576,0.965,4.669,2.7,6.529,4.495c1.872,1.803,3.542,3.67,5.515,5.125c1.927,1.528,4.124,2.612,6.54,3.178
								c2.408,0.568,4.985,0.607,7.561,0.222c2.58-0.385,5.097-1.166,7.486-2.176c1.196-0.504,2.36-1.073,3.494-1.68
								c1.155-0.653,2.301-1.301,3.438-1.942c2.354-1.292,4.812-2.448,7.426-3.138c1.303-0.34,2.637-0.579,3.973-0.639
								c0.668-0.079,1.321-0.029,1.971,0c0.654,0.015,1.293,0.071,1.92,0.155c2.53,0.275,4.899,0.986,7.068,1.67
								c2.178,0.685,4.242,1.316,6.243,1.625c1.995,0.364,3.927,0.146,5.772-0.207c0.902-0.262,1.812-0.453,2.639-0.846
								c0.417-0.181,0.848-0.323,1.244-0.528c0.393-0.214,0.78-0.426,1.164-0.636c3.04-1.725,5.402-4.088,6.857-6.434
								c1.446-2.393,1.748-4.902,1.641-6.894c-0.166-2-0.531-3.546-0.825-4.573C443.664,454.871,443.505,454.331,443.505,454.331z"
								/>
						</g>
					</g>
				</g>
				<g>
					<g>
						<g>
							<path d="M412.392,428.117c0,0-0.225,0.147-0.646,0.422c-0.21,0.137-0.47,0.307-0.774,0.506
								c-0.312,0.189-0.653,0.43-1.008,0.737c-0.355,0.304-0.782,0.603-1.185,0.995c-0.379,0.416-0.835,0.824-1.235,1.332
								c-0.793,1.025-1.582,2.264-2.186,3.749c-0.337,0.724-0.604,1.52-0.922,2.323c-0.319,0.816-0.539,1.669-0.97,2.531
								c-0.403,0.855-0.912,1.716-1.65,2.43c-0.724,0.724-1.657,1.272-2.654,1.607c-2.011,0.666-4.128,0.723-6.159,1.139
								c-0.519,0.079-0.995,0.242-1.467,0.406l-0.716,0.235l-0.657,0.367l-0.659,0.363c-0.2,0.15-0.389,0.319-0.584,0.477
								l-0.582,0.478l-0.497,0.573c-1.328,1.528-2.159,3.469-2.683,5.436c-0.512,1.975-0.743,4.006-0.682,5.957
								c0.096,3.913,1.194,7.475,2.561,10.297c1.378,2.831,2.947,4.978,4.137,6.414c1.192,1.44,1.98,2.212,2.031,2.263
								c0.397,0.417,0.326,1.152-0.158,1.641c-0.484,0.489-1.226,0.521-1.655,0.069c-0.054-0.054-0.868-0.906-2.087-2.49
								c-1.216-1.579-2.814-3.933-4.18-7.021c-1.357-3.077-2.404-6.957-2.353-11.166c0.012-2.098,0.335-4.257,0.963-6.365
								c0.641-2.095,1.617-4.191,3.182-5.869l0.587-0.623l0.682-0.525c0.229-0.172,0.452-0.353,0.686-0.514l0.764-0.392l0.762-0.385
								l0.814-0.24c0.543-0.166,1.081-0.321,1.616-0.384c2.13-0.349,4.239-0.343,6.091-0.89c1.868-0.513,3.254-1.916,4.028-3.54
								c0.43-0.775,0.701-1.665,1.043-2.452c0.35-0.799,0.646-1.587,1.016-2.312c0.666-1.481,1.521-2.725,2.363-3.734
								c0.427-0.502,0.904-0.9,1.302-1.306c0.421-0.381,0.862-0.667,1.23-0.959c0.367-0.296,0.718-0.526,1.038-0.704
								c0.312-0.189,0.578-0.349,0.794-0.479C412.162,428.255,412.392,428.117,412.392,428.117z"/>
						</g>
					</g>
				</g>
				<g>
					<g>
						<g>
							<path d="M389.124,432.149c0,0,0.211,0.1,0.58,0.274c0.19,0.08,0.406,0.203,0.649,0.357c0.249,0.143,0.526,0.315,0.805,0.536
								c0.588,0.407,1.19,0.989,1.809,1.646c0.585,0.682,1.183,1.448,1.675,2.284c1.013,1.658,1.71,3.512,2.079,4.965
								c0.182,0.729,0.29,1.355,0.359,1.803c0.049,0.453,0.079,0.719,0.081,0.736c0.004,0.144-0.552,0.258-1.239,0.256
								c-0.688-0.002-1.249-0.098-1.253-0.214c0-0.015,0.012-0.24,0.031-0.623c0.003-0.387,0.001-0.936-0.051-1.599
								c-0.109-1.32-0.45-3.094-1.121-4.766c-0.322-0.843-0.751-1.636-1.189-2.365c-0.47-0.703-0.945-1.352-1.437-1.829
								c-0.231-0.257-0.467-0.465-0.683-0.644c-0.21-0.188-0.4-0.344-0.57-0.451C389.315,432.282,389.124,432.149,389.124,432.149z"
								/>
						</g>
					</g>
				</g>
				<g>
					<g>
						<g>
							<path d="M425.988,433.913c0,0-0.449,0.039-1.261,0.109c-0.41,0.04-0.909,0.044-1.49,0.034
								c-0.584,0.002-1.249-0.021-1.978-0.102c-1.472-0.107-3.198-0.441-5.089-0.972c-1.868-0.589-3.903-1.392-5.855-2.628
								c-1.942-1.246-3.61-2.768-4.851-4.392c-0.297-0.419-0.558-0.852-0.816-1.259c-0.126-0.207-0.258-0.403-0.368-0.61
								c-0.097-0.217-0.191-0.431-0.285-0.64c-0.182-0.42-0.356-0.82-0.509-1.209c-0.102-0.409-0.199-0.803-0.292-1.179
								c-0.22-0.732-0.211-1.439-0.243-2.032c-0.007-0.299-0.034-0.571-0.016-0.824c0.036-0.253,0.068-0.483,0.098-0.69
								c0.124-0.821,0.21-1.251,0.21-1.251s0.105,0.436,0.296,1.222c0.043,0.191,0.091,0.403,0.143,0.635
								c0.066,0.227,0.181,0.467,0.276,0.724c0.21,0.511,0.382,1.094,0.759,1.667c0.162,0.29,0.331,0.594,0.507,0.909
								c0.218,0.29,0.444,0.592,0.679,0.904c0.113,0.154,0.229,0.311,0.345,0.472c0.129,0.152,0.279,0.296,0.418,0.447
								c0.28,0.299,0.567,0.607,0.862,0.922c1.271,1.191,2.803,2.341,4.518,3.445c1.726,1.095,3.484,1.996,5.107,2.815
								c1.645,0.762,3.159,1.459,4.476,1.946c0.652,0.271,1.253,0.487,1.786,0.669c0.532,0.193,0.994,0.363,1.378,0.474
								C425.561,433.772,425.988,433.913,425.988,433.913z"/>
						</g>
					</g>
				</g>
				<path fill="#680D0D" d="M407.685,470.461c-3.641-1.702-6.35-2.408-6.797-6.804c-0.381-3.747,1.365-6.843,4.445-9.075
					c2.389-1.731,5.733-4.255,8.563-4.853c3.093-0.652,1.701,0.745,3.196,2.338c1.225,1.306,3.777,0.642,4.782,1.941
					c0.564,0.73,0.24,2.119,0.722,2.846c0.43,0.649,1.774,1.001,2.294,1.81c1.189,1.857-0.157,3.936,0.012,5.962
					c-1.958,0.102-3.105-0.414-3.882,1.3c-0.63,1.392,0.979,3.552,0.208,4.735c-1.384,2.125-7.074,0.474-8.837,0.051
					c-2.782-0.665-6.64,0.202-8.889-1.511c-2.337-1.779-3.442-3.951-2.091-6.553"/>
				<g>
					<g>
						<g>
							<path d="M368.208,426.1c0.063,0.035-1.323,0.646-2.266,2.375c-0.469,0.852-0.727,1.981-0.897,3.318
								c-0.178,1.341-0.278,2.895-0.7,4.593c-0.259,0.875-0.586,1.75-1.165,2.495c-0.564,0.746-1.322,1.325-2.093,1.661
								c-1.572,0.657-2.961,0.552-4.048,0.479c-1.097-0.103-1.952-0.266-2.548-0.373c-0.594-0.116-0.924-0.181-0.924-0.181
								s0.331-0.06,0.927-0.17c0.592-0.094,1.448-0.23,2.501-0.397c1.02-0.187,2.253-0.423,3.225-1.04
								c0.48-0.311,0.879-0.71,1.205-1.215c0.334-0.502,0.544-1.148,0.749-1.825c0.368-1.461,0.615-2.998,1.02-4.416
								c0.396-1.419,1.014-2.732,1.842-3.589c0.81-0.872,1.679-1.26,2.252-1.473C367.884,426.163,368.208,426.1,368.208,426.1z"/>
						</g>
					</g>
				</g>
				<g>
					<g>
						<g>
							<path d="M425.204,433.913c0,0,0.444,0.539,1.246,1.512c0.192,0.251,0.44,0.512,0.649,0.835
								c0.207,0.326,0.433,0.68,0.675,1.06c0.238,0.384,0.509,0.789,0.765,1.233c0.234,0.455,0.482,0.936,0.743,1.44
								c0.546,1.008,1.011,2.143,1.559,3.356c0.526,1.221,1.091,2.526,1.588,3.958c1,2.842,1.844,6.161,1.831,9.763
								c0.016,0.895-0.115,1.783-0.175,2.654c-0.124,0.87-0.331,1.724-0.498,2.559c-0.492,1.697-1.273,3.17-2.163,4.457
								c-1.795,2.575-3.984,4.331-5.886,5.591c-1.926,1.247-3.603,2.011-4.772,2.49c-0.584,0.242-1.046,0.407-1.36,0.515
								s-0.478,0.166-0.478,0.166s0.15-0.088,0.438-0.254c0.288-0.163,0.711-0.406,1.241-0.739c1.062-0.66,2.574-1.658,4.261-3.076
								c1.666-1.43,3.526-3.298,4.965-5.717c0.714-1.201,1.326-2.557,1.678-3.976c0.113-0.753,0.276-1.505,0.374-2.284
								c0.032-0.791,0.148-1.587,0.133-2.401c0.013-3.26-0.625-6.377-1.394-9.18c-0.378-1.403-0.818-2.731-1.215-3.98
								c-0.418-1.241-0.755-2.431-1.156-3.458c-0.189-0.522-0.367-1.021-0.537-1.491c-0.188-0.463-0.391-0.886-0.566-1.291
								c-0.178-0.405-0.344-0.782-0.496-1.129c-0.154-0.349-0.35-0.633-0.496-0.909
								C425.543,434.521,425.204,433.913,425.204,433.913z"/>
						</g>
					</g>
				</g>
				<g>
					<g>
						<g>
							<path d="M432,462.648c0,0-0.185,0.251-0.507,0.69c-0.168,0.213-0.347,0.49-0.533,0.819c-0.197,0.321-0.413,0.686-0.617,1.106
								c-0.889,1.619-1.679,4.047-3.569,6.03c-1.962,1.847-4.406,2.892-5.967,3.8c-0.805,0.442-1.387,0.868-1.803,1.161
								c-0.372,0.324-0.592,0.515-0.606,0.527c-0.118,0.088-0.584-0.261-1.037-0.777c-0.454-0.518-0.694-1.035-0.535-1.156
								c0.021-0.014,0.327-0.222,0.851-0.574c0.537-0.294,1.301-0.71,2.21-1.072c1.812-0.757,4.164-1.455,6.062-2.843
								c1.811-1.446,2.98-3.775,4.061-5.297c0.258-0.394,0.522-0.737,0.762-1.037c0.23-0.306,0.442-0.562,0.64-0.755
								C431.785,462.875,432,462.648,432,462.648z"/>
						</g>
					</g>
				</g>
				<g>
					<g>
						<g>
							<path d="M432.262,452.06c0,0-0.162-0.471-0.379-1.318c-0.199-0.852-0.396-2.089-0.642-3.56
								c-0.261-1.467-0.62-3.168-1.282-4.874c-0.656-1.713-1.735-3.35-3.039-4.753c-2.671-2.805-6.287-4.468-9.051-5.423
								c-0.698-0.235-1.323-0.483-1.904-0.647c-0.585-0.152-1.097-0.286-1.521-0.398c-0.847-0.223-1.345-0.354-1.378-0.363
								c-0.258-0.078-0.325-0.683-0.15-1.348c0.175-0.666,0.539-1.138,0.813-1.055c0.033,0.012,0.545,0.186,1.415,0.485
								c0.435,0.15,0.957,0.331,1.555,0.538c0.594,0.218,1.242,0.531,1.956,0.836c2.821,1.229,6.56,3.303,9.205,6.556
								c1.291,1.624,2.298,3.468,2.843,5.309c0.553,1.837,0.778,3.593,0.925,5.085c0.131,1.495,0.23,2.73,0.361,3.591
								C432.136,451.576,432.262,452.06,432.262,452.06z"/>
						</g>
					</g>
				</g>
			</g>
		</g>
		<g opacity="0.2">
			<g>
				<g>
					<path fill="#FFFFFF" d="M396.333,448c0,0-0.184,0.189-0.514,0.526c-0.332,0.308-0.766,0.8-1.239,1.364
						c-0.967,1.159-1.869,2.72-2.921,4.538c-1.051,1.828-2.22,3.609-3.216,4.888c-0.987,1.282-1.777,2.018-1.777,2.018
						s-0.124-1.064-0.044-2.69c0.092-1.617,0.38-3.889,1.683-6.173c0.662-1.13,1.542-2.104,2.475-2.825
						c0.939-0.725,1.935-1.165,2.778-1.405c0.854-0.229,1.549-0.299,2.036-0.277C396.075,447.971,396.333,448,396.333,448z"/>
				</g>
			</g>
		</g>
		<g opacity="0.2">
			<g>
				<g>
					<path fill="#FFFFFF" d="M347.333,452.334c0,0,0.22-0.115,0.634-0.287c0.414-0.175,1.025-0.38,1.802-0.531
						c1.539-0.314,3.813-0.353,6.077,0.635c1.121,0.499,2.093,1.211,2.855,1.974c0.755,0.782,1.305,1.604,1.642,2.354
						c0.341,0.744,0.515,1.377,0.575,1.83c0.07,0.448,0.081,0.692,0.081,0.692s-0.211-0.129-0.589-0.36
						c-0.353-0.235-0.889-0.533-1.505-0.856c-1.246-0.664-2.87-1.301-4.63-2.081c-1.766-0.772-3.424-1.62-4.736-2.259
						C348.239,452.803,347.333,452.334,347.333,452.334z"/>
				</g>
			</g>
		</g>
		<path opacity="0.8" enable-background="new    " d="M407.25,468.75c-1.023-2.858-3.582-5.071-1.694-8.444
			c1.096-1.959,4.664-4.102,6.682-4.068c2.912,0.047,5.344,2.714,6.256,5.27c0.608,1.708,1.831,9.443-1.456,8.456
			c-0.903-3.147-1.119-3.699-4.3-1.994c-0.383-0.767-0.876-1.437-1.481-1.999c-1.019,0.772-1.942,1.944-2.949,2.749
			c-0.145-0.905-0.602-0.365-1.057-0.719"/>
		<path fill="#6D0C0C" d="M394,478.125c-1.392,0.111-0.839,2.679,0.103,3.147c0.23,0.913,0.117,1.769-0.225,2.607
			c-0.272,0.668-1.11,1.705-0.759,2.502c0.26,0.592,1.93,1.111,2.481,0.719c1.018-0.724,0.014-1.514-0.319-2.229
			c-0.253-0.542-0.618-2.224-0.253-2.843c0.471-0.8,1.56-0.499,2.344-0.774c0.855-0.301,1.56-1.121,2.377-0.504
			c0.445,0.336,0.841,1.303,1.341,1.784c0.882,0.848,0.917,0.938,0.788,2.22c-0.117,1.161-0.036,1.489,0.465,2.499
			c0.943,1.9,0.588,3.494,0.903,5.625c0.274,1.853,1.303,3.211,0.976,5.345c-0.216,1.402-1.727,3.757-0.85,5.277
			c0.306,0.531,1.848,1.253,2.414,0.787c0.728-0.599-0.065-1.963-0.283-2.541c-0.68-1.796-0.312-3.931-0.227-5.844
			c0.088-1.94,0.25-4.124-0.125-6.027c-0.369-1.871-1.074-3.665-0.777-5.75c0.274-1.922,1.155-3.112,2.872-3.628
			c0.574-0.173,1.972-0.999,2.54-0.534c0.548,0.449,0.154,2.237,0.213,2.912c0.191,2.219,2.723,3.156,2.473,0.375
			c-0.069-0.77-0.928-1.742-0.44-2.468c0.4-0.598,2.04-0.497,2.623-0.312c0.846,0.267,1.082,0.869,2,0.686
			c0.8-0.159,1.153-1.044,1.751-1.374c0.718-0.398,1.5-0.161,2.222-0.625c0.631-0.405,0.8-1.297,1.603-1.3
			c0.037-0.192,0.032-0.396,0-0.588c-0.764-0.202-1.609-0.534-2.071-1.179c-0.502-0.697-0.303-1.66-0.812-2.312
			c-0.226-0.287-0.699-0.257-1.007-0.625c-0.276-0.329-0.324-0.777-0.473-1.146c-0.342-0.845-0.415-1.522-1.493-1.757
			c-1.079-0.233-1.551,0.346-2.531-0.372c-0.796-0.583-0.956-1.379-2.094-1.378c-1.348,0.001-1.041,0.94-1.903,1.472
			c-0.833,0.515-1.92-0.305-2.853,0.022c-1.393,0.487-1.434,2.218-2.369,3.006c-1.261,1.061-3.183,0.334-4.656,0.72
			c-1.463,0.383-1.901,1.705-2.941,2.558c-1.064,0.873-2.522,1.065-3.403,2.223"/>
		<path d="M410.375,461.375c-1.036,0.364-1.052,0.882-1.122,1.747c-0.076,0.938-0.399,2.09-0.234,2.984
			c1.291,0.065,4.185,0.416,5.013-0.322c0.914-0.817,1.909-3.071,1.253-4.065c-0.953-1.445-2.725-1.773-4.186-1.246
			c-2.074,0.747-2.036,1.413-1.973,3.527"/>
		<path fill="#6D0C0C" d="M404.125,474.625c0.057-1.239,1.939-3.003,2.5-4.125c0.633-1.263,2.575-2.35,2.975-3.777
			c0.275-0.98-0.454-1.579-0.189-2.562c0.16-0.6,0.645-1.7,1.121-2.136c1.407-1.286,4.402-0.24,3.003,1.76
			c-0.318,0.456-1.017,0.496-1.04,1.209c-0.018,0.554,0.533,0.949,0.752,1.386c0.298,0.593,0.196,1.116,0.379,1.746
			c0.306,1.053,0.277,0.632,1.132,1.25c0.515,0.373,0.57,0.867,0.993,1.257c0.438,0.403,0.943,0.33,1.257,0.861
			c0.373,0.634,0.45,3.245,0.35,3.988c-4.464,0.226-9.007-2.94-13.606-1.231"/>
		<path opacity="0.3" enable-background="new    " d="M385.5,482.667c-2.565-0.159-5.149,1.457-7.537,1.963
			c-2.51,0.531-5.491,0.203-8.129,0.203c-5.853,0-10.347-1.547-15.499-4.125c-4.343-2.173-7.641-5.795-12.667-6.041
			c-5.384-0.264-10.368,1.081-14.504-2.838c-3.674-3.48-4.301-10.141-2.788-14.829c1.593-4.935,5.332-8.439,10.125-9.87
			c4.901-1.464,10.327-1.09,15.176-2.288c4.206-1.039,8.733-3.339,11.865-6.468c3.112-3.109,3.885-9.172,5.255-13.041
			c1.611-4.547,2.881-8.998,3.875-13.662c0.206-0.965,0.403-2.376,0.662-3.028c0.007,5.602-0.333,11.074-0.333,16.69
			c0,5.208,0.146,10.652-1.875,15.296c-2.419,5.557-7.695,3.999-12.617,4.713c-3.67,0.532-9.732,2.525-11.972,6.028
			c-2.706,4.233,0.145,9.323,2.504,12.959c2.686,4.139,7.135,5.229,11.167,7.301c2.127,1.093,3.626,2.061,5.251,3.911
			c1.418,1.615,2.601,3.48,4.25,4.918c4.037,3.523,9.83,4.312,14.629,2.213c0.635-0.278,3.122,0.416,3.329-0.339"/>
		<path fill="#6D0C0C" d="M414.833,472c0.835,0.304,1.279,1.278,2.042,1.791c0.845,0.569,2.089,0.781,3,1.334
			c0.834,0.507,1.46,1.324,2.454,1.545c1.193,0.265,2.505-0.268,3.642,0.192c0.176,1.478-2.168,0.923-3.138,0.971
			c-1.439,0.071-1.984,0.374-3.199,0.958c-1.984,0.953-4.601,1.415-5.134,3.875c-0.605,2.788,1.25,4.428,2.13,6.708
			c0.821,2.13-0.135,5.625-1.005,7.588c-0.881,1.989-3.199,2.934-3.797,5.038c-0.858,3.022,0.688,5.139,1.807,7.702
			c1.282,2.942-1.402,3.655-4.135,3.093c-2.601-0.535-4.38-3.158-3.842-5.795c0.978-4.795,6.04-6.661,5.296-11.991
			c-0.451-3.226,2.456-3.001,3.051-5.847c0.5-2.391-1.82-3.88-2.301-6.033c-0.3-1.343-0.113-4.084,0.592-5.166
			c0.807-1.237,2.495-1.561,2.537-3.797"/>
		<path fill="#6D0C0C" d="M397.833,476.333c-1.399,0.281-2.536,1.432-3.829,2.005c-1.703,0.755-2.467,1.646-3.884,2.786
			c-2.103,1.694-5.658,3.462-8.228,4.051c2.687-0.064,4.657-0.31,6.899-1.717c1.159-0.728,1.418-1.035,2.879-1.121
			c1.636-0.097,1.007,0.062,2.171,1.27c-0.599-3.15,1.247-4.084,2.992-6.274"/>
		<path fill="#6D0C0C" d="M396.167,479.833c-3.38,1.749-9.022,1.241-10.104,5.512c2.377-0.063,5.032-1.069,5.604,1.655
			c0.407,1.939,1.404,4.651,4.175,4.008c2.406-0.558,1.968-4.137,1.992-5.842c0.044-3.117,2.666-1.099,4.291-0.025
			c1.903-3.837-3.927-5.289-6.458-5.308"/>
		<g opacity="0.2">
			<g>
				<g>
					<path fill="#FFFFFF" d="M411,511.833c0,0-0.179-0.004-0.495-0.011c-0.33,0.004-0.788-0.08-1.369-0.254
						c-0.549-0.224-1.244-0.552-1.81-1.199c-0.578-0.62-1.049-1.518-1.162-2.516c-0.112-0.998,0.116-1.935,0.463-2.677
						c0.336-0.757,0.846-1.298,1.273-1.7c0.456-0.386,0.849-0.64,1.149-0.771c0.289-0.132,0.451-0.206,0.451-0.206
						s-0.088,0.154-0.246,0.429c-0.168,0.256-0.362,0.66-0.575,1.126c-0.408,0.954-0.732,2.265-0.587,3.572
						c0.147,1.298,0.808,2.381,1.545,3.109c0.377,0.336,0.708,0.636,0.968,0.8C410.857,511.726,411,511.833,411,511.833z"/>
				</g>
			</g>
		</g>
		<g opacity="0.2">
			<g>
				<g>
					<path fill="#FFFFFF" d="M404,501.333c0,0,0.268,0.069,0.554,0.167c0.286,0.103,0.594,0.191,0.678,0.323
						c0.085,0.123-0.021,0.336-0.003,0.633c0.017,0.263,0.105,0.544,0.105,0.544s-0.157,0.216-0.521,0.333
						c-0.343,0.108-0.922-0.012-1.185-0.414c-0.256-0.393-0.16-0.833,0.003-1.118C403.792,501.509,404,501.333,404,501.333z"/>
				</g>
			</g>
		</g>
		<g opacity="0.2">
			<g>
				<g>
					<path fill="#FFFFFF" d="M395.833,489c0.002-0.034-0.372,0.362-1.242,0.327c-0.435-0.009-0.922-0.197-1.391-0.499
						c-0.457-0.311-0.856-0.756-1.154-1.273c-0.578-1.048-0.617-2.145-0.476-2.895c0.135-0.763,0.429-1.16,0.429-1.16
						s0.199,0.443,0.532,1.022c0.325,0.586,0.786,1.32,1.208,2.083c0.43,0.758,0.757,1.405,1.186,1.811
						c0.102,0.116,0.213,0.192,0.319,0.266c0.104,0.085,0.206,0.142,0.295,0.177C395.726,488.948,395.833,489,395.833,489z"/>
				</g>
			</g>
		</g>
		<g opacity="0.2">
			<g>
				<g>
					<path fill="#FFFFFF" d="M420,477c-0.009,0.012-0.251-0.168-0.707-0.302c-0.244-0.06-0.542-0.133-0.887-0.217
						c-0.36-0.104-0.846-0.279-1.291-0.707c0.008,0.01,0.03,0.033,0.052,0.059c-0.75-0.536-1.233-1.786-1.573-2.343
						c-0.015-0.029-0.029-0.059-0.037-0.075l-0.061-0.094c-0.338-0.546-0.636-0.977-1.029-1.305
						c-0.396-0.325-0.93-0.577-1.366-0.815c-0.911-0.462-1.433-0.868-1.433-0.868s0.643-0.049,1.661-0.052
						c0.515,0.018,1.152,0.018,1.919,0.324c0.768,0.312,1.462,0.984,1.924,1.738c-0.014-0.02-0.027-0.04-0.062-0.093
						c0.019,0.03,0.051,0.085,0.084,0.139c0.402,0.631,0.521,1.16,0.661,1.544c0.114,0.431,0.239,0.636,0.312,0.899l0.052,0.059
						c0.251,0.552,0.98,0.979,1.342,1.395C419.935,476.709,419.987,477.013,420,477z"/>
				</g>
			</g>
		</g>
		<g opacity="0.2">
			<g>
				<g>
					<path fill="#FFFFFF" d="M403.667,475.5c0,0-0.457,0.225-1.127,0.47c-0.673,0.276-1.522,0.593-2.397,0.897
						c-0.902,0.325-1.728,0.622-2.354,0.848c-0.637,0.277-1.123,0.452-1.122,0.452c-0.001,0,0.098-0.477,0.476-1.177
						c0.394-0.666,1.186-1.536,2.354-1.955c1.169-0.403,2.283-0.242,3.016-0.035C403.251,475.239,403.667,475.5,403.667,475.5z"/>
				</g>
			</g>
		</g>
		<g opacity="0.2">
			<g>
				<g>
					<path fill="#FFFFFF" d="M411.5,463.166c0,0,0.043,0.259,0.093,0.555c0.033,0.264,0.145,0.568,0.034,0.686
						c-0.046,0.136-0.369,0.149-0.601,0.229c-0.26,0.074-0.526,0.197-0.526,0.197s-0.229-0.099-0.427-0.383
						c-0.224-0.296-0.277-0.719-0.086-1.084c0.235-0.314,0.628-0.436,0.968-0.377C411.284,463.03,411.5,463.166,411.5,463.166z"/>
				</g>
			</g>
		</g>
	</g>
</g>
</svg>
