<?xml version="1.0" encoding="utf-8"?>
<!-- Generator: Adobe Illustrator 25.0.1, SVG Export Plug-In . SVG Version: 6.00 Build 0)  -->
<svg version="1.1" id="Capa_1" xmlns="http://www.w3.org/2000/svg" xmlns:xlink="http://www.w3.org/1999/xlink" x="0px" y="0px"
	 viewBox="0 0 800 800" enable-background="new 0 0 800 800" xml:space="preserve">
<g id="narices_1_">
	<g id="_x39__1_">
		<g>
			<path opacity="0.3" enable-background="new    " d="M341.089,505.737c-9.02-3.34-12.381-9.665-11.482-19.338
				c0.953-10.244,9.001-9.52,15.562-15.86c13.006-12.571,16.952-29.047,20.695-45.173c0.124-0.533-0.13-3.131,0-2.504
				c0,16.521,5.101,39.174-9.834,50.078c-7.3,5.329-15.16,3.939-18.434,14.198c-3.965,12.426,6.737,13.185,16.182,13.16
				c2.459-0.007,4.912-0.258,7.04,0.638c-6.851,1.05-13.749,5.249-20.938,4.801"/>
			<g opacity="0.2">
				<g>
					<g>
						<path fill="#FFFFFF" d="M408.166,487.004c0,0-1.261,0.205-3.272,0.475c-2.006,0.279-4.767,0.627-7.612,1.416
							c-1.413,0.417-2.687,0.947-3.761,1.582c-0.259,0.173-0.512,0.342-0.757,0.506c-0.251,0.162-0.44,0.376-0.659,0.552
							c-0.453,0.341-0.75,0.771-1.08,1.131c-0.577,0.77-1.007,1.471-1.212,1.993c-0.244,0.518-0.379,0.806-0.379,0.806
							s0.042-0.316,0.116-0.886c0.052-0.583,0.284-1.404,0.728-2.379c0.264-0.462,0.514-1.015,0.947-1.486
							c0.208-0.24,0.398-0.523,0.651-0.751c0.256-0.227,0.519-0.46,0.789-0.699c1.138-0.884,2.569-1.602,4.128-2.06
							c3.142-0.865,6.039-0.76,8.076-0.604C406.916,486.769,408.166,487.004,408.166,487.004z"/>
					</g>
				</g>
			</g>
			<path fill="#467A48" d="M396.23,443.495c-0.399-4.942,6.143-8.276,9.972-8.837c2.758-0.404,5.397-0.993,7.478,0.754
				c1.815,1.525,2.643,2.191,4.079,6.724c1.661-5.364,13.898-1.059,16.617,5.892c3.098,0.227,4.636,1.734,6.327,4.249
				c1.803,2.682,2.568,4.522,1.831,7.912c-0.379,1.743-1.761,4.494-2.567,6.043c4.381,0.227,5.374,4.217,6.634,6.207
				c1.839,2.904,2.033,5.966-0.233,8.679c-0.746,0.895-1.34,1.43-2.247,2.262c-0.916,0.84,0.479,3.898,0.604,5.212
				c0.143,1.478,0.295,3.781-0.729,4.935c-1.09,1.228-2.728,0.603-3.757,1.908c-0.865,1.098-0.718,3.342-1.682,4.664
				c-0.916,1.253-2.216,2.002-3.587,2.543c-2.95,1.162-6.259,1.762-9.337,2.889c-2.981,1.093-5.935,2.022-9.008,3.229
				c-1.585,0.623-3.191,1.405-4.985,1.133c-1.57-0.237-2.255-1.308-3.562-2.103c-1.69-1.027-3.716-1.762-5.484-2.645
				c1.768-2.576,7.024-4.172,9.79-5.841c3.636-2.192,6.585-3.153,10.548-4.182c1.611-4.127,3.3-7.839,8.389-7.925
				c-0.161-1.315-2.063-3.157-2.684-4.499c-0.846-1.827-1.576-3.505-1.763-5.489c-0.478-5.106,0.658-6.92,4.729-9.479
				c0.169,0.008,0.169,0.016,0,0.024c-7.466-1.769-14.467-6.29-14.524-14.9c0.628,3.052-5.603,4.923-7.699,5.148
				c-3.494,0.377-6.337-1.074-8.919-2.951c1.58-2.114,3.968-2.639,3.929-5.816c-0.906-0.906-3.777,2.569-5.288,3.475
				c-2.119-2.021-3.097-7.075-3.097-9.896"/>
			<path fill="#6FB574" d="M446.601,472.439c-1.26-1.99-2.253-5.98-6.634-6.207c0.807-1.549,2.189-4.3,2.567-6.043
				c0.737-3.39-0.028-5.23-1.831-7.912c-1.691-2.515-3.229-4.022-6.327-4.249c-2.719-6.95-14.956-11.256-16.617-5.892
				c-1.436-4.532-2.264-5.198-4.079-6.724c-2.08-1.747-4.72-1.158-7.478-0.754c-3.828,0.561-10.371,3.895-9.972,8.837l-0.227-0.68
				c0,2.82,0.978,7.874,3.097,9.896c1.511-0.906,4.382-4.382,5.288-3.475c0.006,0.531-0.061,0.983-0.174,1.387
				c0.035-0.035,0.067-0.073,0.104-0.107c0.753-5.209,3.383-10.116,9.629-8.353c3.67,1.035,5.097,4.36,5.598,8.099
				c6.529-1.229,13.83,0.549,17.378,6.164c2.589,4.098,3.473,9.284,1.576,13.788c1.8,2.238,2.881,5.144,2.752,8.331
				c-0.177,4.343-3.355,8.231-7.301,10.159c0.083,3.744-1.924,7.446-6.189,9.081c-1.701,0.651-3.474,0.866-5.152,0.701
				c-1.011,1.688-2.459,3.111-4.404,4.074c-1.932,0.955-4.128,1.238-6.278,0.98c-1.213,2.291-3.893,3.665-6.655,1.894
				c-0.641-0.409-1.26-0.812-1.882-1.193c-0.31,0.287-0.58,0.588-0.797,0.904c1.768,0.883,3.794,1.617,5.484,2.645
				c1.308,0.795,1.992,1.865,3.562,2.103c1.794,0.272,3.4-0.51,4.985-1.133c3.073-1.207,6.026-2.137,9.008-3.229
				c3.078-1.127,6.387-1.727,9.337-2.889c1.371-0.541,2.671-1.29,3.587-2.543c0.964-1.322,0.816-3.566,1.682-4.664
				c1.028-1.306,2.667-0.681,3.757-1.908c1.024-1.153,0.872-3.457,0.729-4.935c-0.125-1.313-1.52-4.372-0.604-5.212
				c0.907-0.832,1.501-1.367,2.247-2.262C448.634,478.404,448.439,475.343,446.601,472.439z"/>
			<path fill="#467A48" d="M396.91,450.746c-0.104-2.028,1.709-4.558,2.944-6.118c1.29-1.632,3.321-3.168,5.212-3.931
				c4.132-1.667,9.133-0.734,11.785,3.175c0.918,1.352,1.252,3.043,1.288,4.657c-0.798-0.959-1.521-2.179-2.949-2.014
				c-1.293,0.15-2.487,1.354-3.324,2.325c-1.685,1.959-2.927,4.663-4.967,6.305c-0.828,0.668-2.06,0.852-3.057,1.098
				c-0.842,0.209-2.294,0.046-2.78-0.812c-0.527-0.929,0.862-1.723,1.421-2.343c0.662-0.736,1.075-1.631,1.66-2.419
				c0.507-0.684,0.692-1.771-0.588-1.511c-0.617,0.126-1.196,0.871-1.715,1.23c-1.137,0.788-2.274,1.919-3.329,2.843
				c0.08-0.896-0.855-1.649-1.3-2.335"/>
			<path fill="#467A48" d="M378.403,421.06c1.261-1.589,4.261-1.696,5.818-0.474c1.468,1.151,1.868,5.152,0.772,6.608
				c-0.6,0.798-1.608,1.921-2.583,2.252c-1.257,0.428-2.646-0.46-3.571-1.211c-1.055-0.857-1.829-1.872-1.949-3.248
				c-0.104-1.196,0.635-2.215,1.343-3.118c0.35-0.446,0.709-0.986,1.227-1.263"/>
			<path fill="#467A48" d="M407.787,421.438c-0.038-0.968,0.466-2.615,0.961-3.42c0.655-1.066,1.671-1.036,2.815-1.036
				c1.426,0,1.596,0.566,2.548,1.455c0.871,0.812,1.468,1.152,1.531,2.473c0.064,1.346-0.4,2.984-0.828,4.23
				c-0.35,1.019-1.556,1.858-2.646,1.812c-1.151-0.049-2.309-1.14-3.188-1.867c-0.88-0.73-1.35-1.621-1.42-2.741
				c-0.023-0.381-0.066-0.863,0.15-1.133"/>
			<path fill="#FFFFFF" d="M394.645,461.02c0.669-0.292,1.43-1.413,1.944-1.985c0.707-0.786,1.484-1.558,2.228-2.302
				c0.762-0.763,1.512-1.522,2.15-2.382c0.299-0.398,0.622-0.788,0.946-1.169c0.441-0.517,0.63-0.538,0.265-1.057
				c-0.289-0.412-0.892-0.649-1.188-1.011c-1.328,1.467-2.962,2.612-4.327,4.069c-0.858,0.916-3.926,3.354-3.21,4.532
				c0.213,0.351,0.64,0.783,0.888,1.077"/>
			<path fill="#A06D28" d="M402.122,453.088c0.784-0.27,0.918-1.107,1.304-1.718c0.317-0.506,1.329-1.357,0.983-2.004
				c-0.514-0.96-1.414,0.137-1.834,0.474c-0.42,0.338-1.604,0.811-1.648,1.347c0.585,0.16,1.495,1,1.56,1.586
				c-0.207,0.06-0.388,0.188-0.591,0.24"/>
			<path fill="#C1272D" d="M393.965,460.037c-0.298-0.077-0.57-0.317-0.823-0.439c0.085,0.118,0.133,0.302,0.209,0.426
				c-0.082,0.021-0.206-0.03-0.279-0.053c0.007,0.024,0.066,0.25,0.067,0.266c-0.121-0.262-0.328-0.483-0.537-0.701
				c0.016,0.26,0.089,0.496,0.219,0.718c-0.237-0.109-0.47-0.326-0.654-0.51c0.009,0.255,0.086,0.524,0.202,0.734
				c-0.097-0.023-0.18-0.021-0.277-0.055c0.03,0.142-0.024,0.278,0.032,0.434c-0.111-0.054-0.283-0.04-0.409-0.132
				c0.046,0.16,0.029,0.347,0.124,0.51c-0.195-0.176-0.477-0.351-0.73-0.433c0.081,0.37,0.347,0.729,0.521,1.101
				c-0.104-0.178-0.199-0.316-0.318-0.479c0.179,0.256,0.361,0.476,0.508,0.735c-0.216-0.136-0.455-0.186-0.715-0.146
				c0.05,0.185,0.135,0.407,0.296,0.565c-0.008-0.078-0.039-0.147-0.051-0.207c0.714,0.321,1.479,0.851,2.073,1.356
				c-0.1-0.431-0.52-0.847-0.785-1.191c0.09,0.14,0.19,0.291,0.273,0.42c-0.103-0.16-0.202-0.397-0.296-0.564
				c0.256,0.081,0.499,0.28,0.73,0.432c-0.029-0.152,0.01-0.268-0.05-0.417c0.14,0.207,0.322,0.289,0.503,0.418
				c0.096-0.444-0.181-0.741-0.273-1.116c0.294,0.193,0.583,0.469,0.878,0.662c0.062-0.365-0.109-0.663-0.277-0.964
				c0.164,0.134,0.375,0.3,0.522,0.492c0.021-0.284-0.01-0.545-0.1-0.795c-0.029-0.026-0.031-0.025-0.005,0.004
				c0.085,0.125,0.231,0.22,0.328,0.338c0.041-0.228,0.112-0.464,0.09-0.704c0.034,0.058,0.092,0.146,0.125,0.19
				c-0.439-0.254-1.066-0.443-1.273-0.972"/>
			<g>
				<g>
					<g>
						<g>
							<path d="M436.509,488.969c0,0,0.174,0.056,0.506,0.162c0.17,0.046,0.372,0.124,0.602,0.241
								c0.239,0.1,0.501,0.241,0.778,0.436c0.556,0.374,1.203,0.951,1.673,1.826c0.474,0.866,0.75,2.004,0.702,3.255
								c-0.043,1.253-0.434,2.594-1.133,3.898c-0.746,1.272-1.837,2.489-3.242,3.394c-1.397,0.914-3.037,1.518-4.727,1.946
								c-0.878,0.205-1.618,0.45-2.447,0.674c-0.409,0.099-0.812,0.242-1.21,0.408c-0.401,0.154-0.806,0.31-1.213,0.467
								c-1.611,0.674-3.163,1.451-4.679,2.234c-1.551,0.721-3.024,1.437-4.566,1.975c-1.532,0.527-3.151,0.804-4.622,0.616
								c-1.473-0.17-2.773-0.611-3.837-1.186c-2.174-1.09-3.616-2.401-4.616-3.258c-0.99-0.879-1.513-1.389-1.513-1.389
								s0.599,0.419,1.679,1.176c1.092,0.725,2.659,1.845,4.803,2.68c1.062,0.456,2.273,0.739,3.564,0.795
								c1.305,0.068,2.659-0.255,4.037-0.806c1.375-0.561,2.824-1.334,4.328-2.085c1.475-0.815,3.053-1.64,4.761-2.354
								c0.433-0.165,0.863-0.329,1.291-0.492c0.424-0.172,0.854-0.319,1.299-0.422c0.864-0.224,1.775-0.487,2.555-0.646
								c1.602-0.359,3.092-0.849,4.347-1.579c1.26-0.722,2.255-1.697,2.997-2.764c0.69-1.091,1.146-2.257,1.282-3.357
								c0.143-1.1,0.005-2.124-0.333-2.945c-0.334-0.827-0.861-1.428-1.343-1.848c-0.239-0.218-0.473-0.386-0.691-0.511
								c-0.207-0.144-0.394-0.246-0.554-0.314C436.673,489.049,436.509,488.969,436.509,488.969z"/>
						</g>
					</g>
				</g>
				<g>
					<g>
						<g>
							<path d="M441.506,481.117c0,0,0.057,0.027,0.166,0.078c0.106,0.054,0.277,0.123,0.468,0.255
								c0.398,0.241,0.941,0.677,1.468,1.347c1.053,1.325,2.033,3.592,2.009,6.228c-0.011,1.31-0.282,2.58-0.814,3.637
								c-0.506,1.064-1.333,1.872-2.136,2.269c-0.817,0.393-1.536,0.428-1.998,0.391c-0.466-0.044-0.708-0.107-0.708-0.107
								c-0.038-0.045,1.121-0.05,2.228-1.006c1.101-0.95,1.694-2.936,1.695-5.201c0.022-2.268-0.425-4.354-1.02-5.764
								c-0.295-0.707-0.633-1.245-0.906-1.593c-0.128-0.185-0.252-0.304-0.33-0.395
								C441.548,481.165,441.506,481.117,441.506,481.117z"/>
						</g>
					</g>
				</g>
				<g>
					<g>
						<g>
							<path d="M439.781,466.307c-0.027,0.064,1.362-0.331,3.427,0.616c1.017,0.468,2.086,1.342,2.977,2.527
								c0.881,1.185,1.576,2.689,2.006,4.292c0.453,1.712,0.357,3.382,0.014,4.816c-0.337,1.439-0.973,2.669-1.754,3.498
								c-0.775,0.834-1.636,1.241-2.236,1.347c-0.29,0.087-0.536,0.058-0.688,0.08c-0.155,0.008-0.236,0.013-0.236,0.013
								s0.077-0.029,0.223-0.086c0.142-0.068,0.366-0.104,0.61-0.261c0.513-0.248,1.142-0.79,1.639-1.618
								c0.506-0.825,0.861-1.953,1.006-3.236c0.153-1.276,0.12-2.725-0.249-4.103c-0.4-1.48-0.908-2.807-1.552-3.934
								c-0.649-1.111-1.415-2.006-2.207-2.594c-0.785-0.598-1.553-0.933-2.103-1.112
								C440.105,466.383,439.781,466.307,439.781,466.307z"/>
						</g>
					</g>
				</g>
				<g>
					<g>
						<g>
							<path d="M434.368,447.929c0,0,0.33,0.035,0.923,0.097c0.308,0.018,0.662,0.11,1.076,0.234
								c0.21,0.061,0.434,0.125,0.671,0.193c0.226,0.1,0.463,0.204,0.713,0.315c1.019,0.425,2.117,1.184,3.185,2.212
								c1.034,1.044,2.007,2.47,2.446,4.214c0.399,1.763,0.222,3.388-0.079,4.817c-0.087,0.354-0.171,0.699-0.253,1.035
								c-0.117,0.323-0.23,0.638-0.341,0.942c-0.201,0.611-0.5,1.139-0.748,1.621c-0.229,0.492-0.548,0.883-0.785,1.238
								c-0.233,0.36-0.475,0.64-0.692,0.854c-0.414,0.428-0.644,0.666-0.644,0.666s0.15-0.293,0.421-0.82
								c0.146-0.253,0.302-0.572,0.438-0.967c0.14-0.391,0.348-0.804,0.466-1.311c0.137-0.496,0.318-1.022,0.409-1.618
								c0.058-0.292,0.118-0.594,0.18-0.904c0.035-0.314,0.07-0.637,0.107-0.969c0.125-1.305,0.159-2.801-0.162-4.184
								c-0.344-1.362-1.051-2.616-1.855-3.646c-0.826-1.002-1.686-1.861-2.525-2.433c-0.207-0.15-0.404-0.295-0.591-0.432
								c-0.201-0.112-0.391-0.219-0.567-0.318c-0.355-0.209-0.667-0.388-0.942-0.48
								C434.671,448.057,434.368,447.929,434.368,447.929z"/>
						</g>
					</g>
				</g>
				<g>
					<g>
						<g>
							<path d="M417.655,442.754c0.018-0.001-0.108-0.295-0.035-0.881c0.038-0.592,0.608-1.444,1.6-1.904
								c0.974-0.482,2.225-0.705,3.582-0.734c1.363-0.022,2.838,0.119,4.381,0.568c0.194,0.06,0.389,0.125,0.585,0.2l0.337,0.144
								l0.27,0.162c0.322,0.201,0.65,0.385,0.948,0.601c0.297,0.216,0.589,0.429,0.875,0.637c0.27,0.229,0.533,0.455,0.79,0.675
								c0.997,0.916,1.798,1.853,2.311,2.75c0.128,0.221,0.25,0.431,0.365,0.631c0.099,0.209,0.173,0.418,0.249,0.605
								c0.151,0.377,0.278,0.695,0.31,0.985c0.094,0.55,0.147,0.855,0.147,0.855s-0.143-0.272-0.399-0.76
								c-0.103-0.248-0.31-0.514-0.537-0.818c-0.115-0.151-0.225-0.318-0.358-0.484c-0.147-0.155-0.304-0.32-0.468-0.493
								c-0.634-0.698-1.519-1.409-2.53-2.129c-0.258-0.176-0.522-0.355-0.792-0.538c-0.278-0.169-0.564-0.343-0.853-0.519
								c-0.287-0.18-0.598-0.331-0.898-0.506l-0.205-0.115l-0.174-0.068l-0.473-0.156c-2.693-0.743-5.413-1.083-7.154-0.682
								c-0.874,0.198-1.448,0.683-1.648,1.171C417.664,442.428,417.671,442.76,417.655,442.754z"/>
						</g>
					</g>
				</g>
				<g>
					<path d="M399.399,452.722c-0.192-0.219-0.375-0.445-0.551-0.679c-0.611-0.818-1.121-1.729-1.48-2.71
						c-0.181-0.49-0.322-0.995-0.426-1.515c-0.102-0.517-0.159-1.046-0.174-1.578c-0.031-1.067,0.116-2.127,0.41-3.134
						c0.294-1.009,0.729-1.966,1.262-2.852l0.101-0.165c0.032-0.057,0.07-0.11,0.103-0.164c0.07-0.107,0.138-0.218,0.212-0.324
						c0.074-0.107,0.15-0.215,0.224-0.32s0.148-0.208,0.222-0.312c0.298-0.4,0.623-0.773,0.968-1.12
						c0.692-0.693,1.473-1.276,2.295-1.743c0.823-0.468,1.687-0.82,2.557-1.068c0.871-0.248,1.747-0.395,2.601-0.448
						c0.428-0.027,0.85-0.03,1.27-0.019c0.104,0.004,0.207,0.006,0.311,0.011c0.104,0.001,0.203,0.013,0.306,0.02
						c0.202,0.011,0.402,0.035,0.599,0.06c0.392,0.054,0.773,0.12,1.138,0.219c0.184,0.045,0.361,0.104,0.538,0.159
						c0.087,0.029,0.172,0.062,0.258,0.094c0.044,0.015,0.086,0.032,0.129,0.048c0.042,0.016,0.083,0.034,0.124,0.052
						c0.084,0.036,0.166,0.07,0.247,0.105c0.08,0.04,0.159,0.08,0.239,0.118c0.039,0.02,0.079,0.039,0.118,0.059
						c0.036,0.021,0.074,0.043,0.112,0.064c0.076,0.043,0.154,0.083,0.226,0.127c0.146,0.093,0.291,0.18,0.426,0.281
						c0.068,0.049,0.138,0.094,0.202,0.146c0.066,0.052,0.131,0.104,0.194,0.154c0.065,0.049,0.127,0.104,0.188,0.156
						c0.06,0.056,0.123,0.106,0.18,0.161c0.058,0.056,0.114,0.11,0.171,0.166c0.029,0.029,0.059,0.055,0.085,0.083
						c0.027,0.028,0.054,0.057,0.081,0.085c0.052,0.056,0.105,0.113,0.156,0.171c0.052,0.057,0.1,0.116,0.149,0.173
						c0.101,0.113,0.19,0.232,0.281,0.348c0.355,0.468,0.644,0.94,0.883,1.393c0.237,0.453,0.427,0.882,0.585,1.275
						c0.312,0.787,0.499,1.422,0.62,1.855c0.062,0.215,0.102,0.381,0.132,0.493c0.03,0.111,0.044,0.168,0.044,0.168
						s-0.007-0.059-0.024-0.172c-0.017-0.115-0.038-0.285-0.078-0.507c-0.076-0.443-0.198-1.098-0.438-1.928
						c-0.121-0.413-0.273-0.869-0.478-1.356c-0.203-0.487-0.459-1.007-0.796-1.534c-0.085-0.132-0.169-0.266-0.267-0.395
						c-0.048-0.066-0.096-0.134-0.145-0.2c-0.051-0.065-0.103-0.131-0.154-0.195c-0.025-0.032-0.053-0.066-0.081-0.1
						c-0.025-0.033-0.055-0.063-0.083-0.096c-0.056-0.064-0.113-0.129-0.17-0.194c-0.059-0.066-0.121-0.127-0.184-0.19
						c-0.061-0.063-0.123-0.129-0.189-0.188c-0.066-0.062-0.133-0.123-0.2-0.184c-0.065-0.063-0.14-0.119-0.21-0.179
						c-0.143-0.122-0.296-0.231-0.448-0.347c-0.078-0.056-0.161-0.106-0.239-0.16c-0.041-0.026-0.082-0.053-0.122-0.08
						c-0.041-0.025-0.085-0.051-0.128-0.074c-0.084-0.051-0.169-0.102-0.255-0.149c-0.089-0.048-0.175-0.094-0.266-0.141
						c-0.045-0.022-0.09-0.046-0.136-0.067c-0.047-0.021-0.092-0.041-0.137-0.062c-0.097-0.042-0.188-0.087-0.282-0.125
						c-0.191-0.075-0.386-0.154-0.586-0.219c-0.397-0.136-0.817-0.239-1.244-0.326c-0.214-0.04-0.431-0.082-0.653-0.107
						c-0.108-0.014-0.221-0.032-0.331-0.041c-0.11-0.011-0.222-0.021-0.334-0.031c-0.443-0.042-0.904-0.063-1.372-0.06
						c-0.939,0.005-1.913,0.115-2.893,0.343c-0.98,0.23-1.969,0.58-2.92,1.072c-0.953,0.49-1.87,1.123-2.694,1.898
						c-0.413,0.39-0.803,0.81-1.158,1.265c-0.087,0.115-0.173,0.229-0.26,0.343c-0.084,0.113-0.165,0.228-0.25,0.342
						c-0.083,0.113-0.161,0.236-0.243,0.354c-0.038,0.061-0.083,0.119-0.121,0.181l-0.114,0.184c-0.62,0.98-1.138,2.065-1.492,3.232
						c-0.354,1.165-0.538,2.411-0.501,3.672c0.018,0.632,0.09,1.255,0.213,1.865c0.123,0.61,0.296,1.205,0.514,1.776
						c0.434,1.145,1.045,2.195,1.768,3.119c0.236,0.3,0.482,0.585,0.738,0.858C398.557,453.435,398.942,452.985,399.399,452.722z"/>
					<path d="M417.954,449.232c-0.001-0.114-0.001-0.174-0.001-0.174s-0.007,0.06-0.021,0.172c-0.013,0.116-0.027,0.286-0.056,0.51
						c-0.014,0.11-0.03,0.235-0.047,0.372c-0.021,0.137-0.043,0.286-0.068,0.449c-0.024,0.161-0.059,0.335-0.092,0.52
						c-0.016,0.094-0.037,0.188-0.059,0.285c-0.022,0.099-0.038,0.199-0.066,0.302c-0.096,0.411-0.222,0.862-0.398,1.341
						c-0.176,0.476-0.4,0.98-0.717,1.468c-0.153,0.247-0.339,0.482-0.536,0.716c-0.054,0.055-0.105,0.112-0.159,0.168
						c-0.027,0.027-0.053,0.057-0.08,0.083c-0.029,0.027-0.058,0.054-0.086,0.08c-0.059,0.054-0.114,0.108-0.175,0.161
						c-0.062,0.05-0.124,0.098-0.186,0.15c-0.063,0.052-0.128,0.097-0.196,0.145c-0.068,0.045-0.13,0.099-0.202,0.139
						c-0.069,0.042-0.142,0.087-0.214,0.131c-0.034,0.022-0.071,0.043-0.109,0.061c-0.037,0.02-0.074,0.04-0.113,0.06
						c-0.147,0.083-0.309,0.147-0.465,0.222c-0.083,0.033-0.165,0.062-0.248,0.094c-0.039,0.016-0.082,0.032-0.124,0.048
						c-0.043,0.015-0.085,0.028-0.128,0.041c-0.086,0.027-0.173,0.054-0.259,0.082c-0.088,0.022-0.177,0.046-0.267,0.068
						c-0.046,0.014-0.09,0.025-0.136,0.036c-0.045,0.009-0.091,0.018-0.137,0.028c-0.093,0.02-0.184,0.04-0.278,0.059
						c-0.092,0.014-0.188,0.029-0.283,0.047c-0.049,0.007-0.094,0.013-0.143,0.022c-0.048,0.005-0.097,0.011-0.144,0.017
						c-0.097,0.011-0.196,0.024-0.293,0.035c-0.099,0.009-0.198,0.017-0.298,0.024c-0.199,0.021-0.403,0.024-0.608,0.036
						c-0.202,0.009-0.412,0.007-0.619,0.012c-0.212-0.005-0.424-0.005-0.637-0.013c-0.107-0.006-0.213-0.011-0.32-0.014
						c-0.106-0.005-0.213-0.017-0.32-0.023c-1.72-0.134-3.532-0.57-5.254-1.415c-0.813-0.397-1.602-0.892-2.342-1.471
						c-0.162,0.167-0.334,0.327-0.486,0.5c-0.194,0.22-0.388,0.44-0.585,0.655c0.89,0.669,1.832,1.217,2.799,1.639
						c0.971,0.429,1.96,0.74,2.936,0.946c0.244,0.053,0.488,0.095,0.73,0.137c0.242,0.036,0.483,0.074,0.725,0.097
						c0.239,0.03,0.479,0.047,0.716,0.066c0.235,0.013,0.471,0.027,0.705,0.03c0.115,0.001,0.23,0.007,0.345,0.004
						c0.117-0.001,0.232-0.003,0.345-0.004c0.23-0.005,0.452-0.018,0.675-0.027c0.225-0.018,0.444-0.03,0.662-0.053
						c0.22-0.025,0.437-0.044,0.65-0.08c0.106-0.014,0.212-0.031,0.318-0.047c0.107-0.02,0.212-0.039,0.316-0.059
						c0.052-0.011,0.104-0.021,0.156-0.03c0.052-0.013,0.102-0.024,0.154-0.036c0.103-0.022,0.205-0.048,0.307-0.07
						c0.102-0.027,0.201-0.057,0.301-0.085c0.05-0.015,0.101-0.027,0.148-0.043c0.05-0.013,0.099-0.032,0.146-0.049
						c0.1-0.031,0.197-0.064,0.293-0.098c0.095-0.035,0.188-0.074,0.283-0.111c0.046-0.018,0.092-0.037,0.139-0.057
						c0.047-0.021,0.09-0.041,0.137-0.062c0.09-0.043,0.181-0.084,0.27-0.127c0.174-0.095,0.349-0.182,0.509-0.289
						c0.042-0.026,0.082-0.052,0.123-0.077c0.041-0.026,0.082-0.05,0.119-0.079c0.078-0.056,0.155-0.112,0.232-0.167
						c0.076-0.055,0.147-0.117,0.218-0.176c0.071-0.059,0.143-0.116,0.208-0.181c0.066-0.064,0.134-0.126,0.198-0.188
						c0.062-0.064,0.121-0.131,0.184-0.196c0.029-0.032,0.058-0.064,0.087-0.098c0.028-0.033,0.057-0.067,0.083-0.1
						c0.056-0.067,0.108-0.135,0.163-0.203c0.199-0.275,0.381-0.551,0.524-0.833c0.296-0.559,0.489-1.11,0.629-1.622
						c0.135-0.513,0.223-0.986,0.278-1.414c0.019-0.107,0.025-0.213,0.039-0.312c0.011-0.1,0.023-0.197,0.032-0.294
						c0.014-0.191,0.029-0.366,0.038-0.532c0.009-0.164,0.017-0.315,0.024-0.456c0.002-0.139,0.006-0.265,0.007-0.377
						C417.956,449.52,417.953,449.349,417.954,449.232z"/>
				</g>
				<g>
					<g>
						<g>
							<path d="M432.405,467.556c0,0-0.361,0.051-1.011,0.143c-0.166,0.021-0.35,0.044-0.551,0.069
								c-0.202,0-0.421-0.001-0.657-0.001c-0.474-0.001-1.021,0.005-1.611-0.103c-0.299-0.044-0.612-0.089-0.939-0.137
								c-0.318-0.085-0.649-0.174-0.993-0.265c-0.701-0.155-1.386-0.495-2.139-0.79c-1.441-0.716-2.936-1.727-4.23-3.095
								c-1.302-1.363-2.178-2.986-2.712-4.518c-0.115-0.391-0.228-0.771-0.338-1.141c-0.067-0.381-0.113-0.753-0.164-1.109
								c-0.141-0.707-0.05-1.388-0.056-1.988c0.119-1.205,0.326-2.151,0.589-2.765c0.231-0.614,0.359-0.955,0.359-0.955
								s-0.034,0.361-0.095,1.013c-0.102,0.636-0.084,1.579,0.013,2.69c0.113,0.554,0.125,1.166,0.353,1.785
								c0.091,0.311,0.185,0.631,0.28,0.962c0.136,0.315,0.276,0.641,0.42,0.975c0.62,1.302,1.461,2.66,2.618,3.87
								c1.149,1.213,2.418,2.197,3.655,2.989c0.649,0.332,1.238,0.733,1.853,0.965c0.302,0.135,0.594,0.265,0.874,0.391
								c0.291,0.096,0.571,0.189,0.839,0.277c0.533,0.205,1.035,0.303,1.479,0.402c0.224,0.053,0.431,0.101,0.622,0.145
								c0.194,0.022,0.372,0.043,0.532,0.062C432.045,467.51,432.405,467.556,432.405,467.556z"/>
						</g>
					</g>
				</g>
				<g>
					<g>
						<g>
							<path d="M432.702,488.375c0,0-0.079-0.04-0.23-0.115c-0.151-0.076-0.38-0.187-0.647-0.371
								c-0.548-0.35-1.299-0.952-2.058-1.855c-1.52-1.786-3.121-4.772-3.55-8.406c-0.211-1.809-0.084-3.596,0.402-5.143
								c0.485-1.542,1.347-2.825,2.317-3.574c0.964-0.766,1.901-1.075,2.534-1.21c0.642-0.124,0.994-0.145,0.994-0.145
								s-0.338,0.13-0.903,0.399c-0.56,0.278-1.333,0.77-2.022,1.577c-0.701,0.798-1.23,1.961-1.505,3.321
								c-0.272,1.367-0.287,2.937-0.097,4.573c0.385,3.283,1.455,6.188,2.538,8.109c0.539,0.966,1.095,1.685,1.522,2.146
								c0.207,0.24,0.393,0.402,0.516,0.517C432.638,488.314,432.702,488.375,432.702,488.375z"/>
						</g>
					</g>
				</g>
				<g>
					<g>
						<g>
							<path d="M422.71,497.059c0,0-0.046-0.234-0.128-0.652c-0.048-0.215-0.072-0.478-0.081-0.785
								c-0.019-0.309-0.033-0.665,0.009-1.053c0.097-1.548,0.662-3.777,2.351-5.67c0.857-0.922,1.95-1.596,3.044-1.879
								c1.1-0.334,2.145-0.106,2.908,0.111c0.754,0.315,1.297,0.634,1.619,0.936c0.327,0.272,0.51,0.425,0.51,0.425
								s-0.227-0.066-0.636-0.186c-0.387-0.154-0.983-0.249-1.67-0.327c-0.696,0.021-1.496,0.032-2.268,0.428
								c-0.773,0.352-1.532,0.92-2.233,1.666c-1.373,1.533-2.28,3.314-2.776,4.674c-0.142,0.338-0.231,0.654-0.311,0.936
								c-0.091,0.281-0.16,0.527-0.193,0.732C422.761,496.827,422.71,497.059,422.71,497.059z"/>
						</g>
					</g>
				</g>
				<g>
					<g>
						<g>
							<path d="M412.48,503.481c0,0-0.052-0.206-0.144-0.574c-0.048-0.189-0.098-0.425-0.095-0.702
								c-0.004-0.276-0.041-0.607,0.03-0.955c0.065-0.719,0.355-1.548,0.837-2.388c0.514-0.814,1.249-1.615,2.184-2.229
								c0.942-0.605,1.979-0.933,2.929-1.066c0.96-0.113,1.833-0.017,2.516,0.193c0.681,0.211,1.19,0.468,1.497,0.708
								c0.305,0.226,0.476,0.352,0.476,0.352s-0.208-0.036-0.578-0.102c-0.354-0.084-0.892-0.117-1.51-0.1
								c-0.624,0.017-1.344,0.143-2.097,0.378c-0.748,0.259-1.534,0.606-2.294,1.094c-0.752,0.496-1.399,1.059-1.941,1.634
								c-0.506,0.597-0.935,1.192-1.184,1.761c-0.163,0.273-0.227,0.548-0.32,0.787c-0.101,0.24-0.146,0.457-0.179,0.637
								C412.526,503.275,412.48,503.481,412.48,503.481z"/>
						</g>
					</g>
				</g>
				<g>
					<g>
						<g>
							<path d="M403.201,506.098c0,0,0.064-0.159,0.178-0.443c0.133-0.273,0.284-0.72,0.599-1.179
								c0.587-0.947,1.653-2.143,3.169-2.997c1.542-0.81,3.153-1.046,4.276-0.965c0.56,0.006,1.013,0.168,1.311,0.224
								c0.294,0.081,0.46,0.126,0.46,0.126s-0.167,0.053-0.463,0.145c-0.292,0.106-0.711,0.161-1.196,0.363
								c-0.985,0.344-2.223,0.933-3.561,1.628c-1.312,0.745-2.502,1.464-3.364,2.068c-0.447,0.283-0.755,0.577-1.014,0.749
								C403.344,505.997,403.201,506.098,403.201,506.098z"/>
						</g>
					</g>
				</g>
				<g>
					<g>
						<g>
							<path d="M412.718,426.159c0,0,0.087,0.248,0.217,0.71c0.117,0.461,0.329,1.145,0.438,2.007
								c0.183,1.708,0.075,4.217-0.928,6.659c-1.009,2.423-2.435,4.267-3.532,5.532c-1.097,1.266-1.903,1.984-1.903,1.984
								s0.142-1.068,0.579-2.691c0.436-1.62,1.161-3.759,2.071-5.947c0.896-2.19,1.655-4.147,2.219-5.684
								c0.247-0.782,0.448-1.419,0.588-1.86C412.627,426.413,412.718,426.159,412.718,426.159z"/>
						</g>
					</g>
				</g>
				<g>
					<g>
						<g>
							<path d="M411.054,416.643c0,0,0.156,0.02,0.456,0.055c0.301,0.035,0.742,0.105,1.32,0.23
								c0.565,0.161,1.308,0.322,2.087,0.874c0.782,0.521,1.542,1.488,1.88,2.705c-0.003-0.012-0.011-0.048-0.019-0.083
								c0.414,1.09,0.679,2.587,0.128,4.268c-0.28,0.826-0.813,1.722-1.71,2.374c-0.902,0.661-2.06,0.946-3.176,0.814
								c-1.386-0.2-2.586-0.892-3.433-1.81c-0.863-0.921-1.268-2.037-1.486-3.069c-0.217-1.047-0.093-2.065,0.12-2.963
								c0.308-0.888,0.702-1.688,1.311-2.227c0.261-0.3,0.587-0.498,0.894-0.672c0.287-0.203,0.613-0.275,0.898-0.36
								c0.142-0.04,0.279-0.077,0.41-0.113c0.136-0.006,0.267-0.012,0.392-0.018c0.241-0.005,0.463-0.01,0.662-0.015
								c0.78,0.143,1.169,0.248,1.169,0.248s-0.401,0.078-1.126,0.22c-0.673,0.241-1.62,0.678-2.128,1.649
								c-0.294,0.447-0.389,1.06-0.464,1.667c0.015,0.637,0.057,1.311,0.318,1.96c0.257,0.629,0.589,1.268,1.097,1.695
								c0.491,0.43,1.091,0.713,1.712,0.823c0.908,0.087,1.548-0.32,2.022-1.205c0.45-0.877,0.524-1.935,0.457-2.741l-0.018-0.084
								c-0.062-0.841-0.338-1.522-0.784-2.072c-0.431-0.561-1.021-0.925-1.473-1.244c-0.476-0.295-0.859-0.523-1.121-0.672
								C411.188,416.724,411.054,416.643,411.054,416.643z"/>
						</g>
					</g>
				</g>
				<g>
					<g>
						<g>
							<path d="M400.703,442.22c0,0-0.287-0.16-0.803-0.485c-0.536-0.312-1.213-0.858-2.045-1.562
								c-1.632-1.419-3.58-3.65-5.489-6.06c-0.474-0.616-0.94-1.169-1.384-1.703c-0.438-0.532-0.762-0.864-1.245-1.184
								c-0.915-0.627-2.132-0.982-3.17-1.55c-1.064-0.548-1.703-1.415-1.907-1.998c-0.134-0.286-0.165-0.531-0.204-0.686
								c-0.031-0.155-0.048-0.237-0.048-0.237c0.024-0.071,0.789,1.32,2.664,1.508c0.922,0.154,2.231,0.094,3.808,0.702
								c0.766,0.281,1.594,0.873,2.169,1.448c0.586,0.563,1.158,1.171,1.659,1.82c2.053,2.596,3.32,5.174,4.323,7.005
								c0.508,0.9,0.888,1.679,1.206,2.17C400.537,441.93,400.703,442.22,400.703,442.22z"/>
						</g>
					</g>
				</g>
				<g>
					<g>
						<g>
							<path d="M382.503,419.736c0,0,0.11,0.026,0.32,0.076c0.214,0.046,0.522,0.15,0.902,0.344
								c0.751,0.374,1.804,1.259,2.405,2.776c0.581,1.489,0.842,3.541-0.128,5.698c-0.485,1.048-1.437,2.185-2.897,2.662
								c-0.716,0.229-1.486,0.265-2.199,0.161c-0.727-0.095-1.354-0.354-1.983-0.651c-0.639-0.343-1.202-0.785-1.68-1.309
								c-0.469-0.532-0.823-1.14-1.07-1.76c-0.483-1.252-0.512-2.522-0.305-3.634c0.418-2.225,1.811-3.979,3.439-4.642
								c0.805-0.341,1.626-0.345,2.255-0.209c0.644,0.129,1.105,0.422,1.464,0.641c0.343,0.254,0.586,0.46,0.733,0.623
								c0.151,0.153,0.23,0.233,0.23,0.233s-0.104-0.044-0.303-0.127c-0.19-0.093-0.488-0.192-0.859-0.304
								c-0.739-0.194-1.898-0.27-2.812,0.466c-0.909,0.694-1.591,2.094-1.635,3.632c-0.058,1.552,0.579,3.05,1.928,3.725
								c1.544,0.771,2.597,0.517,3.471-0.729c0.821-1.221,1.053-2.834,0.901-4.08c-0.143-1.276-0.712-2.238-1.239-2.798
								c-0.263-0.282-0.502-0.485-0.676-0.603C382.594,419.803,382.503,419.736,382.503,419.736z"/>
						</g>
					</g>
				</g>
				<g>
					<path d="M423.305,493.675c-0.423,0.241-0.866,0.469-1.333,0.684c-0.146,0.069-0.298,0.135-0.449,0.202
						c-0.078,0.031-0.153,0.066-0.23,0.1c-0.074,0.028-0.152,0.06-0.229,0.092c-0.075,0.032-0.151,0.061-0.228,0.094
						c-0.079,0.029-0.162,0.056-0.244,0.083c-0.164,0.056-0.328,0.111-0.493,0.167c-1.338,0.453-2.774,0.919-4.275,1.445
						c-0.188,0.067-0.377,0.134-0.566,0.201c-0.19,0.071-0.381,0.143-0.571,0.211c-0.387,0.138-0.772,0.294-1.164,0.442
						c-0.779,0.315-1.577,0.645-2.375,1.027c-0.403,0.184-0.801,0.393-1.203,0.597c-0.203,0.103-0.4,0.218-0.603,0.327
						c-0.1,0.056-0.201,0.111-0.302,0.166c-0.102,0.055-0.2,0.118-0.3,0.177c-0.199,0.117-0.4,0.239-0.602,0.359
						c-0.198,0.126-0.395,0.255-0.594,0.384c-0.098,0.065-0.197,0.129-0.298,0.194c-0.097,0.07-0.195,0.139-0.292,0.206
						c-0.193,0.14-0.39,0.277-0.585,0.419c-1.52,1.11-3.037,2.334-4.57,3.579c-1.537,1.247-3.103,2.523-4.752,3.716
						c-1.65,1.194-3.393,2.303-5.265,3.146c-0.936,0.421-1.903,0.771-2.897,1.027c-0.994,0.258-2.017,0.42-3.052,0.476
						c-0.128,0.004-0.259,0.011-0.39,0.016l-0.196,0.007c-0.066,0.002-0.132-0.001-0.198-0.002c-0.134,0-0.27-0.002-0.401-0.003
						l-0.201-0.001l-0.206-0.004c-0.137-0.004-0.273-0.009-0.411-0.012c-0.139-0.006-0.277-0.006-0.409-0.018
						c-0.136-0.008-0.27-0.018-0.404-0.026c-0.134-0.009-0.268-0.015-0.403-0.032c-1.073-0.098-2.146-0.279-3.195-0.557
						c-2.1-0.552-4.118-1.487-5.926-2.787c-0.116-0.077-0.226-0.163-0.336-0.249l-0.335-0.254c-0.111-0.085-0.222-0.179-0.334-0.266
						c-0.111-0.089-0.219-0.179-0.329-0.27c-0.435-0.362-0.865-0.748-1.296-1.141c-0.862-0.784-1.726-1.606-2.637-2.406
						c-0.91-0.8-1.866-1.58-2.918-2.27c-0.526-0.345-1.076-0.665-1.653-0.948c-0.575-0.282-1.177-0.525-1.799-0.716
						c-0.155-0.045-0.31-0.095-0.466-0.133c-0.157-0.038-0.312-0.081-0.469-0.114c-0.156-0.031-0.314-0.064-0.471-0.095
						c-0.159-0.025-0.315-0.053-0.475-0.074c-0.632-0.089-1.264-0.122-1.883-0.115c-1.244,0.014-2.438,0.195-3.571,0.454
						c-1.134,0.259-2.21,0.595-3.245,0.948c-1.035,0.352-2.032,0.725-3.004,1.078c-0.973,0.352-1.926,0.684-2.86,0.958
						c-0.935,0.274-1.855,0.494-2.757,0.613c-0.452,0.06-0.897,0.097-1.338,0.104c-0.439,0.011-0.871-0.014-1.296-0.063
						c-0.422-0.051-0.838-0.131-1.239-0.241c-0.404-0.113-0.796-0.255-1.176-0.422c-0.381-0.169-0.744-0.369-1.1-0.583
						c-0.173-0.113-0.35-0.221-0.517-0.345c-0.085-0.06-0.171-0.116-0.253-0.182c-0.082-0.064-0.163-0.126-0.245-0.19
						c-0.085-0.061-0.162-0.131-0.242-0.197c-0.079-0.065-0.157-0.133-0.237-0.199c-0.076-0.07-0.154-0.141-0.228-0.209
						l-0.107-0.098c-0.01-0.01-0.022-0.017-0.032-0.03l-0.014-0.015l-0.008-0.009l-0.014-0.016
						c-0.139-0.157-0.277-0.315-0.413-0.474c-0.138-0.159-0.266-0.323-0.398-0.483c-0.516-0.649-0.998-1.309-1.426-1.985
						c-0.054-0.082-0.108-0.167-0.163-0.251c-0.052-0.082-0.103-0.168-0.152-0.252c-0.102-0.17-0.202-0.34-0.305-0.507
						c-0.093-0.171-0.188-0.343-0.28-0.511c-0.046-0.085-0.093-0.169-0.138-0.253c-0.044-0.086-0.087-0.173-0.128-0.258
						c-0.087-0.171-0.17-0.341-0.256-0.509c-0.078-0.174-0.154-0.343-0.23-0.514c-0.039-0.084-0.077-0.168-0.114-0.253
						c-0.034-0.087-0.069-0.171-0.104-0.257c-0.068-0.171-0.137-0.341-0.204-0.508c-0.245-0.682-0.472-1.353-0.627-2.021
						c-0.039-0.166-0.084-0.332-0.119-0.497c-0.03-0.166-0.064-0.33-0.093-0.494c-0.015-0.082-0.03-0.163-0.046-0.244
						c-0.013-0.081-0.022-0.163-0.033-0.244c-0.02-0.161-0.041-0.322-0.062-0.482l-0.015-0.121l-0.009-0.12
						c-0.006-0.08-0.01-0.159-0.016-0.237c-0.011-0.158-0.022-0.316-0.031-0.472c-0.001-0.154-0.009-0.307-0.005-0.459
						c0.001-0.077,0.004-0.152,0.006-0.228c0.002-0.074,0.004-0.15,0.009-0.224c0.067-1.194,0.363-2.29,0.789-3.236
						c0.427-0.947,0.966-1.752,1.504-2.436c0.538-0.687,1.073-1.255,1.549-1.734c0.479-0.48,0.899-0.871,1.244-1.185
						c0.343-0.314,0.608-0.549,0.786-0.708c0.179-0.157,0.27-0.238,0.27-0.238s-0.098,0.071-0.292,0.212
						c-0.191,0.143-0.478,0.351-0.847,0.635c-0.371,0.283-0.828,0.639-1.35,1.081c-0.52,0.443-1.108,0.975-1.72,1.634
						c-0.607,0.657-1.235,1.451-1.77,2.432c-0.265,0.487-0.503,1.024-0.693,1.603c-0.19,0.577-0.334,1.2-0.418,1.853
						c-0.013,0.081-0.022,0.162-0.031,0.246c-0.006,0.081-0.017,0.163-0.026,0.248c-0.015,0.166-0.026,0.334-0.035,0.504
						c-0.004,0.169-0.015,0.339-0.015,0.511v0.257l0.013,0.132l0.021,0.13c0.01,0.175,0.021,0.35,0.032,0.525
						c0.005,0.089,0.009,0.177,0.018,0.266c0.012,0.088,0.022,0.177,0.033,0.266c0.021,0.178,0.043,0.358,0.064,0.539
						c0.024,0.18,0.062,0.359,0.092,0.541c0.121,0.729,0.315,1.461,0.535,2.208c0.061,0.185,0.122,0.371,0.184,0.558
						c0.031,0.094,0.062,0.187,0.094,0.281c0.035,0.094,0.071,0.186,0.105,0.278c0.071,0.187,0.143,0.375,0.215,0.564
						c0.078,0.186,0.159,0.37,0.237,0.56c0.041,0.094,0.082,0.188,0.121,0.281c0.046,0.094,0.089,0.188,0.133,0.279
						c0.09,0.186,0.18,0.375,0.268,0.562c0.097,0.188,0.194,0.372,0.292,0.561c0.05,0.093,0.098,0.188,0.149,0.278
						c0.052,0.093,0.104,0.186,0.159,0.279c0.414,0.747,0.892,1.479,1.409,2.211c0.135,0.18,0.263,0.363,0.399,0.543
						c0.141,0.178,0.281,0.357,0.422,0.538l0.07,0.087c0.023,0.032,0.056,0.06,0.084,0.091l0.131,0.131
						c0.081,0.083,0.166,0.168,0.25,0.251c0.085,0.082,0.173,0.162,0.262,0.244c0.085,0.081,0.173,0.164,0.266,0.242
						c0.092,0.078,0.184,0.156,0.275,0.235c0.093,0.08,0.19,0.154,0.287,0.228c0.188,0.156,0.393,0.296,0.596,0.441
						c0.413,0.279,0.845,0.544,1.304,0.775c0.461,0.229,0.942,0.429,1.442,0.596c0.5,0.162,1.017,0.285,1.545,0.374
						c0.526,0.087,1.061,0.139,1.597,0.148c0.536,0.014,1.071-0.008,1.603-0.059c1.067-0.096,2.114-0.307,3.142-0.566
						c1.029-0.26,2.038-0.576,3.042-0.9c1.003-0.323,1.999-0.661,2.997-0.968c1-0.31,2.002-0.587,3.006-0.79
						c1.005-0.2,2.01-0.323,3.001-0.312c0.494,0.007,0.984,0.043,1.467,0.12c0.121,0.023,0.24,0.043,0.361,0.064
						c0.119,0.026,0.237,0.055,0.357,0.081c0.118,0.027,0.237,0.063,0.355,0.094s0.233,0.072,0.352,0.107
						c0.925,0.301,1.824,0.773,2.699,1.365c0.873,0.59,1.721,1.293,2.568,2.05c0.846,0.757,1.69,1.572,2.583,2.393
						c0.448,0.413,0.908,0.824,1.392,1.23c0.122,0.101,0.241,0.203,0.365,0.303c0.123,0.099,0.243,0.197,0.373,0.295l0.382,0.292
						c0.127,0.099,0.255,0.198,0.389,0.289c1.055,0.756,2.175,1.41,3.341,1.949c1.166,0.54,2.373,0.965,3.598,1.272
						c1.222,0.31,2.46,0.506,3.688,0.601c0.153,0.017,0.309,0.022,0.461,0.03c0.154,0.009,0.306,0.016,0.459,0.025
						c0.155,0.009,0.304,0.011,0.453,0.012c0.149,0.001,0.3,0.002,0.449,0.003l0.223,0.003l0.23-0.002
						c0.149-0.002,0.302-0.002,0.454-0.003c0.077,0,0.151,0,0.229-0.002l0.229-0.014c0.155-0.009,0.311-0.018,0.463-0.026
						c1.232-0.09,2.443-0.308,3.604-0.637c1.158-0.325,2.266-0.76,3.312-1.263c1.047-0.506,2.033-1.076,2.968-1.683
						c0.934-0.606,1.819-1.248,2.665-1.906c1.69-1.315,3.235-2.674,4.723-3.983c1.484-1.311,2.908-2.566,4.334-3.717
						c0.176-0.14,0.352-0.275,0.525-0.413c0.087-0.069,0.176-0.135,0.263-0.205c0.088-0.064,0.177-0.128,0.267-0.193
						c0.178-0.129,0.354-0.257,0.531-0.382c0.182-0.122,0.361-0.242,0.542-0.364c0.091-0.058,0.178-0.122,0.27-0.176
						c0.093-0.059,0.184-0.115,0.273-0.17c0.184-0.112,0.362-0.229,0.548-0.336c0.37-0.213,0.733-0.429,1.105-0.623
						c0.738-0.403,1.484-0.762,2.221-1.107c0.371-0.168,0.734-0.338,1.104-0.495c0.184-0.08,0.365-0.159,0.547-0.237
						c0.181-0.078,0.363-0.154,0.543-0.232c1.446-0.606,2.845-1.156,4.171-1.703c0.168-0.068,0.333-0.14,0.497-0.208
						c0.083-0.034,0.166-0.067,0.246-0.103c0.085-0.04,0.165-0.079,0.246-0.118c0.082-0.04,0.163-0.08,0.244-0.12
						c0.078-0.039,0.157-0.081,0.235-0.121c0.154-0.078,0.308-0.158,0.458-0.241c0.225-0.123,0.445-0.25,0.66-0.378
						C423.151,494.522,423.228,494.099,423.305,493.675z"/>
				</g>
				<g>
					<g>
						<g>
							<path d="M365.636,446.98c0,0,0.068,0.446,0.192,1.25c0.091,0.808,0.308,1.986,0.348,3.451
								c0.132,2.923-0.195,7.076-1.635,11.363c-0.704,2.133-1.763,4.241-3.195,5.786c-0.717,0.765-1.462,1.42-2.267,1.922
								c-0.775,0.482-1.477,0.82-2.089,1.158c-1.229,0.651-2.093,1.305-2.488,1.962c-0.107,0.157-0.189,0.309-0.242,0.448
								c-0.066,0.137-0.113,0.258-0.134,0.36c-0.058,0.206-0.088,0.314-0.088,0.314c0.027,0.003-0.149-0.443,0.031-1.302
								c0.161-0.87,0.933-1.983,2.033-2.994c0.54-0.516,1.161-1.029,1.726-1.574c0.54-0.519,1.053-1.174,1.537-1.873
								c0.96-1.419,1.664-3.16,2.335-5.177c1.35-4.028,2.366-7.728,2.982-10.522c0.331-1.388,0.489-2.54,0.679-3.333
								C365.537,447.423,365.636,446.98,365.636,446.98z"/>
						</g>
					</g>
				</g>
				<g>
					<g>
						<g>
							<path d="M428.584,444.3c0,0,0.233,0.326,0.537,0.915c0.263,0.595,0.553,1.507,0.491,2.532
								c-0.065,1.018-0.37,1.862-0.599,2.463c-0.238,0.598-0.43,0.958-0.43,0.958s-0.035-0.406-0.024-1.049
								c0.002-0.642,0.072-1.511,0.129-2.422c0.055-0.911,0.017-1.732-0.015-2.364C428.603,444.715,428.584,444.3,428.584,444.3z"/>
						</g>
					</g>
				</g>
				<g>
					<g>
						<g>
							<path d="M435.364,450.545c0,0,0.05,0.487,0.004,1.293c-0.094,0.785-0.302,1.939-1.034,2.985
								c-0.171,0.325-0.437,0.469-0.634,0.682c-0.217,0.189-0.427,0.374-0.628,0.55c-0.408,0.35-0.774,0.615-1.095,0.837
								c-0.639,0.445-1.075,0.7-1.075,0.7s0.263-0.407,0.755-1.032c0.253-0.309,0.548-0.669,0.872-1.065
								c0.166-0.188,0.34-0.385,0.519-0.588c0.166-0.208,0.424-0.386,0.521-0.601c0.645-0.913,1.037-1.869,1.35-2.574
								C435.183,451.013,435.364,450.545,435.364,450.545z"/>
						</g>
					</g>
				</g>
				<g>
					<g>
						<g>
							<path d="M439.468,461.964c0,0,0,0.208-0.069,0.523c-0.052,0.321-0.258,0.72-0.577,1.086c-0.384,0.32-0.792,0.529-1.146,0.531
								c-0.334,0.034-0.528,0.001-0.528,0.001s0.129-0.191,0.319-0.413c0.211-0.19,0.399-0.534,0.704-0.775
								c0.26-0.308,0.605-0.503,0.846-0.69C439.268,462.056,439.468,461.964,439.468,461.964z"/>
						</g>
					</g>
				</g>
				<g>
					<g>
						<g>
							<path d="M442.232,469.814c0,0-0.204,0.462-0.616,1.169c-0.21,0.352-0.486,0.769-0.896,1.174
								c-0.416,0.396-0.978,0.757-1.64,0.948c-1.302,0.285-2.42,0.156-3.215,0.099c-0.791-0.048-1.304-0.087-1.304-0.087
								s0.469-0.189,1.273-0.374c0.8-0.169,1.912-0.29,3.005-0.529c1.04-0.285,1.835-0.968,2.418-1.52
								C441.839,470.143,442.232,469.814,442.232,469.814z"/>
						</g>
					</g>
				</g>
				<g>
					<g>
						<g>
							<path d="M445.445,477.844c0,0-0.097,0.103-0.267,0.286c-0.18,0.177-0.475,0.416-0.886,0.625
								c-0.815,0.447-2.088,0.745-3.475,0.72c-1.388-0.037-2.61-0.36-3.445-0.7c-0.842-0.334-1.295-0.664-1.295-0.664
								s0.545,0.116,1.409,0.217c0.865,0.108,2.054,0.19,3.351,0.224c1.296,0.021,2.467-0.026,3.293-0.229
								c0.416-0.088,0.744-0.212,0.966-0.312C445.319,477.904,445.445,477.844,445.445,477.844z"/>
						</g>
					</g>
				</g>
				<g>
					<g>
						<g>
							<path d="M443.393,490.957c0,0-0.349-0.017-0.895-0.18c-0.538-0.168-1.265-0.53-1.878-1.171
								c-0.598-0.66-0.898-1.443-0.976-2.013c-0.053-0.281-0.016-0.523-0.017-0.678c0.012-0.152,0.019-0.241,0.019-0.241
								s0.177,0.312,0.434,0.764c0.281,0.445,0.712,0.977,1.217,1.539c0.525,0.547,1.027,1.04,1.427,1.397
								C443.124,490.721,443.393,490.957,443.393,490.957z"/>
						</g>
					</g>
				</g>
				<g>
					<g>
						<g>
							<path d="M438.665,499.522c0,0-0.376,0.102-0.998,0.068c-0.618-0.025-1.471-0.184-2.322-0.617
								c-0.843-0.439-1.515-1.1-1.757-1.73c-0.259-0.633-0.076-1.035-0.098-1.022c0,0,0.037,0.089,0.102,0.242
								c0.067,0.148,0.191,0.343,0.386,0.533c0.371,0.395,1.041,0.762,1.792,1.157c0.76,0.387,1.471,0.745,2.005,0.988
								C438.305,499.391,438.665,499.522,438.665,499.522z"/>
						</g>
					</g>
				</g>
				<g>
					<g>
						<g>
							<path d="M428.227,503.625c0,0-0.291-0.047-0.729-0.178c-0.437-0.132-1.028-0.358-1.595-0.779
								c-0.562-0.421-0.98-0.978-1.134-1.463c-0.165-0.496-0.008-0.803-0.021-0.791c0,0,0.108,0.285,0.416,0.552
								c0.3,0.278,0.78,0.577,1.293,0.963c0.516,0.384,0.966,0.796,1.281,1.125C428.056,503.381,428.227,503.625,428.227,503.625z"
								/>
						</g>
					</g>
				</g>
				<g>
					<g>
						<g>
							<path d="M414.578,507.908c0,0-0.209-0.012-0.507-0.121c-0.298-0.107-0.677-0.327-0.972-0.695
								c-0.285-0.379-0.418-0.822-0.409-1.16c-0.013-0.159,0.038-0.306,0.058-0.391c0.027-0.082,0.045-0.133,0.045-0.133
								s0.137,0.169,0.332,0.364c0.189,0.203,0.469,0.437,0.703,0.751c0.248,0.309,0.421,0.65,0.55,0.918
								C414.505,507.709,414.578,507.908,414.578,507.908z"/>
						</g>
					</g>
				</g>
				<g>
					<g>
						<g>
							<path d="M400.505,451.775c0,0,0.342-0.403,0.958-1.133c0.32-0.355,0.798-0.702,1.314-1.154
								c0.263-0.189,0.505-0.49,0.975-0.605c0.233-0.059,0.512-0.001,0.713,0.169c0.229,0.142,0.349,0.49,0.29,0.754
								c-0.1,0.525-0.438,0.888-0.676,1.252c-0.282,0.378-0.577,0.772-0.882,1.179c-0.608,0.818-1.336,1.578-2.017,2.482
								c-0.708,0.876-1.407,1.821-2.225,2.743c-0.833,0.913-1.694,1.857-2.577,2.825c-0.459,0.459-1.034,1.037-1.95,1.062
								c-0.439-0.005-0.889-0.208-1.167-0.562c-0.277-0.352-0.37-0.767-0.37-1.145c0.014-0.794,0.402-1.398,0.798-1.893
								c0.407-0.492,0.861-0.881,1.282-1.25c1.656-1.511,3.147-2.871,4.401-4.016c0.627-0.579,1.194-1.103,1.693-1.564
								c0.492-0.465,0.99-0.787,1.359-1.087c0.759-0.575,1.179-0.893,1.179-0.893s-0.387,0.358-1.086,1.004
								c-0.34,0.333-0.799,0.688-1.252,1.188c-0.46,0.493-0.983,1.054-1.561,1.674c-1.184,1.223-2.603,2.681-4.209,4.271
								c-0.409,0.387-0.82,0.769-1.15,1.196c-0.325,0.416-0.583,0.918-0.57,1.367c0.009,0.484,0.27,0.795,0.66,0.795
								c0.385,0.009,0.874-0.352,1.291-0.803c0.876-0.941,1.732-1.86,2.559-2.748c0.825-0.892,1.561-1.825,2.3-2.67
								c0.708-0.868,1.498-1.622,2.124-2.379c0.316-0.376,0.623-0.739,0.918-1.089c0.298-0.38,0.596-0.704,0.672-1.024
								c0.032-0.153,0.01-0.253-0.102-0.346c-0.096-0.098-0.243-0.15-0.383-0.122c-0.295,0.035-0.588,0.291-0.874,0.477
								c-0.532,0.398-1.034,0.698-1.381,1.018C400.882,451.409,400.505,451.775,400.505,451.775z"/>
						</g>
					</g>
				</g>
				<g>
					<g>
						<g>
							<path d="M401.016,451.168c0,0,0.171-0.009,0.387,0.017c0.218,0.027,0.47,0.084,0.675,0.249
								c0.471,0.352,0.545,0.984,0.545,0.984s-0.655,0.087-1.086-0.235c-0.233-0.185-0.375-0.451-0.444-0.655
								C401.021,451.32,401.016,451.168,401.016,451.168z"/>
						</g>
					</g>
				</g>
				<g>
					<g>
						<g>
							<path d="M395.391,461.015c0.028-0.012-0.731-0.036-1.362-0.62c-0.582-0.568-0.897-1.165-0.897-1.165s0.647,0.273,1.209,0.825
								c0.298,0.236,0.52,0.518,0.729,0.661C395.266,460.884,395.391,461.015,395.391,461.015z"/>
						</g>
					</g>
				</g>
				<g>
					<g>
						<g>
							<path d="M394.797,461.609c0,0-0.66-0.218-1.321-0.724c-0.31-0.29-0.586-0.557-0.691-0.842
								c-0.123-0.261-0.17-0.418-0.17-0.418s0.153,0.107,0.352,0.276c0.173,0.185,0.514,0.354,0.798,0.624
								C394.406,461.016,394.797,461.609,394.797,461.609z"/>
						</g>
					</g>
				</g>
				<g>
					<g>
						<g>
							<path d="M394.162,461.926c0,0-0.597-0.233-1.102-0.694c-0.575-0.404-0.922-0.931-0.922-0.931s0.605,0.143,1.205,0.565
								C393.901,461.371,394.162,461.926,394.162,461.926z"/>
						</g>
					</g>
				</g>
				<g>
					<g>
						<g>
							<path d="M394.122,462.203c0,0-0.637-0.24-1.241-0.757s-0.94-1.106-0.94-1.106s0.641,0.244,1.241,0.757
								C393.782,461.609,394.122,462.203,394.122,462.203z"/>
						</g>
					</g>
				</g>
				<g>
					<g>
						<g>
							<path d="M393.605,462.203c0,0-0.518-0.202-0.916-0.615c-0.462-0.364-0.709-0.852-0.709-0.852s0.525,0.118,1.014,0.506
								C393.44,461.699,393.605,462.203,393.605,462.203z"/>
						</g>
					</g>
				</g>
				<g>
					<g>
						<g>
							<path d="M393.051,462.402c0,0-0.557-0.249-1.013-0.727c-0.486-0.507-0.692-1.058-0.692-1.058s0.557,0.248,1.014,0.726
								C392.845,461.852,393.051,462.402,393.051,462.402z"/>
						</g>
					</g>
				</g>
				<path d="M409.467,501.34c-0.072-1.052,1.81-1.786,2.538-2.131c1.083-0.511,2.121-1.043,3.101-1.706
					c0.941-0.633,2.094-1.066,3.134-1.388c1.017-0.315,1.98-0.805,2.974-1.191c0.572-0.221,1.175-0.286,1.761-0.566
					c-0.021,0.04-0.021,0.062-0.024,0.11c0.038-0.143,0.145-0.271,0.229-0.381c-0.044,0.425-0.483,0.907-0.576,1.353
					c-0.117,0.542-0.087,1.209,0.145,1.69c-0.468-0.214-0.799-0.525-1.305-0.668c-0.548-0.156-1.107-0.25-1.703-0.278
					c-1.176-0.057-2.371,0.369-3.293,1.062c-1.321,0.99-2.771,2.143-3.456,3.649c-0.631,0.058-1.344-0.1-2.015-0.033
					c-0.645,0.066-1.207,0.305-1.825,0.397"/>
			</g>
		</g>
		<g opacity="0.2">
			<g>
				<g>
					<path fill="#FFFFFF" d="M369.666,433c0,0,0.474,2.816,1.239,7.362c0.366,2.27,0.763,4.998,0.983,8.084
						c0.035,0.777,0.07,1.573,0.106,2.386c0.021,0.816-0.021,1.66-0.039,2.516c0.001,0.856-0.117,1.727-0.215,2.611
						c-0.053,0.441-0.106,0.887-0.16,1.335c-0.09,0.469-0.18,0.94-0.271,1.415c-0.939,3.724-2.597,6.778-4.275,9.426
						c-1.701,2.634-3.532,4.788-5.21,6.45c-1.68,1.662-3.217,2.819-4.357,3.481c-0.547,0.359-1.024,0.561-1.33,0.712
						c-0.309,0.146-0.471,0.222-0.471,0.222s0.13-0.125,0.378-0.361c0.245-0.238,0.623-0.555,1.04-1.044
						c0.877-0.918,2.011-2.365,3.241-4.244c1.228-1.88,2.572-4.191,3.858-6.833c1.266-2.634,2.576-5.623,3.345-8.698
						c1.266-6.36,1.148-12.777,1.438-17.354c0.122-2.303,0.268-4.179,0.434-5.468C369.571,433.712,369.666,433,369.666,433z"/>
				</g>
			</g>
		</g>
	</g>
</g>
</svg>
