<?xml version="1.0" encoding="utf-8"?>
<!-- Generator: Adobe Illustrator 25.0.1, SVG Export Plug-In . SVG Version: 6.00 Build 0)  -->
<svg version="1.1" id="Capa_1" xmlns="http://www.w3.org/2000/svg" xmlns:xlink="http://www.w3.org/1999/xlink" x="0px" y="0px"
	 viewBox="0 0 800 800" enable-background="new 0 0 800 800" xml:space="preserve">
<g id="narices_1_">
	<g id="_x36__1_">
		<g>
			<g opacity="0.2">
				<g>
					<g>
						<path fill="#FFFFFF" d="M384.546,466.494c0,0-0.333,0.412-0.932,1.155c-0.306,0.365-0.672,0.818-1.068,1.366
							c-0.4,0.543-0.883,1.139-1.346,1.849c-0.981,1.378-2.039,3.089-3.087,5.039c-1.01,1.97-1.988,4.191-2.717,6.616
							c-0.721,2.427-1.046,4.82-1.118,7.007c-0.003,0.549-0.005,1.084-0.008,1.604c0.046,0.518,0.091,1.021,0.135,1.509
							c0.039,0.984,0.3,1.866,0.427,2.698c0.395,1.626,0.787,2.95,1.168,3.818c0.345,0.892,0.536,1.385,0.536,1.385
							s-0.27-0.456-0.755-1.28c-0.517-0.814-1.101-2.083-1.698-3.713c-0.228-0.833-0.593-1.73-0.73-2.749
							c-0.088-0.507-0.18-1.031-0.274-1.571c-0.037-0.547-0.075-1.11-0.114-1.689c-0.077-2.311,0.174-4.89,0.938-7.457
							c0.77-2.564,1.892-4.857,3.068-6.826c1.216-1.947,2.464-3.59,3.617-4.871c0.549-0.662,1.113-1.202,1.587-1.692
							c0.47-0.493,0.901-0.892,1.262-1.209C384.15,466.847,384.546,466.494,384.546,466.494z"/>
					</g>
				</g>
			</g>
			<g opacity="0.2">
				<g>
					<g>
						<path fill="#FFFFFF" d="M378.538,474.905c-0.001,0-0.311,0.922-0.854,2.357c-0.533,1.443-1.253,3.407-1.999,5.564
							c-0.706,2.168-1.256,4.148-1.55,5.643c-0.248,1.509-0.403,2.458-0.403,2.458s-0.046-0.237-0.129-0.663
							c-0.059-0.428-0.225-1.061-0.244-1.846c-0.094-1.573,0.102-3.791,0.851-6.085c0.787-2.278,1.899-4.151,2.785-5.431
							C377.893,475.626,378.537,474.905,378.538,474.905z"/>
					</g>
				</g>
			</g>
			<path opacity="0.3" enable-background="new    " d="M368.925,478.51c0.333,3.103-0.56,6.346-0.4,9.613
				c0.142,2.895,0.868,5.64,2.554,8.065c1.291,1.857,3.106,4.421,5.301,5.108c2.869,0.899,6.572,0.565,9.357-0.167
				c4.03-1.057,8.148-3.301,11.587-5.776c0.043,5.872-2.6,11.413-9.172,11.395c-5.491-0.015-12.089-1.024-16.172-4.854
				c-2.932-2.751-3.972-7.095-4.7-10.721c-0.94-4.677-0.177-7.906,1.446-12.262"/>
			<g>
				<g>
					<g>
						<g>
							<path d="M399.309,468.967c0,0,0.352-0.317,1.022-0.923c0.679-0.597,1.711-1.447,3.15-2.416
								c1.466-0.902,3.379-1.972,5.909-2.371c0.316-0.043,0.64-0.088,0.968-0.133c0.329-0.027,0.669,0.011,1.013,0.015
								c0.346,0.016,0.697,0.03,1.054,0.045c0.351,0.067,0.713,0.116,1.071,0.205c1.435,0.353,2.887,1.037,4.185,2.09
								c1.268,1.068,2.423,2.524,2.973,4.353c0.584,1.812,0.491,3.936-0.326,5.846c-0.805,1.884-2.357,3.558-4.182,4.627
								c-1.819,1.089-3.793,1.758-5.718,2.405c-1.925,0.643-3.841,1.261-5.512,2.182c-1.675,0.913-3.01,2.165-3.795,3.834
								c-0.207,0.412-0.357,0.858-0.512,1.306c-0.125,0.495-0.251,0.992-0.378,1.492c-0.208,1.042-0.404,2.119-0.582,3.247
								c-0.379,2.246-0.793,4.692-1.885,7.09c-0.225,0.607-0.6,1.18-0.957,1.752c-0.187,0.281-0.337,0.582-0.558,0.842l-0.705,0.755
								c-0.24,0.244-0.467,0.507-0.721,0.728l-0.807,0.6c-0.272,0.193-0.535,0.404-0.816,0.576l-0.875,0.45
								c-2.348,1.171-4.859,1.567-7.233,1.586c-2.385,0.027-4.729-0.385-6.885-1.117c-2.167-0.73-4.192-1.842-5.879-3.279
								c-3.423-2.884-5.238-6.919-5.883-10.623c-0.317-1.857-0.466-3.715-0.319-5.42c0.062-0.859,0.027-1.703,0.171-2.52
								c0.119-0.816,0.235-1.612,0.349-2.392c0.646-3.078,1.563-5.817,2.872-7.945c0.316-0.536,0.59-1.07,0.91-1.549
								c0.35-0.458,0.687-0.898,1.009-1.32c0.327-0.416,0.62-0.829,0.934-1.192c0.339-0.342,0.663-0.667,0.968-0.975
								c0.627-0.597,1.116-1.191,1.656-1.584c0.52-0.411,0.96-0.758,1.316-1.039c0.71-0.557,1.083-0.85,1.083-0.85
								s-0.34,0.331-0.987,0.961c-0.323,0.312-0.722,0.699-1.194,1.156c-0.491,0.436-0.919,1.073-1.475,1.711
								c-2.14,2.588-4.75,6.932-5.404,12.884c-0.057,0.742-0.116,1.503-0.176,2.279c-0.088,0.773,0.002,1.575-0.007,2.384
								c-0.039,1.638,0.201,3.258,0.578,4.93c0.773,3.309,2.512,6.613,5.422,8.872c2.87,2.25,6.872,3.476,10.892,3.36
								c2.013-0.056,4.034-0.441,5.753-1.329c1.743-0.894,3.038-2.236,3.864-4.114c0.857-1.862,1.269-4.016,1.662-6.24
								c0.189-1.117,0.411-2.26,0.662-3.41c0.159-0.584,0.318-1.165,0.476-1.744c0.214-0.601,0.435-1.197,0.733-1.768
								c1.137-2.326,3.194-4.097,5.27-5.122c2.087-1.059,4.176-1.627,6.106-2.194c1.932-0.562,3.745-1.109,5.267-1.927
								c1.523-0.811,2.664-1.942,3.374-3.336c0.673-1.369,0.848-2.917,0.494-4.319c-0.321-1.413-1.159-2.651-2.15-3.616
								c-1.02-0.951-2.217-1.635-3.433-2.035c-0.304-0.101-0.613-0.165-0.915-0.249c-0.311-0.037-0.617-0.072-0.919-0.107
								c-0.304-0.027-0.602-0.091-0.899-0.089c-0.297,0.017-0.59,0.034-0.878,0.051c-2.319,0.167-4.254,1.011-5.76,1.758
								c-1.487,0.811-2.594,1.549-3.328,2.07C399.692,468.689,399.309,468.967,399.309,468.967z"/>
						</g>
					</g>
				</g>
				<g>
					<g>
						<g>
							<path d="M353.316,465.45c0,0-0.19,0.051-0.551,0.147c-0.36,0.096-0.891,0.241-1.552,0.47
								c-0.661,0.224-1.461,0.525-2.303,0.985c-0.835,0.462-1.742,1.064-2.438,1.939c-0.705,0.865-1.211,1.946-1.379,3.249
								c-0.156,1.331-0.273,2.826,0.036,4.246c0.515,2.871,2.443,5.592,5.489,7.039c1.499,0.738,3.14,1.164,4.757,1.341
								c1.599,0.211,3.154,0.017,4.586-0.349c2.864-0.753,5.07-2.624,6.691-4.429c1.621-1.826,2.755-3.54,3.558-4.698
								c0.794-1.175,1.233-1.825,1.233-1.825s-0.246,0.747-0.761,2.073c-0.529,1.32-1.282,3.248-2.666,5.477
								c-0.695,1.11-1.587,2.279-2.756,3.383c-1.166,1.1-2.654,2.104-4.401,2.758c-0.874,0.331-1.796,0.557-2.755,0.726
								c-0.487,0.054-0.978,0.108-1.475,0.163c-0.495,0.005-0.995-0.01-1.501-0.02c-1.994-0.113-4.07-0.576-6.027-1.54
								c-1.956-0.95-3.659-2.4-4.835-4.138c-1.189-1.732-1.825-3.714-1.993-5.579c-0.2-1.895,0.137-3.592,0.545-5.155
								c0.433-1.609,1.368-3.011,2.442-3.927c1.07-0.94,2.239-1.416,3.235-1.731c1.007-0.311,1.888-0.436,2.603-0.509
								c0.715-0.076,1.27-0.09,1.645-0.094C353.12,465.45,353.316,465.45,353.316,465.45z"/>
						</g>
					</g>
				</g>
				<g>
					<g>
						<g>
							<path d="M393.356,413.236c0,0,0.259,2.319,0.476,6.065c0.25,3.743,0.39,8.907,1.087,14.476
								c0.096,0.695,0.156,1.389,0.267,2.062c0.115,0.672,0.228,1.334,0.339,1.984c0.092,0.659,0.229,1.284,0.375,1.893
								c0.125,0.613,0.286,1.212,0.454,1.797c0.65,2.34,1.366,4.464,1.867,6.287c0.501,1.825,0.797,3.337,0.931,4.386
								c0.1,1.05,0.156,1.631,0.156,1.631s-0.17-0.556-0.477-1.559c-0.324-0.994-0.863-2.4-1.601-4.108
								c-0.739-1.711-1.696-3.726-2.565-6.099c-0.222-0.591-0.435-1.204-0.61-1.853c-0.196-0.643-0.376-1.302-0.5-1.975
								c-0.138-0.673-0.278-1.358-0.42-2.054c-0.131-0.698-0.202-1.412-0.301-2.133c-0.721-5.786-0.326-11.009-0.052-14.745
								C393.09,415.55,393.356,413.236,393.356,413.236z"/>
						</g>
					</g>
				</g>
				<g>
					<g>
						<g>
							<path d="M371.444,412.425c0,0,0.053,0.582,0.148,1.634c0.041,0.529,0.091,1.177,0.149,1.928
								c0.05,0.754,0.139,1.618,0.078,2.565c-0.007,3.806-0.587,9.078-2.032,14.702c-1.52,5.6-3.454,10.469-4.968,13.93
								c-1.516,3.462-2.575,5.551-2.575,5.551s0.567-2.274,1.586-5.903c1.017-3.63,2.434-8.616,3.925-14.11
								c1.414-5.512,2.487-10.535,3.016-14.245c0.191-0.923,0.232-1.765,0.305-2.506c0.073-0.743,0.136-1.384,0.188-1.908
								C371.38,413.008,371.444,412.425,371.444,412.425z"/>
						</g>
					</g>
				</g>
			</g>
			<g opacity="0.2">
				<g>
					<g>
						<path fill="#FFFFFF" d="M377.333,422.667c0,0-0.062,0.783-0.172,2.199c-0.076,1.416-0.082,3.44-0.115,5.991
							c-0.025,1.277-0.073,2.689-0.24,4.223c-0.1,0.768-0.17,1.566-0.36,2.383c-0.085,0.411-0.171,0.827-0.258,1.249
							c-0.106,0.398-0.214,0.803-0.324,1.212c-0.447,1.63-0.936,3.338-1.468,5.102c-0.561,1.756-1.261,3.546-1.956,5.379
							c-0.648,1.832-1.589,3.602-2.474,5.254c-0.483,0.807-0.958,1.599-1.424,2.374c-0.498,0.755-1.02,1.472-1.516,2.175
							c-2.056,2.77-4.164,5.047-6.097,6.759c-0.48,0.432-0.929,0.848-1.371,1.223c-0.454,0.36-0.882,0.701-1.283,1.018
							c-0.795,0.639-1.497,1.162-2.098,1.556c-1.186,0.796-1.843,1.237-1.843,1.237s0.511-0.601,1.435-1.686
							c0.475-0.524,1.023-1.196,1.645-1.982c0.315-0.388,0.652-0.802,1.009-1.24c0.338-0.452,0.695-0.931,1.07-1.433
							c3.003-3.996,6.667-9.748,9.354-16.726c0.701-1.764,1.385-3.486,2.046-5.149c0.618-1.688,1.239-3.31,1.849-4.852
							c0.152-0.385,0.302-0.765,0.45-1.14c0.125-0.364,0.247-0.724,0.368-1.078c0.268-0.701,0.436-1.425,0.636-2.113
							c0.372-1.39,0.658-2.729,0.922-3.964c0.513-2.477,1.01-4.515,1.448-5.881C377.028,423.391,377.333,422.667,377.333,422.667z"
							/>
					</g>
				</g>
			</g>
			<path opacity="0.3" enable-background="new    " d="M370.5,500.25c-2.028-2.463-3.402-5.742-4.011-9.095
				c0.492-0.06,0.975-0.088,1.435-0.028l-0.601-0.2c-1.495-3.044,0.45-7.153,0.566-10.144c-4.339,2.917-9.472,3.623-14.239,0.786
				c-4.417-2.627-6.145-9.258-2.704-13.229c1.815-2.094,3.731-3.498,5.218-5.796c1.335-2.063,2.717-4.136,3.951-6.264
				c2.675-4.616,4.875-9.581,6.958-14.469c4.813-11.293,4.871-23.435,4.856-36.14c-0.874,3.133-0.758,6.729-1.407,9.953
				c-2.32,11.521-4.994,22.271-12.362,32.094c-3.398,4.531-6.803,9.062-10.414,13.421c-4.352,5.253-5.997,9.248-5.657,16.168
				c0.251,5.107,4.213,10.916,8.811,13.473c2.692,1.498,5.442,2.472,8.623,2.158c0.605-0.06,1.245-0.213,1.9-0.4
				c0.511,3.869,2.298,7.335,5.639,10.399c5.561,5.099,11.889,5.311,18.724,5.311C380.255,508.25,374.255,504.811,370.5,500.25z"/>
			<path opacity="0.3" enable-background="new    " d="M397,496.75c5.233-0.63,11.718-6.389,15.701-9.811
				c4.787-4.114,9.553-10.046,7.293-16.613c-0.686,3.698,0.09,6.242-3.444,8.48c-2.865,1.814-5.978,1.94-9.064,2.931
				c-2.363,0.758-5.752,2.936-7.424,5.075c-2.073,2.652-1.727,6.749-2.562,9.689"/>
			<g>
				<g>
					<g>
						<path d="M371.5,484.5c0,0-0.596-0.118-1.492-0.472c-0.882-0.361-2.028-0.993-3.094-1.801c-1.069-0.794-1.95-1.548-2.677-2.094
							c-0.357-0.276-0.679-0.46-0.893-0.628c-0.219-0.163-0.343-0.256-0.343-0.256s0.151-0.014,0.418-0.037
							c0.268-0.007,0.679-0.051,1.166,0.014c0.975,0.115,2.32,0.57,3.485,1.441c1.153,0.873,1.949,1.848,2.523,2.585
							C371.169,483.975,371.5,484.5,371.5,484.5z"/>
					</g>
				</g>
			</g>
			<g>
				<g>
					<g>
						<path d="M371.25,481c0,0-1.97-0.314-3.691-1.656c-1.698-1.251-2.559-3.094-2.559-3.094s1.967,0.244,3.758,1.567
							C370.456,479.142,371.25,481,371.25,481z"/>
					</g>
				</g>
			</g>
			<g>
				<g>
					<g>
						<path d="M371.75,477.5c0,0-0.424-0.043-1.068-0.272c-0.678-0.216-1.42-0.687-2.087-1.353
							c-0.637-0.625-1.028-1.386-1.358-1.892c-0.312-0.544-0.487-0.983-0.487-0.983s0.423,0.019,1.081,0.215
							c0.692,0.173,1.471,0.63,2.16,1.311c0.65,0.648,1.029,1.441,1.325,1.967C371.6,477.054,371.75,477.5,371.75,477.5z"/>
					</g>
				</g>
			</g>
			<g>
				<g>
					<g>
						<path d="M373.25,475.25c0,0-0.405-0.175-0.904-0.491c-0.473-0.333-1.157-0.736-1.669-1.37
							c-1.107-1.22-1.427-2.889-1.427-2.889s1.678,0.276,2.883,1.604c0.572,0.701,0.922,1.469,1.019,2.113
							C373.272,474.842,373.25,475.25,373.25,475.25z"/>
					</g>
				</g>
			</g>
			<g>
				<g>
					<g>
						<path d="M375.25,472.5c0,0-0.38-0.062-0.915-0.3c-0.558-0.235-1.171-0.658-1.666-1.269c-0.481-0.575-0.717-1.267-0.913-1.756
							c-0.18-0.514-0.255-0.926-0.255-0.926s0.379,0.031,0.935,0.233c0.583,0.189,1.229,0.61,1.752,1.238
							c0.491,0.606,0.723,1.326,0.875,1.836C375.208,472.088,375.25,472.5,375.25,472.5z"/>
					</g>
				</g>
			</g>
			<g>
				<g>
					<g>
						<path d="M377.5,471.25c0,0-0.427-0.181-1.009-0.577c-0.596-0.38-1.286-1.045-1.834-1.922c-0.484-0.926-0.729-1.86-0.718-2.589
							C373.917,465.447,374,465,374,465s0.381,0.301,0.838,0.796c0.426,0.511,1.068,1.147,1.5,1.982
							c0.507,0.806,0.75,1.679,0.946,2.334C377.46,470.775,377.5,471.25,377.5,471.25z"/>
					</g>
				</g>
			</g>
			<g>
				<g>
					<g>
						<path d="M379.5,469.25c0,0-1.252-0.489-1.684-1.51c-0.249-0.479-0.256-1.022-0.212-1.466c0.045-0.441,0.146-0.774,0.146-0.774
							s0.313,0.079,0.703,0.303c0.388,0.223,0.856,0.599,1.132,1.137C380.045,468.024,379.5,469.25,379.5,469.25z"/>
					</g>
				</g>
			</g>
			<g>
				<g>
					<g>
						<path d="M382.25,467.25c0,0-0.257,0.018-0.554-0.051c-0.303-0.064-0.613-0.235-0.711-0.518
							c-0.076-0.305,0.079-0.615,0.31-0.858c0.22-0.229,0.454-0.323,0.454-0.323s0.24,0.099,0.51,0.21
							c0.239,0.091,0.543,0.22,0.583,0.405c0.071,0.195-0.103,0.463-0.257,0.695C382.424,467.045,382.25,467.25,382.25,467.25z"/>
					</g>
				</g>
			</g>
		</g>
	</g>
</g>
</svg>
