<?xml version="1.0" encoding="utf-8"?>
<!-- Generator: Adobe Illustrator 25.0.1, SVG Export Plug-In . SVG Version: 6.00 Build 0)  -->
<svg version="1.1" id="Capa_1" xmlns="http://www.w3.org/2000/svg" xmlns:xlink="http://www.w3.org/1999/xlink" x="0px" y="0px"
	 viewBox="0 0 800 800" enable-background="new 0 0 800 800" xml:space="preserve">
<g id="narices_1_">
	<g id="_x31_1_1_">
		<g>
			<g>
				<g>
					<g>
						<g>
							<path d="M435.828,470.754c0,0,0.21,0.366,0.61,1.064c0.374,0.711,0.94,1.767,1.386,3.27c0.23,0.748,0.407,1.618,0.458,2.606
								c0.059,0.984-0.081,2.11-0.539,3.241c-0.449,1.137-1.283,2.211-2.335,3.08c-1.053,0.874-2.312,1.568-3.668,2.095
								c-2.723,1.062-5.821,1.586-9.105,1.833c-3.018,0.146-6.14,0.88-9.272,2.134c-3.122,1.265-6.223,3.042-9.142,5.276
								c-1.46,1.123-2.833,2.306-4.269,3.701c-1.443,1.374-2.92,2.823-4.568,4.246c-1.647,1.417-3.449,2.784-5.515,3.833
								c-2.053,1.055-4.385,1.723-6.667,1.841c-1.135,0.051-2.255,0.017-3.367-0.136c-1.112-0.13-2.228-0.462-3.226-0.811
								c-2.03-0.733-3.814-1.794-5.373-2.951c-3.114-2.342-5.439-4.989-7.56-7.408c-2.105-2.436-3.969-4.705-5.795-6.632
								c-1.814-1.937-3.587-3.53-5.309-4.698c-1.713-1.182-3.365-1.937-4.783-2.367c-1.417-0.442-2.584-0.595-3.375-0.667
								c-0.798-0.049-1.217-0.074-1.217-0.074s0.419-0.051,1.217-0.148c0.802-0.067,2.006-0.12,3.552,0.102
								c1.544,0.21,3.423,0.74,5.429,1.742c2.015,0.986,4.128,2.438,6.255,4.227c2.139,1.779,4.296,3.891,6.585,6.08
								c2.292,2.17,4.723,4.472,7.491,6.264c1.383,0.889,2.85,1.626,4.384,2.087c0.787,0.221,1.51,0.408,2.305,0.461
								c0.793,0.071,1.611,0.06,2.423-0.003c3.234-0.262,6.205-2.062,9.172-4.656c1.486-1.282,2.947-2.683,4.449-4.061
								c1.479-1.389,3.155-2.767,4.834-3.959c3.369-2.39,6.97-4.204,10.591-5.392c3.612-1.177,7.298-1.716,10.651-1.562
								c3.084,0.064,5.949-0.121,8.391-0.755c2.435-0.618,4.403-1.789,5.346-3.437c0.965-1.643,0.949-3.525,0.762-4.964
								c-0.188-1.468-0.559-2.594-0.8-3.351C435.969,471.15,435.828,470.754,435.828,470.754z"/>
						</g>
					</g>
				</g>
				<g>
					<g>
						<g>
							<path d="M339.922,491.549c0,0-0.405-0.199-1.129-0.625c-0.362-0.213-0.819-0.473-1.272-0.858
								c-0.45-0.386-1.043-0.787-1.544-1.358c-0.513-0.562-1.125-1.173-1.612-1.943c-0.255-0.378-0.535-0.769-0.782-1.192
								c-0.226-0.433-0.454-0.886-0.681-1.357c-0.838-1.898-1.456-4.195-1.408-6.657c0.047-2.458,0.711-4.768,1.661-6.651
								c0.518-0.929,1.025-1.783,1.648-2.486c0.555-0.741,1.212-1.312,1.793-1.822c0.552-0.535,1.198-0.866,1.69-1.201
								c0.495-0.337,0.981-0.539,1.371-0.703c0.776-0.33,1.202-0.474,1.202-0.474s-0.242,0.388-0.678,1.088
								c-0.218,0.336-0.492,0.728-0.731,1.238c-0.238,0.508-0.59,0.998-0.817,1.643c-0.257,0.62-0.563,1.257-0.766,1.993
								c-0.271,0.697-0.428,1.483-0.633,2.268c-0.323,1.609-0.529,3.342-0.571,5.184c-0.053,3.674,0.62,7.114,1.496,9.688
								c0.447,1.266,0.865,2.352,1.231,3.06C339.732,491.132,339.922,491.549,339.922,491.549z"/>
						</g>
					</g>
				</g>
			</g>
		</g>
		<g opacity="0.2">
			<g>
				<g>
					<path fill="#FFFFFF" d="M422.333,470.667c0,0-0.497-0.044-1.395-0.121c-0.884-0.108-2.172-0.195-3.718-0.309
						c-3.109-0.17-7.283-0.2-11.547,0.808c-4.259,1.022-7.891,2.982-10.493,4.671c-1.277,0.863-2.345,1.585-3.045,2.133
						c-0.731,0.526-1.136,0.818-1.136,0.818s0.23-0.44,0.685-1.225c0.438-0.799,1.174-1.882,2.196-3.169
						c1.066-1.237,2.415-2.713,4.263-3.971c1.818-1.278,4.078-2.42,6.626-3.035c2.55-0.611,5.062-0.612,7.25-0.343
						c2.203,0.247,4.083,0.865,5.614,1.415c1.52,0.604,2.699,1.168,3.484,1.626C421.909,470.406,422.333,470.667,422.333,470.667z"
						/>
				</g>
			</g>
		</g>
		<g opacity="0.2">
			<g>
				<g>
					<path fill="#FFFFFF" d="M399.999,431.334c0,0,0.493,1.591,1.004,4.15c0.516,2.561,1.07,6.114,1.022,10.096
						c-0.076,3.986-0.838,7.602-1.684,10.12c-0.392,1.265-0.884,2.25-1.175,2.928c-0.31,0.676-0.501,1.039-0.501,1.039
						s-0.034-0.413-0.095-1.157c-0.067-0.743-0.059-1.786-0.153-3.076c-0.128-2.577-0.352-6.056-0.276-9.92
						c0.048-3.869,0.465-7.423,0.92-10.005C399.521,432.925,399.999,431.334,399.999,431.334z"/>
				</g>
			</g>
		</g>
		<path opacity="0.3" enable-background="new    " d="M389,505.5c-12.93,5.89-30.478,0.919-41.639-6.361
			c-3.012-1.964-4.749-3.479-8.361-4.139c-3.749-0.685-7.18,0.046-10.124-2.876c-4.174-4.143-4.906-14.913-2.876-20.124
			c3.903-10.023,17.826-15.509,24.624-23.402C359.465,438.331,362,426.49,362,413.929c0,8.214,0.827,16.905,0,25.071
			c-0.772,7.623-3.583,11.787-8.889,17.111c-4.845,4.862-8.759,10.539-7.123,17.9c1.279,5.752,7.419,9.306,11.4,13.6
			c8.543,9.213,16.528,19.399,30.611,17.889"/>
	</g>
</g>
</svg>
