<?xml version="1.0" encoding="utf-8"?>
<!-- Generator: Adobe Illustrator 25.0.1, SVG Export Plug-In . SVG Version: 6.00 Build 0)  -->
<svg version="1.1" id="Capa_1" xmlns="http://www.w3.org/2000/svg" xmlns:xlink="http://www.w3.org/1999/xlink" x="0px" y="0px"
	 viewBox="0 0 800 800" enable-background="new 0 0 800 800" xml:space="preserve">
<g id="accesorios">
	<g id="Capa_89">
		<path fill="#C1272D" d="M275.5,509c-1.681,1.837-0.855,3.989,1.926,3.923c0.636-2.15-0.199-3.73-2.426-3.923"/>
		<path fill="#C1272D" d="M490.5,531.5c-1.054-0.153-2.026,0.104-2.913,0.587c-0.062,0.784-0.165,1.542-0.012,2.338
			c1.812,0.396,2.303-0.442,2.925-1.925"/>
		<path fill="#C1272D" d="M307,506.5c-0.635,0.11-1.287-0.034-1.925,0.075c-0.017,0.64-0.176,1.196,0,1.85
			c0.805,0.246,2.035,0.164,2.85,0c0.11-0.643,0.074-1.263,0.075-1.925"/>
		<path fill="#C1272D" d="M502.5,529c-0.507,0.072-0.91-0.062-1.413,0.087c-1.218,2.226-0.303,4.111,1.413,2.413"/>
		<path fill="#C1272D" d="M481,512c-1.024,2.039-0.598,3.634,1.925,3.425c0.398-1.04-0.267-1.417-0.425-1.925"/>
		<path fill="#C1272D" d="M320.5,531c-1.151,0.179-1.791-0.269-2.571,0.5c1.348,1.375,0.994-0.211,1.571-0.5"/>
		<path fill="#C1272D" d="M497.5,471.5c-1.102,0.722-1.434,2.081-0.926,3.926c5.641,1.926,8.216-4.215,2.426-4.426"/>
		<path fill="#C1272D" d="M291,551c-0.467,2.626,1.379,4.198,3.925,3.923c0.564-1.96-0.055-3.34-1.925-3.923"/>
		<path fill="#C1272D" d="M481,489c0.262-0.114-0.469-0.669-0.926-0.423c0.405,1.57,0.631,1.619,1.839,2.358
			c0.36-1.188-0.06-1.924-0.413-2.935"/>
		<path fill="#C1272D" d="M510.5,502.5c-1.051-0.2-2.402-0.013-3.436,0.087c0.807,1.574,1.249,1.513,3.36,1.338
			c0.108-0.634,0.107-1.271,0.075-1.925"/>
		<path fill="#C1272D" d="M288,514.5c-1.071,1.667-0.221,3.278,1.913,3.435c0.138-0.479-0.053-0.99,0.087-1.435"/>
		<path fill="#C1272D" d="M273,538c-0.052,0.652-0.78,0.601-0.434,1.425c0.841,0.19,2.015,0.2,2.847-0.012
			c0.268-0.369,0.376-0.996,0.637-1.411c-0.198-0.715-0.67-0.584-1.05-1.002"/>
		<path fill="#C1272D" d="M336.5,599c-0.558,0.35-1.47-0.512-1.438,1.411c0.292,0.04,1.181-0.059,1.364,0.012
			c0.1-0.8-0.007-1.612,0.074-2.423"/>
		<path fill="#C1272D" d="M353.5,601c-2.051-0.07-3.083,0.983-2.911,2.938c1.646-0.136,1.576-1.069,1.911-2.438"/>
		<path fill="#C1272D" d="M300,529c-0.198,0.416-0.32,0.639-0.915,0.585c0.028,1.032-0.149,1.675,0.303,2.375
			c0.138-0.976,0.098-1.956,0.111-2.96"/>
		<path fill="#C1272D" d="M318,546.5c-1.481,0.621-2.319,1.112-1.926,2.923c0.359,0.045,1.075-0.073,1.353,0
			c0.101-0.803,0.028-1.604,0.074-2.423"/>
	</g>
</g>
</svg>
