<?xml version="1.0" encoding="utf-8"?>
<!-- Generator: Adobe Illustrator 25.0.1, SVG Export Plug-In . SVG Version: 6.00 Build 0)  -->
<svg version="1.1" id="Capa_1" xmlns="http://www.w3.org/2000/svg" xmlns:xlink="http://www.w3.org/1999/xlink" x="0px" y="0px"
	 viewBox="0 0 800 800" enable-background="new 0 0 800 800" xml:space="preserve">
<g id="accesorios">
	<g id="Capa_102">
		<g>
			<path fill="#660C0C" d="M87.068,593.655c-0.112-1.165,0.124-2.304,0.752-3.299c0.933-1.477,2.412-2.475,3.904-3.326
				c1.572-0.896,3.229-1.639,4.909-2.308c0.782-0.312,1.597-0.711,2.429-0.863c0.669-0.122,1.341-0.061,1.992,0.112
				c0.986,1.776,1.961,3.561,2.874,5.369c4.971,9.839,11.554,18.909,17.406,28.28c2.713,4.345,5.898,8.638,7.976,13.372
				c1.383,3.151,0.77,4.814-1.848,6.852c-1.424,1.107-4.461,4.102-6.327,3.31c-1.475-0.628-3.537-4.269-4.566-5.545
				c-1.695-2.104-3.016-4.319-4.52-6.562c-2.908-4.335-6.086-8.451-8.991-12.789c-4.691-7.007-9.827-13.599-15.261-20.078
				C87.438,595.376,87.151,594.528,87.068,593.655z"/>
			<g>
				<g>
					<g>
						<g>
							<path d="M67.082,565.029c0,0-0.083,0.352-0.446,0.929c-0.347,0.581-0.997,1.354-1.574,2.488
								c-0.275,0.571-0.509,1.24-0.613,1.998c-0.114,0.758-0.035,1.598,0.155,2.467c0.056,0.217,0.112,0.437,0.17,0.66
								c0.079,0.218,0.16,0.439,0.242,0.664c0.137,0.48,0.4,0.823,0.734,1.188c0.71,0.687,1.681,1.187,2.654,1.832
								c0.509,0.332,0.917,0.761,1.363,1.175c0.434,0.425,0.916,0.831,1.337,1.3c0.839,0.938,1.735,1.903,2.597,2.938
								c0.87,1.04,1.791,2.07,2.734,3.131c0.992,1.044,2.013,2.118,3.06,3.22c0.524,0.551,1.056,1.109,1.593,1.674
								c0.539,0.562,1.087,1.129,1.582,1.754c1.018,1.225,2.057,2.475,3.115,3.748c1.055,1.275,2.129,2.573,3.219,3.891
								c0.544,0.659,1.092,1.324,1.643,1.993c0.528,0.685,1.061,1.374,1.596,2.067c2.128,2.782,4.206,5.499,6.213,8.122
								c2.003,2.627,3.951,5.147,5.746,7.604c0.913,1.216,1.782,2.417,2.587,3.615c0.806,1.196,1.637,2.324,2.35,3.477
								c1.416,2.299,2.735,4.441,3.939,6.396c2.422,3.871,4.821,6.736,6.276,8.852c1.45,2.119,2.252,3.292,2.252,3.292
								s-0.853-1.135-2.394-3.186c-1.538-2.051-4.039-4.814-6.609-8.648c-1.294-1.923-2.649-4.024-4.11-6.279
								c-0.734-1.125-1.587-2.229-2.413-3.399c-0.823-1.172-1.712-2.351-2.643-3.547c-3.716-4.796-7.8-10.068-12.088-15.603
								c-0.534-0.693-1.064-1.384-1.592-2.068c-0.546-0.668-1.089-1.331-1.628-1.989c-1.075-1.318-2.135-2.617-3.176-3.894
								c-1.038-1.279-2.058-2.536-3.057-3.767c-0.484-0.629-1.021-1.2-1.548-1.767c-0.525-0.57-1.043-1.134-1.556-1.691
								c-1.022-1.118-2.019-2.208-2.987-3.267c-0.946-1.107-1.86-2.181-2.697-3.232c-0.841-1.06-1.694-2.028-2.498-2.981
								c-0.404-0.475-0.855-0.873-1.266-1.301c-0.42-0.416-0.815-0.854-1.264-1.163c-0.914-0.652-1.898-1.192-2.659-1.975
								c-0.357-0.396-0.681-0.901-0.79-1.372c-0.077-0.235-0.152-0.468-0.226-0.695c-0.052-0.235-0.103-0.467-0.152-0.693
								c-0.166-0.912-0.214-1.793-0.064-2.58c0.139-0.787,0.41-1.469,0.715-2.04c0.638-1.134,1.32-1.872,1.69-2.434
								C66.982,565.377,67.082,565.029,67.082,565.029z"/>
						</g>
					</g>
				</g>
				<g>
					<g>
						<g>
							<path d="M120.247,611.487c0,0,0.453,0.711,1.226,2.028c0.37,0.667,0.823,1.482,1.349,2.43
								c0.265,0.471,0.548,0.975,0.848,1.509c0.324,0.517,0.667,1.062,1.027,1.634c1.497,2.279,3.317,4.983,5.245,8.028
								c0.959,1.524,1.965,3.124,3.009,4.783c0.478,0.819,1.166,1.551,1.741,2.422c0.29,0.433,0.574,0.879,0.78,1.418
								c0.091,0.272,0.201,0.568,0.117,0.97c-0.12,0.302-0.191,0.59-0.408,0.836c-0.382,0.549-1.028,0.748-1.524,0.876
								c-0.518,0.137-1.006,0.211-1.38,0.419c-0.814,0.479-1.657,1.085-2.464,1.606c-1.6,1.11-3.006,2.358-4.621,3.302
								c-0.385,0.253-0.828,0.406-1.231,0.608c-0.414,0.182-0.859,0.279-1.277,0.417c-0.204,0.074-0.466,0.064-0.693,0.095
								c-0.234,0.018-0.467-0.057-0.695-0.086c-0.216-0.075-0.428-0.166-0.627-0.263c-0.18-0.126-0.373-0.235-0.534-0.374
								c-0.655-0.549-1.105-1.221-1.513-1.838c-0.417-0.617-0.818-1.21-1.2-1.775c-1.485-2.292-2.629-4.176-3.488-5.435
								c-0.877-1.246-1.362-1.936-1.362-1.936s0.52,0.665,1.458,1.868c0.919,1.219,2.146,3.059,3.705,5.29
								c0.399,0.552,0.818,1.129,1.254,1.731c0.428,0.607,0.877,1.224,1.47,1.692c0.583,0.486,1.331,0.706,2.083,0.469
								c0.388-0.142,0.796-0.237,1.182-0.417c0.376-0.201,0.783-0.346,1.147-0.598c1.488-0.901,2.919-2.199,4.526-3.342
								c0.835-0.55,1.61-1.126,2.536-1.677c0.52-0.281,1.064-0.354,1.534-0.484c0.474-0.126,0.899-0.272,1.117-0.609
								c0.139-0.135,0.19-0.386,0.271-0.547c0.036-0.111-0.013-0.337-0.089-0.541c-0.159-0.423-0.419-0.85-0.691-1.258
								c-0.535-0.825-1.223-1.567-1.73-2.449c-1.02-1.678-2.004-3.296-2.942-4.838c-1.887-3.067-3.586-5.829-5.014-8.15
								c-0.345-0.594-0.672-1.16-0.983-1.696c-0.28-0.548-0.545-1.065-0.792-1.548c-0.483-0.969-0.9-1.803-1.241-2.485
								C120.646,612.229,120.247,611.487,120.247,611.487z"/>
						</g>
					</g>
				</g>
				<g>
					<g>
						<g>
							<path d="M78.805,555.172c0,0,0.283-0.06,0.823-0.173c0.541-0.108,1.34-0.262,2.381-0.397
								c1.041-0.125,2.325-0.264,3.826-0.216c1.493,0.053,3.236,0.247,5.004,1.029c0.901,0.351,1.737,0.952,2.545,1.64
								c0.743,0.754,1.462,1.624,1.933,2.671c0.967,2.029,1.64,4.346,2.172,6.763c0.294,1.193,0.572,2.413,1.029,3.594
								c0.42,1.198,0.984,2.342,1.577,3.57c1.165,2.428,2.37,4.942,3.604,7.517c0.635,1.273,1.262,2.531,1.88,3.772
								c0.626,1.235,1.32,2.407,1.957,3.586c1.277,2.347,2.592,4.606,3.796,6.766c2.411,4.324,4.583,8.219,6.407,11.49
								c3.588,6.568,5.81,10.634,5.81,10.634s-2.409-3.958-6.301-10.353c-1.918-3.213-4.202-7.038-6.738-11.285
								c-1.253-2.137-2.589-4.347-3.915-6.715c-0.658-1.183-1.371-2.365-2.009-3.607c-0.627-1.248-1.262-2.514-1.906-3.794
								c-1.22-2.583-2.411-5.104-3.562-7.54c-0.563-1.2-1.156-2.445-1.571-3.7c-0.458-1.246-0.721-2.515-0.992-3.728
								c-0.479-2.424-1.073-4.665-1.94-6.641c-0.405-0.983-1.04-1.794-1.699-2.517c-0.724-0.654-1.477-1.247-2.315-1.608
								c-1.639-0.803-3.325-1.07-4.786-1.186c-1.471-0.112-2.749-0.037-3.789,0.034c-1.041,0.082-1.847,0.192-2.392,0.27
								C79.091,555.129,78.805,555.172,78.805,555.172z"/>
						</g>
					</g>
				</g>
				<g>
					<g>
						<g>
							<path d="M67.374,564.932c0,0-0.138,0.168-0.399,0.488c-0.257,0.322-0.618,0.813-1.037,1.473
								c-0.4,0.669-0.863,1.51-1.219,2.548c-0.344,1.027-0.604,2.296-0.296,3.587c0.177,0.635,0.5,1.248,0.984,1.771
								c0.503,0.499,1.131,0.938,1.848,1.252c1.415,0.67,3.159,0.726,4.915,0.416c1.764-0.329,3.562-1.009,5.354-1.867
								c0.448-0.22,0.899-0.435,1.337-0.681c0.426-0.266,0.856-0.534,1.289-0.804c0.886-0.505,1.711-1.145,2.554-1.781
								c1.684-1.273,3.227-2.671,4.721-4.021c1.498-1.341,2.881-2.672,3.907-4.142c1.029-1.447,1.612-3.115,1.244-4.595
								c-0.379-1.477-1.4-2.684-2.594-3.265c-1.199-0.607-2.465-0.791-3.56-0.84c-1.101-0.049-2.059,0.019-2.836,0.104
								c-1.557,0.17-2.411,0.347-2.411,0.347s0.835-0.245,2.387-0.521c0.776-0.138,1.736-0.27,2.867-0.287
								c1.123-0.015,2.45,0.091,3.801,0.69c1.354,0.585,2.585,1.866,3.095,3.578c0.516,1.766-0.14,3.748-1.199,5.322
								c-1.059,1.613-2.482,3.034-3.967,4.407c-1.481,1.38-3.033,2.812-4.767,4.123c-3.459,2.65-7.269,4.542-11.064,5.176
								c-1.888,0.282-3.838,0.158-5.402-0.659c-0.782-0.382-1.462-0.896-2.017-1.501c-0.535-0.63-0.875-1.364-1.037-2.094
								c-0.273-1.48,0.097-2.797,0.511-3.839c0.433-1.052,0.959-1.872,1.408-2.521c0.468-0.638,0.866-1.104,1.148-1.407
								C67.224,565.089,67.374,564.932,67.374,564.932z"/>
						</g>
					</g>
				</g>
				<path d="M89.923,554.921c-3.107-1.587-8.956-2.029-11.872-0.291c1.198,0.2,2.583,1.947,3.593,2.688
					c-0.038-0.177,0.058-0.447,0.034-0.63c1.773-0.735,7.47-0.327,7.272,2.316c-0.188,2.518-2.562,4.672-4.158,6.511
					c-3.69,4.254-8.782,6.827-14.212,7.096c-1.828,0.091-2.649-0.661-2.721-2.43c-0.061-1.495-0.106-3.19,1.375-3.883
					c-0.481-0.594-1.333-0.988-1.684-1.64c-0.805,0.148-1.78,2.072-2.24,2.779c-0.793,1.216-1.312,2.434-1.339,3.909
					c-0.049,2.718,1.998,5.089,4.568,5.341c5.797,0.567,10.605-2.099,14.943-5.754c1.943-1.637,3.927-3.229,5.686-5.102
					c1.701-1.812,3.921-4.032,3.961-6.536c0.029-1.804-1.654-3.849-3.402-4.471"/>
				<g>
					<g>
						<g>
							<path d="M83.042,579.434c0,0,0.009,0.239,0.027,0.694c0,0.453,0.087,1.122,0.263,1.96c0.187,0.839,0.512,1.841,1.027,2.942
								c0.527,1.097,1.233,2.292,2.132,3.532c1.794,2.487,4.334,5.138,7.225,8.031c2.914,2.865,6.084,6.014,9.422,9.383
								c1.649,1.699,3.322,3.286,4.807,4.965c1.502,1.668,2.836,3.368,4.081,5.004c2.457,3.3,4.415,6.434,6.051,9.061
								c1.618,2.641,2.886,4.799,3.771,6.285c0.881,1.489,1.369,2.312,1.369,2.312s-2.147-3.17-5.616-8.29
								c-1.751-2.545-3.819-5.588-6.334-8.788c-1.273-1.586-2.624-3.237-4.126-4.858c-1.486-1.634-3.173-3.211-4.811-4.898
								c-6.561-6.759-12.834-12.657-16.306-17.887c-0.857-1.306-1.517-2.563-1.994-3.709c-0.465-1.153-0.735-2.192-0.873-3.053
								c-0.126-0.861-0.169-1.538-0.138-1.994C83.035,579.673,83.042,579.434,83.042,579.434z"/>
						</g>
					</g>
				</g>
				<g>
					<g>
						<g>
							<path d="M118.81,630.494c0,0,0.1-0.238,0.287-0.58c0.186-0.347,0.45-0.811,0.86-1.259c0.416-0.444,0.917-0.753,1.312-0.883
								c0.398-0.127,0.651-0.129,0.651-0.129s-0.191,0.19-0.451,0.449c-0.273,0.307-0.606,0.681-0.959,1.077
								c-0.384,0.419-0.803,0.771-1.133,0.997C119.042,630.391,118.81,630.494,118.81,630.494z"/>
						</g>
					</g>
				</g>
				<g>
					<g>
						<g>
							<path d="M117.515,627.644c0,0,0.341-0.794,1.124-1.45c0.872-0.541,1.728-0.624,1.728-0.624s-0.491,0.748-1.282,1.233
								C118.373,627.404,117.515,627.644,117.515,627.644z"/>
						</g>
					</g>
				</g>
				<g>
					<g>
						<g>
							<path d="M114.922,625.569c0,0,0.108-0.244,0.318-0.597c0.211-0.354,0.521-0.828,0.978-1.266
								c0.463-0.434,0.988-0.726,1.398-0.854c0.412-0.128,0.676-0.134,0.676-0.134s-0.204,0.193-0.482,0.458
								c-0.287,0.276-0.639,0.674-1.072,1.079c-0.43,0.411-0.877,0.753-1.225,0.977
								C115.164,625.459,114.922,625.569,114.922,625.569z"/>
						</g>
					</g>
				</g>
				<g>
					<g>
						<g>
							<path d="M113.886,621.94c0,0,0.47-0.824,1.329-1.468c0.859-0.645,1.782-0.864,1.782-0.864s-0.47,0.824-1.329,1.468
								C114.809,621.721,113.886,621.94,113.886,621.94z"/>
						</g>
					</g>
				</g>
				<g>
					<g>
						<g>
							<path d="M111.294,619.35c0,0,0.19-0.218,0.513-0.51c0.325-0.279,0.767-0.686,1.317-1.046c0.578-0.347,1.139-0.605,1.6-0.67
								c0.445-0.092,0.717-0.107,0.717-0.107s-0.217,0.197-0.562,0.451c-0.357,0.226-0.793,0.63-1.344,0.96
								c-0.552,0.36-1.104,0.613-1.541,0.739C111.567,619.303,111.294,619.35,111.294,619.35z"/>
						</g>
					</g>
				</g>
				<g>
					<g>
						<g>
							<path d="M109.739,618.312c0,0,0.501-1.236,1.565-2.423c0.559-0.57,1.105-1.044,1.575-1.308
								c0.453-0.278,0.748-0.416,0.748-0.416s-0.179,0.287-0.494,0.696c-0.329,0.391-0.729,0.985-1.271,1.537
								C110.825,617.554,109.739,618.312,109.739,618.312z"/>
						</g>
					</g>
				</g>
				<g>
					<g>
						<g>
							<path d="M107.406,616.758c0,0,0.202-0.346,0.586-0.884c0.356-0.568,1.032-1.18,1.804-1.821
								c0.845-0.547,1.632-1.008,2.289-1.162c0.632-0.198,1.022-0.28,1.022-0.28s-0.328,0.262-0.856,0.619
								c-0.552,0.314-1.203,0.915-2.008,1.431c-0.733,0.614-1.505,1.058-1.982,1.478
								C107.755,616.529,107.406,616.758,107.406,616.758z"/>
						</g>
					</g>
				</g>
				<g>
					<g>
						<g>
							<path d="M105.332,614.684c0,0,0.936-1.232,2.414-2.315c0.714-0.561,1.434-0.979,1.921-1.322
								c0.505-0.327,0.849-0.51,0.849-0.51s-0.209,0.315-0.597,0.791c-0.375,0.496-0.99,1.072-1.719,1.644
								C106.718,614.057,105.332,614.684,105.332,614.684z"/>
						</g>
					</g>
				</g>
				<g>
					<g>
						<g>
							<path d="M101.185,612.61c0,0,0.412-0.353,1.116-0.865c0.705-0.511,1.703-1.17,2.811-1.854c1.098-0.697,2.09-1.316,2.767-1.84
								c0.358-0.24,0.59-0.496,0.788-0.643c0.188-0.154,0.294-0.242,0.294-0.242s-0.074,0.115-0.205,0.318
								c-0.144,0.194-0.314,0.522-0.618,0.841c-0.567,0.68-1.497,1.49-2.625,2.205c-1.137,0.701-2.229,1.197-3.025,1.542
								C101.694,612.42,101.185,612.61,101.185,612.61z"/>
						</g>
					</g>
				</g>
				<g>
					<g>
						<g>
							<path d="M100.408,609.5c0,0,0.066-0.102,0.183-0.279c0.127-0.172,0.285-0.452,0.547-0.734
								c0.492-0.599,1.28-1.336,2.266-1.988c1.004-0.624,2.007-1.034,2.767-1.21c0.368-0.117,0.694-0.123,0.904-0.159
								c0.21-0.023,0.331-0.035,0.331-0.035s-0.109,0.055-0.301,0.149c-0.19,0.103-0.477,0.197-0.8,0.397
								c-0.667,0.344-1.532,0.897-2.493,1.493c-0.943,0.625-1.81,1.182-2.417,1.629C100.799,609.208,100.408,609.5,100.408,609.5z"
								/>
						</g>
					</g>
				</g>
				<g>
					<g>
						<g>
							<path d="M97.038,607.945c0,0,0.439-0.312,1.113-0.789c0.655-0.525,1.49-1.281,2.427-2.158
								c0.944-0.871,1.915-1.585,2.687-1.979c0.375-0.21,0.723-0.303,0.941-0.394c0.222-0.078,0.348-0.123,0.348-0.123
								s-0.107,0.083-0.295,0.227c-0.184,0.154-0.475,0.324-0.786,0.606c-0.641,0.535-1.438,1.348-2.387,2.222
								c-0.944,0.885-1.964,1.548-2.739,1.922C97.546,607.815,97.038,607.945,97.038,607.945z"/>
						</g>
					</g>
				</g>
				<g>
					<g>
						<g>
							<path d="M97.557,602.761c0,0,0.699-0.939,1.871-1.744c1.119-0.771,2.276-1.107,2.276-1.107s-0.699,0.939-1.871,1.744
								C98.714,602.424,97.557,602.761,97.557,602.761z"/>
						</g>
					</g>
				</g>
				<g>
					<g>
						<g>
							<path d="M96.002,605.352c0,0,0.082-0.083,0.226-0.227c0.139-0.152,0.368-0.322,0.594-0.597
								c0.468-0.533,1.026-1.312,1.697-2.182c0.681-0.865,1.435-1.591,2.087-1.968c0.302-0.215,0.62-0.28,0.801-0.365
								c0.189-0.067,0.297-0.105,0.297-0.105s-0.088,0.076-0.242,0.21c-0.146,0.147-0.396,0.282-0.624,0.558
								c-0.497,0.498-1.051,1.281-1.728,2.139c-0.669,0.869-1.424,1.589-2.043,2c-0.301,0.215-0.598,0.316-0.776,0.41
								C96.107,605.307,96.002,605.352,96.002,605.352z"/>
						</g>
					</g>
				</g>
				<g>
					<g>
						<g>
							<path d="M92.891,600.688c0,0,0.253-0.321,0.686-0.786c0.442-0.446,1.018-1.115,1.747-1.749
								c0.744-0.636,1.469-1.15,2.066-1.427c0.577-0.297,0.945-0.444,0.945-0.444s-0.27,0.31-0.724,0.751
								c-0.47,0.416-1.058,1.063-1.786,1.686c-0.731,0.636-1.436,1.166-2.012,1.479C93.252,600.521,92.891,600.688,92.891,600.688z"
								/>
						</g>
					</g>
				</g>
				<g>
					<g>
						<g>
							<path d="M90.818,598.096c0,0,0.82-1.411,2.195-2.858c1.344-1.416,2.729-2.325,2.729-2.325s-0.82,1.411-2.195,2.858
								C92.203,597.187,90.818,598.096,90.818,598.096z"/>
						</g>
					</g>
				</g>
				<g>
					<g>
						<g>
							<path d="M86.93,594.727c0,0,0.432-0.31,1.134-0.748c0.727-0.393,1.616-1.118,2.688-1.758
								c0.981-0.768,1.987-1.324,2.601-1.874c0.653-0.506,1.094-0.805,1.094-0.805s-0.295,0.421-0.833,1.077
								c-0.5,0.703-1.417,1.432-2.436,2.225c-1.108,0.664-2.123,1.244-2.948,1.475C87.428,594.595,86.93,594.727,86.93,594.727z"/>
						</g>
					</g>
				</g>
				<g>
					<g>
						<g>
							<path d="M84.338,592.652c0,0,0.453-0.293,1.148-0.742c0.721-0.456,1.685-1.066,2.741-1.735
								c1.049-0.684,1.976-1.329,2.546-1.913c0.291-0.286,0.498-0.55,0.627-0.742c0.124-0.198,0.195-0.31,0.195-0.31
								s-0.032,0.131-0.088,0.36c-0.069,0.23-0.204,0.561-0.439,0.928c-0.457,0.748-1.336,1.6-2.43,2.311
								c-1.098,0.71-2.188,1.16-2.987,1.442C84.851,592.532,84.338,592.652,84.338,592.652z"/>
						</g>
					</g>
				</g>
				<g>
					<g>
						<g>
							<path d="M81.487,590.319c0,0,0.441-0.393,1.176-0.977c0.754-0.557,1.716-1.421,2.869-2.246
								c1.062-0.926,2.166-1.619,2.818-2.276c0.7-0.612,1.171-0.981,1.171-0.981s-0.319,0.481-0.897,1.24
								c-0.537,0.81-1.535,1.662-2.629,2.613c-1.174,0.841-2.265,1.564-3.127,1.966C82.023,590.088,81.487,590.319,81.487,590.319z"
								/>
						</g>
					</g>
				</g>
				<g>
					<g>
						<g>
							<path d="M79.932,587.987c0,0,1.195-1.411,2.92-2.864c0.902-0.694,1.752-1.277,2.454-1.573
								c0.679-0.324,1.106-0.487,1.106-0.487s-0.339,0.33-0.9,0.804c-0.58,0.442-1.3,1.163-2.182,1.841
								C81.612,587.154,79.932,587.987,79.932,587.987z"/>
						</g>
					</g>
				</g>
				<g>
					<g>
						<g>
							<path d="M145.507,666.781c0,0,0.279-0.001,0.78-0.004c0.256-0.01,0.564,0.019,0.921,0.073
								c0.361,0.042,0.771,0.104,1.21,0.232c0.901,0.198,1.913,0.63,2.995,1.199c1.052,0.614,2.148,1.414,3.138,2.427
								c0.974,1.028,1.737,2.159,2.292,3.254c0.502,1.125,0.863,2.178,0.952,3.106c0.086,0.453,0.085,0.873,0.082,1.237
								c0.013,0.362-0.01,0.672-0.062,0.924c-0.082,0.495-0.127,0.771-0.127,0.771s-0.039-0.274-0.109-0.768
								c-0.019-0.245-0.078-0.539-0.176-0.873c-0.082-0.336-0.17-0.713-0.34-1.112c-0.257-0.815-0.762-1.709-1.33-2.661
								c-0.626-0.93-1.383-1.892-2.269-2.829c-0.903-0.922-1.841-1.718-2.738-2.402c-0.923-0.636-1.782-1.205-2.567-1.562
								c-0.382-0.208-0.745-0.354-1.069-0.479c-0.321-0.137-0.603-0.245-0.841-0.304
								C145.772,666.863,145.507,666.781,145.507,666.781z"/>
						</g>
					</g>
				</g>
				<g>
					<g>
						<g>
							<path d="M148.099,667.559c0,0-0.006-0.074-0.018-0.215c-0.003-0.141-0.048-0.356-0.014-0.627
								c0.014-0.547,0.192-1.375,0.736-2.236c0.531-0.866,1.386-1.739,2.425-2.518c0.519-0.392,1.08-0.771,1.663-1.139
								c0.287-0.178,0.578-0.359,0.874-0.544c0.292-0.169,0.64-0.412,0.998-0.573c1.467-0.712,2.994-0.822,4.291-0.785
								c1.309,0.053,2.444,0.255,3.385,0.442c1.875,0.396,3.026,0.678,3.026,0.678s-1.195,0.094-3.102,0.073
								c-1.872,0.038-4.583-0.149-6.941,0.95c-0.304,0.137-0.547,0.309-0.872,0.484c-0.312,0.176-0.621,0.349-0.923,0.519
								c-0.596,0.327-1.16,0.64-1.685,0.95c-1.051,0.618-1.921,1.257-2.534,1.916C148.142,666.256,148.15,667.596,148.099,667.559z"
								/>
						</g>
					</g>
				</g>
				<g>
					<g>
						<g>
							<path d="M147.84,667.299c0,0-0.034-0.33-0.096-0.924c-0.067-0.598-0.105-1.465-0.092-2.544
								c0.051-2.136,0.431-5.218,2.045-8.218c0.812-1.484,1.849-2.747,2.914-3.741c1.064-1.004,2.186-1.693,3.137-2.213
								c0.969-0.492,1.774-0.826,2.352-0.999c0.569-0.181,0.886-0.281,0.886-0.281s-0.28,0.177-0.785,0.495
								c-0.512,0.297-1.215,0.792-2.044,1.42c-0.811,0.653-1.754,1.448-2.637,2.472c-0.887,1.016-1.752,2.211-2.496,3.568
								c-1.472,2.729-2.2,5.525-2.621,7.58c-0.198,1.03-0.349,1.878-0.422,2.467C147.89,666.971,147.84,667.299,147.84,667.299z"/>
						</g>
					</g>
				</g>
				<g>
					<g>
						<g>
							<path d="M121.921,679.223c0,0,0.199-0.408,0.557-1.145c0.343-0.749,0.959-1.773,1.819-2.982
								c0.463-0.577,0.929-1.256,1.561-1.867c0.307-0.314,0.612-0.653,0.955-0.974c0.357-0.305,0.725-0.618,1.102-0.94
								c1.552-1.232,3.446-2.379,5.59-3.206c4.327-1.622,8.554-1.675,11.47-1.383c1.468,0.155,2.642,0.353,3.441,0.547
								c0.798,0.184,1.24,0.286,1.24,0.286s-0.453-0.019-1.27-0.053c-0.812-0.053-1.994-0.06-3.437-0.025
								c-2.882,0.087-6.861,0.519-10.906,2.038c-2.012,0.778-3.817,1.766-5.366,2.817c-0.38,0.275-0.752,0.541-1.112,0.802
								c-0.35,0.273-0.668,0.566-0.991,0.834c-0.663,0.52-1.178,1.111-1.698,1.609c-0.975,1.05-1.738,1.952-2.197,2.621
								C122.191,678.858,121.921,679.223,121.921,679.223z"/>
						</g>
					</g>
				</g>
				<path fill="none" stroke="#000000" stroke-width="1.6571" stroke-miterlimit="10" d="M56.19,547.76
					c1.697,2.822,6.77,2.887,11.331,0.143c4.56-2.742,6.882-7.253,5.185-10.075c-1.697-2.822-6.77-2.886-11.33-0.144
					C56.815,540.428,54.494,544.938,56.19,547.76z"/>
				<path fill="none" stroke="#000000" stroke-width="2.0087" stroke-miterlimit="10" d="M66.945,542.34"/>
				<path d="M60.604,546.952c5.192,0.853,10.013,11.333,12.779,15.499c1.552,2.339,3.021,7.318,6.263,3.67
					c2.894-3.257-1.365-5.865-3.197-8.336c-2.13-2.873-3.636-6.065-5.711-8.967c-1.295-1.814-1.918-2.828-3.773-2.879
					c-1.571-0.044-4.674,0.139-6.259,0.505"/>
				<path d="M80.061,571.269c-2.479,0.73-9.22,2.919-11.116-0.029c-2.137-3.322,1.692-6.474,4.212-8.172
					c2.449-1.65,4.489-3.621,7.164-5.018c3.322-1.736,6.657-1.898,10.387-1.427c-3.297-1.518-6.538-3.171-10.516-2.98
					c-3.065,0.147-6.787,2.981-8.974,5.022c-1.299,1.212-2.019,2.628-2.977,4.021c-0.917,1.332-1.997,2.556-2.661,4.076
					c-0.657,1.505-1.279,4.349-0.197,5.838c1.056,1.454,3.403,2.182,4.967,2.549c3.386,0.796,7.299-0.439,9.454-3.362"/>
				<path d="M65.935,549.108c-3.155,0.89-8.39,1.278-10.303-2.138c-1.745-3.116,1.606-6.548,4.097-8.431
					c3.036-2.295,7.018-3.55,10.815-2.335c4.531,1.45,2.105,5.443,0.38,8.303c-0.682,1.129-0.954,2.229-2.068,3.115
					c-1.089,0.867-2.767,0.806-3.699,2.003"/>
				<path d="M118.356,641.381c1.8,2.977,3.814,5.239,7.287,5.803c3.288,0.533,9.096,1.559,10.626-2.405
					c1.138-2.948,1.249-7.028-0.705-9.72c-1.735-2.388-3.426-4.926-5.385-7.146c-0.29,1.46,1.809,2.933,2.562,4.008
					c0.965,1.379,2.069,3.236,0.882,4.763c-0.946,1.218-2.699,2.207-3.898,3.107c-1.284,0.963-2.583,2.011-3.978,2.789
					c-1.247,0.696-2.772,1.225-4.28,1.005C119.919,643.357,119.534,642.16,118.356,641.381"/>
				<path d="M135.723,643.195c1.085,0.99,2.005,4.529,0.294,5.478c-0.579,0.32-2.846,0.408-3.534,0.224
					c-0.892-0.239-1.751-1.191-1.792-2.18c1.319-0.426,2.956-1.451,3.995-2.355"/>
				<path d="M136.241,646.953c1.257,1.907,3.04,4.389,1.591,6.516c-0.635,0.933-1.755,1.457-2.271,2.423
					c-0.616,1.155-0.404,2.932-0.337,4.261c1.964,0.1,3.38-0.264,5.165-1.017c1.717-0.727,2.596-0.07,3.92,1.261
					c2.064,2.076,2.836,4.948,4.452,7.306c-0.984-0.442-1.318-0.552-1.917-1.283c-0.601-0.733-0.711-1.343-1.044-2.196
					c-0.538-1.383-1.472-3.218-2.851-4.018c-2.803-1.625-9.558,4.177-9.558-1.588c0-1.255,0.087-2.167,0.875-3.146
					c0.643-0.798,1.628-1.11,2.105-2.031c1.002-1.93-1.381-4.076-2.05-5.692c0.354,0.22,0.707,0.187,1.124,0.224
					c-0.05-0.422,0.212-0.617,0.279-0.889"/>
			</g>
			<g opacity="0.3">
				<g>
					<g>
						<path fill="#FFFFFF" d="M93.993,564.659c0,0,0.332,1.095,0.931,3.074c0.599,1.977,1.365,4.883,3.175,8.108
							c0.849,1.636,1.708,3.458,2.884,5.287c1.112,1.86,2.307,3.844,3.63,5.903c1.323,2.053,2.637,4.268,3.994,6.569
							c1.358,2.286,2.763,4.653,4.203,7.078c5.656,9.738,11.026,18.455,14.644,24.91c0.883,1.634,1.612,3.138,2.265,4.455
							c0.664,1.309,1.237,2.436,1.705,3.357c1.016,1.8,1.579,2.795,1.579,2.795s-0.611-0.968-1.716-2.718
							c-0.508-0.902-1.129-2.006-1.851-3.287c-0.704-1.288-1.49-2.766-2.421-4.356c-3.83-6.319-9.395-14.872-15.076-24.654
							c-1.429-2.435-2.823-4.811-4.17-7.107c-1.322-2.296-2.593-4.516-3.879-6.599c-1.281-2.079-2.436-4.104-3.503-6.006
							c-1.129-1.864-1.944-3.737-2.741-5.412c-1.71-3.306-2.368-6.294-2.872-8.282C94.27,565.769,93.993,564.659,93.993,564.659z"/>
					</g>
				</g>
			</g>
			<g opacity="0.3">
				<g>
					<g>
						<path fill="#FFFFFF" d="M59.909,539.648c0,0-0.062,0.058-0.182,0.167c-0.11,0.118-0.312,0.247-0.497,0.489
							c-0.41,0.44-0.895,1.183-1.235,2.179c-0.336,0.982-0.511,2.293-0.056,3.517c0.239,0.596,0.649,1.125,1.223,1.472
							c0.575,0.36,1.322,0.446,2.069,0.483c1.586-0.071,3.089-0.452,4.411-0.917c0.649-0.268,1.28-0.502,1.831-0.81
							c0.572-0.267,1.074-0.575,1.532-0.86c0.473-0.265,0.855-0.57,1.21-0.815c0.359-0.242,0.649-0.475,0.88-0.674
							c0.474-0.387,0.736-0.602,0.736-0.602s-0.225,0.256-0.628,0.716c-0.2,0.236-0.456,0.512-0.784,0.804
							c-0.323,0.296-0.674,0.657-1.123,0.981c-0.435,0.346-0.918,0.718-1.484,1.049c-0.543,0.372-1.18,0.671-1.848,0.997
							c-1.363,0.583-2.955,1.061-4.712,1.138c-0.903-0.036-1.828-0.162-2.595-0.67c-0.764-0.492-1.278-1.253-1.52-2.014
							c-0.454-1.558-0.083-2.968,0.391-3.982c0.489-1.026,1.105-1.72,1.593-2.104c0.224-0.215,0.453-0.315,0.58-0.412
							C59.838,539.693,59.909,539.648,59.909,539.648z"/>
					</g>
				</g>
			</g>
			<g opacity="0.3">
				<g>
					<g>
						<path fill="#FFFFFF" d="M69.37,564.142c0,0-0.091,0.065-0.264,0.188c-0.166,0.133-0.445,0.278-0.737,0.555
							c-0.596,0.49-1.521,1.336-1.798,2.678c-0.283,1.297,0.188,3.042,1.26,4.428c1.094,1.402,3.129,1.93,5.207,1.654
							c2.091-0.254,4.034-1.008,5.721-1.803c1.692-0.803,3.141-1.699,4.303-2.523c1.162-0.827,2.037-1.591,2.596-2.165
							c0.558-0.575,0.82-0.94,0.82-0.94s-0.207,0.397-0.701,1.043c-0.495,0.644-1.296,1.513-2.405,2.458
							c-1.109,0.941-2.521,1.968-4.228,2.884c-1.704,0.906-3.703,1.764-5.99,2.045c-1.138,0.133-2.305,0.078-3.376-0.274
							c-1.072-0.343-2.007-1.024-2.614-1.856c-0.616-0.834-0.938-1.747-1.136-2.606c-0.062-0.446-0.177-0.864-0.127-1.29
							c0.013-0.21,0.004-0.416,0.039-0.612c0.05-0.195,0.098-0.386,0.146-0.572c0.078-0.377,0.306-0.679,0.44-0.988
							c0.203-0.271,0.395-0.527,0.588-0.747c0.216-0.198,0.418-0.382,0.604-0.551c0.204-0.143,0.391-0.271,0.559-0.389
							c0.327-0.242,0.627-0.354,0.808-0.466C69.271,564.193,69.37,564.142,69.37,564.142z"/>
					</g>
				</g>
			</g>
			<g opacity="0.3">
				<g>
					<g>
						<path fill="#FFFFFF" d="M74.831,577.733c0,0,0.332-0.065,0.931-0.185c0.3-0.043,0.657-0.151,1.069-0.275
							c0.206-0.059,0.426-0.123,0.659-0.191c0.228-0.087,0.468-0.179,0.72-0.275c1.013-0.362,2.161-0.942,3.402-1.625
							c1.229-0.713,2.528-1.576,3.841-2.557c2.6-1.995,4.725-4.099,6.061-5.797c0.344-0.418,0.643-0.806,0.879-1.165
							c0.247-0.353,0.469-0.653,0.613-0.92c0.315-0.523,0.49-0.814,0.49-0.814s-0.125,0.316-0.35,0.886
							c-0.104,0.292-0.28,0.623-0.48,1.013c-0.19,0.396-0.441,0.828-0.741,1.292c-1.157,1.884-3.173,4.244-5.862,6.307
							c-1.356,1.013-2.738,1.854-4.053,2.506c-1.33,0.622-2.565,1.102-3.647,1.354c-0.268,0.066-0.523,0.13-0.765,0.19
							c-0.247,0.038-0.479,0.074-0.697,0.108c-0.434,0.067-0.805,0.123-1.116,0.12C75.171,577.724,74.831,577.733,74.831,577.733z"
							/>
					</g>
				</g>
			</g>
			<g opacity="0.3">
				<g>
					<g>
						<path fill="#FFFFFF" d="M101.271,588.037c0,0,0.383,0.604,1.076,1.692c0.344,0.548,0.766,1.218,1.255,1.995
							c0.456,0.797,0.975,1.704,1.549,2.707c0.567,1.005,1.188,2.107,1.854,3.288c0.33,0.591,0.672,1.203,1.024,1.833
							c0.372,0.616,0.754,1.25,1.146,1.9c0.392,0.649,0.793,1.315,1.204,1.996c0.445,0.66,0.9,1.335,1.363,2.022
							c0.917,1.379,1.867,2.807,2.84,4.27c1.955,2.92,3.927,5.635,5.635,8.16c1.721,2.484,3.495,4.615,4.746,6.576
							c1.275,1.944,2.075,3.675,2.415,4.933c0.171,0.626,0.267,1.124,0.286,1.465c0.03,0.339,0.046,0.517,0.046,0.517
							s-0.031-0.176-0.089-0.511c-0.046-0.335-0.18-0.82-0.393-1.423c-0.425-1.211-1.32-2.849-2.68-4.694
							c-1.338-1.866-3.187-3.889-5.021-6.366c-1.789-2.477-3.814-5.156-5.778-8.09c-0.965-1.479-1.908-2.922-2.818-4.316
							c-0.451-0.699-0.894-1.387-1.328-2.06c-0.408-0.69-0.784-1.383-1.162-2.05c-0.374-0.67-0.737-1.323-1.091-1.957
							c-0.327-0.646-0.645-1.273-0.952-1.88c-0.608-1.214-1.175-2.345-1.692-3.377c-0.512-1.033-0.976-1.969-1.384-2.789
							c-0.433-0.807-0.806-1.502-1.111-2.069C101.606,588.669,101.271,588.037,101.271,588.037z"/>
					</g>
				</g>
			</g>
		</g>
	</g>
</g>
</svg>
