<?xml version="1.0" encoding="utf-8"?>
<!-- Generator: Adobe Illustrator 25.0.1, SVG Export Plug-In . SVG Version: 6.00 Build 0)  -->
<svg version="1.1" id="Capa_1" xmlns="http://www.w3.org/2000/svg" xmlns:xlink="http://www.w3.org/1999/xlink" x="0px" y="0px"
	 viewBox="0 0 800 800" enable-background="new 0 0 800 800" xml:space="preserve">
<g id="accesorios">
	<g id="Capa_85">
		<g>
			<path opacity="0.3" enable-background="new    " d="M169.39,675.016c0.067,5.492,7.722,11.777,9.756,16.828
				c2.203,5.469,4.222,11.246,5.997,17.191c1.376,4.613,2.961,15.908,8.418,17.85c5.997,2.133,12.476-7.936,15.998-11.29
				c9.037-8.607,17.897-14.268,28.73-18.203c-12.121-0.763-23.105-3.124-34.284-7.537c-6.376-2.518-12.417-5.703-18.008-9.193
				c-4.116-2.571-8.643-8.446-13.86-8.595"/>
			<g>
				<path fill="#896547" d="M239.037,694.825c-2.188-2.634-4.558-5.394-6.377-8.312c-2.046-3.28-4.451-5.941-6.594-9.099
					c-4.398-6.479-8.002-12.969-10.722-20.32c-1.192-3.221-2.725-7.082-5.067-9.605c-2.305-2.483-7.612,0.329-10.388,1.342
					c-6.936,2.526-12.693,7.185-19.441,10.204c-3.609,1.614-6.54,3.398-9.098,6.368c-2.504,2.908-5.648,6.523-3.299,10.532
					c1.878,3.207,5.102,5.296,7.645,7.796c2.58,2.536,4.502,5.62,6.348,8.798c3.6,6.195,6.982,13.106,8.458,20.038
					c0.676,3.173,1.205,9.749,5.949,8.588c1.562-0.382,2.759-2.319,3.915-3.435c1.305-1.258,2.749-2.468,3.97-3.8
					c2.514-2.746,5.465-5.371,8.909-7.038c1.626-0.788,3.094-1.799,4.807-2.495c1.69-0.69,3.408-0.873,5.095-1.491
					c3.152-1.158,6.205-1.946,9.3-2.99c2.056-0.692,9.333-2.418,6.412-5.442"/>
				<path fill="#C15F1E" d="M222.844,669.58c-2.971,1.86-5.063,4.895-8.145,6.86c-1.827,1.166-3.133,2.676-5.094,3.604
					c-1.318,0.623-4.555,1.428-5.938,0.739c-1.244-0.619-3.239-3.401-3.808-4.665c-0.817-1.813-1.136-3.521-1.926-5.303
					c-1.968-4.443-3.277-7.357-4.409-10.851c-0.773-2.386-1.743-4.742-2.439-7.11c1.57-0.57,2.871-1.826,4.509-2.488
					c1.658-0.669,3.439-1.188,5.15-1.845c3.074-1.184,7.917-3.354,10.339-0.307c2.237,2.814,3.056,6.889,4.506,10.129
					c1.502,3.354,2.959,6.548,4.971,9.552c0.577,0.86,1.241,1.713,1.827,2.58"/>
				<g>
					<g>
						<g>
							<g>
								<path d="M199.77,649.054c0,0-0.852,0.345-2.434,0.984c-1.607,0.57-3.825,1.708-6.543,3.271
									c-2.701,1.592-5.907,3.656-9.676,5.782c-1.868,1.08-3.866,2.193-5.813,3.556c-1.939,1.357-3.903,2.914-5.417,4.943
									l-0.024,0.03c-0.577,0.762-1.381,1.795-1.743,3.157c-0.381,1.35-0.215,2.961,0.452,4.442
									c0.595,1.323,1.494,2.508,2.462,3.594c0.979,1.092,2.032,2.067,3.131,3.029c1.023,1.046,1.99,2.121,2.953,3.15
									c0.895,1.084,1.719,2.184,2.549,3.236c3.152,4.344,5.346,8.657,6.983,12.343c1.538,3.735,2.52,6.851,3.085,9.03
									c0.521,2.188,0.81,3.399,0.81,3.399s-0.348-1.193-0.976-3.353c-0.663-2.144-1.773-5.202-3.423-8.852
									c-1.751-3.6-4.043-7.798-7.227-12.01c-0.836-1.018-1.667-2.087-2.558-3.135c-0.955-0.987-1.902-2.017-2.909-3.028
									c-2.163-1.886-4.501-4.003-5.89-6.951c-0.755-1.652-0.962-3.597-0.495-5.184c0.443-1.601,1.353-2.731,2.001-3.551
									c-0.01,0.012-0.02,0.024-0.024,0.03c1.654-2.165,3.724-3.742,5.734-5.097c2.022-1.358,4.059-2.435,5.957-3.469
									c3.812-2.025,7.065-3.975,9.843-5.477c2.791-1.47,5.071-2.516,6.71-3.012C198.901,649.356,199.77,649.054,199.77,649.054z"
									/>
							</g>
						</g>
					</g>
					<g>
						<g>
							<g>
								<path d="M236.899,691.838c0,0-2.411-3.073-6.305-8.037c-1.911-2.493-4.315-5.408-6.546-8.978
									c-2.254-3.539-4.413-7.613-6.567-11.921c-1.074-2.15-2.123-4.25-3.135-6.277c-1.114-2.007-1.803-4.175-2.604-6.032
									c-0.407-0.933-0.87-1.809-1.483-2.479c-0.605-0.678-1.392-1.085-2.235-1.128c-0.852-0.06-1.659,0.165-2.491,0.423
									c-0.828,0.258-1.624,0.489-2.388,0.693c-3.057,0.798-5.492,1.513-7.09,2.258c-0.81,0.346-1.405,0.681-1.806,0.914
									c-0.406,0.227-0.619,0.346-0.619,0.346s0.205-0.133,0.594-0.386c0.386-0.26,0.962-0.635,1.756-1.03
									c1.561-0.843,4-1.704,7.007-2.632c0.751-0.236,1.532-0.498,2.337-0.785c0.795-0.28,1.737-0.596,2.745-0.555
									c1.018,0.008,2.078,0.516,2.806,1.298c0.746,0.772,1.265,1.716,1.715,2.677c0.897,1.949,1.572,3.969,2.693,5.928
									c1.057,2.021,2.108,4.123,3.187,6.272c2.151,4.303,4.231,8.373,6.372,11.927c2.105,3.565,4.385,6.549,6.198,9.142
									C234.659,688.64,236.899,691.838,236.899,691.838z"/>
							</g>
						</g>
					</g>
					<g>
						<g>
							<g>
								<path d="M211.204,708.027c0,0,0.61-0.349,1.711-0.979c0.554-0.314,1.232-0.696,2.018-1.142
									c0.395-0.221,0.817-0.457,1.265-0.708c0.225-0.126,0.456-0.254,0.692-0.387c0.247-0.11,0.501-0.224,0.76-0.34
									c4.124-1.92,10.004-4.293,16.77-5.931c0.845-0.24,1.654-0.417,2.397-0.707c0.738-0.267,1.477-0.633,1.794-1.124
									c0.301-0.457,0.154-1.098-0.207-1.735c-0.355-0.63-0.821-1.228-1.282-1.804c-0.479-0.579-0.944-1.143-1.397-1.691
									c-0.479-0.547-0.81-1.153-1.201-1.699c-0.744-1.113-1.437-2.151-2.069-3.099c-2.517-3.795-4.024-6.163-4.024-6.163
									s1.737,2.215,4.466,5.831c0.679,0.906,1.422,1.898,2.221,2.963c0.411,0.519,0.776,1.118,1.259,1.623
									c0.473,0.53,0.96,1.076,1.46,1.636c0.495,0.579,1.003,1.18,1.441,1.908c0.209,0.37,0.418,0.773,0.501,1.267
									c0.131,0.481-0.013,1.07-0.273,1.531c-0.604,0.898-1.484,1.251-2.295,1.577c-0.826,0.33-1.698,0.523-2.516,0.758
									c-6.718,1.626-12.603,3.708-16.818,5.364c-0.265,0.1-0.524,0.196-0.777,0.291c-0.243,0.115-0.479,0.228-0.709,0.337
									c-0.46,0.218-0.895,0.423-1.301,0.615c-0.816,0.382-1.518,0.711-2.093,0.979
									C211.843,707.732,211.204,708.027,211.204,708.027z"/>
							</g>
						</g>
					</g>
					<g>
						<g>
							<g>
								<path d="M184.275,697.017c0,0,0.376,0.665,1.054,1.866c0.653,1.215,1.713,2.908,2.801,5.142
									c0.141,0.277,0.284,0.561,0.431,0.851c0.123,0.301,0.249,0.609,0.378,0.924c0.251,0.633,0.513,1.291,0.784,1.973
									c0.49,1.408,0.794,2.94,1.156,4.526c0.358,1.586,0.727,3.25,1.292,4.885c0.284,0.811,0.621,1.621,1.075,2.33
									c0.459,0.691,1.062,1.279,1.779,1.341c0.716,0.105,1.514-0.286,2.209-0.754c0.712-0.484,1.34-1.07,1.935-1.709
									c1.184-1.31,2.352-2.564,3.484-3.75c2.271-2.365,4.531-4.312,6.574-5.728c1.045-0.677,1.974-1.31,2.869-1.732
									c0.872-0.459,1.617-0.862,2.271-1.098c1.28-0.52,1.988-0.808,1.988-0.808s-0.682,0.344-1.913,0.963
									c-0.629,0.281-1.34,0.735-2.171,1.245c-0.853,0.474-1.731,1.156-2.718,1.876c-1.929,1.506-4.046,3.508-6.219,5.92
									c-1.08,1.221-2.214,2.503-3.389,3.831c-0.603,0.668-1.292,1.338-2.092,1.891c-0.794,0.53-1.773,1.091-2.962,0.95
									c-1.21-0.132-2.042-1.04-2.562-1.844c-0.528-0.842-0.872-1.721-1.16-2.586c-0.565-1.733-0.893-3.43-1.203-5.034
									c-0.311-1.602-0.557-3.131-0.962-4.484c-0.233-0.678-0.458-1.332-0.674-1.962c-0.109-0.314-0.217-0.624-0.322-0.926
									c-0.129-0.294-0.256-0.581-0.379-0.861c-0.949-2.262-1.891-4.03-2.452-5.292
									C184.596,697.71,184.275,697.017,184.275,697.017z"/>
							</g>
						</g>
					</g>
					<g>
						<g>
							<g>
								<path d="M177.915,651.812c0,0,2.182,2.806,4.271,6.629c0.979,1.954,1.791,3.76,2.178,5.154
									c0.433,1.371,0.647,2.227,0.647,2.227s-0.475-0.763-1.155-2.009c-0.632-1.267-1.681-2.927-2.646-4.853
									C179.136,655.166,177.915,651.812,177.915,651.812z"/>
							</g>
						</g>
					</g>
					<g>
						<g>
							<g>
								<path d="M183.019,649.646c-0.001,0,0.43,0.504,1.078,1.323c0.653,0.816,1.552,1.947,2.388,3.326
									c0.821,1.392,1.367,2.79,1.581,3.848c0.143,0.514,0.125,0.969,0.163,1.26c0.017,0.293,0.026,0.458,0.026,0.458
									s-0.07-0.151-0.195-0.421c-0.138-0.266-0.249-0.665-0.515-1.114c-0.462-0.922-1.212-2.111-2.009-3.464
									c-0.816-1.347-1.488-2.636-1.912-3.607C183.203,650.278,183.018,649.646,183.019,649.646z"/>
							</g>
						</g>
					</g>
					<g>
						<g>
							<g>
								<path d="M188.314,646.04c0,0,1.761,2.539,3.327,5.983c0.743,1.821,1.026,3.472,1.432,4.616
									c0.193,0.572,0.367,1.041,0.533,1.339c0.154,0.311,0.241,0.484,0.241,0.484s-0.138-0.139-0.383-0.386
									c-0.256-0.247-0.561-0.664-0.892-1.204c-0.678-1.079-1.262-2.745-1.944-4.408
									C189.077,649.056,188.314,646.04,188.314,646.04z"/>
							</g>
						</g>
					</g>
					<g>
						<g>
							<g>
								<path d="M228.195,664.488c0,0-0.088,0.193-0.246,0.539c-0.154,0.354-0.451,0.828-0.858,1.384
									c-0.811,1.113-2.193,2.464-3.798,3.716c-1.633,1.335-3.262,2.203-4.288,3.029c-0.266,0.198-0.5,0.384-0.681,0.57
									c-0.188,0.182-0.372,0.327-0.47,0.482c-0.232,0.296-0.362,0.462-0.362,0.462s0.078-0.199,0.216-0.554
									c0.061-0.192,0.2-0.38,0.348-0.614c0.143-0.242,0.337-0.487,0.567-0.746c0.893-1.079,2.423-2.217,3.969-3.485
									c1.634-1.275,3.099-2.338,4.09-3.232c0.491-0.443,0.888-0.818,1.123-1.108C228.055,664.648,228.195,664.488,228.195,664.488
									z"/>
							</g>
						</g>
					</g>
					<g>
						<g>
							<g>
								<path d="M232.762,673.573c0,0-0.138,0.163-0.384,0.455c-0.256,0.283-0.605,0.728-1.104,1.202
									c-0.981,0.968-2.46,2.183-4.209,3.313c-1.749,1.127-3.386,2.025-4.564,2.701c-1.17,0.684-1.915,1.103-1.915,1.103
									s0.567-0.633,1.593-1.553c1.031-0.91,2.544-2.059,4.285-3.18c1.734-1.094,3.31-2.088,4.464-2.816
									C232.051,674.048,232.762,673.573,232.762,673.573z"/>
							</g>
						</g>
					</g>
					<g>
						<g>
							<g>
								<path d="M192.889,695.146c0,0-0.172,0.199-0.482,0.557c-0.16,0.18-0.355,0.398-0.581,0.651
									c-0.224,0.263-0.496,0.541-0.826,0.809c-1.284,1.156-3.161,2.53-5.227,4.047c-0.552,0.36-1.091,0.712-1.613,1.052
									c-0.528,0.319-1.049,0.587-1.543,0.855c-0.985,0.518-1.874,0.984-2.624,1.378c-1.449,0.851-2.357,1.384-2.357,1.384
									s0.19-0.182,0.533-0.508c0.354-0.312,0.841-0.824,1.523-1.339c0.685-0.498,1.516-1.112,2.446-1.716
									c0.466-0.304,0.955-0.622,1.461-0.952c0.49-0.337,0.997-0.686,1.516-1.043c2.094-1.536,4.145-2.695,5.547-3.596
									c0.369-0.21,0.676-0.429,0.936-0.636c0.268-0.198,0.5-0.37,0.69-0.51C192.673,695.302,192.889,695.146,192.889,695.146z"/>
							</g>
						</g>
					</g>
					<g>
						<g>
							<g>
								<path d="M193.483,700.014c0,0-0.622,0.614-1.69,1.548c-1.057,0.962-2.611,2.118-4.415,3.303
									c-1.912,1.17-3.701,1.798-4.888,2.514c-0.31,0.16-0.565,0.331-0.783,0.495c-0.225,0.156-0.428,0.288-0.55,0.436
									c-0.28,0.275-0.437,0.43-0.437,0.43s0.109-0.193,0.304-0.54c0.09-0.189,0.255-0.37,0.448-0.584
									c0.187-0.223,0.416-0.462,0.697-0.686c1.073-0.974,2.863-1.919,4.606-2.991c1.782-1.17,3.502-2.104,4.698-2.826
									C192.691,700.41,193.483,700.014,193.483,700.014z"/>
							</g>
						</g>
					</g>
					<g>
						<g>
							<g>
								<path d="M179.247,683.562c0,0-0.846,1.253-2.233,2.207c-1.437,0.988-2.881,1.31-2.881,1.31s0.846-1.253,2.233-2.207
									C177.803,683.884,179.247,683.562,179.247,683.562z"/>
							</g>
						</g>
					</g>
					<g>
						<g>
							<g>
								<path d="M206.841,701.421c0,0,0.242,0.259,0.678,0.725c0.416,0.482,1.106,1.132,1.788,2.056
									c1.412,1.82,3.099,4.515,4.934,7.442c1.823,2.859,4.021,5.171,5.289,7.108c0.337,0.467,0.598,0.923,0.829,1.318
									c0.242,0.389,0.422,0.739,0.547,1.038c0.263,0.584,0.41,0.908,0.41,0.908s-0.2-0.293-0.559-0.821
									c-0.168-0.27-0.396-0.583-0.688-0.93c-0.281-0.354-0.59-0.759-0.977-1.176c-1.449-1.727-3.846-3.83-5.785-6.854
									c-1.865-2.977-3.29-5.771-4.456-7.722c-0.56-0.991-1.13-1.71-1.465-2.258C207.035,701.719,206.841,701.421,206.841,701.421z
									"/>
							</g>
						</g>
					</g>
					<g>
						<g>
							<g>
								<path d="M212.585,703.987c0,0,0.304,0.168,0.706,0.565c0.393,0.399,0.828,1.037,1.136,1.767
									c0.308,0.724,0.488,1.381,0.655,1.871c0.177,0.481,0.3,0.815,0.3,0.815s-0.318-0.136-0.756-0.503
									c-0.424-0.372-0.9-1.004-1.216-1.748c-0.312-0.738-0.465-1.421-0.598-1.925
									C212.675,704.334,212.585,703.987,212.585,703.987z"/>
							</g>
						</g>
					</g>
				</g>
				<g>
					<g>
						<g>
							<path d="M198.778,666.919c0,0-0.904,0.619-2.108,1.097c-1.206,0.518-2.273,0.715-2.273,0.715s0.881-0.645,2.082-1.159
								C197.709,667.083,198.778,666.919,198.778,666.919z"/>
						</g>
					</g>
				</g>
				<g>
					<g>
						<g>
							<path d="M197.524,666.19c0,0-0.161,0.104-0.43,0.235c-0.267,0.134-0.644,0.285-1.038,0.44
								c-0.386,0.163-0.743,0.289-0.952,0.466c-0.217,0.162-0.328,0.331-0.338,0.323c0.012,0.009-0.002-0.196,0.155-0.48
								c0.151-0.3,0.524-0.579,0.958-0.759c0.44-0.172,0.856-0.207,1.155-0.225C197.333,666.176,197.524,666.19,197.524,666.19z"/>
						</g>
					</g>
				</g>
				<g>
					<g>
						<g>
							<path d="M208.52,676.269c0,0,0.239,0.173,0.604,0.485c0.382,0.296,0.814,0.801,1.264,1.379
								c0.382,0.629,0.716,1.206,0.825,1.688c0.141,0.463,0.202,0.748,0.202,0.748s-0.177-0.248-0.421-0.648
								c-0.212-0.415-0.638-0.908-1.001-1.512c-0.436-0.558-0.759-1.121-1.047-1.494C208.674,676.527,208.52,676.269,208.52,676.269
								z"/>
						</g>
					</g>
				</g>
				<g>
					<g>
						<g>
							<path d="M210.19,675.786c0,0,0.796,0.805,1.449,1.98c0.62,1.062,1.221,2.093,1.221,2.093s-0.216-0.162-0.555-0.469
								c-0.37-0.289-0.708-0.807-1.084-1.38C210.564,676.828,210.19,675.786,210.19,675.786z"/>
						</g>
					</g>
				</g>
			</g>
		</g>
	</g>
</g>
</svg>
