<?xml version="1.0" encoding="utf-8"?>
<!-- Generator: Adobe Illustrator 25.0.1, SVG Export Plug-In . SVG Version: 6.00 Build 0)  -->
<svg version="1.1" id="Capa_1" xmlns="http://www.w3.org/2000/svg" xmlns:xlink="http://www.w3.org/1999/xlink" x="0px" y="0px"
	 viewBox="0 0 800 800" enable-background="new 0 0 800 800" xml:space="preserve">
<g id="accesorios">
	<g id="Capa_88">
		<g opacity="0.8">
			<g>
				<g>
					<path d="M335.219,572.467c0,0-0.258,0.226-0.75,0.656c-0.489,0.433-1.209,1.073-2.084,1.95
						c-0.871,0.878-1.926,1.972-2.969,3.383c-1.031,1.406-2.12,3.113-2.775,5.204c-0.645,2.074-0.907,4.53-0.268,7.016
						c0.243,1.265,0.802,2.445,1.534,3.601c0.729,1.149,1.614,2.253,2.607,3.3c1.001,1.041,2.126,2.012,3.358,2.875
						c1.233,0.854,2.589,1.608,4.059,2.039c2.912,0.933,6.346-0.265,8.441-2.721c2.126-2.438,3.082-5.843,2.402-8.814
						c-0.114-0.361-0.199-0.732-0.331-1.081c-0.163-0.336-0.289-0.683-0.476-1.009c-0.392-0.645-0.826-1.268-1.295-1.855
						c-0.941-1.17-1.985-2.231-3.126-3.096c-1.138-0.863-2.368-1.562-3.65-1.898c-1.275-0.345-2.608-0.231-3.657,0.404
						c-1.056,0.612-1.844,1.616-2.359,2.659c-0.592,1.02-0.787,2.163-0.757,3.217c0.008,1.08,0.483,2.035,1.012,2.827
						c0.56,0.799,1.331,1.338,2.082,1.746c1.564,0.767,3.163,0.662,4.322,0.31c0.561-0.243,1.089-0.413,1.465-0.712
						c0.4-0.256,0.741-0.474,0.96-0.718c0.475-0.448,0.724-0.684,0.724-0.684s-0.241,0.245-0.699,0.711
						c-0.212,0.255-0.545,0.485-0.941,0.759c-0.371,0.316-0.897,0.508-1.465,0.774c-1.17,0.4-2.822,0.567-4.485-0.188
						c-0.8-0.403-1.63-0.949-2.25-1.783c-0.589-0.825-1.124-1.846-1.166-3.012c-0.065-1.138,0.126-2.384,0.729-3.482
						c0.527-1.122,1.334-2.219,2.52-2.945c1.175-0.747,2.727-0.903,4.129-0.543c1.417,0.346,2.73,1.073,3.937,1.961
						c1.21,0.892,2.306,1.977,3.302,3.188c0.496,0.606,0.958,1.253,1.384,1.943c0.206,0.351,0.36,0.745,0.542,1.12
						c0.151,0.388,0.249,0.794,0.376,1.193c0.765,3.278-0.253,6.933-2.561,9.589c-2.28,2.681-6.099,4.015-9.346,2.951
						c-1.595-0.482-3.006-1.292-4.282-2.195c-1.273-0.912-2.42-1.93-3.438-3.018c-1.01-1.094-1.905-2.246-2.644-3.456
						c-0.736-1.197-1.322-2.51-1.546-3.823c-0.615-2.606-0.281-5.171,0.438-7.29c0.73-2.139,1.888-3.842,2.973-5.234
						c1.096-1.395,2.192-2.46,3.095-3.312c0.907-0.85,1.651-1.465,2.155-1.88C334.952,572.683,335.219,572.467,335.219,572.467z"/>
				</g>
			</g>
		</g>
	</g>
</g>
</svg>
