<?xml version="1.0" encoding="utf-8"?>
<!-- Generator: Adobe Illustrator 25.0.1, SVG Export Plug-In . SVG Version: 6.00 Build 0)  -->
<svg version="1.1" id="Capa_1" xmlns="http://www.w3.org/2000/svg" xmlns:xlink="http://www.w3.org/1999/xlink" x="0px" y="0px"
	 viewBox="0 0 800 800" enable-background="new 0 0 800 800" xml:space="preserve">
<g id="accesorios">
	<g id="Capa_86">
		<g>
			<g>
				<path opacity="0.2" enable-background="new    " d="M541.5,783l-11.665-5c-2.35-2.31-4.415-3.88-5.515-6.86
					c-0.011-0.04-0.03-0.08-0.051-0.12c-0.01-0.05-0.029-0.1-0.059-0.159c-1.36-3.63-3.26-7.5-3.64-11.28
					c-0.29-2.94-0.551-5.771-0.7-8.69c-0.08-1.519-0.12-3.069-0.12-4.659c0-0.801,0.01-1.601,0.03-2.41
					c0.02-1.4,0.05-2.81,0.06-4.221c0.03-2.369,0-4.72-0.229-6.989c-0.07-0.681-0.12-1.36-0.15-2.051c-0.1-1.489-0.12-3-0.12-4.56
					c0-0.64,0.04-1.2,0.12-1.731c0.13-0.96,0.39-1.8,0.74-2.71c0.16-0.42,0.35-0.859,0.55-1.329c0.25-0.591,0.48-1.351,0.76-2.131
					c0.04-0.109,0.08-0.229,0.13-0.35c0.38-1.019,0.86-2.019,1.58-2.59c0.731-0.57,2.15-0.83,3.521-0.99
					c1-0.12,1.97-0.189,2.64-0.29c0.97-0.149,1.96-0.28,2.97-0.39c0.101-0.01,0.21-0.02,0.311-0.03c1.96-0.2,3.97-0.32,5.979-0.32
					c0.41,0,0.82,0.011,1.23,0.021c0.63,0.019,1.26,0.05,1.88,0.109c0.28,0.021,0.56,0.04,0.84,0.07c0.38,0.04,0.75,0.07,1.12,0.101
					c0.03,0,0.07,0.01,0.1,0c1.19,0.1,2.341,0.14,3.521,0.159c0.01,0,0.02,0.011,0.03,0c0.029,0.011,0.05,0.011,0.08,0
					c0.29,0.011,0.579,0.011,0.869,0.011c0.37,0.01,0.74,0.01,1.12,0.01c0.54,0,1.2-0.04,1.9-0.07c1.61-0.09,3.39-0.17,4.31,0.25
					c0.141,0.061,0.261,0.141,0.36,0.23v0.14c0.35,0.01,0.69,0.01,1,0.01c2.37-0.019,3.81-0.33,5.78-0.43
					c0.649-0.03,1.31-0.07,1.989-0.13c0.101,0,0.191-0.01,0.29-0.021c0.23-0.02,0.471-0.04,0.7-0.06c1.16-0.1,2.32-0.23,3.44-0.34
					c1.46-0.15,2.939-0.32,4.43-0.49c2.82-0.32,5.67-0.61,8.56-0.61c6.949,0,13.87-0.47,20.86-0.109
					c-0.031,0.2-0.051,0.38-0.051,0.55c0,0.01,0,0.01,0,0.01c0,0.4,0.35,0.75,0.56,1.09c0,0.011,0.039,0.011,0.039,0.021
					c0.17,0.269,0.346,0.53,0.456,0.81c0.35,0.91,0.587,1.87,0.727,2.86c0,0.02,0.004,0.03,0.014,0.05
					c0.3,2.09,0.512,4.12,0.832,6.14c0.44,2.931,0.491,6,0.551,9.051c0.03,1.35,0.061,2.699,0.13,4.029
					c0.201,3.561-0.429,6.841-0.818,10.141c-0.13,1.02-0.23,2.04-0.28,3.069c-0.07,1.471-0.1,2.931-0.13,4.36
					c-0.09,3.1-0.23,6.12-1,9.13c-1.03,4.03-2.18,7.84-5.33,11.01c-0.78,0.78-1.59,1.521-2.44,2.24c-1,0.851-2.04,1.66-3.1,2.45
					L571,785.75"/>
				<path fill="#423223" d="M565.44,713.342c0.343-1.881,0.979-3.705,1.369-5.643c0.405-2.022,0.914-3.807,1.552-5.75
					c1.223-3.727,2.267-7.734,3.995-11.418c0.776-1.657,1.522-3.378,2.611-4.821c0.838-1.112,3.38-2.496,3.554-3.885
					c0.188-1.49-2.585-3.547-3.86-3.578c-1.979-0.048-2.89,2.268-3.887,3.575c-5.102,6.688-7.829,13.989-10.254,21.748
					c-0.93,2.97-3.269,6.791-3.04,9.889c2.229,0.628,5.206,0.159,7.549,0.159L565.44,713.342z"/>
				<path fill="#CCCCCC" d="M599.845,665.31c-4.242,5.308-9.523,11.506-16.133,13.87c-1.87,0.67-4.317,1.392-6.272,0.411
					c-1.448-0.726-2.316-2.608-1.816-4.372c0.818-2.889,4.685-5.467,7.023-6.984c1.827-1.188,4.38-2.348,5.762-4.002
					c-3.202,0.56-6.69,3.065-9.654,4.482c-3.077,1.475-7.813,3.717-11.251,2.374c-3.764-1.466-1.549-5.68,0.446-7.672
					c1.035-1.032,2.037-1.958,3.238-2.68c1.315-0.789,2.919-1.159,4.15-1.866c-2.272-0.168-4.433,0.246-6.734,0.246
					c-2.357,0-3.444-0.539-5.194-2.065c-1.531-1.334-2.778-2.807-2.133-4.985c0.541-1.827,2.479-2.65,4.024-3.411
					c4.867-2.397,11.044-1.731,16.474-1.513c-0.975,0.054-1.523-0.809-2.299-1.238c-0.845-0.469-1.842-0.678-2.759-0.965
					c-1.702-0.529-3.383-1.265-5.08-1.931c-2.649-1.034-8.32-3.044-7.577-7.017c0.673-3.602,8.159-3.982,10.884-3.308
					c3.307,0.818,6.775,2.919,9.655,4.931c2.471,1.727,4.41,4.646,6.976,6.028c-1.776-2.28-4.186-6.388-5.491-9.024
					c-1.637-3.299-3.264-7.443-3.167-11.148c0.055-2.065,1.233-3.745,3.302-4.267c2.16-0.543,3.798,0.341,5.395,1.618
					c3.364,2.686,3.658,6.172,4.684,9.913c0.759,2.769,1.438,5.663,1.896,8.521c0.001-2.333-0.413-4.368-0.413-6.703
					c0-2.212,0.535-4.04,0.959-6.058c0.705-3.349,1.945-7.122,4.848-9.596c3.084-2.629,8.787-1.174,8.78,3.269
					c-0.004,4.62-0.382,7.962-2.171,12.003c-0.632,1.432-1.295,2.803-2.199,4.102c-0.893,1.287-2.153,2.509-2.594,4.009
					c5.451-5.39,10.242-10.194,16.289-13.543c1.677-0.927,3.165-2.055,5.126-2.029c1.891,0.025,3.683,1.561,3.165,3.572
					c-0.484,1.877-2.158,3.211-3.336,4.647c-1.167,1.421-2.165,2.809-3.583,3.994c-3.421,2.861-7.637,4.901-11.756,5.952
					c1.927-0.269,4.403,0.463,6.321,0.658c2.12,0.215,4.086,0.556,6.028,1.234c1.741,0.609,3.415,1.218,5.08,1.962
					c1.568,0.7,3.638,1.265,4.721,2.718c1.318,1.769,2.206,5.259,0.379,6.914c-1.906,1.727-4.566,1.814-6.726,2.647
					c1.119,1.199,2.813,1.783,4.003,3.127c1.18,1.331,2.494,3.893,1.594,5.76c-0.765,1.584-3.634,1.748-5.065,1.816
					c-2.173,0.105-4.521,0.376-6.744,0.138c-3.802-0.404-11.271-4.593-11.56-9.04c-0.193,1.45,1.067,3.873,1.962,5.012
					c1.074,1.373,2.62,2.456,3.649,3.922c1.771,2.518,4.58,8.44,1.648,11.083c-4.343,3.913-8.656-4.344-11.677-6.242
					c0.907,1.856,0.907,3.94,1.114,6.002c0.205,2.062,0.797,4.365,0.274,6.468c-0.775,3.134-4.756,7.196-8.152,5.264
					c-3.489-1.985-4.646-6.559-4.646-10.218c0-4.117,1.046-8.12,3.028-11.698c0.913-1.647,1.947-3.438,3.165-4.817L599.845,665.31z"
					/>
				<path fill="#F7931E" d="M601.222,665.31c3.504,0.077,7.309-4.121,9.119-6.713c2.325-3.338,3.061-7.674,2.197-11.729
					c-0.711-3.333-3.854-6.339-7.193-6.874c-1.856-0.297-4.8-0.518-6.604,0.095c-1.585,0.543-3.333,2.042-4.51,3.238
					c-2.527,2.571-4.195,6.749-4.4,10.178c-0.212,3.563,0.507,8.451,3.575,10.808c2.091,1.606,5.911,2.023,8.092,0.584
					L601.222,665.31z"/>
				<g>
					<g>
						<g>
							<g>
								<path d="M605.365,639.989c0,0,0.126-0.167,0.364-0.484c0.237-0.318,0.601-0.777,1.023-1.402
									c0.858-1.233,2.06-3.068,3.093-5.539c0.546-1.224,0.945-2.63,1.347-4.159c0.432-1.523,0.811-3.158,0.959-4.9
									c0.13-1.723,0.045-3.612-0.815-5.224c-0.871-1.549-2.504-3.001-4.395-2.688c-1.869,0.244-3.475,1.603-4.545,3.079
									c-0.527,0.764-0.942,1.629-1.409,2.412c-0.246,0.391-0.426,0.808-0.589,1.227c-0.173,0.415-0.343,0.826-0.512,1.232
									c-1.259,3.286-1.72,6.471-1.89,9.142c-0.09,2.681,0.045,4.859,0.204,6.356c0.185,1.497,0.288,2.325,0.288,2.325
									s-0.151-0.821-0.426-2.307c-0.243-1.491-0.491-3.671-0.512-6.389c0.06-2.708,0.414-5.975,1.631-9.391
									c0.164-0.422,0.331-0.85,0.5-1.281c0.159-0.436,0.338-0.871,0.583-1.279c0.472-0.828,0.871-1.699,1.436-2.54
									c0.582-0.83,1.298-1.59,2.148-2.219c0.848-0.623,1.86-1.111,2.986-1.252c1.122-0.155,2.307,0.154,3.189,0.803
									c0.885,0.647,1.567,1.444,2.063,2.368c0.959,1.869,0.983,3.9,0.81,5.694c-0.196,1.812-0.639,3.485-1.121,4.996
									c-0.453,1.525-0.919,2.953-1.525,4.174c-1.154,2.471-2.46,4.254-3.389,5.441c-0.456,0.603-0.848,1.041-1.104,1.345
									C605.501,639.831,605.365,639.989,605.365,639.989z"/>
							</g>
						</g>
					</g>
					<g>
						<g>
							<g>
								<path d="M610.043,643.016c0,0,0.199-0.047,0.578-0.137c0.376-0.102,0.943-0.194,1.648-0.419
									c1.419-0.387,3.463-1.066,5.739-2.367c1.12-0.679,2.333-1.442,3.497-2.459c1.194-0.986,2.51-2.022,3.79-3.175
									c1.267-1.16,2.528-2.491,3.324-4.119c0.365-0.812,0.651-1.71,0.727-2.621c0.071-0.887-0.126-1.804-0.846-2.213
									c-0.697-0.441-1.685-0.44-2.576-0.266c-0.907,0.177-1.773,0.52-2.559,0.983c-0.807,0.49-1.599,0.973-2.374,1.444
									c-0.767,0.49-1.49,1.008-2.213,1.491c-2.841,2.005-5.261,4.012-7.276,5.717c-1.998,1.727-3.596,3.15-4.699,4.136
									c-1.104,0.984-1.714,1.529-1.714,1.529s0.576-0.581,1.619-1.631c1.046-1.046,2.567-2.552,4.497-4.366
									c1.948-1.794,4.31-3.898,7.134-5.995c0.719-0.506,1.442-1.047,2.209-1.557c0.78-0.491,1.576-0.993,2.388-1.505
									c0.845-0.512,1.801-0.905,2.821-1.11c1.006-0.189,2.169-0.26,3.22,0.378c0.508,0.312,0.922,0.831,1.081,1.389
									c0.112,0.276,0.147,0.554,0.169,0.831c0.048,0.28,0.012,0.544-0.003,0.811c-0.092,1.045-0.417,2.023-0.838,2.929
									c-0.908,1.792-2.267,3.146-3.592,4.308c-1.348,1.155-2.675,2.137-3.91,3.091c-1.217,0.991-2.495,1.732-3.662,2.372
									c-2.377,1.229-4.475,1.804-5.92,2.112c-0.718,0.185-1.293,0.243-1.674,0.32
									C610.244,642.981,610.043,643.016,610.043,643.016z"/>
							</g>
						</g>
					</g>
					<g>
						<g>
							<g>
								<path d="M611.971,654.847c0,0,2.988,0.784,7.831,2.056c1.21,0.327,2.535,0.686,3.958,1.07
									c0.706,0.181,1.465,0.436,2.177,0.531c0.745,0.073,1.53,0.042,2.326-0.066c1.574-0.26,3.254-0.777,4.623-1.81
									c0.672-0.511,1.299-1.138,1.608-1.92c0.329-0.771,0.354-1.641,0.158-2.499l-0.007-0.031
									c-0.021-0.075-0.06-0.209-0.099-0.344c-0.23-0.846-0.739-1.591-1.377-2.207c-0.653-0.608-1.413-1.097-2.191-1.526
									c-1.574-0.844-3.232-1.429-4.813-1.997c-3.124-1.263-6.017-2.101-8.5-2.59c-2.483-0.481-4.543-0.577-5.963-0.575
									c-1.42,0.028-2.208,0.077-2.208,0.077s0.78-0.104,2.203-0.216c1.423-0.086,3.505-0.102,6.043,0.274
									c2.53,0.383,5.521,1.136,8.67,2.318c1.597,0.53,3.298,1.09,4.97,1.955c0.829,0.444,1.654,0.96,2.395,1.639
									c0.726,0.688,1.35,1.576,1.63,2.608c0.046,0.164,0.091,0.327,0.116,0.419c-0.003-0.012-0.005-0.024-0.007-0.031
									c0.241,1.018,0.206,2.121-0.215,3.076c-0.401,0.969-1.147,1.688-1.909,2.25c-1.558,1.132-3.342,1.629-5.028,1.866
									c-0.852,0.094-1.695,0.107-2.514-0.001c-0.847-0.144-1.529-0.414-2.245-0.621c-1.408-0.441-2.72-0.852-3.916-1.227
									C614.915,655.793,611.971,654.847,611.971,654.847z"/>
							</g>
						</g>
					</g>
					<g>
						<g>
							<g>
								<path d="M609.219,660.9c0,0,0.09,0.171,0.26,0.496c0.18,0.32,0.393,0.82,0.792,1.392c0.727,1.169,1.974,2.812,4.046,4.143
									c1.005,0.709,2.262,1.213,3.624,1.694c1.349,0.464,2.893,0.69,4.511,0.839c1.62,0.127,3.339,0.153,5.081-0.05
									c0.867-0.107,1.745-0.272,2.576-0.56c0.815-0.296,1.624-0.72,2.085-1.379c0.479-0.648,0.483-1.503,0.225-2.309
									c-0.252-0.805-0.721-1.591-1.213-2.269c-1.012-1.37-2.459-2.309-3.892-3.035c-2.905-1.435-5.81-2.163-8.2-2.836
									c-2.406-0.647-4.358-1.191-5.678-1.656c-0.662-0.226-1.166-0.426-1.501-0.578c-0.338-0.145-0.516-0.22-0.516-0.22
									s0.183,0.064,0.529,0.184c0.344,0.13,0.857,0.297,1.529,0.482c1.339,0.384,3.307,0.816,5.743,1.357
									c2.425,0.568,5.366,1.182,8.424,2.594c1.506,0.717,3.083,1.679,4.24,3.193c0.566,0.766,1.059,1.561,1.374,2.523
									c0.165,0.473,0.24,1.001,0.212,1.541c-0.055,0.533-0.206,1.1-0.548,1.54c-0.652,0.91-1.622,1.372-2.526,1.699
									c-0.924,0.313-1.855,0.475-2.769,0.575c-1.827,0.188-3.589,0.123-5.249-0.049c-1.656-0.194-3.232-0.473-4.645-1.014
									c-1.379-0.542-2.66-1.119-3.669-1.899c-2.08-1.476-3.254-3.221-3.915-4.44c-0.366-0.599-0.549-1.115-0.706-1.446
									C609.297,661.077,609.219,660.9,609.219,660.9z"/>
							</g>
						</g>
					</g>
					<g>
						<g>
							<g>
								<path d="M602.615,665.028c0,0,0.049,0.677,0.137,1.898c0.153,1.207,0.392,2.989,1.314,4.946
									c0.119,0.242,0.226,0.496,0.361,0.743c0.148,0.24,0.3,0.485,0.455,0.735c0.284,0.516,0.693,0.98,1.066,1.491
									c0.387,0.501,0.852,0.969,1.292,1.479c0.488,0.484,0.98,1.004,1.478,1.526c0.996,1.036,2.062,2.117,3.337,2.913
									c0.637,0.387,1.339,0.671,2.052,0.717c0.713,0.052,1.418-0.181,2.041-0.605c1.235-0.88,1.718-2.448,1.662-3.937
									c-0.032-1.502-0.44-2.955-1.011-4.238c-0.557-1.316-1.331-2.37-2.235-3.291c-0.861-0.954-1.716-1.801-2.456-2.624
									c-1.508-1.651-2.227-3.37-2.526-4.558c-0.154-0.597-0.21-1.074-0.276-1.391c-0.058-0.317-0.088-0.484-0.088-0.484
									s0.043,0.164,0.125,0.477c0.091,0.31,0.18,0.779,0.373,1.357c0.381,1.159,1.172,2.761,2.719,4.294
									c0.767,0.771,1.66,1.578,2.567,2.504c0.445,0.454,0.956,0.938,1.371,1.521c0.415,0.577,0.796,1.202,1.109,1.879
									c0.643,1.345,1.118,2.87,1.181,4.532c0.015,0.825-0.039,1.697-0.372,2.531c-0.314,0.828-0.866,1.612-1.627,2.153
									c-0.753,0.524-1.697,0.835-2.615,0.758c-0.917-0.068-1.739-0.432-2.44-0.871c-1.398-0.904-2.459-2.051-3.44-3.126
									c-0.486-0.535-0.961-1.058-1.422-1.565c-0.44-0.545-0.9-1.045-1.28-1.58c-0.367-0.545-0.764-1.04-1.037-1.59
									c-0.148-0.266-0.292-0.527-0.434-0.783c-0.128-0.262-0.228-0.532-0.338-0.788c-0.851-2.075-0.974-3.895-1.045-5.115
									C602.598,665.706,602.615,665.028,602.615,665.028z"/>
							</g>
						</g>
					</g>
					<g>
						<g>
							<g>
								<path d="M599.313,665.854c0,0-0.454,0.769-1.228,2.186c-0.762,1.417-1.878,3.48-2.811,6.189
									c-0.88,2.701-1.622,6.121-1.241,9.849c0.195,1.849,0.691,3.79,1.695,5.501c0.522,0.833,1.198,1.603,2.022,2.16
									c0.815,0.57,1.802,0.89,2.79,0.812c0.993-0.052,1.92-0.524,2.674-1.179c0.382-0.322,0.722-0.705,1.039-1.098
									c0.29-0.414,0.577-0.823,0.862-1.23c1.002-1.721,1.273-3.709,1.221-5.562c-0.14-3.744-1.199-7.062-1.938-9.838
									c-0.781-2.778-1.34-5.061-1.561-6.666c-0.133-0.799-0.17-1.426-0.186-1.852c-0.023-0.425-0.036-0.648-0.036-0.648
									s0.025,0.222,0.074,0.645c0.04,0.423,0.111,1.044,0.285,1.831c0.303,1.582,0.964,3.816,1.851,6.562
									c0.842,2.75,2.026,6.035,2.262,9.94c0.097,1.932-0.146,4.09-1.23,6.006c-0.306,0.447-0.614,0.898-0.926,1.353
									c-0.342,0.432-0.707,0.85-1.143,1.225c-0.852,0.749-1.963,1.332-3.187,1.398c-1.219,0.097-2.413-0.309-3.348-0.97
									c-0.949-0.655-1.687-1.517-2.255-2.445c-1.08-1.894-1.549-3.939-1.715-5.874c-0.16-1.94-0.018-3.794,0.299-5.482
									c0.326-1.684,0.748-3.228,1.271-4.588c1.056-2.716,2.274-4.73,3.11-6.109C598.812,666.593,599.313,665.854,599.313,665.854z
									"/>
							</g>
						</g>
					</g>
					<g>
						<g>
							<g>
								<path d="M592.435,662.276c0,0-0.677,0.346-1.899,0.971c-0.622,0.29-1.34,0.726-2.17,1.232
									c-0.411,0.259-0.872,0.501-1.323,0.817c-0.45,0.317-0.926,0.652-1.426,1.004c-1.031,0.68-1.976,1.581-3.184,2.459
									c-1.18,0.822-2.419,1.726-3.585,2.811c-1.139,1.077-2.303,2.383-2.673,3.955c-0.166,0.762-0.084,1.636,0.261,2.33
									c0.35,0.699,1.03,1.205,1.853,1.453c1.659,0.482,3.521,0.269,5.109-0.244c0.794-0.288,1.554-0.698,2.313-1.027
									c0.732-0.394,1.413-0.858,2.1-1.267c2.65-1.809,4.788-3.804,6.534-5.514c1.71-1.751,3.019-3.243,3.9-4.296
									c0.864-1.067,1.342-1.658,1.342-1.658s-0.438,0.621-1.231,1.744c-0.817,1.106-2.046,2.675-3.688,4.517
									c-1.681,1.802-3.761,3.9-6.433,5.826c-0.696,0.44-1.386,0.933-2.139,1.358c-0.792,0.365-1.56,0.798-2.422,1.123
									c-1.741,0.576-3.69,0.846-5.654,0.287c-0.968-0.285-1.906-0.954-2.368-1.901c-0.452-0.942-0.521-1.965-0.308-2.918
									c0.49-1.9,1.791-3.224,2.998-4.324c1.242-1.098,2.534-1.977,3.752-2.761c1.157-0.776,2.217-1.695,3.269-2.321
									c0.521-0.33,1.018-0.646,1.486-0.943c0.471-0.296,0.948-0.517,1.376-0.756c0.862-0.465,1.606-0.859,2.249-1.112
									C591.736,662.578,592.435,662.276,592.435,662.276z"/>
							</g>
						</g>
					</g>
					<g>
						<g>
							<g>
								<path d="M590.507,656.773c0,0-0.843,0.138-2.367,0.388c-0.763,0.122-1.695,0.272-2.778,0.444
									c-1.085,0.162-2.317,0.363-3.668,0.643c-1.353,0.26-2.835,0.544-4.426,0.85c-1.6,0.27-3.239,0.743-4.868,1.492
									c-1.617,0.743-3.236,1.749-4.507,3.172c-0.28,0.381-0.623,0.727-0.862,1.142c-0.217,0.428-0.479,0.838-0.669,1.284
									c-0.383,0.89-0.61,1.885-0.35,2.746c0.239,0.865,0.977,1.497,1.867,1.811c0.882,0.331,1.859,0.431,2.805,0.394
									c0.475-0.019,0.945-0.074,1.401-0.159c0.46-0.091,0.917-0.249,1.369-0.367c0.452-0.127,0.9-0.253,1.343-0.377
									c0.435-0.15,0.859-0.325,1.282-0.483c3.376-1.291,6.271-2.866,8.731-4.118c2.458-1.264,4.49-2.212,5.924-2.793
									c1.448-0.541,2.249-0.84,2.249-0.84s-0.781,0.345-2.193,0.968c-1.396,0.655-3.367,1.698-5.768,3.058
									c-2.405,1.348-5.253,3.027-8.67,4.426c-0.428,0.172-0.857,0.358-1.301,0.521c-0.454,0.138-0.915,0.276-1.38,0.417
									c-0.47,0.132-0.927,0.299-1.421,0.404c-0.501,0.102-1.01,0.167-1.527,0.195c-1.032,0.05-2.11-0.039-3.156-0.422
									c-0.524-0.18-1.025-0.483-1.471-0.866c-0.424-0.412-0.785-0.931-0.94-1.523c-0.343-1.186-0.024-2.358,0.392-3.325
									c0.213-0.496,0.503-0.949,0.751-1.418c0.27-0.454,0.644-0.831,0.959-1.242c1.403-1.532,3.137-2.554,4.839-3.291
									c1.705-0.739,3.446-1.185,5.054-1.402c1.608-0.249,3.106-0.48,4.475-0.691c1.365-0.227,2.605-0.373,3.698-0.483
									c1.091-0.118,2.03-0.22,2.798-0.303C589.656,656.862,590.507,656.773,590.507,656.773z"/>
							</g>
						</g>
					</g>
					<g>
						<g>
							<g>
								<path d="M591.607,651.271c0,0-0.894-0.298-2.49-0.896c-1.602-0.572-3.88-1.551-6.806-2.31
									c-0.726-0.216-1.511-0.312-2.315-0.474c-0.818-0.069-1.652-0.175-2.556-0.2c-1.79-0.076-3.696-0.207-5.682-0.122
									c-1.979,0.083-4.06,0.371-6.001,1.219c-0.987,0.395-1.906,0.951-2.666,1.694c-0.767,0.732-1.316,1.69-1.488,2.722
									c-0.348,2.106,1.225,4.088,3.081,4.922c1.855,0.944,3.979,1.059,5.947,0.964c4.007-0.323,7.616-0.615,10.648-0.859
									c1.52-0.107,2.889-0.233,4.089-0.37c1.203-0.115,2.238-0.227,3.074-0.38c1.683-0.262,2.613-0.407,2.613-0.407
									s-0.923,0.194-2.59,0.544c-0.832,0.196-1.862,0.354-3.062,0.523c-1.197,0.188-2.565,0.371-4.08,0.533
									c-3.042,0.345-6.607,0.766-10.649,1.166c-2.016,0.136-4.283,0.077-6.376-0.953c-0.258-0.132-0.528-0.243-0.776-0.396
									l-0.71-0.526l-0.649-0.611c-0.19-0.234-0.398-0.455-0.57-0.707c-0.69-0.997-1.093-2.308-0.869-3.578
									c0.209-1.267,0.88-2.39,1.751-3.213c0.864-0.839,1.896-1.441,2.947-1.85c2.093-0.885,4.283-1.144,6.314-1.186
									c2.042-0.045,3.957,0.138,5.741,0.266c0.887,0.05,1.768,0.186,2.602,0.285c0.819,0.192,1.619,0.32,2.348,0.566
									c2.945,0.88,5.17,1.961,6.742,2.61C590.739,650.905,591.607,651.271,591.607,651.271z"/>
							</g>
						</g>
					</g>
					<g>
						<g>
							<g>
								<path d="M593.259,646.043c0,0-0.638-0.711-1.79-1.994c-0.549-0.666-1.332-1.375-2.213-2.223
									c-0.852-0.879-1.942-1.745-3.132-2.717c-0.578-0.507-1.238-0.966-1.928-1.438c-0.694-0.465-1.377-1.012-2.153-1.462
									c-1.55-0.9-3.284-1.763-5.178-2.404c-1.892-0.638-3.983-1.004-6.13-0.795c-1.058,0.175-2.185,0.285-3.211,0.656
									c-1.029,0.344-2.013,0.924-2.627,1.754c-0.279,0.424-0.468,0.892-0.459,1.38c0.036,0.48,0.143,0.979,0.44,1.413
									c0.526,0.896,1.394,1.592,2.277,2.211c1.755,1.277,3.7,2.136,5.588,2.876c1.89,0.74,3.722,1.396,5.405,2.102
									c1.659,0.738,3.206,1.425,4.618,2.053c5.63,2.527,9.115,4.092,9.115,4.092s-3.552-1.408-9.29-3.682
									c-1.429-0.58-2.993-1.216-4.673-1.898c-1.683-0.65-3.519-1.256-5.445-1.964c-1.917-0.708-3.95-1.562-5.809-2.881
									c-0.927-0.641-1.89-1.372-2.545-2.461c-0.354-0.52-0.533-1.186-0.57-1.854c-0.014-0.688,0.248-1.35,0.618-1.898
									c0.797-1.073,1.94-1.697,3.07-2.075c1.145-0.401,2.289-0.5,3.42-0.673c2.29-0.197,4.504,0.232,6.451,0.935
									c1.956,0.709,3.692,1.63,5.252,2.596c0.778,0.482,1.454,1.058,2.144,1.552c0.684,0.503,1.335,0.99,1.9,1.523
									c1.166,1.023,2.227,1.938,3.048,2.859c0.849,0.891,1.6,1.636,2.119,2.331C592.658,645.3,593.259,646.043,593.259,646.043z"
									/>
							</g>
						</g>
					</g>
					<g>
						<g>
							<g>
								<path d="M598.211,641.089c0,0-0.163-0.818-0.457-2.296c-0.315-1.472-0.654-3.641-1.265-6.256
									c-0.286-1.312-0.6-2.747-0.936-4.289c-0.351-1.516-1.042-3.065-1.91-4.564c-0.892-1.477-2.11-2.911-3.761-3.705
									c-0.817-0.404-1.729-0.599-2.656-0.554c-0.914,0.038-1.824,0.329-2.486,0.977c-1.362,1.285-1.719,3.372-1.578,5.188
									c0.269,1.829,0.845,3.615,1.462,5.26c1.282,3.29,2.82,6.107,4.165,8.432c1.38,2.308,2.575,4.132,3.418,5.382
									c0.853,1.242,1.325,1.93,1.325,1.93s-0.513-0.658-1.438-1.849c-0.911-1.203-2.201-2.967-3.684-5.229
									c-1.448-2.281-3.099-5.065-4.484-8.391c-0.67-1.673-1.298-3.46-1.613-5.462c-0.087-1.01-0.039-2.052,0.221-3.084
									c0.266-1.023,0.767-2.051,1.603-2.832c0.824-0.804,1.983-1.169,3.054-1.201c1.076-0.047,2.148,0.199,3.065,0.667
									c1.862,0.931,3.135,2.521,4.035,4.091c0.877,1.598,1.536,3.208,1.851,4.787c0.282,1.567,0.545,3.027,0.785,4.361
									c0.505,2.66,0.73,4.824,0.964,6.316C598.097,640.262,598.211,641.089,598.211,641.089z"/>
							</g>
						</g>
					</g>
					<g>
						<g>
							<g>
								<path d="M608.168,642.462c0,0-0.096-0.068-0.284-0.202c-0.182-0.142-0.475-0.32-0.858-0.551
									c-0.201-0.096-0.427-0.204-0.675-0.323c-0.266-0.094-0.535-0.17-0.862-0.3c-0.6-0.254-1.318-0.485-2.152-0.6
									c-1.664-0.227-3.779,0.1-5.869,1.25c-1.044,0.566-2.095,1.308-3.075,2.228c-0.516,0.431-0.897,1.015-1.356,1.545
									c-0.232,0.264-0.39,0.593-0.593,0.891c-0.18,0.314-0.417,0.6-0.555,0.946c-0.695,1.312-1.148,2.81-1.431,4.396
									c-0.229,1.6-0.218,3.296,0.011,5.013c0.275,1.706,0.812,3.458,1.755,4.983c0.932,1.525,2.378,2.748,4.162,3.15
									c1.788,0.342,3.797,0.104,5.689-0.553c1.899-0.653,3.741-1.688,5.363-3.01c3.231-2.563,4.872-7.079,4.401-11.431
									c-0.241-2.165-1.007-4.268-2.368-5.849c-1.345-1.593-3.223-2.606-5.225-3.019c-2.02-0.452-4.083-0.27-5.882,0.488
									c-1.806,0.757-3.313,2.081-4.462,3.613c-2.286,3.1-3.368,6.864-3.441,10.327c-0.033,1.74,0.103,3.441,0.673,4.91
									c0.559,1.479,1.504,2.725,2.67,3.582c1.169,0.855,2.517,1.338,3.836,1.497c0.329,0.047,0.655,0.08,0.98,0.08
									c0.324,0.025,0.644,0.011,0.958-0.023c0.627-0.068,1.252-0.048,1.822-0.223c2.334-0.47,4.152-1.569,5.475-2.614
									c1.3-1.089,2.198-2.069,2.771-2.759c0.564-0.7,0.861-1.067,0.861-1.067s-0.277,0.383-0.805,1.112
									c-0.539,0.721-1.39,1.749-2.658,2.917c-1.292,1.121-3.107,2.341-5.528,2.934c-0.592,0.205-1.24,0.214-1.897,0.31
									c-0.329,0.049-0.666,0.076-1.011,0.063c-0.345,0.013-0.693-0.009-1.048-0.046c-1.416-0.117-2.913-0.583-4.248-1.491
									c-1.33-0.907-2.44-2.274-3.112-3.898c-0.688-1.635-0.882-3.46-0.897-5.296c-0.015-3.689,1.006-7.698,3.451-11.165
									c1.231-1.71,2.907-3.257,5.001-4.174c2.082-0.922,4.526-1.153,6.807-0.666c2.302,0.44,4.582,1.636,6.184,3.524
									c1.624,1.872,2.502,4.299,2.775,6.743c0.266,2.458-0.072,4.929-0.932,7.172c-0.844,2.235-2.306,4.271-4.13,5.703
									c-1.799,1.434-3.795,2.521-5.9,3.211c-2.104,0.684-4.339,0.949-6.516,0.482c-2.188-0.531-3.932-2.11-4.932-3.863
									c-1.029-1.764-1.542-3.656-1.79-5.493c-0.196-1.85-0.153-3.647,0.145-5.345c0.354-1.685,0.891-3.263,1.677-4.631
									c0.16-0.361,0.421-0.659,0.623-0.983c0.227-0.31,0.405-0.647,0.663-0.921c0.51-0.55,0.938-1.148,1.5-1.585
									c1.062-0.924,2.181-1.648,3.292-2.194c2.223-1.108,4.45-1.351,6.155-1.034c0.854,0.157,1.579,0.431,2.177,0.718
									c0.277,0.13,0.588,0.236,0.841,0.341c0.246,0.133,0.469,0.254,0.667,0.362c0.376,0.252,0.659,0.446,0.834,0.598
									C608.076,642.388,608.168,642.462,608.168,642.462z"/>
							</g>
						</g>
					</g>
					<g>
						<g>
							<g>
								<path d="M601.699,645.49c0,0-0.08-0.368-0.012-0.811c0.066-0.458,0.296-0.917,0.688-1.041
									c0.365-0.093,0.775,0.188,1.044,0.511c0.282,0.318,0.482,0.652,0.482,0.652s-0.257,1.543-0.735,1.668
									c-0.218,0.075-0.546-0.219-0.844-0.464C601.984,645.727,601.699,645.49,601.699,645.49z"/>
							</g>
						</g>
					</g>
					<g>
						<g>
							<g>
								<path d="M595.643,648.793c0,0,0.268-0.261,0.56-0.545c0.282-0.274,0.524-0.57,0.613-0.517
									c0.351,0.118,0.203,1.613,0.203,1.613s-0.782,1.294-1.208,1.149c-0.282-0.124-0.375-0.578-0.337-0.969
									C595.508,649.132,595.643,648.793,595.643,648.793z"/>
							</g>
						</g>
					</g>
					<g>
						<g>
							<g>
								<path d="M595.231,655.675c0,0-0.293-1.531,0.3-1.876c0.332-0.168,0.807,0.014,1.156,0.252
									c0.356,0.237,0.606,0.522,0.606,0.522s0.016,0.4-0.011,0.821c-0.029,0.424-0.084,0.857-0.331,0.977
									C596.429,656.678,595.231,655.675,595.231,655.675z"/>
							</g>
						</g>
					</g>
					<g>
						<g>
							<g>
								<path d="M597.983,662.28c0,0-0.307,0.218-0.743,0.318c-0.458,0.098-0.934,0.084-1.172-0.185
									c-0.194-0.237-0.08-0.681,0.077-1.047c0.151-0.381,0.323-0.737,0.323-0.737s0.341-0.171,0.765-0.25
									c0.438-0.072,0.903-0.079,1.102,0.163c0.173,0.193,0.041,0.628-0.097,0.979C598.102,661.931,597.983,662.28,597.983,662.28z
									"/>
							</g>
						</g>
					</g>
					<g>
						<g>
							<g>
								<path d="M607.066,656.361c0,0,0.182,0.346,0.328,0.73c0.147,0.386,0.264,0.804,0.094,0.99s-0.609,0.121-1.019,0.025
									c-0.408-0.097-0.78-0.23-0.78-0.23s-0.219-0.304-0.377-0.675c-0.161-0.369-0.256-0.812-0.045-1.046
									c0.21-0.232,0.672-0.193,1.066-0.082C606.73,656.185,607.066,656.361,607.066,656.361z"/>
							</g>
						</g>
					</g>
					<g>
						<g>
							<g>
								<path d="M607.066,648.655c0,0,0.359-0.124,0.785-0.15c0.444-0.004,0.876-0.006,1.012,0.193
									c0.109,0.122-0.088,0.493-0.207,0.84c-0.13,0.368-0.213,0.768-0.213,0.768s-0.273,0.251-0.711,0.374
									c-0.458,0.135-0.988,0.076-1.256-0.268c-0.203-0.293-0.059-0.757,0.16-1.081
									C606.843,648.981,607.066,648.655,607.066,648.655z"/>
							</g>
						</g>
					</g>
					<g>
						<g>
							<g>
								<path d="M603.075,649.619c0,0-0.261-0.264-0.479-0.584c-0.221-0.319-0.393-0.704-0.254-0.885
									c0.09-0.123,0.468-0.013,0.838,0.106c0.368,0.122,0.722,0.262,0.722,0.262s0.262,0.264,0.48,0.584
									c0.22,0.319,0.392,0.704,0.254,0.886c-0.091,0.122-0.469,0.013-0.839-0.107C603.429,649.76,603.075,649.619,603.075,649.619
									z"/>
							</g>
						</g>
					</g>
					<g>
						<g>
							<g>
								<path d="M601.286,655.812c0,0-0.38,0.077-0.812,0.063c-0.428,0.017-0.926-0.175-1.107-0.581
									c-0.154-0.501,0.089-1.034,0.493-1.333c0.372-0.298,0.739-0.352,0.739-0.352s0.363,0.21,0.731,0.339
									c0.334,0.135,0.772,0.167,0.782,0.296c0.097,0.182-0.164,0.531-0.359,0.906
									C601.534,655.506,601.286,655.812,601.286,655.812z"/>
							</g>
						</g>
					</g>
					<g>
						<g>
							<g>
								<path d="M600.461,658.977c0,0,0.422-0.066,0.91-0.078c0.49-0.007,1.04,0.017,1.36,0.284c0.322,0.246,0.387,0.731,0.49,1.16
									c0.089,0.433,0.267,0.837,0.267,0.836c0,0-0.06,0.08-0.19,0.19c-0.123,0.104-0.359,0.266-0.615,0.341
									c-0.547,0.192-1.293,0.158-1.801-0.243c-0.49-0.406-0.618-1.056-0.593-1.573
									C600.31,659.374,600.461,658.977,600.461,658.977z"/>
							</g>
						</g>
					</g>
					<g>
						<g>
							<g>
								<path d="M590.69,650.72c0,0,1.118-1.018,1.532-0.719c0.211,0.177,0.161,0.619,0.03,0.992
									c-0.129,0.376-0.324,0.69-0.324,0.69s-0.32,0.185-0.673,0.391c-0.346,0.186-0.693,0.373-0.812,0.267
									C590.152,652.134,590.69,650.72,590.69,650.72z"/>
							</g>
						</g>
					</g>
					<g>
						<g>
							<g>
								<path d="M596.469,644.251c0,0-0.062,0.406-0.181,0.832c-0.136,0.417-0.263,0.89-0.559,1.011
									c-0.246,0.156-0.692-0.045-1.077-0.173c-0.443-0.163-0.797-0.293-0.797-0.293s-0.141-0.36-0.125-0.852
									c0.003-0.511,0.229-1.052,0.69-1.315c0.461-0.203,1.012-0.046,1.398,0.229C596.213,643.948,596.469,644.251,596.469,644.251
									z"/>
							</g>
						</g>
					</g>
					<g>
						<g>
							<g>
								<path d="M601.147,643.287c0,0-0.267-0.278-0.442-0.725c-0.188-0.465-0.225-1.024,0.065-1.408
									c0.257-0.313,0.773-0.352,1.19-0.309c0.434,0.033,0.84,0.104,0.84,0.104s0.214,0.328,0.337,0.777
									c0.117,0.469,0.166,0.975-0.079,1.275c-0.185,0.252-0.664,0.258-1.066,0.271
									C601.524,643.281,601.147,643.287,601.147,643.287z"/>
							</g>
						</g>
					</g>
					<g>
						<g>
							<g>
								<path d="M592.615,659.391c0,0,1.112,1.099,0.791,1.697c-0.203,0.325-0.702,0.417-1.12,0.386
									c-0.422-0.026-0.772-0.156-0.772-0.156s-0.217-0.339-0.42-0.703c-0.2-0.369-0.398-0.744-0.268-0.936
									C591.085,659.197,592.615,659.391,592.615,659.391z"/>
							</g>
						</g>
					</g>
					<g>
						<g>
							<g>
								<path d="M607.48,653.197c0,0,0.196-0.33,0.512-0.634c0.312-0.304,0.759-0.579,1.151-0.482
									c0.718,0.23,0.812,1.803,0.812,1.803s-1.002,1.223-1.637,1.019c-0.297-0.07-0.477-0.488-0.618-0.9
									C607.563,653.594,607.48,653.197,607.48,653.197z"/>
							</g>
						</g>
					</g>
					<g>
						<path d="M583.06,679.369c-0.31,0.108-0.762,0.279-1.334,0.532c-0.57,0.257-1.256,0.603-2.018,1.072
							c-0.05,0.028-0.098,0.057-0.144,0.087c-0.048,0.031-0.096,0.064-0.146,0.096c-0.097,0.062-0.194,0.128-0.296,0.192
							c-0.1,0.066-0.196,0.137-0.299,0.208c-0.102,0.071-0.207,0.142-0.307,0.218c-0.203,0.154-0.417,0.308-0.623,0.48
							c-0.105,0.084-0.212,0.168-0.317,0.258c-0.105,0.09-0.212,0.182-0.32,0.274c-0.852,0.745-1.722,1.646-2.554,2.693
							c-0.832,1.049-1.632,2.239-2.356,3.552c-0.365,0.656-0.714,1.343-1.044,2.053c-0.04,0.089-0.081,0.178-0.123,0.267
							c-0.039,0.09-0.08,0.18-0.121,0.27c-0.039,0.091-0.08,0.181-0.12,0.272c-0.038,0.091-0.077,0.183-0.117,0.274
							c-0.039,0.093-0.077,0.184-0.117,0.276c-0.038,0.093-0.076,0.189-0.115,0.281c-0.037,0.094-0.075,0.189-0.114,0.283
							c-0.041,0.095-0.071,0.189-0.106,0.282c-0.139,0.378-0.278,0.759-0.42,1.144c-0.07,0.19-0.141,0.385-0.211,0.578
							c-0.071,0.192-0.143,0.389-0.208,0.584c-0.133,0.392-0.265,0.786-0.399,1.186c-0.066,0.199-0.134,0.398-0.201,0.6
							c-0.032,0.1-0.065,0.2-0.1,0.302c-0.029,0.102-0.062,0.202-0.094,0.302c-1.031,3.239-1.853,6.366-2.548,9.214
							c-0.172,0.712-0.337,1.407-0.497,2.083c-0.157,0.678-0.309,1.338-0.456,1.976c-0.019,0.078-0.036,0.16-0.054,0.237
							c-0.018,0.08-0.032,0.16-0.049,0.238c-0.029,0.16-0.059,0.317-0.09,0.475c-0.025,0.142-0.052,0.281-0.078,0.42
							c0.398,0.005,0.794,0.017,1.19,0.041c0.017-0.06,0.033-0.119,0.051-0.18c0.042-0.15,0.084-0.301,0.127-0.452
							c0.023-0.076,0.043-0.152,0.066-0.229c0.023-0.078,0.049-0.153,0.073-0.232c0.196-0.617,0.397-1.258,0.605-1.916
							c0.206-0.66,0.419-1.343,0.632-2.042c0.863-2.794,1.79-5.864,2.81-9.065c0.029-0.101,0.061-0.2,0.093-0.3
							c0.033-0.099,0.065-0.199,0.097-0.298c0.065-0.198,0.131-0.395,0.193-0.593c0.128-0.393,0.255-0.783,0.381-1.174
							c0.061-0.193,0.126-0.386,0.192-0.577c0.063-0.192,0.129-0.382,0.193-0.571c0.128-0.381,0.255-0.759,0.381-1.132
							c0.031-0.093,0.059-0.188,0.094-0.278c0.034-0.09,0.064-0.181,0.099-0.271c0.034-0.089,0.066-0.18,0.1-0.27
							c0.034-0.089,0.067-0.18,0.103-0.27c0.032-0.087,0.066-0.179,0.102-0.268c0.033-0.088,0.07-0.175,0.104-0.264
							c0.035-0.088,0.068-0.177,0.104-0.266c0.035-0.085,0.072-0.173,0.107-0.26c0.283-0.692,0.58-1.363,0.887-2.008
							c0.617-1.287,1.288-2.467,1.988-3.522c0.704-1.054,1.439-1.983,2.174-2.777c0.095-0.099,0.185-0.195,0.275-0.293
							c0.092-0.095,0.185-0.187,0.275-0.277c0.18-0.186,0.365-0.354,0.542-0.524c0.089-0.084,0.181-0.162,0.268-0.242
							c0.088-0.08,0.175-0.16,0.262-0.233c0.09-0.076,0.178-0.147,0.263-0.219c0.042-0.038,0.086-0.073,0.127-0.108
							c0.043-0.035,0.087-0.069,0.129-0.103c0.676-0.542,1.296-0.968,1.815-1.299c0.523-0.324,0.94-0.562,1.228-0.716
							c0.289-0.155,0.44-0.233,0.44-0.233S583.371,679.264,583.06,679.369z"/>
					</g>
					<g>
						<path d="M579.829,680.01c-0.093-0.016-0.245-0.044-0.487-0.093c-0.24-0.05-0.568-0.117-0.998-0.252
							c-0.215-0.067-0.455-0.151-0.713-0.275c-0.256-0.122-0.529-0.286-0.771-0.527l-0.006-0.006
							c-0.157-0.167-0.363-0.462-0.523-0.914c-0.01-0.028-0.023-0.058-0.032-0.086c-0.01-0.03-0.02-0.06-0.029-0.09
							c-0.02-0.062-0.041-0.125-0.06-0.19c-0.012-0.041-0.023-0.083-0.036-0.125c-0.014-0.044-0.023-0.09-0.038-0.137
							c-0.026-0.094-0.053-0.19-0.078-0.287c-0.054-0.2-0.114-0.409-0.185-0.62c-0.068-0.21-0.143-0.427-0.232-0.658
							c-0.012-0.029-0.022-0.059-0.032-0.089c-0.013-0.029-0.025-0.06-0.04-0.091c-0.011-0.029-0.023-0.059-0.036-0.09l-0.02-0.048
							c0,0,0-0.004-0.002-0.004l-0.002,0.004l-0.009,0.009l-0.016,0.016c-0.077,0.088-0.157,0.178-0.237,0.269
							c-0.168,0.188-0.343,0.383-0.521,0.585c-0.095,0.106-0.19,0.211-0.284,0.319c-0.1,0.114-0.203,0.239-0.309,0.364
							c-0.121,0.146-0.177,0.207-0.256,0.298c-0.076,0.087-0.151,0.176-0.229,0.265c-0.311,0.354-0.641,0.727-0.983,1.119
							c-0.343,0.39-0.7,0.796-1.069,1.224c-0.744,0.853-1.531,1.789-2.334,2.811c-0.196,0.258-0.397,0.519-0.602,0.784
							c-0.05,0.066-0.1,0.134-0.148,0.204c-0.051,0.068-0.099,0.138-0.148,0.206c-0.099,0.138-0.198,0.276-0.3,0.417
							c-0.395,0.564-0.784,1.15-1.164,1.761c-0.758,1.221-1.479,2.532-2.148,3.915c-0.042,0.084-0.084,0.171-0.126,0.259
							c-0.041,0.087-0.08,0.175-0.122,0.263c-0.081,0.174-0.163,0.35-0.244,0.527c-0.083,0.176-0.16,0.354-0.239,0.531
							c-0.077,0.178-0.155,0.357-0.232,0.534c-0.154,0.358-0.316,0.718-0.468,1.08c-0.15,0.367-0.302,0.733-0.454,1.102
							c-0.094,0.231-0.192,0.461-0.282,0.692c-0.09,0.231-0.181,0.46-0.268,0.692c-0.089,0.229-0.179,0.459-0.267,0.688
							c-0.088,0.228-0.176,0.455-0.258,0.686c-0.167,0.458-0.331,0.911-0.495,1.362c-0.082,0.225-0.157,0.45-0.234,0.677
							c-0.077,0.225-0.152,0.447-0.227,0.671c-0.076,0.222-0.15,0.445-0.225,0.666l-0.057,0.167l-0.052,0.165
							c-0.036,0.111-0.07,0.221-0.107,0.33c-0.138,0.442-0.275,0.879-0.413,1.311c-0.132,0.434-0.257,0.865-0.382,1.289
							c-0.124,0.425-0.247,0.845-0.359,1.264c-0.844,3.057-1.465,5.871-1.911,8.299c0.358-0.054,0.715-0.104,1.072-0.153
							c0.634-2.273,1.416-4.871,2.349-7.686c0.13-0.406,0.273-0.814,0.415-1.229c0.144-0.413,0.282-0.833,0.43-1.254
							c0.151-0.42,0.302-0.846,0.455-1.276c0.039-0.106,0.076-0.215,0.113-0.321l0.058-0.163l0.061-0.163
							c0.08-0.214,0.16-0.431,0.24-0.648c0.08-0.218,0.162-0.438,0.241-0.657c0.082-0.22,0.162-0.44,0.249-0.66
							c0.168-0.441,0.337-0.885,0.508-1.333c0.085-0.225,0.175-0.447,0.263-0.672c0.09-0.225,0.18-0.449,0.269-0.676
							c0.09-0.226,0.18-0.452,0.268-0.68c0.09-0.228,0.185-0.453,0.279-0.681c0.148-0.362,0.296-0.727,0.442-1.086
							c0.147-0.357,0.302-0.712,0.452-1.065c0.074-0.179,0.147-0.354,0.223-0.531c0.075-0.175,0.148-0.351,0.224-0.521
							c0.077-0.172,0.151-0.345,0.227-0.515c0.038-0.085,0.075-0.171,0.112-0.257c0.039-0.084,0.078-0.168,0.118-0.251
							c0.616-1.35,1.268-2.633,1.946-3.834c0.338-0.602,0.684-1.182,1.036-1.742c0.088-0.139,0.177-0.278,0.265-0.414
							c0.044-0.069,0.088-0.138,0.131-0.205c0.044-0.07,0.089-0.138,0.134-0.204c0.183-0.269,0.36-0.533,0.537-0.796
							c0.721-1.04,1.427-2.014,2.097-2.918c0.334-0.453,0.654-0.89,0.964-1.31c0.307-0.422,0.602-0.823,0.877-1.212
							c0.069-0.097,0.137-0.191,0.204-0.285c0.062-0.09,0.148-0.208,0.165-0.24c0.066-0.1,0.134-0.208,0.205-0.318
							c0.073-0.118,0.146-0.231,0.217-0.342c0.039-0.058,0.077-0.117,0.112-0.177l0.013-0.019l0.001,0.002l0.012,0.017l0.019,0.031
							c0.014,0.023,0.026,0.043,0.039,0.067c0.1,0.18,0.177,0.378,0.264,0.571c0.022,0.051,0.044,0.099,0.066,0.147
							c0.011,0.023,0.023,0.048,0.033,0.073c0.013,0.025,0.024,0.049,0.035,0.074c0.031,0.067,0.062,0.131,0.093,0.193
							c0.018,0.031,0.031,0.06,0.047,0.092c0.017,0.029,0.032,0.059,0.049,0.088c0.017,0.028,0.032,0.057,0.048,0.085
							s0.032,0.055,0.049,0.081c0.035,0.054,0.063,0.104,0.099,0.151s0.068,0.092,0.1,0.135c0.036,0.043,0.07,0.082,0.103,0.12
							c0.019,0.02,0.033,0.037,0.049,0.055c0.018,0.017,0.035,0.032,0.051,0.049c0.034,0.029,0.064,0.059,0.094,0.087
							c0.067,0.052,0.125,0.096,0.178,0.134c-0.005-0.004-0.008-0.007-0.009-0.007c0.28,0.257,0.58,0.414,0.85,0.529
							c0.272,0.115,0.523,0.188,0.744,0.244c0.443,0.113,0.778,0.16,1.023,0.193c0.244,0.031,0.4,0.047,0.494,0.055
							c0.096,0.006,0.126,0.009,0.126,0.009S579.924,680.026,579.829,680.01z"/>
					</g>
					<path d="M578.027,679.62c-2.335-2.852-7.332,2.35-8.685,4.349c0.664-0.844,0.958-1.921,1.559-2.804
						c0.542-0.795,1.337-1.439,1.93-2.199c1.168-1.495,2.127-3.34,3.238-4.84c0.027,1.312-0.778,1.917-0.075,3.262
						c0.515,0.985,1.304,1.578,2.275,1.992c2.363,1.009,4.622,0.82,6.761-0.697c-1.265,1.172-3.117,1.86-4.628,2.762
						c-1.753,1.045-3.047,2.318-4.593,3.627c1.199-1.276,3.117-3.028,1.496-4.727c-1.107-1.16-3.906-1.504-5.036-0.323
						c0.316-0.892,2.488-4.04,3.396-3.954c0.174,0.67,0.12,1.442,0.532,2.052c0.374,0.553,1.131,0.722,1.418,1.364L578.027,679.62z"
						/>
					<g>
						<g>
							<g>
								<path d="M601.771,712.24c0,0-3.929,0.157-10.281,0.289c-3.183,0.053-6.949,0.124-11.121,0.433
									c-4.175,0.263-8.763,0.732-13.607,1.082c-4.84,0.376-9.487,0.549-13.716,0.425c-4.251-0.118-7.966-0.44-11.146-0.638
									c-6.349-0.231-10.278-0.373-10.278-0.373s0.982-0.052,2.759-0.146c1.776-0.066,4.345-0.258,7.524-0.282
									c3.168-0.003,7.008,0.122,11.158,0.086c4.17-0.026,8.758-0.295,13.582-0.671c4.826-0.349,9.44-0.72,13.657-0.834
									c4.217-0.16,8.021-0.03,11.188,0.117C597.842,711.997,601.771,712.24,601.771,712.24z"/>
							</g>
						</g>
					</g>
					<g>
						<g>
							<g>
								<path d="M530.48,779c0,0-0.993-0.971-2.649-2.863c-1.627-1.905-4.02-4.713-6.045-8.81c-0.988-2.041-1.852-4.473-2.125-7.173
									c-0.337-2.641-0.496-5.485-0.572-8.463c-0.078-2.976-0.073-6.098-0.107-9.31c-0.018-1.603-0.062-3.241-0.125-4.889
									c-0.09-1.664-0.181-3.351-0.272-5.059c-0.148-3.438-0.118-6.882,0.546-10.171c0.341-1.648,0.858-3.229,1.649-4.71
									c0.387-0.711,0.848-1.414,1.372-2.042c0.137-0.153,0.266-0.312,0.409-0.458l0.211-0.221l0.293-0.285
									c0.066-0.055,0.118-0.139,0.196-0.169l0.251-0.062l0.356-0.087l0.557-0.13c5.894-1.288,11.307-1.461,15.81-1.409
									c2.249,0.038,4.289,0.143,6.069,0.281c1.777,0.154,3.309,0.288,4.56,0.397c1.249,0.134,2.215,0.248,2.873,0.299
									c0.659,0.042,1.005,0.064,1.005,0.064s-0.347,0.018-1.009,0.017c-0.662,0-1.637-0.042-2.89-0.088
									c-1.238,0.002-2.797-0.069-4.567-0.098c-1.778-0.028-3.796-0.015-6.032,0.063c-4.45,0.179-9.781,0.591-15.454,2.01
									c-0.32,0.082-0.835,0.214-0.748,0.211l-0.28,0.305c-0.119,0.126-0.225,0.266-0.338,0.398
									c-0.435,0.551-0.806,1.144-1.146,1.806c-0.644,1.275-1.107,2.741-1.39,4.258c-0.566,3.059-0.581,6.352-0.433,9.741
									c0.085,1.71,0.169,3.4,0.252,5.066c0.05,1.683,0.073,3.329,0.066,4.953c-0.036,3.226-0.071,6.337-0.104,9.301
									c-0.011,2.952,0.044,5.746,0.267,8.352c0.152,2.572,0.851,4.879,1.704,6.916c1.75,4.064,3.936,7.008,5.42,9.01
									C529.571,777.948,530.48,779,530.48,779z"/>
							</g>
						</g>
					</g>
					<g>
						<g>
							<g>
								<path d="M582.8,712.36c0,0,1.819-0.085,5.238-0.245c1.708-0.103,3.814-0.231,6.294-0.382
									c2.476-0.168,5.358-0.334,8.582-0.255l0.331,0.008l0.176,0.311c0.035,0.062,0.086,0.15,0.146,0.259
									c0.029,0.059,0.062,0.122,0.097,0.19c0.027,0.051,0.058,0.106,0.089,0.163c0.158,0.289,0.322,0.64,0.469,0.992l-0.582,0.238
									c0.027,0.001,0.095-0.013,0.13-0.09l0.012-0.03l0.004-0.016l0.001-0.005l0.31-0.294l0.011,0.013
									c0.031,0.034,0.062,0.076,0.088,0.124c0.054,0.096,0.083,0.215,0.083,0.315c-0.007-0.036-0.028-0.141-0.049-0.244
									c2.448,5.592,3.208,14.451,2.742,23.775c-0.462,6.295-0.666,12.255-1.152,17.731c-0.254,2.743-0.528,5.304-1.009,7.763
									c-0.568,2.436-1.427,4.585-2.411,6.444c-1.981,3.724-4.412,6.159-6.146,7.677c-0.871,0.767-1.599,1.298-2.085,1.662
									c-0.496,0.352-0.757,0.536-0.757,0.536s0.243-0.206,0.707-0.599c0.453-0.404,1.132-0.989,1.935-1.812
									c1.602-1.631,3.807-4.186,5.509-7.88c0.845-1.835,1.564-3.963,1.994-6.275c0.346-2.32,0.53-4.935,0.689-7.629
									c0.307-5.409,0.398-11.449,0.858-17.716c0.467-9.158-0.062-17.858-2.071-23.181l-0.05-0.244
									c-0.001,0.096,0.025,0.211,0.077,0.302c0.025,0.046,0.055,0.085,0.085,0.118c0.02,0.022-0.044-0.05-0.057-0.074
									c-0.102-0.15-0.114-0.307-0.114-0.366c0.02,0.1,0.039,0.2,0.045,0.234c-0.122-0.331-0.255-0.646-0.377-0.898
									c-0.125-0.273-0.227-0.495-0.282-0.616c0.218,0.138,0.436,0.274,0.506,0.318c-3.177-0.211-6.016-0.188-8.503-0.159
									c-2.486,0.029-4.602,0.023-6.315-0.006C584.619,712.457,582.8,712.36,582.8,712.36z"/>
							</g>
						</g>
					</g>
					<path opacity="0.3" enable-background="new    " d="M548.35,713.65c0.08,0.069,0.17,0.149,0.25,0.25
						c-0.43-0.11-0.84-0.21-1.239-0.301c-0.011,0.011-0.021,0-0.03,0c-1-0.22-1.95-0.35-2.84-0.399
						c-0.431-0.03-0.851-0.05-1.26-0.03c-0.511,0-1,0.03-1.48,0.1c-0.27,0.03-0.54,0.07-0.8,0.12
						c-12.94,2.45-12.351,24.181-12.91,35.42c-0.51,10.45,0.18,21.19,4.53,30.19c-1.383-1-2.244-1-2.236,0
						c-1.37-1.32-1.434-2.53-2.774-3.94c-1.04-1.1-2.04-2.31-2.949-3.579c-0.04-0.04-0.07-0.08-0.08-0.12
						c-0.101-0.11-0.181-0.221-0.261-0.341c-1.069-1.519-2.029-3.119-2.829-4.71c-3.171-6.319-2.62-15.189-1.66-22.489
						c0.029-0.261,0.06-0.521,0.1-0.78c0.08-0.61,0.17-1.2,0.25-1.78c0.7-4.779-0.2-8.67-0.63-13.2c-0.01-0.149-0.03-0.31-0.03-0.46
						c-0.1-1.17-0.109-2.27-0.01-3.33c0.17-2.01,0.72-3.859,1.76-5.689c0.09-0.16,0.191-0.32,0.29-0.48
						c0.15-0.26,0.32-0.51,0.5-0.77c0.84-1.2,1.94-2.03,3.19-2.6c0.49-0.231,1.01-0.41,1.54-0.561c1.79-0.51,3.74-0.891,5.609-0.92
						c0.37-0.01,0.74-0.25,1.101-0.25h0.54c0.39,0,0.779,0,1.17,0h0.04c1,0,1.96,0,2.91,0h0.01c0.17,0,0.35,0.06,0.52,0.039
						c2.561-0.279,5.03-0.499,7.841,0.171c0.029,0.01,0.06,0.034,0.09,0.045c0.229,0.04,0.439,0.053,0.649,0.042
						c0.17,0.011,0.34,0.027,0.5,0.037c0.2,0.04,0.391,0.113,0.59,0.273C548.33,713.617,548.34,713.64,548.35,713.65z"/>
					<path opacity="0.3" enable-background="new    " d="M548.96,714h-0.28c-0.029-0.04-0.05-0.07-0.08-0.1
						C548.72,713.93,548.84,713.97,548.96,714z"/>
					<path opacity="0.3" enable-background="new    " d="M577.201,679c-2.866,0-5.849,4.651-7.396,6.954
						c-2.311,3.44-3.805,7.134-4.984,11.062c-1.628,5.418-3.009,10.888-3.741,16.603c-1.046,0.054-2.265,0.269-3.26,0.125
						c-0.096-2.142,1.167-3.902,1.771-5.906c0.593-1.966,1.068-3.92,1.648-5.918c1.097-3.779,1.93-7.693,3.746-11.391
						c1.359-2.765,2.588-5.088,4.477-7.531c1.25-1.616,4.735-5.997,6.916-3.997L577.201,679L577.201,679z"/>
					<path opacity="0.3" enable-background="new    " d="M565.55,712.769c0.08,0,0.17-0.01,0.25-0.01c0,0.181-0.01,0.37-0.03,0.56
						c0.011,0.069,0,0.149-0.01,0.22c-0.149,1.86-0.76,3.87-1.029,5.68c-1.301,8.8-3.171,17.46-3.171,26.69
						c0,9.03-0.22,18.18,1.07,26.729c0.32,2.13,1.61,11.32,2.29,13.36h-9.05c-1.33-3.19-2.68-13.64-3.16-17.09
						c-1.441-10.33-0.79-21.84-0.28-32.32c0.221-4.54,0.511-9.019,1.54-13.31c0.46-1.91,0.82-3.851,1.521-5.641
						c0.58-1.5,0.96-2.199,1.51-3.46c0.06-0.13,0.12-0.26,0.18-0.41c0.021-0.05,0.051-0.109,0.07-0.159l0.26-0.141l0.311-0.17
						l0.279-0.16l0.341-0.18l0.05-0.03c1.1,0,1.93,0,2.69-0.01C562.55,712.91,563.66,712.87,565.55,712.769z"/>
					<path opacity="0.3" enable-background="new    " d="M610.232,643c-3.568-2-9.023,0.701-11.461,3.625
						c-2.656,3.188-2.613,8.432-1.029,12.078c0.651,1.499,1.785,3.034,3.03,4.108c1.514,1.306,2.839,1.153,4.77,1.297
						c-3.028,1.903-8.195,2.316-11.168-0.004c-3.549-2.775-4.464-6.466-4.235-10.905c0.115-2.261,1.131-3.951,2.168-5.919
						c0.908-1.726,1.475-3.573,2.887-4.985c1.587-1.59,3.142-1.686,5.268-1.897c2.172-0.216,4.317-0.734,6.363,0.167
						c1.183,0.522,2.21,1.435,3.132,2.435L610.232,643L610.232,643z"/>
				</g>
			</g>
			<g>
				<g>
					<g>
						<path d="M525,772.5c0,0,0.185,0.234,0.536,0.681c0.363,0.435,0.823,1.138,1.609,1.872c1.454,1.565,3.95,3.462,7.483,4.877
							c1.76,0.717,3.738,1.393,5.915,1.938c1.092,0.264,2.222,0.537,3.385,0.817c1.174,0.234,2.382,0.476,3.62,0.723
							c4.967,0.895,10.496,1.429,16.297,1.212c1.448-0.098,2.879-0.194,4.289-0.289c1.409-0.167,2.798-0.331,4.162-0.493
							c1.36-0.195,2.697-0.387,4.006-0.574c1.301-0.225,2.561-0.507,3.799-0.744c1.247-0.209,2.415-0.595,3.576-0.878
							c0.579-0.151,1.148-0.3,1.71-0.446c0.556-0.164,1.091-0.363,1.624-0.537c2.134-0.728,4.139-1.307,5.723-2.312
							c0.203-0.115,0.41-0.223,0.605-0.342c0.188-0.133,0.372-0.265,0.555-0.394c0.361-0.265,0.732-0.5,1.062-0.769
							c0.637-0.565,1.283-1.056,1.799-1.612c0.541-0.53,1.039-1.033,1.462-1.53c0.438-0.484,0.836-0.931,1.172-1.35
							c0.692-0.823,1.216-1.478,1.568-1.922c0.355-0.443,0.542-0.676,0.542-0.676s-0.164,0.249-0.478,0.723
							c-0.312,0.475-0.775,1.173-1.401,2.054c-0.303,0.448-0.666,0.928-1.069,1.449c-0.39,0.534-0.854,1.081-1.367,1.661
							c-0.485,0.604-1.112,1.155-1.734,1.783c-0.323,0.301-0.691,0.571-1.053,0.871c-0.183,0.147-0.367,0.297-0.555,0.448
							c-0.197,0.138-0.406,0.265-0.613,0.399c-6.845,3.975-17.431,6.673-29.313,7.35c-5.964,0.224-11.649-0.447-16.674-1.533
							c-1.25-0.299-2.469-0.591-3.652-0.874c-1.17-0.339-2.306-0.668-3.403-0.986c-2.189-0.662-4.18-1.467-5.939-2.312
							c-3.549-1.676-5.983-3.835-7.319-5.535c-0.732-0.806-1.135-1.555-1.457-2.021C525.162,772.75,525,772.5,525,772.5z"/>
					</g>
				</g>
			</g>
		</g>
	</g>
</g>
</svg>
