<?xml version="1.0" encoding="utf-8"?>
<!-- Generator: Adobe Illustrator 25.0.1, SVG Export Plug-In . SVG Version: 6.00 Build 0)  -->
<svg version="1.1" id="Capa_1" xmlns="http://www.w3.org/2000/svg" xmlns:xlink="http://www.w3.org/1999/xlink" x="0px" y="0px"
	 viewBox="0 0 800 800" enable-background="new 0 0 800 800" xml:space="preserve">
<g id="accesorios">
	<g id="Capa_87">
		<g opacity="0.8">
			<path opacity="0.1" fill="#FF3E4C" enable-background="new    " d="M380.861,654.906c0.472-0.042,0.653-0.635,0.814-0.958
				c0.204-0.408,0.213-0.819,0.183-1.273c-0.053-0.847-0.315-1.447-0.958-2.175c-0.626-0.708-1.385-1.214-2.173-1.773
				c-0.845-0.602-1.686-1.169-2.566-1.714c-0.873-0.54-1.83-1.085-2.879-1.429c-0.802-0.26-2.064-0.4-2.847-0.188
				c-0.808,0.219-1.754,0.771-1.871,1.559c-0.024,0.166,0.124,0.423,0.063,0.58c-0.064,0.161-0.353,0.253-0.514,0.344
				c-0.365,0.209-0.701,0.481-0.965,0.774c-0.584,0.642-1.052,1.302-1.443,2.08c-0.203,0.396-0.489,0.767-0.624,1.217
				c-0.113,0.377-0.046,0.794,0.052,1.204c0.203,0.824,0.689,1.617,1.266,2.338c0.697,0.866,1.626,1.435,2.618,2.003
				c1.02,0.585,2.056,0.952,3.183,1.162c0.904,0.169,2.15,0.195,2.989-0.048c0.748-0.215,1.568-0.733,2.117-1.181
				c0.685-0.562,0.988-1.297,1.382-2.098c0.616,0.305,1.941-0.039,2.407-0.357"/>
			<g>
				<g>
					<g>
						<g>
							<path d="M378.711,653.234c0,0,0.013,0.116,0.037,0.338c0.019,0.222,0.085,0.55,0.041,0.977
								c-0.017,0.832-0.347,2.171-1.563,3.22c-0.621,0.472-1.353,0.955-2.271,1.172c-0.905,0.229-1.913,0.257-2.939,0.096
								c-2.032-0.358-4.201-1.383-5.786-3.239c-0.774-0.929-1.327-2.075-1.368-3.279c-0.029-1.203,0.432-2.289,1.052-3.137
								c1.243-1.71,3.266-2.541,4.834-2.212c1.575,0.273,2.567,1.134,3.193,1.681c0.323,0.276,0.542,0.523,0.699,0.683
								c0.154,0.16,0.235,0.245,0.235,0.245s-0.089-0.076-0.259-0.221c-0.17-0.143-0.411-0.367-0.754-0.611
								c-0.662-0.488-1.709-1.232-3.162-1.382c-1.447-0.203-3.171,0.636-4.238,2.204c-0.525,0.772-0.888,1.743-0.84,2.723
								c0.053,0.979,0.524,1.967,1.22,2.8c1.42,1.67,3.426,2.688,5.294,3.086c0.942,0.183,1.867,0.198,2.694,0.035
								c0.832-0.146,1.548-0.559,2.148-0.953c1.174-0.884,1.598-2.105,1.687-2.921c0.081-0.413,0.046-0.741,0.049-0.964
								C378.712,653.352,378.711,653.234,378.711,653.234z"/>
						</g>
					</g>
				</g>
				<g>
					<g>
						<g>
							<path d="M376.071,646.925c0,0-0.125-0.067-0.344-0.187c-0.224-0.108-0.519-0.308-0.913-0.466
								c-0.784-0.304-1.862-0.722-2.975-0.735c-1.079-0.137-2.205,0.34-2.657,0.867c-0.429,0.529-0.009,0.895-0.029,0.913
								c0.029,0.05-0.094,0.195-0.271,0.324c-0.178,0.129-0.365,0.163-0.415,0.076c-0.003-0.013-0.111-0.16-0.191-0.495
								c-0.085-0.326,0.011-0.92,0.413-1.273c0.374-0.371,0.882-0.604,1.433-0.746c0.545-0.149,1.18-0.188,1.752-0.062
								c1.18,0.122,2.23,0.644,2.995,1.019c0.382,0.195,0.664,0.422,0.877,0.55C375.953,646.847,376.071,646.925,376.071,646.925z"
								/>
						</g>
					</g>
				</g>
				<g>
					<g>
						<g>
							<path d="M380.04,649.652c0,0,0.101,0.082,0.278,0.227c0.18,0.142,0.423,0.363,0.693,0.651
								c0.271,0.288,0.559,0.658,0.785,1.115c0.214,0.459,0.344,1.019,0.273,1.585c-0.078,0.547-0.277,1.096-0.619,1.531
								c-0.363,0.402-0.804,0.733-1.243,0.838c-0.212,0.088-0.415,0.111-0.596,0.128c-0.181,0.021-0.342,0.046-0.47,0.025
								c-0.26-0.021-0.414-0.033-0.423-0.034c-0.082-0.01-0.11-0.193-0.063-0.407c0.047-0.215,0.136-0.383,0.199-0.376
								c0.008,0.002,0.129,0.022,0.336,0.059c0.105,0.03,0.227,0.017,0.368,0.015c0.143,0.002,0.304,0.002,0.467-0.053
								c0.349-0.043,0.692-0.267,1.018-0.553c0.302-0.319,0.517-0.757,0.635-1.239c0.105-0.477,0.043-0.975-0.113-1.42
								c-0.168-0.441-0.411-0.827-0.648-1.133C380.439,649.997,380.04,649.652,380.04,649.652z"/>
						</g>
					</g>
				</g>
				<g opacity="0.3">
					<g>
						<g>
							<path fill="#FFFFFF" d="M367.947,655.649c0,0-0.301-0.235-0.744-0.697c-0.371-0.495-0.932-1.261-1.006-2.294
								c-0.096-1.023,0.278-1.935,0.689-2.431c0.186-0.263,0.419-0.407,0.542-0.527c0.133-0.107,0.21-0.169,0.21-0.169
								s-0.042,0.091-0.115,0.249c-0.062,0.163-0.208,0.359-0.291,0.644c-0.207,0.554-0.318,1.319-0.244,2.156
								c0.053,0.85,0.369,1.593,0.554,2.164C367.795,655.28,367.947,655.649,367.947,655.649z"/>
						</g>
					</g>
				</g>
				<g opacity="0.7">
					<path opacity="0.3" enable-background="new    " d="M365.678,654.763c0.287,0.39,0.628,0.737,1.008,1.048
						c-0.112-0.129-0.215-0.256-0.307-0.382L365.678,654.763z"/>
					<path opacity="0.3" enable-background="new    " d="M371.927,645.469c1.554,0.302,3.423,1.286,4.638,2.172
						c0.988,0.717,1.764,1.16,2.75,1.881c0.753,0.553,1.545,1.376,1.821,2.207c0.351,1.049-0.503,1.871-1.319,2.392
						c-0.106,0.067-0.834-1.181-0.958-1.349c-0.798-1.105-2.006-1.605-2.96-2.541c0.395,0.388,0.776,0.744,1.084,1.13
						c1.33,2.23,0.364,4.368-1.265,5.378c-2.398,1.487-6.565,1.09-9.031-0.928c0.658,0.752,1.639,1.501,2.51,1.906
						c2.033,0.945,3.861,1.589,5.87,0.987c2.005-0.598,2.763-1.858,3.552-3.462c1.444,0.579,2.465-0.309,3.014-1.281
						c0.012-0.017,0.088-0.009,0.1-0.03c-0.063,0.211-0.072,0.451-0.162,0.666l-0.05,0.119c0.765-0.909,1.043-2.261,0.498-3.51
						c-0.549-1.254-1.788-2.033-2.877-2.858c-1.184-0.895-2.345-1.721-3.67-2.474c-0.676-0.384-1.385-0.823-2.165-0.999
						c-0.674-0.15-1.401-0.11-2.075-0.023c-1.346,0.174-2.035,0.651-2.777,1.483C369.531,645.837,370.499,645.192,371.927,645.469z"
						/>
				</g>
			</g>
		</g>
	</g>
</g>
</svg>
