<?xml version="1.0" encoding="utf-8"?>
<!-- Generator: Adobe Illustrator 25.0.1, SVG Export Plug-In . SVG Version: 6.00 Build 0)  -->
<svg version="1.1" id="Capa_1" xmlns="http://www.w3.org/2000/svg" xmlns:xlink="http://www.w3.org/1999/xlink" x="0px" y="0px"
	 viewBox="0 0 800 800" enable-background="new 0 0 800 800" xml:space="preserve">
<g id="bocas">
	<g id="_x36__2_">
		<g>
			<path opacity="0.3" fill="#EA7DAE" enable-background="new    " d="M330.116,537.986c1.413-0.264,3.913,1.881,5.182,2.44
				c1.729,0.76,3.249,1.72,4.763,2.857c2.977,2.232,5.704,5.074,8.916,6.929c3.901,2.253,8.307,2.441,12.685,3.326
				c2.319,0.469,3.779,0.951,4.539,3.379c0.643,2.057,1.583,3.652,3.271,5.109c2.717,2.345,6.417,3.363,9.868,3.544
				c3.665,0.192,8.644-0.928,11.857,0.594c0.088-1.331-0.565-4.741,0.336-5.637c3.394,3.032,8.947,2.847,13.41,2.604
				c2.392-0.13,4.658-0.362,6.863-0.91c0.94-0.233,2.057-0.478,2.934-1.028c1.345-0.847,0.879-1.077,0.452-2.362
				c-0.801-2.418-0.792-3.654,1.296-5.338c1.53-1.237,3.203-2.201,4.872-3.205c3.167-1.902,6.224-4.047,9.157-6.397
				c2.907-2.329,5.521-4.921,8.525-7.01c1.633-1.135,3.416-2.044,5.219-2.972c0.871-0.448,2.135-0.785,2.786-1.521
				c0.854-0.968,0.493-1.314,1.901-1.907c4.046-1.707,8.035-3.004,12.09-4.322c-1.086,2.957-5.107,5.596-7.213,7.98
				c-2.873,3.246-6.226,6.277-9.373,9.218c-6.467,6.044-12.452,12.751-18.936,18.555c-3.562,3.189-7.733,5.884-10.857,9.445
				c-1.256,1.431-2.538,2.842-3.962,4.081c-1.816,1.579-3.291,1.994-5.593,2.331c-4.586,0.672-9.224,1.063-13.733,1.965
				c-4.378,0.877-9.854,1.553-14.469,0.623c-4.198-0.846-9.35-1.097-13.105-3.357c-3.476-2.095-6.752-4.579-9.796-7.426
				c-5.702-5.331-9.149-11.675-13.486-17.754c-1.658-2.323-3.42-4.653-5.407-6.786c-2.062-2.214-3.355-4.579-4.991-6.895"/>
			<path fill="#EDEDE2" d="M331.945,537.378c4.51,1.116,10.037-0.477,14.477-0.915c4.462-0.44,9.459-1.17,13.878-2.125
				c4.554-0.983,9.735-1.266,14.621-0.771c4.981,0.504,11.305,1.425,16.246,1.933c4.871,0.499,8.633-0.679,13.624-0.408
				c4.662,0.253,10.249,0.716,14.783-0.187c4.13-0.821,8.758-3.501,12.76-4.405c3.432-0.774,9.568-1.26,11.319,2.458
				c0.124,0.265,0.436,0.549,0.591,0.762c-1.418,1.33-3.585,1.715-5.164,2.896c-1.617,1.209-2.868,2.815-4.378,4.152
				c-2.927,2.593-5.831,4.413-9.142,6.252c-3.26,1.811-6.909,4.059-9.454,7.006c-1.611,1.865-1.581,3.434-1.265,5.762
				c0.354,2.614-2.111,2.948-4.26,3.192c-3.311,0.376-6.842,0.305-10.211,0.305c-1.676,0-3.633,0.221-5.215-0.118
				c-1.277-0.274-2.291-1.755-3.445-1.836c-0.392,1.706-0.175,5.185-2.007,5.612c-1.912,0.444-5.001-1.096-6.873-1.52
				c-2.278-0.518-4.641-0.985-7.003-1.369c-1.487-0.24-6.676-0.184-7.495-1.555c-1.059-1.775,1.417-4.743-0.003-6.49
				c-1.271-1.568-4.533-1.739-6.328-2.206c-3.973-1.034-8.057-2.055-11.922-3.777c-6.686-2.98-11.452-9.732-18.135-12.496"/>
			<path opacity="0.3" fill="#B23665" enable-background="new    " d="M320.668,533.416c4.584-0.017,8.971-1.383,13.258-2.435
				c4.122-1.011,8.703-2.21,12.648-4.118c2.156-1.042,4.143-2.406,6.288-3.467c2.169-1.073,4.283-1.31,6.675-1.554
				c4.822-0.495,8.277-1.509,13.296-1.509c5.057,0,11.559,2.483,16.719,1.956c4.72-0.481,8.85-1.675,13.867-1.675
				c9.585,0,17.772,2.466,26.246,5.758c2.491,0.968,5.251,2.356,7.879,2.811c-1.946,0.647-4.438,0.691-6.503,1.222
				c-2.015,0.518-4,1.208-5.983,1.906c-4.288,1.511-8.281,2.703-12.952,2.934c-5.011,0.246-9.848,0.458-14.782,0.458
				c-4.994,0-11.512-0.688-16.491-1.202c-4.751-0.491-8.277-1.401-13.167-1.667c-5.008-0.271-9.811,1.958-14.538,2.411
				c-4.441,0.426-9.039,1.306-13.561,1.985c-2.408,0.361-4.959,0.398-7.471,0.301c-2.354-0.091-3.732-0.88-5.825-1.794
				c-1.756-0.77-3.538-1.3-5.3-2.169"/>
			<g>
				<g>
					<g>
						<path d="M468.16,522.779c0,0-1.987,1.07-5.581,3.008c-1.816,0.935-4.058,2.088-6.866,2.988
							c-2.811,0.957-6.251,1.193-9.903,1.148c-3.683-0.037-7.66-0.175-12.038-0.823c-4.31-0.782-8.765-2.163-13.334-3.734
							c-4.571-1.575-9.283-3.273-14.317-4.231c-1.272-0.279-2.483-0.506-3.683-0.54c-1.205-0.025-2.408,0.112-3.613,0.412
							c-2.413,0.581-4.839,1.85-7.614,2.791c-0.69,0.231-1.402,0.45-2.106,0.615c-0.338,0.093-0.724,0.17-1.122,0.239
							c-0.388,0.087-0.788,0.116-1.188,0.137c-1.6,0.091-3.127-0.199-4.515-0.601c-2.778-0.822-5.161-2.031-7.511-2.639
							c-1.162-0.324-2.296-0.411-3.573-0.488c-1.239-0.068-2.454-0.063-3.665,0.023c-2.421,0.156-4.786,0.578-7.066,1.15
							c-4.566,1.145-8.774,2.883-12.681,4.579c-1.957,0.877-3.847,1.723-5.664,2.537c-1.865,0.756-3.637,1.511-5.396,2.087
							c-1.718,0.664-3.456,1.05-5.059,1.494c-0.826,0.137-1.627,0.269-2.405,0.398c-0.389,0.059-0.769,0.132-1.147,0.176
							c-0.382,0.015-0.757,0.029-1.126,0.044c-0.735,0.027-1.445,0.055-2.128,0.08c-0.682-0.033-1.336-0.114-1.962-0.166
							c-0.625-0.063-1.225-0.104-1.789-0.18c-0.558-0.123-1.088-0.241-1.591-0.352c-2.025-0.373-3.509-0.959-4.529-1.302
							c-1.016-0.349-1.549-0.532-1.549-0.532s0.546,0.142,1.586,0.413c1.039,0.266,2.552,0.74,4.572,0.973
							c0.5,0.076,1.027,0.157,1.582,0.242c0.559,0.038,1.148,0.039,1.761,0.062c0.613,0.012,1.251,0.053,1.913,0.045
							c0.66-0.065,1.345-0.133,2.055-0.202c0.353-0.034,0.713-0.069,1.08-0.104c0.362-0.064,0.727-0.156,1.099-0.234
							c0.741-0.165,1.506-0.336,2.293-0.511c1.537-0.521,3.179-0.972,4.834-1.709c1.682-0.645,3.389-1.471,5.18-2.291
							c1.781-0.891,3.634-1.817,5.553-2.776c3.882-1.87,8.119-3.805,12.883-5.146c2.377-0.668,4.885-1.185,7.499-1.412
							c1.303-0.121,2.645-0.154,3.978-0.105c1.293,0.049,2.769,0.141,4.146,0.505c2.747,0.684,5.185,1.89,7.617,2.572
							c1.211,0.341,2.41,0.542,3.559,0.471c0.287-0.016,0.574-0.033,0.859-0.103c0.281-0.05,0.572-0.104,0.902-0.195
							c0.643-0.151,1.258-0.342,1.886-0.553c2.499-0.83,4.994-2.142,7.87-2.831c1.427-0.344,2.92-0.502,4.384-0.451
							c1.474,0.059,2.87,0.348,4.154,0.649c5.274,1.09,10.091,2.959,14.581,4.648c4.503,1.692,8.773,3.175,12.882,4.093
							c1.028,0.196,2.048,0.332,3.047,0.5c0.5,0.079,0.996,0.157,1.487,0.234c0.504,0.049,1.002,0.096,1.496,0.143
							c1.976,0.196,3.866,0.343,5.672,0.445c3.625,0.223,6.863,0.178,9.611-0.578c2.762-0.708,5.055-1.703,6.919-2.511
							c1.857-0.844,3.3-1.498,4.277-1.942C467.643,523.005,468.16,522.779,468.16,522.779z"/>
					</g>
				</g>
			</g>
			<g>
				<g>
					<g>
						<path d="M463.918,524.779c0,0-1.963,1.806-5.511,5.07c-1.807,1.595-3.886,3.688-6.329,6.077
							c-0.61,0.598-1.242,1.216-1.893,1.853c-0.325,0.32-0.655,0.645-0.99,0.975c-0.319,0.346-0.642,0.697-0.97,1.054
							c-1.311,1.421-2.698,2.924-4.154,4.502c-1.507,1.531-2.861,3.328-4.344,5.136c-0.736,0.907-1.487,1.833-2.253,2.776
							c-0.383,0.471-0.77,0.946-1.159,1.426c-0.383,0.498-0.77,1.002-1.16,1.509c-3.164,4.026-6.863,8.103-11.205,11.925
							c-4.333,3.821-9.287,7.431-14.912,10.358c-5.612,2.918-11.938,5.144-18.694,5.917c-6.745,0.795-13.523-0.022-19.548-2.172
							c-6.008-2.156-11.385-5.38-15.735-9.283c-4.37-3.89-7.769-8.305-10.524-12.63c-1.287-2.196-2.53-4.317-3.725-6.357
							c-0.603-0.992-1.124-2.018-1.76-2.93c-0.629-0.919-1.245-1.816-1.846-2.693c-4.967-6.955-10.979-10.789-15.245-12.899
							c-2.122-1.135-3.886-1.762-5.061-2.24c-1.178-0.475-1.797-0.723-1.797-0.723s0.633,0.208,1.839,0.604
							c1.204,0.404,3.012,0.926,5.212,1.946c0.557,0.239,1.145,0.492,1.763,0.759c0.615,0.274,1.214,0.653,1.866,1
							c0.647,0.359,1.323,0.734,2.025,1.124c0.691,0.409,1.347,0.931,2.061,1.42c2.892,1.926,5.725,4.751,8.493,8.125
							c0.654,0.875,1.324,1.771,2.009,2.687c0.692,0.913,1.26,1.93,1.915,2.923c1.256,1.978,2.563,4.036,3.916,6.166
							c2.827,4.124,6.229,8.269,10.467,11.861c4.22,3.606,9.331,6.535,15.031,8.504c5.684,1.943,11.983,2.656,18.311,1.913
							c6.336-0.724,12.343-2.777,17.755-5.505c5.422-2.733,10.278-6.126,14.576-9.736c4.308-3.611,8.034-7.482,11.263-11.317
							c0.784-0.97,1.591-1.919,2.414-2.845c0.811-0.928,1.607-1.837,2.386-2.729c1.571-1.772,3.013-3.53,4.598-5.012
							c1.537-1.525,3-2.977,4.385-4.35c0.346-0.343,0.688-0.68,1.023-1.013c0.353-0.315,0.699-0.626,1.041-0.932
							c0.686-0.608,1.351-1.198,1.993-1.768c2.571-2.275,4.762-4.255,6.66-5.748C461.849,526.463,463.918,524.779,463.918,524.779z"
							/>
					</g>
				</g>
			</g>
			<g>
				<g>
					<g>
						<path d="M320.258,532.877c0,0,0.415,0.208,1.207,0.604c0.802,0.368,1.912,1.065,3.513,1.569
							c1.546,0.636,3.528,1.152,5.848,1.573c2.336,0.33,5.024,0.557,7.986,0.312c5.948-0.275,12.747-2.492,20.627-3.965
							c3.935-0.727,8.211-1.143,12.614-0.77c4.384,0.32,8.814,1.255,13.29,2.018c1.121,0.2,2.233,0.37,3.337,0.504
							c1.104,0.173,2.201,0.246,3.29,0.33c2.175,0.154,4.309,0.086,6.483,0.009c4.304-0.152,8.443-0.384,12.371-0.751
							c3.923-0.391,7.623-0.953,11.043-1.677c3.366-0.793,6.599-1.744,9.571-2.255c5.969-1.004,10.852-1.111,14.206-1.207
							c3.358-0.074,5.215-0.068,5.215-0.068s-1.852,0.133-5.2,0.371c-3.339,0.276-8.197,0.63-14.033,1.858
							c-2.927,0.628-5.975,1.653-9.451,2.593c-3.46,0.851-7.208,1.528-11.174,2.015c-3.966,0.463-8.145,0.772-12.469,0.98
							c-2.138,0.101-4.407,0.197-6.682,0.05c-1.136-0.079-2.282-0.152-3.414-0.325c-1.143-0.135-2.28-0.307-3.414-0.51
							c-4.548-0.777-8.886-1.721-13.123-2.081c-4.214-0.408-8.31-0.089-12.187,0.533c-3.877,0.614-7.561,1.456-11.03,2.117
							c-3.49,0.652-6.782,1.199-9.827,1.202c-3.035,0.128-5.781-0.227-8.141-0.677c-2.345-0.542-4.323-1.17-5.85-1.896
							c-1.582-0.596-2.661-1.362-3.44-1.778C320.659,533.109,320.258,532.877,320.258,532.877z"/>
					</g>
				</g>
			</g>
			<path d="M451.48,531.438c-0.436-2.289-5.233-1.426-6.66-0.833l-0.998-2.163c-2.446,0.073-5.24,0.252-7.484,1.004
				c-1.844,0.618-4.147,2.253-6.112,2.325c4.273,0,7.939,0.503,11.753,1.701c-0.312,0.163-0.965,0.282-1.281,0.495
				c-3.333,2.232-6.412,5.519-9.482,7.997c-0.765,0.616-1.366,1.412-2.16,2c-1.324,0.984-1.276,0.743-2.245-0.342
				c-0.535-0.597-1.29-2.392-1.827-2.711c-1.968-1.165-1.175,1.107-0.758,1.798c1.679,2.777,0.855,3.994-1.908,5.167
				c-1.985,0.841-3.826,1.75-5.497,3.157c-2.121,1.79-3.275,0.303-5.32-0.92c-1.565-0.935-3.69-2.66-5.435-3.003
				c1.643,3.516,3.965,6.433,6.429,9.496c4.245,5.28-2.85,5.452-6.783,5.452c-2.755,0-5.467-0.171-8.153-0.166
				c-1.586,0.001-2.589,0.404-3.125-1.036c-0.039-0.105-0.071-0.216-0.099-0.329c-0.474-0.316-0.843-0.772-1.131-1.27
				c-0.932-1.612-1.236-3.505-1.77-5.268c-0.451-1.494-0.828-3.108-1.637-4.46c-0.069-0.114-0.143-0.229-0.217-0.341
				c0.274,1.449,0.346,2.945,0.317,4.402c-0.03,1.556-0.177,3.105-0.383,4.647c0.677,2.183,0.993,4.196,0.862,6.799
				c-2.887-0.903-5.356-2.051-8.292-2.483c-2.903-0.427-10.505-0.09-13.418-0.555c0.304-1.502,1.049-2.884,1.241-4.41
				c0.219-1.747,0.479-3.182,0.426-4.924c-0.069-2.288,0.181-5.022-0.733-7.24c0.151,1.55-0.241,3.314-1.374,4.443
				c-1.067,1.067-2.979,0.807-2.979,2.68c-0.278,0.086-0.835,0.081-1.111-0.005c-0.11-0.46-0.447-0.812-0.557-1.272
				c-3.201-0.209-4.061-1.059-5.63-3.69c-1.101-1.848-3.112-3.511-2.526-5.805c-1.957,1.912-0.022,5.118-1.136,7.468
				c-1.056,2.231-4.244-0.038-5.782-1.035c-6.83-4.423-13.949-11.636-22.258-12.669c5.068,3.258,10.454,6.143,15.102,10.17
				c3.17,2.745,6.477,5.41,10.317,6.823c2.132,0.783,4.28,1.291,6.454,1.866c2.111,0.559,4.318,1.773,6.46,2.026
				c0.194,2.533-1.064,5.068-0.948,7.772c1.805,0.401,3.658,0.974,5.476,1.523c4.561,1.376,9.173,2.664,14.175,2.959
				c2.275,0.133,5.928,0.568,7.914-0.505c1.344-0.726,1.035-1.529,1.035-3.12c0-0.653,0.086-1.421,0.048-2.138
				c0.244,0.379,0.559,0.739,0.918,1.18c1.842,2.271,3.527,2.104,6.523,1.957c2.571-0.126,5.026-0.647,7.359-1.295
				c2.4-0.665,4.565-1.12,7.118-1.368c1.589-0.154,2.282,0.011,2.664-1.497c0.338-1.346-0.438-2.809-0.38-3.958
				c0.159-3.178,6.438-6.775,8.833-8.565c3.364-2.514,6.575-5.018,9.727-7.905c3.267-2.995,7.521-4.871,11.6-6.369
				C448.144,534.543,451.91,533.692,451.48,531.438z"/>
			<path d="M354.98,544.971c0-1.568,0.004-2.504,0.748-3.762c0.631,1.491,0.932,2.71,1.354,4.21
				c0.353,1.253,1.508,2.419,2.309,3.462c1.197,1.559,2.261,1.525,4.242,1.525c1.51,0,3.73,0.435,4.798-0.748
				c0.646-0.715,1.033-2.182,1.082-3.102c0.317,1.635,0.33,3.465,0.333,5.181c0.002,2.035-1.111,2.729-3.218,2.552
				c-2.598-0.222-6.036-1.44-8.095-3.245c-1.397-1.225-3.031-3.396-3.109-5.297"/>
		</g>
		<path opacity="0.3" enable-background="new    " d="M347.667,525.5c-4.503,1.479-8.43,3.381-13.13,4.203
			c-5.058,0.886-10.397,2.141-15.705,1.63c-1.028-0.1-2.875-0.89-3.729-1.433c-0.934-0.595-1.364-1.703-2.265-2.342
			c-0.985-0.698-2.244-0.929-3.354-1.361c3.884,2.306,3.356,6.407,0.778,9.579c6.807-0.665,12.817,0.021,18.144,4.702
			c5.313,4.669,8.414,11.15,11.826,17.206c6.994,12.411,16.664,21.887,30.96,24.896c8.282,1.742,16.405,0.94,24.643-0.578
			c-10.799-0.462-21.131-1.967-30.494-7.74c-4.14-2.552-7.949-5.723-10.932-9.582c-2.81-3.636-4.476-7.815-6.635-11.823
			c-2.411-4.478-5.93-7.523-10.011-10.451c7.292,1.311,12.958,0.253,19.922-2.011c7.033-2.285,13.416-2.349,20.501-0.243
			c6.564,1.95,12.895,4.086,19.762,4.73c7.273,0.683,14.689,0.156,21.799-1.521c8.109-1.913,14.955-5.741,21.665-10.57
			c-4.271-6.044-12.755-6.915-19.331-4.548c-4.627,1.666-8.907,3.62-13.868,4.086c-4.714,0.443-9.619,0.529-14.333,0.075
			c-9.566-0.923-18.639-4.442-28.379-3.518c-6.967,0.661-13.727,1.484-20.612,2.679c-3.708,0.643-7.474,0.738-11.225,0.893
			c-2.936,0.122-7.3-0.32-9.998,1.043c1.937-0.011,15.856-4.39,17.538-5.125c1.657-0.726,3.367-1.302,4.795-2.375"/>
		<g opacity="0.2">
			<g>
				<g>
					<path fill="#FFFFFF" d="M449.667,535c0,0-0.802,0.857-2.249,2.408c-1.438,1.557-3.635,3.672-6.05,6.571
						c-1.244,1.41-2.607,2.955-4.069,4.614c-1.476,1.678-3.069,3.45-4.764,5.297c-3.41,3.68-7.306,7.651-11.857,11.377
						c-4.544,3.723-9.37,6.783-14.14,8.785c-4.763,2.033-9.406,2.917-13.268,3.15c-1.946,0.012-3.688,0.102-5.21-0.151
						c-1.52-0.178-2.821-0.283-3.855-0.593c-2.063-0.511-3.205-0.793-3.205-0.793s1.168,0.067,3.28,0.19
						c1.042,0.128,2.333,0.018,3.809-0.033c1.479,0.025,3.141-0.308,4.962-0.55c3.619-0.697,7.805-1.975,12.101-4.19
						c4.307-2.189,8.702-5.247,13.07-8.825c4.372-3.577,8.352-7.284,11.988-10.677c1.82-1.698,3.55-3.312,5.17-4.823
						c1.632-1.504,3.207-2.902,4.625-4.162c2.789-2.586,5.327-4.354,7.011-5.643C448.723,535.695,449.667,535,449.667,535z"/>
				</g>
			</g>
		</g>
		<g opacity="0.2">
			<g>
				<g>
					<path fill="#FFFFFF" d="M375,523.332c0,0-0.76,0.458-1.904,0.902c-1.155,0.388-2.65,0.996-4.311,1.07
						c-1.628,0.254-3.208-0.072-4.397-0.184c-1.199-0.182-2.054-0.455-2.054-0.455s0.53-0.645,1.571-1.426
						c1.022-0.85,2.639-1.524,4.507-1.801c1.874-0.096,3.578,0.268,4.741,0.854C374.327,522.822,375,523.332,375,523.332z"/>
				</g>
			</g>
		</g>
		<g opacity="0.2">
			<g>
				<g>
					<path fill="#FFFFFF" d="M408,523.666c0,0-0.552,0.5-1.402,1.009c-0.862,0.479-1.976,1.093-3.242,1.203
						c-1.234,0.217-2.459-0.117-3.391-0.317c-0.941-0.246-1.631-0.56-1.631-0.56s0.367-0.604,1.136-1.317
						c0.758-0.759,1.969-1.417,3.399-1.657c1.428-0.132,2.751,0.217,3.665,0.709C407.456,523.195,408,523.666,408,523.666z"/>
				</g>
			</g>
		</g>
		<g>
			<g>
				<g>
					<path d="M370.167,537.166c0,0,0.001,0.261,0.004,0.717c0.016,0.456-0.023,1.104,0.04,1.883
						c0.074,1.558,0.295,3.622,0.513,5.706c0.193,2.089,0.393,4.204,0.316,5.841c0.014,0.815-0.071,1.503-0.126,1.992
						c-0.054,0.489-0.086,0.777-0.087,0.797c-0.025,0.151-0.47,0.18-0.994,0.064c-0.523-0.116-0.93-0.319-0.909-0.454
						c0.003-0.017,0.06-0.273,0.156-0.709c0.1-0.436,0.253-1.051,0.326-1.817c0.251-1.511,0.298-3.59,0.348-5.671
						c0.024-2.087,0.045-4.185,0.154-5.752c0.028-0.783,0.143-1.433,0.18-1.886C370.138,537.425,370.167,537.166,370.167,537.166z"
						/>
				</g>
			</g>
		</g>
		<g>
			<g>
				<g>
					<path d="M389.833,542c0,0,0.111,0.894,0.278,2.236c0.115,1.338,0.516,3.103,0.85,4.871c0.174,0.893,0.348,1.786,0.511,2.626
						c0.081,0.421,0.158,0.828,0.232,1.216c0.049,0.396,0.095,0.77,0.137,1.116c0.168,1.394,0.28,2.335,0.284,2.367
						c0.007,0.13-0.423,0.234-0.958,0.233c-0.536-0.001-0.977-0.1-0.984-0.221c0.001-0.031,0.01-0.932,0.023-2.265
						c0.004-0.336,0.008-0.698,0.013-1.082c-0.022-0.387-0.044-0.794-0.067-1.216c-0.049-0.845-0.102-1.745-0.154-2.643
						c-0.096-1.817-0.256-3.617-0.19-4.984C389.823,542.901,389.833,542,389.833,542z"/>
				</g>
			</g>
		</g>
		<g>
			<g>
				<g>
					<path d="M404.667,540.833c0,0,0.064,0.186,0.175,0.514c0.12,0.324,0.252,0.798,0.479,1.341
						c0.441,1.091,1.109,2.509,1.988,3.776c0.898,1.253,1.911,2.396,2.805,3.121c0.412,0.394,0.815,0.663,1.083,0.87
						c0.27,0.203,0.429,0.323,0.438,0.331c0.078,0.068-0.133,0.463-0.469,0.88c-0.337,0.418-0.681,0.693-0.768,0.617
						c-0.011-0.011-0.165-0.166-0.428-0.431c-0.257-0.269-0.643-0.623-1.028-1.122c-0.84-0.928-1.744-2.331-2.474-3.78
						c-0.714-1.468-1.166-3.014-1.438-4.173c-0.143-0.578-0.201-1.072-0.271-1.41C404.701,541.027,404.667,540.833,404.667,540.833z
						"/>
				</g>
			</g>
		</g>
		<g>
			<g>
				<g>
					<path d="M355.167,536.833c0,0,0.12,0.479,0.299,1.2c0.213,0.727,0.343,1.708,0.515,2.696c0.183,0.965,0.287,1.958,0.498,2.639
						c0.173,0.688,0.29,1.154,0.294,1.17c0.008,0.064-0.414,0.195-0.941,0.295c-0.526,0.1-0.961,0.121-0.97,0.049
						c0-0.017-0.005-0.551-0.013-1.341c-0.039-0.792,0.103-1.781,0.161-2.779c0.071-0.978,0.184-1.966,0.154-2.694
						C355.166,537.326,355.167,536.833,355.167,536.833z"/>
				</g>
			</g>
		</g>
		<g>
			<g>
				<g>
					<path d="M422.667,535.833c-0.001,0,0.072,0.482,0.247,1.166c0.202,0.683,0.556,1.546,1.056,2.332
						c0.499,0.79,1.061,1.529,1.521,2.093c0.455,0.568,0.763,0.951,0.773,0.965c0.035,0.057-0.308,0.331-0.764,0.611
						c-0.457,0.281-0.855,0.463-0.891,0.406c-0.007-0.015-0.213-0.465-0.519-1.131c-0.31-0.665-0.703-1.596-1.007-2.546
						c-0.311-0.956-0.445-1.954-0.47-2.686c-0.019-0.365,0.028-0.673,0.032-0.882C422.659,535.953,422.667,535.833,422.667,535.833z
						"/>
				</g>
			</g>
		</g>
	</g>
</g>
</svg>
