<?xml version="1.0" encoding="utf-8"?>
<!-- Generator: Adobe Illustrator 25.0.1, SVG Export Plug-In . SVG Version: 6.00 Build 0)  -->
<svg version="1.1" id="Capa_1" xmlns="http://www.w3.org/2000/svg" xmlns:xlink="http://www.w3.org/1999/xlink" x="0px" y="0px"
	 viewBox="0 0 800 800" enable-background="new 0 0 800 800" xml:space="preserve">
<g id="bocas">
	<g id="_x37__2_">
		<g>
			<g>
				<path opacity="0.3" fill="#EA7DAE" enable-background="new    " d="M435.508,560.196c4.232,0,7.848,1.218,11.841,1.953
					c-4.802,2.442-10.115,3.332-14.958,6.362c-4.83,3.024-8.602,7.326-12.392,11.74c-3.529,4.112-6.669,9.017-11.109,12.396
					c-5.396,4.107-11.581,4.176-18.267,4.176c-7.31,0-11.861-0.998-17.725-5.14c-4.586-3.237-9.38-6.59-12.98-10.957
					c-5.732-6.953-12.183-18.904-22.15-19.886c5.702-1.984,13.428-1.452,18.404,2.049c4.331,3.048,8.331,6.249,12.639,9.426
					c4.075,3.005,8.676,6.477,13.391,8.159c5.241,1.869,13.393,3.662,18.958,1.475c4.992-1.962,9.245-5.261,13.23-8.787
					c3.84-3.397,7.115-7.467,11.645-9.738c2.431-1.22,5.675-2.659,8.417-2.594"/>
				<path fill="#EDEDE2" d="M353.571,556.809c2.92-5.345,6.408-9.249,12.444-10.634c6.112-1.4,12.358-2.802,18.69-3.751
					c12.211-1.833,24.419-3.299,34.241,8.291c4.393,4.388,11.219,9.08,17.334,9.894c-5.232,1.453-10.812,2.813-15.547,5.986
					c-4.265,2.858-8.1,7.138-11.743,10.911c-9.629,9.969-21.79,5.438-32.116,0.744c-4.544-2.065-8.755-6.331-12.506-9.585
					c-4.188-3.636-7.474-6.389-12.667-8.506c-0.12-1.362-0.125-2.45,1.023-3.351"/>
				<path opacity="0.3" fill="#B23665" enable-background="new    " d="M337.48,560.196c1.769-5.087,6.027-7.78,9.792-11.805
					c1.965-2.101,4.019-4.18,5.711-6.356c1.764-2.269,3.159-4.845,5.087-6.993c1.896-2.113,4.263-3.843,6.674-5.18
					c3.188-1.768,5.649-1.845,9.364-1.849c3.401-0.004,6.327,0.885,9.74,1.059c3.482,0.179,6.208-1.379,9.263-2.805
					c2.718-1.27,5.714-2.889,8.897-2.228c2.614,0.54,5.533,2.615,7.829,4.027c5.177,3.185,6.779,7.518,9.216,12.603
					c5.029,10.497,15.86,14.685,24.872,20.637c0.195,0.129,1.047,0.402,0.93,0.37c-1.695,0.136-2.758-0.834-4.255-1.067
					c-1.686-0.265-3.24-0.02-4.834-0.46c-2.627-0.727-5.55-1.692-8.093-2.917c-5.051-2.434-8.562-5.643-12.86-9.37
					c-1.937-1.679-3.725-3.824-5.971-5.087c-2.822-1.585-6.602-1.266-9.751-1.423c-3.377-0.167-7.01-0.155-10.163,0.471
					c-2.983,0.592-5.875,1.632-8.94,1.812c-6.454,0.378-11.496,2.239-15.992,7.039c-4.17,4.453-8.337,7.377-14.031,9.092
					c-1.827,0.551-3.617,0.236-5.494,0.215c-1.611-0.021-4.278,1.189-5.511,0.428"/>
				<g>
					<g>
						<g>
							<path d="M447.296,562.34c0,0-0.496-0.182-1.441-0.527c-0.939-0.362-2.36-0.815-4.103-1.613
								c-3.509-1.498-8.611-3.907-13.964-8.343c-0.66-0.562-1.338-1.138-2.029-1.725c-0.643-0.645-1.299-1.303-1.969-1.975
								c-0.329-0.341-0.684-0.668-1.003-1.031c-0.311-0.372-0.624-0.748-0.94-1.127c-0.623-0.769-1.302-1.512-1.909-2.349
								c-2.448-3.362-4.344-7.241-6.774-10.934c-1.218-1.83-2.568-3.617-4.188-5.099c-1.612-1.482-3.52-2.605-5.653-3.043
								c-0.267-0.051-0.526-0.141-0.8-0.165l-0.827-0.052l-0.829-0.06l-0.792,0.047c-1.051,0.109-2.078,0.444-3.101,0.964
								c-2.058,1.016-4.059,2.745-6.687,3.949c-0.408,0.197-0.852,0.346-1.232,0.495c-0.398,0.118-0.748,0.222-1.001,0.296
								c0.06-0.018,0.083-0.024,0.107-0.031c-1.403,0.472-2.884,0.621-4.277,0.555c-1.399-0.062-2.72-0.316-3.972-0.61
								c-2.489-0.596-4.806-1.36-6.941-1.577c-2.123-0.122-4.275,0.293-6.161,1.209c-1.902,0.906-3.577,2.255-5.076,3.739
								c-3.003,2.992-5.364,6.452-7.86,9.504c-0.618,0.769-1.258,1.51-1.903,2.228c-0.646,0.703-1.298,1.357-1.927,2.017
								c-1.242,1.326-2.538,2.515-3.725,3.682c-1.279,1.085-2.412,2.2-3.649,3.076c-0.601,0.454-1.184,0.895-1.75,1.323
								c-0.599,0.38-1.18,0.748-1.741,1.104c-1.095,0.751-2.224,1.262-3.226,1.786c-0.989,0.553-1.969,0.892-2.825,1.244
								c-1.7,0.741-3.099,1.083-4.021,1.381c-0.927,0.281-1.413,0.429-1.413,0.429s0.473-0.186,1.374-0.542
								c0.894-0.37,2.253-0.815,3.882-1.669c0.82-0.409,1.759-0.809,2.695-1.418c0.949-0.583,2.017-1.15,3.041-1.954
								c0.524-0.38,1.067-0.773,1.627-1.18c0.526-0.45,1.069-0.914,1.629-1.393c1.148-0.915,2.203-2.08,3.389-3.199
								c1.108-1.216,2.312-2.437,3.478-3.811c0.586-0.679,1.207-1.363,1.8-2.073c0.581-0.709,1.161-1.445,1.733-2.224
								c2.312-3.08,4.537-6.658,7.67-9.996c1.569-1.651,3.404-3.244,5.646-4.386c2.238-1.151,4.84-1.742,7.519-1.623
								c2.663,0.232,5.029,1.016,7.377,1.537c2.33,0.534,4.634,0.788,6.686,0.081l0.108-0.031c0.193-0.058,0.46-0.138,0.765-0.229
								c0.3-0.124,0.641-0.231,0.976-0.394c2.139-0.951,4.112-2.632,6.609-3.877c1.242-0.619,2.652-1.079,4.094-1.209l1.077-0.048
								l1.029,0.079l1.022,0.087c0.34,0.038,0.671,0.146,1.005,0.217c2.688,0.595,5.045,2.081,6.856,3.834
								c1.83,1.76,3.229,3.746,4.453,5.708c2.414,3.935,4.17,7.874,6.33,11.108c0.538,0.812,1.165,1.559,1.727,2.322
								c0.287,0.379,0.571,0.754,0.854,1.126c0.29,0.364,0.616,0.693,0.918,1.037c0.614,0.68,1.216,1.347,1.805,1.999
								c0.64,0.604,1.266,1.194,1.877,1.771c4.957,4.579,9.827,7.296,13.201,9.029c1.674,0.916,3.049,1.473,3.956,1.908
								C446.816,562.118,447.296,562.34,447.296,562.34z"/>
						</g>
					</g>
				</g>
				<g>
					<g>
						<g>
							<path d="M328.926,559.874c0,0,0.514,0.008,1.494,0.021c0.491-0.002,1.097,0.021,1.813,0.083
								c0.358,0.025,0.745,0.053,1.158,0.082c0.411,0.053,0.849,0.109,1.312,0.17c1.848,0.265,4.126,0.717,6.614,1.754
								c2.481,1.029,5.152,2.649,7.699,4.88c2.563,2.208,5.048,4.968,7.609,7.898c2.63,2.892,5.326,6.099,8.294,9.271
								c2.965,3.144,6.244,6.399,10.047,8.819c3.883,2.218,8.625,3.441,13.482,3.801c4.88,0.37,9.722-0.159,14.179-1.339
								c1.112-0.286,2.214-0.656,3.278-1.031c0.511-0.204,1.03-0.389,1.53-0.602c0.482-0.243,0.963-0.485,1.44-0.726
								c1.871-1.047,3.51-2.421,4.954-3.949c2.89-3.072,5.055-6.651,7.329-9.859c0.561-0.81,1.141-1.593,1.709-2.36
								c0.589-0.749,1.166-1.483,1.732-2.204c1.136-1.457,2.399-2.764,3.699-3.862c2.582-2.246,5.323-3.703,7.759-4.78
								c2.452-1.067,4.647-1.733,6.441-2.233c1.798-0.496,3.205-0.823,4.16-1.042c0.956-0.213,1.458-0.324,1.458-0.324
								s-0.49,0.153-1.425,0.445c-0.934,0.295-2.31,0.731-4.055,1.354c-1.743,0.626-3.864,1.438-6.186,2.633
								c-2.308,1.204-4.853,2.767-7.175,5.027c-1.179,1.112-2.285,2.381-3.309,3.837c-0.52,0.732-1.051,1.478-1.592,2.239
								c-0.518,0.772-1.046,1.557-1.564,2.378c-2.105,3.248-4.137,6.962-7.171,10.412c-1.518,1.711-3.321,3.323-5.441,4.578
								c-0.535,0.301-1.088,0.58-1.637,0.871c-0.561,0.257-1.138,0.48-1.713,0.72c-1.141,0.429-2.279,0.834-3.478,1.166
								c-4.756,1.343-9.899,1.952-15.138,1.558c-5.232-0.401-10.319-1.717-14.722-4.327c-4.238-2.802-7.458-6.23-10.415-9.548
								c-2.935-3.339-5.49-6.63-7.991-9.632c-2.449-3.062-4.715-5.842-7.072-8.111c-2.335-2.281-4.774-3.969-7.097-5.116
								c-2.326-1.152-4.515-1.752-6.314-2.146c-0.453-0.094-0.88-0.182-1.281-0.265c-0.406-0.061-0.785-0.116-1.138-0.169
								c-0.705-0.116-1.305-0.188-1.792-0.225C329.438,559.925,328.926,559.874,328.926,559.874z"/>
						</g>
					</g>
				</g>
				<g>
					<g>
						<g>
							<path d="M447.296,562.34c0,0-0.41-0.047-1.192-0.137c-0.78-0.101-1.94-0.196-3.417-0.439
								c-2.955-0.431-7.268-1.142-12.346-3.005c-2.492-1.009-5.259-2.186-7.893-3.967c-1.329-0.845-2.762-1.744-4.041-2.911
								c-1.288-1.142-2.488-2.415-3.69-3.715c-2.398-2.565-4.84-5.406-8.038-7.062c-0.404-0.183-0.812-0.357-1.226-0.527
								c-0.434-0.119-0.857-0.267-1.302-0.37c-0.895-0.213-1.794-0.349-2.712-0.351c-1.841-0.021-3.724,0.393-5.617,0.989
								c-3.765,1.196-7.57,2.982-11.706,3.084c-3.893,0.019-7.523,0.034-10.984,0.461c-3.434,0.432-6.682,1.133-9.466,2.427
								c-2.772,1.312-5.275,2.769-7.265,4.506c-2.029,1.688-3.766,3.402-5.466,4.712c-1.693,1.324-3.339,2.217-4.74,2.772
								c-1.419,0.515-2.559,0.781-3.338,0.896c-0.78,0.112-1.189,0.172-1.189,0.172s0.404-0.088,1.172-0.254
								c0.766-0.165,1.878-0.505,3.236-1.093c1.341-0.63,2.886-1.587,4.47-2.968c1.596-1.372,3.221-3.146,5.219-4.971
								c1.964-1.876,4.499-3.509,7.345-4.978c2.882-1.466,6.262-2.309,9.806-2.846c3.544-0.533,7.349-0.624,11.139-0.694
								c3.637-0.122,7.225-1.8,11.185-3.079c1.988-0.625,4.09-1.096,6.229-1.057c1.068,0.011,2.127,0.179,3.131,0.431
								c0.506,0.123,1.003,0.299,1.5,0.448c0.482,0.2,0.96,0.413,1.426,0.635c1.829,0.962,3.347,2.256,4.697,3.581
								c1.352,1.332,2.548,2.716,3.711,4.039s2.295,2.594,3.479,3.709c1.163,1.132,2.467,2.012,3.756,2.899
								c2.517,1.839,5.129,3.073,7.531,4.179c4.884,2.05,9.126,3.002,12.039,3.608c1.456,0.332,2.604,0.503,3.376,0.656
								C446.89,562.265,447.296,562.34,447.296,562.34z"/>
						</g>
					</g>
				</g>
				<g>
					<g>
						<g>
							<path d="M331.392,559.874c0,0,1.816,0.107,5.1,0.108c1.643,0.007,3.652-0.022,5.996,0.042
								c2.338,0.077,5.032,0.251,7.944,0.947c2.89,0.721,6.006,2.002,8.895,3.998c2.922,1.884,5.898,4.11,9.015,6.421
								c3.118,2.305,6.372,4.736,9.978,6.781c0.883,0.55,1.84,0.956,2.773,1.435c0.938,0.469,1.939,0.792,2.914,1.203
								c1.009,0.301,2.023,0.628,3.061,0.866c0.525,0.094,1.051,0.189,1.579,0.282l0.793,0.144c0.267,0.031,0.537,0.039,0.806,0.059
								c4.305,0.405,8.571-0.364,12.507-1.569c3.883-1.177,6.979-3.759,9.695-6.455c2.723-2.705,5.261-5.494,8.123-7.586
								c2.833-2.093,5.784-3.617,8.647-4.514c2.859-0.92,5.591-1.148,7.942-1.123c2.36,0.037,4.365,0.35,5.985,0.645
								c1.619,0.312,2.858,0.624,3.695,0.847c0.836,0.227,1.274,0.345,1.274,0.345s-0.445-0.091-1.293-0.264
								c-0.848-0.17-2.102-0.408-3.725-0.628c-1.623-0.205-3.622-0.407-5.933-0.331c-2.302,0.088-4.93,0.432-7.638,1.429
								c-2.71,0.973-5.491,2.545-8.149,4.649c-2.667,2.083-5.052,4.853-7.767,7.684c-1.366,1.407-2.84,2.824-4.54,4.074
								c-1.69,1.25-3.639,2.315-5.739,2.992c-4.109,1.318-8.616,2.172-13.269,1.737c-0.289-0.023-0.58-0.031-0.867-0.065
								l-0.854-0.153c-0.568-0.104-1.135-0.207-1.699-0.31c-1.115-0.26-2.2-0.613-3.276-0.945c-1.034-0.439-2.1-0.799-3.082-1.3
								c-0.975-0.51-1.981-0.955-2.889-1.535c-3.727-2.177-6.977-4.709-10.047-7.091c-6.148-4.723-11.506-9.352-17.167-10.784
								c-2.781-0.788-5.415-1.084-7.729-1.272c-2.318-0.178-4.33-0.255-5.971-0.353
								C333.197,560.102,331.392,559.874,331.392,559.874z"/>
						</g>
					</g>
				</g>
				<path d="M356.03,551.261c-1.331,0.55-2.317,3.913-2.467,5.241c-0.239,2.126,1.53,3.454,3.045,4.662
					c1.486,1.184,3.218,1.999,4.705,3.156c0.817,0.637,4.001,3.377,3.972,4.357c0.112-0.012,0.158,0.029,0.136,0.124
					c-1.728-0.434-3.409-2.353-5.112-3.167c-1.888-0.903-3.72-1.708-5.628-2.543c-1.912-0.839-3.816-1.444-5.706-2.154
					c-2.213-0.831-4.467-0.296-6.783-0.925c-0.417-0.114-0.854-0.385-1.241-0.609c-0.205-3.483,3.441-6.567,5.384-9.314
					c-4.295,4.293-8.781,7.136-14.292,9.184c1.143,0.626,2.607,0.548,3.949,0.62c1.705,0.091,2.085,0.316,3.434,1.189
					c1.649,1.069,4.021,3.259,6.072,3.096c-0.575-0.492-3.892-3.298-1.206-3.075c0.017-0.198,0.009-0.373,0-0.57
					c-0.669-0.013-1.35,0.039-1.954-0.204c-0.31-1.827,5.724-2.846,7.179-3.711c2.242-1.334,3.576-4.533,5.897-5.511"/>
				<path d="M422.308,558.051c-0.306-1.205-0.107-2.554-0.45-3.716c-0.286-0.971-1.053-1.851-1.397-2.766l-0.153-0.155
					c0,2.275,0.51,4.87-1.431,6.277c-1.91,1.388-4.335,1.122-6.738,1.122c-1.453,0-2.188,0.239-2.81-1.046
					c-0.426-0.878-0.38-2.421-0.429-3.425c-0.098-2.02-0.908-5.352-0.038-7.129c0.523-1.071,1.749-1.527,2.519-2.273
					c-1.867-3.118-6.5-5.574-9.882-5.565c-4.904,0.014-9.323,2.225-13.684,3.595c-1.386,0.437-3.198,0.134-4.441,0.78
					c4.725,0.816,5.533,5.812,6.57,9.663c0.415,1.54,1.485,5.238,0.15,6.325c-1.631,1.328-5.057,0.448-7.093,0.774
					c-1.565,0.252-4.754,2.257-5.392,0.458c-0.371-1.047-0.173-2.46-0.458-3.552c-0.257-0.981-0.652-1.973-0.896-2.955
					c-0.347-1.411-2.494-4.33-1.849-5.636c0.762-1.545,3.784-2.473,5.207-2.808c0.971-0.229,0.939-1.185,1.761-1.771
					c-1.413-1.313-4.284-0.293-6.232-0.084c-2.374,0.254-3.785,0.341-6.268,0.334c-4.151-0.011-8.299,3.571-11.574,6.027
					c-1.086,0.815-2.653,1.811-3.429,2.891c-1.018,1.416-0.31,3.594-0.308,5.417c1.591-3.416,3.79-6.806,7.712-8.342
					c1.938-0.76,4.456-1.142,6.623-1.245c1.317-0.06,2.329-0.232,3.082,0.779c0.651,0.874,0.463,2.307,0.463,3.391
					c0,4.164,0.14,7.481,1.506,11.133c0.539,1.44,1.263,2.866,1.848,4.32c0.548,1.367,0.79,3.698,1.579,4.764
					c1.407-1.771-0.091-4.551,1.734-6.151c1.378-1.209,3.847-2.046,5.664-2.195c3.089-0.256,4.042,0.428,4.633,3.229
					c0.457,2.163,0.924,4.065,3.392,4.623c4.78,1.082,8.737-0.361,12.939-2.149c1.702-0.724,3.764-1.469,4.283-3.426
					c0.287-1.088-0.155-2.456,0.458-3.395c0.552-0.846,1.793-1.055,2.657-1.194c2.86-0.467,6.917,2.179,9.812,0.505
					c-0.694-0.333-1.561-0.51-2.39-0.682c0.009-0.043,0.013-0.375,0.004-0.413c0.756-0.304,2.19-0.67,2.747-1.261
					C423.199,560.182,422.573,559.106,422.308,558.051z M404.618,551.758c-0.743,2.376,0.11,4.673,0.085,7.032
					c-3.306,0.167-7.703,0.08-9.703,0.177v0.31c0-2.276-1.255-4.419-1.374-6.783c-0.08-1.613-1.175-5.678-0.108-6.898
					c1.087-1.241,5.035-1.02,6.553-0.693c1.372,0.296,5.044,2.326,5.901,0.358C406.161,547.785,405.314,549.534,404.618,551.758z"/>
				<path d="M375.297,560.817c-3.855,0-10.712,1.296-12.832-2.736c-1.284-2.443,0.711-3.371,2.157-5.01
					c0.667-0.755,1.25-1.667,1.152-2.701c-0.113-1.183-0.883-1.399-2.157-1.61c-2.69-0.443-3.27,0.657-5.153,2.304
					c-1.395,1.222-3.294,2.316-4.249,3.931c-0.368,0.621-1.257,2.486-0.967,3.211c0.279,0.697,1.84,1.096,2.473,1.413
					c2.056,1.028,3.755,1.566,6.012,1.815c2.115,0.232,4.336,0.402,6.475,0.616c1.816,0.182,4.585,1.401,6.295,1.057
					c-0.12-0.67-0.713-1.148-0.902-1.827"/>
			</g>
			<path d="M335,558.25c-2.455,0.155-4.932,3.238-7.387,0.8c1.043,0.894,1.093,2.056,0.281,3.057
				c3.015-2.026,6.473-1.933,9.853-0.727c0.535,0.19,2.159,0.749,2.756,0.374c0.926-0.582-0.025-1.405-0.722-1.783
				c-1.315-0.714-3.385-1.382-4.906-1.595"/>
			<path opacity="0.3" enable-background="new    " d="M367.375,527.25c-1.775-0.191-2.983,1.148-4.344,2.031
				c-1.348,0.874-2.705,1.534-3.934,2.566c-2.463,2.067-4.699,4.358-6.691,6.936c-2.105,2.723-3.644,5.664-5.937,8.31
				c-2.079,2.399-4.383,4.609-6.878,6.497c-3.897,2.948-9.218,6.847-14.046,3.402c3.045-0.377,0.379,7.497-0.15,8.612
				c2.689-2.393,6.891-3.05,10.578-2.328c3.427,0.672,6.019,3.602,8.372,6.004c4.749,4.849,8.013,11.13,11.281,16.969
				c3.625,6.475,8.849,11.138,15.5,14.216c3.535,1.636,7.429,1.965,11.374,2.159c3.806,0.188,8.476,0.9,12.251,0.007
				c3.31-0.784,6.921-2.309,9.993-3.788c3.263-1.569,5.427-3.282,7.976-5.875c3.561-3.62,6.512-8.247,8.537-12.8
				c-0.71,1.254-2.031,2.418-2.854,3.608c-0.938,1.361-1.872,2.684-3.158,3.823c-2.507,2.221-6.564,3.369-9.747,4.028
				c-3.735,0.773-8.342,0.621-12.247,0.621c-4.033,0-8.097,0.182-11.751-0.965c-3.2-1.005-6.301-2.948-9.121-4.754
				c-2.965-1.9-5.823-4.312-8.288-6.875c-4.89-5.082-8.968-10.514-14.441-14.938c-0.999-0.808-1.934-1.679-3.018-2.375
				c-1.124-0.722-2.562-1.215-3.518-2.094c0.621-0.815,1.845-0.418,2.762-0.5c0.92-0.082,1.802-0.302,2.625-0.625
				c1.485-0.584,3.124-1.347,4.341-2.284c2.652-2.044,6.061-3.235,9.156-4.22c3.42-1.088,6.852-2.014,10.281-3.094
				c3.418-1.076,6.772-2.402,10.598-2.402c3.995,0,8.423,0.339,12.375-0.243c1.955-0.288,3.759-0.632,5.875-0.632
				c2.017,0,3.444,0.551,5.253,1.22c2.287,0.845,4.577,1.966,6.845,2.939c1.98,0.851,4.99,2.509,7.14,2.315
				c-2.221-2.171-4.581-4.134-6.763-6.469c-1.104-1.183-2.368-2.837-3.878-3.479c-1.706-0.725-4.241-0.527-6.097-0.527
				c-4.185,0-8.264-0.604-12.5-0.375c-1.954,0.106-3.497,0.894-5.5,1c-2.06,0.109-4.094-0.169-6.001,0.402
				c-3.531,1.059-7.701,1.328-11.374,1.854c-1.941,0.277-3.514,0.158-5.25,0.993c-1.405,0.676-2.723,1.611-4,2.5
				c-2.001,1.393-4.174,2.593-6.091,4.032c-1.85,1.389-4.244,3.392-6.637,3.196c-0.965-2.419,3.243-6.729,4.569-8.639
				c1.963-2.828,3.983-5.627,5.631-8.62c2.334-4.238,6.272-7.735,10.028-10.72"/>
			<g opacity="0.2">
				<g>
					<g>
						<path fill="#FFFFFF" d="M410.667,534.666c0,0-0.151-0.177-0.44-0.512c-0.309-0.315-0.647-0.871-1.298-1.379
							c-0.582-0.57-1.391-1.146-2.377-1.653c-0.528-0.193-1.026-0.508-1.654-0.614c-0.3-0.077-0.608-0.155-0.925-0.236
							c-0.327-0.036-0.663-0.073-1.008-0.111c-0.671-0.121-1.425-0.026-2.169-0.053c-0.381,0.039-0.77,0.078-1.166,0.118
							c-0.195,0.022-0.401,0.03-0.591,0.064l-0.548,0.137c-1.483,0.299-2.911,1.073-4.528,2.143
							c-1.615,1.021-3.526,2.367-6.135,2.883c-2.457,0.441-5.031,0.154-7.354-0.479c-2.314-0.623-4.366-1.413-6.171-1.755
							c-1.728-0.276-3.462-0.048-5.038,0.607c-3.184,1.333-5.707,3.902-7.832,5.919c-2.117,2.083-3.915,3.771-5.264,4.79
							c-0.339,0.252-0.64,0.476-0.9,0.67c-0.275,0.173-0.508,0.32-0.696,0.439c-0.375,0.232-0.572,0.354-0.572,0.354
							s0.161-0.167,0.468-0.485c0.153-0.156,0.341-0.35,0.564-0.579c0.208-0.243,0.447-0.523,0.717-0.839
							c1.076-1.263,2.451-3.205,4.221-5.628c0.907-1.201,1.9-2.529,3.157-3.868c1.26-1.323,2.767-2.7,4.745-3.74
							c1.961-1.047,4.445-1.613,6.97-1.318c2.432,0.348,4.554,1.136,6.625,1.677c2.049,0.558,3.97,0.783,5.755,0.567
							c1.653-0.218,3.334-1.124,5.104-2.054c1.746-0.942,3.781-1.804,5.786-1.934c0.247-0.023,0.493-0.047,0.736-0.07
							c0.236-0.008,0.458,0.012,0.685,0.018c0.447,0.02,0.887,0.039,1.317,0.059c0.868,0.149,1.693,0.183,2.468,0.446
							c0.384,0.11,0.76,0.219,1.125,0.324c0.351,0.157,0.691,0.31,1.023,0.458c0.675,0.253,1.207,0.717,1.737,1.046
							c0.991,0.781,1.71,1.575,2.183,2.296c0.545,0.664,0.759,1.31,0.983,1.69C410.564,534.459,410.667,534.666,410.667,534.666z"/>
					</g>
				</g>
			</g>
			<g opacity="0.2">
				<g>
					<g>
						<path fill="#FFFFFF" d="M417,579.333c0,0-0.046,0.226-0.169,0.626c-0.134,0.385-0.305,1.012-0.676,1.643
							c-0.7,1.318-2.026,2.894-3.763,4.038c-1.735,1.128-3.466,1.699-4.798,2.096c-1.305,0.406-2.262,0.596-2.261,0.597
							c0,0,0.075-0.222,0.247-0.602c0.176-0.372,0.433-0.94,0.84-1.542c0.803-1.216,2.146-2.695,3.833-3.791
							c1.669-1.102,3.327-1.718,4.586-2.225c0.652-0.229,1.137-0.479,1.537-0.616C416.776,579.413,417,579.333,417,579.333z"/>
					</g>
				</g>
			</g>
			<path d="M388.333,564.333c0.504,5.046,1.593,10.226,2,15.232c-0.001-2.675,1.707-8.196,3.333-10.232
				c1.914-2.396,0.82-0.499,3.667-0.333c1.65,2.794,4.505,6.753,4.741,9.974c0.669-2.066,0.568-5.157,1.186-7.381
				c0.667-2.397,1.453-4.798,1.688-7.211c-5.386-0.267-10.873-0.049-16.282-0.049"/>
		</g>
	</g>
</g>
</svg>
