<?xml version="1.0" encoding="utf-8"?>
<!-- Generator: Adobe Illustrator 25.0.1, SVG Export Plug-In . SVG Version: 6.00 Build 0)  -->
<svg version="1.1" id="Capa_1" xmlns="http://www.w3.org/2000/svg" xmlns:xlink="http://www.w3.org/1999/xlink" x="0px" y="0px"
	 viewBox="0 0 800 800" enable-background="new 0 0 800 800" xml:space="preserve">
<g id="bocas">
	<g id="_x32__4_">
		<g>
			<path fill="#EDEDE2" d="M338.875,545.125c2.25-0.625,9.44-0.5,11.125-0.5c2.785,0,4.714-0.5,7.5-0.5
				c5.54,0,12.451,1.735,17.875,0.875c3.054-0.484,4.994-0.529,7.375-2c1.863-1.146,3.043-1.627,4.939-2.711
				c3.834-2.191,7.742-4.028,10.905-7.3c2.951-3.054,4.769-6.847,7.856-9.725c1.778-1.662,4.205-2.528,6.55-2.64
				c2.671-0.127,4.121,1.61,6.067,3.257c3.094,2.615,6.922,5.05,9.608,7.99c2.026,2.214,0.452,3.758-1.551,5.165
				c-1.689,1.186-3.188,2.402-4.665,3.908c-3.862,3.938-8.427,7.025-13.503,9.248c-5.199,2.278-10.688,2.597-16.413,2.867
				c-5.648,0.267-11.258,0.631-17.055,0.646c-4.636,0.013-9.126-2.585-13.501-3.749c-3.606-0.96-7.005-1.816-10.742-2.541
				c-3.487-0.673-7.619-0.264-11.023-1.328"/>
			<path opacity="0.3" fill="#B23665" enable-background="new    " d="M340.225,544.341c1.493-1.579,3.913-2.981,6.025-3.966
				c2.118-0.986,7.051-4.271,9.25-4.875c5.358-1.472,7.738-0.074,13.31-0.844c2.377-0.328,4.945-0.682,7.344-1.139
				c2.396-0.456,5.551-1.598,7.346-3.268c3.507-3.264,6.43-5.655,10.375-8.5c3.778-2.722,5.402-6.938,7.812-10.875
				c2.225-3.64,7.368-6.744,11.907-6.097c3.876,0.552,8.249,4.853,11.364,7.105c1.7,1.23,3.224,3.852,4.291,5.742
				c0.988,1.751,2.168,2.791,3.275,4.548c1.882,2.982,4.516,6.142,7.475,8.28c3.074,2.222,7.296,3.958,10.5,5.922
				c-2.467-0.309-5.47-0.941-8.159-1.077c-2.503-0.127-5.38,0.041-7.698-0.637c-3.905-1.143-7.354-3.719-10.395-6.267
				c-3.174-2.661-5.367-6.271-9.483-7.469c-5.402-1.57-7.938,2.314-10.737,6.104c-5.026,6.803-11.742,11.664-19.652,14.97
				c-9.932,4.148-19.587,2.279-30.125,2.25c-2.361-0.007-5.768-0.146-7.97,0.45c-0.879,0.236-2.047,0.24-3.03,0.05
				c-1.162-0.226-4.625,0.408-6,0.5"/>
			<path opacity="0.3" fill="#EA7DAE" enable-background="new    " d="M328,545.375c1.909,0.111,9.428,2.216,11.182,3.043
				c1.911,0.9,3.594,1.83,5.181,3.228c3.168,2.797,5.748,6.189,8.438,9.446c2.84,3.439,5.824,7.218,8.148,11.022
				c2.511,4.112,4.518,8.026,8.491,11.021c4.416,3.329,8.2,5.253,13.573,6.094c4.555,0.711,11.004,2.167,15.748,0.527
				c3.975-1.375,8.418-3.803,11.949-6.056c3.714-2.369,7.49-5.189,10.116-8.805c2.662-3.666,3.796-8.178,5.306-12.144
				c1.502-3.935,3.111-7.979,4.473-11.988c1.216-3.578,3.175-8.105,6.591-10.426c1.817-1.233,4.097-1.555,6.11-2.169
				c1.053-0.323,2.143-0.613,3.222-0.926c0.924-0.268,2.551-0.315,3.338-0.81c0.079-0.051,0.539-0.236,0.354-0.167
				c-5.275,0.175-10.364-1.242-15.902-0.969c-4.479,0.22-8.683,3.235-11.907,6.258c-4.274,4.006-8.969,7.471-13.708,10.819
				c-5.486,3.873-10.072,4.723-16.664,5.038c-10.228,0.484-18.895-3.886-28.042-7.461c-4.355-1.702-8.931-2.719-13.743-3.189
				c-5.212-0.51-10.131-1.279-15.543-1.292c-0.876-0.003-4.71-0.721-7.21-0.471"/>
			<g>
				<g>
					<g>
						<path d="M450.824,536.508c0,0-0.485-0.211-1.409-0.611c-0.463-0.202-1.035-0.452-1.713-0.748
							c-0.334-0.156-0.713-0.291-1.085-0.498c-0.37-0.211-0.764-0.436-1.181-0.674c-0.82-0.498-1.796-0.966-2.752-1.644
							c-0.946-0.69-2.011-1.403-3.091-2.248c-1.025-0.905-2.19-1.814-3.304-2.898c-1.097-1.098-2.31-2.223-3.445-3.513
							c-2.361-2.514-4.754-5.415-7.368-8.467c-1.253-1.533-2.662-2.979-4.229-4.333c-1.566-1.344-3.297-2.587-5.201-3.504
							c-1.896-0.914-3.995-1.47-6.037-1.252c-2.045,0.196-3.964,1.208-5.569,2.746c-1.615,1.529-2.933,3.57-4.182,5.718
							c-1.26,2.156-2.489,4.494-4.147,6.707c-3.411,4.348-7.649,7.561-11.859,10.224l-0.786,0.508l-0.863,0.481l-0.863,0.475
							c-0.291,0.15-0.602,0.258-0.901,0.388c-0.602,0.255-1.202,0.501-1.823,0.658c-0.614,0.186-1.225,0.369-1.843,0.47
							c-2.463,0.51-4.872,0.599-7.161,0.61c-4.577-0.023-8.787-0.207-12.548,0.668c-1.872,0.43-3.569,1.172-5.191,1.998
							c-1.602,0.859-3.102,1.816-4.551,2.727c-2.885,1.848-5.701,3.381-8.391,4.141c-2.693,0.776-5.105,0.76-7.015,0.702
							c-3.824-0.219-5.939-0.339-5.939-0.339s0.529-0.015,1.537-0.041c1.007-0.024,2.497-0.01,4.401-0.075
							c1.895-0.077,4.242-0.229,6.737-1.126c2.507-0.884,5.094-2.487,7.862-4.474c1.397-0.984,2.869-2.034,4.514-3.021
							c1.655-0.95,3.504-1.861,5.541-2.42c4.074-1.13,8.555-1.078,12.998-1.196c2.227-0.077,4.473-0.232,6.64-0.735
							c0.551-0.101,1.075-0.276,1.603-0.447c0.539-0.146,1.045-0.37,1.551-0.598c0.252-0.115,0.515-0.209,0.761-0.342l0.727-0.421
							l0.732-0.423l0.753-0.505c4.048-2.642,7.997-5.747,11.048-9.633c2.964-3.913,4.776-8.986,8.749-12.707
							c1.956-1.836,4.554-3.17,7.255-3.352c2.698-0.212,5.229,0.584,7.355,1.685c2.142,1.114,3.972,2.538,5.6,4.039
							c1.621,1.505,3.061,3.112,4.287,4.748c2.486,3.166,4.722,6.162,6.912,8.757c1.057,1.337,2.175,2.493,3.191,3.638
							c1.03,1.128,2.109,2.077,3.062,3.033c1.005,0.893,2,1.655,2.886,2.399c0.895,0.73,1.818,1.252,2.595,1.803
							c0.395,0.267,0.77,0.518,1.12,0.753c0.354,0.231,0.716,0.392,1.035,0.571c0.649,0.345,1.198,0.637,1.642,0.872
							C450.357,536.258,450.824,536.508,450.824,536.508z"/>
					</g>
				</g>
			</g>
			<g>
				<g>
					<g>
						<path d="M326.006,544.972c0,0,0.594,0.083,1.725,0.239c1.129,0.169,2.802,0.382,4.936,0.807
							c2.129,0.422,4.76,0.98,7.646,2.214c1.438,0.611,2.947,1.385,4.406,2.414c0.766,0.465,1.451,1.09,2.205,1.665
							c0.73,0.604,1.391,1.328,2.097,2.034c2.661,2.981,4.799,6.824,6.852,10.864c2.099,3.964,4.663,8.078,7.984,11.783
							c3.309,3.701,7.513,6.918,12.525,8.742c0.614,0.251,1.26,0.443,1.911,0.631c0.643,0.21,1.305,0.369,1.976,0.508
							c1.339,0.271,2.665,0.684,4.056,0.769c1.379,0.148,2.762,0.368,4.179,0.325c0.705,0.011,1.413,0.021,2.123,0.032
							c0.71,0.021,1.422-0.09,2.137-0.128c5.712-0.405,11.236-1.837,16.201-3.969c5.01-1.983,9.03-5.398,11.771-9.463
							c2.753-4.08,4.367-8.643,5.661-12.961c0.672-2.157,1.185-4.291,1.844-6.337c0.655-2.036,1.301-3.993,2.147-5.794
							c1.554-3.658,4.004-6.532,6.567-8.362c2.585-1.852,5.198-2.674,7.281-3.265c2.103-0.581,3.76-0.891,4.879-1.118
							c1.121-0.216,1.71-0.33,1.71-0.33s-0.579,0.156-1.682,0.452c-1.1,0.305-2.732,0.726-4.771,1.43
							c-2.021,0.712-4.522,1.681-6.861,3.566c-2.333,1.884-4.459,4.635-5.784,8.201c-0.725,1.746-1.271,3.683-1.825,5.697
							c-0.556,2.008-0.988,4.179-1.588,6.398c-1.154,4.429-2.653,9.251-5.527,13.776c-2.842,4.508-7.334,8.455-12.689,10.654
							c-5.241,2.34-11.044,3.894-17.132,4.329c-0.761,0.04-1.516,0.153-2.276,0.132c-0.76-0.013-1.517-0.026-2.271-0.039
							c-1.511,0.035-3.002-0.203-4.485-0.375c-1.494-0.109-2.918-0.555-4.352-0.866c-0.717-0.157-1.426-0.338-2.119-0.573
							c-0.698-0.211-1.392-0.429-2.066-0.714c-5.478-2.08-9.996-5.718-13.39-9.73c-3.421-4.033-5.904-8.351-7.913-12.506
							c-1.916-4.149-3.797-7.871-6.177-10.811c-0.632-0.689-1.217-1.403-1.879-2.005c-0.685-0.575-1.301-1.203-2.01-1.682
							c-1.343-1.057-2.74-1.87-4.097-2.538c-2.719-1.347-5.281-2.059-7.365-2.609c-2.089-0.555-3.743-0.88-4.857-1.127
							C326.592,545.097,326.006,544.972,326.006,544.972z"/>
					</g>
				</g>
			</g>
			<g>
				<g>
					<g>
						<path d="M450.095,536.273c0,0-0.315-0.05-0.953-0.151c-0.634-0.124-1.599-0.227-2.895-0.34
							c-1.302-0.068-2.936-0.154-4.908-0.258c-1.968-0.132-4.321-0.242-6.919-1.059c0.002,0.001,0.013,0.004,0.023,0.007
							c-1.406-0.35-3.397-0.949-5.584-2.11c-2.183-1.152-4.567-2.832-6.688-5.109c0.004,0.005,0.018,0.018,0.03,0.031
							c-1.71-1.566-3.25-3.646-5.366-5.113c-1.059-0.712-2.277-1.199-3.605-1.206c-0.658-0.033-1.362,0.092-2.046,0.199
							c-0.658,0.174-1.316,0.387-1.915,0.753c-1.212,0.703-2.228,1.823-3.118,3.112c-0.444,0.648-0.868,1.333-1.287,2.044
							c-0.211,0.359-0.423,0.72-0.635,1.082l-0.326,0.55l-0.167,0.276l-0.083,0.138c-0.017,0.031-0.094,0.156-0.128,0.189
							c-2.068,2.783-4.581,5.406-7.507,7.608c-3.771,2.831-7.914,4.81-11.984,6.428c-1.01,0.43-2.044,0.779-3.072,1.101
							c-1.022,0.327-2.047,0.631-3.079,0.895c-2.062,0.525-4.162,0.839-6.219,0.857c-0.519-0.013-1.034-0.025-1.547-0.038
							c-0.501-0.038-0.983-0.118-1.471-0.174c-0.966-0.124-1.92-0.246-2.86-0.366c-1.867-0.258-3.674-0.444-5.422-0.615
							c-3.485-0.301-6.786-0.124-9.787-0.092c-3.003,0.076-5.726,0.029-8.112,0.181c-2.388,0.127-4.444,0.236-6.125,0.326
							c-3.364,0.168-5.224,0.262-5.224,0.262s1.853-0.189,5.204-0.531c1.676-0.165,3.728-0.367,6.109-0.603
							c2.381-0.252,5.11-0.314,8.122-0.499c3.014-0.14,6.307-0.428,9.894-0.223c1.78,0.122,3.619,0.263,5.495,0.476
							c0.933,0.097,1.88,0.195,2.84,0.295c0.477,0.045,0.962,0.113,1.44,0.14c0.47,0.001,0.943,0.003,1.419,0.004
							c3.844-0.101,7.829-1.367,11.793-2.936c3.949-1.619,7.961-3.572,11.546-6.269c2.789-2.101,5.185-4.576,7.192-7.226
							c1.686-2.648,3.267-6.017,6.327-7.744c0.744-0.437,1.567-0.695,2.377-0.885c0.811-0.117,1.596-0.238,2.408-0.185
							c1.633,0.042,3.151,0.699,4.333,1.547c2.359,1.748,3.798,3.88,5.383,5.419l0.017,0.016l0.014,0.016
							c1.952,2.21,4.197,3.902,6.264,5.085c2.069,1.194,3.966,1.853,5.31,2.272l0.024,0.007c2.469,0.869,4.792,1.068,6.744,1.274
							c1.962,0.181,3.598,0.312,4.896,0.462c1.296,0.173,2.257,0.323,2.886,0.481C449.782,536.205,450.095,536.273,450.095,536.273z
							"/>
					</g>
				</g>
			</g>
			<g>
				<g>
					<g>
						<path d="M329.657,545.209c0,0,1.856-0.016,5.212-0.045c0.841-0.001,1.775-0.002,2.799-0.004
							c1.022,0.025,2.131,0.094,3.325,0.149c2.387,0.138,5.121,0.19,8.114,0.623c1.503,0.185,3.078,0.377,4.718,0.578
							c1.634,0.246,3.308,0.646,5.059,0.989c1.751,0.38,3.54,0.673,5.451,1.279c0.471,0.145,0.959,0.259,1.427,0.432
							c0.465,0.182,0.933,0.365,1.404,0.549c0.471,0.188,0.944,0.377,1.421,0.567c0.457,0.218,0.917,0.436,1.379,0.655
							c3.707,1.758,7.245,3.986,10.959,5.74c0.917,0.49,1.889,0.797,2.838,1.214c0.957,0.389,1.862,0.669,2.83,0.892
							c1.92,0.436,3.964,0.581,6.045,0.442c4.168-0.277,8.242-1.531,11.872-3.296c0.889-0.435,1.846-0.93,2.642-1.446
							c0.408-0.258,0.814-0.514,1.218-0.768l0.607-0.38l0.556-0.454c1.508-1.16,2.884-2.493,4.191-3.902
							c2.615-2.806,5.028-5.806,7.755-8.285c0.713-0.603,1.364-1.223,2.093-1.769c0.765-0.529,1.516-1.036,2.301-1.429
							c0.756-0.447,1.569-0.735,2.332-1.07c0.792-0.258,1.553-0.55,2.325-0.713c3.064-0.775,5.88-0.842,8.293-0.745
							c2.419,0.103,4.468,0.371,6.132,0.617c3.323,0.515,5.141,0.879,5.141,0.88c0,0-1.853-0.056-5.201-0.156
							c-1.67-0.028-3.713-0.04-6.048,0.129c-2.328,0.171-4.971,0.532-7.645,1.498c-0.68,0.211-1.324,0.54-2,0.825
							c-0.638,0.36-1.322,0.666-1.937,1.113c-0.65,0.395-1.238,0.88-1.836,1.365c-0.586,0.521-1.143,1.148-1.732,1.727
							c-2.311,2.446-4.434,5.476-7.038,8.611c-1.301,1.562-2.764,3.144-4.481,4.586l-0.63,0.555l-0.697,0.486
							c-0.47,0.321-0.941,0.645-1.415,0.97c-0.959,0.659-1.887,1.176-2.914,1.72c-4.04,2.108-8.631,3.632-13.591,3.968
							c-2.474,0.163-4.981-0.023-7.388-0.608c-1.196-0.289-2.396-0.695-3.457-1.153c-1.045-0.481-2.142-0.877-3.113-1.429
							c-4.014-2.054-7.427-4.427-10.783-6.24c-0.418-0.229-0.835-0.457-1.248-0.684c-0.42-0.196-0.837-0.392-1.252-0.586
							s-0.828-0.387-1.237-0.578c-0.413-0.184-0.841-0.31-1.256-0.468c-1.627-0.648-3.412-1.083-5.068-1.577
							c-1.672-0.464-3.274-0.992-4.843-1.371c-1.581-0.343-3.097-0.672-4.544-0.986c-2.887-0.709-5.561-1.048-7.896-1.454
							c-1.171-0.193-2.26-0.373-3.263-0.538c-1.009-0.126-1.932-0.241-2.761-0.345C331.495,545.451,329.657,545.209,329.657,545.209
							z"/>
					</g>
				</g>
			</g>
			<path d="M425.764,529.691c3.275,2.321,0.265,6.491-0.949,8.886c1.897,0.067,4.045-1.59,5.868-2.017
				c2.113-0.492,4.433-0.362,6.493-1.037c-2.328-2.678-7.49-2.383-10.439-4.421"/>
			<path d="M409.218,520.523c0.091-3.155,4.606-5.485,4.136-8.967c0,2.765-0.397,4.853-0.935,7.287
				c1.881,0.342,5.692-1.512,5.559-3.655c0,2.407-0.155,4.205-0.883,6.292c1.744,0.194,3.565-0.506,4.792-1.574
				c-0.663,1.238-1.932,2.34-2.686,3.468c-2.491-3.131-6.776-3.085-10.712-3.085"/>
			<path d="M428.719,532.669c0.555,1.793-2.485,5.721-4.22,7.027c-2.469,1.861-6.339,3.16-9.433,3.141
				c-3.823-0.024-3.924-4.251-5.365-7.153c-1.267-2.557-2.079-5.648-3.948-7.994c-0.32-0.404-0.582-0.784-0.93-1.176
				c1.553,2.711,1.412,6.146,2.211,9.062c0.709,2.584,1.702,5.969,3.372,8.179c-3.935,1.523-8.535,2.122-12.611,3.115
				c-1.808,0.44-5.376,1.271-7.311,0.69c-2.135-0.64-1.773-3.393-2.475-5.607c-1.947-0.381-4.639,1.189-6.242,2.122
				c0.394,7.797-9.203,4.702-13.88,6.593c3.787,4.072,10.726,6.288,15.791,8.64c6.699,3.112,13.892,1.579,20.128-1.463
				c5.419-2.644,9.703-6.206,13.745-10.695c2.078-2.307,3.694-5.011,6.255-6.941c2.979-2.246,5.195-3.602,5.195-7.695
				c0-0.078,0,1.488,0,1.488"/>
			<path d="M381.482,557.433c-1.167,4.086-2.122,7.688-5.134,11.189c2.84-2.686,5.604-3.16,7.092-6.874
				c-0.077,4.356,2.751,8.768,6.77,10.689c-1.97-1.504-6.319-12.831-2.16-12.89c2.262-0.03,3.106,4.075,3.955,5.584
				c1.103,1.964,2.621,4.201,4.768,5.301c0.091,0.086,0.088,0.088-0.007,0.005c-2.941-2.93-3.44-7.812-0.433-10.807
				c0.362,1.896,0.15,6.567,2.865,6.942c-0.495-3.287-1.051-6.491,1.931-8.87c1.943,1.609,2.978,3.926,5.188,5.284
				c-0.104-2.517-0.227-6.623-1.028-9.045c-4.241-0.333-8.664,0.983-12.846,1.388c-4.16,0.4-9.101,0.071-13.151,1.162"/>
		</g>
		<path opacity="0.3" enable-background="new    " d="M336,545c-4.692-0.017-11.778,0.269-12.444-5.731
			c-0.181,4.306-1.362,10.605,1.907,13.941c-4.788-9.41,11.328-3.872,14.481-1.655c5.365,3.771,9.061,9.591,12.056,15.194
			c3.095,5.791,5.318,11.979,8.944,17.562c4.173,6.425,8.256,9.729,15.556,11.176c7.74,1.533,14.652,1.162,21.763-1.737
			c6.378-2.601,13.061-5.556,17.925-10.818c2.248-2.434,5.055-5.504,5.866-8.663c0.077,0.841-5.046,5.789-6.109,6.926
			c-2.382,2.546-5.399,4.53-8.682,5.068c-3.883,0.638-7.812,0.841-11.763,1.237c-4.014,0.403-7.793,1.519-12,1.25
			c-6.335-0.405-13.65-4.916-18.438-9.312c-2.208-2.027-4.777-4.293-6.5-6.737c-2.046-2.902-3.075-6.614-4.874-9.708
			c-2.531-4.352-5.016-9.258-9.237-12.432c-4.522-3.399-10.989-4.918-16.181-5.756c2.505-0.166,4.906,0.194,7.48,0.194"/>
		<path opacity="0.3" enable-background="new    " d="M344.75,545.75c13.492,2.303,19.461,18.4,28.438,27.317
			c4.844,4.812,10.079,8.181,16.307,10.176c5.984,1.916,16.138,3.659,21.543,0.509c-3.141,0.348-5.736,3.235-8.794,4.241
			c-3.755,1.234-7.374,1.756-11.493,1.757c-7.384,0.001-13.708-2.912-19.944-6.806c-5.519-3.445-9.799-7.745-13.236-13.264
			c-3.456-5.549-5.079-12.259-10.138-16.618c-4.732-4.078-12.602-7.015-18.606-7.812c4.838-0.006,10.465-0.24,14.924,1.249"/>
		<path opacity="0.3" enable-background="new    " d="M347,539.75c1.58-0.443,2.881-1.71,4.487-2.013
			c1.908-0.36,4.111-0.138,6.013-0.237c4.155-0.218,7.832,0.663,11.744,1.256c8.208,1.243,15.224-0.759,22.5-3.317
			c3.074-1.081,6.38-2.213,8.78-4.589c-2.838,2.399-4.811,5.446-8.08,7.345c-1.579,0.917-11.186,3.475-7.92,6.056
			c-1.8,2.525-7.708,1.923-10.53,2.5c-3.721,0.762-7.443,1-11.494,1c-4.148,0-8.358,0.211-12.5,0
			c-3.738-0.19-7.144-1.469-10.744-2.006c-1.469-0.219-2.938-0.188-4.48-0.294c1.136-1.061,4.486-1.692,6.211-2.45
			C343.208,542.024,345.062,541.139,347,539.75"/>
		<g opacity="0.2">
			<g>
				<g>
					<path fill="#FFFFFF" d="M437,530.333c0,0-2.772-1.938-7.092-5.33c-1.072-0.858-2.248-1.799-3.509-2.809
						c-0.312-0.256-0.631-0.517-0.954-0.781l-0.486-0.402l-0.466-0.468c-0.637-0.639-1.257-1.284-1.862-1.932
						c-2.44-2.587-5.049-5.317-8.376-6.256c-1.613-0.529-3.271-0.448-4.803,0.016c-1.547,0.465-2.989,1.374-4.282,2.401
						c-2.592,2.093-4.627,4.588-6.316,6.673c-1.684,2.137-3.047,3.867-3.989,5.063c-0.962,1.194-1.532,1.824-1.532,1.824
						s0.363-0.765,1.018-2.146c0.657-1.38,1.574-3.388,2.885-5.815c1.334-2.408,3.005-5.304,5.754-8.046
						c1.384-1.344,3.083-2.67,5.252-3.469c2.147-0.805,4.744-0.99,7.083-0.234c0.575,0.193,1.147,0.388,1.706,0.598
						c0.517,0.28,1.03,0.559,1.54,0.835c0.529,0.256,0.932,0.644,1.393,0.962l0.662,0.502c0.206,0.176,0.394,0.363,0.59,0.544
						c1.6,1.437,2.784,2.998,3.905,4.419c0.536,0.698,1.059,1.38,1.567,2.042c0.235,0.33,0.503,0.642,0.794,0.936
						c0.278,0.3,0.553,0.596,0.822,0.887c1.066,1.177,2.061,2.274,2.969,3.275C434.874,527.669,437,530.333,437,530.333z"/>
				</g>
			</g>
		</g>
		<g opacity="0.2">
			<g>
				<g>
					<path fill="#FFFFFF" d="M429,545.666c0,0-0.117,0.17-0.34,0.495c-0.212,0.332-0.574,0.775-0.947,1.41
						c-0.781,1.246-1.748,3.121-2.654,5.54c-0.92,2.421-1.743,5.385-2.741,8.756c-1.022,3.342-2.233,7.174-4.602,10.831
						c-1.172,1.832-2.543,3.424-4.04,4.815c-1.496,1.381-3.085,2.575-4.758,3.449c-3.316,1.794-6.769,2.488-9.562,2.322
						c-2.809-0.14-4.939-0.882-6.302-1.52c-0.694-0.292-1.186-0.626-1.534-0.804c-0.34-0.193-0.52-0.295-0.52-0.295
						s0.201,0.049,0.584,0.141c0.385,0.078,0.926,0.269,1.654,0.38c1.432,0.282,3.548,0.495,6.03,0.158
						c2.481-0.313,5.29-1.366,7.954-3.186c1.347-0.89,2.622-2.033,3.849-3.298c1.221-1.264,2.393-2.713,3.391-4.281
						c2.037-3.126,3.42-6.612,4.772-9.82c1.329-3.215,2.666-6.174,4.08-8.499c1.405-2.335,2.842-4.027,3.929-5.07
						c0.526-0.536,1.007-0.883,1.298-1.144C428.841,545.797,429,545.666,429,545.666z"/>
				</g>
			</g>
		</g>
		<g opacity="0.2">
			<g>
				<g>
					<path fill="#FFFFFF" d="M408.667,571.666c0,0,0.021,0.182,0.022,0.501c-0.007,0.312-0.008,0.798-0.132,1.323
						c-0.219,1.07-0.808,2.462-1.97,3.502c-1.182,1.022-2.631,1.481-3.757,1.53c-0.539,0.058-1.035-0.028-1.344-0.077
						c-0.316-0.058-0.487-0.112-0.487-0.112s0.09-0.161,0.25-0.446c0.156-0.283,0.384-0.608,0.631-1.059
						c0.522-0.827,1.155-1.904,2.127-2.738c0.958-0.859,2.089-1.394,3.018-1.793c0.477-0.188,0.853-0.361,1.158-0.467
						C408.492,571.726,408.667,571.666,408.667,571.666z"/>
				</g>
			</g>
		</g>
	</g>
</g>
</svg>
