<?xml version="1.0" encoding="utf-8"?>
<!-- Generator: Adobe Illustrator 25.0.1, SVG Export Plug-In . SVG Version: 6.00 Build 0)  -->
<svg version="1.1" id="Capa_1" xmlns="http://www.w3.org/2000/svg" xmlns:xlink="http://www.w3.org/1999/xlink" x="0px" y="0px"
	 viewBox="0 0 800 800" enable-background="new 0 0 800 800" xml:space="preserve">
<g id="bocas">
	<g id="_x33__4_">
		<g>
			<path opacity="0.3" fill="#E21E65" enable-background="new    " d="M369.547,554.651c2.176-0.318,4.503-1.143,6.857-0.914
				c2.302,0.224,3.577,1.701,5.523,2.861c1.592,0.948,4.095,2.303,5.943,1.747c1.981-0.593,3.369-2.593,5.106-3.58
				c4.551-2.583,11.095-0.337,16.147-1.498c-5.974,4.576-7.542,16.787-16.87,16.776c-2.518-0.004-4.373-0.08-6.439-1.485
				c-1.544-1.054-2.687-2.855-3.887-4.345c-2.387-2.962-5.617-4.886-8.683-6.86c-1.239-0.8-2.369-1.887-3.698-2.55"/>
			<path opacity="0.3" fill="#A5114D" enable-background="new    " d="M372.441,553.891c-0.243-2.258,1.315-3.565,2.554-5.221
				c1.357-1.817,2.15-3.163,4.609-3.162c2.474,0.001,3.657,1.383,5.825,1.947c2.284,0.593,4.147-0.056,6.104-1.144
				c3.362-1.869,7.798-2.9,11.077-0.045c2.581,2.245,5.168,4.383,7.762,6.373c-4.867,0.32-9.639-0.265-13.971,1.588
				c-4.314,1.845-6.742,5.026-11.92,3.129c-1.772-0.649-3.366-1.536-5.149-2.128c-1.956-0.65-4.215-0.454-6.281-1.034"/>
			<g>
				<g>
					<g>
						<path d="M425.447,550.797c0,0-0.249,0.104-0.724,0.302c-0.476,0.194-1.172,0.51-2.109,0.798
							c-1.854,0.634-4.623,1.353-8.118,1.784c-1.745,0.234-3.671,0.366-5.743,0.441c-2.076,0.049-4.266-0.009-6.539,0.061
							c-2.255,0.079-4.664,0.228-6.838,0.999c-0.508,0.231-1.086,0.381-1.52,0.704c-0.47,0.315-0.908,0.683-1.35,1.111
							c-0.451,0.423-0.894,0.934-1.56,1.408c-0.66,0.481-1.565,0.775-2.37,0.789c-0.65,0.028-1.234-0.072-1.566-0.124
							c0.097,0.009,0.135,0.013,0.173,0.016c-1.642-0.029-2.966-0.777-4.065-1.458c-1.128-0.688-2.051-1.458-3.056-1.812
							c-2.069-0.783-4.401-0.975-6.585-1.077c-2.203-0.097-4.342-0.115-6.344-0.311c-2.018-0.229-3.849-0.622-5.473-1.082
							c-3.25-0.912-5.79-1.795-7.599-2.236c-0.896-0.258-1.605-0.381-2.083-0.489c-0.479-0.104-0.73-0.157-0.73-0.157
							s0.255,0.027,0.742,0.079c0.486,0.059,1.213,0.11,2.131,0.284c1.852,0.271,4.494,0.94,7.754,1.609
							c1.63,0.341,3.424,0.602,5.346,0.71c1.943,0.079,4.038-0.008,6.295-0.004c2.256,0.024,4.69,0.092,7.223,0.976l0.476,0.159
							c0.154,0.07,0.303,0.158,0.456,0.237c0.314,0.163,0.595,0.331,0.862,0.5c0.523,0.329,1.052,0.661,1.584,0.995
							c1.028,0.629,2.071,1.133,3.066,1.139h0.068l0.106,0.016c0.26,0.037,0.724,0.111,1.137,0.09
							c0.527-0.021,0.928-0.153,1.341-0.435c0.415-0.281,0.852-0.749,1.346-1.212c0.493-0.468,1.047-0.927,1.646-1.31
							c0.616-0.426,1.285-0.599,1.927-0.865c2.595-0.849,5.109-0.887,7.444-0.887c2.339,0.023,4.53,0.187,6.557,0.25
							c2.03,0.04,3.927,0.03,5.653-0.08c3.458-0.185,6.236-0.655,8.124-1.109c0.955-0.197,1.671-0.44,2.164-0.584
							C425.188,550.874,425.447,550.797,425.447,550.797z"/>
					</g>
				</g>
			</g>
			<g>
				<g>
					<g>
						<path d="M418.369,552.63c0,0-0.837,0.041-2.349,0.117c-0.757,0.041-1.682,0.103-2.774,0.107
							c-1.091-0.001-2.364-0.055-3.773-0.427c-1.396-0.357-2.932-1.189-4.133-2.453c-1.138-1.152-2.248-2.422-3.513-3.431
							c-1.264-1.018-2.664-1.61-4.263-1.521c-0.401-0.008-0.799,0.113-1.202,0.176c-0.42,0.033-0.77,0.224-1.142,0.361
							c-0.736,0.299-1.404,0.808-2.071,1.426c-0.074,0.064-0.149,0.129-0.212,0.183l-0.119,0.107
							c-0.947,0.745-1.991,1.56-3.36,2.036c-1.355,0.502-3.068,0.384-4.272-0.371c-1.181-0.743-1.782-1.583-2.338-2.043
							c-0.534-0.483-0.992-0.65-1.507-0.773l-0.006-0.002l-0.086-0.009c-0.474-0.049-0.914-0.098-1.325,0.087
							c-0.418,0.163-0.844,0.434-1.253,0.812c-0.409,0.353-0.814,0.782-1.238,1.208c-0.424,0.392-0.821,0.765-1.19,1.132
							c-1.475,1.485-2.794,2.953-4.246,3.694c-1.437,0.761-2.716,0.792-3.507,0.736c-0.404-0.005-0.705-0.085-0.908-0.107
							c-0.202-0.032-0.305-0.049-0.305-0.049s0.105-0.006,0.31-0.016c0.204-0.018,0.506,0.001,0.896-0.068
							c0.772-0.09,1.931-0.344,3.069-1.201c1.159-0.837,2.164-2.318,3.504-4.043c0.342-0.435,0.707-0.866,1.081-1.296
							c0.339-0.426,0.696-0.9,1.16-1.395c0.437-0.489,1.018-0.996,1.763-1.368c0.754-0.406,1.68-0.471,2.538-0.408
							c-0.025-0.003-0.05-0.006-0.092-0.011c0.93,0.035,2.075,0.406,2.93,1.084c0.852,0.646,1.502,1.354,2.105,1.657
							c0.569,0.289,1.216,0.328,1.965,0.049c0.758-0.277,1.6-0.892,2.491-1.61c-0.035,0.031-0.071,0.063-0.119,0.106
							c0.081-0.073,0.177-0.158,0.273-0.243c0.833-0.78,1.822-1.521,2.95-1.96c0.568-0.209,1.13-0.445,1.706-0.493
							c0.573-0.08,1.134-0.201,1.709-0.177c1.141-0.006,2.306,0.231,3.321,0.689c1.02,0.454,1.876,1.093,2.593,1.757
							c1.429,1.343,2.425,2.757,3.397,3.97c0.88,1.142,1.954,1.913,3.115,2.397c2.343,0.939,4.611,1.02,6.092,1.243
							C417.543,552.474,418.369,552.63,418.369,552.63z"/>
					</g>
				</g>
			</g>
			<g>
				<g>
					<g>
						<path d="M367.943,554.793c0,0,0.829,0.239,2.313,0.726c1.476,0.504,3.647,1.193,6.15,2.616
							c0.636,0.337,1.251,0.784,1.905,1.239c0.618,0.49,1.273,1.023,1.874,1.622c1.241,1.179,2.351,2.599,3.533,3.901
							c1.191,1.304,2.476,2.479,4.058,3.082c1.614,0.657,3.456,0.845,5.323,0.588c1.87-0.264,3.619-0.939,5.103-1.953
							c1.47-0.934,2.487-2.273,3.368-3.803c0.879-1.518,1.642-3.124,2.565-4.574c0.872-1.497,2.162-2.661,3.347-3.514
							c2.527-1.634,4.918-1.899,6.46-2.031c0.784-0.072,1.393-0.061,1.804-0.064c0.411,0,0.627,0,0.627,0s-0.212,0.043-0.614,0.125
							c-0.402,0.081-0.997,0.184-1.743,0.388c-1.475,0.384-3.672,1.043-5.648,2.739c-0.938,0.906-1.865,1.929-2.505,3.348
							c-0.694,1.388-1.289,3.007-2.122,4.739c-0.416,0.865-0.923,1.757-1.563,2.618c-0.357,0.407-0.663,0.875-1.089,1.238
							c-0.423,0.356-0.838,0.777-1.294,1.079c-1.764,1.31-3.964,2.227-6.294,2.549c-2.327,0.328-4.749,0.033-6.811-0.906
							c-2.151-0.935-3.685-2.582-4.847-4.063c-1.175-1.512-2.096-2.944-3.113-4.13c-1.002-1.195-2.037-2.208-3.126-3.005
							c-2.147-1.631-4.164-2.664-5.523-3.41C368.703,555.201,367.943,554.793,367.943,554.793z"/>
					</g>
				</g>
			</g>
		</g>
		<path opacity="0.3" enable-background="new    " d="M366.75,553.25c-6.129-1.943-14.952-0.773-17.519-7.905
			c1.042,3.732,1.818,6.932,0.001,10.575c3.375-6.229,15.131-0.733,19.073,2.012c5.054,3.52,8.741,8.978,13.75,12.513
			c3.297,2.327,8.296,3.131,12.187,1.799c4.418-1.513,5.683-5.183,7.769-8.905c-0.44,2.497-5.013,2.805-7.012,2.912
			c-3.125,0.168-5.625-1.051-8.049-2.938c-4.016-3.127-6.927-7.239-11.35-9.562c2.163-0.99,3.024-1.937,4.83-3.562
			c2.04-1.838,4.198-1.962,6.98-1.925c-4.056-2.516-6.821-4.617-10.662-0.763c-2.827,2.837-5.086,5.971-9.25,6"/>
		<g opacity="0.2">
			<g>
				<g>
					<path fill="#FFFFFF" d="M402.667,551c0,0-0.236-0.203-0.662-0.568c-0.427-0.359-1.037-0.893-1.821-1.443
						c-0.781-0.551-1.759-1.088-2.848-1.22c-1.092-0.123-2.303,0.19-3.578,0.771c-1.271,0.575-2.429,1.348-3.663,1.981
						c-1.215,0.652-2.611,0.975-3.7,0.816c-1.096-0.134-1.835-0.58-2.332-0.844c-0.469-0.317-0.73-0.493-0.73-0.493
						s0.301,0.075,0.842,0.211c0.542,0.092,1.329,0.273,2.232,0.155c0.907-0.108,1.838-0.529,2.854-1.257
						c1.016-0.708,2.198-1.655,3.69-2.336c0.751-0.323,1.521-0.603,2.332-0.716c0.806-0.114,1.626-0.085,2.371,0.104
						c1.504,0.414,2.504,1.334,3.178,2.105c0.682,0.787,1.109,1.486,1.403,1.969C402.514,550.727,402.667,551,402.667,551z"/>
				</g>
			</g>
		</g>
		<g opacity="0.2">
			<g>
				<g>
					<path fill="#FFFFFF" d="M398,549.666c0,0-0.448,0.971-1,0.971s-1-0.971-1-0.971s0.448-0.971,1-0.971S398,549.666,398,549.666z"
						/>
				</g>
			</g>
		</g>
		<g opacity="0.2">
			<g>
				<g>
					<path fill="#FFFFFF" d="M402,558.666c0,0,0.001,0.146-0.024,0.422c-0.028,0.271-0.107,0.675-0.305,1.128
						c-0.368,0.925-1.213,2.066-2.477,2.862c-1.267,0.791-2.66,1.065-3.657,0.99c-0.497-0.026-0.895-0.133-1.15-0.229
						c-0.259-0.106-0.387-0.173-0.387-0.173s0.143-0.048,0.394-0.131c0.244-0.086,0.58-0.221,0.965-0.422
						c0.776-0.381,1.737-1.018,2.801-1.679c1.06-0.671,2.044-1.266,2.732-1.798c0.354-0.257,0.624-0.501,0.81-0.681
						C401.893,558.771,402,558.666,402,558.666z"/>
				</g>
			</g>
		</g>
		<g opacity="0.2">
			<g>
				<g>
					<path fill="#FFFFFF" d="M400,560c0,0,0.016,0.342-0.131,0.86c-0.113,0.547-0.542,1.138-1.167,1.58
						c-0.652,0.359-1.343,0.457-1.852,0.389c-0.512-0.044-0.851-0.163-0.851-0.163s0.162-0.334,0.46-0.727
						c0.318-0.378,0.694-0.867,1.224-1.152c0.462-0.342,1.06-0.432,1.483-0.597C399.616,560.06,400,560,400,560z"/>
				</g>
			</g>
		</g>
	</g>
</g>
</svg>
