<?xml version="1.0" encoding="utf-8"?>
<!-- Generator: Adobe Illustrator 25.0.1, SVG Export Plug-In . SVG Version: 6.00 Build 0)  -->
<svg version="1.1" id="Capa_1" xmlns="http://www.w3.org/2000/svg" xmlns:xlink="http://www.w3.org/1999/xlink" x="0px" y="0px"
	 viewBox="0 0 800 800" enable-background="new 0 0 800 800" xml:space="preserve">
<g id="bocas">
	<g id="_x34__4_">
		<g>
			<g opacity="0.7">
				<path fill="#B7ECED" d="M430.452,532.123c0.202,0.196,0.405,0.396,0.609,0.6c-0.011-0.071-0.024-0.142-0.034-0.215
					L430.452,532.123z"/>
				<path fill="#B7ECED" d="M449.027,553.29c-3.514-3.142-8.239-4.731-10.086-9.497c-1.551-4-4.784-7.982-7.88-11.07
					c0.388,2.521,1.891,4.24,1.886,7.08c-0.002,2.997-0.144,6.033,0,9.024c0.169,3.529-0.786,3.685-3.833,4.806
					c-1.973,0.725-4.255,1.765-5.621,3.636c-2.944,4.037-3.533,9.002-7.104,12.821c-3.314,3.545-7.022,7.19-10.943,9.988
					c-3.978,2.842-8.562,3.816-11.902,7.686c-1.736,2.009-3.216,3.609-5.904,3.876c-2.89,0.288-5.992-0.338-8.453-1.338
					c-8.541-3.466-15.317-10.713-20.363-18.103c-0.214-0.343-0.44-0.682-0.682-1.017c-0.269-0.408-0.535-0.814-0.794-1.223
					c-0.01,0.05-0.023,0.098-0.035,0.146c-2.361-2.864-5.606-5.292-8.839-6.496c-2.5-0.932-5.729-2.18-8.38-2.314
					c5.171,3.979-0.923,9.704-1.801,13.837c-0.587,2.771,2.191,3.568,4.086,5.324c2.306,2.139,2.792,4.026-0.095,5.567
					c-2.091,1.116-4.193,2.3-6.047,3.743c-2.647,2.06-1.55,4.138-2.492,6.916c-0.372,1.095-1.509,1.887-1.786,3.015
					c-0.273,1.116-0.215,3.611,0.197,4.612c0.856,2.076,3.052,4.039,5.154,4.253c-0.245,1.21-1.081,2.6-0.115,3.763
					c0.77,0.928,2.527,1.093,3.601,1.199c3.357,0.337,5.13,0.441,5.567,4.224c0.172,1.498,0.312,2.683-0.332,4.086
					c-0.448,0.979-1.673,1.818-1.972,2.827c-0.62,2.085,2.282,4.616,2.496,6.912c0.252,2.722-1.719,6.368,1.536,7.295
					c2.89,0.824,4.628-0.606,6.479-2.735c1.695-1.948,1.797-4.998,2.164-7.436c0.386-2.571,1.641-5.9,0.96-8.648
					c-0.141-0.567-0.45-1.019-0.739-1.47c0.145-1.494,0.645-2.956,1.455-3.949c0.227-0.277,0.462-0.547,0.701-0.813
					c1.86-1.123,4.073-2.618,5.25-4.567c0.503-0.834,0.842-1.756,1.057-2.734c0.712-1.264,0.351-2.597,0.903-3.75
					c0.943-1.975,5.222-2.798,7.113-2.679c2.845,0.18,4.197,2.241,6.719,3.071c2.748,0.905,5.986-0.316,8.64-0.575
					c3.102-0.303,5.666-0.585,8.453-1.914c2.204-1.052,4.326-2.582,6.703-3.088c1.459-0.311,3.072-0.017,4.619-0.182
					c1.562-0.166,2.147-0.811,3.311-1.686c1.869-1.406,3.626-2.754,4.608-4.987c1.046-2.374,1.123-5.209,2.21-7.582
					c0.398-0.871,1.189-2.286,1.913-2.885c1.211-1.002,2.149-0.581,3.711-0.144c0.668,0.186,3.079,0.644,3.267,1.537
					c0.172,0.807-1.695,2.18-2.252,2.658c1.778-0.389,3.857-2.044,5.845-1.076c1.823,0.889,0.868,3.493,2.969,4.517
					c4.008,1.956,7.159-2.978,9.029-5.851c2.927-4.489,2.685-10.067,4.508-14.883c0.868-2.297,3.383-4.183,3.895-6.471
					C452.234,557.641,451.123,555.164,449.027,553.29z"/>
			</g>
			<path fill="#EDEDE2" d="M350.969,556.89c0.395-1.518,2.605-4.709,3.792-5.807c1.878-1.735,5.554-1.015,7.872-1.92
				c5.616-2.192,11.007-1.817,17.135-2.448c5.758-0.592,10.499-2.06,15.786-3.797c5.073-1.667,10.332-4.252,16.085-3.883
				c5.866,0.377,8.345,5.414,10.992,10.181c1.168,2.104,2.862,5.349,1.06,7.632c-0.658,0.834-1.915,1.234-2.645,2.154
				c-0.786,0.992-1.151,2.322-1.53,3.461c-3.25,9.792-12.875,17.753-21.562,22.981c-5.208,3.133-9.617,5.308-15.924,3.935
				c-5.234-1.141-9.085-4.026-13.2-7.386c-3.667-2.992-8.01-5.478-10.995-9.312c-2.825-3.625-5.748-9.122-5.905-13.679"/>
			<path opacity="0.3" fill="#B23665" enable-background="new    " d="M340.024,559.194c2.736-4.495,7.021-8.544,10.129-12.676
				c2.786-3.706,5.001-9.042,9.109-11.473c4.936-2.921,11.79-1.977,17.624-1.962c5.48,0.016,11.099-2.896,15.604-6.091
				c3.895-2.761,7.28-7.027,11.466-9.461c2.405-1.397,4.971-2.172,7.68-2.304c3.153-0.153,5.054,0.635,7.729,1.872
				c4.602,2.131,7.904,4.78,10.127,9.456c2.53,5.322,2.96,10.513,3.264,16.511c0.117,2.324,1.429,6.881-0.048,9.018
				c-1.287,1.861-4.274-1.052-5.862-2.149c-3.895-2.694-6.715-7.458-10.836-9.509c-11.5-5.724-21.385,4.091-32.062,5.093
				c-5.907,0.554-12.441-0.031-18.206,1.184c-5.152,1.087-9.69,3.679-14.203,6.684c-3.837,2.554-7.616,6.393-12.089,7.343"/>
			<path fill="#B7ECED" d="M430.192,554.789c-2.447,2.477-0.933,3.88-0.655,6.634c0.286,2.843-2.062,5.221-1.674,7.962
				c0.207,1.453,3.856,5.511,2.594,6.566c-2.367,1.976-3.306-4.728-3.639-5.514c-3.918-0.628-3.458,0.991-3.642,4.203
				c-2.041,0.228-3.803-2.228-4.925-3.638c-1.876,2.238-2.132,5.336-2.321,8.331c-0.126,1.993,0.106,3.046-0.914,4.726
				c-0.957,1.58-2.64,1.537-2.454,3.849c-2.573,0.445-3.853-2.895-3.333-4.567c-0.282,1.858-3.706,4.047-4.927,5.594
				c-1.82,2.308-1.932,3.091-4.707,3.013c-1.205-0.035-1.312-1.568-3.235-0.358c-1.162,0.731-1.217,2.339-1.898,3.352
				c-1.223,1.817-3.325,4.717-5.679,4.574c-0.602-2.229,1.489-2.808,2.635-4.261c-4.117-4.133-7.772,4.176-11.549,2.255
				c-1.929-0.983-2.418-4.002-4.413-4.898c-1.601-0.721-5.446-0.943-7.245-0.615c0.476,1.313,3.513,2.36,3.629,3.574
				c0.291,3.063-3.752-1.278-4.253-1.724c-3.761-3.353-7.792-5.457-8.704,0.744c-0.637,4.321-0.422,9.263-2.307,13.027
				c-0.929,1.855-3.034,2.917-3.59,5.216c-0.549,2.266,0.563,5.01-0.664,6.939c-1.216-4.016,0.42-9.016-1.127-12.852
				c-1.438-0.165-2.102,0.789-1.99,2.22c-3.926-1.666-1.414-5.217-0.317-7.526c-3.362-0.543-4.089,3.839-5.263,5.62
				c-6.048-8.081,9.199-17.658,3.731-25.546c-0.918,3.604-2.714-0.164-2.745-2.023c-0.038-2.422,1.542-4.448,1.957-6.577
				c-0.316-0.071-0.585-0.031-0.897-0.113c-0.838-2.09-1.271-10.047,0.275-11.585c3.557,2.058,6.777,5.339,10.189,7.422
				c3.439,2.099,5.953,5.794,8.966,8.614c3.189,2.985,5.458,6.626,8.954,9.286c4.503,3.428,8.782,2.692,13.666,1.245
				c7.515-2.227,19.748-4.911,24.643-11.849c2.576-3.651,3.265-8.269,6.294-11.627c2.459-2.726,5.482-6.081,8.137-8.448
				c0.916-0.816,1.534-1.436,2.736-1.576"/>
			<g>
				<g>
					<g>
						<path d="M433.036,554.171c0,0-0.084-2.086-0.236-5.857c-0.089-1.884-0.206-4.186-0.463-6.839
							c-0.146-1.323-0.338-2.732-0.575-4.215c-0.318-1.467-0.562-3.036-1.094-4.606c-0.397-1.611-1.132-3.177-1.805-4.832
							c-0.886-1.555-1.726-3.223-2.892-4.726c-2.308-2.977-5.605-5.616-9.611-6.688c-1.991-0.517-4.124-0.61-6.199-0.167
							c-2.077,0.435-4.069,1.408-5.838,2.792c-3.646,2.749-6.424,7.018-10.584,10.551c-2.067,1.778-4.606,3.134-7.19,3.85
							c-2.597,0.739-5.224,0.936-7.733,0.898c-5.014-0.1-9.595-1.01-13.716-0.227c-4.129,0.717-7.583,2.994-10.277,5.752
							c-1.376,1.357-2.559,2.799-3.792,4.201c-1.216,1.393-2.383,2.729-3.496,4.004c-1.148,1.247-2.275,2.405-3.324,3.513
							s-2.036,2.153-3.043,3.052c-0.984,0.917-1.9,1.771-2.743,2.557c-0.421,0.392-0.825,0.766-1.21,1.123
							c-0.399,0.341-0.795,0.648-1.162,0.947c-2.947,2.365-4.578,3.673-4.578,3.673s1.521-1.428,4.272-4.01
							c0.342-0.322,0.704-0.663,1.083-1.021c0.358-0.382,0.733-0.782,1.125-1.2c0.784-0.834,1.636-1.739,2.551-2.713
							c0.938-0.949,1.854-2.047,2.829-3.207c0.977-1.155,2.009-2.378,3.093-3.661c1.039-1.321,2.128-2.705,3.263-4.148
							c1.132-1.42,2.312-3.002,3.699-4.493c1.375-1.504,2.967-2.958,4.853-4.164c1.881-1.22,4.066-2.107,6.387-2.617
							c4.711-1.011,9.544-0.135,14.205-0.147c2.336-0.004,4.686-0.222,6.911-0.878c2.237-0.653,4.285-1.745,6.125-3.319
							c3.725-3.11,6.598-7.443,10.771-10.54c2.073-1.568,4.495-2.701,7.008-3.162c2.511-0.475,5.065-0.282,7.37,0.394
							c4.638,1.401,8.174,4.521,10.556,7.876c1.199,1.695,2.011,3.502,2.86,5.192c0.634,1.785,1.314,3.473,1.638,5.168
							c0.462,1.663,0.623,3.291,0.858,4.811c0.154,1.528,0.261,2.974,0.322,4.32c0.089,2.697,0.047,5.011-0.001,6.899
							C433.114,552.084,433.036,554.171,433.036,554.171z"/>
					</g>
				</g>
			</g>
			<g>
				<g>
					<g>
						<path d="M432.291,552.866c0,0-1.196,1.275-3.359,3.583c-1.114,1.114-2.346,2.607-3.789,4.322
							c-1.458,1.697-3.082,3.672-4.879,5.86c-3.671,4.306-7.946,9.564-13.586,14.659c-2.821,2.531-5.978,5.03-9.6,7.144
							c-1.76,1.086-3.83,2.067-6.007,2.628c-2.184,0.577-4.51,0.782-6.818,0.584c-4.647-0.393-8.847-2.316-12.295-4.778
							c-3.486-2.526-6.118-5.606-8.55-8.439c-2.425-2.854-4.693-5.498-7.136-7.631c-1.198-1.104-2.472-1.993-3.675-2.897
							c-0.603-0.447-1.272-0.748-1.886-1.121c-0.622-0.358-1.226-0.723-1.875-0.953c-5.053-2.23-9.71-2.516-12.828-2.597
							c-1.576-0.068-2.801,0.01-3.633,0.031c-0.833,0.025-1.271,0.039-1.271,0.039s0.434-0.057,1.26-0.163
							c0.828-0.102,2.046-0.293,3.634-0.362c3.138-0.184,7.895-0.299,13.391,1.705c5.554,1.931,10.921,6.751,15.855,12.317
							c2.522,2.739,5.141,5.591,8.314,7.789c3.189,2.186,6.951,3.826,10.939,4.158c1.988,0.169,3.967,0.007,5.85-0.47
							c1.9-0.477,3.629-1.249,5.349-2.261c3.446-1.92,6.545-4.224,9.371-6.58c5.645-4.732,10.183-9.722,14.108-13.77
							c1.93-2.062,3.692-3.919,5.288-5.516c1.577-1.607,2.929-2.996,4.146-4.021C430.979,554.027,432.291,552.866,432.291,552.866z"
							/>
					</g>
				</g>
			</g>
			<path d="M367.256,532.182c-4.101,0.33-8.163,5.882-9.691,9.316c-1.734,3.901-3.318,9.553-7.782,11.609
				c-0.036,0.081-0.089,0.115-0.161,0.103c8.273-7.793,18.873-7.796,30.118-7.798c10.913-0.002,19.346-9.097,30.747-7.259
				c3.992,0.646,12.056,4.232,12.722,8.912c0.075,0.064,0.079,0.062,0.011-0.011c-2.581-3.69-7.96-7.011-12.173-7.42
				c-3.101-0.301-4.987,0.096-7.779,1.352c-1.995,0.896-5.265,1.485-5.265,4.239c0.001,2.066,2.289,3.301,3.512,4.798
				c-1.403,0.772-3.025,0.744-4.406,1.521c-1.032-3.152-1.082-5.764-5.069-5.76c-3.546,0.005-6.607,0.182-9.849,0.96
				c-0.278,1.168,0.696,2.561,0.718,3.885c0.025,1.513-0.204,2.387-1.31,3.378c-1.839-1.913,0.337-5.297-2.931-6.591
				c-2.328-0.922-6.245-0.408-8.608,0.056c-2.522,0.496-5.017,1.438-7.505,1.998c-1.306,0.295-2.587,0.487-3.861,0.798
				c-1.851,0.452-1.949,0.693-1.842,2.753c3.254,2.021,7.601,0.302,10.77-0.532c1.847-0.487,3.704-0.498,5.742-0.596
				c1.922-0.092,4.102,0.512,5.972,0.195c0.665-1.265,0.958-3.081,0.769-4.56c1.518,2.255,1.604,3.904,4.476,4.97
				c1.134,0.42,2.691,0.942,3.914,0.932c1.846-0.018,1.76-0.661,2.842-1.826c3.817-4.104,10.691-2.65,15.984-2.65
				c2.37,0,6.001,0.676,8.013-0.56c1.917-1.179,2.502-4.641,0.951-6.3c3.207-0.209,4.481,0.542,6.825,2.433
				c2.073,1.673,4.392,2.529,6.625,3.815c1.955,1.126,4.35,3.35,2.184,5.27c-1.696,1.502-4.031,2.43-5.823,4.054
				c-2.376,2.152-4.162,4.841-6.522,7.081c-2.664,2.527-5.191,5.177-7.557,7.852c0.075-2.825,2.055-6.321,3.923-8.506
				c2.586-3.023,3.87-4.412,3.866-8.562c-0.388,3.405-7.567,4.679-9.918,5.494c-4.653,1.612-4.57,5.655-5.762,9.702
				c-2.024-0.193-1.444-3.986-2.245-5.148c-1.183-1.713-4.696-1.01-6.487-0.744c-1.952,0.288-4.043,0.489-5.076,2.335
				c-0.71,1.264-1.868,4.074-1.809,5.57c-1.221-1.854-1.23-4.207-1.343-6.428c-2.529-0.473-5.207,1.57-7.286,2.72
				c-2.898,1.604-3.028,3.382-4.383,5.995c-0.349-1.554,0.24-5.531-0.783-6.699c-1.062-1.211-5.233-0.617-6.868-0.521
				c-0.461,0.727-0.75,1.479-0.819,2.374c-0.055-0.404-0.293-1.113-0.359-1.634c-5.466,0.239-10.755-1.204-15.62-3.015
				c-5.193-1.933-10.29-3.758-16.226-3.172c-0.83,0.082-1.708,0.31-2.572,0.354c-0.486-1.709,3.288-3.884,4.444-4.962
				c1.627-1.517,3.259-3.079,4.798-4.561c3.336-3.21,6.335-6.453,9.178-10.016c1.949-2.442,3.99-5.103,6.381-7.222
				c1.226-1.085,2.479-1.968,3.913-2.608c1.81-0.81,3.605-0.689,5.358-1.352"/>
			<g>
				<g>
					<g>
						<path d="M367.628,601.316c0,0-0.215,0.311-0.629,0.911c-0.355,0.636-0.814,1.613-1.101,2.994
							c-0.312,1.354-0.722,3.126-1.938,4.829c-0.593,0.841-1.316,1.686-2.2,2.497c-0.49,0.346-0.954,0.774-1.532,1.055
							c-0.551,0.294-1.108,0.576-1.619,0.918c-0.503,0.348-0.918,0.783-1.106,1.331c-0.202,0.55-0.25,1.227-0.16,1.873
							c0.161,1.328,0.867,2.685,1.101,4.358c0.128,0.82,0.005,1.781-0.227,2.569c-0.203,0.751-0.35,1.538-0.464,2.357
							c-0.239,1.635-0.352,3.389-0.8,5.215c-0.1,0.456-0.281,0.912-0.423,1.374c-0.207,0.438-0.39,0.91-0.646,1.317
							c-0.466,0.857-1.043,1.648-1.681,2.416c-0.308,0.392-0.689,0.734-1.036,1.106c-0.404,0.327-0.768,0.695-1.235,0.979
							l-0.699,0.43c-0.254,0.122-0.541,0.215-0.814,0.319c-0.277,0.121-0.555,0.155-0.833,0.196
							c-0.275,0.055-0.564,0.071-0.86,0.065c-0.582,0.024-1.216-0.116-1.812-0.378c-0.592-0.302-1.092-0.773-1.443-1.317
							c-0.652-1.108-0.81-2.313-0.783-3.448c0.003-0.575,0.082-1.139,0.174-1.704c0.113-0.573,0.254-1.093,0.359-1.575
							c0.1-0.481,0.148-0.915,0.104-1.305c-0.043-0.388-0.222-0.761-0.439-1.145l-0.042-0.074c-0.154-0.247-0.411-0.575-0.783-0.948
							c-0.356-0.39-0.789-0.774-1.207-1.397c-0.108-0.134-0.202-0.326-0.291-0.522l-0.132-0.291
							c-0.031-0.114-0.054-0.239-0.076-0.361c-0.051-0.252-0.072-0.498-0.038-0.705c0.01-0.218,0.045-0.44,0.124-0.666
							c0.122-0.457,0.401-0.866,0.691-1.2c0.298-0.314,0.622-0.578,0.917-0.786c0.606-0.429,1.104-0.779,1.363-1.16
							c0.236-0.394,0.285-0.775,0.177-1.488c-0.222-1.478-0.424-3.006-0.994-4.215c-0.199-0.434-0.454-0.792-0.738-1.015
							c-0.296-0.232-0.56-0.317-1.024-0.361c-1.084-0.104-2.144-0.091-3.323-0.212c-0.583-0.066-1.227-0.169-1.897-0.521
							c-0.689-0.335-1.249-1.134-1.38-1.841c-0.123-0.687-0.104-1.316-0.013-1.874l0.033-0.21c0.011-0.073,0.004-0.02,0.007-0.036
							c0.001,0.002,0.003-0.003,0.004-0.007l0.009-0.025l-0.031-0.001l-0.366-0.019c-0.2-0.001-0.438-0.073-0.65-0.116
							c-0.443-0.143-0.906-0.403-1.205-0.759c-0.303-0.341-0.503-0.701-0.643-1.018c-0.29-0.643-0.467-1.196-0.694-1.698
							c-0.212-0.497-0.493-0.937-0.774-1.506c-0.535-1.059-1.017-2.201-1.048-3.453c-0.045-1.259,0.486-2.387,1.091-3.218
							c-0.02,0.03-0.033,0.049-0.046,0.067c0.319-0.543,0.775-0.929,0.961-1.119c0.181-0.186,0.205-0.271,0.27-0.482l0.025-0.095
							c0.204-0.559,0.026-1.333-0.042-2.329c-0.014-0.249-0.004-0.512,0.033-0.785c0.033-0.264,0.106-0.479,0.159-0.72
							c0.045-0.235,0.142-0.464,0.236-0.691c0.084-0.23,0.188-0.452,0.326-0.659c0.496-0.859,1.234-1.503,1.95-1.997
							c0.362-0.243,0.722-0.473,1.079-0.68l0.138-0.083c0.065-0.046,0.153-0.082,0.209-0.104l0.288-0.119l0.57-0.229
							c1.501-0.588,2.945-1.121,4.142-1.878c1.198-0.751,1.972-1.821,1.492-2.986c-0.173-0.575-0.551-1.12-0.95-1.625
							c-0.185-0.275-0.419-0.448-0.63-0.673c-0.254-0.186-0.481-0.387-0.76-0.556c-0.525-0.35-1.103-0.686-1.643-1.07
							c-0.522-0.418-1.067-0.86-1.384-1.474c-0.347-0.581-0.539-1.222-0.571-1.876c-0.041-0.323,0.054-0.639,0.08-0.95
							c0.083-0.297,0.179-0.588,0.286-0.863c0.497-1.09,1.118-1.89,1.691-2.785c1.282-1.502,2.128-3.091,2.135-4.617
							c0.084-1.519-0.423-2.778-1.094-3.571c-0.674-0.8-1.333-1.292-1.73-1.658c-0.404-0.365-0.612-0.552-0.612-0.552
							s0.217,0.175,0.64,0.518c0.418,0.347,1.096,0.798,1.829,1.585c0.732,0.779,1.335,2.093,1.316,3.685
							c0.071,1.618-0.785,3.391-2.035,4.968c-0.468,0.812-1.111,1.734-1.495,2.692c-0.42,0.966-0.331,2.068,0.263,2.995
							c0.568,0.934,1.675,1.476,2.84,2.174c0.293,0.164,0.579,0.391,0.871,0.597c0.261,0.249,0.579,0.493,0.787,0.783
							c0.461,0.551,0.924,1.155,1.193,1.931c0.322,0.735,0.303,1.751-0.125,2.525c-0.413,0.78-1.056,1.36-1.722,1.811
							c-1.346,0.901-2.842,1.484-4.308,2.105l-0.545,0.235l-0.271,0.119c-0.038,0.017-0.043,0.02-0.061,0.032l-0.122,0.077
							c-0.342,0.21-0.668,0.43-0.985,0.653c-0.625,0.455-1.158,0.962-1.497,1.582c-0.319,0.6-0.563,1.408-0.508,2.059
							c0.03,0.72,0.365,1.725,0.016,2.899c0.007-0.025,0.014-0.051,0.025-0.095c-0.069,0.396-0.299,0.92-0.643,1.264
							c-0.325,0.34-0.529,0.508-0.734,0.862l-0.046,0.068c-0.429,0.652-0.747,1.376-0.701,2.199c0.03,0.821,0.405,1.746,0.911,2.698
							c0.227,0.451,0.58,0.994,0.845,1.589c0.269,0.579,0.477,1.181,0.704,1.66c0.244,0.513,0.433,0.703,0.737,0.797
							c0.103,0.006,0.173,0.05,0.299,0.044l0.174,0.008l0.044,0.002c-0.023,0.005,0.146-0.007,0.151-0.012l0.25-0.035
							c0.671-0.087,1.334-0.206,2.005-0.323c-0.115,0.483-0.23,0.97-0.346,1.46c-0.058,0.245-0.12,0.49-0.167,0.746l-0.066,0.345
							l-0.025,0.168c-0.076,0.452-0.058,0.871-0.004,1.215c0.093,0.32,0.193,0.458,0.461,0.608c0.275,0.145,0.713,0.248,1.204,0.294
							c0.982,0.1,2.131,0.091,3.264,0.193c0.644,0.035,1.492,0.28,2.068,0.773c0.598,0.48,0.986,1.086,1.261,1.674
							c0.759,1.651,0.92,3.271,1.153,4.767c0.141,0.761,0.113,1.966-0.484,2.801c-0.582,0.826-1.322,1.254-1.832,1.628
							c-0.539,0.38-0.853,0.695-0.936,1.024c-0.105,0.421-0.066,0.587,0.174,0.986c0.514,0.791,1.449,1.454,2.054,2.556
							c-0.017-0.029-0.033-0.06-0.041-0.073c0.319,0.56,0.606,1.188,0.677,1.882c0.071,0.686-0.029,1.326-0.153,1.887
							c-0.125,0.511-0.249,1.02-0.372,1.525c-0.083,0.477-0.16,0.956-0.168,1.428c-0.047,0.943,0.108,1.867,0.488,2.539
							c0.205,0.318,0.459,0.56,0.765,0.733c0.328,0.136,0.69,0.251,1.11,0.236c0.204,0.009,0.412,0.005,0.627-0.037
							c0.213-0.026,0.431-0.045,0.607-0.132c0.186-0.074,0.376-0.122,0.564-0.205l0.556-0.329c0.375-0.21,0.706-0.535,1.056-0.8
							c0.313-0.327,0.658-0.615,0.943-0.966c0.59-0.678,1.14-1.394,1.574-2.152c0.247-0.369,0.399-0.756,0.594-1.133
							c0.131-0.406,0.301-0.787,0.403-1.205c0.454-1.65,0.621-3.377,0.914-5.058c0.143-0.841,0.323-1.675,0.568-2.482
							c0.24-0.763,0.338-1.405,0.264-2.141c-0.137-1.437-0.801-2.841-0.951-4.378c-0.073-0.775-0.007-1.536,0.285-2.265
							c0.287-0.74,0.878-1.288,1.455-1.65c0.586-0.361,1.175-0.628,1.721-0.894c0.548-0.238,0.987-0.621,1.46-0.923
							c0.858-0.729,1.598-1.515,2.211-2.311c1.232-1.575,1.712-3.265,2.091-4.614c0.353-1.373,0.874-2.354,1.263-2.97
							C367.395,601.616,367.628,601.316,367.628,601.316z"/>
					</g>
				</g>
			</g>
			<g>
				<g>
					<g>
						<path d="M419.992,578.581c0,0,0.13,0.195,0.377,0.568c0.203,0.389,0.568,0.994,0.543,1.905
							c-0.085,1.959-2.667,3.42-3.045,6.326c-0.315,1.414-0.369,3.19-1.39,4.927c-0.549,0.886-1.263,1.503-1.977,2.183
							c-0.743,0.629-1.51,1.277-2.367,1.858c-0.408,0.313-0.867,0.581-1.331,0.852l-0.7,0.411l-0.787,0.353
							c-1.068,0.424-2.179,0.645-3.223,0.874c-1.048,0.227-2.033,0.488-2.898,0.938c-0.92,0.51-1.9,1.153-3.008,1.691
							c-1.095,0.549-2.398,0.917-3.617,0.985c-1.119,0.068-2.217,0.141-3.276,0.243c-0.536,0.035-1.053,0.116-1.568,0.185
							c-0.515,0.072-1.029,0.124-1.523,0.242c-0.499,0.101-0.992,0.201-1.479,0.301c-0.522,0.099-1.039,0.197-1.549,0.294
							c-2.057,0.299-3.966,0.402-5.852,0.246c-0.962-0.08-1.92-0.457-2.668-1.001c-0.753-0.566-1.217-1.206-1.754-1.688
							c-1.049-1.009-2.197-1.62-3.332-1.753c-0.565-0.101-1.1-0.027-1.597,0.006c-0.479,0.124-0.945,0.178-1.323,0.354
							c-0.392,0.139-0.735,0.279-1.012,0.446c-0.286,0.15-0.53,0.275-0.704,0.413c-0.365,0.255-0.557,0.389-0.557,0.389
							s0.175-0.156,0.508-0.454c0.16-0.16,0.39-0.314,0.664-0.498c0.264-0.202,0.598-0.383,0.987-0.57
							c0.374-0.223,0.849-0.33,1.35-0.511c0.523-0.09,1.096-0.223,1.733-0.174c1.27,0.019,2.707,0.637,3.911,1.64
							c0.623,0.486,1.166,1.101,1.774,1.478c0.614,0.37,1.321,0.613,2.14,0.63c1.655,0.034,3.565-0.164,5.444-0.528
							c0.968-0.231,1.96-0.468,2.973-0.709c0.521-0.143,1.059-0.215,1.6-0.307c0.54-0.089,1.088-0.188,1.637-0.236
							c1.104-0.134,2.214-0.227,3.337-0.31c1.027-0.079,1.953-0.346,2.926-0.821c0.97-0.469,1.905-1.073,2.956-1.642
							c1.143-0.578,2.329-0.848,3.407-1.058c1.085-0.209,2.085-0.386,2.977-0.705l0.648-0.262l0.645-0.348
							c0.429-0.229,0.857-0.452,1.255-0.732c0.825-0.505,1.576-1.08,2.312-1.636c0.691-0.586,1.4-1.153,1.828-1.772
							c0.905-1.308,1.123-2.965,1.559-4.453c0.113-0.374,0.25-0.739,0.372-1.093c0.171-0.345,0.328-0.684,0.5-0.998
							c0.385-0.613,0.814-1.11,1.211-1.567c0.804-0.896,1.467-1.666,1.588-2.471c0.111-0.797-0.161-1.432-0.319-1.835
							C420.097,578.79,419.992,578.581,419.992,578.581z"/>
					</g>
				</g>
			</g>
			<g>
				<g>
					<g>
						<path d="M415.706,515.969c0,0,0.429,0.076,1.246,0.222c0.815,0.152,2.019,0.39,3.53,0.89c1.482,0.53,3.31,1.536,4.64,3.454
							c1.25,1.993,2.251,4.207,3.882,6.528c0.759,1.187,1.641,2.367,2.425,3.715c0.805,1.356,1.648,2.676,2.529,4.027
							c0.962,1.319,1.978,2.684,3.062,4.09c0.518,0.726,1.043,1.462,1.575,2.208c0.264,0.379,0.512,0.802,0.77,1.207
							c0.246,0.413,0.448,0.841,0.677,1.266c0.84,1.7,1.56,3.414,2.811,4.619c0.328,0.278,0.61,0.617,1.01,0.81
							c0.382,0.221,0.712,0.472,1.184,0.663c0.871,0.422,1.8,0.79,2.753,1.277c0.476,0.207,0.951,0.545,1.427,0.82
							c0.23,0.171,0.453,0.365,0.679,0.55c0.232,0.18,0.448,0.377,0.628,0.625l0.567,0.705c0.154,0.255,0.277,0.529,0.415,0.796
							c0.312,0.53,0.419,1.097,0.575,1.659c0.288,1.128,0.332,2.311,0.173,3.512c-0.239,1.17-0.667,2.314-1.243,3.274
							c-0.64,1.164-1.357,2.19-1.906,3.226c-0.593,1.023-0.913,2.085-1.219,3.215c-0.547,2.267-0.718,4.696-1.473,7.04
							c-0.423,1.19-0.827,2.197-1.272,3.253c-0.432,1.048-0.91,2.073-1.425,3.061c-1.022,1.968-2.392,3.781-4.146,5.014
							c-0.871,0.582-1.79,1.089-2.842,1.311c-0.519,0.117-1.074,0.143-1.622,0.064c-0.542-0.112-1.087-0.312-1.501-0.662
							c-0.87-0.668-1.257-1.596-1.525-2.417c-0.24-0.889-0.334-1.541-0.635-2.095c-0.297-0.532-0.662-0.791-1.207-0.744
							c-0.535,0.029-1.105,0.255-1.617,0.484c-1.032,0.489-1.922,1.016-2.689,1.402l-0.791,0.4l0.278-0.791
							c0.161-0.458,0.37-0.69,0.556-0.971c0.188-0.259,0.369-0.507,0.542-0.745c0.172-0.235,0.323-0.463,0.463-0.683
							c0.133-0.225,0.255-0.442,0.302-0.584c0.058-0.161,0.1-0.335,0.047-0.492c-0.104-0.12-0.264-0.162-0.398-0.217
							c-0.294-0.105-0.713-0.223-1.019-0.309c-1.306-0.363-2.086-0.556-2.632-0.83c0.007,0.004,0.009,0.004,0.01,0.005
							c-1.61-0.644-3.009-1.006-3.954-1.683c-0.472-0.33-0.799-0.744-0.964-1.153c-0.077-0.209-0.135-0.404-0.14-0.596
							c-0.032-0.188-0.021-0.36-0.002-0.518c0.062-0.634,0.23-1.019,0.321-1.252c0.094-0.234,0.129-0.323,0.129-0.323
							s-0.03,0.091-0.111,0.33c-0.081,0.235-0.228,0.628-0.267,1.249c-0.013,0.155-0.018,0.324,0.019,0.504
							c0.011,0.184,0.073,0.369,0.152,0.565c0.17,0.383,0.487,0.763,0.95,1.067c0.929,0.628,2.314,0.951,3.964,1.565l0.011,0.005
							c0.494,0.186,1.302,0.323,2.626,0.612c0.352,0.082,0.66,0.14,1.149,0.292c0.255,0.078,0.503,0.182,0.691,0.387
							c0.109,0.262,0.092,0.563,0.004,0.869c-0.205,0.641-0.487,1.031-0.823,1.555c-0.166,0.243-0.338,0.497-0.518,0.762
							c-0.166,0.25-0.366,0.559-0.427,0.759c-0.1-0.076-0.2-0.152-0.513-0.392c0.72-0.438,1.558-1.017,2.628-1.604
							c0.547-0.277,1.15-0.587,1.949-0.682c0.191-0.039,0.419,0.002,0.633,0.009c0.213,0.06,0.455,0.098,0.651,0.225
							c0.208,0.116,0.405,0.248,0.553,0.423c0.176,0.161,0.292,0.344,0.406,0.531c0.449,0.73,0.615,1.634,0.832,2.286
							c0.25,0.682,0.605,1.368,1.159,1.74c1.061,0.834,2.861,0.19,4.305-0.889c2.94-2.155,4.484-6.433,6.002-10.632
							c0.648-2.083,0.795-4.461,1.361-6.939c0.309-1.221,0.718-2.54,1.371-3.675c0.613-1.162,1.336-2.199,1.91-3.25
							c0.532-0.887,0.837-1.774,1.039-2.676c0.115-0.901,0.096-1.857-0.134-2.758c-0.388-1.857-1.516-3.146-3.297-3.975
							c-0.845-0.448-1.78-0.837-2.692-1.295c-0.452-0.189-0.93-0.522-1.39-0.81c-0.487-0.263-0.853-0.682-1.254-1.047
							c-1.541-1.566-2.261-3.508-3.031-5.135c-0.203-0.399-0.386-0.814-0.602-1.196c-0.229-0.375-0.43-0.747-0.675-1.12
							c-0.501-0.745-0.995-1.479-1.483-2.204c-1.029-1.419-2.017-2.832-2.958-4.222c-0.881-1.453-1.706-2.861-2.422-4.178
							c-0.712-1.341-1.55-2.564-2.258-3.781c-0.713-1.227-1.439-2.36-1.971-3.539c-0.282-0.575-0.557-1.133-0.823-1.674
							c-0.273-0.51-0.509-1.024-0.785-1.491c-1.156-1.858-2.824-2.907-4.248-3.512c-1.451-0.572-2.638-0.885-3.44-1.086
							C416.129,516.072,415.706,515.969,415.706,515.969z"/>
					</g>
				</g>
			</g>
			<g>
				<g>
					<g>
						<path d="M358.31,622c0,0-0.267-0.512-0.751-1.435c-0.238-0.465-0.548-1.023-0.82-1.743c-0.25-0.698-0.506-1.703-0.071-2.73
							c0.383-1.027,1.292-1.793,2.132-2.489c0.841-0.67,1.693-1.437,2.575-2.25c0.419-0.423,0.849-0.856,1.288-1.3
							c0.37-0.458,0.822-0.935,1.143-1.393c0.588-0.879,0.609-2.033,0.676-3.546c0.051-0.748,0.183-1.618,0.613-2.4
							c0.407-0.788,1.125-1.362,1.677-1.751c1.093-0.789,2.262-1.564,3.583-1.972c1.314-0.436,2.746-0.361,3.88,0.068
							c1.163,0.438,1.97,1.091,2.74,1.648c1.456,1.176,2.638,2.009,3.629,2.303c0.476,0.198,0.877,0.225,1.146,0.281
							c0.27,0.049,0.413,0.074,0.413,0.074s-0.144,0.003-0.418,0.007c-0.274-0.005-0.691,0.043-1.212-0.074
							c-0.529-0.065-1.168-0.262-1.859-0.578c-0.707-0.302-1.428-0.762-2.23-1.226c-0.789-0.438-1.675-0.967-2.605-1.199
							c-0.939-0.235-1.945-0.201-2.952,0.207c-1.015,0.393-1.999,1.107-3.034,1.921c-1.044,0.739-1.402,1.471-1.477,2.825
							c-0.047,0.656-0.047,1.398-0.179,2.175c-0.127,0.78-0.412,1.572-0.884,2.251c-0.466,0.618-0.953,1.073-1.421,1.587
							c-0.496,0.439-0.981,0.87-1.455,1.291c-0.984,0.784-1.938,1.498-2.875,2.1c-0.894,0.595-1.664,1.13-2.034,1.838
							c-0.41,0.676-0.347,1.473-0.214,2.163c0.148,0.696,0.361,1.301,0.517,1.796C358.158,621.442,358.31,622,358.31,622z"/>
					</g>
				</g>
			</g>
			<g>
				<g>
					<g>
						<path d="M419.619,578.023c0,0,0.129,0.034,0.371,0.127c0.251,0.076,0.588,0.263,0.945,0.657
							c0.341,0.414,0.546,1.138,0.429,1.857c-0.125,0.69-0.436,1.326-0.812,1.887c-0.771,1.101-1.625,1.78-2.118,2.366
							c-0.13,0.146-0.249,0.282-0.323,0.412c-0.086,0.129-0.179,0.249-0.208,0.354c-0.093,0.226-0.146,0.353-0.146,0.353
							c0.028,0.021-0.364-0.513-0.197-1.493c0.14-0.964,0.744-2.089,1.423-3.064c0.331-0.49,0.633-0.906,0.844-1.268
							c0.18-0.35,0.274-0.648,0.255-0.989c-0.052-0.326-0.162-0.653-0.289-0.852C419.682,578.148,419.619,578.023,419.619,578.023z"
							/>
					</g>
				</g>
			</g>
			<g>
				<g>
					<g>
						<path d="M427.072,580.818c0,0-0.637,0.082-1.67,0c-1.014-0.089-2.379-0.4-3.682-0.729c-0.75-0.175-1.511-0.464-2.136-0.855
							c-0.619-0.434-1.137-0.936-1.36-1.506c-0.152-0.247-0.162-0.536-0.205-0.751c-0.051-0.216-0.007-0.409,0.018-0.559
							c0.051-0.299,0.092-0.444,0.092-0.444c0.034-0.024,0.205,0.691,0.866,1.2c0.304,0.27,0.783,0.437,1.291,0.618
							c0.551,0.154,1.154,0.279,1.857,0.444c1.592,0.408,2.724,1.156,3.564,1.683C426.536,580.435,427.072,580.818,427.072,580.818z
							"/>
					</g>
				</g>
			</g>
		</g>
		<path fill="#B7ECED" d="M353.625,566.75c1.802,3.612,6.434,2.398,8.656,5.719c0.501,0.75,0.5,1.328,1.313,1.811
			c0.924,0.55,1.802,0.114,2.781,0.22c1.395,0.151,3.827,1.377,4.222,2.652c0.556,1.797,0.744,4.621,3.631,4.079
			c0.234-0.602,0.246-1.271-0.24-1.731c1.011-1.577,1.434-1.037,3.018-1.618c1.484-0.545,1.195-1.774,1.263-3.113
			c1.743-0.065,2.462,1.712,3.637,2.574c0.586,0.431,1.476,0.766,2.219,0.657c0.899-0.131,1.11-0.635,1.875-1.137
			c0.588,0.753,1.129,1.242,1.847,1.783c0.808,0.608,1.785,0.993,2.561,1.566c0.891,0.657,0.958,1.421,2.223,1.655
			c0.959,0.178,1.985-0.155,2.872-0.712c0.9-0.567,0.761-1.482,1.369-2.034c0.696-0.632,1.962-0.122,2.753,0.037
			c2.188,0.44,2.803-1.38,4.125-2.906c1.027-1.188,2.293-2.441,3.507-3.249c0.873-0.581,1.593-0.67,2.114-1.633
			c0.393-0.726,0.51-1.326,1.098-2.021c1.545-1.823,3.561-0.627,5.382-1.882c1.582-1.089,1.418-2.674,2.493-4
			c0.77-0.948,1.615-1.481,2.781-1.594c0.641-0.062,1.288,0.094,1.875-0.125c0.607-0.227,0.78-0.796,1.487-0.725
			c-0.72,1.303-2.371,2.32-3.46,3.356c-1.141,1.086-2.131,2.394-3.18,3.591c-2.163,2.468-4.515,4.883-6.879,7.118
			c-2.444,2.311-4.996,4.4-7.5,6.628c-2.574,2.29-4.98,4.861-7.941,6.565c-3.28,1.888-7.7,2.022-11.528,1.463
			c-1.932-0.282-3.684-1.102-5.5-1.903c-1.768-0.78-3.393-1.146-5.131-2.062c-3.397-1.79-5.673-4.444-7.994-7.406
			c-2.058-2.626-4.358-4.569-6.965-6.534c-1.794-1.352-3.372-2.809-4.785-4.466"/>
		<g>
			<g>
				<g>
					<path fill="#FFFFFF" d="M352.5,572.25c0,0-0.242-0.035-0.484-0.104c-0.244-0.056-0.482-0.182-0.467-0.338
						c0-0.056,0.095-0.187,0.202-0.233c0.106-0.054,0.245-0.086,0.397-0.101c0.292-0.011,0.478,0.15,0.478,0.15
						s0.147,0.223,0.376,0.312c0.028,0.011,0.057,0.02,0.085,0.026l0.043,0.008l0.011,0.002h0.005h0.002l-0.166-0.065l0,0
						l0.003,0.001l0.022,0.011c0.061,0.028,0.126,0.053,0.197,0.072c0.071,0.02,0.146,0.033,0.224,0.04
						c0.044-0.006,0.046-0.006,0.05,0.009c-0.001,0.023-0.249,0.06-0.491,0.122C352.741,572.207,352.5,572.25,352.5,572.25z"/>
				</g>
			</g>
		</g>
		<g>
			<g>
				<g>
					<path fill="#FFFFFF" d="M354.375,575.625c0.01,0.023-0.991,0.041-1.074-0.396c-0.009-0.171,0.23-0.336,0.469-0.442
						c0.24-0.107,0.48-0.162,0.48-0.162s0.24,0.065,0.49,0.134c0.246,0.076,0.489,0.165,0.493,0.273
						C355.27,575.142,354.366,575.601,354.375,575.625z"/>
				</g>
			</g>
		</g>
		<g>
			<g>
				<g>
					<path fill="#FFFFFF" d="M352.375,604c0,0,0.182-0.162,0.454-0.191c0.286-0.016,0.566,0.068,0.607,0.251
						c0.049,0.334-0.935,0.44-0.935,0.44s-0.242-0.031-0.487-0.062c-0.121-0.018-0.244-0.029-0.336-0.027c-0.044,0-0.081,0-0.11,0
						c-0.009,0-0.033,0.002-0.021-0.001c0.049-0.011,0.088-0.018,0.106-0.017c0.208-0.012,0.41-0.125,0.439-0.126
						c0.004,0.006,0.112-0.076,0.18-0.148C352.334,604.047,352.375,604,352.375,604z"/>
				</g>
			</g>
		</g>
		<g>
			<g>
				<g>
					<path fill="#FFFFFF" d="M351.125,630.625c0,0,0.316-1.218,1.292-1.625c0.51-0.185,1.046-0.127,1.447,0.037
						c0.396,0.149,0.635,0.338,0.635,0.338s-0.151,0.29-0.388,0.602c-0.241,0.295-0.547,0.676-0.976,0.827
						C352.275,631.163,351.125,630.625,351.125,630.625z"/>
				</g>
			</g>
		</g>
		<g>
			<g>
				<g>
					<path fill="#FFFFFF" d="M347.875,626.25c0,0,0.237-0.069,0.481-0.142c0.243-0.067,0.482-0.142,0.515-0.085
						c0.071,0.116-0.075,0.347-0.25,0.527c-0.174,0.183-0.371,0.324-0.371,0.324s-0.238,0.07-0.481,0.142
						c-0.243,0.067-0.482,0.142-0.515,0.085c-0.071-0.116,0.075-0.347,0.25-0.527C347.678,626.392,347.875,626.25,347.875,626.25z"
						/>
				</g>
			</g>
		</g>
		<g>
			<g>
				<g>
					<path fill="#FFFFFF" d="M340.625,608.625c0,0,1.022,0.357,1.105,1.011c0.057,0.253-0.134,0.532-0.33,0.785
						c-0.197,0.249-0.4,0.454-0.4,0.454s-0.256-0.045-0.537-0.2c-0.28-0.152-0.588-0.432-0.659-0.796
						C339.728,609.281,340.624,608.625,340.625,608.625z"/>
				</g>
			</g>
		</g>
		<g>
			<g>
				<g>
					<path fill="#FFFFFF" d="M340.75,598.75c0,0,0.048,0.274-0.032,0.656c-0.074,0.403-0.312,0.817-0.71,1.058
						c-0.36,0.198-0.801,0.158-1.129,0.089c-0.343-0.071-0.629-0.178-0.629-0.178s-0.003-0.285,0.112-0.644
						c0.121-0.373,0.339-0.765,0.703-0.964c0.307-0.19,0.725-0.14,1.042-0.115C340.443,598.688,340.75,598.75,340.75,598.75z"/>
				</g>
			</g>
		</g>
		<g>
			<g>
				<g>
					<path fill="#FFFFFF" d="M356.375,591.5c0,0,0.971,0.196,0.971,0.438s-0.971,0.438-0.971,0.438s-0.971-0.196-0.971-0.438
						S356.375,591.5,356.375,591.5z"/>
				</g>
			</g>
		</g>
		<g>
			<g>
				<g>
					<path fill="#FFFFFF" d="M364.125,580.875c0,0,0.015,0.258,0.056,0.506c0.035,0.241,0.117,0.491,0.061,0.523
						c-0.118,0.093-0.992-0.404-0.992-0.404s-0.539-0.852-0.191-1.136c0.192-0.137,0.496-0.043,0.719,0.134
						C363.999,580.666,364.125,580.875,364.125,580.875z"/>
				</g>
			</g>
		</g>
		<g>
			<g>
				<g>
					<path fill="#FFFFFF" d="M368.875,577.875c0,0,0.249,0.055,0.512,0.199c0.261,0.142,0.535,0.387,0.567,0.686
						c0.011,0.558-0.954,0.989-0.954,0.989s-0.978-0.41-0.986-0.892c-0.028-0.216,0.191-0.438,0.413-0.635
						C368.649,578.03,368.875,577.875,368.875,577.875z"/>
				</g>
			</g>
		</g>
		<g>
			<g>
				<g>
					<path fill="#FFFFFF" d="M378.5,583.625c0,0-0.971-0.196-0.971-0.438s0.971-0.438,0.971-0.438s0.971,0.196,0.971,0.438
						S378.5,583.625,378.5,583.625z"/>
				</g>
			</g>
		</g>
		<g>
			<g>
				<g>
					<path fill="#FFFFFF" d="M385.625,587.625c0,0-0.221,0.126-0.508,0.192c-0.286,0.069-0.647,0.07-0.866-0.131
						c-0.161-0.143-0.144-0.458-0.107-0.753c0.039-0.293,0.105-0.559,0.105-0.559s0.221-0.126,0.509-0.193
						c0.286-0.068,0.647-0.069,0.865,0.132c0.161,0.143,0.144,0.458,0.107,0.753C385.692,587.359,385.625,587.625,385.625,587.625z"
						/>
				</g>
			</g>
		</g>
		<g>
			<g>
				<g>
					<path fill="#FFFFFF" d="M381,596.125c0,0-0.076-0.246-0.069-0.562c0.004-0.313,0.104-0.703,0.387-0.921
						c0.201-0.162,0.538-0.115,0.85-0.052c0.31,0.066,0.582,0.159,0.582,0.159s0.076,0.246,0.069,0.562
						c-0.005,0.313-0.105,0.703-0.388,0.921c-0.201,0.162-0.538,0.116-0.85,0.052C381.272,596.218,381,596.125,381,596.125z"/>
				</g>
			</g>
		</g>
		<g>
			<g>
				<g>
					<path fill="#FFFFFF" d="M365,596.125c0,0,0.297-0.165,0.772-0.277c0.478-0.131,1.118-0.133,1.738,0.108
						c0.599,0.28,1.036,0.744,1.274,1.173c0.248,0.416,0.341,0.746,0.341,0.746s-0.347,0.084-0.809,0.104
						c-0.459,0.005-1.049,0.01-1.573-0.239c-0.539-0.206-0.939-0.637-1.253-0.964C365.185,596.434,365,596.125,365,596.125z"/>
				</g>
			</g>
		</g>
		<g>
			<g>
				<g>
					<path fill="#FFFFFF" d="M363.625,600.375c0,0-0.971-0.112-0.971-0.25s0.971-0.25,0.971-0.25s0.971,0.112,0.971,0.25
						S363.625,600.375,363.625,600.375z"/>
				</g>
			</g>
		</g>
		<g>
			<g>
				<g>
					<path fill="#FFFFFF" d="M360.5,606.25c0,0,0.251-0.054,0.563-0.017c0.31,0.034,0.688,0.175,0.872,0.476
						c0.279,0.601-0.435,1.416-0.435,1.416s-1.081-0.066-1.294-0.533c-0.131-0.197-0.039-0.506,0.065-0.798
						C360.376,606.506,360.5,606.25,360.5,606.25z"/>
				</g>
			</g>
		</g>
		<g>
			<g>
				<g>
					<path fill="#FFFFFF" d="M347.625,590.125c0,0,0.249-0.078,0.567-0.076c0.313-0.003,0.711,0.092,0.923,0.356
						c0.351,0.47-0.115,1.47-0.115,1.47s-1.062,0.2-1.446-0.315c-0.175-0.213-0.136-0.543-0.079-0.856
						C347.535,590.394,347.625,590.125,347.625,590.125z"/>
				</g>
			</g>
		</g>
		<g>
			<g>
				<g>
					<path fill="#FFFFFF" d="M343.5,574.625c0,0,0.952-0.238,1.056,0.003c0.104,0.242-0.681,0.872-0.681,0.872
						s-0.952,0.238-1.056-0.003C342.715,575.255,343.5,574.625,343.5,574.625z"/>
				</g>
			</g>
		</g>
		<g>
			<g>
				<g>
					<path fill="#FFFFFF" d="M337.5,576.375c0,0-0.165-0.185-0.287-0.43c-0.135-0.238-0.176-0.56,0.006-0.739
						c0.208-0.175,0.554-0.122,0.789,0.052c0.237,0.16,0.367,0.367,0.367,0.367s0.01,0.262,0.053,0.509
						c0.03,0.241,0.145,0.483,0.1,0.507C338.456,576.697,337.5,576.375,337.5,576.375z"/>
				</g>
			</g>
		</g>
		<g>
			<g>
				<g>
					<path fill="#FFFFFF" d="M341.5,582.25c0,0-0.287,0.051-0.593,0.082c-0.285,0.037-0.675,0.027-0.918-0.19
						c-0.285-0.28-0.375-0.692-0.314-1.073c0.052-0.357,0.2-0.568,0.2-0.568s0.272,0.006,0.596,0.012
						c0.27,0.008,0.632-0.004,0.814,0.184c0.25,0.225,0.322,0.599,0.323,0.965C341.602,582.005,341.5,582.25,341.5,582.25z"/>
				</g>
			</g>
		</g>
		<g>
			<g>
				<g>
					<path fill="#FFFFFF" d="M397.625,594.625c0,0,0.145-0.206,0.407-0.371c0.282-0.167,0.581-0.277,0.807-0.181
						c0.188,0.083,0.256,0.382,0.306,0.639c0.056,0.284,0.106,0.538,0.106,0.538s-0.136,0.213-0.384,0.393
						c-0.259,0.187-0.59,0.308-0.842,0.194c-0.217-0.095-0.301-0.417-0.324-0.671C397.661,594.881,397.625,594.625,397.625,594.625z
						"/>
				</g>
			</g>
		</g>
		<g>
			<g>
				<g>
					<path fill="#FFFFFF" d="M389.875,599c0,0-0.142-1.112,0.427-1.552c0.242-0.21,0.621-0.215,0.957-0.183
						c0.334,0.033,0.617,0.109,0.617,0.109s0.064,0.265,0.044,0.602c-0.018,0.336-0.128,0.751-0.426,1.005
						C390.935,599.413,389.875,599,389.875,599z"/>
				</g>
			</g>
		</g>
		<g>
			<g>
				<g>
					<path fill="#FFFFFF" d="M366.875,590c0,0,0.923-0.51,1.368-0.158c0.224,0.226,0.248,0.606,0.189,0.896
						c-0.056,0.295-0.181,0.513-0.181,0.513c-0.015-0.021-1.04,0.322-1.279,0.06C366.607,591.026,366.874,590,366.875,590z"/>
				</g>
			</g>
		</g>
		<g>
			<g>
				<g>
					<path fill="#FFFFFF" d="M400.5,592.375c0,0-0.992-0.328-0.91-0.957c0.087-0.341,0.396-0.566,0.746-0.61
						c0.324-0.045,0.54,0.067,0.54,0.067s0.117,0.26,0.28,0.452c0.145,0.173,0.388,0.349,0.348,0.425
						C401.469,591.992,400.5,592.375,400.5,592.375z"/>
				</g>
			</g>
		</g>
		<g>
			<g>
				<g>
					<path fill="#FFFFFF" d="M407.375,591.625c0,0,0.971,0.363,0.971,0.812s-0.971,0.812-0.971,0.812s-0.971-0.363-0.971-0.812
						S407.375,591.625,407.375,591.625z"/>
				</g>
			</g>
		</g>
		<g>
			<g>
				<g>
					<path fill="#FFFFFF" d="M397.375,583.125c0,0-0.288-1.011,0.066-1.294c0.505-0.347,1.335,0.283,1.309,0.294
						c-0.024,0.013,0.165,1.056-0.11,1.234C398.26,583.662,397.375,583.125,397.375,583.125z"/>
				</g>
			</g>
		</g>
		<g>
			<g>
				<g>
					<path fill="#FFFFFF" d="M388.25,583.5c0,0,0.158-0.188,0.372-0.342c0.21-0.154,0.491-0.276,0.65-0.166
						c0.154,0.122,0.136,0.424,0.057,0.673c-0.077,0.252-0.204,0.46-0.204,0.46s-0.219,0.127-0.448,0.26
						c-0.23,0.126-0.456,0.256-0.532,0.188c-0.086-0.057-0.043-0.309,0.003-0.567C388.2,583.747,388.25,583.5,388.25,583.5z"/>
				</g>
			</g>
		</g>
		<g>
			<g>
				<g>
					<path fill="#FFFFFF" d="M380.25,578c0,0,0.144-0.191,0.362-0.334c0.213-0.147,0.521-0.225,0.684-0.087
						c0.138,0.163,0.06,0.471-0.087,0.684c-0.143,0.219-0.334,0.362-0.334,0.362s-0.251,0.063-0.49,0.151
						c-0.243,0.083-0.454,0.211-0.462,0.176c-0.035-0.009,0.093-0.22,0.176-0.462C380.186,578.251,380.25,578,380.25,578z"/>
				</g>
			</g>
		</g>
		<g>
			<g>
				<g>
					<path fill="#FFFFFF" d="M422.125,559.125c0,0,0.041,0.047,0.102,0.118c0.067,0.072,0.177,0.154,0.18,0.148
						c0.029,0.001,0.232,0.114,0.439,0.126c0.02-0.001,0.059,0.006,0.106,0.017c0.013,0.003-0.012,0.001-0.021,0.001
						c-0.028,0-0.065,0-0.109,0c-0.093-0.002-0.216,0.01-0.337,0.027c-0.245,0.031-0.486,0.062-0.486,0.062s-0.984-0.106-0.936-0.44
						c0.041-0.183,0.321-0.267,0.606-0.251C421.943,558.963,422.125,559.125,422.125,559.125z"/>
				</g>
			</g>
		</g>
		<g>
			<g>
				<g>
					<path fill="#FFFFFF" d="M425.25,559.25c0,0-0.235-0.065-0.455-0.265c-0.239-0.19-0.374-0.551-0.223-0.858
						c0.181-0.276,0.554-0.348,0.834-0.244c0.282,0.082,0.469,0.242,0.469,0.242s0.071,0.256,0.166,0.492
						c0.073,0.238,0.255,0.448,0.22,0.47c0.004,0.033-0.268-0.021-0.505,0.038C425.505,559.166,425.25,559.25,425.25,559.25z"/>
				</g>
			</g>
		</g>
		<g>
			<g>
				<g>
					<path fill="#FFFFFF" d="M427.125,564.125c0,0-0.206-0.142-0.385-0.366c-0.18-0.219-0.327-0.54-0.23-0.79
						c0.209-0.44,1.24-0.344,1.24-0.344s0.716,0.753,0.537,1.124c-0.06,0.17-0.339,0.235-0.618,0.293
						C427.393,564.095,427.125,564.125,427.125,564.125z"/>
				</g>
			</g>
		</g>
		<g>
			<g>
				<g>
					<path fill="#FFFFFF" d="M420.625,573.625c0,0-0.267-1.106,0.251-1.624s1.624-0.251,1.624-0.251s0.267,1.106-0.251,1.624
						S420.625,573.625,420.625,573.625z"/>
				</g>
			</g>
		</g>
		<g>
			<g>
				<g>
					<path fill="#FFFFFF" d="M411,579.875c0,0,0.254-0.095,0.612-0.092c0.373-0.005,0.782,0.128,1.042,0.441
						c0.474,0.636-0.029,1.65-0.029,1.65s-1.131,0.041-1.511-0.469c-0.199-0.232-0.183-0.619-0.174-0.922
						C410.958,580.168,411,579.875,411,579.875z"/>
				</g>
			</g>
		</g>
		<g>
			<g>
				<g>
					<path fill="#FFFFFF" d="M408.25,574.25c-0.011,0.027,0.897,0.534,0.859,0.691c-0.006,0.291-0.984,0.559-0.984,0.559
						s-0.966-0.297-0.952-0.7C407.255,574.271,408.261,574.223,408.25,574.25z"/>
				</g>
			</g>
		</g>
		<g>
			<g>
				<g>
					<path fill="#FFFFFF" d="M412.125,588.5c0.024-0.003,0.297-0.982,0.43-1.031c0.068-0.047,0.265,0.16,0.48,0.278
						c0.219,0.138,0.465,0.253,0.465,0.253s0.113,0.219,0.119,0.523c0.019,0.316-0.137,0.658-0.445,0.785
						C412.508,589.498,412.098,588.485,412.125,588.5z"/>
				</g>
			</g>
		</g>
		<g>
			<g>
				<path fill="none" stroke="#FFFFFF" stroke-miterlimit="10" d="M407.375,588.25"/>
			</g>
		</g>
		<g>
			<g>
				<g>
					<path fill="#FFFFFF" d="M434.5,575.25c0,0-0.343,1.157-1.084,1.479c-0.352,0.179-0.793,0.11-1.14,0.061
						c-0.355-0.064-0.651-0.164-0.651-0.164s0.007-0.291,0.141-0.662c0.128-0.386,0.415-0.787,0.852-1.005
						C433.496,574.578,434.5,575.25,434.5,575.25z"/>
				</g>
			</g>
		</g>
		<g>
			<g>
				<g>
					<path fill="#FFFFFF" d="M437.75,572.125c0,0,0.876-0.496,1.128-0.221c0.122,0.154,0.039,0.445-0.088,0.678
						c-0.126,0.234-0.29,0.418-0.29,0.418s-0.241,0.073-0.497,0.151c-0.255,0.066-0.514,0.13-0.587,0.031
						C437.237,572.989,437.75,572.125,437.75,572.125z"/>
				</g>
			</g>
		</g>
		<g>
			<g>
				<g>
					<path fill="#FFFFFF" d="M436.25,557.5c0,0,0.971,0.224,0.971,0.5s-0.971,0.5-0.971,0.5s-0.971-0.224-0.971-0.5
						S436.25,557.5,436.25,557.5z"/>
				</g>
			</g>
		</g>
		<g>
			<g>
				<g>
					<path fill="#FFFFFF" d="M435.25,543.5c0,0-1.005,0.083-1.108-0.193c-0.104-0.275,0.733-0.807,0.733-0.807
						s1.005-0.083,1.108,0.193C436.087,542.969,435.25,543.5,435.25,543.5z"/>
				</g>
			</g>
		</g>
		<g>
			<g>
				<g>
					<path fill="#FFFFFF" d="M439.5,547.875c0,0-0.23,0.137-0.501,0.249c-0.272,0.11-0.577,0.199-0.764,0.074
						c-0.228-0.15-0.298-0.489-0.297-0.781c-0.001-0.293,0.062-0.542,0.062-0.542s0.231-0.138,0.501-0.249
						c0.271-0.111,0.577-0.199,0.764-0.074c0.228,0.15,0.298,0.489,0.297,0.781C439.563,547.626,439.5,547.875,439.5,547.875z"/>
				</g>
			</g>
		</g>
		<g>
			<g>
				<g>
					<path fill="#FFFFFF" d="M437.875,551.125c0,0-0.069-0.234-0.099-0.489c-0.03-0.253-0.011-0.528,0.116-0.584
						c0.185-0.061,0.447,0.14,0.565,0.364c0.131,0.224,0.167,0.459,0.167,0.459s-0.051,0.254-0.062,0.507
						c-0.021,0.257,0.043,0.488,0.018,0.485c-0.073,0.035-0.235-0.157-0.396-0.351C438.028,551.318,437.875,551.125,437.875,551.125
						z"/>
				</g>
			</g>
		</g>
		<g>
			<g>
				<g>
					<path fill="#FFFFFF" d="M433.125,564.875c0,0-0.151,0.223-0.488,0.365c-0.315,0.137-0.893,0.125-1.25-0.376
						c-0.17-0.255-0.218-0.557-0.163-0.817c0.044-0.254,0.204-0.442,0.328-0.566c0.313-0.222,0.573-0.231,0.573-0.231
						s0.188,0.231,0.384,0.396c0.248,0.184,0.474,0.139,0.483,0.126c0,0-0.065,0.277-0.009,0.56
						C433.029,564.604,433.125,564.875,433.125,564.875z"/>
				</g>
			</g>
		</g>
		<g>
			<g>
				<g>
					<path fill="#FFFFFF" d="M439.625,566.75c0,0,0.435,0.938,0.124,1.249c-0.311,0.311-1.249-0.124-1.249-0.124
						s-0.435-0.938-0.124-1.249C438.686,566.315,439.625,566.75,439.625,566.75z"/>
				</g>
			</g>
		</g>
		<g>
			<g>
				<g>
					<path fill="#FFFFFF" d="M443.625,559.25c0,0,0.9-0.471,1.183-0.167c0.143,0.174,0.078,0.484-0.037,0.729
						c-0.113,0.247-0.27,0.438-0.27,0.438s-0.25,0.074-0.514,0.134c-0.266,0.058-0.537,0.107-0.625-0.006
						C443.143,560.144,443.625,559.25,443.625,559.25z"/>
				</g>
			</g>
		</g>
		<path opacity="0.3" enable-background="new    " d="M362.333,533.666c-7.062,1.228-15.307,5.272-19.592,11.408
			c-4.267,6.108-8.903,12.952-15.999,15.885c-0.479-1.746-2.075-2.226-3.626-2.642c3.706,0.979,3.631,6.015,2.26,8.632
			c1.713-0.207,2.264-2.251,2.292-3.85c0.059,0.191,0.055,0.651,0.049,0.852c17.475,1.596,30.104,16.992,45.867,23.464
			c0.335,0.138,0.65,0.42,0.966,0.6c-2.19-0.441-5.969-5.655-7.809-7.425c-2.755-2.649-5.092-5.817-7.992-8.34
			c-2.881-2.507-6.117-4.619-9.008-6.992c-1.384-1.136-3.993-2.973-2.84-5.024c0.545-0.972,2.458-0.518,3.041-1.211
			c0.612-0.727,0.729-2.731,0.783-3.633c4.227-1.137,8.155-3.441,12.349-4.316c5.023-1.048,10.196-1.408,15.593-1.408
			c10.578,0,19.571-3.411,29.259-5.407c3.557-0.732,7.908-0.845,11.633-0.992c-8.044-6.771-17.309-4.357-26.217-1.185
			c-9.366,3.335-20.027,3.737-30.624,3.201c-0.604-3.574,6.307-7.637,9.024-8.543c4.583-1.527,9.647-1.044,13.567-4.332
			c-7.088-0.526-17.142-1.384-23.641,0.925"/>
		<g opacity="0.2">
			<g>
				<g>
					<path fill="#FFFFFF" d="M429.334,545.333c0,0-0.028-0.215-0.084-0.623c-0.065-0.407-0.103-1.005-0.272-1.763
						c-0.255-1.518-0.806-3.682-1.766-6.207c-0.958-2.517-2.366-5.427-4.455-8.148c-0.489-0.707-1.108-1.315-1.68-1.984
						c-0.642-0.588-1.256-1.233-1.981-1.734c-1.411-1.054-2.977-1.906-4.735-2.278c-1.793-0.42-3.405-0.356-4.879,0.232
						c-1.476,0.585-2.823,1.675-4.037,2.893c-1.238,1.229-2.288,2.491-3.462,3.795c-0.574,0.63-1.227,1.183-1.81,1.722
						c-0.654,0.476-1.235,0.98-1.871,1.35c-2.496,1.557-4.736,2.202-6.254,2.58c-0.76,0.201-1.364,0.293-1.766,0.381
						c-0.404,0.078-0.616,0.119-0.616,0.119s0.772-0.381,2.169-1.068c1.37-0.705,3.337-1.792,5.293-3.559
						c0.503-0.422,0.941-0.965,1.445-1.461c0.442-0.57,0.928-1.115,1.367-1.76c0.846-1.253,1.849-2.812,3.076-4.299
						s2.785-3.071,4.98-4.1c1.092-0.503,2.316-0.825,3.561-0.924c1.252-0.102,2.479,0.057,3.654,0.31
						c2.401,0.511,4.525,1.749,6.214,3.171c0.879,0.695,1.576,1.513,2.284,2.287c0.62,0.833,1.271,1.621,1.749,2.475
						c2.061,3.338,3.081,6.669,3.621,9.473c0.536,2.814,0.608,5.121,0.503,6.697c-0.012,0.786-0.125,1.396-0.167,1.804
						C429.362,545.119,429.334,545.333,429.334,545.333z"/>
				</g>
			</g>
		</g>
		<g opacity="0.2">
			<g>
				<g>
					<path fill="#FFFFFF" d="M446.334,559.333c0,0,0.208,1.619,0.209,4.203c-0.003,2.579-0.235,6.158-1.371,9.975
						c-1.149,3.806-3.066,7.068-4.993,8.99c-0.477,0.481-0.907,0.903-1.356,1.216c-0.434,0.32-0.78,0.604-1.131,0.767
						c-0.665,0.356-1.024,0.517-1.024,0.517s0.215-0.341,0.603-0.953c0.208-0.277,0.383-0.69,0.612-1.122
						c0.241-0.419,0.446-0.948,0.685-1.507c0.96-2.239,1.804-5.463,2.886-9.027c1.065-3.575,2.23-6.844,3.183-9.223
						C445.584,560.79,446.334,559.333,446.334,559.333z"/>
				</g>
			</g>
		</g>
		<g opacity="0.2">
			<g>
				<g>
					<path fill="#FFFFFF" d="M347.333,630.333c0,0,0.549,0.361,1.141,0.84c0.63,0.486,1.301,1.031,1.693,1.812
						c0.393,0.783,0.432,1.765,0.386,2.583c-0.049,0.816-0.22,1.432-0.22,1.432s-0.632-0.07-1.409-0.374
						c-0.774-0.302-1.719-0.886-2.241-1.926c-0.526-1.045-0.397-2.274-0.099-3.081C346.909,630.789,347.333,630.333,347.333,630.333
						z"/>
				</g>
			</g>
		</g>
		<g opacity="0.2">
			<g>
				<g>
					<path fill="#FFFFFF" d="M340.333,591.333c0,0-0.142,0.225-0.397,0.629c-0.262,0.383-0.62,0.951-0.993,1.602
						c-0.368,0.654-0.716,1.413-0.894,2.157c-0.149,0.761-0.178,1.486-0.116,2.369c-0.001,0.02-0.001,0.039-0.001,0.05l0.01,0.193
						c0.006,0.759,0.132,1.739,0.319,2.55c0.182,0.834,0.424,1.574,0.738,2.148c0.308,0.576,0.703,1.021,1.06,1.265
						c0.172,0.144,0.331,0.203,0.438,0.273c0.111,0.064,0.169,0.097,0.169,0.097s-0.061,0.023-0.178,0.068
						c-0.118,0.033-0.304,0.124-0.552,0.149c-0.497,0.096-1.302,0.043-2.184-0.385c-0.884-0.422-1.768-1.205-2.447-2.242
						c-0.679-1.05-1.204-2.297-1.248-3.924c0.002,0.042,0.004,0.085,0.01,0.193c-0.001-0.021-0.002-0.055-0.003-0.09
						c-0.138-1.516,0.302-3.083,1.058-4.189c0.778-1.107,1.73-1.735,2.522-2.128c0.805-0.383,1.475-0.57,1.951-0.66
						C340.069,591.363,340.333,591.333,340.333,591.333z"/>
				</g>
			</g>
		</g>
		<g opacity="0.2">
			<g>
				<g>
					<path fill="#FFFFFF" d="M335.667,594.333c0,0,0.081,0.177,0.227,0.489c0.146,0.304,0.289,0.718,0.503,1.175
						c0.459,0.94,1.031,1.905,1.476,3.098c0.47,1.199,0.712,2.579,0.795,3.684c0.092,1.104,0,1.888,0,1.888s-0.737-0.277-1.67-0.898
						c-0.923-0.63-2.104-1.645-2.757-3.301c-0.648-1.69-0.326-3.525,0.219-4.588c0.278-0.541,0.625-0.923,0.84-1.175
						C335.524,594.453,335.667,594.333,335.667,594.333z"/>
				</g>
			</g>
		</g>
		<g opacity="0.2">
			<g>
				<g>
					<path fill="#FFFFFF" d="M351.334,601.666c0,0-0.256-0.244-0.657-0.773c-0.387-0.531-0.883-1.404-1.144-2.638
						c-0.276-1.229-0.218-2.767,0.134-4.321c0.18-0.771,0.42-1.552,0.705-2.321c0.275-0.76,0.636-1.551,0.895-2.195
						c0.239-0.612,0.422-1.251,0.544-1.811c0.099-0.56,0.116-1.064,0.052-1.586c-0.116-1.036-0.695-2.15-1.192-3.102
						c-0.516-0.955-0.964-1.772-1.246-2.345c-0.284-0.576-0.423-0.907-0.423-0.907s0.32,0.168,0.868,0.494
						c0.551,0.328,1.335,0.791,2.267,1.484c0.897,0.712,2.087,1.638,2.853,3.392c0.368,0.862,0.563,1.895,0.523,2.91
						c-0.061,1.009-0.27,1.968-0.64,2.916c-0.369,0.906-0.748,1.577-1.105,2.264c-0.349,0.657-0.686,1.291-1.008,1.896
						c-0.602,1.183-1.064,2.244-1.283,3.214c-0.231,0.965-0.262,1.834-0.228,2.45C351.303,601.315,351.334,601.666,351.334,601.666z
						"/>
				</g>
			</g>
		</g>
		<g opacity="0.2">
			<g>
				<g>
					<path fill="#FFFFFF" d="M387.667,586c0,0-0.574,0.49-1.531,0.981c-0.956,0.484-2.332,0.97-3.935,0.775
						c-1.566-0.174-3.153-1.108-3.862-2.35c-0.346-0.65-0.361-1.26-0.236-1.593c0.129-0.345,0.231-0.48,0.231-0.48
						s0.144,0.153,0.353,0.333c0.225,0.183,0.584,0.273,0.927,0.275c0.758-0.012,1.776-0.188,3.067-0.039
						c1.268,0.157,2.515,0.652,3.451,1.137C387.07,585.519,387.667,586,387.667,586z"/>
				</g>
			</g>
		</g>
	</g>
</g>
</svg>
