<?xml version="1.0" encoding="utf-8"?>
<!-- Generator: Adobe Illustrator 25.0.1, SVG Export Plug-In . SVG Version: 6.00 Build 0)  -->
<svg version="1.1" id="Capa_1" xmlns="http://www.w3.org/2000/svg" xmlns:xlink="http://www.w3.org/1999/xlink" x="0px" y="0px"
	 viewBox="0 0 800 800" enable-background="new 0 0 800 800" xml:space="preserve">
<g id="bocas">
	<g id="_x38__2_">
		<g>
			<path opacity="0.3" fill="#EA7DAE" enable-background="new    " d="M351.715,549.576c-3.417-0.988-11.218,0.132-15.176-2.308
				c-6.657-4.104-9.263-5.811-11.608-5.893c0.755,2.929,6.013,5.345,8.094,7.476c2.623,2.688,4.526,5.259,6.222,8.558
				c3.331,6.479,4.922,13.728,8.719,19.955c4.351,7.137,11.06,9.289,18.778,10.6c7.771,1.321,16.035,2.381,23.96,2.551
				c14.772,0.319,30.551-3.396,38.58-17.023c3.62-6.146,3.447-13.52,6.905-19.607c3.139-5.527,10.008-8.313,12.974-14.062
				c0.819-1.591,1.316-3.438,1.363-4.989c-1.02,6.59-6.802,11.781-12.745,13.836c-3.289,1.138-7.134,1.161-10.115,2.972
				c-3.233,1.962-5.571,5.264-7.907,8.249c-2.364,3.022-4.495,6.178-8.058,7.82c-4.112,1.895-9.238,1.615-13.83,1.7
				c-9.398,0.175-19.251-4.795-26.716-10.18c-5.956-4.296-12.738-9.396-19.981-11.132"/>
			<path opacity="0.3" fill="#EA7DAE" enable-background="new    " d="M324.93,541.38c2.12,0.07,4.44,1.47,9.76,4.75
				c-0.77-0.26-1.52-0.58-2.28-1.04c-2.31-1.38-4.71-3.21-7.44-3.56C324.96,541.481,324.94,541.43,324.93,541.38z"/>
			<path opacity="0.3" fill="#EA7DAE" enable-background="new    " d="M450.53,534.83c-0.05,1.55-0.55,3.4-1.37,4.99
				c-2.96,5.75-9.83,8.54-12.97,14.06c-3.46,6.09-3.28,13.46-6.9,19.61c-0.35,0.59-0.71,1.17-1.1,1.72
				c0,0.01-0.011,0.021-0.011,0.021l-0.01,0.01c-1.89,2.79-4.14,5.12-6.66,7.05c-2.95,1.5-6.37,2.41-9.51,3.18
				c-3.86,0.95-7.69,1.82-11.62,2.41c-3.96,0.59-7.65,1.5-11.76,1.5c-8.1,0-15.54-3.62-23.38-4.75
				c-6.69-0.96-12.55-4.28-16.39-10.229c-1.8-2.78-2.93-6.41-3.25-9.62c-0.37-3.681-0.32-7.78-1.38-11.25
				c-0.43-1.42-1.07-3.33-1.9-4.71c3.51,0.34,7.29,0.149,9.39,0.76l-0.54-1.48c7.25,1.73,14.03,6.83,19.99,11.131
				c7.46,5.38,17.31,10.35,26.71,10.18c4.59-0.09,9.72,0.189,13.83-1.7c3.56-1.64,5.7-4.8,8.06-7.82c2.34-2.989,4.67-6.29,7.91-8.25
				c2.98-1.81,6.82-1.83,10.11-2.97C443.73,546.61,449.51,541.42,450.53,534.83z"/>
			<path opacity="0.3" fill="#B23665" enable-background="new    " d="M427.403,551.148c3.868-2.495,8.613-1.042,12.738-3.467
				c6.906-4.06,8.003-6.681,9.831-10.572c-3.409,1.529-6.604,3.339-10.685,3.25c-3.674-0.081-6.554-1.858-9.503-4.021
				c-6.1-4.477-11.906-8.204-19.466-8.341c-8.115-0.145-14.467,4.443-22.531,3.877c-7.493-0.525-13.915-5.42-21.809-5.599
				c-8.564-0.191-12.535,2.919-18.996,7.703c-6.242,4.624-12.252,7.783-20.378,7.571c-0.786-0.021-1.115-0.185-1.675-0.174
				c2.97-0.276,6.376,2.988,8.829,4.412c2.872,1.667,5.883,2.918,9.011,4.291c7.744,3.399,16.11,6.006,24.559,6.268
				c4.651,0.143,8.37-0.042,12.116-2.89c3.182-2.419,5.321-5.738,8.995-7.417c3.251-1.485,7.124-1.697,10.897-1.804
				c3.943-0.112,6.576,1.208,10.036,2.637c4.802,1.982,11.678,4.712,17.028,4.056"/>
			<path fill="#D1BE6F" d="M412.812,563.011c-0.12-4.192,0.657-7.175,1.484-10.935c0.904-4.12-2.253-4.64-5.637-5.927
				c-3.407-1.298-19.793-3.556-18.732,2.145c0.51,2.729,1.943,4.499,2.028,7.6c0.066,2.403-0.614,6.287,1.705,7.416
				c2.038,0.992,6.371,0.067,8.709,0c3.024-0.086,5.913,0.081,8.957-0.006"/>
			<g>
				<g>
					<path d="M335.976,546.899c0.11-0.003,0.222-0.006,0.332-0.008l-0.002-0.001L335.976,546.899z"/>
					<path d="M432.235,549.25c-3.254,1.643-9.354,0.807-12.554-0.16c-4.162-1.256-8.3-2.689-12.414-4.075
						c-4.404-1.484-8.537-3.105-13.463-2.965c-5.327,0.151-9.309,2.252-14.672,2.405c-5.206,0.148-9.075-2.224-14.137-2.082
						c-5.14,0.146-9.716,1.317-14.189,3.185c-4.83,2.017-9.364,1.173-14.499,1.28c1.674,1.334,3.597,2.35,5.285,3.947
						c1.657,1.565,3.203,3.378,4.624,5.163c2.537,3.186,4.128,7.112,6.829,10.16c3.001,3.389,6.735,5.538,10.807,7.145
						c9.02,3.557,18.219,4.343,28.044,5.084c9.112,0.69,20.024-1.099,26.532-7.887c2.873-2.997,6.021-6.477,8.582-9.598
						C429.36,557.987,432.935,553.101,432.235,549.25z M412.134,550.47c-0.41,2.44-0.177,5.12-0.812,7.479
						c-0.105,0.387-0.107,0.717-0.162,1.136c-5.374,0.426-10.353,1.438-15.81,1.274c-1.01-2.312,0.669-4.598,0.599-7.034
						c-0.074-2.573-1.901-5.493-1.842-6.495l-0.331,0.009c2.677-0.076,4.759-1.964,7.702-1.583c2.022,0.261,4.245,0.998,6.175,1.772
						c1.058,0.427,2.044,0.888,3.094,1.227C412.565,548.841,412.449,548.602,412.134,550.47z"/>
				</g>
				<g>
					<g>
						<g>
							<path d="M353.21,582.519c0,0-0.198-0.254-0.543-0.698c-0.19-0.214-0.347-0.519-0.547-0.861
								c-0.216-0.336-0.4-0.743-0.585-1.197c-0.401-0.898-0.686-2.017-0.893-3.242c-0.152-1.229-0.21-2.573-0.018-3.92
								c0.225-1.331,0.558-2.703,1.265-3.858c0.139-0.307,0.346-0.57,0.543-0.834c0.206-0.257,0.373-0.54,0.605-0.759
								c0.472-0.427,0.883-0.896,1.392-1.163c0.479-0.312,0.931-0.589,1.379-0.725c0.438-0.15,0.821-0.346,1.151-0.386
								c0.662-0.114,1.051-0.181,1.077-0.186c0.213-0.023,0.397,0.554,0.413,1.285c0.016,0.732-0.087,1.342-0.23,1.361
								c-0.018,0-0.304,0.013-0.788,0.033c-0.252-0.012-0.509,0.109-0.836,0.167c-0.336,0.044-0.665,0.204-1.03,0.378
								c-1.504,0.616-3.018,2.575-3.641,4.947c-0.328,1.178-0.438,2.421-0.446,3.591c0.045,1.165,0.176,2.269,0.448,3.175
								c0.121,0.458,0.247,0.876,0.413,1.225c0.151,0.356,0.267,0.678,0.424,0.908C353.047,582.243,353.21,582.519,353.21,582.519z"
								/>
						</g>
					</g>
				</g>
				<g>
					<g>
						<g>
							<path d="M358.528,577.398c0,0-0.108-0.455-0.138-1.175c-0.035-0.719,0.034-1.699,0.328-2.684
								c0.287-0.978,0.846-1.971,1.542-2.587c0.337-0.313,0.685-0.523,0.934-0.669c0.266-0.119,0.422-0.189,0.432-0.194
								c0.091-0.026,0.295,0.533,0.454,1.247c0.16,0.715,0.263,1.305,0.231,1.316c-0.005,0-0.082,0.001-0.213,0.003
								c-0.128,0.023-0.322,0.044-0.559,0.134c-0.474,0.158-1.115,0.648-1.629,1.332c-0.517,0.68-0.905,1.507-1.109,2.158
								C358.588,576.93,358.528,577.398,358.528,577.398z"/>
						</g>
					</g>
				</g>
				<g>
					<g>
						<g>
							<path d="M388.394,588.222c0,0-0.186-0.773-0.465-1.936c-0.346-1.165-0.506-2.759-0.72-4.38
								c-0.103-1.603-0.207-3.246-0.223-4.445c-0.029-1.209-0.049-2.026-0.049-2.054c0.008-0.11,0.608-0.154,1.338-0.099
								c0.73,0.057,1.315,0.19,1.307,0.301c-0.005,0.026-0.15,0.827-0.363,2.013c-0.233,1.194-0.454,2.732-0.684,4.302
								c-0.117,1.552-0.292,3.133-0.194,4.312C388.373,587.428,388.394,588.222,388.394,588.222z"/>
						</g>
					</g>
				</g>
				<g>
					<g>
						<g>
							<path d="M421.395,578.337c0,0-0.154-0.062-0.425-0.167c-0.265-0.119-0.678-0.236-1.124-0.479
								c-0.898-0.466-2.079-1.231-3.023-2.319c-0.913-1.086-1.68-2.391-1.983-3.475c-0.215-0.528-0.281-0.995-0.354-1.325
								c-0.066-0.332-0.105-0.527-0.107-0.54c-0.01-0.105,0.577-0.207,1.309-0.226c0.732-0.018,1.333,0.029,1.341,0.107
								c0,0.011-0.006,0.164-0.015,0.425c-0.006,0.261-0.056,0.642,0.013,1.081c0.015,0.907,0.356,2.071,0.888,3.197
								c0.558,1.117,1.431,2.078,2.163,2.73c0.359,0.335,0.718,0.54,0.946,0.722C421.26,578.239,421.395,578.337,421.395,578.337z"
								/>
						</g>
					</g>
				</g>
				<g>
					<g>
						<g>
							<path d="M424.692,572.033c0,0-0.156-0.066-0.429-0.181c-0.276-0.113-0.659-0.314-1.087-0.613
								c-0.863-0.582-1.896-1.629-2.488-3.023c-0.618-1.372-0.642-3.111-0.142-4.301c0.209-0.608,0.521-1.054,0.728-1.371
								c0.235-0.295,0.374-0.468,0.384-0.479c0.085-0.086,0.549,0.29,1.034,0.837c0.486,0.548,0.844,1.032,0.798,1.081
								c-0.007,0.005-0.115,0.087-0.3,0.227c-0.162,0.155-0.424,0.364-0.634,0.689c-0.477,0.609-0.799,1.724-0.599,2.934
								c0.182,1.206,0.835,2.37,1.493,3.097c0.322,0.372,0.636,0.653,0.87,0.826C424.558,571.932,424.692,572.033,424.692,572.033z"
								/>
						</g>
					</g>
				</g>
				<g>
					<g>
						<g>
							<path d="M440.108,546.508c-0.023-0.015-0.103,0.33-0.474,0.804c-0.357,0.479-1.033,1.063-1.987,1.49
								c-1.917,0.864-4.706,1.159-7.422,1.319c-2.723,0.157-5.44,0.237-7.354,0.562c-0.958,0.154-1.7,0.367-2.158,0.558
								c-0.24,0.087-0.39,0.183-0.506,0.238c-0.119,0.055-0.155,0.102-0.168,0.102c-0.102,0.059-0.519-0.392-0.927-0.999
								c-0.408-0.608-0.56-1.208-0.333-1.335c0.025-0.016,0.452-0.235,1.146-0.42c0.695-0.192,1.643-0.33,2.724-0.371
								c2.168-0.096,4.887,0.166,7.576,0.338c2.681,0.171,5.374,0.211,7.274-0.38c0.944-0.291,1.646-0.758,2.049-1.178
								C439.964,546.824,440.088,546.492,440.108,546.508z"/>
						</g>
					</g>
				</g>
				<g>
					<g>
						<g>
							<path d="M421.836,541.565c0,0,0.023,0.148,0.064,0.408c0.028,0.132,0.044,0.293,0.031,0.48c-0.001,0.189,0,0.407-0.056,0.637
								c-0.059,0.477-0.283,0.994-0.562,1.53c-0.303,0.517-0.683,1.035-1.092,1.51c-0.821,0.948-1.701,1.788-2.241,2.435
								c-0.271,0.32-0.459,0.587-0.584,0.771c-0.103,0.181-0.165,0.287-0.169,0.294c-0.038,0.045-0.551-0.268-1.142-0.697
								c-0.593-0.43-1.02-0.847-0.952-0.93c0.008-0.007,0.147-0.154,0.386-0.374c0.242-0.206,0.584-0.477,0.989-0.749
								c0.811-0.548,1.869-1.106,2.829-1.737c0.962-0.623,1.793-1.392,2.143-2.176c0.108-0.188,0.159-0.376,0.209-0.546
								c0.061-0.168,0.089-0.32,0.098-0.448C421.817,541.713,421.836,541.565,421.836,541.565z"/>
						</g>
					</g>
				</g>
				<g>
					<g>
						<g>
							<path d="M416.185,535.019c0,0,0.029,0.203,0.08,0.559c0.036,0.356,0.16,0.869,0.179,1.489
								c0.102,1.242,0.106,2.925-0.139,4.617c-0.272,1.68-0.715,3.396-1.381,4.61c-0.156,0.306-0.281,0.599-0.432,0.842
								c-0.168,0.237-0.315,0.444-0.437,0.616c-0.251,0.345-0.399,0.548-0.409,0.562c-0.089,0.102-0.573-0.245-1.08-0.773
								c-0.508-0.528-0.871-1.015-0.811-1.087c0.009-0.008,0.142-0.135,0.371-0.351c0.117-0.108,0.26-0.238,0.422-0.388
								c0.153-0.161,0.296-0.377,0.471-0.596c0.735-0.851,1.433-2.268,1.998-3.753c0.539-1.501,0.866-3.096,1.013-4.309
								c0.105-0.606,0.085-1.116,0.122-1.475C416.173,535.225,416.185,535.019,416.185,535.019z"/>
						</g>
					</g>
				</g>
				<g>
					<g>
						<g>
							<path d="M387.474,538.569c0,0-0.246,0.479-0.509,1.225c-0.266,0.741-0.537,1.764-0.606,2.76
								c-0.096,0.998,0.104,1.929,0.387,2.394c0.286,0.47,0.58,0.559,0.581,0.58c0.021,0.025-0.368,0.484-0.866,1.021
								c-0.499,0.537-0.966,0.905-1.043,0.82c-0.008-0.01-0.136-0.175-0.326-0.462c-0.164-0.307-0.367-0.745-0.477-1.278
								c-0.208-1.069,0.009-2.336,0.456-3.389c0.431-1.07,1.034-1.995,1.53-2.644C387.095,538.946,387.474,538.569,387.474,538.569z
								"/>
						</g>
					</g>
				</g>
				<g>
					<g>
						<g>
							<path d="M350.275,540.626c0,0,0.059,0.623,0.147,1.56c0.111,0.944,0.15,2.197,0.214,3.457c0.04,0.62,0.079,1.241,0.116,1.825
								c0.027,0.583,0.077,1.121,0.162,1.566c0.134,0.893,0.225,1.497,0.228,1.518c0.003,0.081-0.479,0.199-1.074,0.263
								c-0.596,0.063-1.082,0.04-1.086-0.052c0.001-0.023,0.042-0.695,0.102-1.691c0.016-0.499,0.086-1.06,0.186-1.649
								c0.09-0.59,0.186-1.219,0.283-1.846c0.207-1.236,0.438-2.471,0.53-3.396C350.199,541.247,350.275,540.626,350.275,540.626z"
								/>
						</g>
					</g>
				</g>
				<g>
					<g>
						<g>
							<path d="M355.933,538.726c0,0,0.078,0.201,0.214,0.553c0.061,0.178,0.155,0.385,0.282,0.613
								c0.118,0.232,0.249,0.493,0.434,0.754c0.325,0.546,0.821,1.104,1.364,1.67c0.574,0.543,1.217,1.081,1.915,1.554
								c1.39,0.952,2.911,1.713,4.08,2.269c1.183,0.552,1.981,0.925,2.008,0.938c0.105,0.06-0.048,0.531-0.341,1.053
								s-0.616,0.898-0.721,0.84c-0.025-0.017-0.765-0.511-1.861-1.244c-1.095-0.748-2.552-1.786-3.85-3.013
								c-0.652-0.609-1.242-1.286-1.749-1.946c-0.479-0.685-0.896-1.342-1.144-1.958c-0.146-0.296-0.239-0.585-0.32-0.839
								c-0.091-0.25-0.153-0.472-0.185-0.661C355.979,538.937,355.933,538.726,355.933,538.726z"/>
						</g>
					</g>
				</g>
				<g>
					<g>
						<g>
							<path d="M347.941,537.215c0,0,0.138,0.121,0.379,0.334c0.235,0.218,0.558,0.561,0.858,1.03
								c0.642,0.924,1.171,2.351,1.497,3.812c0.331,1.463,0.491,2.956,0.597,4.074c0.092,1.113,0.155,1.864,0.157,1.891
								c0.003,0.102-0.302,0.192-0.678,0.203c-0.378,0.011-0.685-0.063-0.688-0.167c0-0.025,0.023-0.775,0.057-1.887
								c0.023-1.104,0.036-2.562-0.118-4.002c-0.149-1.438-0.494-2.857-1.007-3.816c-0.237-0.488-0.511-0.856-0.717-1.098
								C348.063,537.352,347.941,537.215,347.941,537.215z"/>
						</g>
					</g>
				</g>
				<g>
					<g>
						<g>
							<path d="M355.537,533.521c0,0,0.02,0.239,0.055,0.659c0.052,0.418,0.049,1.021,0.183,1.727
								c0.241,1.413,0.749,3.268,1.674,4.92c0.959,1.625,2.167,3.077,3.265,3.98c0.498,0.501,1.012,0.815,1.34,1.074
								c0.336,0.25,0.534,0.397,0.547,0.407c0.1,0.081,0.001,0.394-0.222,0.699s-0.491,0.48-0.599,0.393
								c-0.013-0.011-0.211-0.185-0.547-0.481c-0.327-0.307-0.832-0.684-1.322-1.265c-1.075-1.057-2.23-2.721-3.073-4.503
								c-0.814-1.812-1.159-3.756-1.275-5.2c-0.071-0.722-0.015-1.33-0.029-1.749C355.535,533.761,355.537,533.521,355.537,533.521z
								"/>
						</g>
					</g>
				</g>
			</g>
		</g>
		<path opacity="0.3" enable-background="new    " d="M416.5,556.833c-2.92-3.339-6.884-4.789-10.833-6.333
			c-2.249-0.879-5.062-1.438-7.505-0.839c-1,0.245-2.03,0.818-2.991,1.177c-0.333,0.124-2.977,1.283-3.175,1.183
			c-0.044-0.014-0.089-0.028-0.134-0.042c-0.165-2.83-0.003-4.723,2.097-6.687c1.794-1.679,4.852-1.295,7.171-0.922
			c2.292,0.368,4.5,1.199,6.667,2c2.015,0.744,4.36,1.229,6.166,2.5c2.327,1.638,2.516,4.243,2.87,6.796"/>
		<g opacity="0.3">
			<g>
				<g>
					<path d="M347.333,536c0,0,0.169,0.149,0.466,0.41c0.29,0.269,0.697,0.684,1.117,1.243c0.868,1.104,1.771,2.802,2.33,4.704
						c0.555,1.895,0.731,4.021,0.417,5.747c-0.148,0.861-0.409,1.6-0.614,2.125c-0.246,0.517-0.417,0.822-0.428,0.84
						c-0.111,0.154-1.213-0.551-2.456-1.569c-0.625-0.507-1.178-0.983-1.576-1.333c-0.398-0.351-0.641-0.573-0.622-0.601
						c0.004-0.009,0.107-0.081,0.309-0.219c0.176-0.171,0.447-0.418,0.733-0.824c0.577-0.797,1.134-2.261,1.338-3.879
						c0.204-1.614,0.083-3.341-0.249-4.59c-0.15-0.632-0.348-1.144-0.503-1.499C347.429,536.202,347.333,536,347.333,536z"/>
				</g>
			</g>
		</g>
		<g opacity="0.3">
			<g>
				<g>
					<path d="M354.833,531.833c0,0,0.056,0.257,0.155,0.708c0.111,0.446,0.213,1.089,0.435,1.83
						c0.122,0.365,0.254,0.761,0.393,1.179c0.069,0.205,0.14,0.416,0.212,0.632c0.098,0.206,0.197,0.417,0.299,0.631
						c0.201,0.417,0.408,0.848,0.618,1.286c0.267,0.404,0.538,0.816,0.809,1.226c0.254,0.43,0.552,0.762,0.827,1.075
						c0.321,0.315,0.599,0.601,0.96,0.893c0.749,0.616,1.45,1.191,2.053,1.687c0.333,0.307,0.642,0.58,0.917,0.855
						c0.276,0.308,0.519,0.577,0.719,0.801c0.197,0.244,0.344,0.479,0.448,0.629c0.102,0.155,0.16,0.243,0.167,0.254
						c0.098,0.195-1.029,0.86-2.511,1.482c-1.483,0.623-2.716,1.079-2.752,1.018c-0.002-0.011-0.038-0.176-0.098-0.456
						c-0.062-0.162-0.138-0.357-0.224-0.581c-0.11-0.238-0.265-0.521-0.422-0.829c-0.373-0.655-0.867-1.413-1.422-2.389
						c-0.272-0.453-0.541-1.023-0.784-1.56c-0.227-0.579-0.438-1.156-0.544-1.705c-0.129-0.549-0.258-1.097-0.386-1.636
						c-0.056-0.549-0.111-1.088-0.165-1.61c-0.023-0.256-0.046-0.508-0.069-0.755c0.005-0.247,0.011-0.489,0.016-0.725
						c0.012-0.464,0.024-0.902,0.035-1.308c0.046-0.802,0.172-1.461,0.22-1.917C354.798,532.093,354.833,531.833,354.833,531.833z"
						/>
				</g>
			</g>
		</g>
		<g opacity="0.3">
			<g>
				<g>
					<path d="M390.499,535.665c0,0-0.123,0.187-0.34,0.514c-0.205,0.335-0.539,0.76-0.842,1.354
						c-0.653,1.122-1.404,2.748-2.094,4.337c-0.307,0.747-0.476,1.461-0.493,2.053c0.008,0.609,0.082,1.104,0.234,1.639
						c0.058,0.244,0.132,0.497,0.206,0.73c0.072,0.231,0.135,0.435,0.188,0.604c0.113,0.357,0.179,0.565,0.184,0.579
						c0.011,0.111-1.279,0.347-2.876,0.525c-1.599,0.179-2.905,0.218-2.918,0.086c0.001-0.017,0.022-0.268,0.056-0.695
						c0.024-0.225,0.053-0.494,0.086-0.803c0.034-0.308,0.079-0.664,0.159-1.083c0.118-0.793,0.415-1.842,0.893-2.81
						c0.502-0.976,1.19-1.812,1.896-2.495c1.35-1.261,2.686-2.452,3.799-3.271c0.521-0.43,1.032-0.709,1.349-0.931
						C390.313,535.786,390.499,535.665,390.499,535.665z"/>
				</g>
			</g>
		</g>
		<g opacity="0.3">
			<g>
				<g>
					<path d="M414.832,531.166c0,0,0.133,0.233,0.364,0.641c0.122,0.205,0.258,0.459,0.385,0.765
						c0.135,0.304,0.304,0.648,0.425,1.043c0.298,0.781,0.513,1.741,0.667,2.802c0.122,1.056,0.169,2.214,0.09,3.361
						c-0.148,2.298-0.658,4.547-1.086,6.178c-0.224,0.811-0.41,1.489-0.542,1.971c-0.141,0.47-0.223,0.746-0.229,0.764
						c-0.064,0.136-1.294-0.323-2.74-1.023c-1.447-0.701-2.57-1.375-2.508-1.504c0.02-0.03,0.626-0.902,1.522-2.194
						c0.874-1.289,1.949-2.996,2.74-4.829c0.399-0.916,0.693-1.863,0.91-2.783c0.182-0.917,0.298-1.811,0.278-2.582
						c0.019-0.391-0.023-0.742-0.047-1.061c-0.017-0.321-0.058-0.598-0.103-0.823C414.879,531.429,414.832,531.166,414.832,531.166z
						"/>
				</g>
			</g>
		</g>
		<g opacity="0.3">
			<g>
				<g>
					<path d="M422.332,538.833c-0.046,0.005,0.353,0.766,0.316,2.133c-0.034,0.674-0.208,1.495-0.56,2.288
						c-0.335,0.79-0.824,1.611-1.263,2.307c-0.824,1.429-1.545,2.783-1.722,3.753c-0.154,0.459-0.18,0.914-0.225,1.208
						c-0.043,0.293-0.068,0.466-0.07,0.477c-0.034,0.077-1.295-0.296-2.81-0.832c-1.516-0.537-2.701-1.079-2.647-1.211
						c0.01-0.015,0.153-0.24,0.398-0.622c0.255-0.375,0.564-0.909,1.101-1.483c0.972-1.238,2.481-2.33,3.865-3.298
						c1.406-0.873,2.509-1.765,3.05-2.812c0.256-0.506,0.424-0.994,0.467-1.345C422.296,539.038,422.332,538.833,422.332,538.833z"
						/>
				</g>
			</g>
		</g>
		<g opacity="0.3">
			<g>
				<g>
					<path d="M449.832,537.333c0,0-0.179,0.454-0.491,1.251c-0.134,0.417-0.401,0.864-0.7,1.389
						c-0.15,0.265-0.311,0.545-0.479,0.841c-0.198,0.275-0.407,0.564-0.625,0.867c-0.854,1.238-2.062,2.505-3.412,3.822
						c-1.392,1.261-2.945,2.543-4.62,3.693c-0.94,0.606-2.072,1.142-3.15,1.381c-1.084,0.273-2.153,0.408-3.124,0.476
						c-1.966,0.141-3.627,0.159-4.852,0.384c-2.459,0.433-2.966,1.392-3.048,1.412c-0.109,0.081-1.083-0.826-2.163-2.017
						c-1.08-1.19-1.701-2.362-1.379-2.608c0.039-0.024,0.625-0.478,1.772-0.954c1.135-0.46,2.81-0.799,4.523-0.739
						c3.438,0.025,7.058,1.381,9.997,0.125c1.725-0.761,3.392-1.677,4.915-2.607c1.475-0.983,2.845-1.961,3.857-2.967
						c0.262-0.247,0.512-0.484,0.749-0.709c0.211-0.249,0.411-0.484,0.6-0.705c0.379-0.445,0.723-0.833,0.922-1.203
						C449.574,537.744,449.832,537.333,449.832,537.333z"/>
				</g>
			</g>
		</g>
		<g opacity="0.3">
			<g>
				<g>
					<path d="M325,541.501c0,0,0.331,0.04,0.91,0.112c0.294,0.029,0.648,0.08,1.048,0.179c0.402,0.087,0.866,0.176,1.35,0.336
						c1.98,0.547,4.466,1.783,6.846,2.645c1.199,0.391,2.401,0.748,3.502,0.879c0.535,0.108,1.122,0.103,1.633,0.157
						c0.592,0.062,1.09,0.077,1.688,0.154c1.142,0.14,2.338,0.427,3.358,1.11c0.246,0.162,0.497,0.381,0.676,0.546
						c0.16,0.166,0.295,0.313,0.4,0.438c0.195,0.263,0.297,0.42,0.309,0.439c0.177,0.36-0.903,1.187-2.389,1.835
						c-0.702,0.312-1.329,0.591-1.816,0.807c-0.463,0.212-0.74,0.373-0.74,0.373c0.001-0.001,0.01-0.008,0.026-0.019
						c0.007-0.008,0.016-0.018,0.027-0.029c0.007-0.001,0.025,0.013,0.042,0.015l0.028,0.004h0.008h0.004h0.002
						c-0.127,0.156,0.173-0.213,0.14-0.173l-0.01,0.012l-0.083,0.097c-0.081,0.101-0.028,0.031-0.041,0.045l0.006-0.019
						c0-0.016-0.026-0.037-0.038-0.06c-0.027-0.047-0.103-0.108-0.194-0.177c-0.188-0.139-0.492-0.303-0.89-0.47
						c-0.373-0.165-0.941-0.35-1.462-0.555c-0.595-0.234-1.211-0.405-1.85-0.722c-1.299-0.55-2.513-1.32-3.682-2.103
						c-2.286-1.643-4.196-3.388-5.872-4.397c-0.407-0.275-0.806-0.474-1.159-0.661c-0.35-0.198-0.669-0.34-0.936-0.445
						C325.306,541.629,325,541.501,325,541.501z"/>
				</g>
			</g>
		</g>
		<g opacity="0.3">
			<g>
				<g>
					<path d="M353.167,582.165c0,0-0.241-0.21-0.664-0.577c-0.232-0.175-0.452-0.438-0.697-0.757
						c-0.127-0.158-0.262-0.328-0.404-0.506c-0.112-0.198-0.231-0.405-0.354-0.622c-0.528-0.871-0.884-2.017-1.135-3.289
						c-0.194-1.275-0.235-2.681-0.049-4.083c0.369-2.797,1.605-5.59,3.256-7.396c0.435-0.43,0.806-0.863,1.223-1.178
						c0.415-0.316,0.792-0.59,1.108-0.814c0.691-0.375,1.126-0.577,1.153-0.589c0.244-0.09,0.796,1.098,1.23,2.645
						c0.435,1.548,0.72,2.837,0.635,2.873c-0.014,0.006-0.206,0.04-0.571,0.081c-0.173,0.064-0.387,0.139-0.646,0.22
						c-0.261,0.077-0.524,0.271-0.85,0.42c-1.25,0.706-2.786,2.388-3.723,4.485c-0.468,1.047-0.77,2.175-0.923,3.27
						c-0.098,1.084-0.094,2.151,0.14,3.021c0.052,0.223,0.101,0.435,0.148,0.639c0.079,0.192,0.154,0.374,0.224,0.546
						c0.136,0.351,0.267,0.658,0.431,0.875C352.997,581.898,353.167,582.165,353.167,582.165z"/>
				</g>
			</g>
		</g>
		<g opacity="0.3">
			<g>
				<g>
					<path d="M358.334,578.166c0.071,0.016-0.381-1.249,0.253-3.175c0.592-1.959,2.509-3.994,4.542-5.629
						c2.052-1.625,4.226-3.003,5.732-4.054c0.753-0.523,1.336-0.963,1.725-1.271c0.357-0.305,0.566-0.484,0.58-0.496
						c0.115-0.069,0.938,0.959,1.834,2.293c0.897,1.335,1.48,2.507,1.302,2.617c-0.011,0.005-0.105,0.05-0.27,0.128
						c-0.163,0.071-0.409,0.198-0.696,0.309c-0.58,0.233-1.38,0.529-2.306,0.832c-1.845,0.605-4.196,1.269-6.412,2.145
						c-2.179,0.887-4.246,2.074-5.218,3.535c-0.125,0.181-0.245,0.354-0.358,0.52c-0.098,0.174-0.158,0.353-0.234,0.518
						c-0.151,0.331-0.279,0.631-0.307,0.894C358.395,577.863,358.334,578.166,358.334,578.166z"/>
				</g>
			</g>
		</g>
		<g opacity="0.3">
			<g>
				<g>
					<path d="M387.834,589.333c0,0-0.81-3.958-1.624-7.933c-0.182-0.993-0.364-1.988-0.535-2.923
						c-0.041-0.239-0.089-0.451-0.122-0.701c-0.017-0.294-0.034-0.581-0.05-0.861c-0.038-0.608-0.01-1.019-0.001-1.442
						c0.017-0.447,0.013-0.757,0.01-1.03c-0.012-0.261,0.021-0.565-0.029-0.677c-0.061-0.285-0.084-0.439-0.083-0.45
						c0.01-0.072,1.328-0.14,2.934-0.149c1.608-0.01,2.902,0.146,2.888,0.35c-0.003,0.023-0.072,0.392-0.214,0.996
						c-0.064,0.336-0.183,0.553-0.297,0.897c-0.121,0.33-0.256,0.698-0.382,0.989c-0.13,0.316-0.293,0.697-0.372,0.949
						c-0.055,0.147-0.112,0.299-0.169,0.454c-0.049,0.199-0.086,0.447-0.13,0.676c-0.171,0.935-0.353,1.93-0.535,2.923
						C388.477,585.375,387.834,589.333,387.834,589.333z"/>
				</g>
			</g>
		</g>
		<g opacity="0.3">
			<g>
				<g>
					<path d="M423.333,579.332c0,0-0.224-0.01-0.616-0.027c-0.2-0.004-0.441-0.021-0.716-0.072
						c-0.275-0.045-0.599-0.081-0.933-0.183c-0.69-0.156-1.468-0.468-2.283-0.889c-0.793-0.442-1.622-1.003-2.359-1.67
						c-1.487-1.323-2.693-2.961-3.467-4.253c-0.395-0.646-0.687-1.207-0.898-1.607c-0.193-0.405-0.307-0.645-0.314-0.66
						c-0.037-0.135,1.197-0.57,2.754-0.971c1.558-0.401,2.843-0.646,2.871-0.545c0.001,0.014,0.012,0.223,0.031,0.577
						c0.029,0.352,0.065,0.855,0.147,1.451c0.154,1.194,0.509,2.759,1.176,4.22c0.329,0.734,0.758,1.411,1.222,2.027
						c0.48,0.589,0.996,1.122,1.511,1.496c0.505,0.387,0.977,0.678,1.324,0.837C423.133,579.234,423.333,579.332,423.333,579.332z"
						/>
				</g>
			</g>
		</g>
		<g opacity="0.3">
			<g>
				<g>
					<path d="M426.833,573.832c0,0-0.273-0.091-0.751-0.251c-0.247-0.075-0.543-0.18-0.852-0.366
						c-0.315-0.174-0.702-0.348-1.048-0.634c-0.76-0.509-1.509-1.272-2.26-2.111c-0.729-0.835-1.455-1.79-2.165-2.598
						c-1.321-1.466-3.321-2.792-4.633-4.601c-0.667-0.885-1.133-1.898-1.345-2.709c-0.2-0.824-0.207-1.356-0.202-1.39
						c0.012-0.294,1.328-0.371,2.923-0.173c0.799,0.09,1.521,0.197,2.047,0.269c0.525,0.073,0.853,0.111,0.852,0.131
						c0.022,0.027-0.342,0.203,0.007,1.457c0.176,0.608,0.582,1.412,1.11,2.321c0.51,0.908,1.211,1.952,1.718,3.16
						c0.48,1.133,0.837,2.179,1.246,3.146c0.41,0.94,0.833,1.803,1.335,2.443c0.221,0.355,0.499,0.602,0.728,0.852
						c0.225,0.262,0.458,0.443,0.659,0.583C426.604,573.661,426.833,573.832,426.833,573.832z"/>
				</g>
			</g>
		</g>
		<path opacity="0.3" enable-background="new    " d="M336.54,547.269c-0.66-0.399-1.27-0.779-1.85-1.14
			c0.67,0.24,1.35,0.42,2.06,0.62c1.73,0.49,2.91,1.13,4.87,1.13l0.13,0.12c0.2,0.24,0.39,0.519,0.57,0.82
			C340.14,548.62,338.06,548.2,336.54,547.269z"/>
		<path opacity="0.3" enable-background="new    " d="M426.09,578.22c0.58-0.91,1.45-1.899,2.05-2.92c-1.439,2.96-3.12,5.58-5.3,8.3
			c-2.05,2.58-5.22,4.53-7.93,6.311c-3.09,2.019-6.84,3.22-10.28,4.21c-7.54,2.18-16.4,1.5-24.38,1.1
			c-8.12-0.399-15.68-1.2-22.91-4.939c-6.52-3.37-10.05-9.4-12.71-15.91c-2.53-6.19-3.91-13.17-7.35-19.15
			c-1.54-2.68-3.83-4.87-6-7.13c-1.12-1.16-2.28-2.229-3.53-3.18c-1.06-0.811-2.78-2.69-4.23-2.391c0.1,1.131-0.6,2.15-1.5,2.711
			c1.08-1.961,1.99-4.631-0.35-6.08c1.1,0.51,2.27,0.88,2.1,2.33c0.41-0.021,0.81,0,1.2,0.05c0.9,2.85,6.01,5.23,8.06,7.319
			c2.62,2.69,4.52,5.261,6.22,8.561c3.33,6.479,4.92,13.729,8.72,19.95c4.35,7.14,11.06,9.29,18.77,10.6
			c7.78,1.33,16.04,2.38,23.97,2.55c10.89,0.24,22.33-1.72,30.8-8.22c0.391-0.2,0.771-0.41,1.141-0.63
			C424.11,580.79,425.19,579.66,426.09,578.22z"/>
		<path opacity="0.3" enable-background="new    " d="M428.63,574.29c-0.11,0.31-0.26,0.62-0.439,0.92
			C428.34,574.91,428.49,574.6,428.63,574.29z"/>
		<g opacity="0.2">
			<g>
				<g>
					<path fill="#FFFFFF" d="M415,581.333c0,0-0.566,0.78-1.68,1.805c-1.089,1.083-2.834,2.148-4.928,2.874
						c-2.121,0.578-4.153,0.66-5.639,0.45c-1.484-0.171-2.42-0.462-2.42-0.462s0.751-0.662,1.995-1.433
						c1.261-0.735,2.936-1.73,4.929-2.269c1.93-0.676,3.871-0.773,5.289-0.942C413.986,581.25,415,581.333,415,581.333z"/>
				</g>
			</g>
		</g>
		<g opacity="0.2">
			<g>
				<g>
					<path fill="#FFFFFF" d="M384.333,586.666c0,0-1.566,0.252-4.069,0.328c-2.5,0.073-5.96-0.062-9.672-0.95
						c-3.71-0.923-6.881-2.493-9.004-3.871c-1.072-0.669-1.863-1.358-2.418-1.792c-0.548-0.45-0.837-0.715-0.837-0.715
						s0.392,0.059,1.096,0.166c0.704,0.102,1.671,0.337,2.884,0.54c2.417,0.446,5.667,1.018,9.205,1.9
						c3.551,0.849,6.743,1.925,9.068,2.807C382.909,585.957,384.333,586.666,384.333,586.666z"/>
				</g>
			</g>
		</g>
	</g>
</g>
</svg>
