<?xml version="1.0" encoding="utf-8"?>
<!-- Generator: Adobe Illustrator 25.0.1, SVG Export Plug-In . SVG Version: 6.00 Build 0)  -->
<svg version="1.1" id="Capa_1" xmlns="http://www.w3.org/2000/svg" xmlns:xlink="http://www.w3.org/1999/xlink" x="0px" y="0px"
	 viewBox="0 0 800 800" enable-background="new 0 0 800 800" xml:space="preserve">
<g id="bocas">
	<g id="_x35__2_">
		<g>
			<path opacity="0.3" fill="#EA7DAE" enable-background="new    " d="M323.798,548.531c4.627-0.374,6.516,6.326,7.519,9.688
				c1.499,5.033,2.896,10.071,6.225,14.259c1.94,2.439,4.599,4.237,7.517,5.334c11.815,4.436,25.218,5.133,37.71,5.111
				c10.168-0.017,20.155-0.624,29.926-3.648c5.503-1.702,10.942-3.848,16.191-6.215c3.218-1.453,6.355-3.084,9.357-4.945
				c2.586-1.603,5.186-3.322,6.76-6.02c1.775-3.042,1.737-6.682,2.89-9.941c1.174-3.32,3.578-5.571,5.961-8.122
				c0.172-0.185,0.48-0.328,0.688-0.526c-2.124-0.087-4.365,0.565-6.646,0.565c-2.302,0-4.14,0.233-6.166,0.806
				c-3.451,0.973-6.378,2.841-9.275,4.945c-3.306,2.401-6.745,2.485-10.492,3.452c-3.837,0.988-7.213,2.939-11.151,3.488
				c-2.21,0.309-4.629-0.163-6.84,0.271c-1.892,0.373-3.68,1.231-5.574,1.538c-2.162,0.349-4.528,0.02-6.693,0
				c-2.244-0.019-4.072,1.005-6.274,1.116c-2.278,0.114-4.626-0.108-6.831,0.14c-2.096,0.235-4.109,0.728-6.274,0.836
				c-4.175,0.212-9.729,0.708-13.662-0.283c-1.833-0.462-3.636-1.279-5.578-1.394c-2.447-0.145-3.639-0.208-5.337-2.053
				c-2.638-2.87-6.447-3.602-9.833-4.667c-2.115-0.666-4.203-1.516-6.314-2.193c-2.259-0.727-4.695-0.841-7.103-1.263"/>
			<path fill="#EDEDE2" d="M348.199,556.341c7.163-4.729,15.546-5.857,24.124-5.857c8.328,0,17.107,4.04,25.268,0.871
				c3.421-1.327,6.494-3.294,9.868-4.774c3.947-1.732,7.682-2.4,12.132-1.673c4.966,0.812,10.126,3.531,15.176,3.228
				c-0.169,1.129-3.253,2.399-4.3,2.907c-1.944,0.94-3.807,0.849-5.864,1.391c-3.494,0.919-6.768,3.075-10.304,3.775
				c-4.107,0.815-8.424,0.868-12.562,1.519c-2.142,0.337-3.943,0.983-6.268,0.983c-2.222,0-4.375-0.45-6.444-0.029
				c-2.053,0.416-4.281,0.342-6.414,0.557c-2.027,0.203-3.997,0.636-5.965,1.007c-3.942,0.744-9.299,1.327-13.393,0.565
				c-2.544-0.474-4.969-1.441-7.523-1.827c-2.486-0.376-5.443,0.521-7.39-1.387"/>
			<path opacity="0.3" fill="#B23665" enable-background="new    " d="M333.419,551.182c1.766,0.192,5.421-3.398,6.864-4.423
				c1.659-1.18,3.128-2.291,4.849-3.246c3.59-1.994,7.125-4.252,10.631-6.521c3.871-2.505,7.484-2.15,11.815-1.013
				c4.107,1.078,7.978,2.619,12.273,3.219c2.175,0.304,4.896,0.552,7.002,0.022c1.916-0.481,3.876-1.687,5.683-2.566
				c3.604-1.759,7.417-3.752,11.049-5.098c4.062-1.507,8.385-2.294,12.626-1.116c3.876,1.076,8.002,2.655,11.779,4.254
				c3.484,1.475,7.068,2.875,10.458,4.323c1.531,0.655,3.496,1.2,4.151,2.958c0.745,1.992-1.861,2.803-3.342,3.354
				c-4.016,1.494-8.885,0.758-13.006,0.166c-4.097-0.586-8.964-1.311-13.324-0.697c-7.238,1.018-13.279,7.25-20.529,8.336
				c-4.599,0.689-7.868-1.707-11.984-2.797c-3.941-1.042-9.29-1.109-13.424-0.441c-4.24,0.685-8.098,2.621-12.239,3.652
				c-4.383,1.092-8.773,1.06-12.959-0.144c-1.551-0.445-2.926-1.148-4.474-1.774c-1.759-0.712-3.598-0.485-5.434-1.007"/>
			<g>
				<g>
					<g>
						<path d="M465.313,538.331c0,0-0.494,0.247-1.435,0.718c-0.947,0.458-2.347,1.138-4.216,1.864
							c-0.922,0.4-1.994,0.717-3.149,1.126c-1.185,0.315-2.462,0.712-3.893,0.928c-0.355,0.06-0.714,0.145-1.086,0.185
							c-0.375,0.029-0.756,0.06-1.143,0.091c-0.388,0.026-0.781,0.069-1.183,0.083c-0.405-0.02-0.815-0.042-1.233-0.063
							c-0.414-0.035-0.85-0.019-1.266-0.1c-0.417-0.075-0.839-0.151-1.268-0.229c-0.865-0.132-1.708-0.409-2.598-0.618
							c-3.5-1.008-7.132-2.625-10.962-4.279c-3.884-1.566-7.975-3.573-12.278-5.229c-4.288-1.626-9.062-2.906-13.719-1.962
							c-1.16,0.227-2.225,0.562-3.417,1.155c-1.165,0.532-2.339,1.069-3.522,1.61c-0.592,0.269-1.186,0.539-1.782,0.81
							c-0.591,0.281-1.154,0.63-1.736,0.942c-1.156,0.641-2.32,1.286-3.491,1.935c-1.151,0.617-2.377,1.35-3.632,2.014
							c-0.661,0.293-1.293,0.621-1.973,0.874c-0.705,0.211-1.372,0.507-2.104,0.631c-0.728,0.124-1.447,0.315-2.184,0.305
							l-1.096,0.043c-0.362,0.002-0.714-0.051-1.071-0.075l-1.062-0.099l-1.017-0.197l-1.011-0.2l-0.977-0.267
							c-2.614-0.701-4.938-1.751-7.217-2.535c-2.271-0.803-4.493-1.378-6.678-1.439c-2.171-0.083-4.303,0.331-6.291,1.076
							c-1.987,0.73-3.8,1.794-5.505,2.942c-1.704,1.124-3.305,2.431-5.016,3.464c-1.677,1.05-3.337,1.973-4.968,2.763
							c-3.254,1.587-6.401,2.665-9.28,3.076c-2.868,0.432-5.49,0.06-7.297-0.935c-1.832-0.965-2.786-2.315-3.332-3.196
							c-0.291-0.442-0.443-0.817-0.564-1.059c-0.116-0.243-0.176-0.367-0.176-0.367s0.069,0.119,0.205,0.353
							c0.139,0.23,0.319,0.589,0.639,1.004c0.603,0.83,1.634,2.067,3.426,2.856c1.77,0.818,4.235,1.009,6.943,0.435
							c2.716-0.557,5.689-1.762,8.765-3.461c1.541-0.847,3.109-1.821,4.687-2.913c1.584-1.056,3.077-2.39,4.825-3.652
							c3.389-2.532,7.823-4.9,12.988-4.844c2.543-0.001,5.079,0.605,7.476,1.393c2.407,0.773,4.726,1.759,7.088,2.346
							c2.375,0.609,4.775,0.922,7.055,0.376c0.579-0.094,1.138-0.36,1.712-0.526c0.569-0.215,1.128-0.514,1.697-0.764
							c1.147-0.64,2.303-1.284,3.464-1.932c1.213-0.669,2.418-1.334,3.616-1.994c0.603-0.321,1.186-0.677,1.802-0.965
							c0.622-0.278,1.241-0.556,1.858-0.831c1.235-0.55,2.462-1.095,3.678-1.635c1.15-0.564,2.577-1.017,3.939-1.254
							c2.739-0.513,5.485-0.352,8.021,0.156c2.545,0.51,4.909,1.343,7.134,2.258c2.225,0.919,4.316,1.93,6.329,2.906
							c2.014,1.002,3.939,1.873,5.863,2.793c3.801,1.831,7.26,3.564,10.577,4.705c0.836,0.239,1.642,0.554,2.45,0.72
							c0.402,0.096,0.801,0.189,1.192,0.282c0.394,0.101,0.781,0.1,1.165,0.154c0.385,0.042,0.764,0.084,1.137,0.126
							c0.378,0.007,0.753-0.013,1.121-0.017c0.37-0.007,0.733-0.015,1.091-0.021c0.358-0.019,0.709-0.08,1.055-0.117
							c1.39-0.123,2.662-0.433,3.843-0.666c1.158-0.329,2.238-0.57,3.176-0.903c1.898-0.593,3.34-1.166,4.317-1.55
							C464.802,538.538,465.313,538.331,465.313,538.331z"/>
					</g>
				</g>
			</g>
			<g>
				<path d="M391.311,573.456c0.206,0.91,0.441,1.589,0.689,1.897C391.834,574.703,391.595,574.074,391.311,573.456z"/>
				<path d="M366.469,573.273c0.072-1.099-0.154-2.221-0.41-3.369C365.966,571.18,366.091,572.373,366.469,573.273z"/>
				<path d="M377.973,568c0.229,0.567,0.469,1.083,0.67,1.513C378.491,569.006,378.253,568.503,377.973,568z"/>
				<path d="M439.182,550.356c-3.814-1.846-0.411-3.64,2.192-4.203c5.249-1.135,12.345-0.739,16.768-4.034
					c-2.278,1.094-6.57,0.373-9.053,0.157c-3.015-0.262-6.219-0.319-9.317-0.163c-0.017,0.055-0.031,0.105-0.046,0.158
					c-0.275,0.282-0.067,1.667-0.442,2.197c-0.275,0.387-0.991,0.864-1.421,1.015c-1.29,0.455-3.134,0.145-4.572,0.007
					c-2.906-0.281-5.855-0.987-8.775-1.585c-5.904-1.206-12.225-0.989-17.497,1.585c-4.7,2.293-9.813,5.685-14.98,5.932
					c-6.56,0.31-11.391-2.067-17.301-3.203c-6.467-1.243-11.785,0.372-17.66,2.549c-5.696,2.108-12.17,1.471-18.412,1.016
					c1.625-0.845,3.822-1.376,5.617-2.239c4.526-2.178,8.328-5.463,12.072-8.837c3.39-3.053,8.401-5.908,13.008-4.56l-1.279-0.561
					c-4.224-0.127-9.029-0.795-12.992,0.609c-4.606,1.632-8.535,5.077-12.834,7.456c-3.813,2.108-10.274,6.896-14.545,5.369
					c1.439,1.799,3.312,3.149,5.449,3.826c3.499,1.11,14.205,1.609,13.043,7.55c-0.468,2.397-2.776,4.17-3.957,6.192
					c-1.623,2.778-2.177,4.749-2.177,8.114c0.314-2.804,2.36-6.317,4.009-8.672c2.947-4.21,8.509-8.629,13.3-4.314
					c2.474,2.23,0.398,5.137-0.253,7.572c-0.698,2.618-0.802,6.578,0.356,8.91c0.339-4.652-0.189-9.699,3.333-13.13
					c0.853-0.829,1.796-1.395,3.005-1.268c1.795,0.189,1.567,0.746,1.624,2.437c0.041,1.248,0.346,2.47,0.615,3.664
					c0.231-3.162,1.813-6.827,4.251-7.73c2.436-0.901,4.482-0.089,5.442,2.081c0.549,1.237,1.517,2.487,2.221,3.746
					c-0.789-1.948-1.466-4.516-0.09-6.373c1.384-1.87,6.125-1.888,7.915-0.317c1.835,1.612,1.554,5.166,2.786,7.364
					c0.883,1.572,1.966,3.129,2.727,4.781c-0.892-3.911-1.251-12.069,0.319-13.123c0.452,0.466,0.895,0.727,1.065,1.42
					c2.531-4.819,9.072-0.812,11.065,2.508c2.812,4.686,2.13,9.055,2.531,14.549c2.749-5.284,0.809-16.219-3.268-20.441
					c3.672-1.536,7.888,0.46,10.79,2.333c2.221,1.436,6.63,4.695,9.412,4.33c-2.092-0.81-4.115-1.766-5.408-3.868
					c-3.653-5.945,6.352-8.55,10.555-8.321c4.226,0.227,10.172,5.037,11.367,8.962c-0.258-2.814-0.88-4.537-2.993-6.577
					c-1.197-1.154-5.669-4.202-1.675-4.618c2.513-0.262,3.636,2.773,5.525,4.014c2.048,1.345,4.121,1.626,5.243,4.035
					c-0.317-1.138-0.59-2.221-1.075-3.329C443.603,552.677,441.707,551.579,439.182,550.356z M416.385,551.288
					c0.062,3.943-1.182,3.636-4.657,3.99c-2.614,0.266-5.245,0.576-7.872,1.06c-2.416,0.443-4.657,1.664-7.151,1.781
					c-2.594,0.123-4.055-1.938-6.464-2.409c0.18,3.306-2.981,2.583-5.309,2.815c-2.449,0.244-4.785,0.616-7.308,0.609
					c-2.557-0.008-5.502,0.357-7.917-0.249c-2.601-0.651-2.944-2.05-4.425-3.792c-0.456,3.468-3.333,2.249-6.129,2.213
					c-2.135-0.026-5.974,1.254-7.698,0.045c2.514,0.09,5.008-0.674,7.28-1.273c2.637-0.694,4.88-1.537,7.269-3.085
					c2.717-1.759,5.034-2.061,8.373-1.562c2.86,0.428,5.529,1.255,8.329,1.811c3.044,0.603,6.473,0.41,9.738,0.41
					c5.994,0,10.419-2.749,15.179-5.931c2.76-1.845,4.521-2.125,7.9-1.783c3.211,0.327,6.479,0.812,9.479,0.812v0.405
					c2,0.083,5.91,0.379,8.512,1.022C427.666,550.028,422.021,556.524,416.385,551.288z"/>
				<path d="M369.362,536.146l1.968,0.861C370.687,536.625,370.029,536.341,369.362,536.146z"/>
			</g>
		</g>
		<path opacity="0.3" enable-background="new    " d="M377.25,539.75c-6.026-0.881-12.199-2.926-17.068,2.682
			c-3.614,4.162-6.904,8.073-11.344,11.58c3.139,0.305,6.672-2.402,9.913-2.762c3.785-0.42,7.73-0.81,11.5-1
			c3.859-0.193,8.441-0.392,11.993,0.507c3.736,0.946,7.367,1.469,11.507,1.243c7.075-0.386,12.541-5.363,19.237-6.763
			c5.558-1.162,17.36-2.348,21.756,2.269c0.01,0.011,0.975,0.431,0.988,0.438c-3.649,0.76-6.702,1.805-10.731,1.806
			c-4.114,0.001-8.167,0.072-12.007,0.743c-6.763,1.183-13.142,4.698-19.938,5.812c-3.693,0.605-7.769,0.949-11.806,0.694
			c-3.781-0.239-7.335-1.349-11.25-1.5c-4.099-0.158-7.195,0.556-10.757,1.743c-3.18,1.059-7.287,2.65-10.43,0.208
			c-2.134-1.659-3-3.277-5.751-4.013c-2.648-0.708-5.751-1.1-8.529-1.482c1.017-2.018,6.283-4.378,8.468-5.705
			c3.062-1.861,5.887-4.016,8.931-5.82c2.741-1.626,5.867-4.284,8.874-5.126c4.14-1.159,6.98,1.342,10.689,2.689
			c0.507,0.184,1.173,0.384,1.506,0.507"/>
		<path opacity="0.3" enable-background="new    " d="M331.6,550.07c-0.98-0.31-2-0.511-3.04-0.67c2.12-0.021,4.37-0.381,6.04-0.721
			c-0.36,0.49-0.4,1.4-0.33,2.32C333.38,550.67,332.49,550.36,331.6,550.07z"/>
		<path opacity="0.3" enable-background="new    " d="M334.88,548.62c-0.09,0.019-0.18,0.04-0.28,0.06
			c0.04-0.069,0.09-0.13,0.15-0.18L334.88,548.62z"/>
		<path opacity="0.3" fill="#EA7DAE" enable-background="new    " d="M326.26,549.07c-0.58-0.07-1.17-0.16-1.76-0.261l-0.7-0.279
			C324.73,548.46,325.54,548.66,326.26,549.07z"/>
		<path opacity="0.3" fill="#EA7DAE" enable-background="new    " d="M326.26,549.07c0.77,0.109,1.54,0.21,2.3,0.33
			c-0.64,0.02-1.28,0-1.88-0.061l-0.01-0.01C326.54,549.24,326.4,549.16,326.26,549.07z"/>
		<g opacity="0.2">
			<g>
				<g>
					<path fill="#FFFFFF" d="M437.667,565.333c0,0-1.117,0.775-3.137,2.178c-0.997,0.742-2.325,1.447-3.849,2.321
						c-1.511,0.907-3.309,1.765-5.298,2.73c-0.99,0.498-2.046,0.959-3.147,1.439c-1.106,0.474-2.235,1.001-3.449,1.477
						c-1.217,0.475-2.475,0.966-3.77,1.472c-1.323,0.438-2.685,0.889-4.081,1.351c-5.63,1.71-12.034,3.021-18.84,3.46
						c-6.794,0.442-13.332,0.01-19.121-0.913c-5.786-0.94-10.872-2.143-15.138-3.131c-4.261-0.996-7.707-1.793-10.106-2.285
						c-2.403-0.492-3.732-0.765-3.732-0.765s1.357,0.058,3.812,0.163c2.455,0.132,6.004,0.454,10.363,0.975
						c4.354,0.511,9.517,1.232,15.209,1.791c5.689,0.542,11.917,0.712,18.457,0.29c6.53-0.422,12.7-1.441,18.238-2.748
						c1.38-0.353,2.726-0.695,4.033-1.029c1.296-0.388,2.555-0.763,3.771-1.126c1.221-0.357,2.392-0.774,3.525-1.131
						c1.133-0.364,2.224-0.709,3.239-1.087c2.048-0.727,3.922-1.353,5.504-2.04c1.597-0.658,3.011-1.167,4.083-1.743
						C436.444,565.92,437.667,565.333,437.667,565.333z"/>
				</g>
			</g>
		</g>
		<g opacity="0.2">
			<g>
				<g>
					<path fill="#FFFFFF" d="M404.334,579.332c0,0-0.382,0.175-1.089,0.453c-0.708,0.262-1.739,0.703-3.053,1.046
						c-2.618,0.714-6.369,1.315-10.466,1.111c-4.089-0.228-7.691-1.089-10.259-1.853c-2.569-0.763-4.134-1.424-4.134-1.424
						s1.672-0.304,4.341-0.507c2.669-0.201,6.309-0.315,10.247-0.096c3.935,0.194,7.468,0.571,10.098,0.833
						c1.313,0.146,2.381,0.189,3.136,0.289C403.913,579.28,404.334,579.332,404.334,579.332z"/>
				</g>
			</g>
		</g>
		<g opacity="0.2">
			<g>
				<g>
					<path fill="#FFFFFF" d="M432.667,540.666c0,0-0.706-0.342-1.982-0.958c-0.312-0.153-0.66-0.324-1.04-0.511
						c-0.399-0.147-0.833-0.306-1.299-0.477c-0.459-0.172-0.949-0.356-1.47-0.553c-0.519-0.191-1.105-0.308-1.692-0.48
						c-0.595-0.154-1.203-0.349-1.851-0.497c-0.656-0.123-1.338-0.25-2.045-0.382c-0.352-0.063-0.704-0.145-1.068-0.201
						c-0.368-0.041-0.742-0.082-1.122-0.124c-0.759-0.075-1.527-0.205-2.327-0.257c-0.8-0.042-1.62-0.085-2.457-0.129
						c-0.834-0.058-1.694,0.003-2.562-0.012c-0.868-0.024-1.753,0.033-2.651,0.094c-0.449,0.024-0.901,0.048-1.357,0.072
						c-0.464,0.016-0.838,0.108-1.265,0.151c-3.323,0.488-6.479,2.126-9.441,3.58c-2.952,1.481-5.799,2.818-8.383,3.439
						c-2.579,0.646-4.782,0.579-6.195,0.243c-0.714-0.118-1.233-0.378-1.59-0.477c-0.352-0.125-0.537-0.19-0.537-0.19
						s0.197,0.009,0.573,0.026c0.376-0.006,0.911,0.102,1.605,0.035c1.385-0.035,3.328-0.455,5.505-1.473
						c2.195-1.001,4.593-2.633,7.41-4.457c1.405-0.905,2.947-1.844,4.669-2.684c1.699-0.861,3.68-1.553,5.811-1.884
						c0.526-0.061,1.093-0.165,1.578-0.174c0.492-0.016,0.981-0.031,1.467-0.046c0.971-0.035,1.927-0.052,2.869,0.026
						c0.941,0.069,1.865,0.077,2.764,0.214c0.895,0.135,1.772,0.268,2.628,0.397c0.851,0.149,1.667,0.388,2.462,0.576
						c0.396,0.102,0.786,0.201,1.17,0.299c0.38,0.115,0.747,0.258,1.11,0.384c0.721,0.262,1.416,0.515,2.085,0.758
						c0.655,0.276,1.265,0.601,1.85,0.881c0.578,0.299,1.144,0.539,1.641,0.852c0.49,0.318,0.952,0.619,1.385,0.9
						c0.425,0.283,0.82,0.546,1.185,0.788c0.343,0.274,0.642,0.546,0.915,0.778C432.078,540.143,432.667,540.666,432.667,540.666z"
						/>
				</g>
			</g>
		</g>
		<g opacity="0.2">
			<g>
				<g>
					<path fill="#FFFFFF" d="M405.334,543c0,0-0.101,0.581-0.299,1.209c-0.204,0.606-0.484,1.353-1.072,1.688
						c-0.609,0.383-1.428,0.324-2.115,0.179c-0.677-0.151-1.181-0.409-1.181-0.409s0.007-0.576,0.158-1.242
						c0.141-0.656,0.461-1.432,1.111-1.84c0.7-0.404,1.568-0.364,2.268-0.129C404.888,542.672,405.334,543,405.334,543z"/>
				</g>
			</g>
		</g>
	</g>
</g>
</svg>
