<?xml version="1.0" encoding="utf-8"?>
<!-- Generator: Adobe Illustrator 25.0.1, SVG Export Plug-In . SVG Version: 6.00 Build 0)  -->
<svg version="1.1" id="Capa_1" xmlns="http://www.w3.org/2000/svg" xmlns:xlink="http://www.w3.org/1999/xlink" x="0px" y="0px"
	 viewBox="0 0 800 800" enable-background="new 0 0 800 800" xml:space="preserve">
<g id="bocas">
	<g id="_x31_0_2_">
		<g>
			<path fill="#EDEDE2" d="M351.68,539.224c-0.22-1.705,1.369-3.474,2.476-4.596c1.527-1.54,2.9-1.752,4.979-1.831
				c4.232-0.163,8.314,0.453,12.204,1.292c4.062,0.877,7.591,1.296,11.475,2.79c3.731,1.433,8.035,4.055,12.025,2.059
				c3.038-1.521,5.601-4.066,8.637-5.656c3.22-1.681,6.599-2.843,9.805-4.436c3.643-1.813,6.519-2.743,10.637-2.99
				c4.264-0.257,7.488,0.281,11.583,0.894c2.675,0.399,5.837,1.508,8.367,2.162c1.383,0.358,2.901,0.308,4.242,0.643
				c1.391,0.346,2.794,0.606,4.074,1.285c-1.876,0.568-4.03,0.237-5.874,0.7c-1.684,0.424-3.39,0.824-5.042,1.415
				c-3.107,1.104-5.186,2.477-7.618,4.819c-1.09,1.048-3.142,2.358-4.237,3.473c-1.188,1.209-2.521,2.309-3.704,3.504
				c-2.596,2.627-4.93,5.639-7.154,8.508c-2.236,2.884-5.236,4.819-8.034,7.018c-2.668,2.094-5.363,4.319-8.326,5.938
				c-3.525,1.929-6.777,2.908-10.924,2.309c-3.319-0.482-7.273-2.216-10.255-4.015c-2.955-1.781-5.557-4.278-8.288-6.488
				c-2.731-2.209-5.582-4.159-8.297-6.361c-2.323-1.885-4.848-3.7-6.998-5.848c-2.157-2.156-3.998-4.455-6.009-6.716"/>
			<path opacity="0.3" fill="#EA7DAE" enable-background="new    " d="M341.526,538.967c-3.017-0.299-6.641-0.385-9.374-1.384
				c0.589,0.027,1.229,1.026,1.754,1.418c0.634,0.478,1.44,0.81,2.064,1.28c1.182,0.89,2.289,1.984,3.339,3.086
				c2.321,2.441,4.56,5.023,6.748,7.551c4.622,5.338,8.103,11.594,12.598,17.072c4.852,5.913,10.751,11.071,17.831,13.94
				c3.773,1.529,7.604,2.156,11.561,2.932c4.091,0.799,7.949,1.619,12.347,1.177c6.978-0.696,13.421-4.969,18.412-10.306
				c4.948-5.291,8.066-11.792,12.279-17.386c1.839-2.441,4.608-5.304,5.817-8.065c1.311-2.997,2.982-5.204,5.426-7.683
				c3.787-3.842,7.888-7.789,11.439-11.729c-2.266,0.074-3.582,0.283-5.591,0.386c-1.864,0.094-4.016,0.689-5.719,1.445
				c-3.163,1.403-6.047,2.967-8.81,5.074c-5.963,4.551-11.267,9.737-15.867,15.752c-4.457,5.831-9.719,13.038-17.122,15.011
				c-3.51,0.934-9.166,0.847-12.633,0.021c-3.931-0.937-7.663-2.652-11.032-5.142c-6.296-4.655-12.414-9.51-18.021-15.036
				c-2.497-2.461-5.431-4.754-8.457-6.461c-3.318-1.872-6.839-3.954-10.662-3.981"/>
			<path opacity="0.3" fill="#B23665" enable-background="new    " d="M435.613,525.599c-1.695-0.212-2.934-1.438-4.402-2.28
				c-1.613-0.93-3.243-1.812-4.854-2.768c-3.034-1.799-6.408-3.904-9.893-4.589c-4.403-0.864-8.673,0.087-12.854,1.122
				c-3.667,0.907-6.582,2.731-10.15,4.148c-3.86,1.529-7.856,1.797-12.087,1.797c-4.447,0-8.54-0.047-12.826-0.672
				c-7.712-1.126-16.07-1.018-22.293,3.985c-2.47,1.984-5.231,3.547-7.784,5.325c-2.449,1.707-5.01,3.498-7.708,4.695
				c1.289,0.828,3.851,1.494,5.373,1.953c1.863,0.562,3.736,0.804,5.777,0.907c2.182,0.11,3.77-0.373,5.655-1.285
				c1.6-0.774,3.307-1.512,4.854-2.347c1.426-0.769,2.655-2.025,4.265-2.544c1.807-0.583,4.065-0.508,6.048-0.508
				c4.45,0,8.32,0.301,12.472,1.381c6.85,1.784,15.245,8.908,22.226,3.988c1.5-1.058,2.471-2.639,3.89-3.793
				c1.418-1.155,3.025-1.986,4.601-2.861c3.425-1.905,6.779-3.533,10.569-4.47c6.23-1.542,13.229-0.544,19.765-0.544"/>
			<path d="M369.803,550.729c4.172,0.388,8.455-0.761,12.724-0.772c3.191-0.009,3.086,0.634,3.086,3.662c0,2.23-0.003,4.462,0,6.691
				c0.704-2.764,0.94-5.764,0.992-8.783c1.675-0.651,3.178-1.297,4.844-2.095c1.928-0.922,3.608-0.046,5.733,0.138
				c1.555,0.136,5.049-0.269,6.226,0.716c1.118,0.935,1.139,4.782,1.101,6.169c-0.074-1.35,0.551-3.497,1.006-4.72
				c0.289-0.778,0.275-1.209,0.965-1.734c0.724-0.549,1.733,0.231,2.053-0.976c-2.962,0.129-6.002,0.306-8.803-0.462
				c-2.895-0.793-5.311-1.58-8.343-1.874c-2.856-0.276-6.011-0.722-8.853-0.005c-2.521,0.635-5.047,1.562-7.514,2.308
				c-1.491,0.452-3.463,0.683-4.637,1.545"/>
			<path d="M351.68,540.315c-1.319-1.559-3.17-2.989-5.205-3.083c-1.419-0.068-2.826-0.061-4.098,0.341
				c-1.156,0.368-1.896,1.162-3.21,1.046c1.208,1.181,4.352,2.226,6.004,2.999c2.269,1.062,5.393,1.979,7.826,2.336
				c0.211-1.303-0.177-2.337-0.932-3.253"/>
			<path d="M428.232,540.558c-5.516,5.398-11.079,0.85-11.882-5.858c-1.296,3.276,2.963,8.549,0.629,11.865
				c-1.868,2.656-9.261,1.658-12.257,1.507c-0.133-3.945-2.942-11.311-6.893-11.815c-2.628-0.335-5.935,1.646-8.747,1.777
				c-3.198,0.146-6.44-0.1-9.619,0.062c-0.34,2.698,0.415,5.5,0.295,8.295c-4.282,1.45-13.246,2.228-17.092-0.465
				c-3.902-2.731-6.171-7.887-7.324-12.04c-3.75-0.266-9.56,2.449-12.537,4.475c8.79,1.772,14.739,12.657,23.535,13.573
				c4.597,0.482,10.573-2.708,15.587-2.954c7.182-0.354,8.322,1.825,11.689,7.123c0.489-5.528,1.18-5.447,6.831-5.442
				c4.054,0.008,8.159-0.197,12.207,0c4.301,0.214,6.274,0.685,9.376-2.43c2.008-2.016,3.232-5.133,5.357-6.829"/>
			<g>
				<g>
					<g>
						<path d="M330.857,536.652c0,0,0.48,0.16,1.395,0.466c0.918,0.294,2.277,0.706,4.04,1.201c3.509,1.03,8.689,2.25,14.808,4.745
							c3.046,1.253,6.31,2.938,9.438,5.3c3.108,2.298,6.307,4.907,9.716,7.549c3.413,2.631,7.04,5.341,11.086,7.583
							c4.024,2.219,8.584,3.973,13.364,3.901c2.375-0.051,4.697-0.561,6.847-1.444c2.153-0.881,4.129-2.115,5.936-3.519
							c3.595-2.898,6.814-6.093,9.768-9.226c2.969-3.132,5.715-6.208,8.462-8.941c2.741-2.737,5.463-5.14,8.147-7.081
							c0.683-0.467,1.371-0.895,2.029-1.326c0.332-0.211,0.653-0.43,0.981-0.626c0.341-0.179,0.676-0.354,1.007-0.528
							c0.66-0.345,1.302-0.681,1.924-1.006c0.652-0.26,1.284-0.512,1.896-0.755c1.201-0.54,2.399-0.809,3.48-1.106
							c1.072-0.342,2.094-0.459,3.005-0.593c1.812-0.343,3.247-0.297,4.211-0.337c0.964-0.026,1.47-0.04,1.47-0.04
							s-0.505,0.043-1.466,0.124c-0.959,0.092-2.384,0.122-4.163,0.552c-0.893,0.177-1.893,0.34-2.935,0.728
							c-1.052,0.345-2.213,0.658-3.368,1.241c-0.588,0.264-1.195,0.535-1.822,0.816c-0.595,0.344-1.209,0.698-1.842,1.064
							c-0.315,0.182-0.636,0.366-0.96,0.553c-0.314,0.206-0.62,0.433-0.937,0.651c-0.628,0.447-1.283,0.889-1.934,1.37
							c-2.555,1.997-5.143,4.44-7.771,7.224c-2.633,2.779-5.29,5.915-8.213,9.131c-2.919,3.227-6.108,6.511-9.82,9.572
							c-1.892,1.504-4.007,2.858-6.354,3.834c-2.342,0.98-4.921,1.558-7.544,1.611c-5.292,0.073-10.157-1.877-14.304-4.221
							c-4.178-2.38-7.812-5.199-11.196-7.921c-3.38-2.735-6.492-5.411-9.51-7.782c-2.955-2.372-6.061-4.116-9.017-5.463
							c-5.928-2.679-11.05-4.142-14.507-5.344c-1.738-0.583-3.077-1.068-3.978-1.413
							C331.328,536.84,330.857,536.652,330.857,536.652z"/>
					</g>
				</g>
			</g>
			<g>
				<g>
					<g>
						<path d="M453.673,531.062c0,0-1.766-0.385-4.959-1.08c-3.193-0.672-7.812-1.733-13.582-2.409
							c-5.739-0.648-12.767-0.926-20.111,1.039c-3.647,0.974-7.354,2.519-10.699,4.833c-0.42,0.292-0.839,0.561-1.267,0.873
							c-0.43,0.326-0.861,0.653-1.295,0.982c-0.453,0.311-0.909,0.622-1.366,0.936c-0.466,0.302-0.954,0.58-1.434,0.873
							c-1.95,1.12-4.143,1.996-6.479,2.374c-2.332,0.392-4.694,0.273-6.905-0.163c-2.216-0.434-4.304-1.152-6.279-1.952
							c-3.898-1.579-7.621-3.073-11.311-3.878c-3.678-0.814-7.295-0.818-10.538-0.03c-1.626,0.392-3.109,1.008-4.627,1.565
							c-1.496,0.562-2.931,1.101-4.301,1.615c-2.762,0.998-5.355,1.723-7.693,2.014c-2.338,0.287-4.397,0.127-5.995-0.29
							c-1.597-0.427-2.76-0.976-3.503-1.407c-0.736-0.448-1.122-0.684-1.122-0.684s0.4,0.21,1.161,0.609
							c0.764,0.384,1.948,0.855,3.53,1.186c1.584,0.319,3.586,0.367,5.841-0.022c2.257-0.395,4.749-1.215,7.435-2.313
							c1.344-0.565,2.751-1.159,4.218-1.777c1.454-0.596,3.019-1.312,4.724-1.781c3.412-0.955,7.314-1.059,11.199-0.29
							c3.892,0.754,7.758,2.23,11.662,3.754c3.824,1.504,8.023,2.641,12.184,1.93c2.071-0.335,4.04-1.104,5.857-2.133
							c0.448-0.271,0.903-0.523,1.342-0.804c0.434-0.292,0.867-0.582,1.297-0.871c0.421-0.313,0.841-0.625,1.258-0.935
							c0.432-0.309,0.903-0.608,1.35-0.91c3.605-2.427,7.528-3.966,11.353-4.892c3.832-0.917,7.571-1.283,11.048-1.236
							c3.474,0.055,6.698,0.328,9.597,0.823c5.808,0.927,10.37,2.228,13.523,3.076C451.933,530.572,453.673,531.062,453.673,531.062
							z"/>
					</g>
				</g>
			</g>
			<g>
				<g>
					<g>
						<path d="M330.857,536.652c0,0,0.486,0.341,1.413,0.989c0.919,0.657,2.316,1.577,3.994,2.926
							c3.402,2.621,8.222,6.657,13.192,12.613c0.61,0.751,1.273,1.493,1.88,2.306c0.602,0.817,1.216,1.653,1.844,2.506
							c1.259,1.689,2.351,3.638,3.639,5.441c2.529,3.624,5.62,7.293,9.252,10.673c3.645,3.366,7.916,6.433,12.791,8.604
							c4.857,2.185,10.366,3.33,15.962,2.959c5.603-0.347,10.925-2.199,15.607-4.768c4.664-2.501,8.388-6.227,11.44-10.123
							c3.061-3.92,5.536-8.031,7.869-11.888c2.211-3.943,4.867-7.326,7.113-10.452c1.194-1.519,2.415-2.898,3.525-4.235
							c1.118-1.331,2.157-2.597,3.267-3.658c1.073-1.092,2.072-2.106,2.992-3.042c0.46-0.466,0.9-0.911,1.319-1.336
							c0.435-0.409,0.874-0.772,1.276-1.13c3.245-2.818,5.04-4.377,5.04-4.377s-1.682,1.675-4.723,4.703
							c-0.377,0.381-0.789,0.768-1.196,1.2c-0.391,0.448-0.802,0.918-1.23,1.408c-0.857,0.979-1.789,2.043-2.791,3.187
							c-1.038,1.108-1.999,2.42-3.037,3.794c-1.028,1.379-2.164,2.799-3.27,4.35c-2.079,3.212-4.5,6.56-6.562,10.586
							c-2.19,3.947-4.56,8.209-7.639,12.382c-3.073,4.144-6.963,8.241-12.028,11.061c-4.936,2.805-10.665,4.864-16.787,5.245
							c-6.11,0.409-12.128-0.905-17.297-3.325c-5.196-2.406-9.627-5.749-13.333-9.36c-3.702-3.64-6.738-7.495-9.229-11.369
							c-1.261-1.921-2.226-3.834-3.4-5.558c-0.577-0.861-1.142-1.705-1.696-2.531c-0.558-0.823-1.174-1.577-1.737-2.344
							c-4.596-6.073-9.128-10.352-12.342-13.17c-1.583-1.446-2.909-2.456-3.78-3.177
							C331.317,537.027,330.857,536.652,330.857,536.652z"/>
					</g>
				</g>
			</g>
			<g>
				<g>
					<g>
						<path d="M454.059,531.062c0,0-0.458-0.078-1.33-0.227c-0.871-0.16-2.164-0.349-3.812-0.688
							c-3.295-0.644-8.112-1.589-13.795-3.756c-0.707-0.279-1.431-0.565-2.17-0.857c-0.738-0.297-1.465-0.66-2.223-1
							c-1.526-0.661-3.03-1.504-4.617-2.33c-3.086-1.679-6.36-3.517-9.996-4.465c-1.811-0.468-3.697-0.667-5.611-0.5
							c-1.915,0.161-3.851,0.683-5.761,1.446c-1.868,0.703-3.775,1.849-5.795,2.848c-2.025,1.012-4.137,1.982-6.371,2.777
							c-4.454,1.627-9.244,2.296-13.737,1.86c-1.113-0.145-2.244-0.234-3.308-0.433c-1.066-0.196-2.108-0.42-3.134-0.65
							c-2.02-0.476-3.999-0.942-5.928-1.398c-3.811-0.895-7.436-1.322-10.761-0.81c-1.655,0.27-3.211,0.759-4.664,1.367
							c-0.714,0.329-1.402,0.665-2.075,1.033c-0.662,0.409-1.309,0.811-1.941,1.202c-2.553,1.522-4.794,3.064-6.774,4.392
							c-2.011,1.298-3.727,2.446-5.181,3.295c-2.963,1.598-4.602,2.481-4.602,2.481s1.551-1.021,4.355-2.864
							c1.373-0.959,2.986-2.229,4.887-3.659c1.886-1.47,4.016-3.157,6.525-4.869c0.621-0.437,1.256-0.884,1.905-1.341
							c0.68-0.426,1.417-0.84,2.169-1.236c1.533-0.744,3.217-1.373,5.037-1.759c3.655-0.755,7.682-0.423,11.612,0.36
							c1.979,0.373,3.968,0.815,5.985,1.219c1.007,0.198,2.024,0.39,3.049,0.555c1.024,0.167,2.036,0.216,3.066,0.335
							c4.12,0.314,8.377-0.314,12.533-1.824c2.082-0.74,4.1-1.652,6.074-2.616c1.99-0.955,3.878-2.072,6.072-2.867
							c2.113-0.8,4.334-1.354,6.57-1.482c2.235-0.138,4.444,0.171,6.454,0.768c4.037,1.213,7.329,3.288,10.346,5.113
							c1.506,0.878,2.936,1.781,4.384,2.503c0.72,0.371,1.41,0.768,2.113,1.098c0.704,0.328,1.393,0.648,2.067,0.961
							c5.418,2.455,10.117,3.753,13.343,4.659C452.265,530.579,454.059,531.062,454.059,531.062z"/>
					</g>
				</g>
			</g>
		</g>
		<path opacity="0.3" enable-background="new    " d="M357.25,521.5c-5.572,0.019-10.405,3.646-15.194,6.318
			c-4.326,2.414-9.017,4.717-13.074,7.587c0.167-0.584-0.118-1.298-0.025-1.861c-0.24-0.156-0.856-0.477-1.119-0.556
			c2.811,0.407,0.394,5.085-0.818,5.955c1.232,0.249,2.164-0.462,2.273-1.662c2.163,0.484,4.986,4.177,6.646,5.78
			c2.27,2.194,4.094,4.647,5.881,7.119c3.791,5.243,6.373,11.275,10.243,16.507c8.173,11.043,18.214,20.58,32.688,21.312
			c7.733,0.392,14.143,0.138,20.812-2.938c5.428-2.503,11.254-5.262,15.148-10.275c-2.747,0.708-5.016,3.516-7.648,4.775
			c-3.093,1.479-6.372,2.856-9.812,3.188c-3.984,0.385-8.149,0.832-12.056,0.054c-3.475-0.692-6.698-2.087-9.999-3.249
			c-13.092-4.608-20.141-16.695-27.264-27.736c-2.757-4.273-5.696-8.516-9.838-11.575c1.63-0.248,3.657-1.434,5.169-2.149
			c0.414,2.068,2.382,2.61,3.688,3.88c0.318-7.691,14.098-5.767,18.238-4.162c7.011,2.716,12.573,6.028,20.312,6.438
			c7.915,0.419,12.23-5.292,18.006-9.688c6.513-4.956,13.127-4.812,21.244-4.812c4.096,0,7.438,0.928,11.257,1.493
			c2.637,0.392,8.854,1.234,10.974-0.437c-3.552-0.406-6.615-2.313-10.036-3.001c-3.71-0.746-7.653-0.939-11.389-1.361
			c-3.849-0.435-7.975-0.439-12.056-0.444c-3.898-0.005-6.625,1.36-10.062,2.938c-6.109,2.804-11.19,7.706-17.689,9.062
			c-4.172,0.871-7.293,0.419-11.061-1.444c-3.073-1.52-6.515-3.086-9.744-3.75c-5.071-1.043-11.673-1.864-17.139-1
			c-2.281,0.36-4.404,1.702-6.611,2.39c-2.622,0.817-5.255,1.088-7.907,1.516c-0.127-2.852,5.184-6.767,7.281-8.392
			c3.208-2.485,6.244-4.795,10.182-5.818"/>
		<g opacity="0.2">
			<g>
				<g>
					<path fill="#FFFFFF" d="M413.667,519.332c0,0-0.2,0.04-0.581,0.114c-0.378,0.089-0.939,0.141-1.637,0.342
						c-1.404,0.34-3.352,1.052-5.561,2.272c-2.227,1.201-4.676,2.99-7.628,4.882c-1.49,0.935-3.122,1.878-4.953,2.688
						c-1.841,0.785-3.9,1.39-6.059,1.66c-4.316,0.506-8.336-0.293-11.702-1.246c-3.389-0.97-6.271-2.063-8.728-2.833
						c-2.451-0.781-4.474-1.299-5.906-1.539c-0.713-0.153-1.276-0.186-1.659-0.254c-0.384-0.057-0.585-0.086-0.585-0.086
						s0.201-0.027,0.584-0.081c0.383-0.039,0.955-0.158,1.693-0.185c1.48-0.123,3.648-0.078,6.287,0.247
						c2.639,0.314,5.718,0.956,9.04,1.535c3.322,0.573,6.905,1.013,10.517,0.585c1.785-0.229,3.49-0.663,5.135-1.253
						c1.638-0.617,3.213-1.353,4.73-2.095c3.029-1.514,5.88-2.982,8.463-3.807c2.572-0.85,4.77-1.111,6.259-1.094
						c0.742-0.023,1.32,0.077,1.705,0.094C413.465,519.315,413.667,519.332,413.667,519.332z"/>
				</g>
			</g>
		</g>
		<g opacity="0.2">
			<g>
				<g>
					<path fill="#FFFFFF" d="M444.667,535.333c0,0-0.607,0.657-1.704,1.846c-1.089,1.199-2.82,2.795-4.725,4.877
						c-0.243,0.255-0.492,0.517-0.746,0.783c-0.226,0.284-0.456,0.575-0.69,0.872c-0.469,0.585-0.956,1.193-1.46,1.822
						c-0.439,0.688-0.892,1.398-1.357,2.129c-0.477,0.718-0.884,1.543-1.353,2.333c-1.818,3.228-3.582,7.003-6.04,10.819
						c-0.58,0.965-1.28,1.868-1.958,2.76c-0.643,0.918-1.43,1.703-2.168,2.497c-0.771,0.826-1.42,1.481-2.148,2.201
						c-0.713,0.707-1.425,1.392-2.135,2.047c-2.832,2.624-5.621,4.778-8.168,6.29c-2.526,1.539-4.842,2.363-6.475,2.635
						c-0.411,0.047-0.775,0.089-1.092,0.125c-0.312,0.033-0.586-0.008-0.8-0.007c-0.425-0.02-0.648-0.03-0.648-0.03
						s0.219-0.047,0.636-0.136c0.205-0.054,0.462-0.076,0.751-0.18c0.285-0.104,0.615-0.223,0.986-0.356
						c1.456-0.603,3.397-1.791,5.515-3.633c2.135-1.814,4.475-4.216,6.959-7.007c0.618-0.703,1.252-1.424,1.899-2.159
						c0.641-0.745,1.295-1.507,1.961-2.281c0.629-0.752,1.312-1.477,1.869-2.329c0.59-0.824,1.211-1.638,1.76-2.554
						c2.291-3.546,4.293-7.241,6.518-10.439c0.576-0.792,1.08-1.585,1.686-2.305c0.597-0.718,1.177-1.414,1.737-2.088
						c0.645-0.606,1.267-1.191,1.865-1.754c0.301-0.274,0.595-0.544,0.883-0.809c0.307-0.231,0.607-0.458,0.901-0.679
						c2.323-1.806,4.324-2.989,5.647-3.91C443.921,535.825,444.667,535.333,444.667,535.333z"/>
				</g>
			</g>
		</g>
	</g>
</g>
</svg>
