<?xml version="1.0" encoding="utf-8"?>
<!-- Generator: Adobe Illustrator 25.0.1, SVG Export Plug-In . SVG Version: 6.00 Build 0)  -->
<svg version="1.1" id="Capa_1" xmlns="http://www.w3.org/2000/svg" xmlns:xlink="http://www.w3.org/1999/xlink" x="0px" y="0px"
	 viewBox="0 0 800 800" enable-background="new 0 0 800 800" xml:space="preserve">
<g id="bocas">
	<g id="_x31__4_">
		<path opacity="0.3" enable-background="new    " d="M459.56,574.512c-5.315,2.404-10.757,4.54-16.682,4.582
			c-4.971,0.036-9.855-0.585-14.7-1.54c-0.871,0.223-1.879,0.213-3.015-0.125c-5.607-1.668-13.775-4.09-16.537-9.902
			c-0.07-0.148-0.119-0.288-0.183-0.435c-2.564,1.727-5.521,3.052-8.043,4.657c-4.141,2.637-9.271,5.082-14.276,5.251
			c-10.775,0.363-19.69-7.029-29.587-10.196c-3.944-1.262-6.71-3.719-4.913-6.679c-1.331-2.202-0.63,1.914-2.625,0.125
			c-0.497-0.445-1.825-1.53-2.25-2c-0.153,0.095-10.781,3.067-14.625,3.625c-4.173,4.38,4.651-2.072-1.504-0.44
			c-3.358,1.013-6.904,1.624-10.621,1.815c-1.452,0.074-2.39-2.447-3.667-2.749c1.229,0.792,1.667,5.333,0.612,7.73
			c-0.186-4.724,18.421-2.25,21.555-1.786c13.732,2.032,25.308,10.078,38.513,14.049c5.473,1.645,11.267,1.594,16.802,0.307
			c2.642-0.614,5.36-1.665,7.696-3.062c1.267-0.758,3.426-3.823,5.059-3.555c1.679,0.276,2.918,1.99,4.177,2.984
			c1.189,0.939,2.494,1.695,3.853,2.363c13.094,6.439,27.958,11.315,41.596,3.414c5.367-3.109,10.795-6.977,14.744-11.993
			c1.902-2.418,3.438-5.263,4.743-8.15C471.81,568.118,465.224,571.948,459.56,574.512z"/>
		<g>
			<path opacity="0.3" fill="#CC0E0E" enable-background="new    " d="M479.643,549.004c0,3.414-0.086,6.42-0.868,9.632
				c-0.815,3.347-3.201,5.337-5.649,7.864c-2.125,2.19-4.545,4.244-7.375,5.125c-2.845,0.885-6.702,3.271-9.625,4
				c-5.699,1.417-10.641,2.434-16.645,2.731c-6.339,0.313-12.345,0.313-17.958-2.392c-1.141-0.548-2.107-1.398-3.28-1.862
				c-1.208-0.474-2.574-0.681-3.792-1.227c-2.312-1.043-3.914-2.748-5.792-4.441c-0.433-0.392-0.851-0.831-1.291-1.215
				c0.052,0.074,0.105,0.147,0.155,0.224l-1.257-0.964c0.396,0.177,0.753,0.438,1.099,0.737c-0.639-0.892-1.464-1.697-1.967-2.669
				c-0.587-1.135-0.88-2.485-1.064-3.76c-0.116-0.778-0.269-1.544-0.431-2.302c0.387,0.754,0.762,1.496,1.086,2.225
				c0.824,1.856,1.754,3.614,2.243,5.575l0.871-0.291c-8.088-13.78-5.517-33.568,2.974-46.261c0.528-0.788,1.037-1.629,1.615-2.354
				c-0.602,0.32-1.172,0.648-1.709,0.986c0.22-0.226,0.442-0.448,0.667-0.666c4.26-4.128,7.577-6.323,12.851-8.074
				c2.725-0.904,6.875-1.332,9.766-1.652c3.201-0.358,6.671-0.098,9.945-0.098c3.02,0,5.816,0.727,8.495,2.009
				c3.288,1.57,6.83,3.052,9.657,5.331c3.03,2.442,5.893,5.229,8.686,7.937c2.191,2.122,3.922,4.809,5.091,7.63
				c1.169,2.83,2.638,5.628,3.121,8.567C479.771,542.463,479.643,545.758,479.643,549.004z"/>
			<path opacity="0.3" fill="#EA7DAE" enable-background="new    " d="M402.02,554.989c0.944,1.271,1.109,3.845,1.809,5.431
				c0.609,1.376,2.165,3.798,1.964,5.278c-0.365,2.675-6.639,5.025-8.986,6.38c-3.023,1.745-6.622,3.706-9.914,4.568
				c-4.546,1.189-7.473-0.849-11.302-2.758c-4.565-2.278-9.402-4.361-14.105-6.444c-2.543-1.129-5.224-2.105-7.772-2.961
				c-1.903-0.64-7.796-1.56-8.428-3.073c3.868-0.755,8.382-1.679,12.146-2.93c3.436-1.142,6.668-3.682,10.186-4.297
				c4.595-0.803,9.537,0.227,14.127,0.227c4.787,0,9.221,0.366,13.902,0.579c1.572,0.071,3.039,0.507,4.634,0.289"/>
			<path opacity="0.3" fill="#B23665" enable-background="new    " d="M423.163,510.674l-1.159-1.448
				c-5.267,0.659-11.866,5.153-15.133,9.487c-2.203,2.921-3.578,6.464-5.784,9.274c-2.198,2.798-5.49,4.798-8.554,6.509
				c-7.711,4.306-15.002,4.852-24.113,4.852c-4.465,0-9.045-0.552-12.825,1.657c-3.198,1.869-5.042,5.347-7.096,8.255
				c-2.152,3.048-4.428,5.242-7.312,7.489c-2.37,1.848-9.013,4.333-9.75,5.5c3.049,0.208,12.446-1.467,18.173-2.9
				c8.378-2.097,15.105-5.229,24.313-5.229c9.385,0,18.595,0.696,27.977,0.273c0.898,2.162,2.189,4.296,3.088,6.315
				c0.824,1.857,1.752,3.616,2.244,5.576l0.869-0.29c-8.087-13.78-5.516-33.569,2.975-46.263c0.527-0.785,1.037-1.628,1.614-2.354
				c-0.67,0.354-1.298,0.723-1.89,1.099C414.059,514.388,418.554,510.778,423.163,510.674z"/>
			<g>
				<g>
					<g>
						<path d="M403.862,543.294c0,0-0.098,1.12-0.282,3.252c-0.132,2.128-0.375,5.303,0.203,9.299
							c0.098,0.494,0.197,1.002,0.301,1.524c0.12,0.517,0.162,1.067,0.374,1.588c0.177,0.528,0.359,1.069,0.545,1.623
							c0.093,0.277,0.187,0.557,0.281,0.84c0.101,0.28,0.258,0.541,0.386,0.817c0.27,0.546,0.544,1.104,0.825,1.673
							c0.261,0.58,0.692,1.077,1.04,1.636c0.675,1.14,1.647,2.115,2.575,3.181c2.03,1.977,4.508,3.759,7.391,5.191
							c2.909,1.381,6.174,2.423,9.682,3.137c3.508,0.724,7.27,1.082,11.189,1.096c0.982,0.056,1.957-0.067,2.949-0.102
							c0.495-0.026,0.993-0.053,1.493-0.08l0.751-0.042l0.749-0.112c1-0.15,2.01-0.302,3.028-0.454
							c1.021-0.132,2.017-0.461,3.04-0.683c2.06-0.412,4.046-1.215,6.103-1.881c1.001-0.408,1.989-0.871,2.996-1.307
							c0.498-0.229,1.015-0.427,1.503-0.684c0.482-0.269,0.967-0.538,1.453-0.81c0.486-0.269,0.974-0.541,1.464-0.812
							c0.494-0.265,0.982-0.541,1.434-0.88c0.926-0.639,1.858-1.283,2.797-1.932c0.902-0.691,1.74-1.475,2.624-2.213
							c0.909-0.729,1.671-1.549,2.415-2.404c2.953-3.467,4.738-8.008,5.455-12.767c0.707-4.769,0.38-9.839-1.118-14.61
							c-1.497-4.773-4.236-9.236-7.79-13.053c-3.557-3.821-7.897-7.033-12.679-9.515c-4.786-2.479-9.911-4.179-15.084-4.999
							c-5.169-0.817-10.408-0.743-15.297,0.421c-4.898,1.14-9.253,3.577-12.916,6.79c-3.685,3.199-6.752,7.026-9.882,10.684
							c-1.573,1.841-3.105,3.642-4.823,5.366c-1.74,1.728-3.697,3.204-5.793,4.32c-4.194,2.249-8.702,3.357-13.023,3.823
							c-4.333,0.495-8.528,0.42-12.507,0.22c-1.98-0.096-3.893-0.198-5.718-0.042c-1.823,0.137-3.558,0.554-5.062,1.349
							c-0.765,0.376-1.438,0.891-2.083,1.42c-0.638,0.574-1.263,1.164-1.845,1.781c-1.173,1.227-2.243,2.511-3.272,3.776
							c-2.053,2.535-3.979,5.007-6.155,6.99c-2.131,2.018-4.591,3.434-6.936,4.253c-1.161,0.44-2.272,0.861-3.331,1.264
							c-1.077,0.352-2.117,0.641-3.093,0.938c-3.927,1.103-7.044,1.657-9.148,2.043c-2.106,0.385-3.212,0.587-3.212,0.587
							s1.097-0.244,3.187-0.709c2.086-0.464,5.181-1.13,9.041-2.357c0.958-0.328,1.979-0.647,3.034-1.03
							c1.038-0.433,2.126-0.886,3.263-1.36c2.297-0.889,4.543-2.281,6.561-4.297c2.044-1.976,3.865-4.449,5.858-7.055
							c1.001-1.303,2.054-2.639,3.236-3.943c0.588-0.657,1.221-1.287,1.886-1.916c0.706-0.614,1.458-1.215,2.316-1.666
							c1.69-0.95,3.647-1.46,5.604-1.653c1.967-0.214,3.952-0.148,5.934-0.099c3.944,0.11,8.039,0.09,12.196-0.47
							c4.149-0.528,8.368-1.673,12.18-3.802c1.908-1.058,3.657-2.428,5.21-4.021c1.564-1.616,3.089-3.455,4.611-5.29
							c3.062-3.677,6.129-7.631,10.018-11.09c1.94-1.722,4.088-3.3,6.446-4.585c2.353-1.282,4.917-2.291,7.558-2.929
							c5.292-1.302,10.901-1.404,16.397-0.558c5.502,0.851,10.919,2.637,15.983,5.259c5.059,2.627,9.658,6.038,13.452,10.146
							c3.786,4.1,6.739,8.946,8.337,14.18c1.593,5.229,1.89,10.68,1.069,15.846c-0.835,5.148-2.842,10.117-6.198,13.954
							c-0.841,0.945-1.732,1.863-2.687,2.607c-0.947,0.771-1.851,1.585-2.817,2.3c-0.999,0.667-1.991,1.33-2.977,1.987
							c-0.482,0.347-0.999,0.629-1.521,0.898c-0.518,0.276-1.033,0.552-1.547,0.826s-1.025,0.547-1.535,0.819
							c-0.516,0.26-1.058,0.457-1.582,0.688c-1.059,0.438-2.098,0.899-3.148,1.304c-2.155,0.659-4.235,1.446-6.386,1.836
							c-1.068,0.211-2.105,0.526-3.172,0.644c-1.061,0.137-2.114,0.271-3.156,0.405l-0.779,0.1l-0.783,0.028
							c-0.522,0.017-1.039,0.034-1.556,0.051c-1.029,0.013-2.056,0.114-3.057,0.036c-4.016-0.106-7.866-0.565-11.46-1.4
							c-3.593-0.825-6.936-1.988-9.909-3.502c-2.95-1.566-5.478-3.495-7.522-5.611c-0.939-1.137-1.909-2.18-2.576-3.383
							c-0.343-0.589-0.77-1.116-1.022-1.724c-0.271-0.597-0.537-1.181-0.798-1.752c-0.122-0.288-0.274-0.561-0.368-0.853
							c-0.088-0.294-0.176-0.584-0.263-0.871c-0.172-0.573-0.34-1.134-0.504-1.681c-0.197-0.538-0.224-1.103-0.329-1.633
							c-0.087-0.534-0.171-1.054-0.253-1.56c-0.451-4.079-0.088-7.251,0.123-9.375C403.722,544.41,403.862,543.294,403.862,543.294z
							"/>
					</g>
				</g>
			</g>
			<g>
				<g>
					<g>
						<path d="M407.657,566.06c0,0-0.223,0.249-0.646,0.723c-0.426,0.474-1.038,1.194-1.944,2.003
							c-1.761,1.665-4.537,3.909-8.464,5.897c-1.949,1.025-4.204,1.907-6.741,2.591c-2.552,0.706-5.456,0.916-8.42,0.574
							c-5.986-0.647-11.953-3.455-17.726-6.603c-2.902-1.568-5.68-3.167-8.4-4.471c-2.672-1.308-5.44-2.2-8.145-2.791
							c-5.414-1.212-10.519-1.334-14.772-1.142c-4.266,0.185-7.707,0.743-10.075,1.16c-1.183,0.221-2.102,0.403-2.72,0.549
							c-0.622,0.134-0.948,0.205-0.948,0.205s0.314-0.112,0.914-0.326c0.598-0.222,1.489-0.515,2.647-0.87
							c2.319-0.686,5.723-1.61,10.053-2.169c4.316-0.56,9.592-0.822,15.383,0.182c2.889,0.489,5.899,1.33,8.84,2.674
							c2.909,1.307,5.726,2.88,8.611,4.438c5.73,3.129,11.265,5.889,16.663,6.727c5.38,0.972,10.315-0.496,14.232-2.054
							c3.931-1.588,6.865-3.484,8.775-4.92c0.982-0.695,1.669-1.327,2.148-1.743C407.404,566.278,407.657,566.06,407.657,566.06z"/>
					</g>
				</g>
			</g>
			<g>
				<g>
					<g>
						<path d="M422.398,516.839c0,0-0.223,0.198-0.622,0.556c-0.2,0.168-0.44,0.376-0.694,0.643
							c-0.258,0.262-0.563,0.523-0.855,0.87c-0.618,0.641-1.27,1.455-1.948,2.353c-0.659,0.92-1.341,1.932-2.014,3.03
							c-0.66,1.107-1.257,2.185-1.792,3.199c-0.497,1.023-0.974,1.973-1.298,2.811c-0.189,0.415-0.323,0.802-0.454,1.146
							c-0.14,0.343-0.248,0.645-0.324,0.895c-0.179,0.506-0.277,0.787-0.277,0.787s-0.089-0.282-0.218-0.811
							c-0.072-0.266-0.136-0.592-0.18-0.975c-0.052-0.384-0.11-0.827-0.11-1.314c-0.052-0.985,0.066-2.154,0.34-3.438
							c0.309-1.27,0.818-2.639,1.601-3.945c0.795-1.302,1.79-2.391,2.798-3.242c1.031-0.835,2.062-1.44,2.986-1.81
							c0.443-0.209,0.886-0.321,1.257-0.434c0.369-0.117,0.7-0.177,0.973-0.214C422.105,516.863,422.398,516.839,422.398,516.839z"
							/>
					</g>
				</g>
			</g>
			<g>
				<g>
					<g>
						<path d="M443.115,515.1c0,0-0.521,0.175-1.463,0.492c-0.474,0.145-1.045,0.343-1.697,0.579
							c-0.326,0.113-0.676,0.234-1.046,0.363c-0.363,0.139-0.733,0.314-1.126,0.478c-0.385,0.181-0.814,0.309-1.208,0.543
							c-0.394,0.222-0.803,0.453-1.226,0.692c-0.424,0.209-0.852,0.532-1.297,0.819c-0.45,0.284-0.891,0.611-1.345,0.94
							c-1.816,1.313-3.717,2.876-5.597,4.634c-3.772,3.505-6.678,7.192-8.385,10.169c-0.42,0.743-0.786,1.435-1.086,2.054
							c-0.268,0.629-0.548,1.167-0.713,1.627c-0.348,0.926-0.539,1.439-0.539,1.439s0.02-0.554,0.056-1.552
							c0.024-0.505,0.14-1.106,0.24-1.821c0.132-0.705,0.326-1.505,0.586-2.378c1.047-3.477,3.574-8.054,7.673-11.855
							c2.035-1.903,4.225-3.434,6.343-4.585c0.53-0.288,1.047-0.566,1.57-0.795c0.525-0.232,1.003-0.482,1.546-0.646
							c0.522-0.174,1.026-0.342,1.512-0.504c0.48-0.162,0.966-0.204,1.413-0.3c0.451-0.077,0.877-0.165,1.281-0.213
							c0.404-0.032,0.785-0.062,1.142-0.091c0.712-0.059,1.32-0.087,1.818-0.086C442.563,515.101,443.115,515.1,443.115,515.1z"/>
					</g>
				</g>
			</g>
			<g>
				<g>
					<g>
						<path d="M428.724,572.348c0,0-0.33-0.012-0.923-0.032c-0.595-0.028-1.448-0.105-2.498-0.291
							c-1.048-0.19-2.299-0.492-3.635-1.07c-1.308-0.583-2.802-1.429-3.969-2.656c-1.278-1.22-2.169-2.801-2.613-4.176
							c-0.441-1.371-0.66-2.595-0.868-3.575c-0.09-0.509-0.203-0.94-0.294-1.336c-0.08-0.403-0.177-0.738-0.272-1.007
							c-0.171-0.565-0.267-0.88-0.267-0.88s0.248,0.204,0.689,0.62c0.229,0.203,0.488,0.472,0.744,0.812
							c0.268,0.334,0.582,0.725,0.86,1.173c0.603,0.9,1.194,1.979,1.846,3.087c0.662,1.1,1.403,2.051,2.384,3.005
							c1.969,2.002,4.225,3.417,5.961,4.523c0.877,0.548,1.589,0.992,2.082,1.301C428.448,572.167,428.724,572.348,428.724,572.348z
							"/>
					</g>
				</g>
			</g>
			<g>
				<g>
					<g>
						<path d="M450.073,572.348c0,0-0.445,0.254-1.315,0.701c-0.433,0.234-1.009,0.363-1.676,0.591
							c-0.667,0.173-1.454,0.319-2.303,0.439c-1.651,0.239-3.835,0.412-6.225-0.106c-2.401-0.493-4.944-1.998-6.75-4.151
							c-0.455-0.534-0.905-1.064-1.246-1.636c-0.354-0.558-0.749-1.123-1.023-1.654c-0.566-1.05-1.113-2.062-1.634-3.028
							c-1.031-1.868-2.056-3.427-3.221-4.442c-1.14-1.048-2.358-1.592-3.24-1.851c-0.438-0.167-0.799-0.205-1.041-0.273
							c-0.244-0.057-0.373-0.087-0.373-0.087s0.131-0.017,0.379-0.049c0.248-0.018,0.623-0.104,1.107-0.081
							c0.962-0.027,2.455,0.147,4.073,1.037c1.64,0.854,3.199,2.448,4.565,4.294c0.684,0.925,1.336,1.916,1.985,2.913
							c0.319,0.52,0.664,0.939,0.994,1.423c0.314,0.493,0.698,0.915,1.072,1.356c1.498,1.759,3.229,2.982,5.104,3.661
							c1.883,0.68,3.752,0.938,5.441,1.09c0.824,0.079,1.557,0.135,2.209,0.151c0.637-0.035,1.221,0.013,1.671-0.073
							C449.558,572.427,450.073,572.348,450.073,572.348z"/>
					</g>
				</g>
			</g>
			<path d="M403.103,550.997c-8.514,3.192-19.395,1.663-28.618,0.63c-9.498-1.065-18.721,1.042-27.042,4.435
				c-3.78,1.541-7.896,3.172-11.492,5.224c2.415,0.105,2.856,0.188,5.383,0.714c2.175,0.456,6.108,0.057,8.328,0.534
				c5.102,1.095,8.106-0.404,12.37-2.953c1.613-0.964,3.701-2.145,5.482-2.582c2.25-0.554,5.243-0.308,7.601-0.308
				c4.953,0,9.957,0.589,14.707,1.3c2.825,0.423,10.817,2.703,12.5-0.771c-0.22,1.959,1.841,3.867,2.05,5.796
				c0.258,2.388-1.043,4.03-2.817,5.416c-3.36,2.625-7.572,3.686-11.425,4.855c-2.687,0.812-7.33,2.52-9.795,3.712
				c5.097-0.085,11.161-1.494,15.936-2.475c3.965-0.813,6.923-4.346,10.754-5.377c0.703-0.188,1.547-0.247,2.23-0.632
				c-1.887-2.33-3.511-4.794-4.567-7.556c-0.633-1.657-0.723-3.282-0.914-5.096c-0.182-1.736,0.173-4.009-0.35-5.658"/>
		</g>
		<path opacity="0.3" enable-background="new    " d="M403.125,556.5c0.418-3.896,0-7.494,0-11.5c0-4.162,0.38-8.269,1.754-11.996
			c0.501-1.359,2.345-5.581,2.746-6.754c-0.37,4.328-2.092,8.492-1.6,12.882c0.481,4.3,3.162,8.315,5.63,11.743
			c0.906,1.257,1.869,2.768,3.173,3.634c-2.249-1.519-3.082-5.952-3.078-8.472c0.478,2.463,5.028,6.748,7.484,6.94
			c-1.56-3.345-4.01-7.217-1.98-11.056c1.075,3.686,3.227,6.303,6.597,8.106c2.557,1.368,5.393,2.241,7.798,3.889
			c3.648,2.5,6.003,6.479,10.514,7.648c4.46,1.155,10.524,0.084,14.35-2.362c4.402-2.815,7.056-7.611,7.795-12.713
			c0.794-5.484-0.094-10.257-1.837-15.459c-1.562-4.664-3.001-9.57-6.054-13.52c-3.227-4.177-8.097-6.676-12.791-8.85
			c-0.532-0.247-1.017-0.477-1.587-0.535c1.78-0.104,3.878,0.572,5.712,0.753c2.004,0.198,3.837,0.677,5.75,1.22
			c3.454,0.979,6.686,2.972,9.507,5.25c5.473,4.419,10.671,9.204,13.493,15.659c1.478,3.383,2.243,6.888,2.868,10.5
			c0.671,3.87,1.472,7.392-0.246,11.114c-0.722,1.563-0.564,4.643-1.497,6.129c-0.953,1.518-1.6,1.992-2.25,3.625
			c-1.358,3.405-4.798,5.815-8.277,7.473c-6.193,2.948-10.098,5.902-18.875,8c-3.646,0.871-7.771,1.017-11.723,1.027
			c-4.05,0.011-8.028-0.063-11.723-1.152c-3.285-0.969-6.332-2.982-9.281-4.691c-2.705-1.568-5.378-3.588-7.527-5.997
			c-1.462-1.64-2.643-3.156-3.249-5.284c-0.542-1.898-1.54-3.922-1.845-5.875"/>
		<path opacity="0.3" enable-background="new    " d="M354.333,542.667c-2.056,1.339-3.335,3.168-1.251,5.251
			c1.762,1.762,4.864,1.083,7.251,1.083c5.616,0,10.075-1.235,15.335-2c6.991-1.017,25.146-3.247,26.999,6.333
			c0.357,1.85,0.135,3.064,0.602,4.732c0.413,1.476,0.95,2.908,1.699,4.275c-7.952,4.524-19.582,0.326-28.968,0.326
			c-9.102,0-20.253,2.52-27.642-1.927c1.137-0.071,2.1-0.543,2.857-1.433c-4.146,0.102-6.887,0.631-10.622,1.617
			c-3.029,0.8-7.312,1.687-10.492,1.416c8.936-2.952,14.899-6.674,22.232-19.008"/>
		<g opacity="0.2">
			<g>
				<g>
					<path fill="#FFFFFF" d="M441.334,513.332c0,0-0.626,0.146-1.756,0.406c-0.277,0.061-0.586,0.128-0.924,0.201
						c-0.336,0.073-0.691,0.22-1.074,0.336c-0.76,0.273-1.64,0.462-2.543,0.906c-0.454,0.193-0.93,0.396-1.426,0.607
						c-0.495,0.202-0.972,0.515-1.483,0.773c-1.036,0.493-2.042,1.21-3.12,1.891c-2.089,1.489-4.226,3.302-6.268,5.436
						c-2.016,2.161-3.724,4.421-5.187,6.571c-0.679,1.104-1.387,2.134-1.917,3.173c-0.278,0.513-0.578,0.999-0.822,1.485
						c-0.237,0.492-0.465,0.965-0.683,1.415c-0.474,0.895-0.783,1.75-1.104,2.494c-0.158,0.375-0.305,0.724-0.439,1.044
						c-0.113,0.329-0.217,0.63-0.311,0.899c-0.392,1.092-0.611,1.696-0.611,1.696s0.006-0.645,0.016-1.81
						c0.008-0.294,0.017-0.62,0.025-0.978c0.04-0.355,0.083-0.739,0.129-1.152c0.107-0.827,0.193-1.788,0.454-2.811
						c0.119-0.517,0.243-1.059,0.373-1.624c0.145-0.562,0.351-1.128,0.541-1.725c0.356-1.208,0.918-2.424,1.496-3.721
						c1.26-2.531,2.954-5.203,5.214-7.622c2.285-2.394,4.887-4.262,7.424-5.592c1.309-0.604,2.531-1.19,3.77-1.521
						c0.611-0.177,1.179-0.398,1.76-0.503c0.577-0.104,1.132-0.204,1.661-0.3c1.041-0.231,2.027-0.192,2.861-0.246
						c0.421-0.007,0.806-0.046,1.165-0.018c0.358,0.032,0.686,0.062,0.98,0.09C440.693,513.262,441.334,513.332,441.334,513.332z"/>
				</g>
			</g>
		</g>
		<g opacity="0.2">
			<g>
				<g>
					<path fill="#FFFFFF" d="M454,518.332c0,0-0.609,0.142-1.71,0.397c-1.099,0.23-2.683,0.599-4.582,1.087
						c-0.939,0.282-1.982,0.513-3.032,0.921c-0.526,0.198-1.09,0.343-1.63,0.586c-0.538,0.235-1.092,0.477-1.66,0.725
						c-2.219,1.087-4.459,2.514-6.684,4.351c-2.195,1.795-4.028,3.792-5.607,5.739c-0.729,1.013-1.496,1.944-2.06,2.916
						c-0.298,0.476-0.615,0.927-0.88,1.38c-0.249,0.463-0.488,0.908-0.716,1.333c-0.503,0.841-0.816,1.656-1.137,2.37
						c-0.16,0.359-0.311,0.694-0.448,1.002c-0.104,0.318-0.2,0.61-0.286,0.872c-0.366,1.065-0.568,1.656-0.568,1.656
						s-0.011-0.628-0.029-1.762c0.002-0.288,0.003-0.608,0.004-0.959c0.043-0.346,0.09-0.721,0.141-1.124
						c0.109-0.809,0.208-1.753,0.507-2.741c0.136-0.504,0.277-1.03,0.426-1.579c0.173-0.541,0.403-1.083,0.623-1.657
						c0.408-1.167,1.052-2.311,1.706-3.539c1.424-2.373,3.342-4.852,5.865-6.913c2.467-2.045,5.289-3.54,7.963-4.401
						c0.678-0.18,1.339-0.354,1.98-0.524c0.641-0.164,1.28-0.215,1.886-0.314c1.214-0.213,2.348-0.211,3.372-0.26
						c2.051-0.019,3.685,0.099,4.811,0.231C453.378,518.258,454,518.332,454,518.332z"/>
				</g>
			</g>
		</g>
		<g opacity="0.2">
			<g>
				<g>
					<path fill="#FFFFFF" d="M436.667,524.666c0-0.001-0.486,0.651-1.157,1.399c-0.665,0.821-1.412,1.75-2.477,2.598
						c-1.07,0.857-2.418,1.435-3.5,1.722c-1.093,0.284-1.866,0.281-1.866,0.281s0.182-0.768,0.603-1.756
						c0.422-0.997,1.085-2.275,2.369-3.306c1.302-1.044,2.994-1.385,4.145-1.341C435.977,524.357,436.667,524.665,436.667,524.666z"
						/>
				</g>
			</g>
		</g>
		<g opacity="0.2">
			<g>
				<g>
					<path fill="#FFFFFF" d="M429.334,517.333c0,0-0.158,0.225-0.449,0.593c-0.287,0.377-0.726,0.858-1.236,1.466
						c-1.033,1.211-2.397,2.771-4.174,4.241c-1.774,1.485-3.724,2.551-5.235,3.186c-1.523,0.63-2.572,0.847-2.572,0.847
						s0.452-0.984,1.324-2.335c0.868-1.362,2.146-3.132,4.008-4.692c1.878-1.557,4.023-2.481,5.635-2.904
						c0.806-0.218,1.503-0.287,1.967-0.346C429.07,517.339,429.334,517.333,429.334,517.333z"/>
				</g>
			</g>
		</g>
		<g opacity="0.2">
			<g>
				<g>
					<path fill="#FFFFFF" d="M445,538.667c0,0-0.377,0.304-0.877,0.456c-0.521,0.138-1.069,0.151-1.193-0.088
						c-0.032-0.055,0.378-0.337,0.747-0.635c0.365-0.323,0.657-0.733,0.657-0.733s0.377-0.305,0.877-0.457
						c0.522-0.138,1.069-0.15,1.193,0.089c0.032,0.055-0.377,0.337-0.746,0.635C445.294,538.257,445,538.667,445,538.667z"/>
				</g>
			</g>
		</g>
		<g opacity="0.2">
			<g>
				<g>
					<path fill="#FFFFFF" d="M444.334,540.333c0,0-0.547-0.026-1.186-0.25c-0.649-0.203-1.337-0.694-1.6-1.435
						c-0.205-0.793,0.078-1.609,0.551-2.169c0.438-0.552,0.9-0.812,0.9-0.812c0.001,0,0.514,0.285,1.032,0.616
						c0.482,0.334,1.107,0.696,1.227,1.215c0.196,0.527-0.097,1.199-0.341,1.785C444.651,539.862,444.334,540.333,444.334,540.333z"
						/>
				</g>
			</g>
		</g>
		<g opacity="0.2">
			<g>
				<g>
					<path fill="#FFFFFF" d="M443.667,540.333c0,0-0.493,0.18-1.126,0.209c-0.639,0.048-1.381-0.136-1.781-0.675
						c-0.358-0.556-0.257-1.304,0.004-1.876c0.242-0.576,0.57-0.991,0.57-0.991s0.545-0.012,1.136,0.063
						c0.585,0.095,1.241,0.204,1.488,0.601c0.279,0.362,0.138,1.008,0.025,1.578C443.852,539.815,443.667,540.333,443.667,540.333z"
						/>
				</g>
			</g>
		</g>
		<g opacity="0.2">
			<g>
				<g>
					<path fill="#FFFFFF" d="M443.334,540.667c0,0-0.193-0.519-0.24-1.212c-0.05-0.688,0.059-1.575,0.592-2.178
						c1.081-1.105,3.315-0.609,3.315-0.61c0,0,0.533,2.231-0.483,3.268c-0.458,0.523-1.218,0.678-1.909,0.734
						C443.923,540.725,443.334,540.667,443.334,540.667z"/>
				</g>
			</g>
		</g>
	</g>
</g>
</svg>
