<?xml version="1.0" encoding="utf-8"?>
<!-- Generator: Adobe Illustrator 25.0.1, SVG Export Plug-In . SVG Version: 6.00 Build 0)  -->
<svg version="1.1" id="Capa_1" xmlns="http://www.w3.org/2000/svg" xmlns:xlink="http://www.w3.org/1999/xlink" x="0px" y="0px"
	 viewBox="0 0 800 800" enable-background="new 0 0 800 800" xml:space="preserve">
<g id="cuerpo">
	<g id="Capa_95">
		<path fill="#342935" d="M737.19,707.56c-0.051,0.761-0.12,1.521-0.19,2.28c-0.07,0.731-0.15,1.45-0.22,2.18
			c-0.021,0.181-0.05,0.37-0.07,0.561c-0.25,2.05-0.55,4.09-0.88,6.13c-0.01,0.05-0.021,0.1-0.021,0.15
			c-0.869,5.46-1.88,10.899-2.449,16.6c-0.101,0.93-0.181,1.86-0.25,2.8c-0.04,0.62-0.08,1.24-0.11,1.87
			c-0.16,3.18-0.58,6.34-1.02,9.51c-0.431,2.99-0.881,5.99-1.19,9.03c-0.08,0.811-0.15,1.62-0.21,2.43
			c-0.04,0.471-0.07,0.94-0.09,1.42c-0.01,0.15-0.01,0.431,0.01,0.841c0.12,4.819,1.41,26.609,1.84,36.64H66.3
			c-0.18-9.67-0.25-33.55-0.31-34.72c-0.22-4.3-0.34-8.62-0.41-12.94c-0.06-3.82-0.08-7.649-0.08-11.46c0-8.1-0.23-16.149-1-23.89
			c-0.75-7.54-1.88-15.44-2.25-22.9c0-0.07-0.01-0.14-0.01-0.21c-0.4-8.11-0.6-16.51,0.04-24.64c0.2-2.63,0.49-5.23,0.89-7.79
			c0-0.01,0.01-0.03,0.01-0.04c0.02-0.16,0.05-0.33,0.08-0.49c0.11-0.71,0.24-1.41,0.37-2.11c0.7-3.72,1.65-7.3,2.92-10.71
			c0.39-1.05,0.82-2.08,1.3-3.09c0.15-0.319,0.31-0.64,0.47-0.97c0.29-0.59,0.6-1.18,0.93-1.76c0-0.011,0-0.011,0.01-0.02
			c0.54-0.95,1.12-1.88,1.74-2.79c1.69-2.47,3.7-4.75,6.07-6.779c0.98-0.851,1.95-1.66,2.93-2.44c1.37-1.1,2.75-2.15,4.18-3.18
			c1.97-1.41,4.14-3.58,6.37-4.731c0.26-0.13,0.53-0.25,0.79-0.359c1.46-0.891,3.03-1.771,4.66-2.62c2.89-1.5,5.96-2.94,9-4.33
			c6.14-2.82,12.11-5.5,16-8.3c0.34-0.24,0.67-0.481,1-0.7c3.28-2.3,6.22-4.011,9-5.431c5.44-2.79,10.29-4.5,16-7.43
			c1.44-0.74,2.92-1.56,4.49-2.479c1.49-0.891,2.99-1.761,4.51-2.601c5.22-2.93,10.59-5.66,16-8.229c0.33-0.15,0.67-0.311,1-0.471
			c2.67-1.269,5.33-2.479,8-3.68c1.46-0.65,2.92-1.31,4.38-1.95c4.25-1.87,8.11-3.89,11.62-5.91c3.28-1.88,6.26-3.779,9-5.59
			c1.55-1.02,3.02-2,4.43-2.94c4.4-2.94,8.16-5.41,11.57-6.84c0.35-0.15,0.68-0.29,1-0.41c4.24-1.721,5.25-1.65,9-2.891
			c0.59-0.19,1.25-0.42,2-0.68c0.29-0.11,0.59-0.2,0.89-0.28c1.38-0.399,2.8-0.58,4.23-0.55c0.63,0,1.25,0.04,1.88,0.12
			c2.38,0.28,4.75,1.04,7,2.11c3.42,1.63,6.55,4,9,6.56c6.77,7.09,11.11,11.99,16,17.17c2.14,2.28,4.39,4.62,7,7.22
			c0.67,0.67,1.34,1.32,2,1.98c3.68,3.62,7.27,7.01,10.89,10.479c0.04,0.03,0.07,0.07,0.1,0.101c1.66,1.58,3.32,3.189,5.01,4.84
			c2.91,2.86,5.89,5.84,9,9.11c0.55,0.569,1.09,1.14,1.64,1.72c0.12,0.13,0.24,0.26,0.36,0.39c1.15,1.221,2.25,2.42,3.31,3.59
			c0.01,0.011,0.01,0.011,0.01,0.021c0.77,0.84,1.51,1.66,2.23,2.47c3.56,4.01,6.67,7.71,9.45,10.99c3.45,4.07,6.37,7.52,9,10.191
			c0.92,0.939,1.81,1.789,2.67,2.529c3.6,3.09,7.04,6.44,10.56,9.58c0.01,0.021,0.02,0.021,0.03,0.03c0.91,0.81,1.82,1.61,2.74,2.38
			c0.62,0.53,1.25,1.04,1.88,1.55c2.29,1.83,4.64,3.49,7.12,4.891c2.52,1.43,5.16,2.569,7.99,3.31c2.69,0.7,5.34,1.5,8.01,2.269
			c1,0.29,2,0.57,3,0.841c1.97,0.529,3.96,1.01,6,1.39c1.42,0.269,2.86,0.49,4.33,0.63c3.46,0.351,7.54,0.14,11.67-0.32
			c3.05-0.35,6.13-0.84,9-1.359c1.78-0.311,3.47-0.63,5.03-0.94c4.3-0.85,8.25-2.13,11.97-3.8c3.13-1.39,6.1-3.04,9-4.92
			c1.71-1.11,3.39-2.29,5.06-3.54c0.02-0.019,0.04-0.03,0.06-0.04c1.96-1.479,3.91-3.06,5.88-4.729
			c0.67-0.551,1.35-1.131,2.03-1.721c0.01,0,0.01-0.01,0.019-0.01c0.021-0.03,0.05-0.05,0.07-0.07c0.39-0.34,0.79-0.68,1.18-1.019
			c0.57-0.49,1.13-0.981,1.7-1.47c1.2-1.03,2.4-2.07,3.59-3.101c0.01,0,0.01-0.01,0.01-0.01c0.261-0.23,0.53-0.45,0.79-0.68
			l0.03-0.03c1.54-1.351,3.07-2.71,4.58-4.09c0.9-0.82,1.8-1.641,2.69-2.49c0.01,0,0.01,0,0.02-0.01
			c4.06-3.82,7.96-7.86,11.54-12.351c0.58-0.729,1.16-1.46,1.75-2.19c2.91-3.66,5.95-7.45,9-11.26
			c3.11-3.881,6.26-7.801,9.33-11.601c0.02-0.03,0.04-0.05,0.06-0.08c0.28-0.34,0.551-0.68,0.811-1.01
			c0.02-0.021,0.04-0.04,0.05-0.059c1.48-1.82,2.94-3.62,4.36-5.381c0.77-0.96,1.569-1.89,2.39-2.819c2.79-3.2,5.84-6.28,9-9.24
			c0.99-0.92,1.99-1.84,3-2.73c2.24-2.02,4.53-3.97,6.81-5.859l0.011-0.01c2.069-1.721,4.14-3.391,6.18-5.04
			c0.04-0.04,0.08-0.07,0.12-0.101c1.189-0.939,3.019-3.59,4.899-5.83l0.011-0.01c1.13-1.34,2.279-2.54,3.3-3.12
			c0.01-0.01,0.01-0.01,0.01-0.01c0.231-0.12,0.44-0.22,0.66-0.29c0.09-0.03,0.17-0.05,0.25-0.059c0.67-0.12,1.269-0.061,1.79,0.14
			c1.21,0.45,2.05,1.649,2.71,3.21c0.07,0.18,0.15,0.36,0.22,0.55c0.011,0.01,0.021,0.01,0.03,0.021
			c1.61,0.779,3.17,1.59,4.81,2.239c1.851,0.75,3.681,1.44,5.521,2.181c0.22,0.09,0.45,0.18,0.67,0.269
			c1.01,0.41,2.03,0.83,3.06,1.28c1.98,0.87,3.96,1.63,5.94,2.33c5.05,1.78,10.11,3.149,15.25,4.76c0.25,0.08,0.5,0.16,0.75,0.25
			c1.73,0.57,3.39,1.2,5,1.91c1.36,0.58,2.69,1.21,4,1.88c2.17,1.11,4.3,2.3,6.47,3.57c0.75,0.44,1.511,0.89,2.271,1.35
			c2.72,1.63,5.479,2.811,8.26,3.8c2.96,1.061,5.96,1.9,9,2.87c0.47,0.141,0.94,0.29,1.4,0.44c0.35,0.109,0.699,0.23,1.05,0.35
			c3.08,1.05,6.06,2.42,9,3.88c1.519,0.76,3.03,1.54,4.55,2.31c1.5,0.76,2.99,1.51,4.5,2.22l4.5,2.12c4.34,2.04,8.68,4.07,13,6.13
			c1,0.479,2,0.96,3,1.43c3.01,1.45,6.01,2.92,9,4.45c2.32,1.16,4.63,2.36,6.94,3.6c2.949,1.58,6,3.051,9.06,4.49
			c3,1.4,6.019,2.78,9,4.181c0.17,0.069,0.33,0.149,0.5,0.229c5.03,2.39,8.75,6.35,12.84,10.05c1.19,0.33,2.42,0.84,3.66,1.48
			c2.97,1.54,6.05,3.87,9,6.54c1.72,1.55,3.41,3.21,5,4.899c3.42,3.62,6.43,7.341,8.61,10.271c0.88,1.18,1.67,2.37,2.39,3.56
			c0.15,0.24,0.29,0.48,0.43,0.73c3.721,6.37,5.48,12.979,6.58,19.92c0,0.03,0.01,0.06,0.021,0.1c0.33,2.101,0.609,4.23,0.859,6.391
			c0.38,3.33,0.7,6.739,1.101,10.229c0,0.04,0.01,0.07,0.01,0.11c0,0.02,0.01,0.05,0.01,0.069
			C737.47,699.68,737.47,703.66,737.19,707.56z"/>
		<g>
			<path fill="#222222" d="M105,614.65V800H70.78h-4.27c0.21-10.45,0.25-37.1,0.32-39.5c0.04-1.22-0.26-2.22-0.77-3.019
				c0.02-0.771,0.05-1.54,0.11-2.311c0.08-1.12-0.15-2.05-0.59-2.83c-0.03-0.06-0.07-0.13-0.11-0.189
				c-0.11-9.98-0.55-19.83-1.54-29.83c-0.63-6.38-0.74-12.761-1.11-19.15c-0.11-1.91-0.38-3.82-0.67-5.74
				c0-0.09,0.02-0.17,0.02-0.26c0.06-2.87-0.17-5.7-0.5-8.53c-0.15-3.56-0.31-7.12-0.77-10.62c-0.01-0.039-0.01-0.09-0.02-0.13
				c0.01-0.04,0.01-0.069,0.02-0.109c0.56-2.84,1.01-5.681,1.38-8.54c0.34-2.59,0.62-5.19,0.89-7.79c0-0.01,0.01-0.03,0.01-0.04
				c0.01-0.11,0.02-0.21,0.03-0.32c0.02-0.06,0.03-0.109,0.05-0.17c0.37-1.35,0.79-2.7,1.27-4.03c1.44-4.04,2.97-7.87,4.12-11.85
				c5.03-8.83,12.44-15.88,20.63-21.79c0.42-0.31,0.85-0.61,1.27-0.91c3.66-2.609,7.29-4.95,11.66-6.37
				C103.24,615.64,104.16,615.18,105,614.65z"/>
			<path fill="#222222" d="M224.79,553.094c-6.581,2.81-13.131,5.668-19.675,8.561c-10.987,4.86-21.189,11.342-32.115,16.279V800h68
				V547.529C235.363,547.568,229.838,550.938,224.79,553.094z"/>
			<path fill="#222222" d="M365.612,659.823c-8.272-3.374-16.095-6.912-22.852-12.912c-7.416-6.585-13.482-14.398-20.422-21.443
				c-4.96-5.035-8.778-11.167-13.337-16.578V800h68V663.26C373.091,662.729,369.193,661.284,365.612,659.823z"/>
			<path fill="#222222" d="M510,575.624c-3.16,2.939-6.21,5.999-9,9.186c-0.82,0.921-1.62,1.852-2.39,2.802
				c-1.42,1.752-2.88,3.545-4.36,5.357c-0.01,0.019-0.03,0.04-0.05,0.058c-9.98,10.652-19.24,21.562-28.771,32.739
				c-3.144,3.774-6.399,7.405-9.793,10.849c-0.867,1.131-1.777,2.224-2.755,3.245c-2.349,2.454-5.221,4.181-7.882,6.188V800h68
				V572.911C511.99,573.793,510.99,574.703,510,575.624z"/>
			<path fill="#222222" d="M636.002,595.738c-6.964-3.111-14.055-5.85-21.051-8.879c-11.277-4.884-23.125-8.718-33.951-14.524V800
				h68V601.59C644.574,599.868,640.297,597.657,636.002,595.738z"/>
			<path fill="#222222" d="M736.36,704.04c-0.65,2.75-0.11,5.84-0.03,8.63c0.01,0.35,0.06,0.67,0.11,0.98
				c-0.011,0.069-0.021,0.13-0.03,0.189c-0.05,0.11-0.101,0.22-0.141,0.32c-2.43,6.13-2.529,12.08-2.76,18.58
				c-0.029,0.91-0.09,1.81-0.149,2.72c-0.101,0.93-0.181,1.86-0.25,2.8c-0.37,3.79-0.88,7.58-1.13,11.38
				c-0.061,0.841-0.101,1.681-0.131,2.53c-0.08,2.71-0.27,5.39-0.42,8.09c-0.06,1.09,0.011,2.181,0.07,3.27
				c-0.35,1.45,0.72,25.72,1.22,36.47h-1.989H717V644.78c4.4,4.25,8.26,8.91,11.43,13.92c1.75,2.76,3.29,5.63,4.59,8.609
				c0.051,0.221,0.101,0.431,0.181,0.65c0.359,1.13,0.78,2.22,1.189,3.309c0.061,0.341,0.16,0.681,0.311,1.03
				c2.62,6.28,1.95,12.82,2.21,19.48c0.05,1.239,0.08,2.489,0.1,3.739c0.03,2.08,0.021,4.16-0.029,6.24
				C736.76,702.51,736.54,703.269,736.36,704.04z"/>
		</g>
		<g>
			<path d="M331.909,638.685c0.003,0.003,0.005,0.007,0.008,0.01c0.019,0.02,0.029,0.029,0.041,0.042
				c-0.002-0.002-0.003-0.003-0.005-0.005C331.938,638.716,331.924,638.7,331.909,638.685z"/>
			<path d="M738.07,695.481c-0.101,4.3-0.431,8.569-0.88,12.8c-0.131,1.25-0.271,2.489-0.41,3.739
				c-0.021,0.181-0.05,0.37-0.07,0.561c-0.17,1.42-0.35,2.85-0.53,4.27c-0.12,0.881-0.239,1.75-0.35,2.631
				c-0.01,0.05-0.021,0.1-0.021,0.149c-0.779,6.08-1.35,12.13-1.989,18.13c-0.181,1.721-0.36,3.44-0.53,5.16
				c-0.18,1.71-0.38,3.42-0.47,5.14c-0.24,3.421-0.471,6.82-0.7,10.19c-0.25,3.25,0.89,30.14,1.17,41.75h-1.31
				c-0.421-10.72-1.591-34.769-1.49-36.51c0-0.04,0-0.09,0.01-0.13c0.019-0.44,0.04-0.86,0.08-1.301c0.06-1.119,0.13-2.26,0.21-3.39
				c0.01-0.17,0.02-0.33,0.03-0.5c0.199-3.38,0.41-6.79,0.609-10.22c0.08-1.71,0.271-3.431,0.431-5.15c0.17-1.72,0.33-3.45,0.5-5.18
				c0.67-6.93,1.26-13.96,2.189-20.97c0.83-7.03,1.59-14.101,1.7-21.2c0.05-3.24-0.06-6.49-0.36-9.72
				c-0.199-2.16-0.479-4.301-0.859-6.421c-0.011-0.04-0.021-0.069-0.021-0.1c-0.3-1.63-0.649-3.229-1.06-4.82
				c-1.84-6.81-5.12-13.17-9.28-18.84c-2.08-2.84-4.38-5.51-6.81-8.04c-0.28-0.29-0.561-0.58-0.86-0.87
				c-0.94-0.96-1.9-1.909-2.89-2.819c-0.63-0.61-1.28-1.19-1.931-1.771l-0.97-0.87c-0.34-0.279-0.691-0.54-1.04-0.81
				c-2.769-2.13-5.54-4.26-8.29-6.37c-2.83-2.019-5.74-3.9-8.58-5.84l-2.13-1.44c-0.71-0.47-1.46-0.89-2.189-1.34
				c-1.471-0.88-2.931-1.76-4.381-2.63c-1.46-0.87-2.909-1.75-4.35-2.62c-1.46-0.83-2.96-1.62-4.42-2.42
				c-8.99-5.04-18.03-9.45-26.83-13.53c-2.63-1.22-5.231-2.42-7.81-3.59c-11.2-5.09-21.95-9.63-31.881-13.84
				c-10.409-4.42-19.92-8.47-28.31-12.04c-4.58-1.95-8.82-3.75-12.69-5.39c-0.39-0.141-0.88-0.31-1.479-0.53
				c-1.66-0.62-4.09-1.58-7.23-2.88c-3.14-1.3-6.98-2.93-11.46-4.88c-2.229-0.98-4.63-2.03-7.18-3.15
				c-0.92-0.42-1.88-0.84-2.85-1.269c-1.54-0.57-2.91-1.101-3.721-1.561l-0.029,0.021l-0.141,0.14c-1.069,0.97-2.189,2-3.37,3.07
				c-1.239,1.13-2.52,2.31-3.8,3.569c-0.64,0.641-1.28,1.28-1.89,1.96c-0.62,0.66-1.19,1.37-1.87,2.15
				c-1.31,1.521-2.72,3.021-4.17,4.54c-1.95,2.01-4,4.019-6.12,6.07c-1.07,1.04-2.15,2.08-3.24,3.14
				c-1.609,1.58-3.24,3.18-4.83,4.84c-1.58,1.63-3.13,3.44-4.72,5.2c-8.13,9.1-15.79,17.84-22.72,25.84c-3.46,4-6.75,7.8-9.83,11.36
				c-1.54,1.78-3.01,3.46-4.43,5.17c-1.461,1.689-2.95,3.229-4.44,4.62c-0.92,0.85-1.83,1.64-2.73,2.39
				c-3.359,3.49-7.01,6.94-11.06,10.18c-0.98,0.801-1.99,1.58-3.03,2.351c-7.42,5.51-16.1,10.24-25.95,12.979
				c-9.76,2.601-20.37,3.601-31.06,2.41c-2.69-0.3-5.35-0.74-7.96-1.31c-3.18-0.67-6.28-1.55-9.27-2.59
				c-5.45-1.9-10.45-4.431-14.93-7.16c-8.98-5.52-15.75-12-20.79-17.2c0,0-0.01-0.01-0.02-0.01c-0.01-0.02-0.02-0.03-0.03-0.04
				l-0.01-0.01c-0.01-0.021-0.03-0.03-0.04-0.051c-0.02-0.019-0.03-0.04-0.05-0.06c-0.02-0.021-0.04-0.03-0.05-0.05
				c-4.93-5.101-9.23-10.16-13.31-14.981c-0.59-0.7-1.16-1.38-1.74-2.06c-2.41-2.58-5-5.34-7.76-8.27
				c-0.63-0.68-1.28-1.359-1.93-2.06c-3.52-3.8-7.27-7.87-11.23-12.15c-0.99-1.06-1.96-2.18-3-3.24c-1.05-1.06-2.1-2.13-3.17-3.22
				c-2.13-2.17-4.31-4.39-6.52-6.649c-1.1-1.131-2.21-2.28-3.34-3.431c-1.12-1.149-2.32-2.24-3.48-3.38
				c-1.18-1.13-2.36-2.269-3.55-3.41c-1.21-1.14-2.43-2.279-3.66-3.43c-2.45-2.3-4.87-4.59-7.24-6.87c-1.19-1.14-2.37-2.27-3.54-3.4
				c-1.14-1.159-2.27-2.319-3.39-3.47c-1.12-1.149-2.23-2.28-3.33-3.41c-1.02-1.12-1.99-2.09-3.1-2.909
				c-2.2-1.62-4.78-2.49-7.42-2.66c-0.03,0-0.07-0.011-0.1-0.011c-2.62-0.17-5.25,0.33-7.76,1.04c-0.5,0.15-0.99,0.311-1.47,0.48
				c-0.66,0.42-1.37,0.85-2.15,1.25c-0.22,0.12-1.99,1.03-5.1,2.63c-1.56,0.8-3.46,1.78-5.67,2.91c-1.11,0.57-2.3,1.17-3.56,1.82
				c-1.27,0.609-2.62,1.27-4.04,1.96c-5.69,2.75-12.55,6.069-20.39,9.859c-3.92,1.88-8.08,3.87-12.47,5.971
				c-1.76,0.88-3.55,1.769-5.39,2.68c-2.68,1.34-5.45,2.71-8.28,4.12c-2.37,1.189-4.81,2.37-7.26,3.63c-2.43,1.3-4.9,2.63-7.41,3.97
				c-4.99,2.771-10.11,5.7-15.37,8.75c-2.63,1.53-5.3,3.061-8.03,4.59c-2.73,1.53-5.45,3.12-8.33,4.55
				c-4.33,2.32-8.83,4.41-13.32,6.62c-1.38,0.681-2.77,1.38-4.14,2.091c-1.46,0.76-2.97,1.449-4.4,2.269s-2.86,1.65-4.3,2.481
				c-2.92,1.6-5.69,3.449-8.33,5.479c-2.64,2.04-5.11,4.3-7.27,6.85c-0.53,0.641-1.03,1.311-1.56,1.96l-1.4,2.101l-1.4,2.12
				c-0.48,0.7-0.82,1.48-1.24,2.22c-3.26,5.96-5.4,12.57-6.62,19.38c-1.23,6.811-1.59,13.811-1.51,20.8
				c0.13,13.99,2.12,27.96,2.71,41.82c0.17,3.46,0.34,6.9,0.52,10.33c0.15,3.42,0.38,6.83,0.44,10.22
				c0.18,6.78,0.36,13.48,0.54,20.06c0.02,0.93,0.03,23.94,0.03,33.43h-1.2c-0.02-9.481-0.04-32.481-0.06-33.4
				c-0.24-6.58-0.47-13.26-0.71-20.029c-0.09-3.391-0.35-6.79-0.53-10.21c-0.2-3.42-0.41-6.851-0.61-10.301
				c-0.7-13.79-2.81-27.729-3.07-41.89c-0.04-2.05-0.04-4.1,0.01-6.15c-0.01-0.079,0-0.159,0-0.239c0.11-4.95,0.51-9.91,1.35-14.811
				c1.05-6.2,2.86-12.31,5.6-17.96c0.15-0.319,0.31-0.64,0.47-0.97c0.2-0.39,0.41-0.78,0.62-1.17c0.1-0.19,0.21-0.39,0.31-0.59
				c0-0.011,0-0.011,0.01-0.02c0.29-0.58,0.58-1.17,0.94-1.72l1.44-2.22c0.49-0.731,0.96-1.481,1.46-2.21
				c0.54-0.69,1.07-1.4,1.63-2.091c2.26-2.72,4.85-5.119,7.57-7.269c2.73-2.13,5.58-4.07,8.54-5.72c1.46-0.86,2.92-1.721,4.37-2.57
				c1.46-0.85,2.96-1.56,4.43-2.34c1.79-0.95,3.58-1.851,5.36-2.74c4.09-2.04,8.13-3.979,11.99-6.1c2.82-1.42,5.53-3.04,8.22-4.58
				c2.7-1.54,5.36-3.09,7.97-4.65c5.23-3.08,10.35-6.08,15.35-8.91c2.52-1.38,5.01-2.739,7.45-4.069c2.45-1.29,4.89-2.5,7.26-3.71
				c3.35-1.7,6.61-3.36,9.76-4.96c1.32-0.67,2.61-1.33,3.89-1.98c4.37-2.14,8.52-4.17,12.43-6.08c3.56-1.74,7.11-3.49,10.65-5.25
				c6.15-3.07,12.29-6.17,18.4-9.31c3-1.54,5.97-3.141,8.98-4.65c2.61-1.3,5.3-1.649,8.11-2.24c1.84-0.39,3.7-0.59,5.54-0.54
				c3.38,0.08,6.67,0.971,9.56,3.011c1.39,0.96,2.63,2.159,3.73,3.319c1.09,1.09,2.2,2.181,3.32,3.28c1.11,1.11,2.24,2.22,3.37,3.35
				c1.17,1.101,2.35,2.21,3.54,3.33c2.39,2.24,4.81,4.521,7.26,6.82c1.23,1.16,2.45,2.309,3.66,3.45c1.2,1.17,2.39,2.33,3.57,3.479
				c1.17,1.16,2.36,2.28,3.48,3.45c1.12,1.18,2.22,2.34,3.32,3.5c2.18,2.32,4.32,4.601,6.42,6.84c1.05,1.12,2.08,2.221,3.11,3.32
				c1.02,1.09,1.96,2.24,2.92,3.34c2.43,2.83,4.77,5.561,7.03,8.2c1.05,1.1,2.1,2.21,3.18,3.36c0.18,0.189,0.35,0.38,0.53,0.569
				c0.16,0.17,0.32,0.34,0.48,0.511c1.61,1.729,3.25,3.519,4.9,5.39c0.99,1.13,2,2.28,3.02,3.45c1.03,1.149,2.07,2.319,3.12,3.51
				c4.23,4.75,8.73,9.79,13.66,14.689l0.04,0.04l0.02,0.021c0.04,0.05,0.08,0.09,0.12,0.15l0.03,0.039l0.01,0.021l-0.02,0.01
				c5.09,4.94,11.75,10.98,20.32,16.09c4.34,2.561,9.11,4.9,14.28,6.66c5.17,1.771,10.72,3.021,16.41,3.65
				c10.18,1.14,20.31,0.24,29.69-2.15c9.26-2.46,17.72-6.87,24.97-12.04c7.29-5.18,13.5-11.12,18.95-16.99
				c2.73-2.939,5.22-5.909,7.71-8.75c1.69-1.93,3.32-3.789,4.91-5.609c1.1-1.37,2.21-2.76,3.36-4.18
				c6.67-8.24,14.18-17.181,22.329-26.32c1.62-1.78,3.15-3.561,4.851-5.29c1.649-1.7,3.33-3.311,4.99-4.88
				c3.31-3.13,6.55-6.07,9.489-8.95c1.471-1.45,2.88-2.86,4.19-4.28c0.64-0.68,1.32-1.45,2.02-2.16
				c0.69-0.699,1.391-1.35,2.091-1.979c1.38-1.26,2.75-2.4,4.05-3.481c1.37-1.109,2.68-2.18,3.92-3.18l0.42-0.191l-0.15-0.019
				l-0.18-0.01v-0.01c0-0.011,0.26,0.1,0.18-0.15c0.021-0.03,0.16-0.04,0.189-0.05l0.241-0.09l0.404-0.171
				c0.13-0.039,0.282,0.011,0.413,0.021c0.14,0.03,0.286,0.08,0.427,0.13c0.3-0.33,0.593-0.58,0.812-0.59
				c1.4-0.07,5.221,1.59,7.851,2.729c0.671,0.29,14.771,6.421,37.481,16.29c8.7,3.78,18.661,8.12,29.621,12.881
				c9.91,4.279,20.62,8.909,31.82,14.119c2.17,1.011,4.35,2.03,6.56,3.07c9.2,4.34,18.69,9.03,28.15,14.43
				c1.47,0.83,2.96,1.631,4.43,2.49c1.45,0.88,2.91,1.78,4.37,2.67c1.46,0.9,2.93,1.79,4.399,2.7c0.73,0.46,1.48,0.88,2.2,1.37
				l2.15,1.47c2.85,1.99,5.78,3.91,8.62,5.98c2.779,2.17,5.569,4.35,8.37,6.54c0.35,0.279,0.71,0.54,1.05,0.83l0.99,0.909
				c0.67,0.601,1.329,1.2,1.97,1.83c0.439,0.41,0.87,0.83,1.3,1.271c0.85,0.82,1.69,1.67,2.51,2.54
				c2.471,2.609,4.81,5.38,6.931,8.319c4.239,5.881,7.6,12.511,9.44,19.601C737.66,680.97,738.23,688.26,738.07,695.481z"/>
		</g>
	</g>
</g>
</svg>
