<?xml version="1.0" encoding="utf-8"?>
<!-- Generator: Adobe Illustrator 25.0.1, SVG Export Plug-In . SVG Version: 6.00 Build 0)  -->
<svg version="1.1" id="Capa_1" xmlns="http://www.w3.org/2000/svg" xmlns:xlink="http://www.w3.org/1999/xlink" x="0px" y="0px"
	 viewBox="0 0 800 800" enable-background="new 0 0 800 800" xml:space="preserve">
<g id="cara_base">
	<g id="tono_1_copia">
		<g id="Capa_90_copia">
			<path fill="#D88F6F" d="M531,314c0.458-1.874,2.565-3.35,3.759-4.926c1.259-1.664,1.968-3.676,3.323-5.342
				c2.588-3.179,6.229-6.335,9.659-8.325c8.193-4.751,20.716-4.966,28.944-0.5c16.939,9.193,21.228,29.796,22.982,47.092
				c1.064,10.5,3.607,19.588,0.981,29.999c-2.473,9.805-3.834,19.765-5.963,29.686c-1.994,9.291-5.524,18.456-9.685,27.315
				c-1.959,4.171-4.527,8.165-7.074,12c-1.194,1.799-3.333,3.911-4.008,5.918c-0.754,2.246-0.53,5.42-0.909,7.758
				c-0.848,5.236-1.515,10.515-6.676,13.324c-5.715,3.111-10.349,0.202-15.95-1.049c0.241-4.408-1.26-10.473-2.364-14.636
				c-1.214-4.576-3.233-9.025-4.036-13.631c-1.832-10.523-1.649-21.579-1.649-32.685c0-10.666,0.195-20.933-3.323-30.343
				c-3.512-9.39-4.01-19.494-4.01-29.99c0-5.87-0.175-11.524-1-17c-0.775-5.148-1.373-9.622-3.333-14.333"/>
			<path opacity="0.5" fill="#662D91" enable-background="new    " d="M532,315.667c0.018-5.165,3.227-7.086,6.908-10.417
				c3.282-2.969,6.372-6.524,9.999-9.008c7.659-5.246,19.708-6.359,28.11-2.242c8.778,4.302,12.132,12.008,15.649,20.333
				c3.742,8.857,7.435,17.929,8,27.667c0.581,10.008,3.726,22.048,0.676,31.684c-3.035,9.586-6.279,19.266-8.361,28.965
				c-1.021,4.758-1.631,9.4-3.24,14.092c-1.509,4.397-4.481,8.146-5.418,12.576c-0.96,4.54-2.617,8.156-6.072,11.602
				c-3.845,3.833-4.597,6.701-5.177,11.823c-1.002,8.849-6.316,19.135-17.406,16.591c-1.146-0.263-5.109-2.123-5.767-3.233
				c-1.078-1.818-0.116-5.939-0.234-8.099c-0.273-4.985-2.351-8.219-4.26-12.741c-7.966-18.87-1.387-42.581-4.399-63.267
				c-0.647-4.436-2.47-8.813-4.34-12.992c-2.045-4.571-1.417-10.37-1.668-15.333c-0.281-5.566,0.333-10.845,0.333-16.333
				c0-5.761-2.18-8.9-3.259-14.074C531.546,320.727,532,317.607,532,315"/>
			<path opacity="0.3" fill="#682764" enable-background="new    " d="M545.75,366.25c-0.079-3.511-1.816-6.925-2.006-10.75
				c-0.201-4.075-0.059-8.24,0.7-12c1.447-7.171,3.248-12.681,7.744-18.812c4.526-6.174,10.73-16.242,3.587-22.643
				c7.404,1.886,17.73,9.61,17.725,17.879c1.193-8.47-5.785-15.196-12.231-19.118c6.533-0.79,14.536,5.124,18.542,9.937
				c4.971,5.972,7.194,12.629,9.134,19.812c2.004,7.423,1.805,15.761,1.805,23.694c0,8.302-1.47,14.717-3.305,22.194
				c-1.718,7-4.041,13.556-5.959,20.542c-1.723,6.277-3.29,12.66-7.042,18.458c-3.414,5.275-8.253,8.957-12.633,13.617
				c-4.811,5.121-5.773,14.283-3.806,20.863c0.318-2.954-2.027-6.762-3.318-9.362c-1.426-2.873-3.489-5.118-5.626-7.624
				c-5.482-6.431-6.988-11.934-6.567-20.444c0.377-7.617,1.69-16.91-0.188-24.3c-1.762-6.929-4.612-13.501-6-20.444
				c-1.632-8.163-1.262-19.026-1.306-27.036c0,14.704,2.877,28.264,12.188,39.834c2.91,3.617,6.43,6.45,10.586,8.102
				c-2.44-3.835-5.915-6.809-7.969-10.962c-2.464-4.982-3.423-10.295-5.306-15.439"/>
			<path fill="#D88F6F" d="M239.333,333.667c-6.555-5.499-11.76-12.605-18.251-18.668c-5.536-5.17-14.498-14.956-22.082-15.665
				c-4.72-0.442-10.693-1.059-13.917,2.75c-3.985,4.71-1.064,7.536,1.834,11.656c5.795,8.238,2.771,18.428-2.843,25.668
				c-5.321,6.862-11.905,12.546-14.426,20.909c-1.354,4.493-1.934,11.657,0.594,15.774c2.072,3.375,6.719,5.67,9.841,8.16
				c6.167,4.917,15.302,10.161,17.999,18c2.987,8.683-2.454,18.583-6.832,25.739c-2.372,3.878-5.412,6.937-6.584,11.343
				c-0.912,3.432-2.117,11.881,0.585,14.749c2.702,2.869,10.1,3.713,13.748,4.252c4.38,0.647,13.619,1.357,17.335-1.334
				c4.985-3.61,5.698-9.94,8.341-15.351c2.754-5.638,5.451-11.355,8.251-16.99c5.961-11.997,13.874-24.812,15.733-38.326
				c1.164-8.46,0.987-17.389-0.585-25.739c-1.498-7.952-4.753-16.138-5.073-24.26"/>
			<path d="M559.644,498.634c-0.491-5.268-1.433-10.087-2.464-14.421c-2.101-8.665-4.445-15.451-6.005-20.153
				c-0.042-0.121-0.081-0.235-0.121-0.354c-0.129-0.775-0.263-1.575-0.399-2.396c-0.126-0.83-0.137-1.74-0.216-2.638
				c-0.067-0.899-0.099-1.897-0.152-2.874c-0.037-0.979-0.201-2.069-0.306-3.135c-0.693-4.383-2.815-8.394-3.723-12.628
				c-0.912-4.336-1.055-9.121-1.313-14.221c-0.059-1.277-0.161-2.557-0.264-3.845c-0.079-1.277-0.1-2.53-0.156-3.809
				c-0.084-2.558-0.116-5.189-0.143-7.849c-0.076-6.941-0.142-13.815-0.978-20.468c-0.148-1.669-0.505-3.29-0.778-4.907
				c-0.136-0.804-0.291-1.611-0.485-2.432c-0.171-0.818-0.364-1.623-0.616-2.402c-0.924-3.15-2.104-6.014-2.986-8.798
				c-0.453-1.391-0.791-2.757-1.059-4.112c-0.09-0.682-0.18-1.358-0.268-2.031c-0.047-0.704-0.092-1.403-0.138-2.097
				c-0.164-2.778-0.085-5.523-0.096-8.229c-0.053-5.404-0.19-10.389-0.599-14.983c-0.111-1.145-0.17-2.263-0.318-3.349
				c-0.156-1.084-0.309-2.14-0.457-3.167c-0.074-0.513-0.148-1.018-0.221-1.515c-0.085-0.498-0.21-0.987-0.312-1.468
				c-0.107-0.48-0.214-0.953-0.318-1.418c-0.13-0.456-0.257-0.903-0.383-1.344c-0.079-0.269-0.157-0.512-0.236-0.774
				c-0.174-1.766-0.488-3.563-0.733-5.418c-0.293-1.938-0.512-3.941-0.964-5.956c-1.361-8.146-3.945-16.89-7.569-25.924
				c-3.61-9.045-8.727-18.244-15.24-27.067c-6.514-8.836-14.378-17.3-23.435-25.123c-9.15-7.712-19.774-14.438-31.604-19.188
				c-5.906-2.38-11.953-4.22-18.027-5.493c-6.084-1.313-12.167-1.869-18.103-2.312c-11.917-0.694-23.371-0.217-34.202,0.358
				c-5.426,0.276-10.673,0.616-15.808,0.799c-5.141,0.213-10.163,0.521-15.003,1.062c-9.678,1.167-18.572,3.412-26.247,6.507
				c-1.903,0.811-3.785,1.544-5.57,2.365c-1.768,0.855-3.489,1.688-5.163,2.499c-2.029,1.118-3.989,2.169-5.852,3.233
				c-4.889,2.408-10.258,5.368-15.918,9.046c-6.081,3.935-12.496,8.673-18.831,14.425c-6.356,5.723-12.505,12.591-18.043,20.505
				c-0.72,0.97-1.361,2.004-2.021,3.032c-0.652,1.034-1.341,2.055-1.974,3.119c-1.211,2.158-2.536,4.289-3.631,6.573
				c-2.391,4.471-4.299,9.29-6.112,14.234c-3.529,9.938-5.587,20.678-6.975,31.655c-1.374,10.993-1.993,21.743-2.724,32.06
				c-0.726,10.317-1.589,20.227-3.119,29.541c-0.402,2.324-0.743,4.633-1.265,6.867c-0.492,2.24-0.896,4.482-1.538,6.597
				c-0.296,1.068-0.59,2.129-0.881,3.181c-0.347,1.043-0.691,2.078-1.032,3.105c-0.65,2.059-1.441,4.062-2.15,6.045
				c-2.775,7.376-5.438,14.414-6.835,21.196c-0.288,1.02-0.512,2.057-0.785,3.071c-0.65,2.583-0.794,5.264-0.665,7.789
				c0.044,0.968,0.129,1.912,0.226,2.844c0.072,2.576,0.287,5.027,0.582,7.309c0.16,1.293,0.333,2.536,0.509,3.74
				c-0.028,3.882-0.206,7.204,0.19,9.634v0.001c-0.082,0.733-0.129,1.479-0.042,2.272c0.088,0.814,0.694,2.673,1.462,3.553
				c-0.013,0.083-0.03,0.163-0.042,0.246c-1.242,8.405-1.227,17.479,0.628,26.607c1.812,9.137,5.762,18.182,11.256,26.304
				c2.741,4.068,5.757,7.877,8.905,11.412c1.59,1.747,3.126,3.525,4.732,5.204c1.613,1.669,3.213,3.324,4.799,4.966
				c6.437,6.46,12.882,12.392,18.936,18.1c0.93,0.867,1.826,1.724,2.732,2.583c0.921,0.979,1.882,1.989,2.888,3.037
				c3.805,3.918,8.242,8.28,13.176,13.046c0.824,0.802,1.68,1.635,2.53,2.462c3.477,3.585,6.78,6.99,9.865,10.171
				c4.415,4.526,8.417,8.609,11.936,12.188c2.864,3.218,5.767,6.58,8.751,10.04c5.944,6.852,12.198,14.122,19.5,20.976
				c7.281,6.816,15.776,13.241,25.803,17.329c4.999,2.028,10.198,3.402,15.394,4.13c5.194,0.734,10.395,0.827,15.401,0.49
				c10.062-0.515,19.699-3.025,28.1-6.883c8.444-3.833,15.69-8.896,21.919-14.139c3.129-2.614,6.01-5.29,8.685-7.946
				c2.688-2.646,5.169-5.272,7.483-7.822c4.635-5.097,8.624-9.867,12.098-14.073c3.454-4.219,6.43-7.853,8.861-10.822
				c0.199-0.243,0.39-0.476,0.582-0.71c0.897-1.004,1.824-2.04,2.807-3.139c1.351-1.461,2.778-3.005,4.277-4.627
				c6.056-6.435,13.383-13.947,22.008-21.807c8.561-7.913,18.341-16.421,27.379-26.686c1.121-1.286,2.264-2.544,3.344-3.837
				c1.04-1.325,2.073-2.643,3.099-3.949c2.048-2.587,4.089-5.233,5.778-8.085c3.395-5.671,5.488-11.804,6.503-17.739
				C560.152,509.629,560.138,503.893,559.644,498.634z M555.932,514.984c-1.133,5.559-3.217,11.189-6.459,16.41
				c-1.604,2.608-3.559,5.082-5.615,7.634c-1.013,1.274-2.032,2.558-3.059,3.85c-1.064,1.262-2.184,2.487-3.28,3.746
				c-8.829,10.032-18.353,18.649-26.726,26.88c-8.435,8.18-15.491,16.113-21.205,22.896c-1.41,1.714-2.754,3.345-4.024,4.889
				c-1.236,1.568-2.401,3.047-3.491,4.43c-2.163,2.775-4.026,5.166-5.549,7.12c-0.119,0.154-0.222,0.288-0.336,0.437
				c-0.837,0.934-1.704,1.902-2.603,2.906c-3.642,4.053-7.804,8.65-12.579,13.544c-2.386,2.448-4.93,4.965-7.664,7.489
				c-2.722,2.537-5.635,5.082-8.77,7.555c-6.243,4.963-13.395,9.688-21.57,13.2c-8.156,3.539-17.299,5.773-26.981,6.168
				c-4.847,0.272-9.743,0.139-14.645-0.58c-4.897-0.714-9.768-2.017-14.476-3.926c-9.43-3.844-17.58-9.896-24.744-16.46
				c-7.179-6.592-13.492-13.688-19.567-20.417c-6.058-6.746-11.89-13.169-17.736-18.806c-2.927-2.805-5.753-5.489-8.5-8.048
				c-0.843-0.767-1.654-1.505-2.476-2.253c-2.205-2.436-4.487-4.958-6.852-7.571c-2.464-2.763-5.131-5.541-7.869-8.412
				c-2.779-2.819-5.645-5.722-8.631-8.631c-5.943-5.854-12.268-11.881-18.556-18.342c-1.547-1.635-3.108-3.284-4.682-4.946
				c-1.567-1.668-3.056-3.421-4.608-5.145c-3.057-3.476-5.938-7.143-8.57-11.048c-5.27-7.806-9.02-16.265-10.845-24.906
				c-1.861-8.636-2.034-17.305-1.019-25.394c2.035-16.267,9.229-29.813,16.761-39.629c3.835-4.885,8.102-8.628,11.962-11.772
				c3.87-3.137,7.405-5.604,10.284-7.63c5.79-4.019,8.992-6.24,8.992-6.24s-3.321,2.042-9.327,5.734
				c-2.984,1.878-6.647,4.174-10.698,7.162c-4.027,2.987-8.56,6.627-12.714,11.517c-4.097,4.897-8.018,10.738-11.34,17.487
				c-2.576,5.181-4.643,10.983-6.053,17.201c-0.139-0.154-0.3-0.301-0.468-0.465c-0.283-2.409-0.635-5.092-0.968-8.059
				c-0.001-0.566-0.004-1.144-0.01-1.741c-0.024-1.018-0.057-2.086-0.201-3.197c-0.153-1.078-0.312-2.193-0.475-3.338
				c-0.021-0.147-0.044-0.298-0.066-0.446c-0.222-4.815,0.001-10.117,1.256-15.692c1.492-6.946,4.496-14.181,7.698-22.041
				c0.772-1.985,1.615-3.97,2.337-6.067c0.375-1.041,0.752-2.091,1.132-3.147c0.344-1.074,0.658-2.172,0.991-3.27
				c0.717-2.193,1.176-4.452,1.728-6.732c0.582-2.275,0.976-4.613,1.431-6.974c1.739-9.453,2.762-19.475,3.596-29.82
				c0.839-10.347,1.519-21.034,2.872-31.858c1.366-10.809,3.319-21.281,6.637-30.932c1.707-4.797,3.491-9.49,5.744-13.853
				c1.027-2.23,2.281-4.314,3.418-6.429c0.596-1.042,1.248-2.044,1.862-3.059c0.624-1.01,1.226-2.026,1.909-2.982
				c5.233-7.791,11.069-14.634,17.148-20.409c6.055-5.803,12.225-10.663,18.099-14.751c1.131-0.79,2.248-1.543,3.355-2.275
				c0.365-0.229,0.727-0.454,1.099-0.693c1.176-0.744,2.402-1.52,3.678-2.328c1.294-0.776,2.667-1.533,4.072-2.344
				c2.783-1.672,5.915-3.168,9.185-4.835c1.676-0.747,3.399-1.515,5.168-2.303c1.783-0.754,3.655-1.418,5.546-2.159
				c7.629-2.816,16.35-4.764,25.841-5.685c4.757-0.418,9.698-0.613,14.826-0.722c5.135-0.08,10.447-0.323,15.853-0.507
				c10.821-0.395,22.161-0.708,33.809,0.076c5.818,0.488,11.723,1.07,17.557,2.36c5.846,1.253,11.669,3.04,17.368,5.337
				c11.415,4.581,21.729,11.034,30.675,18.438c8.868,7.521,16.703,15.724,23.198,24.238c6.508,8.518,11.672,17.362,15.417,26.136
				c3.752,8.758,6.521,17.246,8.102,25.24c0.108,0.91,0.433,1.932,0.649,3.069c0.18,0.87-0.178,1.824,0.822,2.815
				c0,0.001,0,0.002,0,0.003c0,1.915,0.541,3.767,0.766,5.594c0.447,3.652,0.915,7.084,1.169,10.326
				c0.246,2.562,0.448,4.979,0.623,7.258c0,3.149-0.097,6.465-0.211,9.928c-0.102,2.649-0.304,5.448-0.24,8.375
				c0.021,0.731,0.038,1.469,0.06,2.211c0.075,0.766,0.147,1.538,0.224,2.314c0.246,1.534,0.577,3.07,1.014,4.559
				c0.852,2.986,1.95,5.877,2.73,8.803c0.219,0.728,0.376,1.468,0.513,2.215c0.159,0.734,0.29,1.501,0.407,2.288
				c0.231,1.561,0.55,3.125,0.664,4.729c0.698,6.38,0.71,13.115,0.784,20.074c0.027,2.666,0.067,5.312,0.172,7.961
				c0.065,1.324,0.102,2.66,0.195,3.947c0.114,1.272,0.229,2.535,0.303,3.783c0.323,4.987,0.547,10.023,1.667,14.772
				c0.604,2.403,1.458,4.609,2.241,6.611c0.409,1.026,0.727,1.995,1.088,2.969c0.155,0.479,0.277,0.946,0.419,1.414
				c0.13,0.467,0.302,0.921,0.34,1.402c0.646,3.715,0.577,7.708,1.613,11.191c-0.011-0.047-0.021-0.094-0.025-0.11
				c0.459,1.792,0.905,3.539,1.34,5.238c0.475,1.679,1.056,3.257,1.557,4.815c0.508,1.562,1.042,3.024,1.541,4.466
				c0.252,0.718,0.5,1.424,0.744,2.118c0.216,0.696,0.428,1.381,0.637,2.054c0.717,2.074,1.246,4.061,1.654,5.95
				c0.464,3.12,0.841,6.414,1.011,9.885C557.253,503.934,557.048,509.413,555.932,514.984z"/>
			<g opacity="0.3">
				<g>
					<g>
						<path d="M410.5,614.999c0,0-0.688-0.006-1.864-0.07c-1.166-0.092-2.859-0.111-4.852-0.135
							c-1.008,0.025-2.075-0.018-3.233,0.055c-0.57,0.017-1.16,0.034-1.768,0.053c-0.609,0.041-1.232,0.075-1.865,0.1
							c-2.547,0.149-5.317,0.34-8.298,0.462c-5.957,0.291-11.729-0.019-15.912-0.758c-2.09-0.363-3.773-0.771-4.926-1.129
							c-1.153-0.345-1.78-0.577-1.78-0.577s0.632-0.253,1.756-0.636c1.125-0.37,2.735-0.932,4.709-1.534
							c3.951-1.19,9.365-2.806,15.827-3.126c3.229-0.135,6.389,0.162,9.207,0.77c0.706,0.165,1.389,0.337,2.048,0.512
							c0.659,0.185,1.291,0.42,1.898,0.63c1.217,0.398,2.306,0.945,3.285,1.413c1.941,1.012,3.399,1.984,4.336,2.767
							C410.014,614.551,410.5,614.999,410.5,614.999z"/>
					</g>
				</g>
			</g>
			<g opacity="0.3">
				<g>
					<g>
						<path fill="#FFFFFF" d="M442.999,634.999c0,0-0.136,0.61-0.484,1.728c-0.091,0.276-0.18,0.6-0.313,0.927
							c-0.147,0.322-0.305,0.673-0.476,1.049c-0.184,0.378-0.38,0.782-0.588,1.21c-0.231,0.412-0.5,0.827-0.782,1.274
							c-1.109,1.811-2.769,3.709-4.836,5.564c-2.088,1.815-4.633,3.48-7.477,4.797c-5.725,2.597-11.414,3.202-15.467,3.144
							c-1.015,0.001-1.939-0.063-2.747-0.135c-0.807-0.064-1.501-0.147-2.07-0.242c-1.136-0.176-1.759-0.316-1.759-0.316
							s0.555-0.341,1.549-0.879c0.494-0.267,1.098-0.594,1.798-0.972c0.691-0.365,1.479-0.78,2.349-1.239
							c3.468-1.799,8.095-4.144,13.122-6.428c2.512-1.133,4.904-2.211,7.082-3.193c2.141-1.031,4.147-1.95,5.754-2.892
							c0.416-0.229,0.812-0.447,1.188-0.653c0.362-0.229,0.704-0.444,1.023-0.647c0.333-0.203,0.642-0.392,0.928-0.565
							c0.282-0.181,0.517-0.367,0.746-0.525C442.442,635.363,442.999,635,442.999,634.999z"/>
					</g>
				</g>
			</g>
			<g opacity="0.3">
				<g>
					<g>
						<path fill="#FFFFFF" d="M233.999,473c0,0,0.006,0.842-0.04,2.298c-0.014,0.361-0.029,0.763-0.046,1.202
							c-0.008,0.439,0.015,0.921,0.017,1.43c0.026,1.022-0.028,2.154,0.071,3.419c0.026,0.624,0.054,1.276,0.082,1.957
							c0.023,0.675,0.119,1.383,0.166,2.104c0.074,1.441,0.294,2.976,0.449,4.57c0.418,3.194,0.931,6.647,1.593,10.267
							c0.685,3.615,1.41,7.058,2.116,10.234c0.417,1.564,0.713,3.103,1.119,4.507c0.181,0.715,0.356,1.405,0.524,2.068
							c0.189,0.661,0.37,1.296,0.543,1.902c0.316,1.234,0.67,2.329,0.962,3.312c0.143,0.495,0.276,0.956,0.399,1.381
							c0.138,0.42,0.263,0.804,0.377,1.149c0.447,1.392,0.668,2.2,0.668,2.2s-0.622-0.532-1.7-1.561
							c-0.269-0.261-0.566-0.55-0.893-0.867c-0.304-0.335-0.633-0.698-0.988-1.089c-0.706-0.79-1.512-1.699-2.294-2.778
							c-0.397-0.54-0.813-1.105-1.247-1.694c-0.393-0.615-0.802-1.256-1.226-1.919c-0.868-1.326-1.609-2.835-2.421-4.424
							c-1.496-3.223-2.81-6.952-3.577-11.016c-0.746-4.069-0.816-8.057-0.508-11.626c0.207-1.788,0.42-3.473,0.811-5.026
							c0.185-0.777,0.329-1.525,0.551-2.232c0.229-0.702,0.448-1.376,0.658-2.02c0.394-1.281,0.94-2.392,1.369-3.361
							c0.225-0.482,0.42-0.932,0.635-1.335c0.227-0.396,0.436-0.759,0.623-1.084C233.548,473.677,233.999,473,233.999,473z"/>
					</g>
				</g>
			</g>
			<path fill="#D88F6F" d="M553.543,474.47c-1.079-2.279-1.914-4.724-2.515-7.246c-2.575-10.814-4.621-21.942-6.641-32.874
				c-1.259-6.812-2.523-13.85-2.491-20.798c0.029-6.52,0.791-13.088,0.381-19.604c-0.396-6.279-1.516-12.443-2.622-18.614
				c-1.51-3.799-2.474-7.667-2.848-11.632c-0.447,0.539-0.901,1.073-1.332,1.623c0.253-16.188,0.3-31.656-3.587-46.213
				c-3.44-12.882-6.904-25.372-12.512-37.988c-2.521-5.672-5.197-11.362-9.514-16.012c-4.216-4.54-9.035-7.85-12.725-12.75
				c-1.663-2.209-3.073-5.303-5.515-6.985c-0.11-0.076-0.22-0.135-0.33-0.204c-0.355-0.443-0.7-0.861-0.981-1.235
				c-4.073-5.421-9.255-8.632-14.882-11.868c-5.68-3.266-10.877-6.989-16.931-9.569c-6.079-2.591-12.3-5.109-18.507-7.243
				c-7.23-2.485-14.667-2.757-22.743-2.757c-16.343,0-33.216-0.322-49.194,1.056c-7.496,0.646-15.565,1.095-23.05,2.2
				c-6.83,1.009-13.437,3.167-19.944,5.556c-5.837,2.142-12.563,4.507-17.762,8.001c-5.266,3.538-11.219,6.499-16.368,10.12
				c-4.979,3.501-9.609,7.443-14.244,11.756c-1.857,1.729-3.234,3.741-4.414,5.885c-0.688,0.79-1.392,1.639-2.137,2.564
				c-3.901,4.842-8.579,9.525-12.274,14.751c-15.749,22.277-18.598,51.537-19.936,78.534c-0.436-0.047-0.879-0.117-1.326-0.199
				c0.018,7.257-0.43,14.52-0.559,21.853c-0.231,13.154-2.445,25.615-7.57,37.8c-4.845,11.518-11.651,24.646-11.932,37.363
				c-0.145,6.565,1.529,11.873,1.627,18.428c0.017,1.137-0.139,1.454-0.166,2.583c0.307-0.25-0.067,1.509,0.25,1.25
				c2.404,3.459,1.696,7.185,1.139,10.889c-0.577,3.839-0.22,7.608,0.502,11.221c1.344,6.728,3.4,13.191,5.219,19.781
				c3.509,12.713,8.453,23.085,19.502,31.998c18.463,14.895,34.834,33.255,51.139,51.111c9.375,10.268,19.343,20.573,28.613,30.637
				c7.93,8.609,14.086,15.33,23.137,22.613c7.327,5.894,18.082,12.687,27.25,14.75c9.708,2.185,27.354,2.394,35.25-2.5l0.5,2
				c5.723-3.768,12.452-5.059,18.514-7.875c5.552-2.581,10.014-6.851,14.861-10.749c9.835-7.911,18.901-15.271,26.875-25.126
				c7.67-9.479,16.387-18.644,24.25-27.75c8.198-9.492,18.07-18.076,27.376-26.624c8.979-8.247,16.656-17.845,24.261-27.239
				C556.05,527.509,559,514.905,559,500C559,490.425,556.255,482.709,553.543,474.47z"/>
			<path d="M559.644,498.634c-0.491-5.268-1.433-10.087-2.464-14.421c-2.101-8.665-4.445-15.451-6.005-20.153
				c-0.042-0.121-0.081-0.235-0.121-0.354c-0.129-0.775-0.263-1.575-0.399-2.396c-0.126-0.83-0.137-1.74-0.216-2.638
				c-0.067-0.899-0.099-1.897-0.152-2.874c-0.037-0.979-0.201-2.069-0.306-3.135c-0.693-4.383-2.815-8.394-3.723-12.628
				c-0.912-4.336-1.055-9.121-1.313-14.221c-0.059-1.277-0.161-2.557-0.264-3.845c-0.079-1.277-0.1-2.53-0.156-3.809
				c-0.084-2.558-0.116-5.189-0.143-7.849c-0.076-6.941-0.142-13.815-0.978-20.468c-0.148-1.669-0.505-3.29-0.778-4.907
				c-0.136-0.804-0.291-1.611-0.485-2.432c-0.171-0.818-0.364-1.623-0.616-2.402c-0.924-3.15-2.104-6.014-2.986-8.798
				c-0.453-1.391-0.791-2.757-1.059-4.112c-0.09-0.682-0.18-1.358-0.268-2.031c-0.047-0.704-0.092-1.403-0.138-2.097
				c-0.164-2.778-0.085-5.523-0.096-8.229c-0.053-5.404-0.19-10.389-0.599-14.983c-0.111-1.145-0.17-2.263-0.318-3.349
				c-0.156-1.084-0.309-2.14-0.457-3.167c-0.074-0.513-0.148-1.018-0.221-1.515c-0.085-0.498-0.21-0.987-0.312-1.468
				c-0.107-0.48-0.214-0.953-0.318-1.418c-0.13-0.456-0.257-0.903-0.383-1.344c-0.079-0.269-0.157-0.512-0.236-0.774
				c-0.174-1.766-0.488-3.563-0.733-5.418c-0.293-1.938-0.512-3.941-0.964-5.956c-1.361-8.146-3.945-16.89-7.569-25.924
				c-3.61-9.045-8.727-18.244-15.24-27.067c-6.514-8.836-14.378-17.3-23.435-25.123c-9.15-7.712-19.774-14.438-31.604-19.188
				c-5.906-2.38-11.953-4.22-18.027-5.493c-6.084-1.313-12.167-1.869-18.103-2.312c-11.917-0.694-23.371-0.217-34.202,0.358
				c-5.426,0.276-10.673,0.616-15.808,0.799c-5.141,0.213-10.163,0.521-15.003,1.062c-9.678,1.167-18.572,3.412-26.247,6.507
				c-1.903,0.811-3.785,1.544-5.57,2.365c-1.768,0.855-3.489,1.688-5.163,2.499c-2.029,1.118-3.989,2.169-5.852,3.233
				c-4.889,2.408-10.258,5.368-15.918,9.046c-6.081,3.935-12.496,8.673-18.831,14.425c-6.356,5.723-12.505,12.591-18.043,20.505
				c-0.72,0.97-1.361,2.004-2.021,3.032c-0.652,1.034-1.341,2.055-1.974,3.119c-1.211,2.158-2.536,4.289-3.631,6.573
				c-2.391,4.471-4.299,9.29-6.112,14.234c-3.529,9.938-5.587,20.678-6.975,31.655c-1.374,10.993-1.993,21.743-2.724,32.06
				c-0.726,10.317-1.589,20.227-3.119,29.541c-0.402,2.324-0.743,4.633-1.265,6.867c-0.492,2.24-0.896,4.482-1.538,6.597
				c-0.296,1.068-0.59,2.129-0.881,3.181c-0.347,1.043-0.691,2.078-1.032,3.105c-0.65,2.059-1.441,4.062-2.15,6.045
				c-2.775,7.376-5.438,14.414-6.835,21.196c-0.288,1.02-0.512,2.057-0.785,3.071c-0.65,2.583-0.794,5.264-0.665,7.789
				c0.044,0.968,0.129,1.912,0.226,2.844c0.072,2.576,0.287,5.027,0.582,7.309c0.16,1.293,0.333,2.536,0.509,3.74
				c-0.028,3.882-0.206,7.204,0.19,9.634v0.001c-0.082,0.733-0.129,1.479-0.042,2.272c0.088,0.814,0.694,2.673,1.462,3.553
				c-0.013,0.083-0.03,0.163-0.042,0.246c-1.242,8.405-1.227,17.479,0.628,26.607c1.812,9.137,5.762,18.182,11.256,26.304
				c2.741,4.068,5.757,7.877,8.905,11.412c1.59,1.747,3.126,3.525,4.732,5.204c1.613,1.669,3.213,3.324,4.799,4.966
				c6.437,6.46,12.882,12.392,18.936,18.1c0.93,0.867,1.826,1.724,2.732,2.583c0.921,0.979,1.882,1.989,2.888,3.037
				c3.805,3.918,8.242,8.28,13.176,13.046c0.824,0.802,1.68,1.635,2.53,2.462c3.477,3.585,6.78,6.99,9.865,10.171
				c4.415,4.526,8.417,8.609,11.936,12.188c2.864,3.218,5.767,6.58,8.751,10.04c5.944,6.852,12.198,14.122,19.5,20.976
				c7.281,6.816,15.776,13.241,25.803,17.329c4.999,2.028,10.198,3.402,15.394,4.13c5.194,0.734,10.395,0.827,15.401,0.49
				c10.062-0.515,19.699-3.025,28.1-6.883c8.444-3.833,15.69-8.896,21.919-14.139c3.129-2.614,6.01-5.29,8.685-7.946
				c2.688-2.646,5.169-5.272,7.483-7.822c4.635-5.097,8.624-9.867,12.098-14.073c3.454-4.219,6.43-7.853,8.861-10.822
				c0.199-0.243,0.39-0.476,0.582-0.71c0.897-1.004,1.824-2.04,2.807-3.139c1.351-1.461,2.778-3.005,4.277-4.627
				c6.056-6.435,13.383-13.947,22.008-21.807c8.561-7.913,18.341-16.421,27.379-26.686c1.121-1.286,2.264-2.544,3.344-3.837
				c1.04-1.325,2.073-2.643,3.099-3.949c2.048-2.587,4.089-5.233,5.778-8.085c3.395-5.671,5.488-11.804,6.503-17.739
				C560.152,509.629,560.138,503.893,559.644,498.634z M555.932,514.984c-1.133,5.559-3.217,11.189-6.459,16.41
				c-1.604,2.608-3.559,5.082-5.615,7.634c-1.013,1.274-2.032,2.558-3.059,3.85c-1.064,1.262-2.184,2.487-3.28,3.746
				c-8.829,10.032-18.353,18.649-26.726,26.88c-8.435,8.18-15.491,16.113-21.205,22.896c-1.41,1.714-2.754,3.345-4.024,4.889
				c-1.236,1.568-2.401,3.047-3.491,4.43c-2.163,2.775-4.026,5.166-5.549,7.12c-0.119,0.154-0.222,0.288-0.336,0.437
				c-0.837,0.934-1.704,1.902-2.603,2.906c-3.642,4.053-7.804,8.65-12.579,13.544c-2.386,2.448-4.93,4.965-7.664,7.489
				c-2.722,2.537-5.635,5.082-8.77,7.555c-6.243,4.963-13.395,9.688-21.57,13.2c-8.156,3.539-17.299,5.773-26.981,6.168
				c-4.847,0.272-9.743,0.139-14.645-0.58c-4.897-0.714-9.768-2.017-14.476-3.926c-9.43-3.844-17.58-9.896-24.744-16.46
				c-7.179-6.592-13.492-13.688-19.567-20.417c-6.058-6.746-11.89-13.169-17.736-18.806c-2.927-2.805-5.753-5.489-8.5-8.048
				c-0.843-0.767-1.654-1.505-2.476-2.253c-2.205-2.436-4.487-4.958-6.852-7.571c-2.464-2.763-5.131-5.541-7.869-8.412
				c-2.779-2.819-5.645-5.722-8.631-8.631c-5.943-5.854-12.268-11.881-18.556-18.342c-1.547-1.635-3.108-3.284-4.682-4.946
				c-1.567-1.668-3.056-3.421-4.608-5.145c-3.057-3.476-5.938-7.143-8.57-11.048c-5.27-7.806-9.02-16.265-10.845-24.906
				c-1.861-8.636-2.034-17.305-1.019-25.394c2.035-16.267,9.229-29.813,16.761-39.629c3.835-4.885,8.102-8.628,11.962-11.772
				c3.87-3.137,7.405-5.604,10.284-7.63c5.79-4.019,8.992-6.24,8.992-6.24s-3.321,2.042-9.327,5.734
				c-2.984,1.878-6.647,4.174-10.698,7.162c-4.027,2.987-8.56,6.627-12.714,11.517c-4.097,4.897-8.018,10.738-11.34,17.487
				c-2.576,5.181-4.643,10.983-6.053,17.201c-0.139-0.154-0.3-0.301-0.468-0.465c-0.283-2.409-0.635-5.092-0.968-8.059
				c-0.001-0.566-0.004-1.144-0.01-1.741c-0.024-1.018-0.057-2.086-0.201-3.197c-0.153-1.078-0.312-2.193-0.475-3.338
				c-0.021-0.147-0.044-0.298-0.066-0.446c-0.222-4.815,0.001-10.117,1.256-15.692c1.492-6.946,4.496-14.181,7.698-22.041
				c0.772-1.985,1.615-3.97,2.337-6.067c0.375-1.041,0.752-2.091,1.132-3.147c0.344-1.074,0.658-2.172,0.991-3.27
				c0.717-2.193,1.176-4.452,1.728-6.732c0.582-2.275,0.976-4.613,1.431-6.974c1.739-9.453,2.762-19.475,3.596-29.82
				c0.839-10.347,1.519-21.034,2.872-31.858c1.366-10.809,3.319-21.281,6.637-30.932c1.707-4.797,3.491-9.49,5.744-13.853
				c1.027-2.23,2.281-4.314,3.418-6.429c0.596-1.042,1.248-2.044,1.862-3.059c0.624-1.01,1.226-2.026,1.909-2.982
				c5.233-7.791,11.069-14.634,17.148-20.409c6.055-5.803,12.225-10.663,18.099-14.751c1.131-0.79,2.248-1.543,3.355-2.275
				c0.365-0.229,0.727-0.454,1.099-0.693c1.176-0.744,2.402-1.52,3.678-2.328c1.294-0.776,2.667-1.533,4.072-2.344
				c2.783-1.672,5.915-3.168,9.185-4.835c1.676-0.747,3.399-1.515,5.168-2.303c1.783-0.754,3.655-1.418,5.546-2.159
				c7.629-2.816,16.35-4.764,25.841-5.685c4.757-0.418,9.698-0.613,14.826-0.722c5.135-0.08,10.447-0.323,15.853-0.507
				c10.821-0.395,22.161-0.708,33.809,0.076c5.818,0.488,11.723,1.07,17.557,2.36c5.846,1.253,11.669,3.04,17.368,5.337
				c11.415,4.581,21.729,11.034,30.675,18.438c8.868,7.521,16.703,15.724,23.198,24.238c6.508,8.518,11.672,17.362,15.417,26.136
				c3.752,8.758,6.521,17.246,8.102,25.24c0.108,0.91,0.433,1.932,0.649,3.069c0.18,0.87-0.178,1.824,0.822,2.815
				c0,0.001,0,0.002,0,0.003c0,1.915,0.541,3.767,0.766,5.594c0.447,3.652,0.915,7.084,1.169,10.326
				c0.246,2.562,0.448,4.979,0.623,7.258c0,3.149-0.097,6.465-0.211,9.928c-0.102,2.649-0.304,5.448-0.24,8.375
				c0.021,0.731,0.038,1.469,0.06,2.211c0.075,0.766,0.147,1.538,0.224,2.314c0.246,1.534,0.577,3.07,1.014,4.559
				c0.852,2.986,1.95,5.877,2.73,8.803c0.219,0.728,0.376,1.468,0.513,2.215c0.159,0.734,0.29,1.501,0.407,2.288
				c0.231,1.561,0.55,3.125,0.664,4.729c0.698,6.38,0.71,13.115,0.784,20.074c0.027,2.666,0.067,5.312,0.172,7.961
				c0.065,1.324,0.102,2.66,0.195,3.947c0.114,1.272,0.229,2.535,0.303,3.783c0.323,4.987,0.547,10.023,1.667,14.772
				c0.604,2.403,1.458,4.609,2.241,6.611c0.409,1.026,0.727,1.995,1.088,2.969c0.155,0.479,0.277,0.946,0.419,1.414
				c0.13,0.467,0.302,0.921,0.34,1.402c0.646,3.715,0.577,7.708,1.613,11.191c-0.011-0.047-0.021-0.094-0.025-0.11
				c0.459,1.792,0.905,3.539,1.34,5.238c0.475,1.679,1.056,3.257,1.557,4.815c0.508,1.562,1.042,3.024,1.541,4.466
				c0.252,0.718,0.5,1.424,0.744,2.118c0.216,0.696,0.428,1.381,0.637,2.054c0.717,2.074,1.246,4.061,1.654,5.95
				c0.464,3.12,0.841,6.414,1.011,9.885C557.253,503.934,557.048,509.413,555.932,514.984z"/>
			<g opacity="0.3">
				<g>
					<g>
						<path d="M410.5,614.999c0,0-0.688-0.006-1.864-0.07c-1.166-0.092-2.859-0.111-4.852-0.135
							c-1.008,0.025-2.075-0.018-3.233,0.055c-0.57,0.017-1.16,0.034-1.768,0.053c-0.609,0.041-1.232,0.075-1.865,0.1
							c-2.547,0.149-5.317,0.34-8.298,0.462c-5.957,0.291-11.729-0.019-15.912-0.758c-2.09-0.363-3.773-0.771-4.926-1.129
							c-1.153-0.345-1.78-0.577-1.78-0.577s0.632-0.253,1.756-0.636c1.125-0.37,2.735-0.932,4.709-1.534
							c3.951-1.19,9.365-2.806,15.827-3.126c3.229-0.135,6.389,0.162,9.207,0.77c0.706,0.165,1.389,0.337,2.048,0.512
							c0.659,0.185,1.291,0.42,1.898,0.63c1.217,0.398,2.306,0.945,3.285,1.413c1.941,1.012,3.399,1.984,4.336,2.767
							C410.014,614.551,410.5,614.999,410.5,614.999z"/>
					</g>
				</g>
			</g>
			<g opacity="0.3">
				<g>
					<g>
						<path fill="#FFFFFF" d="M442.999,634.999c0,0-0.136,0.61-0.484,1.728c-0.091,0.276-0.18,0.6-0.313,0.927
							c-0.147,0.322-0.305,0.673-0.476,1.049c-0.184,0.378-0.38,0.782-0.588,1.21c-0.231,0.412-0.5,0.827-0.782,1.274
							c-1.109,1.811-2.769,3.709-4.836,5.564c-2.088,1.815-4.633,3.48-7.477,4.797c-5.725,2.597-11.414,3.202-15.467,3.144
							c-1.015,0.001-1.939-0.063-2.747-0.135c-0.807-0.064-1.501-0.147-2.07-0.242c-1.136-0.176-1.759-0.316-1.759-0.316
							s0.555-0.341,1.549-0.879c0.494-0.267,1.098-0.594,1.798-0.972c0.691-0.365,1.479-0.78,2.349-1.239
							c3.468-1.799,8.095-4.144,13.122-6.428c2.512-1.133,4.904-2.211,7.082-3.193c2.141-1.031,4.147-1.95,5.754-2.892
							c0.416-0.229,0.812-0.447,1.188-0.653c0.362-0.229,0.704-0.444,1.023-0.647c0.333-0.203,0.642-0.392,0.928-0.565
							c0.282-0.181,0.517-0.367,0.746-0.525C442.442,635.363,442.999,635,442.999,634.999z"/>
					</g>
				</g>
			</g>
			<g opacity="0.3">
				<g>
					<g>
						<path fill="#FFFFFF" d="M233.999,473c0,0,0.006,0.842-0.04,2.298c-0.014,0.361-0.029,0.763-0.046,1.202
							c-0.008,0.439,0.015,0.921,0.017,1.43c0.026,1.022-0.028,2.154,0.071,3.419c0.026,0.624,0.054,1.276,0.082,1.957
							c0.023,0.675,0.119,1.383,0.166,2.104c0.074,1.441,0.294,2.976,0.449,4.57c0.418,3.194,0.931,6.647,1.593,10.267
							c0.685,3.615,1.41,7.058,2.116,10.234c0.417,1.564,0.713,3.103,1.119,4.507c0.181,0.715,0.356,1.405,0.524,2.068
							c0.189,0.661,0.37,1.296,0.543,1.902c0.316,1.234,0.67,2.329,0.962,3.312c0.143,0.495,0.276,0.956,0.399,1.381
							c0.138,0.42,0.263,0.804,0.377,1.149c0.447,1.392,0.668,2.2,0.668,2.2s-0.622-0.532-1.7-1.561
							c-0.269-0.261-0.566-0.55-0.893-0.867c-0.304-0.335-0.633-0.698-0.988-1.089c-0.706-0.79-1.512-1.699-2.294-2.778
							c-0.397-0.54-0.813-1.105-1.247-1.694c-0.393-0.615-0.802-1.256-1.226-1.919c-0.868-1.326-1.609-2.835-2.421-4.424
							c-1.496-3.223-2.81-6.952-3.577-11.016c-0.746-4.069-0.816-8.057-0.508-11.626c0.207-1.788,0.42-3.473,0.811-5.026
							c0.185-0.777,0.329-1.525,0.551-2.232c0.229-0.702,0.448-1.376,0.658-2.02c0.394-1.281,0.94-2.392,1.369-3.361
							c0.225-0.482,0.42-0.932,0.635-1.335c0.227-0.396,0.436-0.759,0.623-1.084C233.548,473.677,233.999,473,233.999,473z"/>
					</g>
				</g>
			</g>
			<path fill="#D88F6F" d="M553.543,474.47c-1.079-2.279-1.914-4.724-2.515-7.246c-2.575-10.814-4.621-21.942-6.641-32.874
				c-1.259-6.812-2.523-13.85-2.491-20.798c0.029-6.52,0.791-13.088,0.381-19.604c-0.396-6.279-1.516-12.443-2.622-18.614
				c-1.51-3.799-2.474-7.667-2.848-11.632c-0.447,0.539-0.901,1.073-1.332,1.623c0.253-16.188,0.3-31.656-3.587-46.213
				c-3.44-12.882-6.904-25.372-12.512-37.988c-2.521-5.672-5.197-11.362-9.514-16.012c-4.216-4.54-9.035-7.85-12.725-12.75
				c-1.663-2.209-3.073-5.303-5.515-6.985c-0.11-0.076-0.22-0.135-0.33-0.204c-0.355-0.443-0.7-0.861-0.981-1.235
				c-4.073-5.421-9.255-8.632-14.882-11.868c-5.68-3.266-10.877-6.989-16.931-9.569c-6.079-2.591-12.3-5.109-18.507-7.243
				c-7.23-2.485-14.667-2.757-22.743-2.757c-16.343,0-33.216-0.322-49.194,1.056c-7.496,0.646-15.565,1.095-23.05,2.2
				c-6.83,1.009-13.437,3.167-19.944,5.556c-5.837,2.142-12.563,4.507-17.762,8.001c-5.266,3.538-11.219,6.499-16.368,10.12
				c-4.979,3.501-9.609,7.443-14.244,11.756c-1.857,1.729-3.234,3.741-4.414,5.885c-0.688,0.79-1.392,1.639-2.137,2.564
				c-3.901,4.842-8.579,9.525-12.274,14.751c-15.749,22.277-18.598,51.537-19.936,78.534c-0.436-0.047-0.879-0.117-1.326-0.199
				c0.018,7.257-0.43,14.52-0.559,21.853c-0.231,13.154-2.445,25.615-7.57,37.8c-4.542,10.799-10.809,23.013-11.805,34.977
				c0.608,2.493,0.644,5.228,0.626,7.781c-0.042,5.932,1.062,11.732,1.433,17.63c1.822,3.241,1.181,6.692,0.664,10.125
				c-0.577,3.839-0.22,7.608,0.502,11.221c1.344,6.728,3.4,13.191,5.219,19.781c3.509,12.713,8.453,23.085,19.502,31.998
				c18.463,14.895,34.834,33.255,51.139,51.111c9.375,10.268,19.343,20.573,28.613,30.637c7.93,8.609,14.086,15.33,23.137,22.613
				c7.327,5.894,18.082,12.687,27.25,14.75c9.708,2.185,27.354,2.394,35.25-2.5l0.5,2c5.723-3.768,12.452-5.059,18.514-7.875
				c5.552-2.581,10.014-6.851,14.861-10.749c9.835-7.911,18.901-15.271,26.875-25.126c7.67-9.479,16.387-18.644,24.25-27.75
				c8.198-9.492,18.07-18.076,27.376-26.624c8.979-8.247,16.656-17.845,24.261-27.239C556.05,527.509,559,514.905,559,500
				C559,490.425,556.255,482.709,553.543,474.47z"/>
			<path d="M559.644,498.634c-0.491-5.268-1.433-10.087-2.464-14.421c-2.101-8.665-4.445-15.451-6.005-20.153
				c-0.042-0.121-0.081-0.235-0.121-0.354c-0.129-0.775-0.263-1.575-0.399-2.396c-0.126-0.83-0.137-1.74-0.216-2.638
				c-0.067-0.899-0.099-1.897-0.152-2.874c-0.037-0.979-0.201-2.069-0.306-3.135c-0.693-4.383-2.815-8.394-3.723-12.628
				c-0.912-4.336-1.055-9.121-1.313-14.221c-0.059-1.277-0.161-2.557-0.264-3.845c-0.079-1.277-0.1-2.53-0.156-3.809
				c-0.084-2.558-0.116-5.189-0.143-7.849c-0.076-6.941-0.142-13.815-0.978-20.468c-0.148-1.669-0.505-3.29-0.778-4.907
				c-0.136-0.804-0.291-1.611-0.485-2.432c-0.171-0.818-0.364-1.623-0.616-2.402c-0.924-3.15-2.104-6.014-2.986-8.798
				c-0.453-1.391-0.791-2.757-1.059-4.112c-0.09-0.682-0.18-1.358-0.268-2.031c-0.047-0.704-0.092-1.403-0.138-2.097
				c-0.164-2.778-0.085-5.523-0.096-8.229c-0.053-5.404-0.19-10.389-0.599-14.983c-0.111-1.145-0.17-2.263-0.318-3.349
				c-0.156-1.084-0.309-2.14-0.457-3.167c-0.074-0.513-0.148-1.018-0.221-1.515c-0.085-0.498-0.21-0.987-0.312-1.468
				c-0.107-0.48-0.214-0.953-0.318-1.418c-0.13-0.456-0.257-0.903-0.383-1.344c-0.079-0.269-0.157-0.512-0.236-0.774
				c-0.174-1.766-0.488-3.563-0.733-5.418c-0.293-1.938-0.512-3.941-0.964-5.956c-1.361-8.146-3.945-16.89-7.569-25.924
				c-3.61-9.045-8.727-18.244-15.24-27.067c-6.514-8.836-14.378-17.3-23.435-25.123c-9.15-7.712-19.774-14.438-31.604-19.188
				c-5.906-2.38-11.953-4.22-18.027-5.493c-6.084-1.313-12.167-1.869-18.103-2.312c-11.917-0.694-23.371-0.217-34.202,0.358
				c-5.426,0.276-10.673,0.616-15.808,0.799c-5.141,0.213-10.163,0.521-15.003,1.062c-9.678,1.167-18.572,3.412-26.247,6.507
				c-1.903,0.811-3.785,1.544-5.57,2.365c-1.768,0.855-3.489,1.688-5.163,2.499c-2.029,1.118-3.989,2.169-5.852,3.233
				c-4.889,2.408-10.258,5.368-15.918,9.046c-6.081,3.935-12.496,8.673-18.831,14.425c-6.356,5.723-12.505,12.591-18.043,20.505
				c-0.72,0.97-1.361,2.004-2.021,3.032c-0.652,1.034-1.341,2.055-1.974,3.119c-1.211,2.158-2.536,4.289-3.631,6.573
				c-2.391,4.471-4.299,9.29-6.112,14.234c-3.529,9.938-5.587,20.678-6.975,31.655c-1.374,10.993-1.993,21.743-2.724,32.06
				c-0.726,10.317-1.589,20.227-3.119,29.541c-0.402,2.324-0.743,4.633-1.265,6.867c-0.492,2.24-0.896,4.482-1.538,6.597
				c-0.296,1.068-0.59,2.129-0.881,3.181c-0.347,1.043-0.691,2.078-1.032,3.105c-0.65,2.059-1.441,4.062-2.15,6.045
				c-2.775,7.376-5.438,14.414-6.835,21.196c-0.288,1.02-0.512,2.057-0.785,3.071c-0.65,2.583-0.794,5.264-0.665,7.789
				c0.044,0.968,0.129,1.912,0.226,2.844c0.072,2.576,0.287,5.027,0.582,7.309c0.16,1.293,0.333,2.536,0.509,3.74
				c-0.028,3.882-0.206,7.204,0.19,9.634v0.001c-0.082,0.733-0.129,1.479-0.042,2.272c0.088,0.814,0.694,2.673,1.462,3.553
				c-0.013,0.083-0.03,0.163-0.042,0.246c-1.242,8.405-1.227,17.479,0.628,26.607c1.812,9.137,5.762,18.182,11.256,26.304
				c2.741,4.068,5.757,7.877,8.905,11.412c1.59,1.747,3.126,3.525,4.732,5.204c1.613,1.669,3.213,3.324,4.799,4.966
				c6.437,6.46,12.882,12.392,18.936,18.1c0.93,0.867,1.826,1.724,2.732,2.583c0.921,0.979,1.882,1.989,2.888,3.037
				c3.805,3.918,8.242,8.28,13.176,13.046c0.824,0.802,1.68,1.635,2.53,2.462c3.477,3.585,6.78,6.99,9.865,10.171
				c4.415,4.526,8.417,8.609,11.936,12.188c2.864,3.218,5.767,6.58,8.751,10.04c5.944,6.852,12.198,14.122,19.5,20.976
				c7.281,6.816,15.776,13.241,25.803,17.329c4.999,2.028,10.198,3.402,15.394,4.13c5.194,0.734,10.395,0.827,15.401,0.49
				c10.062-0.515,19.699-3.025,28.1-6.883c8.444-3.833,15.69-8.896,21.919-14.139c3.129-2.614,6.01-5.29,8.685-7.946
				c2.688-2.646,5.169-5.272,7.483-7.822c4.635-5.097,8.624-9.867,12.098-14.073c3.454-4.219,6.43-7.853,8.861-10.822
				c0.199-0.243,0.39-0.476,0.582-0.71c0.897-1.004,1.824-2.04,2.807-3.139c1.351-1.461,2.778-3.005,4.277-4.627
				c6.056-6.435,13.383-13.947,22.008-21.807c8.561-7.913,18.341-16.421,27.379-26.686c1.121-1.286,2.264-2.544,3.344-3.837
				c1.04-1.325,2.073-2.643,3.099-3.949c2.048-2.587,4.089-5.233,5.778-8.085c3.395-5.671,5.488-11.804,6.503-17.739
				C560.152,509.629,560.138,503.893,559.644,498.634z M555.932,514.984c-1.133,5.559-3.217,11.189-6.459,16.41
				c-1.604,2.608-3.559,5.082-5.615,7.634c-1.013,1.274-2.032,2.558-3.059,3.85c-1.064,1.262-2.184,2.487-3.28,3.746
				c-8.829,10.032-18.353,18.649-26.726,26.88c-8.435,8.18-15.491,16.113-21.205,22.896c-1.41,1.714-2.754,3.345-4.024,4.889
				c-1.236,1.568-2.401,3.047-3.491,4.43c-2.163,2.775-4.026,5.166-5.549,7.12c-0.119,0.154-0.222,0.288-0.336,0.437
				c-0.837,0.934-1.704,1.902-2.603,2.906c-3.642,4.053-7.804,8.65-12.579,13.544c-2.386,2.448-4.93,4.965-7.664,7.489
				c-2.722,2.537-5.635,5.082-8.77,7.555c-6.243,4.963-13.395,9.688-21.57,13.2c-8.156,3.539-17.299,5.773-26.981,6.168
				c-4.847,0.272-9.743,0.139-14.645-0.58c-4.897-0.714-9.768-2.017-14.476-3.926c-9.43-3.844-17.58-9.896-24.744-16.46
				c-7.179-6.592-13.492-13.688-19.567-20.417c-6.058-6.746-11.89-13.169-17.736-18.806c-2.927-2.805-5.753-5.489-8.5-8.048
				c-0.843-0.767-1.654-1.505-2.476-2.253c-2.205-2.436-4.487-4.958-6.852-7.571c-2.464-2.763-5.131-5.541-7.869-8.412
				c-2.779-2.819-5.645-5.722-8.631-8.631c-5.943-5.854-12.268-11.881-18.556-18.342c-1.547-1.635-3.108-3.284-4.682-4.946
				c-1.567-1.668-3.056-3.421-4.608-5.145c-3.057-3.476-5.938-7.143-8.57-11.048c-5.27-7.806-9.02-16.265-10.845-24.906
				c-1.861-8.636-2.034-17.305-1.019-25.394c2.035-16.267,9.229-29.813,16.761-39.629c3.835-4.885,8.102-8.628,11.962-11.772
				c3.87-3.137,7.405-5.604,10.284-7.63c5.79-4.019,8.992-6.24,8.992-6.24s-3.321,2.042-9.327,5.734
				c-2.984,1.878-6.647,4.174-10.698,7.162c-4.027,2.987-8.56,6.627-12.714,11.517c-4.097,4.897-8.018,10.738-11.34,17.487
				c-2.576,5.181-4.643,10.983-6.053,17.201c-0.139-0.154-0.3-0.301-0.468-0.465c-0.283-2.409-0.635-5.092-0.968-8.059
				c-0.001-0.566-0.004-1.144-0.01-1.741c-0.024-1.018-0.057-2.086-0.201-3.197c-0.153-1.078-0.312-2.193-0.475-3.338
				c-0.021-0.147-0.044-0.298-0.066-0.446c-0.222-4.815,0.001-10.117,1.256-15.692c1.492-6.946,4.496-14.181,7.698-22.041
				c0.772-1.985,1.615-3.97,2.337-6.067c0.375-1.041,0.752-2.091,1.132-3.147c0.344-1.074,0.658-2.172,0.991-3.27
				c0.717-2.193,1.176-4.452,1.728-6.732c0.582-2.275,0.976-4.613,1.431-6.974c1.739-9.453,2.762-19.475,3.596-29.82
				c0.839-10.347,1.519-21.034,2.872-31.858c1.366-10.809,3.319-21.281,6.637-30.932c1.707-4.797,3.491-9.49,5.744-13.853
				c1.027-2.23,2.281-4.314,3.418-6.429c0.596-1.042,1.248-2.044,1.862-3.059c0.624-1.01,1.226-2.026,1.909-2.982
				c5.233-7.791,11.069-14.634,17.148-20.409c6.055-5.803,12.225-10.663,18.099-14.751c1.131-0.79,2.248-1.543,3.355-2.275
				c0.365-0.229,0.727-0.454,1.099-0.693c1.176-0.744,2.402-1.52,3.678-2.328c1.294-0.776,2.667-1.533,4.072-2.344
				c2.783-1.672,5.915-3.168,9.185-4.835c1.676-0.747,3.399-1.515,5.168-2.303c1.783-0.754,3.655-1.418,5.546-2.159
				c7.629-2.816,16.35-4.764,25.841-5.685c4.757-0.418,9.698-0.613,14.826-0.722c5.135-0.08,10.447-0.323,15.853-0.507
				c10.821-0.395,22.161-0.708,33.809,0.076c5.818,0.488,11.723,1.07,17.557,2.36c5.846,1.253,11.669,3.04,17.368,5.337
				c11.415,4.581,21.729,11.034,30.675,18.438c8.868,7.521,16.703,15.724,23.198,24.238c6.508,8.518,11.672,17.362,15.417,26.136
				c3.752,8.758,6.521,17.246,8.102,25.24c0.108,0.91,0.433,1.932,0.649,3.069c0.18,0.87-0.178,1.824,0.822,2.815
				c0,0.001,0,0.002,0,0.003c0,1.915,0.541,3.767,0.766,5.594c0.447,3.652,0.915,7.084,1.169,10.326
				c0.246,2.562,0.448,4.979,0.623,7.258c0,3.149-0.097,6.465-0.211,9.928c-0.102,2.649-0.304,5.448-0.24,8.375
				c0.021,0.731,0.038,1.469,0.06,2.211c0.075,0.766,0.147,1.538,0.224,2.314c0.246,1.534,0.577,3.07,1.014,4.559
				c0.852,2.986,1.95,5.877,2.73,8.803c0.219,0.728,0.376,1.468,0.513,2.215c0.159,0.734,0.29,1.501,0.407,2.288
				c0.231,1.561,0.55,3.125,0.664,4.729c0.698,6.38,0.71,13.115,0.784,20.074c0.027,2.666,0.067,5.312,0.172,7.961
				c0.065,1.324,0.102,2.66,0.195,3.947c0.114,1.272,0.229,2.535,0.303,3.783c0.323,4.987,0.547,10.023,1.667,14.772
				c0.604,2.403,1.458,4.609,2.241,6.611c0.409,1.026,0.727,1.995,1.088,2.969c0.155,0.479,0.277,0.946,0.419,1.414
				c0.13,0.467,0.302,0.921,0.34,1.402c0.646,3.715,0.577,7.708,1.613,11.191c-0.011-0.047-0.021-0.094-0.025-0.11
				c0.459,1.792,0.905,3.539,1.34,5.238c0.475,1.679,1.056,3.257,1.557,4.815c0.508,1.562,1.042,3.024,1.541,4.466
				c0.252,0.718,0.5,1.424,0.744,2.118c0.216,0.696,0.428,1.381,0.637,2.054c0.717,2.074,1.246,4.061,1.654,5.95
				c0.464,3.12,0.841,6.414,1.011,9.885C557.253,503.934,557.048,509.413,555.932,514.984z"/>
			<g opacity="0.3">
				<g>
					<g>
						<path d="M410.5,614.999c0,0-0.688-0.006-1.864-0.07c-1.166-0.092-2.859-0.111-4.852-0.135
							c-1.008,0.025-2.075-0.018-3.233,0.055c-0.57,0.017-1.16,0.034-1.768,0.053c-0.609,0.041-1.232,0.075-1.865,0.1
							c-2.547,0.149-5.317,0.34-8.298,0.462c-5.957,0.291-11.729-0.019-15.912-0.758c-2.09-0.363-3.773-0.771-4.926-1.129
							c-1.153-0.345-1.78-0.577-1.78-0.577s0.632-0.253,1.756-0.636c1.125-0.37,2.735-0.932,4.709-1.534
							c3.951-1.19,9.365-2.806,15.827-3.126c3.229-0.135,6.389,0.162,9.207,0.77c0.706,0.165,1.389,0.337,2.048,0.512
							c0.659,0.185,1.291,0.42,1.898,0.63c1.217,0.398,2.306,0.945,3.285,1.413c1.941,1.012,3.399,1.984,4.336,2.767
							C410.014,614.551,410.5,614.999,410.5,614.999z"/>
					</g>
				</g>
			</g>
			<g opacity="0.3">
				<g>
					<g>
						<path fill="#FFFFFF" d="M442.999,634.999c0,0-0.136,0.61-0.484,1.728c-0.091,0.276-0.18,0.6-0.313,0.927
							c-0.147,0.322-0.305,0.673-0.476,1.049c-0.184,0.378-0.38,0.782-0.588,1.21c-0.231,0.412-0.5,0.827-0.782,1.274
							c-1.109,1.811-2.769,3.709-4.836,5.564c-2.088,1.815-4.633,3.48-7.477,4.797c-5.725,2.597-11.414,3.202-15.467,3.144
							c-1.015,0.001-1.939-0.063-2.747-0.135c-0.807-0.064-1.501-0.147-2.07-0.242c-1.136-0.176-1.759-0.316-1.759-0.316
							s0.555-0.341,1.549-0.879c0.494-0.267,1.098-0.594,1.798-0.972c0.691-0.365,1.479-0.78,2.349-1.239
							c3.468-1.799,8.095-4.144,13.122-6.428c2.512-1.133,4.904-2.211,7.082-3.193c2.141-1.031,4.147-1.95,5.754-2.892
							c0.416-0.229,0.812-0.447,1.188-0.653c0.362-0.229,0.704-0.444,1.023-0.647c0.333-0.203,0.642-0.392,0.928-0.565
							c0.282-0.181,0.517-0.367,0.746-0.525C442.442,635.363,442.999,635,442.999,634.999z"/>
					</g>
				</g>
			</g>
			<g opacity="0.3">
				<g>
					<g>
						<path fill="#FFFFFF" d="M233.999,473c0,0,0.006,0.842-0.04,2.298c-0.014,0.361-0.029,0.763-0.046,1.202
							c-0.008,0.439,0.015,0.921,0.017,1.43c0.026,1.022-0.028,2.154,0.071,3.419c0.026,0.624,0.054,1.276,0.082,1.957
							c0.023,0.675,0.119,1.383,0.166,2.104c0.074,1.441,0.294,2.976,0.449,4.57c0.418,3.194,0.931,6.647,1.593,10.267
							c0.685,3.615,1.41,7.058,2.116,10.234c0.417,1.564,0.713,3.103,1.119,4.507c0.181,0.715,0.356,1.405,0.524,2.068
							c0.189,0.661,0.37,1.296,0.543,1.902c0.316,1.234,0.67,2.329,0.962,3.312c0.143,0.495,0.276,0.956,0.399,1.381
							c0.138,0.42,0.263,0.804,0.377,1.149c0.447,1.392,0.668,2.2,0.668,2.2s-0.622-0.532-1.7-1.561
							c-0.269-0.261-0.566-0.55-0.893-0.867c-0.304-0.335-0.633-0.698-0.988-1.089c-0.706-0.79-1.512-1.699-2.294-2.778
							c-0.397-0.54-0.813-1.105-1.247-1.694c-0.393-0.615-0.802-1.256-1.226-1.919c-0.868-1.326-1.609-2.835-2.421-4.424
							c-1.496-3.223-2.81-6.952-3.577-11.016c-0.746-4.069-0.816-8.057-0.508-11.626c0.207-1.788,0.42-3.473,0.811-5.026
							c0.185-0.777,0.329-1.525,0.551-2.232c0.229-0.702,0.448-1.376,0.658-2.02c0.394-1.281,0.94-2.392,1.369-3.361
							c0.225-0.482,0.42-0.932,0.635-1.335c0.227-0.396,0.436-0.759,0.623-1.084C233.548,473.677,233.999,473,233.999,473z"/>
					</g>
				</g>
			</g>
			<g>
				<g>
					<path d="M603.039,349.996c-0.152-2.168-0.401-4.326-0.648-6.63c-0.51-4.574-1.177-9.469-2.209-14.589
						c-1.062-5.11-2.469-10.467-4.719-15.801c-2.257-5.3-5.399-10.657-10.044-14.983c-2.31-2.154-4.931-3.954-7.718-5.291
						c-2.782-1.343-5.73-2.224-8.624-2.722c-2.881-0.525-5.878-0.719-8.75-0.369c-2.874,0.329-5.612,1.132-8.101,2.236
						c-5.004,2.217-8.961,5.531-12.26,8.833c-3.3,3.332-5.953,6.756-8.263,9.931c-0.345,0.483-0.667,0.949-0.996,1.421
						c0.18,0.227,0.357,0.447,0.541,0.692c0.237,0.316,0.418,0.63,0.572,0.943c0.48-0.602,0.966-1.21,1.473-1.831
						c2.469-2.973,5.258-6.158,8.572-9.176c3.309-2.995,7.155-5.894,11.68-7.695c2.253-0.902,4.659-1.517,7.153-1.731
						c2.497-0.23,5.045-0.008,7.666,0.518c5.223,0.971,10.256,3.35,14.323,7.18c4.09,3.805,7.036,8.634,9.253,13.575
						c2.212,4.965,3.723,10.076,4.936,15.005c1.185,4.943,2.059,9.725,2.796,14.227c0.356,2.236,0.737,4.46,1,6.525
						c0.132,1.032,0.26,2.042,0.386,3.032c0.042,0.998,0.083,1.973,0.123,2.925c0.072,0.955,0.01,1.889-0.015,2.8
						c-0.044,0.911-0.023,1.804-0.116,2.666c-0.176,1.725-0.275,3.364-0.531,4.881c-0.209,1.523-0.418,2.942-0.671,4.241
						c-0.229,1.301-0.44,2.492-0.667,3.558c-0.875,4.272-1.359,6.633-1.359,6.633s0.18-0.576,0.522-1.672
						c0.343-1.097,0.84-2.715,1.447-4.812c0.318-1.045,0.63-2.22,0.967-3.508c0.36-1.282,0.684-2.694,1.013-4.219
						c0.375-1.515,0.601-3.174,0.903-4.926c0.157-0.876,0.2-1.794,0.309-2.729c0.089-0.938,0.215-1.899,0.205-2.895
						c0.021-0.995,0.041-2.014,0.062-3.056C603.182,352.144,603.111,351.081,603.039,349.996z"/>
				</g>
				<g>
					<g>
						<g>
							<path d="M564.361,455.398c0,0,0.961-1.061,2.697-2.978c1.71-1.93,4.198-4.727,6.784-8.457
								c0.629-0.947,1.285-1.921,1.904-3.001c0.62-1.082,1.265-2.209,1.933-3.375c1.391-2.317,2.683-4.866,4.029-7.547
								c2.64-5.398,5.073-11.551,7.281-18.144c4.383-13.205,7.249-25.624,9.614-34.554c2.291-8.956,3.941-14.45,3.941-14.45
								s-0.666,5.689-1.975,14.845c-0.672,4.578-1.521,10.025-2.724,16.046c-1.205,6.017-2.792,12.614-5.052,19.385
								c-2.265,6.766-5.021,13.042-8.087,18.441c-1.561,2.684-3.093,5.207-4.697,7.422c-0.789,1.123-1.552,2.209-2.284,3.252
								c-0.741,1.04-1.543,2.002-2.294,2.902c-3.091,3.559-5.959,6.013-7.94,7.684c-0.992,0.836-1.781,1.46-2.316,1.884
								C564.643,455.177,564.361,455.398,564.361,455.398z"/>
						</g>
					</g>
				</g>
				<g>
					<g>
						<g>
							<path d="M550.34,424.852c0,0-0.021-0.372-0.058-1.081c-0.057-0.709-0.05-1.771,0.18-3.119
								c0.186-1.357,0.815-2.991,1.973-4.598c1.154-1.62,2.89-3.083,4.774-4.572c1.882-1.501,3.927-3.108,5.556-5.261
								c0.833-1.057,1.491-2.2,1.697-3.472c0.208-1.258,0.009-2.592-0.63-3.868c-0.619-1.278-1.541-2.505-2.625-3.664
								c-0.548-0.578-1.116-1.153-1.729-1.714c-0.602-0.576-1.272-1.205-1.887-1.838c-2.477-2.572-4.722-5.521-6.643-8.754
								c-3.864-6.461-6.218-13.32-7.389-19.691c-1.178-6.383-1.138-12.301-0.365-17.127c0.753-4.844,2.265-8.549,3.494-10.953
								c0.643-1.195,1.168-2.103,1.578-2.687c0.392-0.591,0.598-0.902,0.598-0.902s-0.172,0.331-0.499,0.961
								c-0.345,0.618-0.775,1.571-1.297,2.803c-0.989,2.481-2.144,6.209-2.546,10.944c-0.422,4.722-0.126,10.412,1.249,16.511
								c1.368,6.088,3.787,12.608,7.472,18.767c1.832,3.083,3.928,5.897,6.205,8.366c0.578,0.621,1.148,1.182,1.76,1.796
								c0.625,0.605,1.226,1.245,1.803,1.895c1.147,1.309,2.175,2.747,2.881,4.367c0.729,1.599,0.968,3.494,0.586,5.193
								c-0.365,1.71-1.324,3.125-2.296,4.225c-1.937,2.275-4.204,3.815-6.173,5.179c-1.986,1.355-3.716,2.608-4.911,4.025
								c-1.194,1.402-1.929,2.875-2.229,4.165c-0.343,1.275-0.457,2.322-0.473,3.026C550.359,424.479,550.34,424.852,550.34,424.852
								z"/>
						</g>
					</g>
				</g>
				<path fill-rule="evenodd" clip-rule="evenodd" d="M544.141,359.895c2.798,1.023,4.621,4.276,7.905,5.38
					c3.677,1.235,7.856,1.168,11.876,1.412c7.717,0.47,16.314,1.298,22.994-2.458c-9.004,8.73-30.65,5.771-41.551,2.501
					c1.914,5.984,4.541,8.866,10.865,9.715c5.493,0.738,14.422,1.497,19.096-1.448c-5.521,5.692-17.745,3.353-25.251,3.853
					c3.81,6.524,7.3,8.954,15.323,8.206c5.486-0.51,12.819-2.391,17.448-5.793c-4.247,8.482-18.442,4.27-23.907,9.863
					c3.685,2.012,4.377,6.879,8.821,7.742c4.103,0.797,10.547,0.131,12.718-3.732c-3.104,7.857-10.938,3.449-15.448,8.385
					c-6.44,7.045,5.005,9.795,10.067,7.367c0.11-0.104,0.107-0.109-0.009-0.016c-2.219,2.678-6.224,4.666-10.001,3.66
					c-3.32-0.883-5.577-4.764-9.33-1.463c5.613-3.889,14.534-11.232,7.359-18.416c-5.42-5.424-11.315-10.01-14.623-17.266
					c-2.551-5.597-3.188-11.215-4.354-17.199"/>
				<g>
					<g>
						<g>
							<path d="M580.457,346.313c0,0,0,0.414,0,1.16c-0.049,0.747-0.225,1.85-0.679,3.13c-0.434,1.291-1.137,2.76-2.154,4.265
								c-0.265,0.37-0.532,0.753-0.823,1.134c-0.324,0.362-0.654,0.731-0.991,1.107c-0.735,0.708-1.548,1.387-2.446,1.978
								c-1.885,1.214-4.01,1.701-5.837,1.8c-1.841,0.085-3.434-0.13-4.741-0.356c-1.308-0.233-2.343-0.481-3.062-0.653
								c-0.717-0.179-1.115-0.279-1.115-0.279s0.408-0.049,1.144-0.139c0.735-0.078,1.803-0.163,3.098-0.266
								c2.574-0.229,6.138-0.449,9.077-2.365c1.523-1.016,2.838-2.1,3.925-3.359c1.104-1.208,2.034-2.399,2.727-3.456
								c0.714-1.049,1.185-1.974,1.473-2.636C580.311,346.693,580.457,346.313,580.457,346.313z"/>
						</g>
					</g>
				</g>
				<g>
					<g>
						<g>
							<path d="M575.438,309.995c0,0,0.278,0.725,0.782,2.035c0.244,0.662,0.591,1.466,0.77,2.458
								c0.11,0.494,0.23,1.021,0.355,1.581c0.062,0.282,0.125,0.572,0.19,0.869c0.046,0.3,0.06,0.611,0.091,0.929
								c0.084,1.273,0.302,2.686,0.132,4.198c-0.057,0.756-0.068,1.55-0.179,2.352c-0.16,0.796-0.325,1.616-0.494,2.457
								c-0.84,3.303-2.274,6.913-4.62,10.078c-2.235,3.242-4.923,5.962-7.651,7.971c-2.744,1.985-5.356,3.518-7.629,4.604
								c-1.12,0.578-2.159,1.04-3.069,1.447c-0.908,0.413-1.697,0.749-2.347,1.014c-1.299,0.528-2.018,0.821-2.018,0.821
								s0.649-0.424,1.822-1.19c0.587-0.381,1.304-0.847,2.137-1.388c0.83-0.542,1.782-1.146,2.799-1.858
								c2.079-1.36,4.43-3.129,6.885-5.205c2.44-2.103,4.778-4.711,6.869-7.735c2.206-2.971,3.625-6.167,4.648-9.161
								c0.222-0.763,0.438-1.506,0.648-2.229c0.171-0.732,0.249-1.46,0.38-2.159c0.315-1.397,0.266-2.728,0.352-3.948
								c0.011-0.305,0.041-0.605,0.037-0.895c-0.021-0.29-0.042-0.572-0.062-0.846c-0.038-0.553-0.074-1.074-0.108-1.561
								c-0.02-0.989-0.22-1.812-0.34-2.496C575.572,310.758,575.438,309.995,575.438,309.995z"/>
						</g>
					</g>
				</g>
				<g>
					<g>
						<g>
							<path d="M561.266,313.832c0,0-0.089,0.155-0.247,0.431c-0.149,0.282-0.41,0.596-0.642,1.066
								c-0.521,0.881-1.098,2.057-1.832,3.238c-0.673,1.213-1.391,2.264-1.852,3.159c-0.276,0.438-0.373,0.826-0.527,1.106
								c-0.138,0.288-0.216,0.449-0.216,0.449s-0.081-0.148-0.202-0.44c-0.097-0.287-0.335-0.744-0.379-1.309
								c-0.188-1.142,0.012-2.802,0.869-4.32c0.911-1.482,2.219-2.45,3.263-2.895c0.496-0.256,0.99-0.324,1.285-0.402
								C561.095,313.852,561.266,313.832,561.266,313.832z"/>
						</g>
					</g>
				</g>
				<g>
					<g>
						<g>
							<path d="M572.484,445.816c0,0,0.086,0.112,0.25,0.327c0.146,0.224,0.449,0.52,0.674,0.99c0.563,0.892,1.1,2.357,1.367,4.246
								c0.25,1.886,0.213,4.197-0.377,6.66c-0.583,2.456-1.594,5.126-3.58,7.503c-1.005,1.197-2.278,2.125-3.513,2.779
								c-1.252,0.66-2.515,1.148-3.751,1.478c-2.475,0.652-4.835,0.699-6.736,0.308c-1.915-0.378-3.294-1.286-4.008-2.058
								c-0.405-0.339-0.592-0.724-0.76-0.933c-0.153-0.222-0.234-0.338-0.234-0.338s0.11,0.091,0.32,0.263
								c0.221,0.157,0.476,0.46,0.933,0.68c0.828,0.538,2.19,1.04,3.914,1.058c1.716,0.032,3.767-0.328,5.885-1.13
								c2.085-0.829,4.374-2.012,5.92-3.848c1.6-1.9,2.693-4.227,3.439-6.379c0.766-2.165,1.12-4.234,1.211-5.98
								c0.075-1.744-0.1-3.194-0.414-4.145c-0.101-0.5-0.307-0.836-0.389-1.096C572.536,445.949,572.484,445.816,572.484,445.816z"
								/>
						</g>
					</g>
				</g>
				<path fill-rule="evenodd" clip-rule="evenodd" d="M580.161,436.369c-5.673,3.938-3.827,12.717-5.602,18.312
					c-1.909,6.027-5.368,12.857-12.371,13.949c-0.103,0.117-0.098,0.121,0.015,0.016c2.419-2.611,5.41-4.551,7.033-7.774
					c1.837-3.648,1.717-8.572,1.233-12.642c2.312-1.256,3.79-3.711,5.042-5.883c1.368-2.379,3.324-4.439,4.649-6.865"/>
			</g>
			<g>
				<g>
					<g>
						<g>
							<path d="M178.148,346.962c0,0,0.92-1.433,2.662-3.967c1.699-2.546,4.369-6.162,6.578-11.049
								c0.493-1.233,1.041-2.517,1.356-3.896c0.319-1.389,0.52-2.845,0.465-4.318c-0.049-2.965-1.408-5.871-3.479-8.659
								c-0.51-0.697-1.064-1.396-1.669-2.137c-0.296-0.402-0.591-0.898-0.882-1.354c-0.267-0.476-0.482-0.978-0.721-1.475
								c-0.808-2.043-1.045-4.69,0.054-6.968c1.027-2.308,3.073-3.92,5.226-4.868c1.092-0.442,2.237-0.789,3.379-0.948l0.857-0.124
								c0.297-0.026,0.606-0.034,0.909-0.05c0.616-0.053,1.207,0.011,1.805,0.06c2.372,0.249,4.486,0.983,6.461,1.822
								c1.972,0.853,3.818,1.833,5.546,2.9c3.481,2.105,6.56,4.473,9.396,6.82c5.649,4.725,10.214,9.518,13.791,13.743
								c3.564,4.24,6.121,7.94,7.625,10.649c0.771,1.343,1.254,2.447,1.572,3.193c0.274,0.764,0.418,1.165,0.418,1.165
								s-0.192-0.378-0.558-1.099c-0.405-0.699-1.006-1.723-1.908-2.957c-1.766-2.49-4.642-5.861-8.479-9.733
								c-3.849-3.856-8.653-8.246-14.357-12.58c-2.857-2.149-5.923-4.327-9.256-6.229c-1.657-0.968-3.391-1.842-5.173-2.584
								c-1.777-0.734-3.635-1.336-5.438-1.52c-1.725-0.175-3.617,0.122-5.196,0.756c-1.559,0.671-2.874,1.719-3.493,3.049
								c-0.678,1.303-0.616,2.855-0.121,4.337c0.168,0.361,0.307,0.739,0.484,1.089c0.21,0.34,0.366,0.665,0.603,1.023
								c0.541,0.722,1.097,1.488,1.623,2.282c1.044,1.577,1.966,3.245,2.592,5.014c0.641,1.761,0.912,3.626,0.855,5.379
								c-0.052,1.758-0.405,3.398-0.87,4.898c-0.47,1.519-1.165,2.846-1.796,4.111c-2.748,4.94-5.782,8.248-7.751,10.602
								C179.256,345.671,178.148,346.962,178.148,346.962z"/>
						</g>
					</g>
				</g>
				<g>
					<g>
						<g>
							<path d="M192.592,426.463c0,0,0.581-1.254,1.633-3.521c0.254-0.567,0.538-1.199,0.848-1.89
								c0.284-0.697,0.592-1.455,0.923-2.27c0.275-0.825,0.57-1.708,0.883-2.643c0.112-0.476,0.227-0.965,0.346-1.467
								c0.115-0.501,0.266-1.007,0.303-1.544c0.065-0.53,0.131-1.073,0.2-1.628c0.094-0.551,0.017-1.126,0.037-1.702
								c0.066-1.153-0.154-2.353-0.317-3.585c-0.391-2.417-1.429-4.784-3.009-7.091c-1.566-2.309-3.594-4.522-5.822-6.764
								c-0.56-0.571-1.124-1.133-1.688-1.619l-0.847-0.771l-0.929-0.725c-1.227-0.983-2.6-1.898-3.995-2.861
								c-2.792-1.904-5.704-3.914-7.976-6.585c-2.261-2.619-3.832-5.702-4.551-8.826c-0.685-3.14-0.572-6.226,0.083-8.915
								c0.633-2.701,1.674-5.041,2.79-7.041c2.258-4.002,4.744-6.717,6.472-8.53c0.874-0.903,1.574-1.578,2.061-2.024
								c0.484-0.446,0.739-0.681,0.739-0.681s-0.215,0.27-0.626,0.786c-0.413,0.511-1.007,1.279-1.744,2.282
								c-1.455,2.007-3.543,4.975-5.287,8.969c-0.862,1.992-1.614,4.247-1.983,6.701c-0.393,2.449-0.276,5.105,0.444,7.697
								c0.76,2.59,2.186,5.112,4.19,7.296c1.97,2.188,4.604,3.976,7.427,5.895c1.405,0.971,2.83,1.935,4.176,3.045l1.009,0.819
								l0.955,0.903c0.656,0.601,1.221,1.199,1.768,1.792c2.221,2.379,4.3,4.847,5.901,7.523c1.613,2.648,2.674,5.609,2.887,8.417
								c0.075,1.38,0.191,2.702,0.009,3.984c-0.078,0.636-0.062,1.269-0.219,1.863c-0.133,0.595-0.264,1.177-0.391,1.746
								c-0.102,0.573-0.317,1.099-0.495,1.617c-0.183,0.516-0.361,1.018-0.534,1.506c-0.426,0.938-0.834,1.816-1.227,2.626
								c-0.438,0.783-0.844,1.512-1.219,2.183c-0.39,0.659-0.768,1.245-1.098,1.778
								C193.381,425.327,192.592,426.463,192.592,426.463z"/>
						</g>
					</g>
				</g>
				<g>
					<path d="M216.622,455.604c-1.06,0.61-2.258,1.225-3.617,1.765c-0.384,0.145-0.778,0.295-1.181,0.448
						c-0.407,0.134-0.835,0.228-1.261,0.351c-0.84,0.28-1.783,0.348-2.719,0.517c-1.938,0.271-3.981,0.338-6.126,0.158
						c-4.246-0.364-8.979-1.695-12.628-4.682c-1.806-1.478-3.193-3.337-4.008-5.309c-0.794-1.953-0.95-4.108-0.675-6.128
						c0.575-4.089,2.741-7.609,4.513-10.465c1.845-2.858,3.457-5.155,4.477-6.798c0.52-0.815,0.9-1.463,1.148-1.909
						c0.251-0.441,0.382-0.674,0.382-0.674s-0.175,0.201-0.509,0.585c-0.327,0.388-0.819,0.948-1.47,1.657
						c-1.285,1.433-3.226,3.416-5.481,6.071c-1.114,1.342-2.296,2.864-3.416,4.649c-1.09,1.798-2.109,3.897-2.639,6.344
						c-0.522,2.429-0.516,5.216,0.441,7.886c0.961,2.64,2.699,5.033,4.945,6.875c2.243,1.847,4.8,3.061,7.327,3.825
						c2.536,0.763,5.063,1.088,7.458,1.112c2.393,0.023,4.678-0.269,6.705-0.773c1.028-0.293,2.033-0.489,2.942-0.908
						c0.457-0.19,0.913-0.354,1.338-0.558c0.415-0.221,0.82-0.436,1.217-0.648c1.258-0.705,2.33-1.449,3.262-2.176
						C216.859,456.432,216.713,456.025,216.622,455.604z"/>
				</g>
				<g>
					<g>
						<g>
							<path d="M203.807,436.541c0,0-0.057-0.454-0.163-1.318c-0.083-0.866-0.209-2.155-0.038-3.828
								c0.114-0.831,0.309-1.763,0.747-2.712c0.434-0.949,1.137-1.888,2.073-2.677c0.933-0.797,2.071-1.444,3.325-1.985
								c1.233-0.529,2.496-1.057,3.693-1.826c1.19-0.761,2.299-1.736,3.035-3.016c0.735-1.273,1.109-2.814,1.153-4.456
								c0.084-1.625-0.258-3.24-1.006-4.816c-0.729-1.578-1.786-3.093-2.944-4.643c-1.148-1.558-2.428-3.143-3.492-5.044
								c-0.526-0.951-0.994-1.991-1.269-3.137c-0.279-1.141-0.344-2.383-0.142-3.585c0.194-1.197,0.644-2.361,1.194-3.365
								c0.301-0.51,0.609-1.025,0.933-1.529c0.378-0.457,0.744-0.943,1.145-1.376c1.626-1.723,3.501-3.018,5.088-4.461
								c3.219-2.7,4.427-6.89,4.244-10.894c-0.278-4.001-1.552-7.846-3.158-11.311c-1.606-3.482-3.481-6.677-5.165-9.728
								c-1.677-3.082-3.14-5.939-4.521-8.562c-2.746-5.249-4.683-9.668-5.713-12.822c-0.252-0.79-0.498-1.484-0.669-2.099
								c-0.154-0.619-0.285-1.143-0.391-1.566c-0.208-0.845-0.318-1.289-0.318-1.289s0.144,0.434,0.417,1.261
								c0.136,0.412,0.304,0.922,0.502,1.525c0.213,0.598,0.507,1.271,0.81,2.036c1.236,3.057,3.418,7.293,6.414,12.372
								c1.496,2.544,3.133,5.33,4.892,8.32c1.792,2.961,3.8,6.112,5.573,9.677c1.766,3.558,3.249,7.586,3.626,12.083
								c0.122,2.234-0.109,4.581-0.902,6.832c-0.406,1.121-0.915,2.216-1.611,3.229c-0.349,0.506-0.689,1.026-1.131,1.449
								l-0.63,0.669l-0.655,0.598c-1.754,1.58-3.572,2.837-4.972,4.31c-0.346,0.369-0.64,0.761-0.965,1.135l-0.774,1.242
								c-0.498,0.885-0.831,1.749-0.996,2.648c-0.344,1.789,0.158,3.609,1.062,5.298c0.896,1.696,2.093,3.28,3.217,4.894
								c1.13,1.609,2.225,3.271,2.99,5.086c0.786,1.791,1.135,3.814,0.956,5.656c-0.122,1.82-0.627,3.628-1.579,5.107
								c-0.953,1.49-2.3,2.542-3.631,3.3c-1.334,0.765-2.712,1.251-3.949,1.703c-1.214,0.444-2.316,0.992-3.213,1.671
								c-0.902,0.674-1.592,1.482-2.05,2.334c-0.463,0.852-0.709,1.724-0.874,2.518c-0.276,1.606-0.248,2.899-0.231,3.765
								C203.786,436.085,203.807,436.541,203.807,436.541z"/>
						</g>
					</g>
				</g>
				<g>
					<g>
						<g>
							<path d="M205.666,385.274c0,0-0.573-0.052-1.607-0.147c-1.004-0.221-2.567-0.525-4.156-1.733
								c-0.384-0.312-0.802-0.632-1.141-1.066c-0.389-0.395-0.688-0.883-0.999-1.396c-0.548-1.047-1.002-2.287-1.086-3.622
								c-0.251-2.666,0.537-5.605,2.078-8.141c0.754-1.282,1.696-2.477,2.733-3.421c1.035-0.948,2.104-1.725,3.123-2.417
								c2.028-1.374,3.979-2.381,4.663-3.756c0.321-0.672,0.33-1.442,0.227-2.137c-0.098-0.695-0.251-1.309-0.36-1.809
								c-0.229-1.005-0.356-1.561-0.356-1.561s0.253,0.512,0.711,1.437c0.218,0.47,0.496,1.037,0.746,1.756
								c0.244,0.703,0.46,1.661,0.16,2.734c-0.326,1.052-1.078,1.949-1.902,2.727c-0.853,0.785-1.746,1.473-2.679,2.24
								c-0.921,0.758-1.857,1.556-2.725,2.435c-0.872,0.88-1.602,1.871-2.27,2.996c-1.357,2.236-2.116,4.631-2.122,6.815
								c-0.038,1.099,0.219,2.103,0.54,3.01c0.197,0.439,0.377,0.876,0.649,1.241c0.222,0.403,0.529,0.717,0.809,1.038
								c1.171,1.253,2.542,1.847,3.457,2.269C205.129,385.092,205.666,385.274,205.666,385.274z"/>
						</g>
					</g>
				</g>
			</g>
			<path opacity="0.3" enable-background="new    " d="M577,314c-1.215,8.904,4.283,17.574-1.751,25.583
				c-5.477,7.27-13.284,8.109-20.79,10.775c5.354-2.051,11.608-7.726,15.29-12.293c5.252-6.514,4.624-13.127,6.918-20.398"/>
			<path opacity="0.3" enable-background="new    " d="M576.667,353.333c1.044-1.147,1.874-2.774,2.684-4.215
				c-0.051,8.175-7.71,15.192-15.317,10.965c4.012-1.612,9.902-1.979,12.3-6.416"/>
			<path opacity="0.3" enable-background="new    " d="M550,366.333c11.465,0,23.295,4.65,33.874-0.691
				c-5.939,2.727-10.021,5.86-16.874,6.284c-7.496,0.464-13.603-1.161-20.374-2.599c1.26,0.68,2.173,3.079,4.364,4.017
				c2.298,0.982,5.177,1.428,7.603,2.064c4.794,1.258,10.7,2.433,15.115,0.585c-6.12,2.359-11.651,3.448-17.983,5.065
				c-1.615,6.645,14.618,5.336,17.841,4.942c-2.479-0.199-6.577,1.848-7.897,4c-1.233,2.011-1.73,8.74,1.29,9.408
				c-0.908,1.496-0.693,5.34-0.958,7.258c-0.434,3.139,0.197,4.393,2.716,5.332c-1.674,0.135-5.517-0.627-6.383-2.332
				c-1.176-2.314,1.789-2.478,2.748-4.594c2.31-5.101-2.335-9.689-5.33-13.163c-5.488-6.365-10.626-13.507-13.677-21.317
				c-0.886-2.268-1.516-4.664-2.283-6.95c1.833,0.059,3.281,1.548,4.876,2.357"/>
			<path opacity="0.3" enable-background="new    " d="M221.666,365c-3.181-7.273-7.451-14.109-11.625-20.814
				c-1.15-3.651-2.728-7.462-4.729-10.694c-1.914-3.09-2.386-6.297-3.812-9.391c-1.367,1.827-1.25,3.888-1.25,6.148
				c-0.002,7.835,0.748,14.283,5.432,20.569c1.042,1.4,2.302,2.95,3.085,4.623c0.079,0.402,0.164,0.806,0.243,1.208
				c0.66,3.368-1.008,5.146-3.07,6.99c-1.338,0.927-2.685,1.873-3.208,3.105c-0.048,0.058-0.1,0.112-0.148,0.171
				c-2.836,3.509-5.414,8.277-4.583,13.083c0.772,4.472,5.415,4.24,7.667,8c2.199,3.673,1.663,9.159,0.092,13.001
				c-2.748,6.72-1.094,14.233-4.159,20.765c-2.382,5.075-6.465,13.381-0.101,17.734c0.665,0.455,4.112,0.785,5,0.667
				c-3.218-0.942-3.167-3.833-2.993-7.91c0.143-3.354,2.467-5.528,5.681-7.068c0.855-0.409,1.722-0.781,2.537-1.191
				c0.847-0.311,1.635-0.629,2.275-0.999c3.477-2.014,5.435-6.667,4.5-10.665c-1.714-7.328-13.582-15.913-6.167-23.834
				c2.984-3.189,5.79-4.812,8.333-8.333C223.22,376.631,223.226,368.565,221.666,365z"/>
			<g opacity="0.3">
				<g>
					<g>
						<path fill="#FFFFFF" d="M185.499,347.75c0,0-0.263,0.476-0.738,1.334c-0.249,0.417-0.531,0.94-0.843,1.549
							c-0.327,0.599-0.689,1.28-1.031,2.051c-0.753,1.505-1.439,3.352-1.936,5.373c-0.554,2.038-0.579,4.234-0.449,6.653
							c0.195,2.43,0.612,4.701,1.282,6.667c0.649,1.976,1.592,3.613,2.593,4.875c1.005,1.261,2.075,2.118,2.852,2.681
							c0.817,0.526,1.27,0.818,1.27,0.818s-0.535-0.056-1.519-0.265c-0.962-0.25-2.386-0.725-3.92-1.807
							c-1.52-1.072-3.127-2.764-4.276-4.982c-1.175-2.205-1.932-4.871-2.154-7.683c-0.178-2.814,0.172-5.712,1.206-7.975
							c0.969-2.288,2.219-4.105,3.431-5.428c0.578-0.688,1.156-1.25,1.676-1.728c0.507-0.489,0.961-0.886,1.353-1.19
							C185.071,348.086,185.499,347.75,185.499,347.75z"/>
					</g>
				</g>
			</g>
			<g opacity="0.3">
				<g>
					<g>
						<path fill="#FFFFFF" d="M228.75,334.5c0,0-0.387-0.55-1.087-1.544c-0.335-0.5-0.745-1.104-1.293-1.758
							c-0.539-0.658-1.078-1.443-1.811-2.215c-0.696-0.795-1.446-1.662-2.333-2.526c-0.833-0.902-1.822-1.783-2.814-2.74
							c-2.055-1.866-4.362-3.835-6.859-5.935c-2.473-2.151-4.731-4.143-6.921-5.798c-2.177-1.658-4.257-2.971-6.132-3.863
							c-1.868-0.901-3.503-1.439-4.666-1.72c-0.579-0.165-1.041-0.222-1.354-0.299C193.165,306.035,193,306,193,306
							s0.167-0.022,0.484-0.064c0.318-0.029,0.793-0.124,1.408-0.138c1.23-0.077,3.048-0.01,5.246,0.49
							c2.2,0.489,4.733,1.481,7.297,2.961c2.567,1.465,5.167,3.429,7.643,5.583c2.525,2.123,4.814,4.4,6.707,6.625
							c0.92,1.145,1.797,2.221,2.503,3.328c0.755,1.061,1.35,2.128,1.875,3.103c0.561,0.95,0.916,1.901,1.272,2.696
							c0.365,0.792,0.595,1.512,0.771,2.101C228.557,333.853,228.75,334.5,228.75,334.5z"/>
					</g>
				</g>
			</g>
			<g opacity="0.3">
				<g>
					<g>
						<path fill="#FFFFFF" d="M208.5,455.75c0,0-0.07,0.051-0.203,0.147c-0.135,0.097-0.338,0.24-0.62,0.387
							c-0.558,0.307-1.432,0.668-2.565,0.89c-2.249,0.452-5.554,0.364-8.777-1.155c-1.601-0.758-3.01-1.8-4.066-3.01
							c-1.071-1.186-1.738-2.579-1.996-3.779c-0.256-1.218-0.103-2.21,0.101-2.82c0.075-0.31,0.209-0.533,0.269-0.684
							c0.071-0.147,0.108-0.226,0.108-0.226s0.02,0.085,0.057,0.246c0.046,0.159,0.065,0.39,0.173,0.671
							c0.159,0.564,0.499,1.318,1.077,2.047c1.151,1.48,3.307,2.814,5.937,4.044c2.623,1.239,5.187,2.207,7.149,2.724
							c0.981,0.263,1.813,0.401,2.408,0.459c0.3,0.036,0.534,0.042,0.697,0.048C208.413,455.745,208.5,455.75,208.5,455.75z"/>
					</g>
				</g>
			</g>
		</g>
	</g>
</g>
</svg>
