<?xml version="1.0" encoding="utf-8"?>
<!-- Generator: Adobe Illustrator 25.0.1, SVG Export Plug-In . SVG Version: 6.00 Build 0)  -->
<svg version="1.1" id="Capa_1" xmlns="http://www.w3.org/2000/svg" xmlns:xlink="http://www.w3.org/1999/xlink" x="0px" y="0px"
	 viewBox="0 0 800 800" style="enable-background:new 0 0 800 800;" xml:space="preserve">
<style type="text/css">
	.st0{fill:#DDBF92;}
	.st1{opacity:0.3;}
	.st2{fill:#FFFFFF;}
	.st3{opacity:0.3;enable-background:new    ;}
	.st4{opacity:0.6;fill:#CC1717;enable-background:new    ;}
	.st5{fill-rule:evenodd;clip-rule:evenodd;}
	.st6{opacity:0.2;enable-background:new    ;}
	.st7{opacity:0.5;enable-background:new    ;}
</style>
<g id="cara_base">
	<g id="tono_1_copia_2">
		<g id="Capa_81_copia_2">
			<path class="st0" d="M535.5,354c3.2-1.9,4.4-8.7,5-12c1-5.6,1.6-8.9,4.5-14c4.4-7.9,13.8-11.6,18.1-19.4
				c6.9-1.4,12.8,5.9,12.9,11.9c0.1,7.8-5.2,14.1-4,22c0.9,5.7,5.4,11.9,8.6,16.9c4.3,6.7,6.1,12.1,7.4,19.7
				c2.7,16.1-2,26.9-16.1,35.3c-5.6,3.4-8.8,7.3-8.4,14.6c0.4,6.9,2.3,12.9,3.5,19.5c1.7,9.2-0.8,14.2-9.1,16.9
				c-12.2,4.1-7.3-5.6-9.4-12.9c-2-6.9-4.3-12.5-5-20c-0.7-7.7-0.6-16.3-1-24c-0.5-10.2,0.1-18.7-3-28c-2.8-8.5-4.5-16.3-4.5-26"/>
			<path class="st0" d="M236.5,354.8c-2.3-5.9-2.1-13.8-5.5-19.2c-3.2-5.2-9.7-7-14.5-10.6c-4.9-3.8-9.1-9.8-15-11.4
				c-9.5-2.6-9.2,6.7-11.5,11.5c-2.8,5.8-4.5,12.1-8.1,17.9c-2.1,5.9-7.1,11.3-9.8,17.7c-5.8,14.2,2.9,25.5,11,36.8
				c4.1,5.7,8.2,8.9,9,16c1.1,9.2-2.2,12.5-5.2,20.5c-2,5.4-4,16.3,0.1,21.1c5,5.7,10,7.9,16.5,6c4.7-1.4,10.4-4,13.5-8.2
				c-1.1-0.3,1.2-2.5,0.1-2.8c-1.2-13.3,7.7-27.7,11.4-39.9c4.5-14.7,5.4-28.8,6.9-44.6c0.4-4.2,0-7.2,0.3-11.5"/>
			<path d="M559.6,498.6c-0.5-5.3-1.4-10.1-2.5-14.4c-2.1-8.7-4.4-15.5-6-20.2c0-0.1-0.1-0.2-0.1-0.4c-0.1-0.8-0.3-1.6-0.4-2.4
				c-0.1-0.8-0.1-1.7-0.2-2.6c-0.1-0.9-0.1-1.9-0.2-2.9c0-1-0.2-2.1-0.3-3.1c-0.7-4.4-2.8-8.4-3.7-12.6c-0.9-4.3-1.1-9.1-1.3-14.2
				c-0.1-1.3-0.2-2.6-0.3-3.8c-0.1-1.3-0.1-2.5-0.2-3.8c-0.1-2.6-0.1-5.2-0.1-7.8c-0.1-6.9-0.1-13.8-1-20.5
				c-0.1-1.7-0.5-3.3-0.8-4.9c-0.1-0.8-0.3-1.6-0.5-2.4c-0.2-0.8-0.4-1.6-0.6-2.4c-0.9-3.1-2.1-6-3-8.8c-0.5-1.4-0.8-2.8-1.1-4.1
				c-0.1-0.7-0.2-1.4-0.3-2c0-0.7-0.1-1.4-0.1-2.1c-0.2-2.8-0.1-5.5-0.1-8.2c-0.1-5.4-0.2-10.4-0.6-15c-0.1-1.1-0.2-2.3-0.3-3.3
				c-0.2-1.1-0.3-2.1-0.5-3.2c-0.1-0.5-0.1-1-0.2-1.5c-0.1-0.5-0.2-1-0.3-1.5c-0.1-0.5-0.2-1-0.3-1.4c-0.1-0.5-0.3-0.9-0.4-1.3
				c-0.1-0.3-0.2-0.5-0.2-0.8c-0.2-1.8-0.5-3.6-0.7-5.4c-0.3-1.9-0.5-3.9-1-6c-1.4-8.1-3.9-16.9-7.6-25.9c-3.6-9-8.7-18.2-15.2-27.1
				c-6.5-8.8-14.4-17.3-23.4-25.1c-9.1-7.7-19.8-14.4-31.6-19.2c-5.9-2.4-12-4.2-18-5.5c-6.1-1.3-12.2-1.9-18.1-2.3
				c-11.9-0.7-23.4-0.2-34.2,0.4c-5.4,0.3-10.7,0.6-15.8,0.8c-5.1,0.2-10.2,0.5-15,1.1c-9.7,1.2-18.6,3.4-26.2,6.5
				c-1.9,0.8-3.8,1.5-5.6,2.4c-1.8,0.9-3.5,1.7-5.2,2.5c-2,1.1-4,2.2-5.9,3.2c-4.9,2.4-10.3,5.4-15.9,9c-6.1,3.9-12.5,8.7-18.8,14.4
				c-6.4,5.7-12.5,12.6-18,20.5c-0.7,1-1.4,2-2,3c-0.7,1-1.3,2.1-2,3.1c-1.2,2.2-2.5,4.3-3.6,6.6c-2.4,4.5-4.3,9.3-6.1,14.2
				c-3.5,9.9-5.6,20.7-7,31.7c-1.4,11-2,21.7-2.7,32.1c-0.7,10.3-1.6,20.2-3.1,29.5c-0.4,2.3-0.7,4.6-1.3,6.9
				c-0.5,2.2-0.9,4.5-1.5,6.6c-0.3,1.1-0.6,2.1-0.9,3.2c-0.3,1-0.7,2.1-1,3.1c-0.6,2.1-1.4,4.1-2.1,6c-2.8,7.4-5.4,14.4-6.8,21.2
				c-0.3,1-0.5,2.1-0.8,3.1c-0.6,2.6-0.8,5.3-0.7,7.8c0,1,0.1,1.9,0.2,2.8c0.1,2.6,0.3,5,0.6,7.3c0.2,1.3,0.3,2.5,0.5,3.7
				c0,3.9-0.2,7.2,0.2,9.6v0c-0.1,0.7-0.1,1.5,0,2.3c0.1,0.8,0.7,2.7,1.5,3.6c0,0.1,0,0.2,0,0.2c-1.2,8.4-1.2,17.5,0.6,26.6
				c1.8,9.1,5.8,18.2,11.3,26.3c2.7,4.1,5.8,7.9,8.9,11.4c1.6,1.7,3.1,3.5,4.7,5.2c1.6,1.7,3.2,3.3,4.8,5
				c6.4,6.5,12.9,12.4,18.9,18.1c0.9,0.9,1.8,1.7,2.7,2.6c0.9,1,1.9,2,2.9,3c3.8,3.9,8.2,8.3,13.2,13c0.8,0.8,1.7,1.6,2.5,2.5
				c3.5,3.6,6.8,7,9.9,10.2c4.4,4.5,8.4,8.6,11.9,12.2c2.9,3.2,5.8,6.6,8.8,10c5.9,6.9,12.2,14.1,19.5,21
				c7.3,6.8,15.8,13.2,25.8,17.3c5,2,10.2,3.4,15.4,4.1c5.2,0.7,10.4,0.8,15.4,0.5c10.1-0.5,19.7-3,28.1-6.9
				c8.4-3.8,15.7-8.9,21.9-14.1c3.1-2.6,6-5.3,8.7-7.9c2.7-2.6,5.2-5.3,7.5-7.8c4.6-5.1,8.6-9.9,12.1-14.1c3.5-4.2,6.4-7.9,8.9-10.8
				c0.2-0.2,0.4-0.5,0.6-0.7c0.9-1,1.8-2,2.8-3.1c1.4-1.5,2.8-3,4.3-4.6c6.1-6.4,13.4-13.9,22-21.8c8.6-7.9,18.3-16.4,27.4-26.7
				c1.1-1.3,2.3-2.5,3.3-3.8c1-1.3,2.1-2.6,3.1-3.9c2-2.6,4.1-5.2,5.8-8.1c3.4-5.7,5.5-11.8,6.5-17.7
				C560.2,509.6,560.1,503.9,559.6,498.6z M555.9,515c-1.1,5.6-3.2,11.2-6.5,16.4c-1.6,2.6-3.6,5.1-5.6,7.6c-1,1.3-2,2.6-3.1,3.8
				c-1.1,1.3-2.2,2.5-3.3,3.7c-8.8,10-18.4,18.6-26.7,26.9c-8.4,8.2-15.5,16.1-21.2,22.9c-1.4,1.7-2.8,3.3-4,4.9
				c-1.2,1.6-2.4,3-3.5,4.4c-2.2,2.8-4,5.2-5.5,7.1c-0.1,0.2-0.2,0.3-0.3,0.4c-0.8,0.9-1.7,1.9-2.6,2.9c-3.6,4.1-7.8,8.7-12.6,13.5
				c-2.4,2.4-4.9,5-7.7,7.5c-2.7,2.5-5.6,5.1-8.8,7.6c-6.2,5-13.4,9.7-21.6,13.2c-8.2,3.5-17.3,5.8-27,6.2
				c-4.8,0.3-9.7,0.1-14.6-0.6c-4.9-0.7-9.8-2-14.5-3.9c-9.4-3.8-17.6-9.9-24.7-16.5c-7.2-6.6-13.5-13.7-19.6-20.4
				c-6.1-6.7-11.9-13.2-17.7-18.8c-2.9-2.8-5.8-5.5-8.5-8c-0.8-0.8-1.7-1.5-2.5-2.3c-2.2-2.4-4.5-5-6.9-7.6
				c-2.5-2.8-5.1-5.5-7.9-8.4c-2.8-2.8-5.6-5.7-8.6-8.6c-5.9-5.9-12.3-11.9-18.6-18.3c-1.5-1.6-3.1-3.3-4.7-4.9
				c-1.6-1.7-3.1-3.4-4.6-5.1c-3.1-3.5-5.9-7.1-8.6-11c-5.3-7.8-9-16.3-10.8-24.9c-1.9-8.6-2-17.3-1-25.4c2-16.3,9.2-29.8,16.8-39.6
				c3.8-4.9,8.1-8.6,12-11.8c3.9-3.1,7.4-5.6,10.3-7.6c5.8-4,9-6.2,9-6.2s-3.3,2-9.3,5.7c-3,1.9-6.6,4.2-10.7,7.2
				c-4,3-8.6,6.6-12.7,11.5c-4.1,4.9-8,10.7-11.3,17.5c-2.6,5.2-4.6,11-6.1,17.2c-0.1-0.2-0.3-0.3-0.5-0.5c-0.3-2.4-0.6-5.1-1-8.1
				c0-0.6,0-1.1,0-1.7c0-1-0.1-2.1-0.2-3.2c-0.2-1.1-0.3-2.2-0.5-3.3c0-0.1,0-0.3-0.1-0.4c-0.2-4.8,0-10.1,1.3-15.7
				c1.5-6.9,4.5-14.2,7.7-22c0.8-2,1.6-4,2.3-6.1c0.4-1,0.8-2.1,1.1-3.1c0.3-1.1,0.7-2.2,1-3.3c0.7-2.2,1.2-4.5,1.7-6.7
				c0.6-2.3,1-4.6,1.4-7c1.7-9.5,2.8-19.5,3.6-29.8c0.8-10.3,1.5-21,2.9-31.9c1.4-10.8,3.3-21.3,6.6-30.9c1.7-4.8,3.5-9.5,5.7-13.9
				c1-2.2,2.3-4.3,3.4-6.4c0.6-1,1.2-2,1.9-3.1c0.6-1,1.2-2,1.9-3c5.2-7.8,11.1-14.6,17.1-20.4c6.1-5.8,12.2-10.7,18.1-14.8
				c1.1-0.8,2.2-1.5,3.4-2.3c0.4-0.2,0.7-0.5,1.1-0.7c1.2-0.7,2.4-1.5,3.7-2.3c1.3-0.8,2.7-1.5,4.1-2.3c2.8-1.7,5.9-3.2,9.2-4.8
				c1.7-0.7,3.4-1.5,5.2-2.3c1.8-0.8,3.7-1.4,5.5-2.2c7.6-2.8,16.4-4.8,25.8-5.7c4.8-0.4,9.7-0.6,14.8-0.7
				c5.1-0.1,10.4-0.3,15.9-0.5c10.8-0.4,22.2-0.7,33.8,0.1c5.8,0.5,11.7,1.1,17.6,2.4c5.8,1.3,11.7,3,17.4,5.3
				c11.4,4.6,21.7,11,30.7,18.4c8.9,7.5,16.7,15.7,23.2,24.2c6.5,8.5,11.7,17.4,15.4,26.1c3.8,8.8,6.5,17.2,8.1,25.2
				c0.1,0.9,0.4,1.9,0.6,3.1c0.2,0.9-0.2,1.8,0.8,2.8c0,0,0,0,0,0c0,1.9,0.5,3.8,0.8,5.6c0.4,3.7,0.9,7.1,1.2,10.3
				c0.2,2.6,0.4,5,0.6,7.3c0,3.1-0.1,6.5-0.2,9.9c-0.1,2.6-0.3,5.4-0.2,8.4c0,0.7,0,1.5,0.1,2.2c0.1,0.8,0.1,1.5,0.2,2.3
				c0.2,1.5,0.6,3.1,1,4.6c0.9,3,2,5.9,2.7,8.8c0.2,0.7,0.4,1.5,0.5,2.2c0.2,0.7,0.3,1.5,0.4,2.3c0.2,1.6,0.5,3.1,0.7,4.7
				c0.7,6.4,0.7,13.1,0.8,20.1c0,2.7,0.1,5.3,0.2,8c0.1,1.3,0.1,2.7,0.2,3.9c0.1,1.3,0.2,2.5,0.3,3.8c0.3,5,0.5,10,1.7,14.8
				c0.6,2.4,1.5,4.6,2.2,6.6c0.4,1,0.7,2,1.1,3c0.2,0.5,0.3,0.9,0.4,1.4c0.1,0.5,0.3,0.9,0.3,1.4c0.6,3.7,0.6,7.7,1.6,11.2
				c0,0,0-0.1,0-0.1c0.5,1.8,0.9,3.5,1.3,5.2c0.5,1.7,1.1,3.3,1.6,4.8c0.5,1.6,1,3,1.5,4.5c0.3,0.7,0.5,1.4,0.7,2.1
				c0.2,0.7,0.4,1.4,0.6,2.1c0.7,2.1,1.2,4.1,1.7,6c0.5,3.1,0.8,6.4,1,9.9C557.3,503.9,557,509.4,555.9,515z"/>
			<g class="st1">
				<g>
					<g>
						<path d="M410.5,615c0,0-0.7,0-1.9-0.1c-1.2-0.1-2.9-0.1-4.9-0.1c-1,0-2.1,0-3.2,0.1c-0.6,0-1.2,0-1.8,0.1
							c-0.6,0-1.2,0.1-1.9,0.1c-2.5,0.1-5.3,0.3-8.3,0.5c-6,0.3-11.7,0-15.9-0.8c-2.1-0.4-3.8-0.8-4.9-1.1c-1.2-0.3-1.8-0.6-1.8-0.6
							s0.6-0.3,1.8-0.6c1.1-0.4,2.7-0.9,4.7-1.5c4-1.2,9.4-2.8,15.8-3.1c3.2-0.1,6.4,0.2,9.2,0.8c0.7,0.2,1.4,0.3,2,0.5
							c0.7,0.2,1.3,0.4,1.9,0.6c1.2,0.4,2.3,0.9,3.3,1.4c1.9,1,3.4,2,4.3,2.8C410,614.6,410.5,615,410.5,615z"/>
					</g>
				</g>
			</g>
			<g class="st1">
				<g>
					<g>
						<path class="st2" d="M443,635c0,0-0.1,0.6-0.5,1.7c-0.1,0.3-0.2,0.6-0.3,0.9c-0.1,0.3-0.3,0.7-0.5,1c-0.2,0.4-0.4,0.8-0.6,1.2
							c-0.2,0.4-0.5,0.8-0.8,1.3c-1.1,1.8-2.8,3.7-4.8,5.6c-2.1,1.8-4.6,3.5-7.5,4.8c-5.7,2.6-11.4,3.2-15.5,3.1
							c-1,0-1.9-0.1-2.7-0.1c-0.8-0.1-1.5-0.1-2.1-0.2c-1.1-0.2-1.8-0.3-1.8-0.3s0.6-0.3,1.5-0.9c0.5-0.3,1.1-0.6,1.8-1
							c0.7-0.4,1.5-0.8,2.3-1.2c3.5-1.8,8.1-4.1,13.1-6.4c2.5-1.1,4.9-2.2,7.1-3.2c2.1-1,4.1-2,5.8-2.9c0.4-0.2,0.8-0.4,1.2-0.7
							c0.4-0.2,0.7-0.4,1-0.6c0.3-0.2,0.6-0.4,0.9-0.6c0.3-0.2,0.5-0.4,0.7-0.5C442.4,635.4,443,635,443,635z"/>
					</g>
				</g>
			</g>
			<g class="st1">
				<g>
					<g>
						<path class="st2" d="M234,473c0,0,0,0.8,0,2.3c0,0.4,0,0.8,0,1.2c0,0.4,0,0.9,0,1.4c0,1,0,2.2,0.1,3.4c0,0.6,0.1,1.3,0.1,2
							c0,0.7,0.1,1.4,0.2,2.1c0.1,1.4,0.3,3,0.4,4.6c0.4,3.2,0.9,6.6,1.6,10.3c0.7,3.6,1.4,7.1,2.1,10.2c0.4,1.6,0.7,3.1,1.1,4.5
							c0.2,0.7,0.4,1.4,0.5,2.1c0.2,0.7,0.4,1.3,0.5,1.9c0.3,1.2,0.7,2.3,1,3.3c0.1,0.5,0.3,1,0.4,1.4c0.1,0.4,0.3,0.8,0.4,1.1
							c0.4,1.4,0.7,2.2,0.7,2.2s-0.6-0.5-1.7-1.6c-0.3-0.3-0.6-0.5-0.9-0.9c-0.3-0.3-0.6-0.7-1-1.1c-0.7-0.8-1.5-1.7-2.3-2.8
							c-0.4-0.5-0.8-1.1-1.2-1.7c-0.4-0.6-0.8-1.3-1.2-1.9c-0.9-1.3-1.6-2.8-2.4-4.4c-1.5-3.2-2.8-7-3.6-11
							c-0.7-4.1-0.8-8.1-0.5-11.6c0.2-1.8,0.4-3.5,0.8-5c0.2-0.8,0.3-1.5,0.6-2.2c0.2-0.7,0.4-1.4,0.7-2c0.4-1.3,0.9-2.4,1.4-3.4
							c0.2-0.5,0.4-0.9,0.6-1.3c0.2-0.4,0.4-0.8,0.6-1.1C233.5,473.7,234,473,234,473z"/>
					</g>
				</g>
			</g>
			<path class="st0" d="M553.5,474.5c-1.1-2.3-1.9-4.7-2.5-7.2c-2.6-10.8-4.6-21.9-6.6-32.9c-1.3-6.8-2.5-13.9-2.5-20.8
				c0-6.5,0.8-13.1,0.4-19.6c-0.4-6.3-1.5-12.4-2.6-18.6c-1.5-3.8-2.5-7.7-2.8-11.6c-0.4,0.5-0.9,1.1-1.3,1.6
				c0.3-16.2,0.3-31.7-3.6-46.2c-3.4-12.9-6.9-25.4-12.5-38c-2.5-5.7-5.2-11.4-9.5-16c-4.2-4.5-9-7.9-12.7-12.8
				c-1.7-2.2-3.1-5.3-5.5-7c-0.1-0.1-0.2-0.1-0.3-0.2c-0.4-0.4-0.7-0.9-1-1.2c-4.1-5.4-9.3-8.6-14.9-11.9c-5.7-3.3-10.9-7-16.9-9.6
				c-6.1-2.6-12.3-5.1-18.5-7.2c-7.2-2.5-14.7-2.8-22.7-2.8c-16.3,0-33.2-0.3-49.2,1.1c-7.5,0.6-15.6,1.1-23,2.2
				c-6.8,1-13.4,3.2-19.9,5.6c-5.8,2.1-12.6,4.5-17.8,8c-5.3,3.5-11.2,6.5-16.4,10.1c-5,3.5-9.6,7.4-14.2,11.8
				c-1.9,1.7-3.2,3.7-4.4,5.9c-0.7,0.8-1.4,1.6-2.1,2.6c-3.9,4.8-8.6,9.5-12.3,14.8c-15.7,22.3-18.6,51.5-19.9,78.5
				c-0.4,0-0.9-0.1-1.3-0.2c0,7.3-0.4,14.5-0.6,21.9c-0.2,13.2-2.4,25.6-7.6,37.8c-4.8,11.5-11.7,24.6-11.9,37.4
				c-0.1,6.6,1.5,11.9,1.6,18.4c0,1.1-0.1,1.5-0.2,2.6c0.3-0.2-0.1,1.5,0.2,1.2c2.4,3.5,1.7,7.2,1.1,10.9c-0.6,3.8-0.2,7.6,0.5,11.2
				c1.3,6.7,3.4,13.2,5.2,19.8c3.5,12.7,8.5,23.1,19.5,32c18.5,14.9,34.8,33.3,51.1,51.1c9.4,10.3,19.3,20.6,28.6,30.6
				c7.9,8.6,14.1,15.3,23.1,22.6c7.3,5.9,18.1,12.7,27.2,14.8c9.7,2.2,27.4,2.4,35.2-2.5l0.5,2c5.7-3.8,12.5-5.1,18.5-7.9
				c5.6-2.6,10-6.9,14.9-10.7c9.8-7.9,18.9-15.3,26.9-25.1c7.7-9.5,16.4-18.6,24.2-27.8c8.2-9.5,18.1-18.1,27.4-26.6
				c9-8.2,16.7-17.8,24.3-27.2C556,527.5,559,514.9,559,500C559,490.4,556.3,482.7,553.5,474.5z"/>
			<path d="M559.6,498.6c-0.5-5.3-1.4-10.1-2.5-14.4c-2.1-8.7-4.4-15.5-6-20.2c0-0.1-0.1-0.2-0.1-0.4c-0.1-0.8-0.3-1.6-0.4-2.4
				c-0.1-0.8-0.1-1.7-0.2-2.6c-0.1-0.9-0.1-1.9-0.2-2.9c0-1-0.2-2.1-0.3-3.1c-0.7-4.4-2.8-8.4-3.7-12.6c-0.9-4.3-1.1-9.1-1.3-14.2
				c-0.1-1.3-0.2-2.6-0.3-3.8c-0.1-1.3-0.1-2.5-0.2-3.8c-0.1-2.6-0.1-5.2-0.1-7.8c-0.1-6.9-0.1-13.8-1-20.5
				c-0.1-1.7-0.5-3.3-0.8-4.9c-0.1-0.8-0.3-1.6-0.5-2.4c-0.2-0.8-0.4-1.6-0.6-2.4c-0.9-3.1-2.1-6-3-8.8c-0.5-1.4-0.8-2.8-1.1-4.1
				c-0.1-0.7-0.2-1.4-0.3-2c0-0.7-0.1-1.4-0.1-2.1c-0.2-2.8-0.1-5.5-0.1-8.2c-0.1-5.4-0.2-10.4-0.6-15c-0.1-1.1-0.2-2.3-0.3-3.3
				c-0.2-1.1-0.3-2.1-0.5-3.2c-0.1-0.5-0.1-1-0.2-1.5c-0.1-0.5-0.2-1-0.3-1.5c-0.1-0.5-0.2-1-0.3-1.4c-0.1-0.5-0.3-0.9-0.4-1.3
				c-0.1-0.3-0.2-0.5-0.2-0.8c-0.2-1.8-0.5-3.6-0.7-5.4c-0.3-1.9-0.5-3.9-1-6c-1.4-8.1-3.9-16.9-7.6-25.9c-3.6-9-8.7-18.2-15.2-27.1
				c-6.5-8.8-14.4-17.3-23.4-25.1c-9.1-7.7-19.8-14.4-31.6-19.2c-5.9-2.4-12-4.2-18-5.5c-6.1-1.3-12.2-1.9-18.1-2.3
				c-11.9-0.7-23.4-0.2-34.2,0.4c-5.4,0.3-10.7,0.6-15.8,0.8c-5.1,0.2-10.2,0.5-15,1.1c-9.7,1.2-18.6,3.4-26.2,6.5
				c-1.9,0.8-3.8,1.5-5.6,2.4c-1.8,0.9-3.5,1.7-5.2,2.5c-2,1.1-4,2.2-5.9,3.2c-4.9,2.4-10.3,5.4-15.9,9c-6.1,3.9-12.5,8.7-18.8,14.4
				c-6.4,5.7-12.5,12.6-18,20.5c-0.7,1-1.4,2-2,3c-0.7,1-1.3,2.1-2,3.1c-1.2,2.2-2.5,4.3-3.6,6.6c-2.4,4.5-4.3,9.3-6.1,14.2
				c-3.5,9.9-5.6,20.7-7,31.7c-1.4,11-2,21.7-2.7,32.1c-0.7,10.3-1.6,20.2-3.1,29.5c-0.4,2.3-0.7,4.6-1.3,6.9
				c-0.5,2.2-0.9,4.5-1.5,6.6c-0.3,1.1-0.6,2.1-0.9,3.2c-0.3,1-0.7,2.1-1,3.1c-0.6,2.1-1.4,4.1-2.1,6c-2.8,7.4-5.4,14.4-6.8,21.2
				c-0.3,1-0.5,2.1-0.8,3.1c-0.6,2.6-0.8,5.3-0.7,7.8c0,1,0.1,1.9,0.2,2.8c0.1,2.6,0.3,5,0.6,7.3c0.2,1.3,0.3,2.5,0.5,3.7
				c0,3.9-0.2,7.2,0.2,9.6v0c-0.1,0.7-0.1,1.5,0,2.3c0.1,0.8,0.7,2.7,1.5,3.6c0,0.1,0,0.2,0,0.2c-1.2,8.4-1.2,17.5,0.6,26.6
				c1.8,9.1,5.8,18.2,11.3,26.3c2.7,4.1,5.8,7.9,8.9,11.4c1.6,1.7,3.1,3.5,4.7,5.2c1.6,1.7,3.2,3.3,4.8,5
				c6.4,6.5,12.9,12.4,18.9,18.1c0.9,0.9,1.8,1.7,2.7,2.6c0.9,1,1.9,2,2.9,3c3.8,3.9,8.2,8.3,13.2,13c0.8,0.8,1.7,1.6,2.5,2.5
				c3.5,3.6,6.8,7,9.9,10.2c4.4,4.5,8.4,8.6,11.9,12.2c2.9,3.2,5.8,6.6,8.8,10c5.9,6.9,12.2,14.1,19.5,21
				c7.3,6.8,15.8,13.2,25.8,17.3c5,2,10.2,3.4,15.4,4.1c5.2,0.7,10.4,0.8,15.4,0.5c10.1-0.5,19.7-3,28.1-6.9
				c8.4-3.8,15.7-8.9,21.9-14.1c3.1-2.6,6-5.3,8.7-7.9c2.7-2.6,5.2-5.3,7.5-7.8c4.6-5.1,8.6-9.9,12.1-14.1c3.5-4.2,6.4-7.9,8.9-10.8
				c0.2-0.2,0.4-0.5,0.6-0.7c0.9-1,1.8-2,2.8-3.1c1.4-1.5,2.8-3,4.3-4.6c6.1-6.4,13.4-13.9,22-21.8c8.6-7.9,18.3-16.4,27.4-26.7
				c1.1-1.3,2.3-2.5,3.3-3.8c1-1.3,2.1-2.6,3.1-3.9c2-2.6,4.1-5.2,5.8-8.1c3.4-5.7,5.5-11.8,6.5-17.7
				C560.2,509.6,560.1,503.9,559.6,498.6z M555.9,515c-1.1,5.6-3.2,11.2-6.5,16.4c-1.6,2.6-3.6,5.1-5.6,7.6c-1,1.3-2,2.6-3.1,3.8
				c-1.1,1.3-2.2,2.5-3.3,3.7c-8.8,10-18.4,18.6-26.7,26.9c-8.4,8.2-15.5,16.1-21.2,22.9c-1.4,1.7-2.8,3.3-4,4.9
				c-1.2,1.6-2.4,3-3.5,4.4c-2.2,2.8-4,5.2-5.5,7.1c-0.1,0.2-0.2,0.3-0.3,0.4c-0.8,0.9-1.7,1.9-2.6,2.9c-3.6,4.1-7.8,8.7-12.6,13.5
				c-2.4,2.4-4.9,5-7.7,7.5c-2.7,2.5-5.6,5.1-8.8,7.6c-6.2,5-13.4,9.7-21.6,13.2c-8.2,3.5-17.3,5.8-27,6.2
				c-4.8,0.3-9.7,0.1-14.6-0.6c-4.9-0.7-9.8-2-14.5-3.9c-9.4-3.8-17.6-9.9-24.7-16.5c-7.2-6.6-13.5-13.7-19.6-20.4
				c-6.1-6.7-11.9-13.2-17.7-18.8c-2.9-2.8-5.8-5.5-8.5-8c-0.8-0.8-1.7-1.5-2.5-2.3c-2.2-2.4-4.5-5-6.9-7.6
				c-2.5-2.8-5.1-5.5-7.9-8.4c-2.8-2.8-5.6-5.7-8.6-8.6c-5.9-5.9-12.3-11.9-18.6-18.3c-1.5-1.6-3.1-3.3-4.7-4.9
				c-1.6-1.7-3.1-3.4-4.6-5.1c-3.1-3.5-5.9-7.1-8.6-11c-5.3-7.8-9-16.3-10.8-24.9c-1.9-8.6-2-17.3-1-25.4c2-16.3,9.2-29.8,16.8-39.6
				c3.8-4.9,8.1-8.6,12-11.8c3.9-3.1,7.4-5.6,10.3-7.6c5.8-4,9-6.2,9-6.2s-3.3,2-9.3,5.7c-3,1.9-6.6,4.2-10.7,7.2
				c-4,3-8.6,6.6-12.7,11.5c-4.1,4.9-8,10.7-11.3,17.5c-2.6,5.2-4.6,11-6.1,17.2c-0.1-0.2-0.3-0.3-0.5-0.5c-0.3-2.4-0.6-5.1-1-8.1
				c0-0.6,0-1.1,0-1.7c0-1-0.1-2.1-0.2-3.2c-0.2-1.1-0.3-2.2-0.5-3.3c0-0.1,0-0.3-0.1-0.4c-0.2-4.8,0-10.1,1.3-15.7
				c1.5-6.9,4.5-14.2,7.7-22c0.8-2,1.6-4,2.3-6.1c0.4-1,0.8-2.1,1.1-3.1c0.3-1.1,0.7-2.2,1-3.3c0.7-2.2,1.2-4.5,1.7-6.7
				c0.6-2.3,1-4.6,1.4-7c1.7-9.5,2.8-19.5,3.6-29.8c0.8-10.3,1.5-21,2.9-31.9c1.4-10.8,3.3-21.3,6.6-30.9c1.7-4.8,3.5-9.5,5.7-13.9
				c1-2.2,2.3-4.3,3.4-6.4c0.6-1,1.2-2,1.9-3.1c0.6-1,1.2-2,1.9-3c5.2-7.8,11.1-14.6,17.1-20.4c6.1-5.8,12.2-10.7,18.1-14.8
				c1.1-0.8,2.2-1.5,3.4-2.3c0.4-0.2,0.7-0.5,1.1-0.7c1.2-0.7,2.4-1.5,3.7-2.3c1.3-0.8,2.7-1.5,4.1-2.3c2.8-1.7,5.9-3.2,9.2-4.8
				c1.7-0.7,3.4-1.5,5.2-2.3c1.8-0.8,3.7-1.4,5.5-2.2c7.6-2.8,16.4-4.8,25.8-5.7c4.8-0.4,9.7-0.6,14.8-0.7
				c5.1-0.1,10.4-0.3,15.9-0.5c10.8-0.4,22.2-0.7,33.8,0.1c5.8,0.5,11.7,1.1,17.6,2.4c5.8,1.3,11.7,3,17.4,5.3
				c11.4,4.6,21.7,11,30.7,18.4c8.9,7.5,16.7,15.7,23.2,24.2c6.5,8.5,11.7,17.4,15.4,26.1c3.8,8.8,6.5,17.2,8.1,25.2
				c0.1,0.9,0.4,1.9,0.6,3.1c0.2,0.9-0.2,1.8,0.8,2.8c0,0,0,0,0,0c0,1.9,0.5,3.8,0.8,5.6c0.4,3.7,0.9,7.1,1.2,10.3
				c0.2,2.6,0.4,5,0.6,7.3c0,3.1-0.1,6.5-0.2,9.9c-0.1,2.6-0.3,5.4-0.2,8.4c0,0.7,0,1.5,0.1,2.2c0.1,0.8,0.1,1.5,0.2,2.3
				c0.2,1.5,0.6,3.1,1,4.6c0.9,3,2,5.9,2.7,8.8c0.2,0.7,0.4,1.5,0.5,2.2c0.2,0.7,0.3,1.5,0.4,2.3c0.2,1.6,0.5,3.1,0.7,4.7
				c0.7,6.4,0.7,13.1,0.8,20.1c0,2.7,0.1,5.3,0.2,8c0.1,1.3,0.1,2.7,0.2,3.9c0.1,1.3,0.2,2.5,0.3,3.8c0.3,5,0.5,10,1.7,14.8
				c0.6,2.4,1.5,4.6,2.2,6.6c0.4,1,0.7,2,1.1,3c0.2,0.5,0.3,0.9,0.4,1.4c0.1,0.5,0.3,0.9,0.3,1.4c0.6,3.7,0.6,7.7,1.6,11.2
				c0,0,0-0.1,0-0.1c0.5,1.8,0.9,3.5,1.3,5.2c0.5,1.7,1.1,3.3,1.6,4.8c0.5,1.6,1,3,1.5,4.5c0.3,0.7,0.5,1.4,0.7,2.1
				c0.2,0.7,0.4,1.4,0.6,2.1c0.7,2.1,1.2,4.1,1.7,6c0.5,3.1,0.8,6.4,1,9.9C557.3,503.9,557,509.4,555.9,515z"/>
			<g class="st1">
				<g>
					<g>
						<path d="M410.5,615c0,0-0.7,0-1.9-0.1c-1.2-0.1-2.9-0.1-4.9-0.1c-1,0-2.1,0-3.2,0.1c-0.6,0-1.2,0-1.8,0.1
							c-0.6,0-1.2,0.1-1.9,0.1c-2.5,0.1-5.3,0.3-8.3,0.5c-6,0.3-11.7,0-15.9-0.8c-2.1-0.4-3.8-0.8-4.9-1.1c-1.2-0.3-1.8-0.6-1.8-0.6
							s0.6-0.3,1.8-0.6c1.1-0.4,2.7-0.9,4.7-1.5c4-1.2,9.4-2.8,15.8-3.1c3.2-0.1,6.4,0.2,9.2,0.8c0.7,0.2,1.4,0.3,2,0.5
							c0.7,0.2,1.3,0.4,1.9,0.6c1.2,0.4,2.3,0.9,3.3,1.4c1.9,1,3.4,2,4.3,2.8C410,614.6,410.5,615,410.5,615z"/>
					</g>
				</g>
			</g>
			<g class="st1">
				<g>
					<g>
						<path class="st2" d="M443,635c0,0-0.1,0.6-0.5,1.7c-0.1,0.3-0.2,0.6-0.3,0.9c-0.1,0.3-0.3,0.7-0.5,1c-0.2,0.4-0.4,0.8-0.6,1.2
							c-0.2,0.4-0.5,0.8-0.8,1.3c-1.1,1.8-2.8,3.7-4.8,5.6c-2.1,1.8-4.6,3.5-7.5,4.8c-5.7,2.6-11.4,3.2-15.5,3.1
							c-1,0-1.9-0.1-2.7-0.1c-0.8-0.1-1.5-0.1-2.1-0.2c-1.1-0.2-1.8-0.3-1.8-0.3s0.6-0.3,1.5-0.9c0.5-0.3,1.1-0.6,1.8-1
							c0.7-0.4,1.5-0.8,2.3-1.2c3.5-1.8,8.1-4.1,13.1-6.4c2.5-1.1,4.9-2.2,7.1-3.2c2.1-1,4.1-2,5.8-2.9c0.4-0.2,0.8-0.4,1.2-0.7
							c0.4-0.2,0.7-0.4,1-0.6c0.3-0.2,0.6-0.4,0.9-0.6c0.3-0.2,0.5-0.4,0.7-0.5C442.4,635.4,443,635,443,635z"/>
					</g>
				</g>
			</g>
			<g class="st1">
				<g>
					<g>
						<path class="st2" d="M234,473c0,0,0,0.8,0,2.3c0,0.4,0,0.8,0,1.2c0,0.4,0,0.9,0,1.4c0,1,0,2.2,0.1,3.4c0,0.6,0.1,1.3,0.1,2
							c0,0.7,0.1,1.4,0.2,2.1c0.1,1.4,0.3,3,0.4,4.6c0.4,3.2,0.9,6.6,1.6,10.3c0.7,3.6,1.4,7.1,2.1,10.2c0.4,1.6,0.7,3.1,1.1,4.5
							c0.2,0.7,0.4,1.4,0.5,2.1c0.2,0.7,0.4,1.3,0.5,1.9c0.3,1.2,0.7,2.3,1,3.3c0.1,0.5,0.3,1,0.4,1.4c0.1,0.4,0.3,0.8,0.4,1.1
							c0.4,1.4,0.7,2.2,0.7,2.2s-0.6-0.5-1.7-1.6c-0.3-0.3-0.6-0.5-0.9-0.9c-0.3-0.3-0.6-0.7-1-1.1c-0.7-0.8-1.5-1.7-2.3-2.8
							c-0.4-0.5-0.8-1.1-1.2-1.7c-0.4-0.6-0.8-1.3-1.2-1.9c-0.9-1.3-1.6-2.8-2.4-4.4c-1.5-3.2-2.8-7-3.6-11
							c-0.7-4.1-0.8-8.1-0.5-11.6c0.2-1.8,0.4-3.5,0.8-5c0.2-0.8,0.3-1.5,0.6-2.2c0.2-0.7,0.4-1.4,0.7-2c0.4-1.3,0.9-2.4,1.4-3.4
							c0.2-0.5,0.4-0.9,0.6-1.3c0.2-0.4,0.4-0.8,0.6-1.1C233.5,473.7,234,473,234,473z"/>
					</g>
				</g>
			</g>
			<path class="st0" d="M553.5,474.5c-1.1-2.3-1.9-4.7-2.5-7.2c-2.6-10.8-4.6-21.9-6.6-32.9c-1.3-6.8-2.5-13.9-2.5-20.8
				c0-6.5,0.8-13.1,0.4-19.6c-0.4-6.3-1.5-12.4-2.6-18.6c-1.5-3.8-2.5-7.7-2.8-11.6c-0.4,0.5-0.9,1.1-1.3,1.6
				c0.3-16.2,0.3-31.7-3.6-46.2c-3.4-12.9-6.9-25.4-12.5-38c-2.5-5.7-5.2-11.4-9.5-16c-4.2-4.5-9-7.9-12.7-12.8
				c-1.7-2.2-3.1-5.3-5.5-7c-0.1-0.1-0.2-0.1-0.3-0.2c-0.4-0.4-0.7-0.9-1-1.2c-4.1-5.4-9.3-8.6-14.9-11.9c-5.7-3.3-10.9-7-16.9-9.6
				c-6.1-2.6-12.3-5.1-18.5-7.2c-7.2-2.5-14.7-2.8-22.7-2.8c-16.3,0-33.2-0.3-49.2,1.1c-7.5,0.6-15.6,1.1-23,2.2
				c-6.8,1-13.4,3.2-19.9,5.6c-5.8,2.1-12.6,4.5-17.8,8c-5.3,3.5-11.2,6.5-16.4,10.1c-5,3.5-9.6,7.4-14.2,11.8
				c-1.9,1.7-3.2,3.7-4.4,5.9c-0.7,0.8-1.4,1.6-2.1,2.6c-3.9,4.8-8.6,9.5-12.3,14.8c-15.7,22.3-18.6,51.5-19.9,78.5
				c-0.4,0-0.9-0.1-1.3-0.2c0,7.3-0.4,14.5-0.6,21.9c-0.2,13.2-2.4,25.6-7.6,37.8c-4.5,10.8-10.8,23-11.8,35
				c0.6,2.5,0.6,5.2,0.6,7.8c0,5.9,1.1,11.7,1.4,17.6c1.8,3.2,1.2,6.7,0.7,10.1c-0.6,3.8-0.2,7.6,0.5,11.2
				c1.3,6.7,3.4,13.2,5.2,19.8c3.5,12.7,8.5,23.1,19.5,32c18.5,14.9,34.8,33.3,51.1,51.1c9.4,10.3,19.3,20.6,28.6,30.6
				c7.9,8.6,14.1,15.3,23.1,22.6c7.3,5.9,18.1,12.7,27.2,14.8c9.7,2.2,27.4,2.4,35.2-2.5l0.5,2c5.7-3.8,12.5-5.1,18.5-7.9
				c5.6-2.6,10-6.9,14.9-10.7c9.8-7.9,18.9-15.3,26.9-25.1c7.7-9.5,16.4-18.6,24.2-27.8c8.2-9.5,18.1-18.1,27.4-26.6
				c9-8.2,16.7-17.8,24.3-27.2C556,527.5,559,514.9,559,500C559,490.4,556.3,482.7,553.5,474.5z"/>
			<path d="M559.6,498.6c-0.5-5.3-1.4-10.1-2.5-14.4c-2.1-8.7-4.4-15.5-6-20.2c0-0.1-0.1-0.2-0.1-0.4c-0.1-0.8-0.3-1.6-0.4-2.4
				c-0.1-0.8-0.1-1.7-0.2-2.6c-0.1-0.9-0.1-1.9-0.2-2.9c0-1-0.2-2.1-0.3-3.1c-0.7-4.4-2.8-8.4-3.7-12.6c-0.9-4.3-1.1-9.1-1.3-14.2
				c-0.1-1.3-0.2-2.6-0.3-3.8c-0.1-1.3-0.1-2.5-0.2-3.8c-0.1-2.6-0.1-5.2-0.1-7.8c-0.1-6.9-0.1-13.8-1-20.5
				c-0.1-1.7-0.5-3.3-0.8-4.9c-0.1-0.8-0.3-1.6-0.5-2.4c-0.2-0.8-0.4-1.6-0.6-2.4c-0.9-3.1-2.1-6-3-8.8c-0.5-1.4-0.8-2.8-1.1-4.1
				c-0.1-0.7-0.2-1.4-0.3-2c0-0.7-0.1-1.4-0.1-2.1c-0.2-2.8-0.1-5.5-0.1-8.2c-0.1-5.4-0.2-10.4-0.6-15c-0.1-1.1-0.2-2.3-0.3-3.3
				c-0.2-1.1-0.3-2.1-0.5-3.2c-0.1-0.5-0.1-1-0.2-1.5c-0.1-0.5-0.2-1-0.3-1.5c-0.1-0.5-0.2-1-0.3-1.4c-0.1-0.5-0.3-0.9-0.4-1.3
				c-0.1-0.3-0.2-0.5-0.2-0.8c-0.2-1.8-0.5-3.6-0.7-5.4c-0.3-1.9-0.5-3.9-1-6c-1.4-8.1-3.9-16.9-7.6-25.9c-3.6-9-8.7-18.2-15.2-27.1
				c-6.5-8.8-14.4-17.3-23.4-25.1c-9.1-7.7-19.8-14.4-31.6-19.2c-5.9-2.4-12-4.2-18-5.5c-6.1-1.3-12.2-1.9-18.1-2.3
				c-11.9-0.7-23.4-0.2-34.2,0.4c-5.4,0.3-10.7,0.6-15.8,0.8c-5.1,0.2-10.2,0.5-15,1.1c-9.7,1.2-18.6,3.4-26.2,6.5
				c-1.9,0.8-3.8,1.5-5.6,2.4c-1.8,0.9-3.5,1.7-5.2,2.5c-2,1.1-4,2.2-5.9,3.2c-4.9,2.4-10.3,5.4-15.9,9c-6.1,3.9-12.5,8.7-18.8,14.4
				c-6.4,5.7-12.5,12.6-18,20.5c-0.7,1-1.4,2-2,3c-0.7,1-1.3,2.1-2,3.1c-1.2,2.2-2.5,4.3-3.6,6.6c-2.4,4.5-4.3,9.3-6.1,14.2
				c-3.5,9.9-5.6,20.7-7,31.7c-1.4,11-2,21.7-2.7,32.1c-0.7,10.3-1.6,20.2-3.1,29.5c-0.4,2.3-0.7,4.6-1.3,6.9
				c-0.5,2.2-0.9,4.5-1.5,6.6c-0.3,1.1-0.6,2.1-0.9,3.2c-0.3,1-0.7,2.1-1,3.1c-0.6,2.1-1.4,4.1-2.1,6c-2.8,7.4-5.4,14.4-6.8,21.2
				c-0.3,1-0.5,2.1-0.8,3.1c-0.6,2.6-0.8,5.3-0.7,7.8c0,1,0.1,1.9,0.2,2.8c0.1,2.6,0.3,5,0.6,7.3c0.2,1.3,0.3,2.5,0.5,3.7
				c0,3.9-0.2,7.2,0.2,9.6v0c-0.1,0.7-0.1,1.5,0,2.3c0.1,0.8,0.7,2.7,1.5,3.6c0,0.1,0,0.2,0,0.2c-1.2,8.4-1.2,17.5,0.6,26.6
				c1.8,9.1,5.8,18.2,11.3,26.3c2.7,4.1,5.8,7.9,8.9,11.4c1.6,1.7,3.1,3.5,4.7,5.2c1.6,1.7,3.2,3.3,4.8,5
				c6.4,6.5,12.9,12.4,18.9,18.1c0.9,0.9,1.8,1.7,2.7,2.6c0.9,1,1.9,2,2.9,3c3.8,3.9,8.2,8.3,13.2,13c0.8,0.8,1.7,1.6,2.5,2.5
				c3.5,3.6,6.8,7,9.9,10.2c4.4,4.5,8.4,8.6,11.9,12.2c2.9,3.2,5.8,6.6,8.8,10c5.9,6.9,12.2,14.1,19.5,21
				c7.3,6.8,15.8,13.2,25.8,17.3c5,2,10.2,3.4,15.4,4.1c5.2,0.7,10.4,0.8,15.4,0.5c10.1-0.5,19.7-3,28.1-6.9
				c8.4-3.8,15.7-8.9,21.9-14.1c3.1-2.6,6-5.3,8.7-7.9c2.7-2.6,5.2-5.3,7.5-7.8c4.6-5.1,8.6-9.9,12.1-14.1c3.5-4.2,6.4-7.9,8.9-10.8
				c0.2-0.2,0.4-0.5,0.6-0.7c0.9-1,1.8-2,2.8-3.1c1.4-1.5,2.8-3,4.3-4.6c6.1-6.4,13.4-13.9,22-21.8c8.6-7.9,18.3-16.4,27.4-26.7
				c1.1-1.3,2.3-2.5,3.3-3.8c1-1.3,2.1-2.6,3.1-3.9c2-2.6,4.1-5.2,5.8-8.1c3.4-5.7,5.5-11.8,6.5-17.7
				C560.2,509.6,560.1,503.9,559.6,498.6z M555.9,515c-1.1,5.6-3.2,11.2-6.5,16.4c-1.6,2.6-3.6,5.1-5.6,7.6c-1,1.3-2,2.6-3.1,3.8
				c-1.1,1.3-2.2,2.5-3.3,3.7c-8.8,10-18.4,18.6-26.7,26.9c-8.4,8.2-15.5,16.1-21.2,22.9c-1.4,1.7-2.8,3.3-4,4.9
				c-1.2,1.6-2.4,3-3.5,4.4c-2.2,2.8-4,5.2-5.5,7.1c-0.1,0.2-0.2,0.3-0.3,0.4c-0.8,0.9-1.7,1.9-2.6,2.9c-3.6,4.1-7.8,8.7-12.6,13.5
				c-2.4,2.4-4.9,5-7.7,7.5c-2.7,2.5-5.6,5.1-8.8,7.6c-6.2,5-13.4,9.7-21.6,13.2c-8.2,3.5-17.3,5.8-27,6.2
				c-4.8,0.3-9.7,0.1-14.6-0.6c-4.9-0.7-9.8-2-14.5-3.9c-9.4-3.8-17.6-9.9-24.7-16.5c-7.2-6.6-13.5-13.7-19.6-20.4
				c-6.1-6.7-11.9-13.2-17.7-18.8c-2.9-2.8-5.8-5.5-8.5-8c-0.8-0.8-1.7-1.5-2.5-2.3c-2.2-2.4-4.5-5-6.9-7.6
				c-2.5-2.8-5.1-5.5-7.9-8.4c-2.8-2.8-5.6-5.7-8.6-8.6c-5.9-5.9-12.3-11.9-18.6-18.3c-1.5-1.6-3.1-3.3-4.7-4.9
				c-1.6-1.7-3.1-3.4-4.6-5.1c-3.1-3.5-5.9-7.1-8.6-11c-5.3-7.8-9-16.3-10.8-24.9c-1.9-8.6-2-17.3-1-25.4c2-16.3,9.2-29.8,16.8-39.6
				c3.8-4.9,8.1-8.6,12-11.8c3.9-3.1,7.4-5.6,10.3-7.6c5.8-4,9-6.2,9-6.2s-3.3,2-9.3,5.7c-3,1.9-6.6,4.2-10.7,7.2
				c-4,3-8.6,6.6-12.7,11.5c-4.1,4.9-8,10.7-11.3,17.5c-2.6,5.2-4.6,11-6.1,17.2c-0.1-0.2-0.3-0.3-0.5-0.5c-0.3-2.4-0.6-5.1-1-8.1
				c0-0.6,0-1.1,0-1.7c0-1-0.1-2.1-0.2-3.2c-0.2-1.1-0.3-2.2-0.5-3.3c0-0.1,0-0.3-0.1-0.4c-0.2-4.8,0-10.1,1.3-15.7
				c1.5-6.9,4.5-14.2,7.7-22c0.8-2,1.6-4,2.3-6.1c0.4-1,0.8-2.1,1.1-3.1c0.3-1.1,0.7-2.2,1-3.3c0.7-2.2,1.2-4.5,1.7-6.7
				c0.6-2.3,1-4.6,1.4-7c1.7-9.5,2.8-19.5,3.6-29.8c0.8-10.3,1.5-21,2.9-31.9c1.4-10.8,3.3-21.3,6.6-30.9c1.7-4.8,3.5-9.5,5.7-13.9
				c1-2.2,2.3-4.3,3.4-6.4c0.6-1,1.2-2,1.9-3.1c0.6-1,1.2-2,1.9-3c5.2-7.8,11.1-14.6,17.1-20.4c6.1-5.8,12.2-10.7,18.1-14.8
				c1.1-0.8,2.2-1.5,3.4-2.3c0.4-0.2,0.7-0.5,1.1-0.7c1.2-0.7,2.4-1.5,3.7-2.3c1.3-0.8,2.7-1.5,4.1-2.3c2.8-1.7,5.9-3.2,9.2-4.8
				c1.7-0.7,3.4-1.5,5.2-2.3c1.8-0.8,3.7-1.4,5.5-2.2c7.6-2.8,16.4-4.8,25.8-5.7c4.8-0.4,9.7-0.6,14.8-0.7
				c5.1-0.1,10.4-0.3,15.9-0.5c10.8-0.4,22.2-0.7,33.8,0.1c5.8,0.5,11.7,1.1,17.6,2.4c5.8,1.3,11.7,3,17.4,5.3
				c11.4,4.6,21.7,11,30.7,18.4c8.9,7.5,16.7,15.7,23.2,24.2c6.5,8.5,11.7,17.4,15.4,26.1c3.8,8.8,6.5,17.2,8.1,25.2
				c0.1,0.9,0.4,1.9,0.6,3.1c0.2,0.9-0.2,1.8,0.8,2.8c0,0,0,0,0,0c0,1.9,0.5,3.8,0.8,5.6c0.4,3.7,0.9,7.1,1.2,10.3
				c0.2,2.6,0.4,5,0.6,7.3c0,3.1-0.1,6.5-0.2,9.9c-0.1,2.6-0.3,5.4-0.2,8.4c0,0.7,0,1.5,0.1,2.2c0.1,0.8,0.1,1.5,0.2,2.3
				c0.2,1.5,0.6,3.1,1,4.6c0.9,3,2,5.9,2.7,8.8c0.2,0.7,0.4,1.5,0.5,2.2c0.2,0.7,0.3,1.5,0.4,2.3c0.2,1.6,0.5,3.1,0.7,4.7
				c0.7,6.4,0.7,13.1,0.8,20.1c0,2.7,0.1,5.3,0.2,8c0.1,1.3,0.1,2.7,0.2,3.9c0.1,1.3,0.2,2.5,0.3,3.8c0.3,5,0.5,10,1.7,14.8
				c0.6,2.4,1.5,4.6,2.2,6.6c0.4,1,0.7,2,1.1,3c0.2,0.5,0.3,0.9,0.4,1.4c0.1,0.5,0.3,0.9,0.3,1.4c0.6,3.7,0.6,7.7,1.6,11.2
				c0,0,0-0.1,0-0.1c0.5,1.8,0.9,3.5,1.3,5.2c0.5,1.7,1.1,3.3,1.6,4.8c0.5,1.6,1,3,1.5,4.5c0.3,0.7,0.5,1.4,0.7,2.1
				c0.2,0.7,0.4,1.4,0.6,2.1c0.7,2.1,1.2,4.1,1.7,6c0.5,3.1,0.8,6.4,1,9.9C557.3,503.9,557,509.4,555.9,515z"/>
			<g class="st1">
				<g>
					<g>
						<path d="M410.5,615c0,0-0.7,0-1.9-0.1c-1.2-0.1-2.9-0.1-4.9-0.1c-1,0-2.1,0-3.2,0.1c-0.6,0-1.2,0-1.8,0.1
							c-0.6,0-1.2,0.1-1.9,0.1c-2.5,0.1-5.3,0.3-8.3,0.5c-6,0.3-11.7,0-15.9-0.8c-2.1-0.4-3.8-0.8-4.9-1.1c-1.2-0.3-1.8-0.6-1.8-0.6
							s0.6-0.3,1.8-0.6c1.1-0.4,2.7-0.9,4.7-1.5c4-1.2,9.4-2.8,15.8-3.1c3.2-0.1,6.4,0.2,9.2,0.8c0.7,0.2,1.4,0.3,2,0.5
							c0.7,0.2,1.3,0.4,1.9,0.6c1.2,0.4,2.3,0.9,3.3,1.4c1.9,1,3.4,2,4.3,2.8C410,614.6,410.5,615,410.5,615z"/>
					</g>
				</g>
			</g>
			<g class="st1">
				<g>
					<g>
						<path class="st2" d="M443,635c0,0-0.1,0.6-0.5,1.7c-0.1,0.3-0.2,0.6-0.3,0.9c-0.1,0.3-0.3,0.7-0.5,1c-0.2,0.4-0.4,0.8-0.6,1.2
							c-0.2,0.4-0.5,0.8-0.8,1.3c-1.1,1.8-2.8,3.7-4.8,5.6c-2.1,1.8-4.6,3.5-7.5,4.8c-5.7,2.6-11.4,3.2-15.5,3.1
							c-1,0-1.9-0.1-2.7-0.1c-0.8-0.1-1.5-0.1-2.1-0.2c-1.1-0.2-1.8-0.3-1.8-0.3s0.6-0.3,1.5-0.9c0.5-0.3,1.1-0.6,1.8-1
							c0.7-0.4,1.5-0.8,2.3-1.2c3.5-1.8,8.1-4.1,13.1-6.4c2.5-1.1,4.9-2.2,7.1-3.2c2.1-1,4.1-2,5.8-2.9c0.4-0.2,0.8-0.4,1.2-0.7
							c0.4-0.2,0.7-0.4,1-0.6c0.3-0.2,0.6-0.4,0.9-0.6c0.3-0.2,0.5-0.4,0.7-0.5C442.4,635.4,443,635,443,635z"/>
					</g>
				</g>
			</g>
			<g class="st1">
				<g>
					<g>
						<path class="st2" d="M234,473c0,0,0,0.8,0,2.3c0,0.4,0,0.8,0,1.2c0,0.4,0,0.9,0,1.4c0,1,0,2.2,0.1,3.4c0,0.6,0.1,1.3,0.1,2
							c0,0.7,0.1,1.4,0.2,2.1c0.1,1.4,0.3,3,0.4,4.6c0.4,3.2,0.9,6.6,1.6,10.3c0.7,3.6,1.4,7.1,2.1,10.2c0.4,1.6,0.7,3.1,1.1,4.5
							c0.2,0.7,0.4,1.4,0.5,2.1c0.2,0.7,0.4,1.3,0.5,1.9c0.3,1.2,0.7,2.3,1,3.3c0.1,0.5,0.3,1,0.4,1.4c0.1,0.4,0.3,0.8,0.4,1.1
							c0.4,1.4,0.7,2.2,0.7,2.2s-0.6-0.5-1.7-1.6c-0.3-0.3-0.6-0.5-0.9-0.9c-0.3-0.3-0.6-0.7-1-1.1c-0.7-0.8-1.5-1.7-2.3-2.8
							c-0.4-0.5-0.8-1.1-1.2-1.7c-0.4-0.6-0.8-1.3-1.2-1.9c-0.9-1.3-1.6-2.8-2.4-4.4c-1.5-3.2-2.8-7-3.6-11
							c-0.7-4.1-0.8-8.1-0.5-11.6c0.2-1.8,0.4-3.5,0.8-5c0.2-0.8,0.3-1.5,0.6-2.2c0.2-0.7,0.4-1.4,0.7-2c0.4-1.3,0.9-2.4,1.4-3.4
							c0.2-0.5,0.4-0.9,0.6-1.3c0.2-0.4,0.4-0.8,0.6-1.1C233.5,473.7,234,473,234,473z"/>
					</g>
				</g>
			</g>
			<g>
				<g>
					<g>
						<g>
							<g>
								<path d="M588.6,380.1c0,0-0.1-0.5-0.4-1.4c-0.3-0.9-0.6-2.3-1.1-4c-1-3.4-2.6-8.4-6.3-13.5c-0.9-1.3-1.9-2.7-2.9-4.1
									c-0.5-0.7-1-1.5-1.5-2.2c-0.5-0.8-1-1.6-1.5-2.5c-0.2-0.4-0.5-0.9-0.7-1.3l-0.2-0.4l-0.2-0.4l-0.3-0.7
									c-0.4-0.9-0.6-1.9-1-2.9c-0.6-2-1-4.2-1.1-6.4c0-0.6,0-1.1,0-1.7c0-0.6,0.1-1.1,0.1-1.7c0.1-1.1,0.3-2.3,0.5-3.4
									c0.5-2.3,1.3-4.5,1.8-6.6c0.6-2.1,0.9-4.2,0.8-6.3c-0.2-2-1-4.1-2.2-5.9c-1.2-1.8-2.9-3.3-4.6-4.3c-0.9-0.5-1.8-0.7-2.4-0.7
									c-0.5,0-1.4,0.5-2.2,1.1c-1.6,1.2-3,3-4.4,4.6c-1.4,1.7-2.7,3.4-4,5.1c-0.7,0.8-1.5,1.7-2.2,2.4c-0.7,0.7-1.4,1.5-2.1,2.2
									c-1.4,1.4-2.7,2.8-3.8,4.2c-1.1,1.4-2,2.9-2.6,4.5c-0.7,1.6-1.2,3.1-1.7,4.6c-0.9,3-1.7,5.9-2.4,8.3
									c-0.8,2.5-1.6,4.5-2.5,6.1c-0.9,1.6-1.6,2.8-2.2,3.5c-0.6,0.7-0.9,1.1-0.9,1.1s0.3-0.4,0.8-1.2c0.5-0.8,1.1-2,1.8-3.7
									c0.7-1.6,1.3-3.7,1.9-6.2c0.6-2.5,1-5.3,1.8-8.5c0.4-1.6,0.9-3.2,1.5-4.9c0.6-1.7,1.5-3.5,2.6-5.1c1.1-1.6,2.4-3.2,3.8-4.7
									c0.7-0.7,1.4-1.5,2-2.3c0.7-0.8,1.3-1.5,1.9-2.3c1.2-1.7,2.5-3.5,3.9-5.3c1.4-1.8,2.8-3.6,4.8-5.3c1-0.8,2.2-1.7,4-1.9
									c1.8-0.1,3.1,0.4,4.4,1c2.4,1.3,4.4,3.2,6,5.4c1.5,2.3,2.6,4.9,2.8,7.6c0.2,2.7-0.3,5.3-1,7.6c-0.7,2.3-1.5,4.4-2,6.4
									c-0.2,1-0.4,2-0.6,3c0,0.5-0.1,1-0.1,1.5c0,0.5,0,1,0,1.5c0,2,0.3,3.9,0.7,5.8c0.2,0.9,0.5,1.9,0.8,2.8l0.2,0.7l0.1,0.3
									l0.1,0.3c0.2,0.4,0.4,0.8,0.6,1.2c0.4,0.8,0.8,1.6,1.2,2.4c0.5,0.8,0.9,1.5,1.3,2.3c0.9,1.5,1.8,2.9,2.6,4.3
									c0.8,1.4,1.6,2.8,2.2,4.1c0.6,1.3,1.1,2.6,1.5,3.9c0.8,2.5,1.3,4.6,1.6,6.4c0.4,1.8,0.6,3.1,0.7,4.1
									C588.5,379.6,588.6,380.1,588.6,380.1z"/>
							</g>
						</g>
					</g>
					<g>
						<path d="M589.8,382.9c-0.5-3.2-1.3-6-2.1-8.3c-0.2-0.6-0.4-1.2-0.6-1.7c-0.2-0.5-0.4-1.1-0.6-1.6c-0.4-1-0.8-1.9-1.2-2.7
							c-0.7-1.6-1.4-2.8-1.8-3.6c-0.4-0.8-0.7-1.2-0.7-1.2s0.2,0.5,0.5,1.3c0.4,0.9,0.9,2.1,1.4,3.8c0.3,0.8,0.6,1.7,0.9,2.8
							c0.2,0.5,0.3,1,0.5,1.6c0.1,0.6,0.3,1.1,0.4,1.7c0.6,2.4,1.1,5.2,1.4,8.2c0.3,3.1,0.2,6.4-0.6,9.9c-0.7,3.5-2.2,7-4.4,10.2
							c-2.3,3.2-5.3,6.1-8.9,8.6c-1.8,1.3-3.7,2.5-5.7,4c-1.9,1.5-3.9,3.2-5.3,5.5c-1.5,2.3-2.2,5.1-2.2,7.7c0,2.6,0.5,5,1.1,7.3
							c1.3,4.5,2.9,8.5,3.7,12.4c0.4,1.9,0.6,3.8,0.5,5.6c-0.1,1.8-0.6,3.5-1.3,5c-1.6,3-4.1,5.2-6.9,5.8c-2.4,0.6-4.7,0.4-6.8-0.2
							c0,0.4,0,0.9,0.1,1.3c2.1,0.7,4.5,1,7.1,0.6c3.4-0.5,6.7-3,8.7-6.4c0.9-1.8,1.7-3.8,1.9-5.9c0.2-2.1,0.1-4.3-0.2-6.5
							c-0.7-4.3-2.3-8.4-3.4-12.7c-0.5-2.1-0.9-4.3-0.8-6.3c0-2.1,0.6-4,1.7-5.8c1.1-1.8,2.7-3.2,4.5-4.6c1.8-1.4,3.7-2.7,5.5-4
							c3.7-2.8,7-6,9.4-9.7c2.4-3.7,3.8-7.7,4.3-11.5C590.5,389.7,590.4,386.1,589.8,382.9z"/>
					</g>
					<g>
						<g>
							<g>
								<path d="M567.5,360.1c0,0,0,0.3,0,0.8c0,0.5,0,1.4-0.2,2.4c-0.2,2.1-1.1,5.1-2.9,8.4c-0.9,1.7-1.9,3.4-3.1,5.3
									c-1.2,1.9-2.7,3.7-4.2,5.7c-1.5,1.9-3,3.9-4.4,6.1c-1.3,2.2-2.4,4.6-2.4,7.1c0,2.5,1.4,4.6,3.2,6.3c1.8,1.8,4,3,5.9,4.9
									c0.9,0.9,1.8,2.1,2.1,3.5c0.1,0.3,0.2,0.7,0.2,1c0,0.3,0,0.6,0,1c-0.1,0.6-0.1,1.2-0.3,1.8c-0.1,0.3-0.2,0.6-0.2,0.8
									c-0.1,0.3-0.2,0.5-0.3,0.8c-0.2,0.5-0.5,1-0.8,1.5c-0.6,0.9-1.3,1.7-2,2.3c-1.4,1.3-2.9,2.2-4.3,2.8c-1.4,0.6-2.6,1-3.6,1.3
									s-1.8,0.4-2.3,0.5c-0.5,0.1-0.8,0.2-0.8,0.2s0.3-0.1,0.8-0.3c0.5-0.2,1.3-0.4,2.2-0.8c1.9-0.8,4.7-2,7.1-4.6
									c0.6-0.6,1.1-1.4,1.6-2.2c0.2-0.4,0.4-0.8,0.6-1.3c0.1-0.2,0.2-0.5,0.2-0.7c0.1-0.2,0.1-0.5,0.2-0.7c0.1-0.5,0.1-1,0.2-1.5
									c0-0.2,0-0.5-0.1-0.7c0-0.2-0.1-0.5-0.2-0.7c-0.3-0.9-0.9-1.7-1.7-2.5c-1.6-1.5-4-2.7-6.1-4.6c-1.1-0.9-2.1-2-2.8-3.4
									c-0.8-1.3-1.2-2.9-1.2-4.5c0-1.6,0.3-3.1,0.8-4.5c0.5-1.4,1.2-2.6,1.9-3.8c1.5-2.3,3.2-4.3,4.7-6.2c1.6-1.9,3.1-3.6,4.4-5.3
									c1.2-1.8,2.4-3.4,3.4-5c2-3.1,3.1-5.8,3.6-7.8c0.3-1,0.3-1.8,0.4-2.3C567.4,360.4,567.5,360.1,567.5,360.1z"/>
							</g>
						</g>
					</g>
					<g>
						<g>
							<g>
								<path d="M569.2,367.4c0,0,0.2,0.1,0.6,0.2c0.4,0.1,0.9,0.4,1.5,0.9c0.6,0.5,1.2,1.3,1.6,2.2c0.4,1,0.6,2.1,0.5,3.3
									c-0.2,2.3-1.1,4.2-2,5.3c-0.4,0.6-0.8,1-1.1,1.3c-0.3,0.3-0.5,0.4-0.5,0.4s0-0.2,0.1-0.6c0.1-0.4,0.2-0.9,0.3-1.6
									c0.3-1.3,0.5-3.1,0.7-5c0-0.9,0-1.8-0.1-2.6c-0.1-0.8-0.3-1.5-0.6-2c-0.3-0.6-0.6-1-0.8-1.3
									C569.3,367.6,569.2,367.4,569.2,367.4z"/>
							</g>
						</g>
					</g>
					<g>
						<g>
							<g>
								<path d="M562.8,379.8c0,0,0.2,0.1,0.7,0.4c0.4,0.2,1,0.7,1.7,1.3c0.6,0.6,1.3,1.5,1.8,2.6c0.5,1.1,0.8,2.5,0.8,3.9
									c-0.1,2.8-1.3,5.1-2.2,6.5c-0.5,0.7-0.9,1.3-1.2,1.6c-0.3,0.4-0.5,0.6-0.5,0.6s0.1-0.3,0.2-0.7c0.1-0.5,0.3-1.1,0.4-1.9
									c0.4-1.6,0.8-3.8,0.9-6.1c0.1-2.3-0.5-4.3-1.1-5.7c-0.4-0.7-0.7-1.3-0.9-1.7C562.9,380,562.8,379.8,562.8,379.8z"/>
							</g>
						</g>
					</g>
				</g>
				<path class="st3" d="M561,375.6c1.2-2,2.5-3.9,3.7-6c1-1.8,2.8-4.8,2.6-6.7c0,5.7-0.9,10.6-3.9,15.4c1.3,0.1,3,2.1,3.8,3.1
					c1.2,1.4,2.2,2.7,2.7,4.5c1,3.8-0.1,7.5-3,10.2c-2.2,2.1-4.8,3.3-7.5,4.5c1.9-3.1,4-5.3,4.5-8.9c0.4-2.4,0-10.4-4.3-7.3
					c-2.5,1.8-4.8,5.8-5.2,8.7c-0.6,3.9,0.9,6.7,2.8,9.9c0.6,1,1.1,2,1.6,3c0.5,1.1,0.7,2.6,1,3.4c0.3-2.1-1.3-3-3-3.8
					c-1.5-0.7-3-1.7-4.4-2.7c-3-2.5-3.5-7-2.8-10.7c0.6-3,2.7-6.2,4.9-8.4c2.1-2.1,3.9-4.7,6-6.6"/>
				<g class="st1">
					<g>
						<g>
							<path class="st2" d="M567,333.5c0,0,0.1-0.8,0.4-2.3c0.3-1.5,0.9-3.6,1.1-6.1c0-1.2-0.1-2.6-0.7-3.7
								c-0.2-0.3-0.3-0.6-0.5-0.8c-0.2-0.3-0.4-0.5-0.6-0.8c-0.5-0.4-0.9-0.6-1.4-0.7c-0.8-0.1-2.2,0.7-3.2,2
								c-0.3,0.3-0.5,0.6-0.7,1c-0.2,0.4-0.5,0.8-0.7,1.2c-0.6,0.9-1.1,1.8-1.8,2.6c-0.6,0.9-1.3,1.7-2,2.5c-0.3,0.4-0.7,0.8-1,1.2
								c-0.4,0.4-0.7,0.7-1.1,1.1c-0.7,0.7-1.4,1.3-2,2c-0.3,0.3-0.6,0.6-0.9,0.9c-0.3,0.3-0.5,0.6-0.8,1c-2.2,2.5-3.6,5.2-4.5,7.7
								c-0.8,2.5-1.3,4.6-1.6,6.1c-0.3,1.5-0.4,2.3-0.4,2.3s-0.1-0.8-0.2-2.4c-0.1-1.5-0.1-3.7,0.3-6.5c0.4-2.8,1.6-6.1,3.8-9.2
								c0.3-0.4,0.5-0.8,0.8-1.2c0.3-0.4,0.6-0.7,1-1.1c0.6-0.7,1.3-1.4,1.9-2.2c0.3-0.3,0.6-0.7,0.9-1c0.3-0.4,0.6-0.7,0.9-1.1
								c0.6-0.7,1.2-1.5,1.8-2.3c0.6-0.8,1.1-1.6,1.6-2.4c0.3-0.4,0.6-0.9,0.9-1.3c0.3-0.5,0.7-0.9,1.1-1.3c0.8-0.8,1.7-1.5,2.8-2.1
								c1.1-0.5,2.4-0.9,3.7-0.6c1.3,0.3,2.4,1.1,3,1.9c0.3,0.4,0.6,0.8,0.8,1.3c0.2,0.4,0.4,0.8,0.6,1.3c0.7,1.8,0.5,3.6,0.2,5
								c-0.7,2.8-1.8,4.7-2.4,6.1C567.4,332.7,567,333.5,567,333.5z"/>
						</g>
					</g>
				</g>
				<g class="st1">
					<g>
						<g>
							<path class="st2" d="M560.5,453.8c0,0,0.1,0.1,0.3,0.4c0.2,0.3,0.4,0.7,0.6,1.2c0.4,1.1,0.5,2.8-0.2,4.4
								c-0.4,0.8-1,1.5-1.6,1.9c-0.7,0.5-1.3,0.8-1.9,0.9c-0.3,0.1-0.6,0.1-0.8,0.1c-0.2,0-0.4,0-0.6-0.1c-0.3-0.1-0.5-0.1-0.5-0.1
								s0.1-0.2,0.3-0.4c0.1-0.1,0.2-0.3,0.3-0.5c0.1-0.2,0.2-0.4,0.3-0.6c0.4-0.9,0.6-1.9,1.1-2.9c0.5-1.1,1.2-2,1.8-2.9
								C560.1,454.3,560.5,453.8,560.5,453.8z"/>
						</g>
					</g>
				</g>
				<g class="st1">
					<g>
						<g>
							<path class="st2" d="M573.2,360.8c0,0,0.5,0.6,1.4,1.8c0.4,0.6,1,1.3,1.6,2.1c0.6,0.8,1.3,1.8,2,2.8c0.7,1.1,1.5,2.3,2.3,3.6
								c0.4,0.6,0.8,1.4,1.2,2.2c0.4,0.8,0.7,1.6,1,2.5c1.2,3.4,1.6,7.4,1.2,11.6c-0.1,1-0.3,2-0.5,3c-0.2,1-0.5,1.9-0.7,2.9
								c-0.4,0.9-0.7,1.9-1.1,2.8c-0.5,0.8-0.9,1.6-1.3,2.4c-1.9,3-4.1,5.3-5.9,7.2c-1.8,1.8-3.3,3.3-4.4,4.3c-1,1-1.6,1.6-1.6,1.6
								s0.4-0.7,1.1-1.9c0.7-1.2,1.9-3,3.3-5.1c1.4-2.1,3.1-4.6,4.5-7.5c0.3-0.7,0.6-1.5,1-2.2c0.2-0.8,0.5-1.6,0.7-2.4
								c0.2-0.9,0.4-1.7,0.5-2.6c0.1-0.9,0.3-1.8,0.4-2.7c0.4-3.7,0.2-7.2-0.5-10.3c-0.2-0.8-0.3-1.5-0.6-2.2
								c-0.2-0.7-0.4-1.4-0.8-2.1c-0.6-1.4-1.1-2.6-1.7-3.8c-0.5-1.2-1-2.2-1.4-3.2c-0.4-0.9-0.8-1.7-1.1-2.4
								C573.6,361.5,573.2,360.8,573.2,360.8z"/>
						</g>
					</g>
				</g>
			</g>
			<g>
				<path class="st4" d="M200.3,313.7c2.2-0.3,4.1,2,5.7,3.2c1.8,1.4,3.7,2.7,5.3,4.3c3.3,3.3,6.3,6,10.2,8.3c1.9,1.1,4,2.2,5.9,3.2
					c1,0.5,2.1,0.9,2.8,1.8c0.8,1,0.7,2,1.1,3.1c1.6,4.2,2.5,8.5,4.2,12.7c0.2,0.6,0.4,1,0.4,1.7c-2-0.3-2.8-3.8-3.5-5.3
					c-0.9-1.9-2-3.8-3.2-5.5c-3-4.5-9.3-2.6-13.8-1.9c-2.4,0.4-6.2,1.6-8.5,0.7c-2.2-0.9-4.3-2.1-6-3.7c-3.4-3.1-4.9-7.2-7.5-11
					c-1.9-2.8-2.3-4.3-1-7.4c0.6-1.3,0.7-2.5,2.1-3.3c1.3-0.7,2.9-0.6,4.4-0.6"/>
				<g>
					<g>
						<g>
							<g>
								<path d="M175.2,355.8c0,0,0.1-0.3,0.4-0.9c0.3-0.6,0.7-1.4,1.3-2.5c1.1-2.2,2.9-5.2,4.8-9.1c0.5-1,0.9-2,1.4-3.1
									c0.4-1.1,0.9-2.2,1.2-3.4c0.8-2.4,1.2-5.1,2.2-7.9c0.5-1.4,1.1-2.8,2.1-4.2c0.5-0.7,1.3-1.4,2.3-1.6c0.5-0.1,1.1-0.1,1.6,0
									c0.5,0.1,0.9,0.4,1.3,0.6c0.8,0.5,1.4,1.2,1.9,1.9c0.5,0.7,1,1.4,1.4,2.1c0.8,1.4,1.7,2.8,2.5,4.2c1.7,2.7,3.7,5.2,6.3,6.5
									c0.6,0.3,1.3,0.6,2,0.8c0.7,0.2,1.4,0.3,2,0.4c1.4,0.1,2.8,0,4.2-0.3c2.7-0.5,5.4-1.4,8.1-1.5c1.3,0,2.7,0,3.9,0.6
									c1.2,0.5,2.2,1.3,2.9,2.1c1.5,1.7,2.4,3.5,3.1,5.1c0.7,1.6,1.2,3,1.7,4.1c0.5,1.1,0.9,2,1.2,2.5c0.3,0.6,0.5,0.9,0.5,0.9
									s-0.2-0.3-0.5-0.8c-0.3-0.5-0.8-1.4-1.4-2.5c-0.6-1.1-1.2-2.4-2-4c-0.8-1.5-1.8-3.2-3.3-4.7c-0.7-0.7-1.6-1.3-2.7-1.7
									c-1-0.4-2.2-0.4-3.4-0.3c-2.4,0.2-5,1.1-7.9,1.8c-1.4,0.3-3,0.5-4.6,0.4c-0.8-0.1-1.6-0.2-2.4-0.4c-0.8-0.2-1.6-0.5-2.3-0.9
									c-1.5-0.7-2.9-1.8-4.1-3.1c-1.2-1.2-2.2-2.6-3.1-4.1c-0.9-1.4-1.7-2.9-2.5-4.2c-0.4-0.7-0.8-1.3-1.3-1.9
									c-0.4-0.6-0.9-1.1-1.4-1.5c-0.5-0.4-1-0.5-1.4-0.4c-0.4,0.1-0.9,0.4-1.3,1c-0.8,1-1.4,2.3-1.9,3.6c-1,2.6-1.5,5.3-2.5,7.8
									c-0.4,1.2-1,2.4-1.4,3.5c-0.6,1.1-1,2.1-1.6,3.1c-2.1,3.8-4.1,6.7-5.4,8.8C175.9,354.6,175.2,355.8,175.2,355.8z"/>
							</g>
						</g>
					</g>
					<g>
						<g>
							<g>
								<path d="M218.4,451.8c0,0-0.3,0.4-1,1.2c-0.3,0.4-0.8,0.9-1.3,1.4c-0.3,0.3-0.5,0.6-0.8,0.9c-0.3,0.3-0.7,0.6-1,0.9
									c-1.4,1.3-3.3,2.9-5.8,4.2c-2.5,1.3-5.6,2.4-9.3,2.4c-1.8-0.1-3.7-0.5-5.6-1.3c-1.8-0.8-3.6-1.9-5.3-3.3
									c-1.6-1.4-3.1-3.3-4-5.5c-0.9-2.2-1.2-4.7-1.1-7.1c0.2-4.9,1.9-9.7,3.9-14.3c0.5-1.1,1.1-2.3,1.6-3.4c0.5-1.1,1-2.3,1.4-3.5
									c0.9-2.3,1.6-4.7,1.9-7.2c0.3-2.4,0.1-4.8-0.6-7.1c-0.7-2.2-1.9-4.3-3.3-6.1c-0.7-0.9-1.6-1.8-2.4-2.7
									c-0.8-0.9-1.7-1.8-2.5-2.6c-0.8-0.9-1.6-1.8-2.5-2.6c-0.8-0.9-1.6-1.8-2.3-2.7c-3-3.6-5.4-7.5-6.8-11.5c-0.4-1-0.6-2-0.9-3
									c-0.2-1-0.4-2-0.5-3c-0.3-1.9-0.3-3.8-0.2-5.6c0.3-3.6,1.1-6.7,2.2-9.3c1-2.6,2.2-4.7,3.2-6.4c1-1.7,1.9-2.9,2.5-3.8
									c0.6-0.8,0.9-1.3,0.9-1.3s-0.3,0.5-0.8,1.3c-0.5,0.9-1.3,2.2-2.1,3.9c-0.8,1.7-1.8,3.9-2.7,6.5c-0.8,2.6-1.5,5.6-1.5,9
									c0,1.7,0.1,3.5,0.5,5.2c0.3,1.8,0.8,3.6,1.6,5.4c1.5,3.7,3.8,7.2,6.8,10.5c0.8,0.8,1.5,1.7,2.3,2.5c0.8,0.8,1.7,1.7,2.5,2.5
									c0.9,0.9,1.7,1.7,2.6,2.6c0.9,0.9,1.8,1.8,2.6,2.8c1.7,2,3.1,4.4,4,7.1c0.9,2.7,1.1,5.6,0.7,8.4c-0.7,5.6-3.2,10.5-5.3,15
									c-2.1,4.4-3.7,8.9-4,13.2c-0.1,2.1,0.1,4.2,0.7,6.1c0.7,1.9,1.8,3.5,3.1,4.8c1.4,1.3,3,2.4,4.6,3.2c1.6,0.8,3.3,1.2,4.9,1.4
									c3.3,0.2,6.3-0.6,8.8-1.7c2.5-1.1,4.4-2.5,5.9-3.7c0.4-0.3,0.7-0.6,1.1-0.9c0.3-0.3,0.6-0.5,0.9-0.8c0.6-0.5,1-0.9,1.4-1.3
									C218,452.2,218.4,451.8,218.4,451.8z"/>
							</g>
						</g>
					</g>
					<g>
						<g>
							<g>
								<path d="M235.5,352.8c0,0-0.4-1.1-0.9-3.2c-0.6-2-1.3-5.1-2.6-8.6c-0.6-1.8-1.4-3.6-2.5-5.4c-1.2-1.6-3-2.8-5.2-3.7
									c-2.2-0.9-4.9-1.6-7.5-3.2c-2.5-1.7-4.5-3.9-6.4-6.1c-1.9-2.2-3.7-4.2-5.8-5.6c-2-1.3-4.4-2.1-6.6-2.2
									c-4.5-0.4-7,4.4-5.7,7.6c0.5,1.7,1.4,3.1,2.3,4.3c0.9,1.2,1.7,2.2,2.4,3.1c1.4,1.7,1.9,2.7,1.9,2.7s-0.8-0.9-2.3-2.3
									c-0.8-0.7-1.7-1.6-2.8-2.8c-1-1.1-2.2-2.5-3-4.4c-0.4-1-0.7-2.1-0.7-3.3c0-0.3,0-0.6,0.1-0.9c0.1-0.3,0.1-0.6,0.2-0.9
									c0.1-0.3,0.2-0.6,0.3-0.9l0.2-0.4l0.2-0.4c0.5-1.2,1.6-2.2,2.8-2.9c1.2-0.7,2.7-1.1,4.1-1.1c1.4,0,2.9,0.2,4.2,0.6
									c1.4,0.4,2.7,1,4.1,1.8c2.6,1.7,4.6,3.9,6.5,6.1c1,1.1,1.9,2.1,2.8,3.1l0.7,0.7l0.7,0.6c0.5,0.4,1,0.8,1.5,1.2
									c2,1.4,4.5,2.2,6.9,3.3c2.4,1.1,4.6,2.8,5.9,5c1.1,2.2,1.8,4.2,2.2,6.1c0.9,3.8,1.2,6.8,1.5,9
									C235.4,351.6,235.5,352.8,235.5,352.8z"/>
							</g>
						</g>
					</g>
					<path class="st5" d="M186.1,333.3c0.8-2.8,1.5-5.5,1.9-8.3c0.4-2.7,0.7-6,2.2-8.2c3.3-5,7.3-4.1,11.5-3.1
						c-2.5-1-7.2,0.3-8.6,3.5c-1.8,4.2,1.2,7.5,2.2,10.7c-1.8-0.6-3.3-4.2-5.8-2.4c-1.8,1.2-2.8,5.4-3.4,7.7"/>
					<g>
						<g>
							<g>
								<path d="M194.9,345.5c0,0-0.9,1.3-2.6,3.6c-1.7,2.3-4.4,5.4-7.2,9.5c-1.4,2.1-2.8,4.4-3.7,7.1c-0.9,2.7-1.2,5.7-0.4,8.6
									c0.4,1.5,1,3,1.8,4.4c0.4,0.7,0.8,1.5,1.3,2.1l0.3,0.5l0.4,0.5l0.8,1c2.2,2.5,5.2,4.6,8.6,5.8c6.8,2.6,14.5,2.3,21.1,5.2
									c0.8,0.4,1.6,0.8,2.4,1.2c0.7,0.5,1.4,1,2.1,1.4c0.2,0.1,0.3,0.3,0.5,0.4l0.6,0.5c0.5,0.5,1,0.9,1.5,1.4l0.4,0.3
									c0.1,0.1,0.4,0.2,0.1,0.3L222,400c-0.5,0.4-1,0.8-1.5,1.2c-2.2,1.9-4.1,3.8-5.2,5.9c-1.2,2.1-1.6,4.3-1.2,6.1
									c0.4,1.9,1.5,3.2,2.4,4.3c0.5,0.5,1,0.9,1.4,1.3c0.4,0.3,0.8,0.6,1.1,0.8c0.6,0.4,0.9,0.7,0.9,0.7s-0.3-0.2-1-0.5
									c-0.3-0.2-0.7-0.4-1.2-0.7c-0.4-0.3-1-0.7-1.5-1.1c-1-1-2.4-2.3-3-4.4c-0.7-2.1-0.3-4.7,0.8-7.1c1.1-2.4,3-4.7,5.2-6.8
									c0.1-0.1,0.1-0.2,0.2-0.2l0.1-0.1c0,0-0.1-0.1-0.1-0.1L219,399c0,0,0,0-0.1-0.1l-0.2-0.2c-0.1-0.1-0.3-0.2-0.4-0.3
									c-0.6-0.4-1.3-0.8-1.9-1.2c-0.7-0.3-1.4-0.6-2.1-0.9c-3-1.1-6.3-1.7-9.9-2.2c-3.6-0.5-7.5-1.1-11.3-2.5
									c-3.8-1.4-7.3-3.8-9.8-6.8c-0.3-0.4-0.6-0.8-0.9-1.1l-0.5-0.6l-0.4-0.6c-0.5-0.8-0.9-1.6-1.4-2.5c-0.8-1.7-1.4-3.4-1.8-5.2
									c-0.8-3.5-0.2-7.1,1-10c1.2-2.9,2.9-5.2,4.5-7.3c3.3-4,6.2-6.8,8.2-8.9C193.9,346.7,194.9,345.5,194.9,345.5z"/>
							</g>
						</g>
					</g>
					<g>
						<g>
							<g>
								<path d="M208,371.7c0,0-0.1-0.2-0.4-0.7c-0.2-0.5-0.6-1.1-1-1.8c-0.9-1.5-2.2-3.3-3.9-4.8c-0.8-0.8-1.7-1.5-2.6-2
									c-0.9-0.5-1.7-1-2.5-1.4c-0.8-0.4-1.4-0.6-1.9-0.8c-0.5-0.2-0.7-0.3-0.7-0.3s0.3-0.1,0.8-0.2c0.5-0.1,1.3-0.3,2.2-0.3
									c1,0,2.1,0.1,3.4,0.5c1.2,0.4,2.5,1.1,3.7,2.2c1.1,1,1.9,2.3,2.4,3.5c0.3,0.6,0.4,1.2,0.6,1.7c0.1,0.5,0.2,1.1,0.3,1.5
									c0.1,0.9,0.1,1.7,0,2.2C208.1,371.4,208,371.7,208,371.7z"/>
							</g>
						</g>
					</g>
					<g>
						<g>
							<g>
								<path d="M196.2,377c0,0-0.7-0.2-1.8-0.8c-1.1-0.5-2.3-1.5-3.4-2.8c-1-1.3-1.7-2.7-2.1-3.7c-0.4-1.1-0.6-1.9-0.6-1.9
									s0.7,0.2,1.8,0.8c1.1,0.5,2.3,1.5,3.4,2.8c1,1.3,1.7,2.7,2.1,3.7C196.1,376.2,196.2,377,196.2,377z"/>
							</g>
						</g>
					</g>
				</g>
				<g>
					<path class="st3" d="M236,353c-2.6-5.1-5.5-13.6-11.5-14.8c-7.3-1.4-14.8,5.1-20.9-1.1c-2.3-2.3-4.1-4.9-6.2-7.3
						c-1.9-2.2-5-5.2-5.9-7.9c-1.3-4,1-7.2,4.8-8.3c3.9-1.1,6.4,1.6,9.5,3.6c2.8,1.8,5.4,3.6,7.6,6.4c2.1,2.7,4.3,4.6,7.4,6.1
						c3.2,1.6,6.6,1.2,9.1,4.1c2.4,2.8,2.2,6.2,3.3,9.5c0.9,3,1.8,6.2,2.4,9.3"/>
					<path class="st3" d="M197,324c0.1-1.9-2.2-2.7-1.5-4.8c0.6-1.9,3-1.6,4.6-1.3c3.3,0.6,5.7,3.2,7.8,5.7c2,2.5,3.7,5,6.6,6.4
						c3.4,1.6,7.1,0.9,10.6,2.9c1.7,1,4,2.2,3.6,4.5c-1.7,0.3-2.8-1.4-4.5-1.7c-1.6-0.3-4-0.1-5.5,0.2c-3.2,0.6-7.1,2.3-10.5,1
						c-4.6-1.7-8.7-9.4-11.3-13.2"/>
					<path class="st6" d="M201.8,326c-1.2-1.9-6.8-6.4-3.2-7.2c2.5-0.6,6.4,2.9,7.9,4.6c2.3,2.5,3.3,5.7,6.3,7.4
						c3.1,1.8,7.2,1.5,10.6,2.2c1.8,0.4,2.9,0.8,3.9,2.5c-2.6,0.6-4.8-1.9-7.9-1.4c-2.8,0.4-4.9,1.9-8.1,1.7
						c-5.2-0.4-8.2-5.6-9.8-10"/>
					<path class="st3" d="M215.5,333.8c-5,0-6.8-0.5-9.8-4.4c-2.2-2.9-4.4-5.5-5.9-8.8c3.9-0.8,4.9,4,7.2,6.8c2.4,3,6,3.8,8.5,6.2
						c0,0.2-0.2,0.4-0.2,0.7"/>
					<path class="st7" d="M205.8,328.4c0.3-1.2-2.1-2.7-2.8-3.6c-0.5-0.6-1.1-1.2-1.4-1.9c-0.4-1.1,0.2-1.8,1.1-0.8
						c0.5,0.5,0.6,1.5,1,2.1c0.4,0.6,0.9,1.2,1.4,1.8c1,1.2,1.8,2.5,2.9,3.6c1.3,1.3,4.2,1.9,5,3.3c-1.5,0.3-6.4-3.1-7.1-4.4"/>
				</g>
				<path class="st3" d="M191.5,349.7c-1.3,0.6-2.2,2.3-3,3.5c-0.9,1.2-2.2,2.5-2.8,3.9c-1.2,3.1-0.6,8.2,0.9,10.9
					c-0.7-1.2,2.5-2.4,3.3-2.5c3.2-0.3,5.9,1.5,7.5,4.1c2.4,4,1.2,8.8,2,13.2c0.9,4.7,4.7,8.5,9.1,10.3c2.2,0.9,4.9,1,7.1,2.1
					c0.9,0.4,1.6,1.2,2.5,1.7c0.8,0.4,2.4,0.5,2.8,1.3c0.7,1.2-2.6,3.7-3.6,4.8c-1.5,1.8-2.7,3.7-3.7,5.6c0.1-4,6.3-8.3,2.1-11.9
					c-3.4-2.9-9.1-3-13.1-4.2c-4.6-1.4-9.7-2.1-13.8-5c-4.1-2.9-6.4-6.2-7.8-10.8c-1.5-5.1-1.9-10.3,1.2-15
					c2.2-3.5,4.6-7.2,7.6-10.1c0.2-0.2,0.4-0.4,0.6-0.5"/>
				<g class="st1">
					<g>
						<g>
							<path class="st2" d="M190.2,444c0,0,0.1,0.3,0.2,0.8c0.1,0.3,0.1,0.6,0.2,0.9c0.1,0.3,0.2,0.7,0.4,1.1
								c0.2,0.4,0.3,0.8,0.6,1.2c0.2,0.4,0.5,0.9,0.8,1.3c0.6,0.9,1.3,1.7,2.1,2.5c0.8,0.8,1.7,1.4,2.6,2c0.2,0.1,0.4,0.2,0.7,0.4
								c0.2,0.1,0.4,0.2,0.7,0.3c0.4,0.2,0.9,0.3,1.3,0.5c0.8,0.2,1.6,0.4,2.1,0.4c0.5,0.1,0.9,0.1,0.9,0.1s-0.2,0.2-0.7,0.5
								c-0.5,0.3-1.2,0.7-2.2,1c-0.5,0.1-1.1,0.2-1.7,0.2c-0.3,0-0.7,0-1,0c-0.3-0.1-0.7-0.1-1-0.2c-1.4-0.3-2.9-1.1-4.1-2.2
								c-1.2-1.2-2-2.6-2.4-4c-0.2-0.7-0.3-1.3-0.4-2c-0.1-0.6,0-1.2,0-1.7c0-0.5,0.2-1,0.3-1.4c0.1-0.4,0.3-0.7,0.4-1
								C190.1,444.3,190.2,444,190.2,444z"/>
						</g>
					</g>
				</g>
				<g class="st1">
					<g>
						<g>
							<path class="st2" d="M192,335c0,0-0.1,0.2-0.2,0.7c-0.1,0.4-0.2,1.1-0.5,1.9c-0.5,1.6-1.5,3.9-3,6.6
								c-0.8,1.3-1.6,2.7-2.6,4.3c-1,1.5-2,3.1-3.1,4.7c-2.1,3.3-4.4,6.9-5.7,11c-0.7,2-1,4-1,6c-0.1,2,0.2,3.9,0.7,5.7
								c1,3.6,2.8,6.6,4.3,9.1c1.6,2.5,3,4.5,3.9,5.9c0.9,1.4,1.4,2.2,1.4,2.2c0,0-0.7-0.6-1.9-1.8c-1.2-1.2-3-2.9-5-5.2
								c-2-2.3-4.4-5.3-5.9-9.3c-0.8-2-1.2-4.3-1.3-6.6c-0.1-2.4,0.3-4.9,1.1-7.2c1.6-4.7,4.3-8.5,6.7-11.7c1.2-1.6,2.5-3,3.6-4.4
								c1.1-1.4,2.2-2.6,3.1-3.8c1.9-2.3,3.3-4.3,4.1-5.7c0.5-0.7,0.7-1.3,0.9-1.7C191.9,335.2,192,335,192,335z"/>
						</g>
					</g>
				</g>
			</g>
			<g class="st1">
				<g>
					<g>
						<path class="st2" d="M220.2,383c0,0,0.1-0.5,0.2-1.5c0.1-0.5,0.1-1,0.2-1.7c0-0.3,0.1-0.7,0.1-1c0-0.4,0-0.8,0-1.2
							c0.1-1.6,0-3.6,0-5.7c-0.1-2.1-0.3-4.4-0.6-6.8c-0.3-2.4-0.7-4.7-1.1-6.8c-0.5-2-0.9-3.9-1.4-5.4c-0.1-0.4-0.2-0.8-0.4-1.1
							c-0.1-0.3-0.3-0.7-0.4-1c-0.2-0.6-0.4-1.1-0.7-1.6c-0.4-0.9-0.6-1.3-0.6-1.3s0.4,0.3,1.1,1c0.4,0.3,0.8,0.7,1.2,1.3
							c0.2,0.3,0.5,0.5,0.7,0.8c0.2,0.3,0.5,0.6,0.7,1c1,1.4,2,3.2,2.9,5.4c0.8,2.1,1.5,4.6,1.8,7.2c0.3,2.6,0.3,5.2,0,7.4
							c-0.3,2.3-0.7,4.3-1.3,5.9c-0.1,0.4-0.3,0.8-0.4,1.2c-0.2,0.4-0.3,0.7-0.4,1c-0.3,0.6-0.5,1.1-0.8,1.6
							C220.5,382.6,220.2,383,220.2,383z"/>
					</g>
				</g>
			</g>
		</g>
	</g>
</g>
</svg>
