<?xml version="1.0" encoding="utf-8"?>
<!-- Generator: Adobe Illustrator 25.0.1, SVG Export Plug-In . SVG Version: 6.00 Build 0)  -->
<svg version="1.1" id="Capa_1" xmlns="http://www.w3.org/2000/svg" xmlns:xlink="http://www.w3.org/1999/xlink" x="0px" y="0px"
	 viewBox="0 0 800 800" enable-background="new 0 0 800 800" xml:space="preserve">
<g id="cara_base">
	<g id="tono_1_copia">
		<g id="Capa_81_copia">
			<path fill="#D88F6F" d="M535.5,354c3.176-1.871,4.394-8.665,5.012-11.988c1.044-5.627,1.604-8.883,4.488-14.012
				c4.436-7.888,13.764-11.646,18.087-19.413c6.935-1.444,12.833,5.88,12.913,11.913c0.104,7.818-5.223,14.053-3.998,21.998
				c0.885,5.739,5.441,11.931,8.622,16.867c4.291,6.659,6.102,12.101,7.351,19.661c2.661,16.112-2.009,26.886-16.086,35.338
				c-5.614,3.37-8.843,7.256-8.389,14.637c0.427,6.933,2.262,12.865,3.512,19.488c1.741,9.23-0.838,14.155-9.123,16.9
				c-12.225,4.051-7.251-5.578-9.389-12.889c-2.026-6.928-4.268-12.453-5-20c-0.746-7.682-0.644-16.297-1.025-23.975
				c-0.51-10.229,0.094-18.748-2.96-28.04C536.707,371.947,535,364.17,535,354.5"/>
			<path fill="#D88F6F" d="M236.5,354.75c-2.307-5.901-2.146-13.772-5.5-19.25c-3.206-5.237-9.74-7.021-14.487-10.624
				c-4.949-3.756-9.118-9.75-15.027-11.362c-9.498-2.591-9.168,6.72-11.499,11.473c-2.824,5.762-4.498,12.115-8.112,17.888
				c-2.125,5.875-7.128,11.347-9.751,17.747c-5.8,14.152,2.942,25.519,11.001,36.752c4.056,5.652,8.162,8.899,8.986,16.014
				c1.065,9.195-2.191,12.518-5.234,20.5c-2.043,5.359-4.035,16.348,0.125,21.109c4.986,5.708,9.99,7.946,16.498,6.002
				c4.67-1.395,10.405-4.004,13.5-8.25c-1.092-0.302,1.2-2.546,0.087-2.837c-1.22-13.264,7.743-27.666,11.44-39.886
				c4.452-14.711,5.43-28.761,6.947-44.553c0.401-4.178,0.019-7.219,0.276-11.474"/>
			<path d="M559.644,498.634c-0.491-5.268-1.433-10.087-2.464-14.421c-2.101-8.665-4.445-15.451-6.005-20.153
				c-0.042-0.121-0.081-0.235-0.121-0.354c-0.129-0.775-0.263-1.575-0.399-2.396c-0.126-0.83-0.137-1.74-0.216-2.638
				c-0.067-0.899-0.099-1.897-0.152-2.874c-0.037-0.979-0.201-2.069-0.306-3.135c-0.693-4.383-2.815-8.394-3.723-12.628
				c-0.912-4.336-1.055-9.121-1.313-14.221c-0.059-1.277-0.161-2.557-0.264-3.845c-0.079-1.277-0.1-2.53-0.156-3.809
				c-0.084-2.558-0.116-5.189-0.143-7.849c-0.076-6.941-0.142-13.815-0.978-20.468c-0.148-1.669-0.505-3.29-0.778-4.907
				c-0.136-0.804-0.291-1.611-0.485-2.432c-0.171-0.818-0.364-1.623-0.616-2.402c-0.924-3.15-2.104-6.014-2.986-8.798
				c-0.453-1.391-0.791-2.757-1.059-4.112c-0.09-0.682-0.18-1.358-0.268-2.031c-0.047-0.704-0.092-1.403-0.138-2.097
				c-0.164-2.778-0.085-5.523-0.096-8.229c-0.053-5.404-0.19-10.389-0.599-14.983c-0.111-1.145-0.17-2.263-0.318-3.349
				c-0.156-1.084-0.309-2.14-0.457-3.167c-0.074-0.513-0.148-1.018-0.221-1.515c-0.085-0.498-0.21-0.987-0.312-1.468
				c-0.107-0.48-0.214-0.953-0.318-1.418c-0.13-0.456-0.257-0.903-0.383-1.344c-0.079-0.269-0.157-0.512-0.236-0.774
				c-0.174-1.766-0.488-3.563-0.733-5.418c-0.293-1.938-0.512-3.941-0.964-5.956c-1.361-8.146-3.945-16.89-7.569-25.924
				c-3.61-9.045-8.727-18.244-15.24-27.067c-6.514-8.836-14.378-17.3-23.435-25.123c-9.15-7.712-19.774-14.438-31.604-19.188
				c-5.906-2.38-11.953-4.22-18.027-5.493c-6.084-1.313-12.167-1.869-18.103-2.312c-11.917-0.694-23.371-0.217-34.202,0.358
				c-5.426,0.276-10.673,0.616-15.808,0.799c-5.141,0.213-10.163,0.521-15.003,1.062c-9.678,1.167-18.572,3.412-26.247,6.507
				c-1.903,0.811-3.785,1.544-5.57,2.365c-1.768,0.855-3.489,1.688-5.163,2.499c-2.029,1.118-3.989,2.169-5.852,3.233
				c-4.889,2.408-10.258,5.368-15.918,9.046c-6.081,3.935-12.496,8.673-18.831,14.425c-6.356,5.723-12.505,12.591-18.043,20.505
				c-0.72,0.97-1.361,2.004-2.021,3.032c-0.652,1.034-1.341,2.055-1.974,3.119c-1.211,2.158-2.536,4.289-3.631,6.573
				c-2.391,4.471-4.299,9.29-6.112,14.234c-3.529,9.938-5.587,20.678-6.975,31.655c-1.374,10.993-1.993,21.743-2.724,32.06
				c-0.726,10.317-1.589,20.227-3.119,29.541c-0.402,2.324-0.743,4.633-1.265,6.867c-0.492,2.24-0.896,4.482-1.538,6.597
				c-0.296,1.068-0.59,2.129-0.881,3.181c-0.347,1.043-0.691,2.078-1.032,3.105c-0.65,2.059-1.441,4.062-2.15,6.045
				c-2.775,7.376-5.438,14.414-6.835,21.196c-0.288,1.02-0.512,2.057-0.785,3.071c-0.65,2.583-0.794,5.264-0.665,7.789
				c0.044,0.968,0.129,1.912,0.226,2.844c0.072,2.576,0.287,5.027,0.582,7.309c0.16,1.293,0.333,2.536,0.509,3.74
				c-0.028,3.882-0.206,7.204,0.19,9.634v0.001c-0.082,0.733-0.129,1.479-0.042,2.272c0.088,0.814,0.694,2.673,1.462,3.553
				c-0.013,0.083-0.03,0.163-0.042,0.246c-1.242,8.405-1.227,17.479,0.628,26.607c1.812,9.137,5.762,18.182,11.256,26.304
				c2.741,4.068,5.757,7.877,8.905,11.412c1.59,1.747,3.126,3.525,4.732,5.204c1.613,1.669,3.213,3.324,4.799,4.966
				c6.437,6.46,12.882,12.392,18.936,18.1c0.93,0.867,1.826,1.724,2.732,2.583c0.921,0.979,1.882,1.989,2.888,3.037
				c3.805,3.918,8.242,8.28,13.176,13.046c0.824,0.802,1.68,1.635,2.53,2.462c3.477,3.585,6.78,6.99,9.865,10.171
				c4.415,4.526,8.417,8.609,11.936,12.188c2.864,3.218,5.767,6.58,8.751,10.04c5.944,6.852,12.198,14.122,19.5,20.976
				c7.281,6.816,15.776,13.241,25.803,17.329c4.999,2.028,10.198,3.402,15.394,4.13c5.194,0.734,10.395,0.827,15.401,0.49
				c10.062-0.515,19.699-3.025,28.1-6.883c8.444-3.833,15.69-8.896,21.919-14.139c3.129-2.614,6.01-5.29,8.685-7.946
				c2.688-2.646,5.169-5.272,7.483-7.822c4.635-5.097,8.624-9.867,12.098-14.073c3.454-4.219,6.43-7.853,8.861-10.822
				c0.199-0.243,0.39-0.476,0.582-0.71c0.897-1.004,1.824-2.04,2.807-3.139c1.351-1.461,2.778-3.005,4.277-4.627
				c6.056-6.435,13.383-13.947,22.008-21.807c8.561-7.913,18.341-16.421,27.379-26.686c1.121-1.286,2.264-2.544,3.344-3.837
				c1.04-1.325,2.073-2.643,3.099-3.949c2.048-2.587,4.089-5.233,5.778-8.085c3.395-5.671,5.488-11.804,6.503-17.739
				C560.152,509.629,560.138,503.893,559.644,498.634z M555.932,514.984c-1.133,5.559-3.217,11.189-6.459,16.41
				c-1.604,2.608-3.559,5.082-5.615,7.634c-1.013,1.274-2.032,2.558-3.059,3.85c-1.064,1.262-2.184,2.487-3.28,3.746
				c-8.829,10.032-18.353,18.649-26.726,26.88c-8.435,8.18-15.491,16.113-21.205,22.896c-1.41,1.714-2.754,3.345-4.024,4.889
				c-1.236,1.568-2.401,3.047-3.491,4.43c-2.163,2.775-4.026,5.166-5.549,7.12c-0.119,0.154-0.222,0.288-0.336,0.437
				c-0.837,0.934-1.704,1.902-2.603,2.906c-3.642,4.053-7.804,8.65-12.579,13.544c-2.386,2.448-4.93,4.965-7.664,7.489
				c-2.722,2.537-5.635,5.082-8.77,7.555c-6.243,4.963-13.395,9.688-21.57,13.2c-8.156,3.539-17.299,5.773-26.981,6.168
				c-4.847,0.272-9.743,0.139-14.645-0.58c-4.897-0.714-9.768-2.017-14.476-3.926c-9.43-3.844-17.58-9.896-24.744-16.46
				c-7.179-6.592-13.492-13.688-19.567-20.417c-6.058-6.746-11.89-13.169-17.736-18.806c-2.927-2.805-5.753-5.489-8.5-8.048
				c-0.843-0.767-1.654-1.505-2.476-2.253c-2.205-2.436-4.487-4.958-6.852-7.571c-2.464-2.763-5.131-5.541-7.869-8.412
				c-2.779-2.819-5.645-5.722-8.631-8.631c-5.943-5.854-12.268-11.881-18.556-18.342c-1.547-1.635-3.108-3.284-4.682-4.946
				c-1.567-1.668-3.056-3.421-4.608-5.145c-3.057-3.476-5.938-7.143-8.57-11.048c-5.27-7.806-9.02-16.265-10.845-24.906
				c-1.861-8.636-2.034-17.305-1.019-25.394c2.035-16.267,9.229-29.813,16.761-39.629c3.835-4.885,8.102-8.628,11.962-11.772
				c3.87-3.137,7.405-5.604,10.284-7.63c5.79-4.019,8.992-6.24,8.992-6.24s-3.321,2.042-9.327,5.734
				c-2.984,1.878-6.647,4.174-10.698,7.162c-4.027,2.987-8.56,6.627-12.714,11.517c-4.097,4.897-8.018,10.738-11.34,17.487
				c-2.576,5.181-4.643,10.983-6.053,17.201c-0.139-0.154-0.3-0.301-0.468-0.465c-0.283-2.409-0.635-5.092-0.968-8.059
				c-0.001-0.566-0.004-1.144-0.01-1.741c-0.024-1.018-0.057-2.086-0.201-3.197c-0.153-1.078-0.312-2.193-0.475-3.338
				c-0.021-0.147-0.044-0.298-0.066-0.446c-0.222-4.815,0.001-10.117,1.256-15.692c1.492-6.946,4.496-14.181,7.698-22.041
				c0.772-1.985,1.615-3.97,2.337-6.067c0.375-1.041,0.752-2.091,1.132-3.147c0.344-1.074,0.658-2.172,0.991-3.27
				c0.717-2.193,1.176-4.452,1.728-6.732c0.582-2.275,0.976-4.613,1.431-6.974c1.739-9.453,2.762-19.475,3.596-29.82
				c0.839-10.347,1.519-21.034,2.872-31.858c1.366-10.809,3.319-21.281,6.637-30.932c1.707-4.797,3.491-9.49,5.744-13.853
				c1.027-2.23,2.281-4.314,3.418-6.429c0.596-1.042,1.248-2.044,1.862-3.059c0.624-1.01,1.226-2.026,1.909-2.982
				c5.233-7.791,11.069-14.634,17.148-20.409c6.055-5.803,12.225-10.663,18.099-14.751c1.131-0.79,2.248-1.543,3.355-2.275
				c0.365-0.229,0.727-0.454,1.099-0.693c1.176-0.744,2.402-1.52,3.678-2.328c1.294-0.776,2.667-1.533,4.072-2.344
				c2.783-1.672,5.915-3.168,9.185-4.835c1.676-0.747,3.399-1.515,5.168-2.303c1.783-0.754,3.655-1.418,5.546-2.159
				c7.629-2.816,16.35-4.764,25.841-5.685c4.757-0.418,9.698-0.613,14.826-0.722c5.135-0.08,10.447-0.323,15.853-0.507
				c10.821-0.395,22.161-0.708,33.809,0.076c5.818,0.488,11.723,1.07,17.557,2.36c5.846,1.253,11.669,3.04,17.368,5.337
				c11.415,4.581,21.729,11.034,30.675,18.438c8.868,7.521,16.703,15.724,23.198,24.238c6.508,8.518,11.672,17.362,15.417,26.136
				c3.752,8.758,6.521,17.246,8.102,25.24c0.108,0.91,0.433,1.932,0.649,3.069c0.18,0.87-0.178,1.824,0.822,2.815
				c0,0.001,0,0.002,0,0.003c0,1.915,0.541,3.767,0.766,5.594c0.447,3.652,0.915,7.084,1.169,10.326
				c0.246,2.562,0.448,4.979,0.623,7.258c0,3.149-0.097,6.465-0.211,9.928c-0.102,2.649-0.304,5.448-0.24,8.375
				c0.021,0.731,0.038,1.469,0.06,2.211c0.075,0.766,0.147,1.538,0.224,2.314c0.246,1.534,0.577,3.07,1.014,4.559
				c0.852,2.986,1.95,5.877,2.73,8.803c0.219,0.728,0.376,1.468,0.513,2.215c0.159,0.734,0.29,1.501,0.407,2.288
				c0.231,1.561,0.55,3.125,0.664,4.729c0.698,6.38,0.71,13.115,0.784,20.074c0.027,2.666,0.067,5.312,0.172,7.961
				c0.065,1.324,0.102,2.66,0.195,3.947c0.114,1.272,0.229,2.535,0.303,3.783c0.323,4.987,0.547,10.023,1.667,14.772
				c0.604,2.403,1.458,4.609,2.241,6.611c0.409,1.026,0.727,1.995,1.088,2.969c0.155,0.479,0.277,0.946,0.419,1.414
				c0.13,0.467,0.302,0.921,0.34,1.402c0.646,3.715,0.577,7.708,1.613,11.191c-0.011-0.047-0.021-0.094-0.025-0.11
				c0.459,1.792,0.905,3.539,1.34,5.238c0.475,1.679,1.056,3.257,1.557,4.815c0.508,1.562,1.042,3.024,1.541,4.466
				c0.252,0.718,0.5,1.424,0.744,2.118c0.216,0.696,0.428,1.381,0.637,2.054c0.717,2.074,1.246,4.061,1.654,5.95
				c0.464,3.12,0.841,6.414,1.011,9.885C557.253,503.934,557.048,509.413,555.932,514.984z"/>
			<g opacity="0.3">
				<g>
					<g>
						<path d="M410.5,614.999c0,0-0.688-0.006-1.864-0.07c-1.166-0.092-2.859-0.111-4.852-0.135
							c-1.008,0.025-2.075-0.018-3.233,0.055c-0.57,0.017-1.16,0.034-1.768,0.053c-0.609,0.041-1.232,0.075-1.865,0.1
							c-2.547,0.149-5.317,0.34-8.298,0.462c-5.957,0.291-11.729-0.019-15.912-0.758c-2.09-0.363-3.773-0.771-4.926-1.129
							c-1.153-0.345-1.78-0.577-1.78-0.577s0.632-0.253,1.756-0.636c1.125-0.37,2.735-0.932,4.709-1.534
							c3.951-1.19,9.365-2.806,15.827-3.126c3.229-0.135,6.389,0.162,9.207,0.77c0.706,0.165,1.389,0.337,2.048,0.512
							c0.659,0.185,1.291,0.42,1.898,0.63c1.217,0.398,2.306,0.945,3.285,1.413c1.941,1.012,3.399,1.984,4.336,2.767
							C410.014,614.551,410.5,614.999,410.5,614.999z"/>
					</g>
				</g>
			</g>
			<g opacity="0.3">
				<g>
					<g>
						<path fill="#FFFFFF" d="M442.999,634.999c0,0-0.136,0.61-0.484,1.728c-0.091,0.276-0.18,0.6-0.313,0.927
							c-0.147,0.322-0.305,0.673-0.476,1.049c-0.184,0.378-0.38,0.782-0.588,1.21c-0.231,0.412-0.5,0.827-0.782,1.274
							c-1.109,1.811-2.769,3.709-4.836,5.564c-2.088,1.815-4.633,3.48-7.477,4.797c-5.725,2.597-11.414,3.202-15.467,3.144
							c-1.015,0.001-1.939-0.063-2.747-0.135c-0.807-0.064-1.501-0.147-2.07-0.242c-1.136-0.176-1.759-0.316-1.759-0.316
							s0.555-0.341,1.549-0.879c0.494-0.267,1.098-0.594,1.798-0.972c0.691-0.365,1.479-0.78,2.349-1.239
							c3.468-1.799,8.095-4.144,13.122-6.428c2.512-1.133,4.904-2.211,7.082-3.193c2.141-1.031,4.147-1.95,5.754-2.892
							c0.416-0.229,0.812-0.447,1.188-0.653c0.362-0.229,0.704-0.444,1.023-0.647c0.333-0.203,0.642-0.392,0.928-0.565
							c0.282-0.181,0.517-0.367,0.746-0.525C442.442,635.363,442.999,635,442.999,634.999z"/>
					</g>
				</g>
			</g>
			<g opacity="0.3">
				<g>
					<g>
						<path fill="#FFFFFF" d="M233.999,473c0,0,0.006,0.842-0.04,2.298c-0.014,0.361-0.029,0.763-0.046,1.202
							c-0.008,0.439,0.015,0.921,0.017,1.43c0.026,1.022-0.028,2.154,0.071,3.419c0.026,0.624,0.054,1.276,0.082,1.957
							c0.023,0.675,0.119,1.383,0.166,2.104c0.074,1.441,0.294,2.976,0.449,4.57c0.418,3.194,0.931,6.647,1.593,10.267
							c0.685,3.615,1.41,7.058,2.116,10.234c0.417,1.564,0.713,3.103,1.119,4.507c0.181,0.715,0.356,1.405,0.524,2.068
							c0.189,0.661,0.37,1.296,0.543,1.902c0.316,1.234,0.67,2.329,0.962,3.312c0.143,0.495,0.276,0.956,0.399,1.381
							c0.138,0.42,0.263,0.804,0.377,1.149c0.447,1.392,0.668,2.2,0.668,2.2s-0.622-0.532-1.7-1.561
							c-0.269-0.261-0.566-0.55-0.893-0.867c-0.304-0.335-0.633-0.698-0.988-1.089c-0.706-0.79-1.512-1.699-2.294-2.778
							c-0.397-0.54-0.813-1.105-1.247-1.694c-0.393-0.615-0.802-1.256-1.226-1.919c-0.868-1.326-1.609-2.835-2.421-4.424
							c-1.496-3.223-2.81-6.952-3.577-11.016c-0.746-4.069-0.816-8.057-0.508-11.626c0.207-1.788,0.42-3.473,0.811-5.026
							c0.185-0.777,0.329-1.525,0.551-2.232c0.229-0.702,0.448-1.376,0.658-2.02c0.394-1.281,0.94-2.392,1.369-3.361
							c0.225-0.482,0.42-0.932,0.635-1.335c0.227-0.396,0.436-0.759,0.623-1.084C233.548,473.677,233.999,473,233.999,473z"/>
					</g>
				</g>
			</g>
			<path fill="#D88F6F" d="M553.543,474.47c-1.079-2.279-1.914-4.724-2.515-7.246c-2.575-10.814-4.621-21.942-6.641-32.874
				c-1.259-6.812-2.523-13.85-2.491-20.798c0.029-6.52,0.791-13.088,0.381-19.604c-0.396-6.279-1.516-12.443-2.622-18.614
				c-1.51-3.799-2.474-7.667-2.848-11.632c-0.447,0.539-0.901,1.073-1.332,1.623c0.253-16.188,0.3-31.656-3.587-46.213
				c-3.44-12.882-6.904-25.372-12.512-37.988c-2.521-5.672-5.197-11.362-9.514-16.012c-4.216-4.54-9.035-7.85-12.725-12.75
				c-1.663-2.209-3.073-5.303-5.515-6.985c-0.11-0.076-0.22-0.135-0.33-0.204c-0.355-0.443-0.7-0.861-0.981-1.235
				c-4.073-5.421-9.255-8.632-14.882-11.868c-5.68-3.266-10.877-6.989-16.931-9.569c-6.079-2.591-12.3-5.109-18.507-7.243
				c-7.23-2.485-14.667-2.757-22.743-2.757c-16.343,0-33.216-0.322-49.194,1.056c-7.496,0.646-15.565,1.095-23.05,2.2
				c-6.83,1.009-13.437,3.167-19.944,5.556c-5.837,2.142-12.563,4.507-17.762,8.001c-5.266,3.538-11.219,6.499-16.368,10.12
				c-4.979,3.501-9.609,7.443-14.244,11.756c-1.857,1.729-3.234,3.741-4.414,5.885c-0.688,0.79-1.392,1.639-2.137,2.564
				c-3.901,4.842-8.579,9.525-12.274,14.751c-15.749,22.277-18.598,51.537-19.936,78.534c-0.436-0.047-0.879-0.117-1.326-0.199
				c0.018,7.257-0.43,14.52-0.559,21.853c-0.231,13.154-2.445,25.615-7.57,37.8c-4.845,11.518-11.651,24.646-11.932,37.363
				c-0.145,6.565,1.529,11.873,1.627,18.428c0.017,1.137-0.139,1.454-0.166,2.583c0.307-0.25-0.067,1.509,0.25,1.25
				c2.404,3.459,1.696,7.185,1.139,10.889c-0.577,3.839-0.22,7.608,0.502,11.221c1.344,6.728,3.4,13.191,5.219,19.781
				c3.509,12.713,8.453,23.085,19.502,31.998c18.463,14.895,34.834,33.255,51.139,51.111c9.375,10.268,19.343,20.573,28.613,30.637
				c7.93,8.609,14.086,15.33,23.137,22.613c7.327,5.894,18.082,12.687,27.25,14.75c9.708,2.185,27.354,2.394,35.25-2.5l0.5,2
				c5.723-3.768,12.452-5.059,18.514-7.875c5.552-2.581,10.014-6.851,14.861-10.749c9.835-7.911,18.901-15.271,26.875-25.126
				c7.67-9.479,16.387-18.644,24.25-27.75c8.198-9.492,18.07-18.076,27.376-26.624c8.979-8.247,16.656-17.845,24.261-27.239
				C556.05,527.509,559,514.905,559,500C559,490.425,556.255,482.709,553.543,474.47z"/>
			<path d="M559.644,498.634c-0.491-5.268-1.433-10.087-2.464-14.421c-2.101-8.665-4.445-15.451-6.005-20.153
				c-0.042-0.121-0.081-0.235-0.121-0.354c-0.129-0.775-0.263-1.575-0.399-2.396c-0.126-0.83-0.137-1.74-0.216-2.638
				c-0.067-0.899-0.099-1.897-0.152-2.874c-0.037-0.979-0.201-2.069-0.306-3.135c-0.693-4.383-2.815-8.394-3.723-12.628
				c-0.912-4.336-1.055-9.121-1.313-14.221c-0.059-1.277-0.161-2.557-0.264-3.845c-0.079-1.277-0.1-2.53-0.156-3.809
				c-0.084-2.558-0.116-5.189-0.143-7.849c-0.076-6.941-0.142-13.815-0.978-20.468c-0.148-1.669-0.505-3.29-0.778-4.907
				c-0.136-0.804-0.291-1.611-0.485-2.432c-0.171-0.818-0.364-1.623-0.616-2.402c-0.924-3.15-2.104-6.014-2.986-8.798
				c-0.453-1.391-0.791-2.757-1.059-4.112c-0.09-0.682-0.18-1.358-0.268-2.031c-0.047-0.704-0.092-1.403-0.138-2.097
				c-0.164-2.778-0.085-5.523-0.096-8.229c-0.053-5.404-0.19-10.389-0.599-14.983c-0.111-1.145-0.17-2.263-0.318-3.349
				c-0.156-1.084-0.309-2.14-0.457-3.167c-0.074-0.513-0.148-1.018-0.221-1.515c-0.085-0.498-0.21-0.987-0.312-1.468
				c-0.107-0.48-0.214-0.953-0.318-1.418c-0.13-0.456-0.257-0.903-0.383-1.344c-0.079-0.269-0.157-0.512-0.236-0.774
				c-0.174-1.766-0.488-3.563-0.733-5.418c-0.293-1.938-0.512-3.941-0.964-5.956c-1.361-8.146-3.945-16.89-7.569-25.924
				c-3.61-9.045-8.727-18.244-15.24-27.067c-6.514-8.836-14.378-17.3-23.435-25.123c-9.15-7.712-19.774-14.438-31.604-19.188
				c-5.906-2.38-11.953-4.22-18.027-5.493c-6.084-1.313-12.167-1.869-18.103-2.312c-11.917-0.694-23.371-0.217-34.202,0.358
				c-5.426,0.276-10.673,0.616-15.808,0.799c-5.141,0.213-10.163,0.521-15.003,1.062c-9.678,1.167-18.572,3.412-26.247,6.507
				c-1.903,0.811-3.785,1.544-5.57,2.365c-1.768,0.855-3.489,1.688-5.163,2.499c-2.029,1.118-3.989,2.169-5.852,3.233
				c-4.889,2.408-10.258,5.368-15.918,9.046c-6.081,3.935-12.496,8.673-18.831,14.425c-6.356,5.723-12.505,12.591-18.043,20.505
				c-0.72,0.97-1.361,2.004-2.021,3.032c-0.652,1.034-1.341,2.055-1.974,3.119c-1.211,2.158-2.536,4.289-3.631,6.573
				c-2.391,4.471-4.299,9.29-6.112,14.234c-3.529,9.938-5.587,20.678-6.975,31.655c-1.374,10.993-1.993,21.743-2.724,32.06
				c-0.726,10.317-1.589,20.227-3.119,29.541c-0.402,2.324-0.743,4.633-1.265,6.867c-0.492,2.24-0.896,4.482-1.538,6.597
				c-0.296,1.068-0.59,2.129-0.881,3.181c-0.347,1.043-0.691,2.078-1.032,3.105c-0.65,2.059-1.441,4.062-2.15,6.045
				c-2.775,7.376-5.438,14.414-6.835,21.196c-0.288,1.02-0.512,2.057-0.785,3.071c-0.65,2.583-0.794,5.264-0.665,7.789
				c0.044,0.968,0.129,1.912,0.226,2.844c0.072,2.576,0.287,5.027,0.582,7.309c0.16,1.293,0.333,2.536,0.509,3.74
				c-0.028,3.882-0.206,7.204,0.19,9.634v0.001c-0.082,0.733-0.129,1.479-0.042,2.272c0.088,0.814,0.694,2.673,1.462,3.553
				c-0.013,0.083-0.03,0.163-0.042,0.246c-1.242,8.405-1.227,17.479,0.628,26.607c1.812,9.137,5.762,18.182,11.256,26.304
				c2.741,4.068,5.757,7.877,8.905,11.412c1.59,1.747,3.126,3.525,4.732,5.204c1.613,1.669,3.213,3.324,4.799,4.966
				c6.437,6.46,12.882,12.392,18.936,18.1c0.93,0.867,1.826,1.724,2.732,2.583c0.921,0.979,1.882,1.989,2.888,3.037
				c3.805,3.918,8.242,8.28,13.176,13.046c0.824,0.802,1.68,1.635,2.53,2.462c3.477,3.585,6.78,6.99,9.865,10.171
				c4.415,4.526,8.417,8.609,11.936,12.188c2.864,3.218,5.767,6.58,8.751,10.04c5.944,6.852,12.198,14.122,19.5,20.976
				c7.281,6.816,15.776,13.241,25.803,17.329c4.999,2.028,10.198,3.402,15.394,4.13c5.194,0.734,10.395,0.827,15.401,0.49
				c10.062-0.515,19.699-3.025,28.1-6.883c8.444-3.833,15.69-8.896,21.919-14.139c3.129-2.614,6.01-5.29,8.685-7.946
				c2.688-2.646,5.169-5.272,7.483-7.822c4.635-5.097,8.624-9.867,12.098-14.073c3.454-4.219,6.43-7.853,8.861-10.822
				c0.199-0.243,0.39-0.476,0.582-0.71c0.897-1.004,1.824-2.04,2.807-3.139c1.351-1.461,2.778-3.005,4.277-4.627
				c6.056-6.435,13.383-13.947,22.008-21.807c8.561-7.913,18.341-16.421,27.379-26.686c1.121-1.286,2.264-2.544,3.344-3.837
				c1.04-1.325,2.073-2.643,3.099-3.949c2.048-2.587,4.089-5.233,5.778-8.085c3.395-5.671,5.488-11.804,6.503-17.739
				C560.152,509.629,560.138,503.893,559.644,498.634z M555.932,514.984c-1.133,5.559-3.217,11.189-6.459,16.41
				c-1.604,2.608-3.559,5.082-5.615,7.634c-1.013,1.274-2.032,2.558-3.059,3.85c-1.064,1.262-2.184,2.487-3.28,3.746
				c-8.829,10.032-18.353,18.649-26.726,26.88c-8.435,8.18-15.491,16.113-21.205,22.896c-1.41,1.714-2.754,3.345-4.024,4.889
				c-1.236,1.568-2.401,3.047-3.491,4.43c-2.163,2.775-4.026,5.166-5.549,7.12c-0.119,0.154-0.222,0.288-0.336,0.437
				c-0.837,0.934-1.704,1.902-2.603,2.906c-3.642,4.053-7.804,8.65-12.579,13.544c-2.386,2.448-4.93,4.965-7.664,7.489
				c-2.722,2.537-5.635,5.082-8.77,7.555c-6.243,4.963-13.395,9.688-21.57,13.2c-8.156,3.539-17.299,5.773-26.981,6.168
				c-4.847,0.272-9.743,0.139-14.645-0.58c-4.897-0.714-9.768-2.017-14.476-3.926c-9.43-3.844-17.58-9.896-24.744-16.46
				c-7.179-6.592-13.492-13.688-19.567-20.417c-6.058-6.746-11.89-13.169-17.736-18.806c-2.927-2.805-5.753-5.489-8.5-8.048
				c-0.843-0.767-1.654-1.505-2.476-2.253c-2.205-2.436-4.487-4.958-6.852-7.571c-2.464-2.763-5.131-5.541-7.869-8.412
				c-2.779-2.819-5.645-5.722-8.631-8.631c-5.943-5.854-12.268-11.881-18.556-18.342c-1.547-1.635-3.108-3.284-4.682-4.946
				c-1.567-1.668-3.056-3.421-4.608-5.145c-3.057-3.476-5.938-7.143-8.57-11.048c-5.27-7.806-9.02-16.265-10.845-24.906
				c-1.861-8.636-2.034-17.305-1.019-25.394c2.035-16.267,9.229-29.813,16.761-39.629c3.835-4.885,8.102-8.628,11.962-11.772
				c3.87-3.137,7.405-5.604,10.284-7.63c5.79-4.019,8.992-6.24,8.992-6.24s-3.321,2.042-9.327,5.734
				c-2.984,1.878-6.647,4.174-10.698,7.162c-4.027,2.987-8.56,6.627-12.714,11.517c-4.097,4.897-8.018,10.738-11.34,17.487
				c-2.576,5.181-4.643,10.983-6.053,17.201c-0.139-0.154-0.3-0.301-0.468-0.465c-0.283-2.409-0.635-5.092-0.968-8.059
				c-0.001-0.566-0.004-1.144-0.01-1.741c-0.024-1.018-0.057-2.086-0.201-3.197c-0.153-1.078-0.312-2.193-0.475-3.338
				c-0.021-0.147-0.044-0.298-0.066-0.446c-0.222-4.815,0.001-10.117,1.256-15.692c1.492-6.946,4.496-14.181,7.698-22.041
				c0.772-1.985,1.615-3.97,2.337-6.067c0.375-1.041,0.752-2.091,1.132-3.147c0.344-1.074,0.658-2.172,0.991-3.27
				c0.717-2.193,1.176-4.452,1.728-6.732c0.582-2.275,0.976-4.613,1.431-6.974c1.739-9.453,2.762-19.475,3.596-29.82
				c0.839-10.347,1.519-21.034,2.872-31.858c1.366-10.809,3.319-21.281,6.637-30.932c1.707-4.797,3.491-9.49,5.744-13.853
				c1.027-2.23,2.281-4.314,3.418-6.429c0.596-1.042,1.248-2.044,1.862-3.059c0.624-1.01,1.226-2.026,1.909-2.982
				c5.233-7.791,11.069-14.634,17.148-20.409c6.055-5.803,12.225-10.663,18.099-14.751c1.131-0.79,2.248-1.543,3.355-2.275
				c0.365-0.229,0.727-0.454,1.099-0.693c1.176-0.744,2.402-1.52,3.678-2.328c1.294-0.776,2.667-1.533,4.072-2.344
				c2.783-1.672,5.915-3.168,9.185-4.835c1.676-0.747,3.399-1.515,5.168-2.303c1.783-0.754,3.655-1.418,5.546-2.159
				c7.629-2.816,16.35-4.764,25.841-5.685c4.757-0.418,9.698-0.613,14.826-0.722c5.135-0.08,10.447-0.323,15.853-0.507
				c10.821-0.395,22.161-0.708,33.809,0.076c5.818,0.488,11.723,1.07,17.557,2.36c5.846,1.253,11.669,3.04,17.368,5.337
				c11.415,4.581,21.729,11.034,30.675,18.438c8.868,7.521,16.703,15.724,23.198,24.238c6.508,8.518,11.672,17.362,15.417,26.136
				c3.752,8.758,6.521,17.246,8.102,25.24c0.108,0.91,0.433,1.932,0.649,3.069c0.18,0.87-0.178,1.824,0.822,2.815
				c0,0.001,0,0.002,0,0.003c0,1.915,0.541,3.767,0.766,5.594c0.447,3.652,0.915,7.084,1.169,10.326
				c0.246,2.562,0.448,4.979,0.623,7.258c0,3.149-0.097,6.465-0.211,9.928c-0.102,2.649-0.304,5.448-0.24,8.375
				c0.021,0.731,0.038,1.469,0.06,2.211c0.075,0.766,0.147,1.538,0.224,2.314c0.246,1.534,0.577,3.07,1.014,4.559
				c0.852,2.986,1.95,5.877,2.73,8.803c0.219,0.728,0.376,1.468,0.513,2.215c0.159,0.734,0.29,1.501,0.407,2.288
				c0.231,1.561,0.55,3.125,0.664,4.729c0.698,6.38,0.71,13.115,0.784,20.074c0.027,2.666,0.067,5.312,0.172,7.961
				c0.065,1.324,0.102,2.66,0.195,3.947c0.114,1.272,0.229,2.535,0.303,3.783c0.323,4.987,0.547,10.023,1.667,14.772
				c0.604,2.403,1.458,4.609,2.241,6.611c0.409,1.026,0.727,1.995,1.088,2.969c0.155,0.479,0.277,0.946,0.419,1.414
				c0.13,0.467,0.302,0.921,0.34,1.402c0.646,3.715,0.577,7.708,1.613,11.191c-0.011-0.047-0.021-0.094-0.025-0.11
				c0.459,1.792,0.905,3.539,1.34,5.238c0.475,1.679,1.056,3.257,1.557,4.815c0.508,1.562,1.042,3.024,1.541,4.466
				c0.252,0.718,0.5,1.424,0.744,2.118c0.216,0.696,0.428,1.381,0.637,2.054c0.717,2.074,1.246,4.061,1.654,5.95
				c0.464,3.12,0.841,6.414,1.011,9.885C557.253,503.934,557.048,509.413,555.932,514.984z"/>
			<g opacity="0.3">
				<g>
					<g>
						<path d="M410.5,614.999c0,0-0.688-0.006-1.864-0.07c-1.166-0.092-2.859-0.111-4.852-0.135
							c-1.008,0.025-2.075-0.018-3.233,0.055c-0.57,0.017-1.16,0.034-1.768,0.053c-0.609,0.041-1.232,0.075-1.865,0.1
							c-2.547,0.149-5.317,0.34-8.298,0.462c-5.957,0.291-11.729-0.019-15.912-0.758c-2.09-0.363-3.773-0.771-4.926-1.129
							c-1.153-0.345-1.78-0.577-1.78-0.577s0.632-0.253,1.756-0.636c1.125-0.37,2.735-0.932,4.709-1.534
							c3.951-1.19,9.365-2.806,15.827-3.126c3.229-0.135,6.389,0.162,9.207,0.77c0.706,0.165,1.389,0.337,2.048,0.512
							c0.659,0.185,1.291,0.42,1.898,0.63c1.217,0.398,2.306,0.945,3.285,1.413c1.941,1.012,3.399,1.984,4.336,2.767
							C410.014,614.551,410.5,614.999,410.5,614.999z"/>
					</g>
				</g>
			</g>
			<g opacity="0.3">
				<g>
					<g>
						<path fill="#FFFFFF" d="M442.999,634.999c0,0-0.136,0.61-0.484,1.728c-0.091,0.276-0.18,0.6-0.313,0.927
							c-0.147,0.322-0.305,0.673-0.476,1.049c-0.184,0.378-0.38,0.782-0.588,1.21c-0.231,0.412-0.5,0.827-0.782,1.274
							c-1.109,1.811-2.769,3.709-4.836,5.564c-2.088,1.815-4.633,3.48-7.477,4.797c-5.725,2.597-11.414,3.202-15.467,3.144
							c-1.015,0.001-1.939-0.063-2.747-0.135c-0.807-0.064-1.501-0.147-2.07-0.242c-1.136-0.176-1.759-0.316-1.759-0.316
							s0.555-0.341,1.549-0.879c0.494-0.267,1.098-0.594,1.798-0.972c0.691-0.365,1.479-0.78,2.349-1.239
							c3.468-1.799,8.095-4.144,13.122-6.428c2.512-1.133,4.904-2.211,7.082-3.193c2.141-1.031,4.147-1.95,5.754-2.892
							c0.416-0.229,0.812-0.447,1.188-0.653c0.362-0.229,0.704-0.444,1.023-0.647c0.333-0.203,0.642-0.392,0.928-0.565
							c0.282-0.181,0.517-0.367,0.746-0.525C442.442,635.363,442.999,635,442.999,634.999z"/>
					</g>
				</g>
			</g>
			<g opacity="0.3">
				<g>
					<g>
						<path fill="#FFFFFF" d="M233.999,473c0,0,0.006,0.842-0.04,2.298c-0.014,0.361-0.029,0.763-0.046,1.202
							c-0.008,0.439,0.015,0.921,0.017,1.43c0.026,1.022-0.028,2.154,0.071,3.419c0.026,0.624,0.054,1.276,0.082,1.957
							c0.023,0.675,0.119,1.383,0.166,2.104c0.074,1.441,0.294,2.976,0.449,4.57c0.418,3.194,0.931,6.647,1.593,10.267
							c0.685,3.615,1.41,7.058,2.116,10.234c0.417,1.564,0.713,3.103,1.119,4.507c0.181,0.715,0.356,1.405,0.524,2.068
							c0.189,0.661,0.37,1.296,0.543,1.902c0.316,1.234,0.67,2.329,0.962,3.312c0.143,0.495,0.276,0.956,0.399,1.381
							c0.138,0.42,0.263,0.804,0.377,1.149c0.447,1.392,0.668,2.2,0.668,2.2s-0.622-0.532-1.7-1.561
							c-0.269-0.261-0.566-0.55-0.893-0.867c-0.304-0.335-0.633-0.698-0.988-1.089c-0.706-0.79-1.512-1.699-2.294-2.778
							c-0.397-0.54-0.813-1.105-1.247-1.694c-0.393-0.615-0.802-1.256-1.226-1.919c-0.868-1.326-1.609-2.835-2.421-4.424
							c-1.496-3.223-2.81-6.952-3.577-11.016c-0.746-4.069-0.816-8.057-0.508-11.626c0.207-1.788,0.42-3.473,0.811-5.026
							c0.185-0.777,0.329-1.525,0.551-2.232c0.229-0.702,0.448-1.376,0.658-2.02c0.394-1.281,0.94-2.392,1.369-3.361
							c0.225-0.482,0.42-0.932,0.635-1.335c0.227-0.396,0.436-0.759,0.623-1.084C233.548,473.677,233.999,473,233.999,473z"/>
					</g>
				</g>
			</g>
			<path fill="#D88F6F" d="M553.543,474.47c-1.079-2.279-1.914-4.724-2.515-7.246c-2.575-10.814-4.621-21.942-6.641-32.874
				c-1.259-6.812-2.523-13.85-2.491-20.798c0.029-6.52,0.791-13.088,0.381-19.604c-0.396-6.279-1.516-12.443-2.622-18.614
				c-1.51-3.799-2.474-7.667-2.848-11.632c-0.447,0.539-0.901,1.073-1.332,1.623c0.253-16.188,0.3-31.656-3.587-46.213
				c-3.44-12.882-6.904-25.372-12.512-37.988c-2.521-5.672-5.197-11.362-9.514-16.012c-4.216-4.54-9.035-7.85-12.725-12.75
				c-1.663-2.209-3.073-5.303-5.515-6.985c-0.11-0.076-0.22-0.135-0.33-0.204c-0.355-0.443-0.7-0.861-0.981-1.235
				c-4.073-5.421-9.255-8.632-14.882-11.868c-5.68-3.266-10.877-6.989-16.931-9.569c-6.079-2.591-12.3-5.109-18.507-7.243
				c-7.23-2.485-14.667-2.757-22.743-2.757c-16.343,0-33.216-0.322-49.194,1.056c-7.496,0.646-15.565,1.095-23.05,2.2
				c-6.83,1.009-13.437,3.167-19.944,5.556c-5.837,2.142-12.563,4.507-17.762,8.001c-5.266,3.538-11.219,6.499-16.368,10.12
				c-4.979,3.501-9.609,7.443-14.244,11.756c-1.857,1.729-3.234,3.741-4.414,5.885c-0.688,0.79-1.392,1.639-2.137,2.564
				c-3.901,4.842-8.579,9.525-12.274,14.751c-15.749,22.277-18.598,51.537-19.936,78.534c-0.436-0.047-0.879-0.117-1.326-0.199
				c0.018,7.257-0.43,14.52-0.559,21.853c-0.231,13.154-2.445,25.615-7.57,37.8c-4.542,10.799-10.809,23.013-11.805,34.977
				c0.608,2.493,0.644,5.228,0.626,7.781c-0.042,5.932,1.062,11.732,1.433,17.63c1.822,3.241,1.181,6.692,0.664,10.125
				c-0.577,3.839-0.22,7.608,0.502,11.221c1.344,6.728,3.4,13.191,5.219,19.781c3.509,12.713,8.453,23.085,19.502,31.998
				c18.463,14.895,34.834,33.255,51.139,51.111c9.375,10.268,19.343,20.573,28.613,30.637c7.93,8.609,14.086,15.33,23.137,22.613
				c7.327,5.894,18.082,12.687,27.25,14.75c9.708,2.185,27.354,2.394,35.25-2.5l0.5,2c5.723-3.768,12.452-5.059,18.514-7.875
				c5.552-2.581,10.014-6.851,14.861-10.749c9.835-7.911,18.901-15.271,26.875-25.126c7.67-9.479,16.387-18.644,24.25-27.75
				c8.198-9.492,18.07-18.076,27.376-26.624c8.979-8.247,16.656-17.845,24.261-27.239C556.05,527.509,559,514.905,559,500
				C559,490.425,556.255,482.709,553.543,474.47z"/>
			<path d="M559.644,498.634c-0.491-5.268-1.433-10.087-2.464-14.421c-2.101-8.665-4.445-15.451-6.005-20.153
				c-0.042-0.121-0.081-0.235-0.121-0.354c-0.129-0.775-0.263-1.575-0.399-2.396c-0.126-0.83-0.137-1.74-0.216-2.638
				c-0.067-0.899-0.099-1.897-0.152-2.874c-0.037-0.979-0.201-2.069-0.306-3.135c-0.693-4.383-2.815-8.394-3.723-12.628
				c-0.912-4.336-1.055-9.121-1.313-14.221c-0.059-1.277-0.161-2.557-0.264-3.845c-0.079-1.277-0.1-2.53-0.156-3.809
				c-0.084-2.558-0.116-5.189-0.143-7.849c-0.076-6.941-0.142-13.815-0.978-20.468c-0.148-1.669-0.505-3.29-0.778-4.907
				c-0.136-0.804-0.291-1.611-0.485-2.432c-0.171-0.818-0.364-1.623-0.616-2.402c-0.924-3.15-2.104-6.014-2.986-8.798
				c-0.453-1.391-0.791-2.757-1.059-4.112c-0.09-0.682-0.18-1.358-0.268-2.031c-0.047-0.704-0.092-1.403-0.138-2.097
				c-0.164-2.778-0.085-5.523-0.096-8.229c-0.053-5.404-0.19-10.389-0.599-14.983c-0.111-1.145-0.17-2.263-0.318-3.349
				c-0.156-1.084-0.309-2.14-0.457-3.167c-0.074-0.513-0.148-1.018-0.221-1.515c-0.085-0.498-0.21-0.987-0.312-1.468
				c-0.107-0.48-0.214-0.953-0.318-1.418c-0.13-0.456-0.257-0.903-0.383-1.344c-0.079-0.269-0.157-0.512-0.236-0.774
				c-0.174-1.766-0.488-3.563-0.733-5.418c-0.293-1.938-0.512-3.941-0.964-5.956c-1.361-8.146-3.945-16.89-7.569-25.924
				c-3.61-9.045-8.727-18.244-15.24-27.067c-6.514-8.836-14.378-17.3-23.435-25.123c-9.15-7.712-19.774-14.438-31.604-19.188
				c-5.906-2.38-11.953-4.22-18.027-5.493c-6.084-1.313-12.167-1.869-18.103-2.312c-11.917-0.694-23.371-0.217-34.202,0.358
				c-5.426,0.276-10.673,0.616-15.808,0.799c-5.141,0.213-10.163,0.521-15.003,1.062c-9.678,1.167-18.572,3.412-26.247,6.507
				c-1.903,0.811-3.785,1.544-5.57,2.365c-1.768,0.855-3.489,1.688-5.163,2.499c-2.029,1.118-3.989,2.169-5.852,3.233
				c-4.889,2.408-10.258,5.368-15.918,9.046c-6.081,3.935-12.496,8.673-18.831,14.425c-6.356,5.723-12.505,12.591-18.043,20.505
				c-0.72,0.97-1.361,2.004-2.021,3.032c-0.652,1.034-1.341,2.055-1.974,3.119c-1.211,2.158-2.536,4.289-3.631,6.573
				c-2.391,4.471-4.299,9.29-6.112,14.234c-3.529,9.938-5.587,20.678-6.975,31.655c-1.374,10.993-1.993,21.743-2.724,32.06
				c-0.726,10.317-1.589,20.227-3.119,29.541c-0.402,2.324-0.743,4.633-1.265,6.867c-0.492,2.24-0.896,4.482-1.538,6.597
				c-0.296,1.068-0.59,2.129-0.881,3.181c-0.347,1.043-0.691,2.078-1.032,3.105c-0.65,2.059-1.441,4.062-2.15,6.045
				c-2.775,7.376-5.438,14.414-6.835,21.196c-0.288,1.02-0.512,2.057-0.785,3.071c-0.65,2.583-0.794,5.264-0.665,7.789
				c0.044,0.968,0.129,1.912,0.226,2.844c0.072,2.576,0.287,5.027,0.582,7.309c0.16,1.293,0.333,2.536,0.509,3.74
				c-0.028,3.882-0.206,7.204,0.19,9.634v0.001c-0.082,0.733-0.129,1.479-0.042,2.272c0.088,0.814,0.694,2.673,1.462,3.553
				c-0.013,0.083-0.03,0.163-0.042,0.246c-1.242,8.405-1.227,17.479,0.628,26.607c1.812,9.137,5.762,18.182,11.256,26.304
				c2.741,4.068,5.757,7.877,8.905,11.412c1.59,1.747,3.126,3.525,4.732,5.204c1.613,1.669,3.213,3.324,4.799,4.966
				c6.437,6.46,12.882,12.392,18.936,18.1c0.93,0.867,1.826,1.724,2.732,2.583c0.921,0.979,1.882,1.989,2.888,3.037
				c3.805,3.918,8.242,8.28,13.176,13.046c0.824,0.802,1.68,1.635,2.53,2.462c3.477,3.585,6.78,6.99,9.865,10.171
				c4.415,4.526,8.417,8.609,11.936,12.188c2.864,3.218,5.767,6.58,8.751,10.04c5.944,6.852,12.198,14.122,19.5,20.976
				c7.281,6.816,15.776,13.241,25.803,17.329c4.999,2.028,10.198,3.402,15.394,4.13c5.194,0.734,10.395,0.827,15.401,0.49
				c10.062-0.515,19.699-3.025,28.1-6.883c8.444-3.833,15.69-8.896,21.919-14.139c3.129-2.614,6.01-5.29,8.685-7.946
				c2.688-2.646,5.169-5.272,7.483-7.822c4.635-5.097,8.624-9.867,12.098-14.073c3.454-4.219,6.43-7.853,8.861-10.822
				c0.199-0.243,0.39-0.476,0.582-0.71c0.897-1.004,1.824-2.04,2.807-3.139c1.351-1.461,2.778-3.005,4.277-4.627
				c6.056-6.435,13.383-13.947,22.008-21.807c8.561-7.913,18.341-16.421,27.379-26.686c1.121-1.286,2.264-2.544,3.344-3.837
				c1.04-1.325,2.073-2.643,3.099-3.949c2.048-2.587,4.089-5.233,5.778-8.085c3.395-5.671,5.488-11.804,6.503-17.739
				C560.152,509.629,560.138,503.893,559.644,498.634z M555.932,514.984c-1.133,5.559-3.217,11.189-6.459,16.41
				c-1.604,2.608-3.559,5.082-5.615,7.634c-1.013,1.274-2.032,2.558-3.059,3.85c-1.064,1.262-2.184,2.487-3.28,3.746
				c-8.829,10.032-18.353,18.649-26.726,26.88c-8.435,8.18-15.491,16.113-21.205,22.896c-1.41,1.714-2.754,3.345-4.024,4.889
				c-1.236,1.568-2.401,3.047-3.491,4.43c-2.163,2.775-4.026,5.166-5.549,7.12c-0.119,0.154-0.222,0.288-0.336,0.437
				c-0.837,0.934-1.704,1.902-2.603,2.906c-3.642,4.053-7.804,8.65-12.579,13.544c-2.386,2.448-4.93,4.965-7.664,7.489
				c-2.722,2.537-5.635,5.082-8.77,7.555c-6.243,4.963-13.395,9.688-21.57,13.2c-8.156,3.539-17.299,5.773-26.981,6.168
				c-4.847,0.272-9.743,0.139-14.645-0.58c-4.897-0.714-9.768-2.017-14.476-3.926c-9.43-3.844-17.58-9.896-24.744-16.46
				c-7.179-6.592-13.492-13.688-19.567-20.417c-6.058-6.746-11.89-13.169-17.736-18.806c-2.927-2.805-5.753-5.489-8.5-8.048
				c-0.843-0.767-1.654-1.505-2.476-2.253c-2.205-2.436-4.487-4.958-6.852-7.571c-2.464-2.763-5.131-5.541-7.869-8.412
				c-2.779-2.819-5.645-5.722-8.631-8.631c-5.943-5.854-12.268-11.881-18.556-18.342c-1.547-1.635-3.108-3.284-4.682-4.946
				c-1.567-1.668-3.056-3.421-4.608-5.145c-3.057-3.476-5.938-7.143-8.57-11.048c-5.27-7.806-9.02-16.265-10.845-24.906
				c-1.861-8.636-2.034-17.305-1.019-25.394c2.035-16.267,9.229-29.813,16.761-39.629c3.835-4.885,8.102-8.628,11.962-11.772
				c3.87-3.137,7.405-5.604,10.284-7.63c5.79-4.019,8.992-6.24,8.992-6.24s-3.321,2.042-9.327,5.734
				c-2.984,1.878-6.647,4.174-10.698,7.162c-4.027,2.987-8.56,6.627-12.714,11.517c-4.097,4.897-8.018,10.738-11.34,17.487
				c-2.576,5.181-4.643,10.983-6.053,17.201c-0.139-0.154-0.3-0.301-0.468-0.465c-0.283-2.409-0.635-5.092-0.968-8.059
				c-0.001-0.566-0.004-1.144-0.01-1.741c-0.024-1.018-0.057-2.086-0.201-3.197c-0.153-1.078-0.312-2.193-0.475-3.338
				c-0.021-0.147-0.044-0.298-0.066-0.446c-0.222-4.815,0.001-10.117,1.256-15.692c1.492-6.946,4.496-14.181,7.698-22.041
				c0.772-1.985,1.615-3.97,2.337-6.067c0.375-1.041,0.752-2.091,1.132-3.147c0.344-1.074,0.658-2.172,0.991-3.27
				c0.717-2.193,1.176-4.452,1.728-6.732c0.582-2.275,0.976-4.613,1.431-6.974c1.739-9.453,2.762-19.475,3.596-29.82
				c0.839-10.347,1.519-21.034,2.872-31.858c1.366-10.809,3.319-21.281,6.637-30.932c1.707-4.797,3.491-9.49,5.744-13.853
				c1.027-2.23,2.281-4.314,3.418-6.429c0.596-1.042,1.248-2.044,1.862-3.059c0.624-1.01,1.226-2.026,1.909-2.982
				c5.233-7.791,11.069-14.634,17.148-20.409c6.055-5.803,12.225-10.663,18.099-14.751c1.131-0.79,2.248-1.543,3.355-2.275
				c0.365-0.229,0.727-0.454,1.099-0.693c1.176-0.744,2.402-1.52,3.678-2.328c1.294-0.776,2.667-1.533,4.072-2.344
				c2.783-1.672,5.915-3.168,9.185-4.835c1.676-0.747,3.399-1.515,5.168-2.303c1.783-0.754,3.655-1.418,5.546-2.159
				c7.629-2.816,16.35-4.764,25.841-5.685c4.757-0.418,9.698-0.613,14.826-0.722c5.135-0.08,10.447-0.323,15.853-0.507
				c10.821-0.395,22.161-0.708,33.809,0.076c5.818,0.488,11.723,1.07,17.557,2.36c5.846,1.253,11.669,3.04,17.368,5.337
				c11.415,4.581,21.729,11.034,30.675,18.438c8.868,7.521,16.703,15.724,23.198,24.238c6.508,8.518,11.672,17.362,15.417,26.136
				c3.752,8.758,6.521,17.246,8.102,25.24c0.108,0.91,0.433,1.932,0.649,3.069c0.18,0.87-0.178,1.824,0.822,2.815
				c0,0.001,0,0.002,0,0.003c0,1.915,0.541,3.767,0.766,5.594c0.447,3.652,0.915,7.084,1.169,10.326
				c0.246,2.562,0.448,4.979,0.623,7.258c0,3.149-0.097,6.465-0.211,9.928c-0.102,2.649-0.304,5.448-0.24,8.375
				c0.021,0.731,0.038,1.469,0.06,2.211c0.075,0.766,0.147,1.538,0.224,2.314c0.246,1.534,0.577,3.07,1.014,4.559
				c0.852,2.986,1.95,5.877,2.73,8.803c0.219,0.728,0.376,1.468,0.513,2.215c0.159,0.734,0.29,1.501,0.407,2.288
				c0.231,1.561,0.55,3.125,0.664,4.729c0.698,6.38,0.71,13.115,0.784,20.074c0.027,2.666,0.067,5.312,0.172,7.961
				c0.065,1.324,0.102,2.66,0.195,3.947c0.114,1.272,0.229,2.535,0.303,3.783c0.323,4.987,0.547,10.023,1.667,14.772
				c0.604,2.403,1.458,4.609,2.241,6.611c0.409,1.026,0.727,1.995,1.088,2.969c0.155,0.479,0.277,0.946,0.419,1.414
				c0.13,0.467,0.302,0.921,0.34,1.402c0.646,3.715,0.577,7.708,1.613,11.191c-0.011-0.047-0.021-0.094-0.025-0.11
				c0.459,1.792,0.905,3.539,1.34,5.238c0.475,1.679,1.056,3.257,1.557,4.815c0.508,1.562,1.042,3.024,1.541,4.466
				c0.252,0.718,0.5,1.424,0.744,2.118c0.216,0.696,0.428,1.381,0.637,2.054c0.717,2.074,1.246,4.061,1.654,5.95
				c0.464,3.12,0.841,6.414,1.011,9.885C557.253,503.934,557.048,509.413,555.932,514.984z"/>
			<g opacity="0.3">
				<g>
					<g>
						<path d="M410.5,614.999c0,0-0.688-0.006-1.864-0.07c-1.166-0.092-2.859-0.111-4.852-0.135
							c-1.008,0.025-2.075-0.018-3.233,0.055c-0.57,0.017-1.16,0.034-1.768,0.053c-0.609,0.041-1.232,0.075-1.865,0.1
							c-2.547,0.149-5.317,0.34-8.298,0.462c-5.957,0.291-11.729-0.019-15.912-0.758c-2.09-0.363-3.773-0.771-4.926-1.129
							c-1.153-0.345-1.78-0.577-1.78-0.577s0.632-0.253,1.756-0.636c1.125-0.37,2.735-0.932,4.709-1.534
							c3.951-1.19,9.365-2.806,15.827-3.126c3.229-0.135,6.389,0.162,9.207,0.77c0.706,0.165,1.389,0.337,2.048,0.512
							c0.659,0.185,1.291,0.42,1.898,0.63c1.217,0.398,2.306,0.945,3.285,1.413c1.941,1.012,3.399,1.984,4.336,2.767
							C410.014,614.551,410.5,614.999,410.5,614.999z"/>
					</g>
				</g>
			</g>
			<g opacity="0.3">
				<g>
					<g>
						<path fill="#FFFFFF" d="M442.999,634.999c0,0-0.136,0.61-0.484,1.728c-0.091,0.276-0.18,0.6-0.313,0.927
							c-0.147,0.322-0.305,0.673-0.476,1.049c-0.184,0.378-0.38,0.782-0.588,1.21c-0.231,0.412-0.5,0.827-0.782,1.274
							c-1.109,1.811-2.769,3.709-4.836,5.564c-2.088,1.815-4.633,3.48-7.477,4.797c-5.725,2.597-11.414,3.202-15.467,3.144
							c-1.015,0.001-1.939-0.063-2.747-0.135c-0.807-0.064-1.501-0.147-2.07-0.242c-1.136-0.176-1.759-0.316-1.759-0.316
							s0.555-0.341,1.549-0.879c0.494-0.267,1.098-0.594,1.798-0.972c0.691-0.365,1.479-0.78,2.349-1.239
							c3.468-1.799,8.095-4.144,13.122-6.428c2.512-1.133,4.904-2.211,7.082-3.193c2.141-1.031,4.147-1.95,5.754-2.892
							c0.416-0.229,0.812-0.447,1.188-0.653c0.362-0.229,0.704-0.444,1.023-0.647c0.333-0.203,0.642-0.392,0.928-0.565
							c0.282-0.181,0.517-0.367,0.746-0.525C442.442,635.363,442.999,635,442.999,634.999z"/>
					</g>
				</g>
			</g>
			<g opacity="0.3">
				<g>
					<g>
						<path fill="#FFFFFF" d="M233.999,473c0,0,0.006,0.842-0.04,2.298c-0.014,0.361-0.029,0.763-0.046,1.202
							c-0.008,0.439,0.015,0.921,0.017,1.43c0.026,1.022-0.028,2.154,0.071,3.419c0.026,0.624,0.054,1.276,0.082,1.957
							c0.023,0.675,0.119,1.383,0.166,2.104c0.074,1.441,0.294,2.976,0.449,4.57c0.418,3.194,0.931,6.647,1.593,10.267
							c0.685,3.615,1.41,7.058,2.116,10.234c0.417,1.564,0.713,3.103,1.119,4.507c0.181,0.715,0.356,1.405,0.524,2.068
							c0.189,0.661,0.37,1.296,0.543,1.902c0.316,1.234,0.67,2.329,0.962,3.312c0.143,0.495,0.276,0.956,0.399,1.381
							c0.138,0.42,0.263,0.804,0.377,1.149c0.447,1.392,0.668,2.2,0.668,2.2s-0.622-0.532-1.7-1.561
							c-0.269-0.261-0.566-0.55-0.893-0.867c-0.304-0.335-0.633-0.698-0.988-1.089c-0.706-0.79-1.512-1.699-2.294-2.778
							c-0.397-0.54-0.813-1.105-1.247-1.694c-0.393-0.615-0.802-1.256-1.226-1.919c-0.868-1.326-1.609-2.835-2.421-4.424
							c-1.496-3.223-2.81-6.952-3.577-11.016c-0.746-4.069-0.816-8.057-0.508-11.626c0.207-1.788,0.42-3.473,0.811-5.026
							c0.185-0.777,0.329-1.525,0.551-2.232c0.229-0.702,0.448-1.376,0.658-2.02c0.394-1.281,0.94-2.392,1.369-3.361
							c0.225-0.482,0.42-0.932,0.635-1.335c0.227-0.396,0.436-0.759,0.623-1.084C233.548,473.677,233.999,473,233.999,473z"/>
					</g>
				</g>
			</g>
			<g>
				<g>
					<g>
						<g>
							<g>
								<path d="M588.589,380.056c0,0-0.132-0.479-0.384-1.391c-0.256-0.91-0.614-2.259-1.132-3.974
									c-1.026-3.435-2.57-8.391-6.288-13.539c-0.919-1.313-1.882-2.689-2.886-4.122c-0.498-0.734-1.006-1.482-1.523-2.245
									c-0.532-0.75-0.961-1.624-1.458-2.457c-0.241-0.424-0.484-0.852-0.731-1.283l-0.201-0.357l-0.155-0.414l-0.26-0.704
									c-0.368-0.933-0.649-1.923-0.964-2.917c-0.552-2.017-0.96-4.165-1.088-6.414c-0.014-0.563-0.049-1.131-0.041-1.702
									c0.027-0.573,0.055-1.148,0.083-1.727c0.126-1.141,0.275-2.288,0.513-3.449c0.479-2.316,1.251-4.496,1.826-6.639
									c0.594-2.144,0.941-4.245,0.754-6.304c-0.183-2.048-1.012-4.064-2.208-5.872c-1.233-1.781-2.857-3.328-4.622-4.29
									c-0.864-0.461-1.81-0.737-2.403-0.696c-0.517,0.021-1.406,0.499-2.176,1.124c-1.598,1.236-3.047,2.958-4.425,4.611
									c-1.382,1.681-2.674,3.412-4.041,5.099c-0.665,0.829-1.478,1.732-2.192,2.434c-0.725,0.735-1.439,1.46-2.143,2.174
									c-1.389,1.421-2.689,2.798-3.768,4.242c-1.092,1.449-1.954,2.898-2.627,4.457c-0.674,1.562-1.233,3.11-1.714,4.618
									c-0.947,3.021-1.65,5.853-2.429,8.305c-0.775,2.454-1.614,4.525-2.459,6.131c-0.853,1.602-1.637,2.77-2.209,3.525
									c-0.583,0.746-0.889,1.138-0.889,1.138s0.261-0.421,0.759-1.225c0.487-0.806,1.141-2.036,1.823-3.677
									c0.677-1.646,1.308-3.728,1.866-6.193c0.562-2.467,1.037-5.325,1.788-8.492c0.384-1.582,0.857-3.235,1.465-4.934
									c0.606-1.707,1.508-3.464,2.602-5.093c1.094-1.646,2.404-3.184,3.751-4.704c0.673-0.749,1.355-1.51,2.048-2.28
									c0.724-0.783,1.282-1.467,1.916-2.314c1.239-1.661,2.486-3.462,3.869-5.258c1.411-1.788,2.833-3.633,4.85-5.287
									c1.016-0.793,2.151-1.684,4.006-1.927c1.77-0.12,3.145,0.429,4.391,1.039c2.445,1.304,4.403,3.193,5.962,5.427
									c1.504,2.256,2.564,4.864,2.782,7.579c0.223,2.71-0.3,5.304-0.983,7.585c-0.677,2.3-1.475,4.39-1.954,6.414
									c-0.239,1.008-0.408,2.038-0.56,3.05c-0.043,0.505-0.086,1.007-0.128,1.506c-0.026,0.5-0.012,1.001-0.021,1.498
									c0.033,1.991,0.31,3.942,0.727,5.826c0.248,0.935,0.459,1.865,0.762,2.765l0.209,0.675l0.083,0.269l0.139,0.278
									c0.208,0.414,0.413,0.825,0.617,1.233c0.426,0.811,0.763,1.634,1.241,2.402c0.458,0.774,0.908,1.533,1.349,2.278
									c0.907,1.502,1.778,2.943,2.609,4.319c0.768,1.444,1.568,2.763,2.188,4.106c0.63,1.343,1.112,2.649,1.509,3.878
									c0.801,2.46,1.257,4.625,1.609,6.391c0.355,1.766,0.574,3.144,0.733,4.077C588.51,379.565,588.589,380.056,588.589,380.056z
									"/>
							</g>
						</g>
					</g>
					<g>
						<path d="M589.83,382.94c-0.508-3.166-1.253-5.958-2.1-8.331c-0.208-0.594-0.409-1.167-0.603-1.719
							c-0.221-0.541-0.434-1.06-0.638-1.559c-0.402-0.998-0.786-1.9-1.179-2.691c-0.732-1.604-1.373-2.812-1.816-3.626
							c-0.436-0.815-0.666-1.244-0.666-1.244s0.181,0.451,0.524,1.31c0.353,0.854,0.862,2.117,1.433,3.773
							c0.312,0.818,0.607,1.745,0.912,2.762c0.156,0.506,0.319,1.035,0.488,1.585c0.143,0.557,0.29,1.136,0.442,1.734
							c0.63,2.388,1.132,5.156,1.398,8.215c0.296,3.057,0.161,6.433-0.555,9.896c-0.725,3.459-2.158,6.989-4.432,10.198
							c-2.264,3.204-5.333,6.093-8.893,8.626c-1.792,1.285-3.73,2.542-5.657,4.021c-1.907,1.484-3.88,3.195-5.337,5.512
							c-1.473,2.296-2.206,5.062-2.215,7.652c-0.037,2.605,0.463,5.009,1.066,7.272c1.253,4.501,2.92,8.488,3.734,12.362
							c0.399,1.929,0.578,3.81,0.46,5.605c-0.104,1.803-0.645,3.478-1.331,4.991c-1.576,2.964-4.094,5.197-6.938,5.825
							c-2.374,0.595-4.734,0.386-6.78-0.151c0.023,0.447,0.044,0.894,0.063,1.34c2.051,0.668,4.466,1.039,7.105,0.585
							c3.394-0.494,6.688-2.988,8.729-6.413c0.948-1.772,1.691-3.765,1.925-5.893c0.25-2.12,0.132-4.307-0.224-6.457
							c-0.731-4.297-2.317-8.447-3.383-12.672c-0.516-2.101-0.899-4.258-0.84-6.322c0.042-2.064,0.585-4.028,1.692-5.779
							c1.095-1.762,2.734-3.242,4.478-4.627c1.757-1.382,3.655-2.663,5.504-4.048c3.729-2.778,7.01-6.049,9.383-9.723
							c2.379-3.666,3.766-7.674,4.331-11.466C590.475,389.685,590.365,386.101,589.83,382.94z"/>
					</g>
					<g>
						<g>
							<g>
								<path d="M567.486,360.15c0,0-0.007,0.286-0.018,0.831c-0.041,0.542,0.037,1.366-0.174,2.392
									c-0.23,2.079-1.132,5.055-2.918,8.354c-0.873,1.662-1.922,3.405-3.059,5.282c-1.204,1.905-2.668,3.73-4.157,5.664
									c-1.487,1.928-3.039,3.94-4.357,6.138c-1.292,2.182-2.406,4.624-2.352,7.079c0.027,2.451,1.361,4.626,3.222,6.295
									c1.796,1.765,4.022,2.995,5.942,4.871c0.945,0.933,1.76,2.15,2.059,3.488c0.053,0.334,0.15,0.664,0.154,0.991
									c0.004,0.325,0.009,0.649,0.014,0.97c-0.089,0.617-0.135,1.239-0.32,1.792c-0.08,0.282-0.151,0.564-0.238,0.836
									c-0.106,0.266-0.211,0.529-0.314,0.791c-0.177,0.529-0.472,1.013-0.762,1.48c-0.602,0.896-1.262,1.681-1.977,2.337
									c-1.426,1.316-2.941,2.177-4.295,2.81c-1.362,0.628-2.586,1.017-3.59,1.296s-1.795,0.443-2.33,0.55
									c-0.537,0.1-0.819,0.151-0.819,0.151s0.273-0.087,0.793-0.252c0.518-0.17,1.28-0.425,2.235-0.808
									c1.877-0.771,4.707-2.006,7.148-4.601c0.6-0.647,1.134-1.402,1.602-2.22c0.211-0.409,0.432-0.82,0.553-1.305
									c0.074-0.232,0.15-0.467,0.227-0.703c0.051-0.242,0.102-0.486,0.155-0.733c0.135-0.493,0.124-0.985,0.175-1.483
									c-0.019-0.24-0.037-0.483-0.057-0.728c-0.013-0.244-0.108-0.468-0.152-0.704c-0.267-0.921-0.856-1.741-1.678-2.487
									c-1.643-1.493-4.019-2.727-6.096-4.637c-1.052-0.924-2.074-2.046-2.825-3.398c-0.759-1.347-1.213-2.942-1.245-4.548
									c-0.049-1.612,0.331-3.143,0.85-4.526c0.525-1.388,1.212-2.646,1.948-3.816c1.483-2.335,3.159-4.339,4.745-6.212
									c1.586-1.869,3.136-3.599,4.37-5.299c1.236-1.77,2.406-3.421,3.384-4.964c1.998-3.066,3.145-5.818,3.595-7.821
									c0.318-0.984,0.335-1.79,0.44-2.326C567.444,360.434,567.486,360.15,567.486,360.15z"/>
							</g>
						</g>
					</g>
					<g>
						<g>
							<g>
								<path d="M569.171,367.407c0,0,0.209,0.052,0.599,0.184c0.399,0.115,0.941,0.395,1.538,0.885
									c0.601,0.491,1.179,1.263,1.586,2.229c0.376,0.967,0.568,2.105,0.513,3.262c-0.151,2.32-1.111,4.175-1.961,5.338
									c-0.419,0.591-0.826,1.018-1.118,1.297c-0.296,0.277-0.466,0.418-0.466,0.418s0.05-0.218,0.139-0.606
									c0.09-0.383,0.217-0.931,0.338-1.598c0.264-1.328,0.533-3.116,0.651-4.981c0.042-0.933,0.025-1.792-0.061-2.575
									c-0.117-0.767-0.299-1.467-0.57-2.034c-0.267-0.563-0.558-1.042-0.809-1.328
									C569.307,367.583,569.171,367.407,569.171,367.407z"/>
							</g>
						</g>
					</g>
					<g>
						<g>
							<g>
								<path d="M562.778,379.782c0,0,0.232,0.132,0.65,0.369c0.434,0.232,0.996,0.654,1.655,1.26
									c0.61,0.638,1.34,1.478,1.814,2.613c0.498,1.115,0.806,2.476,0.771,3.88c-0.104,2.829-1.267,5.058-2.194,6.489
									c-0.476,0.722-0.903,1.271-1.221,1.634c-0.318,0.359-0.496,0.56-0.496,0.56s0.057-0.261,0.158-0.729
									c0.105-0.46,0.258-1.123,0.445-1.939c0.357-1.618,0.814-3.796,0.888-6.073c0.067-2.271-0.453-4.264-1.146-5.726
									c-0.359-0.708-0.673-1.314-0.939-1.7C562.916,380.011,562.778,379.782,562.778,379.782z"/>
							</g>
						</g>
					</g>
				</g>
				<path opacity="0.3" enable-background="new    " d="M561,375.625c1.217-1.991,2.541-3.885,3.659-5.972
					c0.974-1.817,2.82-4.829,2.591-6.67c0,5.655-0.893,10.582-3.862,15.367c1.288,0.055,3.029,2.146,3.831,3.057
					c1.227,1.392,2.192,2.723,2.66,4.472c1.015,3.801-0.139,7.489-2.979,10.156c-2.243,2.104-4.834,3.279-7.538,4.541
					c1.946-3.06,3.972-5.303,4.516-8.947c0.354-2.369-0.015-10.432-4.287-7.284c-2.483,1.83-4.791,5.764-5.209,8.663
					c-0.557,3.853,0.922,6.688,2.834,9.896c0.59,0.991,1.138,1.957,1.624,3c0.497,1.065,0.655,2.555,1.035,3.366
					c0.282-2.136-1.332-2.985-3-3.803c-1.511-0.74-3.045-1.661-4.372-2.747c-3.016-2.467-3.499-7.025-2.783-10.719
					c0.586-3.029,2.719-6.214,4.874-8.406c2.075-2.11,3.912-4.658,6.031-6.594"/>
				<g opacity="0.3">
					<g>
						<g>
							<path fill="#FFFFFF" d="M567,333.5c0.001,0,0.115-0.835,0.449-2.32c0.298-1.476,0.945-3.63,1.09-6.146
								c0.046-1.247-0.109-2.555-0.724-3.664c-0.16-0.28-0.33-0.562-0.548-0.845c-0.19-0.309-0.422-0.525-0.637-0.755
								c-0.458-0.415-0.916-0.648-1.351-0.667c-0.847-0.092-2.164,0.714-3.206,1.95c-0.259,0.314-0.512,0.637-0.745,0.985
								c-0.242,0.384-0.486,0.772-0.732,1.162c-0.575,0.872-1.095,1.797-1.762,2.644c-0.64,0.865-1.273,1.718-1.98,2.489
								c-0.345,0.393-0.687,0.782-1.026,1.168c-0.362,0.363-0.722,0.724-1.078,1.082c-0.683,0.674-1.354,1.335-2.011,1.983
								c-0.319,0.308-0.634,0.612-0.946,0.913c-0.306,0.305-0.549,0.642-0.825,0.955c-2.192,2.51-3.617,5.207-4.479,7.67
								c-0.823,2.472-1.285,4.604-1.563,6.083c-0.275,1.49-0.427,2.315-0.427,2.315s-0.065-0.839-0.179-2.356
								c-0.081-1.522-0.109-3.742,0.286-6.517c0.429-2.758,1.566-6.086,3.765-9.194c0.274-0.385,0.529-0.805,0.836-1.174
								c0.313-0.362,0.632-0.728,0.952-1.098c0.625-0.705,1.264-1.425,1.913-2.157c0.312-0.344,0.626-0.691,0.942-1.041
								c0.299-0.365,0.599-0.732,0.901-1.103c0.629-0.723,1.191-1.51,1.774-2.298c0.609-0.767,1.095-1.614,1.647-2.395
								c0.252-0.36,0.573-0.877,0.904-1.326c0.336-0.457,0.705-0.887,1.09-1.299c0.788-0.81,1.681-1.536,2.753-2.074
								c1.055-0.531,2.39-0.868,3.722-0.6c1.34,0.258,2.369,1.088,3.041,1.906c0.319,0.423,0.624,0.843,0.817,1.262
								c0.228,0.405,0.42,0.842,0.588,1.283c0.66,1.811,0.518,3.581,0.209,4.978c-0.693,2.817-1.804,4.711-2.441,6.085
								C567.364,332.745,567,333.5,567,333.5z"/>
						</g>
					</g>
				</g>
				<g opacity="0.3">
					<g>
						<g>
							<path fill="#FFFFFF" d="M560.5,453.75c0,0,0.126,0.136,0.318,0.409c0.194,0.273,0.431,0.691,0.619,1.24
								c0.389,1.084,0.542,2.752-0.223,4.351c-0.387,0.789-0.956,1.458-1.585,1.943c-0.651,0.477-1.32,0.788-1.938,0.902
								c-0.294,0.072-0.578,0.089-0.821,0.088c-0.239,0.008-0.445-0.014-0.616-0.053c-0.336-0.066-0.505-0.131-0.505-0.131
								s0.1-0.156,0.275-0.431c0.085-0.123,0.177-0.283,0.268-0.471c0.095-0.178,0.194-0.367,0.28-0.591
								c0.383-0.855,0.63-1.893,1.143-2.945c0.507-1.057,1.223-2.025,1.788-2.853C560.11,454.321,560.5,453.75,560.5,453.75z"/>
						</g>
					</g>
				</g>
				<g opacity="0.3">
					<g>
						<g>
							<path fill="#FFFFFF" d="M573.25,360.75c0,0,0.496,0.627,1.393,1.761c0.439,0.574,0.976,1.276,1.599,2.092
								c0.626,0.814,1.311,1.759,2.019,2.848c0.721,1.079,1.502,2.271,2.328,3.562c0.438,0.614,0.772,1.398,1.155,2.164
								c0.408,0.766,0.695,1.594,0.982,2.451c1.162,3.421,1.62,7.444,1.209,11.557c-0.082,1.031-0.297,2.03-0.45,3.022
								c-0.218,0.982-0.463,1.94-0.726,2.881c-0.354,0.942-0.709,1.863-1.068,2.753c-0.456,0.829-0.903,1.64-1.34,2.432
								c-1.922,3.031-4.077,5.296-5.877,7.155c-1.824,1.831-3.338,3.252-4.365,4.26c-1.036,1.006-1.608,1.562-1.608,1.562
								s0.403-0.691,1.134-1.94c0.747-1.24,1.903-2.991,3.337-5.111c1.4-2.131,3.099-4.633,4.512-7.509
								c0.314-0.726,0.636-1.47,0.965-2.23c0.238-0.773,0.482-1.562,0.73-2.366c0.175-0.851,0.353-1.716,0.533-2.595
								c0.104-0.893,0.29-1.789,0.359-2.707c0.363-3.664,0.188-7.184-0.498-10.275c-0.169-0.775-0.329-1.537-0.598-2.231
								c-0.249-0.708-0.418-1.407-0.761-2.087c-0.595-1.369-1.148-2.645-1.653-3.81c-0.481-1.181-0.954-2.242-1.383-3.169
								c-0.412-0.935-0.767-1.742-1.058-2.4C573.56,361.487,573.25,360.75,573.25,360.75z"/>
						</g>
					</g>
				</g>
			</g>
			<g>
				<path opacity="0.6" fill="#CC1717" enable-background="new    " d="M200.333,313.667c2.175-0.335,4.103,1.997,5.662,3.208
					c1.832,1.423,3.655,2.7,5.296,4.337c3.282,3.274,6.348,5.99,10.249,8.251c1.91,1.107,3.975,2.237,5.918,3.241
					c0.987,0.51,2.098,0.851,2.842,1.8c0.764,0.974,0.653,2.04,1.07,3.126c1.607,4.183,2.548,8.484,4.175,12.658
					c0.232,0.595,0.441,1.004,0.43,1.686c-1.973-0.273-2.831-3.772-3.517-5.27c-0.851-1.857-2.026-3.785-3.171-5.491
					c-3.041-4.534-9.335-2.556-13.787-1.889c-2.447,0.367-6.221,1.642-8.5,0.675c-2.172-0.921-4.276-2.083-6-3.667
					c-3.4-3.123-4.854-7.247-7.459-11.045c-1.941-2.831-2.305-4.308-1-7.414c0.552-1.315,0.673-2.497,2.089-3.253
					c1.272-0.68,2.905-0.616,4.37-0.621"/>
				<g>
					<g>
						<g>
							<g>
								<path d="M175.247,355.796c0,0,0.147-0.303,0.427-0.88c0.288-0.573,0.679-1.438,1.252-2.515
									c1.098-2.178,2.874-5.238,4.766-9.13c0.485-0.967,0.9-2.018,1.386-3.088c0.405-1.1,0.87-2.233,1.236-3.433
									c0.777-2.35,1.181-5.106,2.179-7.907c0.509-1.394,1.072-2.833,2.122-4.19c0.524-0.658,1.256-1.356,2.332-1.625
									c0.535-0.134,1.106-0.085,1.612,0.048c0.501,0.149,0.947,0.379,1.325,0.649c0.769,0.537,1.354,1.186,1.889,1.853
									c0.54,0.665,1,1.402,1.412,2.097c0.842,1.398,1.656,2.813,2.531,4.189c1.737,2.734,3.708,5.217,6.311,6.478
									c0.631,0.318,1.337,0.575,2.016,0.777c0.68,0.226,1.357,0.347,2.047,0.41c1.38,0.123,2.782-0.035,4.155-0.291
									c2.745-0.52,5.423-1.401,8.124-1.506c1.329-0.045,2.701,0.042,3.899,0.595c1.185,0.521,2.171,1.271,2.939,2.118
									c1.523,1.709,2.391,3.542,3.106,5.123c0.702,1.594,1.235,2.984,1.71,4.104c0.469,1.122,0.867,1.978,1.154,2.55
									c0.297,0.569,0.453,0.867,0.453,0.867s-0.182-0.284-0.527-0.825c-0.336-0.548-0.806-1.373-1.362-2.46
									c-0.562-1.085-1.198-2.437-1.997-3.96c-0.805-1.509-1.779-3.232-3.254-4.701c-0.736-0.727-1.647-1.327-2.657-1.711
									c-0.989-0.406-2.174-0.43-3.382-0.333c-2.435,0.199-4.983,1.141-7.867,1.794c-1.443,0.317-2.997,0.55-4.628,0.448
									c-0.81-0.051-1.645-0.184-2.431-0.425c-0.799-0.222-1.562-0.483-2.339-0.853c-1.543-0.72-2.919-1.811-4.085-3.056
									c-1.174-1.247-2.163-2.641-3.073-4.068c-0.908-1.429-1.725-2.866-2.54-4.247c-0.406-0.7-0.792-1.333-1.251-1.912
									c-0.449-0.581-0.937-1.118-1.449-1.486c-0.519-0.376-1.008-0.533-1.431-0.441c-0.436,0.09-0.924,0.447-1.335,0.952
									c-0.834,1.009-1.433,2.334-1.942,3.621c-1.031,2.602-1.531,5.28-2.468,7.762c-0.438,1.229-0.971,2.367-1.445,3.472
									c-0.552,1.068-1.036,2.117-1.583,3.067c-2.142,3.83-4.124,6.743-5.384,8.826
									C175.941,354.642,175.247,355.796,175.247,355.796z"/>
							</g>
						</g>
					</g>
					<g>
						<g>
							<g>
								<path d="M218.353,451.806c0,0-0.348,0.409-1.01,1.189c-0.323,0.398-0.753,0.864-1.276,1.403
									c-0.26,0.271-0.54,0.562-0.839,0.875c-0.316,0.296-0.654,0.61-1.011,0.943c-1.449,1.305-3.308,2.858-5.794,4.198
									c-2.469,1.324-5.639,2.429-9.319,2.368c-1.823-0.113-3.743-0.469-5.599-1.252c-1.837-0.83-3.609-1.865-5.258-3.302
									c-1.646-1.427-3.097-3.312-3.974-5.526c-0.893-2.209-1.219-4.666-1.131-7.101c0.184-4.904,1.855-9.692,3.94-14.336
									c0.526-1.129,1.056-2.268,1.59-3.416c0.505-1.136,0.994-2.284,1.438-3.45c0.879-2.333,1.595-4.742,1.906-7.186
									c0.324-2.443,0.135-4.848-0.554-7.081c-0.684-2.234-1.885-4.292-3.339-6.121c-0.687-0.915-1.568-1.801-2.381-2.685
									c-0.81-0.884-1.674-1.761-2.494-2.628c-0.828-0.883-1.648-1.756-2.458-2.62c-0.789-0.899-1.569-1.789-2.339-2.667
									c-3.017-3.603-5.412-7.522-6.82-11.519c-0.446-0.957-0.63-2.007-0.927-2.982c-0.184-1.005-0.44-1.973-0.526-2.953
									c-0.291-1.94-0.267-3.831-0.181-5.611c0.274-3.568,1.149-6.687,2.169-9.285c1.024-2.604,2.185-4.707,3.175-6.387
									c1.005-1.673,1.863-2.918,2.458-3.751c0.599-0.83,0.914-1.266,0.914-1.266s-0.274,0.462-0.797,1.341
									c-0.519,0.879-1.267,2.189-2.131,3.919c-0.849,1.735-1.833,3.889-2.654,6.485c-0.817,2.591-1.456,5.637-1.519,9.012
									c0.019,1.684,0.091,3.45,0.461,5.246c0.337,1.801,0.811,3.646,1.62,5.436c1.482,3.651,3.844,7.203,6.828,10.538
									c0.769,0.823,1.548,1.657,2.336,2.501c0.821,0.828,1.652,1.665,2.492,2.512c0.852,0.857,1.713,1.689,2.58,2.594
									c0.865,0.903,1.755,1.754,2.596,2.818c1.684,2.043,3.135,4.424,3.99,7.121c0.862,2.686,1.086,5.623,0.711,8.43
									c-0.746,5.632-3.154,10.547-5.34,14.966c-2.075,4.393-3.726,8.859-4.018,13.166c-0.148,2.143,0.063,4.224,0.727,6.08
									c0.656,1.861,1.77,3.463,3.139,4.772c1.372,1.32,2.989,2.378,4.556,3.188c1.609,0.779,3.285,1.184,4.915,1.388
									c3.288,0.246,6.316-0.562,8.765-1.671c2.465-1.116,4.398-2.495,5.922-3.668c0.378-0.3,0.735-0.583,1.07-0.85
									c0.321-0.284,0.621-0.55,0.9-0.797c0.561-0.49,1.027-0.916,1.382-1.283C217.971,452.183,218.353,451.806,218.353,451.806z"
									/>
							</g>
						</g>
					</g>
					<g>
						<g>
							<g>
								<path d="M235.514,352.777c0,0-0.373-1.121-0.95-3.177c-0.603-2.044-1.314-5.065-2.555-8.597
									c-0.605-1.763-1.439-3.643-2.522-5.37c-1.169-1.595-2.951-2.823-5.165-3.701c-2.196-0.926-4.857-1.578-7.467-3.239
									c-2.5-1.714-4.519-3.876-6.445-6.065c-1.912-2.176-3.734-4.222-5.75-5.601c-2.005-1.313-4.44-2.138-6.601-2.231
									c-4.455-0.41-6.982,4.388-5.733,7.577c0.525,1.668,1.446,3.107,2.301,4.315c0.868,1.211,1.696,2.218,2.356,3.056
									c1.354,1.656,1.949,2.688,1.949,2.688s-0.752-0.906-2.322-2.347c-0.771-0.735-1.731-1.623-2.777-2.752
									c-1.031-1.136-2.192-2.508-3.026-4.406c-0.378-0.955-0.719-2.055-0.652-3.267c-0.016-0.302,0.022-0.603,0.085-0.907
									c0.064-0.298,0.087-0.629,0.194-0.909c0.102-0.285,0.205-0.573,0.309-0.863l0.164-0.437l0.232-0.421
									c0.544-1.16,1.561-2.217,2.786-2.944c1.239-0.726,2.7-1.085,4.124-1.111c1.431-0.032,2.852,0.189,4.237,0.584
									c1.387,0.403,2.737,0.963,4.057,1.778c2.572,1.651,4.567,3.886,6.485,6.052c0.963,1.08,1.885,2.146,2.838,3.088l0.708,0.713
									l0.742,0.65c0.497,0.448,0.974,0.842,1.462,1.19c1.978,1.38,4.485,2.174,6.86,3.319c2.396,1.114,4.614,2.825,5.91,4.999
									c1.125,2.163,1.77,4.21,2.211,6.101c0.888,3.777,1.191,6.845,1.499,8.954C235.352,351.609,235.514,352.777,235.514,352.777z
									"/>
							</g>
						</g>
					</g>
					<path fill-rule="evenodd" clip-rule="evenodd" d="M186.119,333.276c0.792-2.767,1.499-5.54,1.945-8.322
						c0.426-2.656,0.732-6.022,2.184-8.205c3.293-4.958,7.256-4.125,11.496-3.134c-2.456-0.964-7.195,0.251-8.579,3.482
						c-1.8,4.197,1.204,7.515,2.212,10.683c-1.792-0.586-3.341-4.177-5.837-2.421c-1.765,1.242-2.821,5.375-3.361,7.657"/>
					<g>
						<g>
							<g>
								<path d="M194.917,345.468c0,0-0.869,1.307-2.593,3.564c-1.692,2.274-4.382,5.411-7.243,9.507
									c-1.393,2.059-2.823,4.391-3.719,7.062c-0.914,2.657-1.171,5.656-0.39,8.646c0.377,1.495,0.983,2.982,1.755,4.44
									c0.412,0.72,0.822,1.451,1.292,2.137l0.342,0.525l0.41,0.474l0.82,0.956c2.229,2.543,5.156,4.559,8.564,5.814
									c6.828,2.558,14.542,2.345,21.105,5.224c0.794,0.399,1.579,0.793,2.353,1.182c0.722,0.487,1.434,0.967,2.136,1.44
									c0.179,0.113,0.32,0.275,0.481,0.41l0.593,0.534c0.507,0.453,1.01,0.903,1.509,1.35l0.368,0.329
									c0.092,0.109,0.357,0.219,0.116,0.323l-0.768,0.626c-0.511,0.421-0.994,0.798-1.5,1.232
									c-2.208,1.884-4.066,3.838-5.232,5.939c-1.183,2.073-1.646,4.253-1.247,6.099c0.38,1.864,1.495,3.211,2.381,4.26
									c0.515,0.473,0.973,0.893,1.37,1.256c0.417,0.342,0.808,0.588,1.105,0.811c0.606,0.435,0.925,0.663,0.925,0.663
									s-0.344-0.188-0.999-0.546c-0.324-0.187-0.746-0.389-1.208-0.687c-0.446-0.327-0.96-0.705-1.54-1.13
									c-1.027-0.983-2.379-2.282-3.024-4.37c-0.666-2.066-0.343-4.685,0.798-7.094c1.11-2.44,2.994-4.711,5.171-6.825
									c0.051-0.063,0.15-0.158,0.214-0.228l0.103-0.109c0.031-0.035-0.072-0.065-0.099-0.097l-0.251-0.169
									c-0.031-0.023-0.011-0.002-0.084-0.062l-0.213-0.174c-0.147-0.11-0.273-0.247-0.438-0.336
									c-0.634-0.381-1.277-0.767-1.929-1.159c-0.699-0.31-1.408-0.624-2.125-0.942c-2.951-1.133-6.324-1.679-9.915-2.204
									c-3.583-0.54-7.453-1.078-11.294-2.518c-3.846-1.408-7.292-3.83-9.781-6.83c-0.308-0.38-0.614-0.758-0.919-1.135
									l-0.453-0.564l-0.376-0.611c-0.517-0.807-0.948-1.634-1.376-2.452c-0.81-1.668-1.442-3.406-1.804-5.176
									c-0.766-3.55-0.237-7.139,0.98-10.024c1.197-2.919,2.894-5.247,4.493-7.253c3.272-3.965,6.231-6.788,8.155-8.869
									C193.888,346.652,194.917,345.467,194.917,345.468z"/>
							</g>
						</g>
					</g>
					<g>
						<g>
							<g>
								<path d="M208.041,371.714c0,0-0.143-0.249-0.4-0.696c-0.226-0.45-0.612-1.071-1.038-1.812
									c-0.916-1.467-2.212-3.287-3.907-4.836c-0.846-0.783-1.711-1.468-2.587-2.037c-0.883-0.539-1.738-1.036-2.52-1.366
									c-0.773-0.352-1.447-0.623-1.922-0.784c-0.481-0.181-0.749-0.281-0.749-0.281s0.268-0.091,0.774-0.223
									c0.505-0.141,1.252-0.272,2.202-0.299c0.953-0.049,2.101,0.1,3.35,0.472c1.236,0.397,2.539,1.113,3.656,2.152
									c1.117,1.038,1.926,2.271,2.406,3.461c0.279,0.58,0.411,1.178,0.573,1.712c0.123,0.548,0.195,1.064,0.261,1.527
									c0.066,0.944,0.064,1.691-0.004,2.212C208.087,371.433,208.041,371.714,208.041,371.714z"/>
							</g>
						</g>
					</g>
					<g>
						<g>
							<g>
								<path d="M196.231,376.962c0,0-0.737-0.211-1.791-0.772c-1.088-0.55-2.333-1.501-3.409-2.811
									c-1.046-1.272-1.652-2.719-2.085-3.748c-0.417-1.063-0.589-1.855-0.589-1.855s0.737,0.212,1.79,0.773
									c1.088,0.55,2.333,1.502,3.409,2.811c1.046,1.272,1.652,2.719,2.085,3.748C196.058,376.17,196.231,376.962,196.231,376.962z
									"/>
							</g>
						</g>
					</g>
				</g>
				<g>
					<path opacity="0.3" enable-background="new    " d="M236,353c-2.629-5.056-5.53-13.583-11.493-14.757
						c-7.345-1.445-14.805,5.113-20.945-1.055c-2.259-2.269-4.138-4.853-6.25-7.256c-1.92-2.184-4.985-5.16-5.867-7.877
						c-1.282-3.951,0.971-7.175,4.797-8.312c3.851-1.144,6.426,1.635,9.452,3.576c2.827,1.813,5.447,3.625,7.618,6.383
						c2.109,2.679,4.341,4.586,7.383,6.117c3.237,1.629,6.58,1.219,9.11,4.126c2.431,2.793,2.221,6.187,3.256,9.494
						c0.939,3.002,1.819,6.164,2.439,9.311"/>
					<path opacity="0.3" enable-background="new    " d="M197,324c0.146-1.876-2.216-2.653-1.512-4.762
						c0.633-1.894,3.024-1.581,4.568-1.292c3.295,0.615,5.726,3.176,7.764,5.735c1.955,2.455,3.664,5.019,6.619,6.382
						c3.41,1.572,7.146,0.911,10.624,2.875c1.686,0.952,3.96,2.207,3.65,4.525c-1.71,0.308-2.839-1.373-4.462-1.718
						c-1.624-0.346-3.993-0.053-5.501,0.242c-3.163,0.618-7.081,2.279-10.498,1.013c-4.616-1.71-8.708-9.415-11.251-13.249"/>
					<path opacity="0.2" enable-background="new    " d="M201.75,326c-1.248-1.928-6.8-6.404-3.25-7.25
						c2.464-0.587,6.365,2.867,7.938,4.562c2.306,2.487,3.275,5.676,6.312,7.438c3.075,1.784,7.201,1.477,10.556,2.194
						c1.819,0.389,2.93,0.826,3.918,2.506c-2.618,0.615-4.823-1.887-7.918-1.395c-2.751,0.438-4.917,1.907-8.056,1.694
						c-5.19-0.353-8.164-5.567-9.75-10"/>
					<path opacity="0.3" enable-background="new    " d="M215.5,333.75c-4.98,0-6.84-0.547-9.818-4.431
						c-2.216-2.889-4.38-5.473-5.907-8.768c3.891-0.799,4.948,4.011,7.169,6.755c2.398,2.962,5.967,3.762,8.519,6.244
						c-0.048,0.249-0.155,0.446-0.213,0.7"/>
					<path opacity="0.5" enable-background="new    " d="M205.75,328.375c0.276-1.16-2.111-2.742-2.844-3.628
						c-0.489-0.592-1.126-1.187-1.378-1.9c-0.399-1.128,0.189-1.818,1.097-0.847c0.463,0.496,0.641,1.5,1.028,2.097
						c0.411,0.633,0.927,1.216,1.441,1.809c1.017,1.174,1.84,2.46,2.937,3.56c1.258,1.261,4.236,1.874,4.956,3.259
						c-1.474,0.32-6.443-3.083-7.113-4.35"/>
				</g>
				<path opacity="0.3" enable-background="new    " d="M191.5,349.667c-1.311,0.559-2.208,2.342-3.041,3.455
					c-0.926,1.236-2.191,2.508-2.755,3.915c-1.249,3.119-0.627,8.154,0.92,10.948c-0.688-1.242,2.537-2.376,3.257-2.452
					c3.189-0.336,5.917,1.464,7.476,4.122c2.373,4.047,1.165,8.773,1.96,13.16c0.858,4.736,4.71,8.474,9.058,10.31
					c2.234,0.944,4.862,1.01,7.084,2.083c0.929,0.449,1.622,1.177,2.495,1.671c0.767,0.435,2.371,0.542,2.839,1.33
					c0.741,1.249-2.598,3.704-3.585,4.832c-1.537,1.757-2.674,3.652-3.67,5.612c0.059-4.033,6.267-8.306,2.087-11.944
					c-3.367-2.932-9.093-2.983-13.125-4.25c-4.58-1.439-9.716-2.097-13.787-5.001c-4.073-2.905-6.387-6.224-7.75-10.792
					c-1.531-5.134-1.86-10.312,1.163-15.036c2.219-3.468,4.579-7.205,7.583-10.089c0.209-0.2,0.407-0.38,0.626-0.541"/>
				<g opacity="0.3">
					<g>
						<g>
							<path fill="#FFFFFF" d="M190.249,444c0,0,0.067,0.299,0.188,0.835c0.052,0.26,0.108,0.569,0.239,0.918
								c0.128,0.348,0.195,0.732,0.398,1.132c0.174,0.401,0.335,0.827,0.593,1.25c0.204,0.436,0.507,0.856,0.782,1.297
								c0.612,0.855,1.321,1.703,2.146,2.506c0.836,0.792,1.712,1.433,2.588,1.968c0.224,0.119,0.444,0.245,0.661,0.374
								c0.229,0.1,0.45,0.197,0.665,0.291c0.435,0.23,0.874,0.309,1.286,0.461c0.824,0.211,1.578,0.363,2.102,0.382
								c0.548,0.057,0.853,0.087,0.853,0.087s-0.232,0.188-0.704,0.502c-0.463,0.339-1.211,0.692-2.233,0.971
								c-0.511,0.092-1.1,0.25-1.731,0.219c-0.316-0.003-0.652,0.004-0.993-0.026c-0.335-0.052-0.683-0.113-1.041-0.186
								c-1.406-0.338-2.909-1.064-4.131-2.228c-1.213-1.171-2.01-2.601-2.448-3.957c-0.19-0.694-0.348-1.347-0.369-1.982
								c-0.075-0.62-0.015-1.208,0.042-1.727c0.028-0.516,0.205-0.977,0.305-1.364c0.098-0.391,0.256-0.708,0.387-0.962
								C190.091,444.253,190.249,444,190.249,444z"/>
						</g>
					</g>
				</g>
				<g opacity="0.3">
					<g>
						<g>
							<path fill="#FFFFFF" d="M191.999,335c0,0-0.057,0.227-0.167,0.66c-0.123,0.428-0.249,1.086-0.543,1.887
								c-0.509,1.632-1.508,3.943-3.048,6.586c-0.76,1.33-1.631,2.736-2.564,4.252c-0.962,1.486-1.99,3.075-3.072,4.746
								c-2.111,3.304-4.368,6.943-5.702,10.971c-0.662,2.021-1.03,3.988-1.042,5.976c-0.058,2.004,0.191,3.87,0.677,5.654
								c0.969,3.562,2.752,6.618,4.326,9.129c1.603,2.509,3.017,4.518,3.95,5.931c0.943,1.409,1.436,2.208,1.436,2.209
								c0,0-0.677-0.648-1.902-1.82c-1.214-1.182-2.991-2.865-5.036-5.152c-2.006-2.297-4.371-5.251-5.893-9.289
								c-0.754-1.999-1.231-4.302-1.275-6.636c-0.105-2.35,0.291-4.869,1.067-7.21c1.581-4.728,4.264-8.478,6.722-11.661
								c1.243-1.592,2.468-3.05,3.587-4.396c1.121-1.366,2.165-2.638,3.118-3.799c1.896-2.306,3.266-4.282,4.099-5.741
								c0.454-0.71,0.718-1.307,0.939-1.695C191.889,335.207,191.999,335,191.999,335z"/>
						</g>
					</g>
				</g>
			</g>
			<g opacity="0.3">
				<g>
					<g>
						<path fill="#FFFFFF" d="M220.25,383c0,0,0.067-0.519,0.189-1.456c0.081-0.456,0.122-1.028,0.172-1.683
							c0.029-0.324,0.061-0.671,0.093-1.038c0.012-0.369,0.025-0.759,0.039-1.169c0.092-1.623,0.026-3.555-0.049-5.665
							c-0.128-2.118-0.34-4.419-0.624-6.828c-0.322-2.404-0.699-4.678-1.112-6.752c-0.474-2.046-0.909-3.924-1.45-5.448
							c-0.126-0.388-0.246-0.758-0.36-1.108c-0.136-0.341-0.263-0.664-0.383-0.965c-0.231-0.614-0.439-1.146-0.653-1.555
							C215.719,348.476,215.5,348,215.5,348s0.397,0.332,1.106,0.981c0.371,0.314,0.766,0.744,1.207,1.266
							c0.224,0.262,0.462,0.542,0.716,0.839c0.236,0.309,0.464,0.648,0.714,1.003c1.025,1.408,1.974,3.25,2.852,5.375
							c0.814,2.142,1.479,4.59,1.828,7.21c0.312,2.625,0.288,5.154,0.046,7.425c-0.294,2.272-0.729,4.287-1.317,5.917
							c-0.142,0.405-0.278,0.792-0.406,1.157c-0.158,0.355-0.307,0.691-0.446,1.004c-0.277,0.623-0.526,1.149-0.785,1.56
							C220.532,382.565,220.25,383,220.25,383z"/>
					</g>
				</g>
			</g>
		</g>
	</g>
</g>
</svg>
