<?xml version="1.0" encoding="utf-8"?>
<!-- Generator: Adobe Illustrator 25.0.1, SVG Export Plug-In . SVG Version: 6.00 Build 0)  -->
<svg version="1.1" id="Capa_1" xmlns="http://www.w3.org/2000/svg" xmlns:xlink="http://www.w3.org/1999/xlink" x="0px" y="0px"
	 viewBox="0 0 800 800" style="enable-background:new 0 0 800 800;" xml:space="preserve">
<style type="text/css">
	.st0{fill:#DDBF92;}
	.st1{fill:#F15A24;}
	.st2{fill:#E6E6E6;}
	.st3{opacity:0.3;enable-background:new    ;}
	.st4{opacity:0.3;}
	.st5{fill:#FFFFFF;}
</style>
<g id="cara_base">
	<g id="tono_1_copia_2">
		<g id="Capa_93_copia_2">
			<path class="st0" d="M535,349c-1.2-15.8,14.5-24.4,28-23.5c13,0.9,23.9,12,28,23.5c4.6,13,4.2,32.5-6.5,43.5
				c-10.6,10.8-22.1,12.4-36.5,7.4c-10.2-3.6-5.2-15.6-8.6-24.3c-1.9-4.8-3.9-7.6-3.9-13.1c0-5.2,0-10.3,0-15.5"/>
			<path class="st1" d="M561.7,359.8c2.8-0.1,5.6,0.2,8.4,0.2c2.9,0,5.2-0.1,7.6,1.4c0.9,0.5,1.8,1.1,2.5,1.9
				c0.8,0.9,0.7,2.5,0.5,3.6c-0.5,2.3-2.2,4.3-4.6,4.6c-2.3,0.3-4.7-0.2-7.1-0.2c-2.3,0-4.6-0.3-6.9-0.3c0.2-0.9,0.4-1.5,0.3-2.5
				c-0.1-0.9,0-1.8,0-2.7c0-1.9,0-3.7-0.2-5.5"/>
			<path class="st2" d="M563,359.3c-1.4,0-3.5-0.4-4.8,0c-1.3,0.4-1.7,1.7-2,3.2c-0.3,1.4-0.1,3-0.5,4.3c-0.4,1.4-1.4,2.6-1.1,4.1
				c2.3-0.6,5-0.4,7.6-0.5c0.1-3.7,0.7-7.2,0.7-11"/>
			<path class="st3" d="M556.1,360c-0.2-4.4-3.8-8.1-7.9-8.1c-1.3-5.7,6.4-6.2,10.7-5.9c5.4,0.4,7.9,3.8,10.1,8.4
				c4.3,8.9,1.9,28.3-3,30.9c2.3-8-4.6-7.9-9.2-11.1c-5.5-3.8-1.3-8.4-0.7-13.6"/>
			<path class="st0" d="M237,346.5c1.2-15.1-17.8-24.6-30.5-22c-11.8,2.5-22.1,14.1-26,24.9c-5.2,14.2-3,29.4,4.8,41.4
				c4.4,6.9,9.6,9.9,17.3,11.2c7.8,1.2,14.2,0.4,22-2.6c6.5-2.6,6.4-3.3,8.5-9.9c1.4-4.2,2.3-9.1,3-13.5c1.6-10.3,3-20.8,3-31.5"/>
			<path d="M559.6,498.6c-0.5-5.3-1.4-10.1-2.5-14.4c-2.1-8.7-4.4-15.5-6-20.2c0-0.1-0.1-0.2-0.1-0.4c-0.1-0.8-0.3-1.6-0.4-2.4
				c-0.1-0.8-0.1-1.7-0.2-2.6c-0.1-0.9-0.1-1.9-0.2-2.9c0-1-0.2-2.1-0.3-3.1c-0.7-4.4-2.8-8.4-3.7-12.6c-0.9-4.3-1.1-9.1-1.3-14.2
				c-0.1-1.3-0.2-2.6-0.3-3.8c-0.1-1.3-0.1-2.5-0.2-3.8c-0.1-2.6-0.1-5.2-0.1-7.8c-0.1-6.9-0.1-13.8-1-20.5
				c-0.1-1.7-0.5-3.3-0.8-4.9c-0.1-0.8-0.3-1.6-0.5-2.4c-0.2-0.8-0.4-1.6-0.6-2.4c-0.9-3.1-2.1-6-3-8.8c-0.5-1.4-0.8-2.8-1.1-4.1
				c-0.1-0.7-0.2-1.4-0.3-2c0-0.7-0.1-1.4-0.1-2.1c-0.2-2.8-0.1-5.5-0.1-8.2c-0.1-5.4-0.2-10.4-0.6-15c-0.1-1.1-0.2-2.3-0.3-3.3
				c-0.2-1.1-0.3-2.1-0.5-3.2c-0.1-0.5-0.1-1-0.2-1.5c-0.1-0.5-0.2-1-0.3-1.5c-0.1-0.5-0.2-1-0.3-1.4c-0.1-0.5-0.3-0.9-0.4-1.3
				c-0.1-0.3-0.2-0.5-0.2-0.8c-0.2-1.8-0.5-3.6-0.7-5.4c-0.3-1.9-0.5-3.9-1-6c-1.4-8.1-3.9-16.9-7.6-25.9c-3.6-9-8.7-18.2-15.2-27.1
				c-6.5-8.8-14.4-17.3-23.4-25.1c-9.1-7.7-19.8-14.4-31.6-19.2c-5.9-2.4-12-4.2-18-5.5c-6.1-1.3-12.2-1.9-18.1-2.3
				c-11.9-0.7-23.4-0.2-34.2,0.4c-5.4,0.3-10.7,0.6-15.8,0.8c-5.1,0.2-10.2,0.5-15,1.1c-9.7,1.2-18.6,3.4-26.2,6.5
				c-1.9,0.8-3.8,1.5-5.6,2.4c-1.8,0.9-3.5,1.7-5.2,2.5c-2,1.1-4,2.2-5.9,3.2c-4.9,2.4-10.3,5.4-15.9,9c-6.1,3.9-12.5,8.7-18.8,14.4
				c-6.4,5.7-12.5,12.6-18,20.5c-0.7,1-1.4,2-2,3c-0.7,1-1.3,2.1-2,3.1c-1.2,2.2-2.5,4.3-3.6,6.6c-2.4,4.5-4.3,9.3-6.1,14.2
				c-3.5,9.9-5.6,20.7-7,31.7c-1.4,11-2,21.7-2.7,32.1c-0.7,10.3-1.6,20.2-3.1,29.5c-0.4,2.3-0.7,4.6-1.3,6.9
				c-0.5,2.2-0.9,4.5-1.5,6.6c-0.3,1.1-0.6,2.1-0.9,3.2c-0.3,1-0.7,2.1-1,3.1c-0.6,2.1-1.4,4.1-2.1,6c-2.8,7.4-5.4,14.4-6.8,21.2
				c-0.3,1-0.5,2.1-0.8,3.1c-0.6,2.6-0.8,5.3-0.7,7.8c0,1,0.1,1.9,0.2,2.8c0.1,2.6,0.3,5,0.6,7.3c0.2,1.3,0.3,2.5,0.5,3.7
				c0,3.9-0.2,7.2,0.2,9.6v0c-0.1,0.7-0.1,1.5,0,2.3c0.1,0.8,0.7,2.7,1.5,3.6c0,0.1,0,0.2,0,0.2c-1.2,8.4-1.2,17.5,0.6,26.6
				c1.8,9.1,5.8,18.2,11.3,26.3c2.7,4.1,5.8,7.9,8.9,11.4c1.6,1.7,3.1,3.5,4.7,5.2c1.6,1.7,3.2,3.3,4.8,5
				c6.4,6.5,12.9,12.4,18.9,18.1c0.9,0.9,1.8,1.7,2.7,2.6c0.9,1,1.9,2,2.9,3c3.8,3.9,8.2,8.3,13.2,13c0.8,0.8,1.7,1.6,2.5,2.5
				c3.5,3.6,6.8,7,9.9,10.2c4.4,4.5,8.4,8.6,11.9,12.2c2.9,3.2,5.8,6.6,8.8,10c5.9,6.9,12.2,14.1,19.5,21
				c7.3,6.8,15.8,13.2,25.8,17.3c5,2,10.2,3.4,15.4,4.1c5.2,0.7,10.4,0.8,15.4,0.5c10.1-0.5,19.7-3,28.1-6.9
				c8.4-3.8,15.7-8.9,21.9-14.1c3.1-2.6,6-5.3,8.7-7.9c2.7-2.6,5.2-5.3,7.5-7.8c4.6-5.1,8.6-9.9,12.1-14.1c3.5-4.2,6.4-7.9,8.9-10.8
				c0.2-0.2,0.4-0.5,0.6-0.7c0.9-1,1.8-2,2.8-3.1c1.4-1.5,2.8-3,4.3-4.6c6.1-6.4,13.4-13.9,22-21.8c8.6-7.9,18.3-16.4,27.4-26.7
				c1.1-1.3,2.3-2.5,3.3-3.8c1-1.3,2.1-2.6,3.1-3.9c2-2.6,4.1-5.2,5.8-8.1c3.4-5.7,5.5-11.8,6.5-17.7
				C560.2,509.6,560.1,503.9,559.6,498.6z M555.9,515c-1.1,5.6-3.2,11.2-6.5,16.4c-1.6,2.6-3.6,5.1-5.6,7.6c-1,1.3-2,2.6-3.1,3.8
				c-1.1,1.3-2.2,2.5-3.3,3.7c-8.8,10-18.4,18.6-26.7,26.9c-8.4,8.2-15.5,16.1-21.2,22.9c-1.4,1.7-2.8,3.3-4,4.9
				c-1.2,1.6-2.4,3-3.5,4.4c-2.2,2.8-4,5.2-5.5,7.1c-0.1,0.2-0.2,0.3-0.3,0.4c-0.8,0.9-1.7,1.9-2.6,2.9c-3.6,4.1-7.8,8.7-12.6,13.5
				c-2.4,2.4-4.9,5-7.7,7.5c-2.7,2.5-5.6,5.1-8.8,7.6c-6.2,5-13.4,9.7-21.6,13.2c-8.2,3.5-17.3,5.8-27,6.2
				c-4.8,0.3-9.7,0.1-14.6-0.6c-4.9-0.7-9.8-2-14.5-3.9c-9.4-3.8-17.6-9.9-24.7-16.5c-7.2-6.6-13.5-13.7-19.6-20.4
				c-6.1-6.7-11.9-13.2-17.7-18.8c-2.9-2.8-5.8-5.5-8.5-8c-0.8-0.8-1.7-1.5-2.5-2.3c-2.2-2.4-4.5-5-6.9-7.6
				c-2.5-2.8-5.1-5.5-7.9-8.4c-2.8-2.8-5.6-5.7-8.6-8.6c-5.9-5.9-12.3-11.9-18.6-18.3c-1.5-1.6-3.1-3.3-4.7-4.9
				c-1.6-1.7-3.1-3.4-4.6-5.1c-3.1-3.5-5.9-7.1-8.6-11c-5.3-7.8-9-16.3-10.8-24.9c-1.9-8.6-2-17.3-1-25.4c2-16.3,9.2-29.8,16.8-39.6
				c3.8-4.9,8.1-8.6,12-11.8c3.9-3.1,7.4-5.6,10.3-7.6c5.8-4,9-6.2,9-6.2s-3.3,2-9.3,5.7c-3,1.9-6.6,4.2-10.7,7.2
				c-4,3-8.6,6.6-12.7,11.5c-4.1,4.9-8,10.7-11.3,17.5c-2.6,5.2-4.6,11-6.1,17.2c-0.1-0.2-0.3-0.3-0.5-0.5c-0.3-2.4-0.6-5.1-1-8.1
				c0-0.6,0-1.1,0-1.7c0-1-0.1-2.1-0.2-3.2c-0.2-1.1-0.3-2.2-0.5-3.3c0-0.1,0-0.3-0.1-0.4c-0.2-4.8,0-10.1,1.3-15.7
				c1.5-6.9,4.5-14.2,7.7-22c0.8-2,1.6-4,2.3-6.1c0.4-1,0.8-2.1,1.1-3.1c0.3-1.1,0.7-2.2,1-3.3c0.7-2.2,1.2-4.5,1.7-6.7
				c0.6-2.3,1-4.6,1.4-7c1.7-9.5,2.8-19.5,3.6-29.8c0.8-10.3,1.5-21,2.9-31.9c1.4-10.8,3.3-21.3,6.6-30.9c1.7-4.8,3.5-9.5,5.7-13.9
				c1-2.2,2.3-4.3,3.4-6.4c0.6-1,1.2-2,1.9-3.1c0.6-1,1.2-2,1.9-3c5.2-7.8,11.1-14.6,17.1-20.4c6.1-5.8,12.2-10.7,18.1-14.8
				c1.1-0.8,2.2-1.5,3.4-2.3c0.4-0.2,0.7-0.5,1.1-0.7c1.2-0.7,2.4-1.5,3.7-2.3c1.3-0.8,2.7-1.5,4.1-2.3c2.8-1.7,5.9-3.2,9.2-4.8
				c1.7-0.7,3.4-1.5,5.2-2.3c1.8-0.8,3.7-1.4,5.5-2.2c7.6-2.8,16.4-4.8,25.8-5.7c4.8-0.4,9.7-0.6,14.8-0.7
				c5.1-0.1,10.4-0.3,15.9-0.5c10.8-0.4,22.2-0.7,33.8,0.1c5.8,0.5,11.7,1.1,17.6,2.4c5.8,1.3,11.7,3,17.4,5.3
				c11.4,4.6,21.7,11,30.7,18.4c8.9,7.5,16.7,15.7,23.2,24.2c6.5,8.5,11.7,17.4,15.4,26.1c3.8,8.8,6.5,17.2,8.1,25.2
				c0.1,0.9,0.4,1.9,0.6,3.1c0.2,0.9-0.2,1.8,0.8,2.8c0,0,0,0,0,0c0,1.9,0.5,3.8,0.8,5.6c0.4,3.7,0.9,7.1,1.2,10.3
				c0.2,2.6,0.4,5,0.6,7.3c0,3.1-0.1,6.5-0.2,9.9c-0.1,2.6-0.3,5.4-0.2,8.4c0,0.7,0,1.5,0.1,2.2c0.1,0.8,0.1,1.5,0.2,2.3
				c0.2,1.5,0.6,3.1,1,4.6c0.9,3,1.9,5.9,2.7,8.8c0.2,0.7,0.4,1.5,0.5,2.2c0.2,0.7,0.3,1.5,0.4,2.3c0.2,1.6,0.5,3.1,0.7,4.7
				c0.7,6.4,0.7,13.1,0.8,20.1c0,2.7,0.1,5.3,0.2,8c0.1,1.3,0.1,2.7,0.2,3.9c0.1,1.3,0.2,2.5,0.3,3.8c0.3,5,0.5,10,1.7,14.8
				c0.6,2.4,1.5,4.6,2.2,6.6c0.4,1,0.7,2,1.1,3c0.2,0.5,0.3,0.9,0.4,1.4c0.1,0.5,0.3,0.9,0.3,1.4c0.6,3.7,0.6,7.7,1.6,11.2
				c0,0,0-0.1,0-0.1c0.5,1.8,0.9,3.5,1.3,5.2c0.5,1.7,1.1,3.3,1.6,4.8c0.5,1.6,1,3,1.5,4.5c0.3,0.7,0.5,1.4,0.7,2.1
				c0.2,0.7,0.4,1.4,0.6,2.1c0.7,2.1,1.2,4.1,1.7,6c0.5,3.1,0.8,6.4,1,9.9C557.3,503.9,557,509.4,555.9,515z"/>
			<path class="st0" d="M553.5,474.5c-1.1-2.3-1.9-4.7-2.5-7.2c-2.6-10.8-4.6-21.9-6.6-32.9c-1.3-6.8-2.5-13.9-2.5-20.8
				c0-6.5,0.8-13.1,0.4-19.6c-0.4-6.3-1.5-12.4-2.6-18.6c-1.5-3.8-2.5-7.7-2.8-11.6c-0.4,0.5-0.9,1.1-1.3,1.6
				c0.3-16.2,0.3-31.7-3.6-46.2c-3.4-12.9-6.9-25.4-12.5-38c-2.5-5.7-5.2-11.4-9.5-16c-4.2-4.5-9-7.9-12.7-12.8
				c-1.7-2.2-3.1-5.3-5.5-7c-0.1-0.1-0.2-0.1-0.3-0.2c-0.4-0.4-0.7-0.9-1-1.2c-4.1-5.4-9.3-8.6-14.9-11.9c-5.7-3.3-10.9-7-16.9-9.6
				c-6.1-2.6-12.3-5.1-18.5-7.2c-7.2-2.5-14.7-2.8-22.7-2.8c-16.3,0-33.2-0.3-49.2,1.1c-7.5,0.6-15.6,1.1-23,2.2
				c-6.8,1-13.4,3.2-19.9,5.6c-5.8,2.1-12.6,4.5-17.8,8c-5.3,3.5-11.2,6.5-16.4,10.1c-5,3.5-9.6,7.4-14.2,11.8
				c-1.9,1.7-3.2,3.7-4.4,5.9c-0.7,0.8-1.4,1.6-2.1,2.6c-3.9,4.8-8.6,9.5-12.3,14.8c-15.7,22.3-18.6,51.5-19.9,78.5
				c-0.4,0-0.9-0.1-1.3-0.2c0,7.3-0.4,14.5-0.6,21.9c-0.2,13.2-2.4,25.6-7.6,37.8c-4.8,11.5-11.7,24.6-11.9,37.4
				c-0.1,6.6,1.5,11.9,1.6,18.4c0,1.1-0.1,1.5-0.2,2.6c0.3-0.2-0.1,1.5,0.2,1.2c2.4,3.5,1.7,7.2,1.1,10.9c-0.6,3.8-0.2,7.6,0.5,11.2
				c1.3,6.7,3.4,13.2,5.2,19.8c3.5,12.7,8.5,23.1,19.5,32c18.5,14.9,34.8,33.3,51.1,51.1c9.4,10.3,19.3,20.6,28.6,30.6
				c7.9,8.6,14.1,15.3,23.1,22.6c7.3,5.9,18.1,12.7,27.2,14.8c9.7,2.2,27.4,2.4,35.2-2.5l0.5,2c5.7-3.8,12.5-5.1,18.5-7.9
				c5.6-2.6,10-6.9,14.9-10.7c9.8-7.9,18.9-15.3,26.9-25.1c7.7-9.5,16.4-18.6,24.2-27.8c8.2-9.5,18.1-18.1,27.4-26.6
				c9-8.2,16.7-17.8,24.3-27.2C556,527.5,559,514.9,559,500C559,490.4,556.3,482.7,553.5,474.5z"/>
			<path d="M559.6,498.6c-0.5-5.3-1.4-10.1-2.5-14.4c-2.1-8.7-4.4-15.5-6-20.2c0-0.1-0.1-0.2-0.1-0.4c-0.1-0.8-0.3-1.6-0.4-2.4
				c-0.1-0.8-0.1-1.7-0.2-2.6c-0.1-0.9-0.1-1.9-0.2-2.9c0-1-0.2-2.1-0.3-3.1c-0.7-4.4-2.8-8.4-3.7-12.6c-0.9-4.3-1.1-9.1-1.3-14.2
				c-0.1-1.3-0.2-2.6-0.3-3.8c-0.1-1.3-0.1-2.5-0.2-3.8c-0.1-2.6-0.1-5.2-0.1-7.8c-0.1-6.9-0.1-13.8-1-20.5
				c-0.1-1.7-0.5-3.3-0.8-4.9c-0.1-0.8-0.3-1.6-0.5-2.4c-0.2-0.8-0.4-1.6-0.6-2.4c-0.9-3.1-2.1-6-3-8.8c-0.5-1.4-0.8-2.8-1.1-4.1
				c-0.1-0.7-0.2-1.4-0.3-2c0-0.7-0.1-1.4-0.1-2.1c-0.2-2.8-0.1-5.5-0.1-8.2c-0.1-5.4-0.2-10.4-0.6-15c-0.1-1.1-0.2-2.3-0.3-3.3
				c-0.2-1.1-0.3-2.1-0.5-3.2c-0.1-0.5-0.1-1-0.2-1.5c-0.1-0.5-0.2-1-0.3-1.5c-0.1-0.5-0.2-1-0.3-1.4c-0.1-0.5-0.3-0.9-0.4-1.3
				c-0.1-0.3-0.2-0.5-0.2-0.8c-0.2-1.8-0.5-3.6-0.7-5.4c-0.3-1.9-0.5-3.9-1-6c-1.4-8.1-3.9-16.9-7.6-25.9c-3.6-9-8.7-18.2-15.2-27.1
				c-6.5-8.8-14.4-17.3-23.4-25.1c-9.1-7.7-19.8-14.4-31.6-19.2c-5.9-2.4-12-4.2-18-5.5c-6.1-1.3-12.2-1.9-18.1-2.3
				c-11.9-0.7-23.4-0.2-34.2,0.4c-5.4,0.3-10.7,0.6-15.8,0.8c-5.1,0.2-10.2,0.5-15,1.1c-9.7,1.2-18.6,3.4-26.2,6.5
				c-1.9,0.8-3.8,1.5-5.6,2.4c-1.8,0.9-3.5,1.7-5.2,2.5c-2,1.1-4,2.2-5.9,3.2c-4.9,2.4-10.3,5.4-15.9,9c-6.1,3.9-12.5,8.7-18.8,14.4
				c-6.4,5.7-12.5,12.6-18,20.5c-0.7,1-1.4,2-2,3c-0.7,1-1.3,2.1-2,3.1c-1.2,2.2-2.5,4.3-3.6,6.6c-2.4,4.5-4.3,9.3-6.1,14.2
				c-3.5,9.9-5.6,20.7-7,31.7c-1.4,11-2,21.7-2.7,32.1c-0.7,10.3-1.6,20.2-3.1,29.5c-0.4,2.3-0.7,4.6-1.3,6.9
				c-0.5,2.2-0.9,4.5-1.5,6.6c-0.3,1.1-0.6,2.1-0.9,3.2c-0.3,1-0.7,2.1-1,3.1c-0.6,2.1-1.4,4.1-2.1,6c-2.8,7.4-5.4,14.4-6.8,21.2
				c-0.3,1-0.5,2.1-0.8,3.1c-0.6,2.6-0.8,5.3-0.7,7.8c0,1,0.1,1.9,0.2,2.8c0.1,2.6,0.3,5,0.6,7.3c0.2,1.3,0.3,2.5,0.5,3.7
				c0,3.9-0.2,7.2,0.2,9.6v0c-0.1,0.7-0.1,1.5,0,2.3c0.1,0.8,0.7,2.7,1.5,3.6c0,0.1,0,0.2,0,0.2c-1.2,8.4-1.2,17.5,0.6,26.6
				c1.8,9.1,5.8,18.2,11.3,26.3c2.7,4.1,5.8,7.9,8.9,11.4c1.6,1.7,3.1,3.5,4.7,5.2c1.6,1.7,3.2,3.3,4.8,5
				c6.4,6.5,12.9,12.4,18.9,18.1c0.9,0.9,1.8,1.7,2.7,2.6c0.9,1,1.9,2,2.9,3c3.8,3.9,8.2,8.3,13.2,13c0.8,0.8,1.7,1.6,2.5,2.5
				c3.5,3.6,6.8,7,9.9,10.2c4.4,4.5,8.4,8.6,11.9,12.2c2.9,3.2,5.8,6.6,8.8,10c5.9,6.9,12.2,14.1,19.5,21
				c7.3,6.8,15.8,13.2,25.8,17.3c5,2,10.2,3.4,15.4,4.1c5.2,0.7,10.4,0.8,15.4,0.5c10.1-0.5,19.7-3,28.1-6.9
				c8.4-3.8,15.7-8.9,21.9-14.1c3.1-2.6,6-5.3,8.7-7.9c2.7-2.6,5.2-5.3,7.5-7.8c4.6-5.1,8.6-9.9,12.1-14.1c3.5-4.2,6.4-7.9,8.9-10.8
				c0.2-0.2,0.4-0.5,0.6-0.7c0.9-1,1.8-2,2.8-3.1c1.4-1.5,2.8-3,4.3-4.6c6.1-6.4,13.4-13.9,22-21.8c8.6-7.9,18.3-16.4,27.4-26.7
				c1.1-1.3,2.3-2.5,3.3-3.8c1-1.3,2.1-2.6,3.1-3.9c2-2.6,4.1-5.2,5.8-8.1c3.4-5.7,5.5-11.8,6.5-17.7
				C560.2,509.6,560.1,503.9,559.6,498.6z M555.9,515c-1.1,5.6-3.2,11.2-6.5,16.4c-1.6,2.6-3.6,5.1-5.6,7.6c-1,1.3-2,2.6-3.1,3.8
				c-1.1,1.3-2.2,2.5-3.3,3.7c-8.8,10-18.4,18.6-26.7,26.9c-8.4,8.2-15.5,16.1-21.2,22.9c-1.4,1.7-2.8,3.3-4,4.9
				c-1.2,1.6-2.4,3-3.5,4.4c-2.2,2.8-4,5.2-5.5,7.1c-0.1,0.2-0.2,0.3-0.3,0.4c-0.8,0.9-1.7,1.9-2.6,2.9c-3.6,4.1-7.8,8.7-12.6,13.5
				c-2.4,2.4-4.9,5-7.7,7.5c-2.7,2.5-5.6,5.1-8.8,7.6c-6.2,5-13.4,9.7-21.6,13.2c-8.2,3.5-17.3,5.8-27,6.2
				c-4.8,0.3-9.7,0.1-14.6-0.6c-4.9-0.7-9.8-2-14.5-3.9c-9.4-3.8-17.6-9.9-24.7-16.5c-7.2-6.6-13.5-13.7-19.6-20.4
				c-6.1-6.7-11.9-13.2-17.7-18.8c-2.9-2.8-5.8-5.5-8.5-8c-0.8-0.8-1.7-1.5-2.5-2.3c-2.2-2.4-4.5-5-6.9-7.6
				c-2.5-2.8-5.1-5.5-7.9-8.4c-2.8-2.8-5.6-5.7-8.6-8.6c-5.9-5.9-12.3-11.9-18.6-18.3c-1.5-1.6-3.1-3.3-4.7-4.9
				c-1.6-1.7-3.1-3.4-4.6-5.1c-3.1-3.5-5.9-7.1-8.6-11c-5.3-7.8-9-16.3-10.8-24.9c-1.9-8.6-2-17.3-1-25.4c2-16.3,9.2-29.8,16.8-39.6
				c3.8-4.9,8.1-8.6,12-11.8c3.9-3.1,7.4-5.6,10.3-7.6c5.8-4,9-6.2,9-6.2s-3.3,2-9.3,5.7c-3,1.9-6.6,4.2-10.7,7.2
				c-4,3-8.6,6.6-12.7,11.5c-4.1,4.9-8,10.7-11.3,17.5c-2.6,5.2-4.6,11-6.1,17.2c-0.1-0.2-0.3-0.3-0.5-0.5c-0.3-2.4-0.6-5.1-1-8.1
				c0-0.6,0-1.1,0-1.7c0-1-0.1-2.1-0.2-3.2c-0.2-1.1-0.3-2.2-0.5-3.3c0-0.1,0-0.3-0.1-0.4c-0.2-4.8,0-10.1,1.3-15.7
				c1.5-6.9,4.5-14.2,7.7-22c0.8-2,1.6-4,2.3-6.1c0.4-1,0.8-2.1,1.1-3.1c0.3-1.1,0.7-2.2,1-3.3c0.7-2.2,1.2-4.5,1.7-6.7
				c0.6-2.3,1-4.6,1.4-7c1.7-9.5,2.8-19.5,3.6-29.8c0.8-10.3,1.5-21,2.9-31.9c1.4-10.8,3.3-21.3,6.6-30.9c1.7-4.8,3.5-9.5,5.7-13.9
				c1-2.2,2.3-4.3,3.4-6.4c0.6-1,1.2-2,1.9-3.1c0.6-1,1.2-2,1.9-3c5.2-7.8,11.1-14.6,17.1-20.4c6.1-5.8,12.2-10.7,18.1-14.8
				c1.1-0.8,2.2-1.5,3.4-2.3c0.4-0.2,0.7-0.5,1.1-0.7c1.2-0.7,2.4-1.5,3.7-2.3c1.3-0.8,2.7-1.5,4.1-2.3c2.8-1.7,5.9-3.2,9.2-4.8
				c1.7-0.7,3.4-1.5,5.2-2.3c1.8-0.8,3.7-1.4,5.5-2.2c7.6-2.8,16.4-4.8,25.8-5.7c4.8-0.4,9.7-0.6,14.8-0.7
				c5.1-0.1,10.4-0.3,15.9-0.5c10.8-0.4,22.2-0.7,33.8,0.1c5.8,0.5,11.7,1.1,17.6,2.4c5.8,1.3,11.7,3,17.4,5.3
				c11.4,4.6,21.7,11,30.7,18.4c8.9,7.5,16.7,15.7,23.2,24.2c6.5,8.5,11.7,17.4,15.4,26.1c3.8,8.8,6.5,17.2,8.1,25.2
				c0.1,0.9,0.4,1.9,0.6,3.1c0.2,0.9-0.2,1.8,0.8,2.8c0,0,0,0,0,0c0,1.9,0.5,3.8,0.8,5.6c0.4,3.7,0.9,7.1,1.2,10.3
				c0.2,2.6,0.4,5,0.6,7.3c0,3.1-0.1,6.5-0.2,9.9c-0.1,2.6-0.3,5.4-0.2,8.4c0,0.7,0,1.5,0.1,2.2c0.1,0.8,0.1,1.5,0.2,2.3
				c0.2,1.5,0.6,3.1,1,4.6c0.9,3,1.9,5.9,2.7,8.8c0.2,0.7,0.4,1.5,0.5,2.2c0.2,0.7,0.3,1.5,0.4,2.3c0.2,1.6,0.5,3.1,0.7,4.7
				c0.7,6.4,0.7,13.1,0.8,20.1c0,2.7,0.1,5.3,0.2,8c0.1,1.3,0.1,2.7,0.2,3.9c0.1,1.3,0.2,2.5,0.3,3.8c0.3,5,0.5,10,1.7,14.8
				c0.6,2.4,1.5,4.6,2.2,6.6c0.4,1,0.7,2,1.1,3c0.2,0.5,0.3,0.9,0.4,1.4c0.1,0.5,0.3,0.9,0.3,1.4c0.6,3.7,0.6,7.7,1.6,11.2
				c0,0,0-0.1,0-0.1c0.5,1.8,0.9,3.5,1.3,5.2c0.5,1.7,1.1,3.3,1.6,4.8c0.5,1.6,1,3,1.5,4.5c0.3,0.7,0.5,1.4,0.7,2.1
				c0.2,0.7,0.4,1.4,0.6,2.1c0.7,2.1,1.2,4.1,1.7,6c0.5,3.1,0.8,6.4,1,9.9C557.3,503.9,557,509.4,555.9,515z"/>
			<path class="st0" d="M553.5,474.5c-1.1-2.3-1.9-4.7-2.5-7.2c-2.6-10.8-4.6-21.9-6.6-32.9c-1.3-6.8-2.5-13.9-2.5-20.8
				c0-6.5,0.8-13.1,0.4-19.6c-0.4-6.3-1.5-12.4-2.6-18.6c-1.5-3.8-2.5-7.7-2.8-11.6c-0.4,0.5-0.9,1.1-1.3,1.6
				c0.3-16.2,0.3-31.7-3.6-46.2c-3.4-12.9-6.9-25.4-12.5-38c-2.5-5.7-5.2-11.4-9.5-16c-4.2-4.5-9-7.9-12.7-12.8
				c-1.7-2.2-3.1-5.3-5.5-7c-0.1-0.1-0.2-0.1-0.3-0.2c-0.4-0.4-0.7-0.9-1-1.2c-4.1-5.4-9.3-8.6-14.9-11.9c-5.7-3.3-10.9-7-16.9-9.6
				c-6.1-2.6-12.3-5.1-18.5-7.2c-7.2-2.5-14.7-2.8-22.7-2.8c-16.3,0-33.2-0.3-49.2,1.1c-7.5,0.6-15.6,1.1-23,2.2
				c-6.8,1-13.4,3.2-19.9,5.6c-5.8,2.1-12.6,4.5-17.8,8c-5.3,3.5-11.2,6.5-16.4,10.1c-5,3.5-9.6,7.4-14.2,11.8
				c-1.9,1.7-3.2,3.7-4.4,5.9c-0.7,0.8-1.4,1.6-2.1,2.6c-3.9,4.8-8.6,9.5-12.3,14.8c-15.7,22.3-18.6,51.5-19.9,78.5
				c-0.4,0-0.9-0.1-1.3-0.2c0,7.3-0.4,14.5-0.6,21.9c-0.2,13.2-2.4,25.6-7.6,37.8c-4.5,10.8-10.8,23-11.8,35
				c0.6,2.5,0.6,5.2,0.6,7.8c0,5.9,1.1,11.7,1.4,17.6c1.8,3.2,1.2,6.7,0.7,10.1c-0.6,3.8-0.2,7.6,0.5,11.2
				c1.3,6.7,3.4,13.2,5.2,19.8c3.5,12.7,8.5,23.1,19.5,32c18.5,14.9,34.8,33.3,51.1,51.1c9.4,10.3,19.3,20.6,28.6,30.6
				c7.9,8.6,14.1,15.3,23.1,22.6c7.3,5.9,18.1,12.7,27.2,14.8c9.7,2.2,27.4,2.4,35.2-2.5l0.5,2c5.7-3.8,12.5-5.1,18.5-7.9
				c5.6-2.6,10-6.9,14.9-10.7c9.8-7.9,18.9-15.3,26.9-25.1c7.7-9.5,16.4-18.6,24.2-27.8c8.2-9.5,18.1-18.1,27.4-26.6
				c9-8.2,16.7-17.8,24.3-27.2C556,527.5,559,514.9,559,500C559,490.4,556.3,482.7,553.5,474.5z"/>
			<path d="M559.6,498.6c-0.5-5.3-1.4-10.1-2.5-14.4c-2.1-8.7-4.4-15.5-6-20.2c0-0.1-0.1-0.2-0.1-0.4c-0.1-0.8-0.3-1.6-0.4-2.4
				c-0.1-0.8-0.1-1.7-0.2-2.6c-0.1-0.9-0.1-1.9-0.2-2.9c0-1-0.2-2.1-0.3-3.1c-0.7-4.4-2.8-8.4-3.7-12.6c-0.9-4.3-1.1-9.1-1.3-14.2
				c-0.1-1.3-0.2-2.6-0.3-3.8c-0.1-1.3-0.1-2.5-0.2-3.8c-0.1-2.6-0.1-5.2-0.1-7.8c-0.1-6.9-0.1-13.8-1-20.5
				c-0.1-1.7-0.5-3.3-0.8-4.9c-0.1-0.8-0.3-1.6-0.5-2.4c-0.2-0.8-0.4-1.6-0.6-2.4c-0.9-3.1-2.1-6-3-8.8c-0.5-1.4-0.8-2.8-1.1-4.1
				c-0.1-0.7-0.2-1.4-0.3-2c0-0.7-0.1-1.4-0.1-2.1c-0.2-2.8-0.1-5.5-0.1-8.2c-0.1-5.4-0.2-10.4-0.6-15c-0.1-1.1-0.2-2.3-0.3-3.3
				c-0.2-1.1-0.3-2.1-0.5-3.2c-0.1-0.5-0.1-1-0.2-1.5c-0.1-0.5-0.2-1-0.3-1.5c-0.1-0.5-0.2-1-0.3-1.4c-0.1-0.5-0.3-0.9-0.4-1.3
				c-0.1-0.3-0.2-0.5-0.2-0.8c-0.2-1.8-0.5-3.6-0.7-5.4c-0.3-1.9-0.5-3.9-1-6c-1.4-8.1-3.9-16.9-7.6-25.9c-3.6-9-8.7-18.2-15.2-27.1
				c-6.5-8.8-14.4-17.3-23.4-25.1c-9.1-7.7-19.8-14.4-31.6-19.2c-5.9-2.4-12-4.2-18-5.5c-6.1-1.3-12.2-1.9-18.1-2.3
				c-11.9-0.7-23.4-0.2-34.2,0.4c-5.4,0.3-10.7,0.6-15.8,0.8c-5.1,0.2-10.2,0.5-15,1.1c-9.7,1.2-18.6,3.4-26.2,6.5
				c-1.9,0.8-3.8,1.5-5.6,2.4c-1.8,0.9-3.5,1.7-5.2,2.5c-2,1.1-4,2.2-5.9,3.2c-4.9,2.4-10.3,5.4-15.9,9c-6.1,3.9-12.5,8.7-18.8,14.4
				c-6.4,5.7-12.5,12.6-18,20.5c-0.7,1-1.4,2-2,3c-0.7,1-1.3,2.1-2,3.1c-1.2,2.2-2.5,4.3-3.6,6.6c-2.4,4.5-4.3,9.3-6.1,14.2
				c-3.5,9.9-5.6,20.7-7,31.7c-1.4,11-2,21.7-2.7,32.1c-0.7,10.3-1.6,20.2-3.1,29.5c-0.4,2.3-0.7,4.6-1.3,6.9
				c-0.5,2.2-0.9,4.5-1.5,6.6c-0.3,1.1-0.6,2.1-0.9,3.2c-0.3,1-0.7,2.1-1,3.1c-0.6,2.1-1.4,4.1-2.1,6c-2.8,7.4-5.4,14.4-6.8,21.2
				c-0.3,1-0.5,2.1-0.8,3.1c-0.6,2.6-0.8,5.3-0.7,7.8c0,1,0.1,1.9,0.2,2.8c0.1,2.6,0.3,5,0.6,7.3c0.2,1.3,0.3,2.5,0.5,3.7
				c0,3.9-0.2,7.2,0.2,9.6v0c-0.1,0.7-0.1,1.5,0,2.3c0.1,0.8,0.7,2.7,1.5,3.6c0,0.1,0,0.2,0,0.2c-1.2,8.4-1.2,17.5,0.6,26.6
				c1.8,9.1,5.8,18.2,11.3,26.3c2.7,4.1,5.8,7.9,8.9,11.4c1.6,1.7,3.1,3.5,4.7,5.2c1.6,1.7,3.2,3.3,4.8,5
				c6.4,6.5,12.9,12.4,18.9,18.1c0.9,0.9,1.8,1.7,2.7,2.6c0.9,1,1.9,2,2.9,3c3.8,3.9,8.2,8.3,13.2,13c0.8,0.8,1.7,1.6,2.5,2.5
				c3.5,3.6,6.8,7,9.9,10.2c4.4,4.5,8.4,8.6,11.9,12.2c2.9,3.2,5.8,6.6,8.8,10c5.9,6.9,12.2,14.1,19.5,21
				c7.3,6.8,15.8,13.2,25.8,17.3c5,2,10.2,3.4,15.4,4.1c5.2,0.7,10.4,0.8,15.4,0.5c10.1-0.5,19.7-3,28.1-6.9
				c8.4-3.8,15.7-8.9,21.9-14.1c3.1-2.6,6-5.3,8.7-7.9c2.7-2.6,5.2-5.3,7.5-7.8c4.6-5.1,8.6-9.9,12.1-14.1c3.5-4.2,6.4-7.9,8.9-10.8
				c0.2-0.2,0.4-0.5,0.6-0.7c0.9-1,1.8-2,2.8-3.1c1.4-1.5,2.8-3,4.3-4.6c6.1-6.4,13.4-13.9,22-21.8c8.6-7.9,18.3-16.4,27.4-26.7
				c1.1-1.3,2.3-2.5,3.3-3.8c1-1.3,2.1-2.6,3.1-3.9c2-2.6,4.1-5.2,5.8-8.1c3.4-5.7,5.5-11.8,6.5-17.7
				C560.2,509.6,560.1,503.9,559.6,498.6z M555.9,515c-1.1,5.6-3.2,11.2-6.5,16.4c-1.6,2.6-3.6,5.1-5.6,7.6c-1,1.3-2,2.6-3.1,3.8
				c-1.1,1.3-2.2,2.5-3.3,3.7c-8.8,10-18.4,18.6-26.7,26.9c-8.4,8.2-15.5,16.1-21.2,22.9c-1.4,1.7-2.8,3.3-4,4.9
				c-1.2,1.6-2.4,3-3.5,4.4c-2.2,2.8-4,5.2-5.5,7.1c-0.1,0.2-0.2,0.3-0.3,0.4c-0.8,0.9-1.7,1.9-2.6,2.9c-3.6,4.1-7.8,8.7-12.6,13.5
				c-2.4,2.4-4.9,5-7.7,7.5c-2.7,2.5-5.6,5.1-8.8,7.6c-6.2,5-13.4,9.7-21.6,13.2c-8.2,3.5-17.3,5.8-27,6.2
				c-4.8,0.3-9.7,0.1-14.6-0.6c-4.9-0.7-9.8-2-14.5-3.9c-9.4-3.8-17.6-9.9-24.7-16.5c-7.2-6.6-13.5-13.7-19.6-20.4
				c-6.1-6.7-11.9-13.2-17.7-18.8c-2.9-2.8-5.8-5.5-8.5-8c-0.8-0.8-1.7-1.5-2.5-2.3c-2.2-2.4-4.5-5-6.9-7.6
				c-2.5-2.8-5.1-5.5-7.9-8.4c-2.8-2.8-5.6-5.7-8.6-8.6c-5.9-5.9-12.3-11.9-18.6-18.3c-1.5-1.6-3.1-3.3-4.7-4.9
				c-1.6-1.7-3.1-3.4-4.6-5.1c-3.1-3.5-5.9-7.1-8.6-11c-5.3-7.8-9-16.3-10.8-24.9c-1.9-8.6-2-17.3-1-25.4c2-16.3,9.2-29.8,16.8-39.6
				c3.8-4.9,8.1-8.6,12-11.8c3.9-3.1,7.4-5.6,10.3-7.6c5.8-4,9-6.2,9-6.2s-3.3,2-9.3,5.7c-3,1.9-6.6,4.2-10.7,7.2
				c-4,3-8.6,6.6-12.7,11.5c-4.1,4.9-8,10.7-11.3,17.5c-2.6,5.2-4.6,11-6.1,17.2c-0.1-0.2-0.3-0.3-0.5-0.5c-0.3-2.4-0.6-5.1-1-8.1
				c0-0.6,0-1.1,0-1.7c0-1-0.1-2.1-0.2-3.2c-0.2-1.1-0.3-2.2-0.5-3.3c0-0.1,0-0.3-0.1-0.4c-0.2-4.8,0-10.1,1.3-15.7
				c1.5-6.9,4.5-14.2,7.7-22c0.8-2,1.6-4,2.3-6.1c0.4-1,0.8-2.1,1.1-3.1c0.3-1.1,0.7-2.2,1-3.3c0.7-2.2,1.2-4.5,1.7-6.7
				c0.6-2.3,1-4.6,1.4-7c1.7-9.5,2.8-19.5,3.6-29.8c0.8-10.3,1.5-21,2.9-31.9c1.4-10.8,3.3-21.3,6.6-30.9c1.7-4.8,3.5-9.5,5.7-13.9
				c1-2.2,2.3-4.3,3.4-6.4c0.6-1,1.2-2,1.9-3.1c0.6-1,1.2-2,1.9-3c5.2-7.8,11.1-14.6,17.1-20.4c6.1-5.8,12.2-10.7,18.1-14.8
				c1.1-0.8,2.2-1.5,3.4-2.3c0.4-0.2,0.7-0.5,1.1-0.7c1.2-0.7,2.4-1.5,3.7-2.3c1.3-0.8,2.7-1.5,4.1-2.3c2.8-1.7,5.9-3.2,9.2-4.8
				c1.7-0.7,3.4-1.5,5.2-2.3c1.8-0.8,3.7-1.4,5.5-2.2c7.6-2.8,16.4-4.8,25.8-5.7c4.8-0.4,9.7-0.6,14.8-0.7
				c5.1-0.1,10.4-0.3,15.9-0.5c10.8-0.4,22.2-0.7,33.8,0.1c5.8,0.5,11.7,1.1,17.6,2.4c5.8,1.3,11.7,3,17.4,5.3
				c11.4,4.6,21.7,11,30.7,18.4c8.9,7.5,16.7,15.7,23.2,24.2c6.5,8.5,11.7,17.4,15.4,26.1c3.8,8.8,6.5,17.2,8.1,25.2
				c0.1,0.9,0.4,1.9,0.6,3.1c0.2,0.9-0.2,1.8,0.8,2.8c0,0,0,0,0,0c0,1.9,0.5,3.8,0.8,5.6c0.4,3.7,0.9,7.1,1.2,10.3
				c0.2,2.6,0.4,5,0.6,7.3c0,3.1-0.1,6.5-0.2,9.9c-0.1,2.6-0.3,5.4-0.2,8.4c0,0.7,0,1.5,0.1,2.2c0.1,0.8,0.1,1.5,0.2,2.3
				c0.2,1.5,0.6,3.1,1,4.6c0.9,3,1.9,5.9,2.7,8.8c0.2,0.7,0.4,1.5,0.5,2.2c0.2,0.7,0.3,1.5,0.4,2.3c0.2,1.6,0.5,3.1,0.7,4.7
				c0.7,6.4,0.7,13.1,0.8,20.1c0,2.7,0.1,5.3,0.2,8c0.1,1.3,0.1,2.7,0.2,3.9c0.1,1.3,0.2,2.5,0.3,3.8c0.3,5,0.5,10,1.7,14.8
				c0.6,2.4,1.5,4.6,2.2,6.6c0.4,1,0.7,2,1.1,3c0.2,0.5,0.3,0.9,0.4,1.4c0.1,0.5,0.3,0.9,0.3,1.4c0.6,3.7,0.6,7.7,1.6,11.2
				c0,0,0-0.1,0-0.1c0.5,1.8,0.9,3.5,1.3,5.2c0.5,1.7,1.1,3.3,1.6,4.8c0.5,1.6,1,3,1.5,4.5c0.3,0.7,0.5,1.4,0.7,2.1
				c0.2,0.7,0.4,1.4,0.6,2.1c0.7,2.1,1.2,4.1,1.7,6c0.5,3.1,0.8,6.4,1,9.9C557.3,503.9,557,509.4,555.9,515z"/>
			<g class="st4">
				<g>
					<g>
						<path d="M410.5,615c0,0-0.7,0-1.9-0.1c-1.2-0.1-2.9-0.1-4.9-0.1c-1,0-2.1,0-3.2,0.1c-0.6,0-1.2,0-1.8,0.1
							c-0.6,0-1.2,0.1-1.9,0.1c-2.5,0.1-5.3,0.3-8.3,0.5c-6,0.3-11.7,0-15.9-0.8c-2.1-0.4-3.8-0.8-4.9-1.1c-1.2-0.3-1.8-0.6-1.8-0.6
							s0.6-0.3,1.8-0.6c1.1-0.4,2.7-0.9,4.7-1.5c4-1.2,9.4-2.8,15.8-3.1c3.2-0.1,6.4,0.2,9.2,0.8c0.7,0.2,1.4,0.3,2,0.5
							c0.7,0.2,1.3,0.4,1.9,0.6c1.2,0.4,2.3,0.9,3.3,1.4c1.9,1,3.4,2,4.3,2.8C410,614.6,410.5,615,410.5,615z"/>
					</g>
				</g>
			</g>
			<g class="st4">
				<g>
					<g>
						<path class="st5" d="M443,635c0,0-0.1,0.6-0.5,1.7c-0.1,0.3-0.2,0.6-0.3,0.9c-0.1,0.3-0.3,0.7-0.5,1c-0.2,0.4-0.4,0.8-0.6,1.2
							c-0.2,0.4-0.5,0.8-0.8,1.3c-1.1,1.8-2.8,3.7-4.8,5.6c-2.1,1.8-4.6,3.5-7.5,4.8c-5.7,2.6-11.4,3.2-15.5,3.1
							c-1,0-1.9-0.1-2.7-0.1c-0.8-0.1-1.5-0.1-2.1-0.2c-1.1-0.2-1.8-0.3-1.8-0.3s0.6-0.3,1.5-0.9c0.5-0.3,1.1-0.6,1.8-1
							c0.7-0.4,1.5-0.8,2.3-1.2c3.5-1.8,8.1-4.1,13.1-6.4c2.5-1.1,4.9-2.2,7.1-3.2c2.1-1,4.1-2,5.8-2.9c0.4-0.2,0.8-0.4,1.2-0.7
							c0.4-0.2,0.7-0.4,1-0.6c0.3-0.2,0.6-0.4,0.9-0.6c0.3-0.2,0.5-0.4,0.7-0.5C442.4,635.4,443,635,443,635z"/>
					</g>
				</g>
			</g>
			<g class="st4">
				<g>
					<g>
						<path class="st5" d="M234,473c0,0,0,0.8,0,2.3c0,0.4,0,0.8,0,1.2c0,0.4,0,0.9,0,1.4c0,1,0,2.2,0.1,3.4c0,0.6,0.1,1.3,0.1,2
							c0,0.7,0.1,1.4,0.2,2.1c0.1,1.4,0.3,3,0.4,4.6c0.4,3.2,0.9,6.6,1.6,10.3c0.7,3.6,1.4,7.1,2.1,10.2c0.4,1.6,0.7,3.1,1.1,4.5
							c0.2,0.7,0.4,1.4,0.5,2.1c0.2,0.7,0.4,1.3,0.5,1.9c0.3,1.2,0.7,2.3,1,3.3c0.1,0.5,0.3,1,0.4,1.4c0.1,0.4,0.3,0.8,0.4,1.1
							c0.4,1.4,0.7,2.2,0.7,2.2s-0.6-0.5-1.7-1.6c-0.3-0.3-0.6-0.5-0.9-0.9c-0.3-0.3-0.6-0.7-1-1.1c-0.7-0.8-1.5-1.7-2.3-2.8
							c-0.4-0.5-0.8-1.1-1.2-1.7c-0.4-0.6-0.8-1.3-1.2-1.9c-0.9-1.3-1.6-2.8-2.4-4.4c-1.5-3.2-2.8-7-3.6-11
							c-0.7-4.1-0.8-8.1-0.5-11.6c0.2-1.8,0.4-3.5,0.8-5c0.2-0.8,0.3-1.5,0.6-2.2c0.2-0.7,0.4-1.4,0.7-2c0.4-1.3,0.9-2.4,1.4-3.4
							c0.2-0.5,0.4-0.9,0.6-1.3c0.2-0.4,0.4-0.8,0.6-1.1C233.5,473.7,234,473,234,473z"/>
					</g>
				</g>
			</g>
			<g>
				<g>
					<g>
						<path d="M181,347c0,0-0.1,0.3-0.4,1c-0.1,0.3-0.3,0.7-0.4,1.2c-0.2,0.5-0.4,1-0.5,1.6c-0.2,0.6-0.3,1.3-0.5,2.1
							c-0.1,0.8-0.2,1.6-0.4,2.5c0,0.9-0.1,1.8-0.1,2.8c0,1,0,2.1,0,3.2c0,1.1,0,2.3,0,3.5c-0.1,1.2-0.2,2.4-0.2,3.7
							c-0.1,2.5,0.2,5.1,0.8,7.7c1.3,5.2,3.8,10.7,7.5,15c0.4,0.5,1,1,1.5,1.5c0.5,0.5,1,1,1.6,1.4c1.1,0.9,2.2,1.8,3.5,2.4
							c1.2,0.8,2.5,1.3,3.7,1.9c1.3,0.4,2.5,1,3.8,1.2c5.2,1.3,10.3,1.1,14.5,0.5c4.3-0.6,7.8-1.7,10.2-2.5c2.5-0.8,3.9-1.4,4-1.4
							c0.8-0.3,1.7,0.3,2.1,1.3s0.1,2-0.7,2.3c-0.1,0-1.6,0.6-4.2,1.3c-2.6,0.7-6.3,1.7-10.9,2.2c-4.6,0.5-10.1,0.5-15.6-1.1
							c-1.4-0.3-2.8-1-4.1-1.5c-1.3-0.7-2.7-1.3-3.9-2.2c-1.3-0.8-2.4-1.8-3.6-2.8c-0.6-0.5-1.1-1.1-1.6-1.6
							c-0.5-0.5-1.1-1.1-1.5-1.7c-2-2.4-3.4-5-4.6-7.7c-1.2-2.7-2-5.5-2.6-8.3c-0.5-2.8-0.8-5.5-0.5-8.1c0.1-1.3,0.3-2.5,0.4-3.7
							c0.1-1.2,0.1-2.3,0.2-3.4c0-1.1,0.1-2.2,0.1-3.2c0-1,0.2-2,0.3-2.9c0.2-0.9,0.3-1.7,0.5-2.5c0.2-0.7,0.4-1.4,0.6-2
							c0.2-0.6,0.4-1.1,0.6-1.6c0.2-0.5,0.4-0.9,0.5-1.2C180.9,347.3,181,347,181,347z"/>
					</g>
				</g>
			</g>
			<g>
				<g>
					<g>
						<path d="M181,383c0,0-0.2-0.4-0.4-1.2c-0.1-0.4-0.3-0.8-0.5-1.4c-0.2-0.5-0.4-1.2-0.6-1.9c-0.9-2.9-1.8-7.1-1.9-12.4
							c-0.2-5.2,0.6-11.3,2.7-17.5c1.1-3.1,2.5-6.2,4.4-9.1c1.9-2.9,4.3-5.6,7-7.9c2.7-2.3,5.8-4.1,9.1-5.4c0.8-0.3,1.6-0.6,2.4-0.9
							c0.8-0.3,1.7-0.5,2.5-0.8c0.9-0.2,1.7-0.3,2.6-0.5c0.9-0.1,1.7-0.1,2.6-0.2c3.4-0.1,6.7,0.2,9.7,1c0.8,0.2,1.5,0.5,2.2,0.7
							c0.7,0.2,1.4,0.5,2.1,0.9c1.4,0.6,2.7,1.4,3.8,2.3c2.3,1.8,3.9,3.9,5.1,5.9c1.2,2,1.9,3.8,2.5,5.3c1.1,3,1.6,4.8,1.6,4.9
							c0.3,0.9-0.4,1.9-1.4,2.2c-1,0.3-2.1-0.2-2.3-1.1c0-0.1-0.5-1.9-1.4-4.7c-1-2.8-2.5-6.8-6.1-9.9c-0.9-0.8-2-1.4-3.1-2
							c-0.6-0.3-1.2-0.6-1.8-0.8c-0.6-0.2-1.3-0.5-2-0.7c-2.7-0.8-5.7-1.3-8.8-1.2c-0.8,0-1.6,0-2.3,0.1c-0.8,0.1-1.5,0.2-2.3,0.3
							c-0.8,0.2-1.5,0.4-2.3,0.7c-0.8,0.3-1.6,0.5-2.4,0.8c-3.1,1.2-6.1,2.8-8.7,4.8c-2.7,2-5,4.5-6.9,7.2c-1.9,2.7-3.4,5.7-4.6,8.6
							c-1.1,3-2,6-2.5,8.9c-0.5,2.9-0.8,5.7-0.8,8.2c-0.2,5.2,0.6,9.4,1.4,12.3c0.2,0.7,0.4,1.4,0.6,1.9c0.2,0.6,0.4,1,0.5,1.4
							C180.9,382.6,181,383,181,383z"/>
					</g>
				</g>
			</g>
			<path class="st2" d="M214.6,361.4c-2.4-0.2-4.8-0.4-7.2-0.4h-16.7c-2.9,0-5.5-0.4-8.3-0.5c-3.2-0.2-4.1,1-6.6,1.6
				c-0.2,2.4,0.6,4.8,1.2,7c0.9,3.4,1.1,3.4,4.8,3c5.2-0.5,10.8-0.4,16.3-0.4c6,0,11.9,0.2,17.9,0.4
				C216,368.5,215.3,365.2,214.6,361.4z"/>
			<g>
				<path d="M593.9,368.4c-0.1-1.3-0.3-2.5-0.4-3.7c-0.1-1.2-0.1-2.3-0.2-3.4c0-1.1-0.1-2.2-0.1-3.2c0-1-0.2-2-0.3-2.9
					c-0.2-0.9-0.3-1.7-0.5-2.5c-0.2-0.7-0.4-1.4-0.6-2c-0.2-0.6-0.4-1.1-0.6-1.6c-0.2-0.5-0.4-0.9-0.5-1.2c-0.3-0.6-0.4-1-0.4-1
					s0.1,0.3,0.4,1c0.1,0.3,0.3,0.7,0.4,1.2c0.2,0.5,0.4,1,0.5,1.6c0.2,0.6,0.3,1.3,0.5,2.1c0.1,0.8,0.2,1.6,0.4,2.5
					c0,0.9,0.1,1.8,0.1,2.8c0,1,0,2.1,0,3.2c0,1.1,0,2.3,0,3.5c0.1,1.2,0.2,2.4,0.2,3.7c0.1,2.5-0.2,5.1-0.8,7.7
					c-1.3,5.2-3.8,10.7-7.5,15c-0.5,0.5-1,1-1.5,1.5c-0.5,0.5-1,1-1.6,1.4c-1.1,0.9-2.2,1.8-3.5,2.4c-1.2,0.8-2.5,1.3-3.7,1.9
					c-1.3,0.4-2.5,1-3.8,1.2c-5.2,1.3-10.3,1.1-14.5,0.5c-4.3-0.6-7.8-1.7-10.2-2.5c-1.8-0.6-3-1.1-3.6-1.3c0,0.9,0,1.7,0.1,2.6
					c0,0.4,0.2,1,0.3,1.7c0.6,0.2,1.3,0.4,2.1,0.6c2.6,0.7,6.3,1.7,10.9,2.2c4.6,0.5,10.1,0.5,15.6-1.1c1.4-0.3,2.8-1,4.1-1.5
					c1.3-0.7,2.7-1.3,3.9-2.2c1.3-0.8,2.4-1.8,3.6-2.8c0.6-0.5,1.1-1.1,1.6-1.6c0.5-0.5,1.1-1.1,1.5-1.7c2-2.4,3.4-5,4.6-7.7
					c1.2-2.7,2-5.5,2.6-8.3C593.9,373.7,594.1,371,593.9,368.4z"/>
			</g>
			<g>
				<path d="M591.1,348.7c-1.1-3.1-2.5-6.2-4.4-9.1c-1.9-2.9-4.3-5.6-7-7.9c-2.7-2.3-5.8-4.1-9.1-5.4c-0.8-0.3-1.6-0.6-2.4-0.9
					c-0.8-0.3-1.7-0.5-2.5-0.8c-0.9-0.2-1.7-0.3-2.6-0.5c-0.9-0.1-1.7-0.1-2.6-0.2c-3.4-0.1-6.7,0.2-9.7,1c-0.8,0.2-1.5,0.5-2.2,0.7
					c-0.7,0.2-1.4,0.5-2.1,0.9c-1.4,0.6-2.7,1.4-3.8,2.3c-2.3,1.8-3.9,3.9-5.1,5.9c-1,1.7-1.7,3.4-2.3,4.8c0.5,2.6,0.6,5.1,0.5,7.7
					c0.7-0.1,1.2-0.6,1.4-1.2c0-0.1,0.5-1.9,1.4-4.7c1-2.8,2.5-6.8,6.1-9.9c0.9-0.8,2-1.4,3.1-2c0.6-0.3,1.2-0.6,1.8-0.8
					c0.6-0.2,1.3-0.5,2-0.7c2.7-0.8,5.7-1.3,8.8-1.2c0.8,0,1.6,0,2.3,0.1c0.8,0.1,1.5,0.2,2.3,0.3c0.8,0.2,1.5,0.4,2.3,0.7
					c0.8,0.3,1.6,0.5,2.4,0.8c3.1,1.2,6.1,2.8,8.7,4.8c2.7,2,5,4.5,6.9,7.2c1.9,2.7,3.4,5.7,4.6,8.6c1.1,3,2,6,2.5,8.9
					c0.5,2.9,0.8,5.7,0.8,8.2c0.2,5.2-0.6,9.4-1.4,12.3c-0.2,0.7-0.4,1.4-0.6,1.9c-0.2,0.6-0.4,1-0.5,1.4c-0.3,0.8-0.4,1.2-0.4,1.2
					s0.2-0.4,0.4-1.2c0.1-0.4,0.3-0.8,0.5-1.4c0.2-0.5,0.4-1.2,0.6-1.9c0.9-2.9,1.8-7.1,1.8-12.4C593.9,361,593.2,354.9,591.1,348.7
					z"/>
			</g>
			<g>
				<g>
					<g>
						<path d="M209.5,386.5c0,0-0.2,0-0.5-0.1c-0.3-0.1-0.8-0.2-1.5-0.4c-0.6-0.2-1.4-0.6-2.2-1.2c-0.8-0.6-1.6-1.5-2-3
							c-0.2-0.7-0.2-1.5,0-2.3c0.2-0.8,0.5-1.5,1-2.2c0.2-0.3,0.5-0.7,0.7-1l0.4-0.5c0.2-0.2,0.4-0.3,0.5-0.5c0.8-0.6,1.6-1,2.4-1.2
							c1.6-0.6,3.3-0.8,4.6-1.3c0.7-0.2,1.3-0.5,1.7-0.8c0.2-0.2,0.4-0.3,0.6-0.5c0.1-0.1,0.2-0.2,0.2-0.3c0.1-0.1,0.1-0.1,0.1-0.2
							c0.2-0.5,0.3-1.1,0.2-1.7c-0.1-0.6-0.2-1.2-0.5-1.9c-0.5-1.4-1.4-2.8-1.9-4.5c-0.1-0.4-0.2-0.9-0.3-1.3c0-0.5-0.1-0.9,0-1.4
							c0-0.2,0.1-0.5,0.1-0.7c0.1-0.2,0.1-0.4,0.2-0.7c0.1-0.4,0.3-0.8,0.5-1.2c0.8-1.4,1.9-2.3,2.8-3.1c1.9-1.5,3.8-2.3,5.1-2.6
							c0.7-0.2,1.2-0.2,1.5-0.2c0.3,0,0.5,0,0.5,0s-0.2,0-0.5,0.1c-0.3,0.1-0.8,0.3-1.3,0.6c-1.1,0.6-2.5,1.7-3.9,3.4
							c-0.7,0.8-1.4,1.8-1.8,2.8c-0.3,1-0.3,1.9,0.3,3.1c0.5,1.2,1.4,2.4,2.2,4.1c0.4,0.9,0.7,1.8,0.9,3c0.1,1.1,0,2.3-0.4,3.5
							c0,0.2-0.1,0.3-0.2,0.5l-0.3,0.4c-0.2,0.3-0.3,0.5-0.6,0.7c-0.4,0.5-0.9,0.9-1.4,1.2c-1,0.6-2,0.9-2.9,1.2
							c-1.8,0.4-3.4,0.5-4.7,0.8c-0.7,0.1-1.2,0.3-1.6,0.6c-0.1,0.1-0.2,0.1-0.3,0.2l-0.3,0.3c-0.2,0.2-0.4,0.4-0.6,0.6
							c-0.8,0.8-1.2,1.7-1.2,2.5c0,0.9,0.4,1.7,0.9,2.4c0.5,0.7,1.1,1.2,1.6,1.5c0.5,0.4,0.9,0.6,1.2,0.8
							C209.3,386.4,209.5,386.5,209.5,386.5z"/>
					</g>
				</g>
			</g>
			<path class="st3" d="M214.5,361.5c0.2-4.4,5.1-9.6,9.2-9.6c1.3-5.7-6.4-6.2-10.7-5.9c-5.4,0.4-7.9,3.8-10.1,8.4
				c-4.3,8.9-2.3,27,2.3,29.9c-2.3-8,4.2-6.5,8.8-9.8c5.5-3.8,1.6-8.8,1-14"/>
			<g>
				<g>
					<g>
						<path d="M562.4,386.5c0,0,0.2-0.1,0.5-0.3c0.3-0.2,0.7-0.4,1.2-0.8c0.5-0.4,1.1-0.9,1.6-1.5c0.5-0.7,0.9-1.5,0.9-2.4
							c0-0.9-0.4-1.7-1.2-2.5c-0.2-0.2-0.4-0.4-0.6-0.6l-0.3-0.3c-0.1-0.1-0.2-0.1-0.3-0.2c-0.4-0.2-1-0.4-1.6-0.6
							c-1.3-0.3-2.9-0.4-4.7-0.8c-0.9-0.2-1.9-0.5-2.9-1.2c-0.5-0.3-1-0.7-1.4-1.2c-0.2-0.2-0.4-0.5-0.6-0.7l-0.3-0.4
							c-0.1-0.2-0.2-0.3-0.2-0.5c-0.4-1.1-0.5-2.3-0.4-3.5c0.1-1.1,0.5-2.1,0.9-3c0.8-1.7,1.7-3,2.2-4.1c0.5-1.2,0.6-2.1,0.3-3.1
							c-0.4-1-1.1-2-1.8-2.8c-1.4-1.7-2.9-2.8-3.9-3.4c-0.5-0.3-1-0.5-1.3-0.6c-0.3-0.1-0.5-0.1-0.5-0.1s0.2,0,0.5,0
							c0.3,0,0.9,0,1.5,0.2c1.3,0.3,3.1,1.1,5.1,2.6c1,0.8,2,1.7,2.8,3.1c0.2,0.4,0.4,0.8,0.5,1.2c0.1,0.2,0.1,0.4,0.2,0.7
							c0,0.2,0.1,0.5,0.1,0.7c0.1,0.5,0,0.9,0,1.4c-0.1,0.4-0.2,0.9-0.3,1.3c-0.5,1.7-1.3,3.1-1.9,4.5c-0.2,0.7-0.4,1.3-0.5,1.9
							c0,0.6,0,1.1,0.2,1.7c0,0.1,0.1,0.1,0.1,0.2c0.1,0.1,0.1,0.2,0.2,0.3c0.1,0.2,0.3,0.4,0.6,0.5c0.4,0.3,1.1,0.6,1.7,0.8
							c1.4,0.4,3,0.7,4.6,1.3c0.8,0.3,1.6,0.7,2.4,1.2c0.2,0.1,0.4,0.3,0.5,0.5l0.4,0.5c0.3,0.3,0.5,0.6,0.7,1
							c0.5,0.6,0.8,1.4,1,2.2c0.2,0.8,0.2,1.6,0,2.3c-0.4,1.4-1.2,2.4-2,3c-0.8,0.6-1.5,1-2.2,1.2c-0.6,0.2-1.1,0.4-1.5,0.4
							C562.6,386.5,562.4,386.5,562.4,386.5z"/>
					</g>
				</g>
			</g>
			<g>
				<path d="M214.3,360.2c-1.4-0.1-2.8-0.1-4.3-0.1c-18.6,0-33.7,1-33.7,1s15.1,1,33.7,1c1.6,0,3.1,0.1,4.7,0.1
					C214.6,361.5,214.4,360.8,214.3,360.2z"/>
			</g>
			<g>
				<g>
					<g>
						<path d="M175.7,372.3c0,0-0.1-0.4-0.2-1c-0.1-0.6-0.3-1.6-0.5-2.7c-0.2-1.2-0.5-2.6-0.3-4.3c0.1-0.8,0.3-1.8,0.9-2.7
							c0.6-0.9,1.6-1.5,2.7-1.7c0.5-0.1,1-0.1,1.5-0.2c0.4,0,0.9-0.1,1.3-0.1c0.9,0,1.7-0.1,2.5,0c1.6,0,3,0.1,4.2,0.4
							c1.2,0.2,2.1,0.5,2.7,0.7c0.6,0.2,1,0.4,1,0.4s-0.4,0-1-0.1c-0.7,0-1.6-0.1-2.7,0c-1.2,0-2.5,0.2-4,0.3
							c-0.8,0.1-1.6,0.2-2.4,0.3c-0.4,0-0.8,0.1-1.3,0.1c-0.4,0.1-0.8,0.1-1.2,0.2c-0.7,0.2-1.3,0.5-1.6,1c-0.4,0.5-0.6,1.1-0.8,1.8
							c-0.3,1.4-0.3,2.8-0.3,3.9c0,1.2-0.1,2.1-0.1,2.8C175.7,372,175.7,372.3,175.7,372.3z"/>
					</g>
				</g>
			</g>
			<g>
				<path d="M215.9,371.5c-2.4-0.1-4.8-0.2-7.4-0.3c-1.8-0.1-3.5-0.1-5.2-0.2c-1.7-0.1-3.4,0.1-5,0.1c-1.6,0.1-3.2,0.1-4.7,0.2
					c-1.5,0.1-2.9,0.2-4.3,0.3c-5.4,0.2-10.1,1.6-12.2,0.4l0,0c-0.6-0.3-1-0.9-1.2-1.5c-0.2-0.6-0.2-1.2-0.2-1.8
					c0-1.1,0.2-2,0.2-2.7c0.1-0.7,0-1.2,0-1.6c0-0.3-0.1-0.5-0.1-0.5s0,0.2,0,0.5c0,0.3,0,0.8-0.2,1.5c-0.1,0.7-0.3,1.6-0.4,2.7
					c-0.1,0.6-0.1,1.2,0,1.9c0.1,0.7,0.6,1.5,1.4,1.9c0,0,0,0,0,0c1.2,0.9,3.2,1,5.3,0.9c1.1,0,2.2-0.2,3.4-0.2
					c1.2,0,2.5-0.1,3.9-0.1c1.4,0,2.8-0.1,4.3-0.1c1.5,0,3,0,4.6-0.1c1.6,0,3.2-0.1,4.9,0c1.7,0.1,3.4,0.1,5.2,0.2
					c2.5,0.1,4.9,0.2,7.3,0.2C215.9,372.8,215.9,372.1,215.9,371.5z"/>
			</g>
			<g>
				<g>
					<g>
						<path d="M173.3,373.7c0,0-0.1-0.6-0.3-1.7c-0.1-1-0.4-2.4-0.5-4c-0.1-1.6-0.1-3,0.1-4c0.2-1,0.3-1.7,0.3-1.7s0.1,0.6,0.2,1.7
							c0,1,0.3,2.4,0.3,4c0.1,1.6,0.1,3,0,4C173.4,373,173.3,373.7,173.3,373.7z"/>
					</g>
				</g>
			</g>
			<g>
				<g>
					<g>
						<path d="M171.7,376.3c0,0-0.5-3.3-0.5-7.3c0-4.1,0.5-7.3,0.5-7.3s0.5,3.3,0.5,7.3C172.2,373,171.7,376.3,171.7,376.3z"/>
					</g>
				</g>
			</g>
			<g>
				<g>
					<g>
						<path d="M169.3,374.3c0,0-0.5-2.4-0.5-5.3c0-2.9,0.5-5.3,0.5-5.3s0.5,2.4,0.5,5.3C169.8,371.9,169.3,374.3,169.3,374.3z"/>
					</g>
				</g>
			</g>
			<g>
				<g>
					<g>
						<path d="M168.7,369.7c0,0,0-0.6,0-1.5c0.1-0.9,0-2.2,0.1-3.6c0-1.4,0.2-2.7,0.3-3.6c0.1-0.9,0.2-1.5,0.2-1.5s0.1,0.6,0.2,1.5
							c0.1,0.9,0.2,2.2,0.2,3.7c-0.1,1.4-0.3,2.7-0.6,3.7C168.9,369.1,168.7,369.7,168.7,369.7z"/>
					</g>
				</g>
			</g>
			<g>
				<g>
					<g>
						<path d="M166.3,371.7c0,0-0.5-2.1-0.4-4.7c0.2-2.6,0.8-4.6,0.8-4.6s0.3,2.1,0.2,4.7C166.8,369.6,166.3,371.7,166.3,371.7z"/>
					</g>
				</g>
			</g>
			<g>
				<g>
					<g>
						<path d="M166.7,374c0,0-0.2-0.5-0.4-1.5c-0.3-0.9-0.4-2.2-0.5-3.7c0-2.9,0.6-5.2,0.6-5.2s0.4,2.3,0.4,5.2
							c0.1,1.4-0.1,2.7,0,3.6C166.7,373.4,166.7,374,166.7,374z"/>
					</g>
				</g>
			</g>
			<g>
				<g>
					<g>
						<path d="M168,370.7c0,0-0.1-0.4-0.3-0.9c-0.1-0.6-0.4-1.3-0.6-2.2c-0.2-0.9-0.2-1.7-0.2-2.3c0-0.6,0.1-1,0.1-1
							s0.2,0.3,0.4,0.9c0.2,0.5,0.5,1.3,0.7,2.2c0.1,0.9,0.2,1.7,0.1,2.3C168.1,370.3,168,370.7,168,370.7z"/>
					</g>
				</g>
			</g>
			<g>
				<g>
					<g>
						<path d="M168.3,374.7c0,0-0.2-0.5-0.4-1.4c-0.3-0.9-0.4-2.1-0.5-3.4c0-2.7,0.6-4.8,0.6-4.8s0.4,2.2,0.4,4.8
							c0.1,1.3-0.1,2.5,0,3.4C168.4,374.1,168.3,374.7,168.3,374.7z"/>
					</g>
				</g>
			</g>
			<g>
				<g>
					<g>
						<path d="M170.3,371.3c0,0-0.1-0.2-0.2-0.5c-0.1-0.3-0.3-0.8-0.4-1.4c-0.3-1.2-0.6-2.8-0.6-4.6c0-1.8,0.1-3.4,0.3-4.6
							c0.1-1.2,0.3-1.9,0.3-1.9s0.1,0.7,0.2,1.9c0.1,1.2,0.2,2.8,0.2,4.6c0,1.8,0,3.4,0.1,4.6C170.3,370.6,170.3,371.3,170.3,371.3z
							"/>
					</g>
				</g>
			</g>
			<g>
				<g>
					<g>
						<path d="M172,371.7c0,0-0.2-0.5-0.4-1.4c-0.3-0.9-0.4-2.2-0.5-3.6c0-2.8,0.6-5,0.6-5s0.4,2.3,0.4,5c0.1,1.4-0.1,2.6,0,3.5
							C172,371.1,172,371.7,172,371.7z"/>
					</g>
				</g>
			</g>
			<g>
				<g>
					<g>
						<path d="M174.3,370.3c0,0-0.2-0.5-0.5-1.3c-0.3-0.8-0.5-1.9-0.7-3.2c-0.2-1.2-0.2-2.4-0.4-3.2c-0.1-0.8-0.1-1.4-0.1-1.4
							s0.2,0.5,0.6,1.2c0.4,0.8,0.6,1.9,0.9,3.2c0.2,1.3,0.2,2.4,0.2,3.2C174.4,369.8,174.3,370.3,174.3,370.3z"/>
					</g>
				</g>
			</g>
			<g>
				<g>
					<g>
						<path d="M177,370.7c0,0-0.1-0.5-0.3-1.4c-0.1-0.9-0.4-2.1-0.6-3.4c-0.4-2.6-0.4-4.9-0.4-4.9s0.2,0.5,0.5,1.4
							c0.3,0.8,0.6,2,0.9,3.4c0.2,1.4,0.2,2.6,0.1,3.5C177.1,370.1,177,370.7,177,370.7z"/>
					</g>
				</g>
			</g>
			<g>
				<g>
					<g>
						<path d="M176,374.7c0,0,0,0.2,0.1,1c0,0-0.1,0-0.1,0c0-0.3,0.1-1.1,0.1-2.2c0-1.1,0-2.5,0-4.1c0-2,0.1-3.9,0.4-5.2
							c0.1-0.7,0.3-1.2,0.4-1.5c0.1-0.4,0.2-0.6,0.2-0.6s0,0.2,0,0.6c0,0.4-0.1,0.9-0.1,1.6c0,1.3,0.1,3.1,0.1,5.2
							c0,1.6-0.1,3-0.3,4.2c-0.2,1.1-0.5,1.9-0.6,2.2l-0.2,0.4l0-0.5C176,374.8,176,374.7,176,374.7z"/>
					</g>
				</g>
			</g>
			<g>
				<g>
					<g>
						<path d="M175,368.3c0,0-0.1-0.5-0.2-1.3c-0.1-0.8-0.1-1.9,0-3.1c0.1-1.2,0.3-2.2,0.3-3c0.1-0.8,0.2-1.3,0.2-1.3
							s0.1,0.5,0.3,1.3c0.2,0.8,0.2,1.9,0.1,3.1c-0.1,1.2-0.3,2.3-0.5,3C175.1,367.8,175,368.3,175,368.3z"/>
					</g>
				</g>
			</g>
			<g>
				<g>
					<g>
						<path d="M170.3,365.7c0,0-0.1-0.4-0.3-1.1c-0.1-0.7-0.3-1.7-0.2-2.8c0.1-1.1,0.4-2.1,0.8-2.8c0.2-0.3,0.4-0.6,0.5-0.7
							c0.1-0.2,0.2-0.2,0.2-0.2s-0.1,0.4-0.2,1.1c-0.1,0.7-0.2,1.6-0.3,2.7c-0.1,1-0.1,2-0.3,2.7
							C170.5,365.2,170.3,365.7,170.3,365.7z"/>
					</g>
				</g>
			</g>
			<g>
				<g>
					<g>
						<path d="M167.3,367.3c0,0-0.5-1.9-0.5-4.2s0.5-4.2,0.5-4.2s0.5,1.9,0.5,4.2C167.8,365.5,167.3,367.3,167.3,367.3z"/>
					</g>
				</g>
			</g>
			<g>
				<g>
					<g>
						<path d="M165,369.3c0,0-0.5-1.8-0.4-4.1c0.1-1.1,0.3-2.1,0.6-2.8c0.3-0.7,0.5-1.1,0.5-1.1s0,0.5,0,1.2c-0.1,0.7,0,1.7-0.1,2.8
							C165.5,367.5,165,369.3,165,369.3z"/>
					</g>
				</g>
			</g>
			<g>
				<g>
					<g>
						<path d="M164,372c0,0-0.5-1.8-0.5-4s0.5-4,0.5-4s0.5,1.8,0.5,4S164,372,164,372z"/>
					</g>
				</g>
			</g>
			<g>
				<g>
					<g>
						<path d="M163.7,372.3c0,0-0.1-0.6-0.3-1.6c-0.1-1-0.4-2.3-0.6-3.7c-0.4-2.9-0.4-5.4-0.4-5.4s1,2.3,1.4,5.2
							c0.2,1.5,0.2,2.9,0.1,3.8C163.8,371.7,163.7,372.3,163.7,372.3z"/>
					</g>
				</g>
			</g>
			<g>
				<g>
					<g>
						<path d="M163,368c0,0-0.1-0.1-0.2-0.3c-0.1-0.2-0.3-0.5-0.4-0.9c-0.3-0.8-0.5-2-0.4-3.3c0.1-1.3,0.4-2.4,0.7-3.2
							c0.3-0.8,0.5-1.3,0.5-1.3s0,0.5-0.1,1.4c-0.1,0.8-0.1,2-0.2,3.2c-0.1,1.2-0.2,2.3-0.1,3.1c0,0.4,0.1,0.7,0.1,1
							C163,367.9,163,368,163,368z"/>
					</g>
				</g>
			</g>
			<g>
				<g>
					<g>
						<path d="M165,367.7c0,0-0.8-1.8-1.3-4.2c-0.3-2.4,0-4.4,0-4.4s0.7,1.9,1,4.3C165.1,365.6,165,367.7,165,367.7z"/>
					</g>
				</g>
			</g>
			<g>
				<g>
					<g>
						<path d="M164.3,367.3c0,0-0.5-2-0.5-4.5s0.5-4.5,0.5-4.5s0.5,2,0.5,4.5C164.8,365.3,164.3,367.3,164.3,367.3z"/>
					</g>
				</g>
			</g>
			<g>
				<g>
					<g>
						<path d="M165.7,371.7c0,0-0.6-2.6-0.7-5.8c-0.1-3.2,0.3-5.9,0.3-5.9s0.6,2.6,0.7,5.8C166.1,369.1,165.7,371.7,165.7,371.7z"/>
					</g>
				</g>
			</g>
			<g>
				<g>
					<g>
						<path d="M164,373.3c0,0-0.5-1.5-0.5-3.3s0.5-3.3,0.5-3.3s0.5,1.5,0.5,3.3S164,373.3,164,373.3z"/>
					</g>
				</g>
			</g>
			<g>
				<g>
					<g>
						<path d="M166.7,372c0,0-0.8-1.8-1.2-4.1c-0.3-2.3-0.1-4.3-0.1-4.3s0.7,1.8,1,4.1C166.8,370,166.7,372,166.7,372z"/>
					</g>
				</g>
			</g>
			<g>
				<g>
					<g>
						<path d="M168.3,371.7c0,0-0.6-2.1-0.7-4.6c-0.4-2.5-0.3-4.7-0.3-4.7s0.8,2,1.2,4.6C168.7,369.6,168.3,371.7,168.3,371.7z"/>
					</g>
				</g>
			</g>
			<g>
				<g>
					<g>
						<path d="M170.7,373.7c0,0-0.8-2.2-1.3-5.1c-0.3-2.9-0.1-5.2-0.1-5.2s0.7,2.3,1,5.1C170.8,371.3,170.7,373.7,170.7,373.7z"/>
					</g>
				</g>
			</g>
			<g>
				<g>
					<g>
						<path d="M172.3,371.3c0,0-0.6-1.8-0.7-4c-0.3-2.2,0-4,0-4s0.7,1.7,0.9,3.9C172.7,369.5,172.3,371.3,172.3,371.3z"/>
					</g>
				</g>
			</g>
			<g>
				<g>
					<g>
						<path d="M173.3,367.7c0,0,0,0.8-0.1,2c0,0.3,0,0.6-0.1,1c-0.1,0.6-0.2,1.2-0.5,1.9c-0.1,0.4-0.2,0.7-0.4,1.1c0,0.1,0,0,0,0
							l0-0.1l-0.1-0.3l-0.2-0.5c-0.1-0.4-0.2-0.7-0.3-1.1l-0.1-0.6l-0.1-0.3c0-0.1,0-0.1,0-0.2c-0.2-2,0.2-3.7,0.4-4.9
							c0.3-1.2,0.5-1.9,0.5-1.9s0,0.8,0,2c0,1.2-0.1,2.9,0.1,4.7l0,0.1l0,0l0,0c0,0,0,0,0,0l0,0.1c0,0,0,0,0,0c0,0,0.1,0,0.1-0.1
							c0.1-0.3,0.2-0.6,0.2-0.9C173.1,368.4,173.3,367.7,173.3,367.7z"/>
					</g>
				</g>
			</g>
			<g>
				<g>
					<g>
						<path d="M174,370c0,0-0.1-0.5-0.2-1.4c-0.1-0.9-0.1-2.1-0.1-3.4c0-1.3,0.1-2.5,0-3.4c-0.1-0.9-0.1-1.4-0.1-1.4
							s0.1,0.1,0.2,0.3c0.1,0.2,0.3,0.6,0.4,1c0.3,0.9,0.5,2.1,0.5,3.5c0,1.4-0.2,2.6-0.4,3.4C174.1,369.5,174,370,174,370z"/>
					</g>
				</g>
			</g>
			<g>
				<g>
					<g>
						<path d="M174.3,372.3c0,0-0.6-2.5-0.7-5.5c-0.1-3.1,0.3-5.5,0.3-5.5s0.6,2.5,0.7,5.5C174.7,369.9,174.3,372.3,174.3,372.3z"/>
					</g>
				</g>
			</g>
			<g>
				<g>
					<g>
						<path d="M170.3,375.3c0,0-0.4-2.9-0.3-6.5c0.1-3.6,0.7-6.5,0.7-6.5s0.4,2.9,0.3,6.5C170.9,372.4,170.3,375.3,170.3,375.3z"/>
					</g>
				</g>
			</g>
			<g>
				<g>
					<g>
						<path d="M169.3,369.3c0,0-0.5-1.9-0.5-4.3s0.5-4.3,0.5-4.3s0.5,1.9,0.5,4.3S169.3,369.3,169.3,369.3z"/>
					</g>
				</g>
			</g>
			<g>
				<g>
					<g>
						<path d="M167.7,371.7c0,0,0-0.2-0.1-0.5c-0.1-0.3-0.2-0.7-0.2-1.3c-0.1-1.1-0.1-2.6,0.1-4.2c0.2-1.6,0.7-3.1,1.1-4.1
							c0.2-0.5,0.4-0.9,0.6-1.2c0.1-0.3,0.2-0.4,0.2-0.4s-0.1,0.7-0.3,1.7c-0.2,1.1-0.4,2.5-0.6,4.1c-0.2,1.6-0.5,3.1-0.6,4.1
							c-0.1,0.5-0.1,1-0.1,1.3C167.7,371.5,167.7,371.7,167.7,371.7z"/>
					</g>
				</g>
			</g>
			<g>
				<g>
					<g>
						<path d="M166.3,371.3c0,0-0.1-0.6-0.2-1.5c-0.1-0.9-0.2-2.2-0.1-3.6c0.2-1.4,0.4-2.7,0.8-3.5c0.3-0.9,0.6-1.4,0.6-1.4
							s0,0.6-0.1,1.5c-0.1,0.9-0.1,2.1-0.3,3.5c-0.1,1.4-0.3,2.6-0.4,3.5C166.5,370.8,166.3,371.3,166.3,371.3z"/>
					</g>
				</g>
			</g>
			<g>
				<g>
					<g>
						<path d="M165,371.3c0,0-0.1-0.5-0.3-1.3c-0.2-0.8-0.4-1.9-0.4-3.2c0-1.3,0.2-2.5,0.4-3.3c0.1-0.4,0.3-0.7,0.4-0.9
							c0.1-0.2,0.2-0.3,0.2-0.3s0,0.1,0,0.4c0,0.2-0.1,0.6-0.1,1c0,0.8,0,1.9,0.1,3.1c0,1.2,0,2.4-0.1,3.2
							C165.1,370.8,165,371.3,165,371.3z"/>
					</g>
				</g>
			</g>
			<g>
				<g>
					<g>
						<path d="M172.7,367c0,0,0-0.1-0.1-0.4c-0.1-0.3-0.2-0.7-0.2-1.1c-0.1-1-0.1-2.4,0.2-3.8c0.4-1.5,1-2.7,1.6-3.5
							c0.3-0.4,0.6-0.6,0.8-0.8c0.2-0.2,0.3-0.3,0.3-0.3s-0.1,0.1-0.2,0.4c-0.1,0.2-0.4,0.5-0.5,1c-0.4,0.9-0.8,2.1-1.1,3.5
							c-0.3,1.4-0.5,2.7-0.6,3.6c-0.1,0.5-0.1,0.9-0.1,1.1C172.7,366.8,172.7,367,172.7,367z"/>
					</g>
				</g>
			</g>
			<g>
				<g>
					<g>
						<path d="M173,367c0,0-0.5-1.9-0.5-4.2c0-2.3,0.5-4.2,0.5-4.2s0.5,1.9,0.5,4.2S173,367,173,367z"/>
					</g>
				</g>
			</g>
			<g>
				<g>
					<g>
						<path d="M176,375.7c0,0,0-0.3,0-0.7c0-0.5-0.1-1.1-0.1-1.9c0-1.6,0.2-3.9,0.6-6.3c0.4-2.4,0.8-4.6,1.1-6.2
							c0.2-1.6,0.4-2.6,0.4-2.6s0,0.3,0,0.7c0,0.5,0.1,1.1,0.1,1.9c0,1.6-0.2,3.9-0.6,6.3c-0.4,2.4-0.9,4.6-1.1,6.2
							C176.1,374.7,176,375.7,176,375.7z"/>
					</g>
				</g>
			</g>
			<g>
				<path d="M576.3,359.8c-2.7-0.6-6.5-0.8-10.8-0.9c-3.1,0-6,0.2-8.4,0.4c0.1,0.4,0.1,0.9,0,1.3c2.4,0.1,5.3,0.2,8.4,0.2
					c4.2,0.1,8-0.2,10.7,0c2.7,0,2-0.1,2-0.1S579,360.3,576.3,359.8z"/>
			</g>
			<g>
				<g>
					<g>
						<path d="M580,369.7c0,0,0.1-0.3,0.2-0.9c0.1-0.6,0.3-1.4,0.3-2.4c0-1-0.2-2.1-0.9-3c-0.7-0.9-1.9-1.5-3.4-1.9
							c-2.9-0.8-5.8-1.1-7.9-1.3c-2.1-0.3-3.4-0.5-3.4-0.5s1.3-0.3,3.4-0.5c1.1-0.1,2.3-0.2,3.7-0.2c1.4,0,3,0.2,4.7,0.6
							c1.6,0.5,3.3,1.4,4.2,2.8c0.4,0.7,0.7,1.5,0.7,2.2c0,0.7,0,1.3-0.2,1.9c-0.3,1.1-0.7,1.9-1,2.4
							C580.2,369.4,580,369.7,580,369.7z"/>
					</g>
				</g>
			</g>
			<g>
				<path d="M580.5,365.5c-0.1-0.9-0.1-1.5-0.1-1.5s-0.1,0.5-0.2,1.5c-0.1,0.5-0.1,1-0.2,1.7c-0.1,0.6-0.3,1.4-0.7,2
					c-0.4,0.6-1,1.1-1.9,1.3c-0.9,0.3-1.8,0.5-2.9,0.5c-2.1,0.1-4.5-0.2-7-0.6c-1.3-0.2-2.6-0.3-3.8-0.4c-1.2,0-2.4,0-3.5,0
					c-2.3,0-4.3,0.1-6,0.3c-0.3,0-0.5,0-0.8,0.1c0.1,0.3,0.1,0.6,0.1,0.9c0.2,0,0.4,0,0.7,0c1.7,0.1,3.7,0.2,5.9,0.4
					c1.1,0.1,2.3,0.1,3.5,0.2c1.2,0.1,2.4,0.3,3.7,0.4c2.5,0.3,5.1,0.6,7.4,0.3c1.2-0.1,2.3-0.5,3.2-0.9c0.5-0.2,0.9-0.5,1.3-0.9
					c0.4-0.4,0.7-0.8,0.9-1.2c0.4-0.9,0.4-1.7,0.5-2.4C580.6,366.5,580.5,365.9,580.5,365.5z"/>
			</g>
			<g>
				<g>
					<g>
						<path d="M562,370.8c0,0,0-0.6,0-1.7c0.1-1,0-2.4,0-3.9c0-3.1,0.5-5.6,0.5-5.6s0.5,2.5,0.5,5.6c-0.1,1.6-0.2,3-0.5,4
							C562.2,370.2,562,370.8,562,370.8z"/>
					</g>
				</g>
			</g>
			<g>
				<g>
					<g>
						<path d="M562.3,363.2c0,0-0.5-0.7-0.5-1.6s0.5-1.6,0.5-1.6s0.5,0.7,0.5,1.6C562.8,362.5,562.3,363.2,562.3,363.2z"/>
					</g>
				</g>
			</g>
			<g>
				<g>
					<g>
						<path d="M562.3,370.7c0,0-0.5-0.7-0.5-1.5s0.5-1.5,0.5-1.5s0.5,0.7,0.5,1.5S562.3,370.7,562.3,370.7z"/>
					</g>
				</g>
			</g>
			<g>
				<g>
					<g>
						<path d="M562.7,365.7c0,0,0.1,0.3,0.2,0.8c0.1,0.5,0.1,1.2,0,2c-0.1,0.7-0.3,1.4-0.4,1.9c-0.2,0.5-0.3,0.8-0.3,0.8
							s-0.1-0.3-0.2-0.8c-0.1-0.5-0.1-1.2,0-2c0.1-0.7,0.3-1.4,0.4-1.9C562.5,366,562.7,365.7,562.7,365.7z"/>
					</g>
				</g>
			</g>
			<g>
				<g>
					<g>
						<path d="M562.5,359.8c0,0,0.1,0.3,0.1,0.7c0,0.5,0.1,1,0.1,1.7c0,0.6-0.1,1.2-0.1,1.7c0,0.4-0.1,0.7-0.1,0.7s-0.2-0.2-0.4-0.7
							c-0.3-0.4-0.4-1.1-0.4-1.8c0.1-0.7,0.2-1.3,0.4-1.7C562.3,360.1,562.5,359.8,562.5,359.8z"/>
					</g>
				</g>
			</g>
		</g>
	</g>
</g>
</svg>
