<?xml version="1.0" encoding="utf-8"?>
<!-- Generator: Adobe Illustrator 25.0.1, SVG Export Plug-In . SVG Version: 6.00 Build 0)  -->
<svg version="1.1" id="Capa_1" xmlns="http://www.w3.org/2000/svg" xmlns:xlink="http://www.w3.org/1999/xlink" x="0px" y="0px"
	 viewBox="0 0 800 800" enable-background="new 0 0 800 800" xml:space="preserve">
<g id="cara_base">
	<g id="tono_1_copia">
		<g id="Capa_78_copia">
			<path fill-rule="evenodd" clip-rule="evenodd" fill="#991717" d="M177.166,343.667c-1.977-0.033-3.916,1.417-4.333,3.917
				c1.25-2.25,4.823-0.231,5.758,0.597c3.208,2.843,4.499,8.505,2.899,12.477c-0.51,1.266-0.726,1.664-2.158,2.009
				c-1.083,0.261-2.333,0.333-3.667,0.5c0.266-0.063,1.482,0.911,1.756,1.078c2.373,1.44,2.999,3.261,4.108,5.698
				c1.219,2.679,2.398,7.356,0.598,10.02c-0.51,0.756-1.547,1.448-2.454,1.709c-0.594,0.171-2.671,0.577-3.173,0.495
				c2.88,0.47,3.816,4.309,4.023,6.642c0.284,3.205-0.623,6.382-2.733,8.854c-1.628,1.907-3.664,1.522-6.041,1.504
				c8.322,2.474,5.061,14.691,1.933,19.801c2.046,0.027,4.914-2.153,6.492-3.43c2.036-1.648,3.651-3.881,4.95-6.203
				c2.625-4.692,4.496-9.851,6.046-15c1.642-5.454,2.662-10.511,2.662-16.334c0-5.666-1.466-11.064-2.87-16.463
				c-1.697-6.527-5.354-27.505-16.51-19.083c-0.647,0.489-1.698,1.119-1.287,1.879"/>
			<path fill="#D88F6F" d="M236.75,352c-2.22-2.555-4.504-4.522-6.188-7.75c-1.709-3.277-2.976-6.667-4.507-10.006
				c-2.98-6.499-6.103-12.848-12.867-15.938c-6.759-3.088-14.714-2.827-21.937-1.042c-5.779,1.428-14.313,5.072-16.196,11.292
				c-1.337,4.417-3.489,12.327-1.36,16.674c-0.061-0.417-0.231,1.606-0.194-0.105c3.875-1.875,8.375,0.125,10.251,6.875
				c-0.663-2.733,0.521,5.778-1.064,7.938c-1.521,2.072-3.432,2.026-5.27,3.396c4.27-0.539,7.33,6.075,7.846,9.404
				c0.807,5.205-2.889,8.863-7.763,9.263c4.75,1.375,7.771,4.105,6.25,10.25c-0.521,2.106-1.613,3.784-3.494,5.061
				c-1.935,1.315-5.052,0.67-6.756,2.064c1.875,0.875,4.391,2.116,5.688,3.882c1.224,1.669,1.468,5.168,1.075,7.256
				c-0.638,3.395-4.964,6.742-8.388,7.362c-0.381,2.107,3.934,6.756,5.612,7.688c3.278,1.82,5.738,3.36,8.52,5.936
				c5.646,5.229,5.992,12.976,5.992,20.5c0,7.667,0.476,13.526,7.812,17.188c3.298,1.647,6.362,1.808,10.188,1.812
				c2.481,0.003,3.087-0.072,4.569-1.681c1.069-1.159,1.681-2.694,3.681-4.569c0.244-4.17-0.913-6.286-0.75-10.5
				c0.15-3.899,1.145-7.48,1.5-11.244c0.688-7.283,3.354-14.029,5.307-20.95c1.012-3.587,3.059-6.761,4.693-10.056
				c1.739-3.505,2.477-6.892,3.056-10.75c1.203-8.018,3.717-16.262,3.694-24.5c-0.024-9.031,1.25-17.759,1.25-26.75"/>
			<path fill="#D88F6F" d="M536.5,341.5c-6.52-8.974,18.025-24.363,25.014-25.487c17.253-2.775,24.157,7.325,28.596,21.989
				c4.105,13.562,3.053,33.404-0.486,46.621c-3.195,11.929-11.256,22.568-16.748,33.752c-2.815,5.732-3.928,9.569-0.873,15.623
				c2.782,5.516,3.581,11.135,3.498,17.502c-0.208,16.01-11.926,17.026-23.913,19.935c0.285-3.897-1.658-6.723-2.087-10.435
				c-0.47-4.067-0.008-7.788-0.985-11.515c-1.756-6.691-3.804-13.155-5.624-19.874C540.944,422.43,542,413.291,542,405.5
				c0-8.65-0.665-15.107-3.109-22.891c-4.314-13.735-3.939-30.652-4.391-45.609"/>
			<path d="M559.644,498.634c-0.491-5.268-1.433-10.087-2.464-14.421c-2.101-8.665-4.445-15.451-6.005-20.153
				c-0.042-0.121-0.081-0.235-0.121-0.354c-0.129-0.775-0.263-1.575-0.399-2.396c-0.126-0.83-0.137-1.74-0.216-2.638
				c-0.067-0.899-0.099-1.897-0.152-2.874c-0.037-0.979-0.201-2.069-0.306-3.135c-0.693-4.383-2.815-8.394-3.723-12.628
				c-0.912-4.336-1.055-9.121-1.313-14.221c-0.059-1.277-0.161-2.557-0.264-3.845c-0.079-1.277-0.1-2.53-0.156-3.809
				c-0.084-2.558-0.116-5.189-0.143-7.849c-0.076-6.941-0.142-13.815-0.978-20.468c-0.148-1.669-0.505-3.29-0.778-4.907
				c-0.136-0.804-0.291-1.611-0.485-2.432c-0.171-0.818-0.364-1.623-0.616-2.402c-0.924-3.15-2.104-6.014-2.986-8.798
				c-0.453-1.391-0.791-2.757-1.059-4.112c-0.09-0.682-0.18-1.358-0.268-2.031c-0.047-0.704-0.092-1.403-0.138-2.097
				c-0.164-2.778-0.085-5.523-0.096-8.229c-0.053-5.404-0.19-10.389-0.599-14.983c-0.111-1.145-0.17-2.263-0.318-3.349
				c-0.156-1.084-0.309-2.14-0.457-3.167c-0.074-0.513-0.148-1.018-0.221-1.515c-0.085-0.498-0.21-0.987-0.312-1.468
				c-0.107-0.48-0.214-0.953-0.318-1.418c-0.13-0.456-0.257-0.903-0.383-1.344c-0.079-0.269-0.157-0.512-0.236-0.774
				c-0.174-1.766-0.488-3.563-0.733-5.418c-0.293-1.938-0.512-3.941-0.964-5.956c-1.361-8.146-3.945-16.89-7.569-25.924
				c-3.61-9.045-8.727-18.244-15.24-27.067c-6.514-8.836-14.378-17.3-23.435-25.123c-9.15-7.712-19.774-14.438-31.604-19.188
				c-5.906-2.38-11.953-4.22-18.027-5.493c-6.084-1.313-12.167-1.869-18.103-2.312c-11.917-0.694-23.371-0.217-34.202,0.358
				c-5.426,0.276-10.673,0.616-15.808,0.799c-5.141,0.213-10.163,0.521-15.003,1.062c-9.678,1.167-18.572,3.412-26.247,6.507
				c-1.903,0.811-3.785,1.544-5.57,2.365c-1.768,0.855-3.489,1.688-5.163,2.499c-2.029,1.118-3.989,2.169-5.852,3.233
				c-4.889,2.408-10.258,5.368-15.918,9.046c-6.081,3.935-12.496,8.673-18.831,14.425c-6.356,5.723-12.505,12.591-18.043,20.505
				c-0.72,0.97-1.361,2.004-2.021,3.032c-0.652,1.034-1.341,2.055-1.974,3.119c-1.211,2.158-2.536,4.289-3.631,6.573
				c-2.391,4.471-4.299,9.29-6.112,14.234c-3.529,9.938-5.587,20.678-6.975,31.655c-1.374,10.993-1.993,21.743-2.724,32.06
				c-0.726,10.317-1.589,20.227-3.119,29.541c-0.402,2.324-0.743,4.633-1.265,6.867c-0.492,2.24-0.896,4.482-1.538,6.597
				c-0.296,1.068-0.59,2.129-0.881,3.181c-0.347,1.043-0.691,2.078-1.032,3.105c-0.65,2.059-1.441,4.062-2.15,6.045
				c-2.775,7.376-5.438,14.414-6.835,21.196c-0.288,1.02-0.512,2.057-0.785,3.071c-0.65,2.583-0.794,5.264-0.665,7.789
				c0.044,0.968,0.129,1.912,0.226,2.844c0.072,2.576,0.287,5.027,0.582,7.309c0.16,1.293,0.333,2.536,0.509,3.74
				c-0.028,3.882-0.206,7.204,0.19,9.634v0.001c-0.082,0.733-0.129,1.479-0.042,2.272c0.088,0.814,0.694,2.673,1.462,3.553
				c-0.013,0.083-0.03,0.163-0.042,0.246c-1.242,8.405-1.227,17.479,0.628,26.607c1.812,9.137,5.762,18.182,11.256,26.304
				c2.741,4.068,5.757,7.877,8.905,11.412c1.59,1.747,3.126,3.525,4.732,5.204c1.613,1.669,3.213,3.324,4.799,4.966
				c6.437,6.46,12.882,12.392,18.936,18.1c0.93,0.867,1.826,1.724,2.732,2.583c0.921,0.979,1.882,1.989,2.888,3.037
				c3.805,3.918,8.242,8.28,13.176,13.046c0.824,0.802,1.68,1.635,2.53,2.462c3.477,3.585,6.78,6.99,9.865,10.171
				c4.415,4.526,8.417,8.609,11.936,12.188c2.864,3.218,5.767,6.58,8.751,10.04c5.944,6.852,12.198,14.122,19.5,20.976
				c7.281,6.816,15.776,13.241,25.803,17.329c4.999,2.028,10.198,3.402,15.394,4.13c5.194,0.734,10.395,0.827,15.401,0.49
				c10.062-0.515,19.699-3.025,28.1-6.883c8.444-3.833,15.69-8.896,21.919-14.139c3.129-2.614,6.01-5.29,8.685-7.946
				c2.688-2.646,5.169-5.272,7.483-7.822c4.635-5.097,8.624-9.867,12.098-14.073c3.454-4.219,6.43-7.853,8.861-10.822
				c0.199-0.243,0.39-0.476,0.582-0.71c0.897-1.004,1.824-2.04,2.807-3.139c1.351-1.461,2.778-3.005,4.277-4.627
				c6.056-6.435,13.383-13.947,22.008-21.807c8.561-7.913,18.341-16.421,27.379-26.686c1.121-1.286,2.264-2.544,3.344-3.837
				c1.04-1.325,2.073-2.643,3.099-3.949c2.048-2.587,4.089-5.233,5.778-8.085c3.395-5.671,5.488-11.804,6.503-17.739
				C560.152,509.629,560.138,503.893,559.644,498.634z M555.932,514.984c-1.133,5.559-3.217,11.189-6.459,16.41
				c-1.604,2.608-3.559,5.082-5.615,7.634c-1.013,1.274-2.032,2.558-3.059,3.85c-1.064,1.262-2.184,2.487-3.28,3.746
				c-8.829,10.032-18.353,18.649-26.726,26.88c-8.435,8.18-15.491,16.113-21.205,22.896c-1.41,1.714-2.754,3.345-4.024,4.889
				c-1.236,1.568-2.401,3.047-3.491,4.43c-2.163,2.775-4.026,5.166-5.549,7.12c-0.119,0.154-0.222,0.288-0.336,0.437
				c-0.837,0.934-1.704,1.902-2.603,2.906c-3.642,4.053-7.804,8.65-12.579,13.544c-2.386,2.448-4.93,4.965-7.664,7.489
				c-2.722,2.537-5.635,5.082-8.77,7.555c-6.243,4.963-13.395,9.688-21.57,13.2c-8.156,3.539-17.299,5.773-26.981,6.168
				c-4.847,0.272-9.743,0.139-14.645-0.58c-4.897-0.714-9.768-2.017-14.476-3.926c-9.43-3.844-17.58-9.896-24.744-16.46
				c-7.179-6.592-13.492-13.688-19.567-20.417c-6.058-6.746-11.89-13.169-17.736-18.806c-2.927-2.805-5.753-5.489-8.5-8.048
				c-0.843-0.767-1.654-1.505-2.476-2.253c-2.205-2.436-4.487-4.958-6.852-7.571c-2.464-2.763-5.131-5.541-7.869-8.412
				c-2.779-2.819-5.645-5.722-8.631-8.631c-5.943-5.854-12.268-11.881-18.556-18.342c-1.547-1.635-3.108-3.284-4.682-4.946
				c-1.567-1.668-3.056-3.421-4.608-5.145c-3.057-3.476-5.938-7.143-8.57-11.048c-5.27-7.806-9.02-16.265-10.845-24.906
				c-1.861-8.636-2.034-17.305-1.019-25.394c2.035-16.267,9.229-29.813,16.761-39.629c3.835-4.885,8.102-8.628,11.962-11.772
				c3.87-3.137,7.405-5.604,10.284-7.63c5.79-4.019,8.992-6.24,8.992-6.24s-3.321,2.042-9.327,5.734
				c-2.984,1.878-6.647,4.174-10.698,7.162c-4.027,2.987-8.56,6.627-12.714,11.517c-4.097,4.897-8.018,10.738-11.34,17.487
				c-2.576,5.181-4.643,10.983-6.053,17.201c-0.139-0.154-0.3-0.301-0.468-0.465c-0.283-2.409-0.635-5.092-0.968-8.059
				c-0.001-0.566-0.004-1.144-0.01-1.741c-0.024-1.018-0.057-2.086-0.201-3.197c-0.153-1.078-0.312-2.193-0.475-3.338
				c-0.021-0.147-0.044-0.298-0.066-0.446c-0.222-4.815,0.001-10.117,1.256-15.692c1.492-6.946,4.496-14.181,7.698-22.041
				c0.772-1.985,1.615-3.97,2.337-6.067c0.375-1.041,0.752-2.091,1.132-3.147c0.344-1.074,0.658-2.172,0.991-3.27
				c0.717-2.193,1.176-4.452,1.728-6.732c0.582-2.275,0.976-4.613,1.431-6.974c1.739-9.453,2.762-19.475,3.596-29.82
				c0.839-10.347,1.519-21.034,2.872-31.858c1.366-10.809,3.319-21.281,6.637-30.932c1.707-4.797,3.491-9.49,5.744-13.853
				c1.027-2.23,2.281-4.314,3.418-6.429c0.596-1.042,1.248-2.044,1.862-3.059c0.624-1.01,1.226-2.026,1.909-2.982
				c5.233-7.791,11.069-14.634,17.148-20.409c6.055-5.803,12.225-10.663,18.099-14.751c1.131-0.79,2.248-1.543,3.355-2.275
				c0.365-0.229,0.727-0.454,1.099-0.693c1.176-0.744,2.402-1.52,3.678-2.328c1.294-0.776,2.667-1.533,4.072-2.344
				c2.783-1.672,5.915-3.168,9.185-4.835c1.676-0.747,3.399-1.515,5.168-2.303c1.783-0.754,3.655-1.418,5.546-2.159
				c7.629-2.816,16.35-4.764,25.841-5.685c4.757-0.418,9.698-0.613,14.826-0.722c5.135-0.08,10.447-0.323,15.853-0.507
				c10.821-0.395,22.161-0.708,33.809,0.076c5.818,0.488,11.723,1.07,17.557,2.36c5.846,1.253,11.669,3.04,17.368,5.337
				c11.415,4.581,21.729,11.034,30.675,18.438c8.868,7.521,16.703,15.724,23.198,24.238c6.508,8.518,11.672,17.362,15.417,26.136
				c3.752,8.758,6.521,17.246,8.102,25.24c0.108,0.91,0.433,1.932,0.649,3.069c0.18,0.87-0.178,1.824,0.822,2.815
				c0,0.001,0,0.002,0,0.003c0,1.915,0.541,3.767,0.766,5.594c0.447,3.652,0.915,7.084,1.169,10.326
				c0.246,2.562,0.448,4.979,0.623,7.258c0,3.149-0.097,6.465-0.211,9.928c-0.102,2.649-0.304,5.448-0.24,8.375
				c0.021,0.731,0.039,1.469,0.061,2.211c0.075,0.766,0.146,1.538,0.223,2.314c0.246,1.534,0.578,3.07,1.015,4.559
				c0.852,2.986,1.949,5.877,2.729,8.803c0.219,0.728,0.376,1.468,0.513,2.215c0.159,0.734,0.29,1.501,0.407,2.288
				c0.231,1.561,0.55,3.125,0.664,4.729c0.698,6.38,0.71,13.115,0.784,20.074c0.027,2.666,0.067,5.312,0.172,7.961
				c0.065,1.324,0.102,2.66,0.195,3.947c0.114,1.272,0.229,2.535,0.303,3.783c0.323,4.987,0.547,10.023,1.667,14.772
				c0.604,2.403,1.458,4.609,2.241,6.611c0.409,1.026,0.727,1.995,1.088,2.969c0.155,0.479,0.277,0.946,0.419,1.414
				c0.13,0.467,0.302,0.921,0.34,1.402c0.646,3.715,0.577,7.708,1.613,11.191c-0.011-0.047-0.021-0.094-0.025-0.11
				c0.459,1.792,0.905,3.539,1.34,5.238c0.475,1.679,1.056,3.257,1.557,4.815c0.508,1.562,1.042,3.024,1.541,4.466
				c0.252,0.718,0.5,1.424,0.744,2.118c0.216,0.696,0.428,1.381,0.637,2.054c0.717,2.074,1.246,4.061,1.654,5.95
				c0.464,3.12,0.841,6.414,1.011,9.885C557.253,503.934,557.048,509.413,555.932,514.984z"/>
			<g opacity="0.3">
				<g>
					<g>
						<path d="M410.5,614.999c0,0-0.688-0.006-1.864-0.07c-1.166-0.092-2.859-0.111-4.852-0.135
							c-1.008,0.025-2.075-0.018-3.233,0.055c-0.57,0.017-1.16,0.034-1.768,0.053c-0.609,0.041-1.232,0.075-1.865,0.1
							c-2.547,0.149-5.317,0.34-8.298,0.462c-5.957,0.291-11.729-0.019-15.912-0.758c-2.09-0.363-3.773-0.771-4.926-1.129
							c-1.153-0.345-1.78-0.577-1.78-0.577s0.632-0.253,1.756-0.636c1.125-0.37,2.735-0.932,4.709-1.534
							c3.951-1.19,9.365-2.806,15.827-3.126c3.229-0.135,6.389,0.162,9.207,0.77c0.706,0.165,1.389,0.337,2.048,0.512
							c0.659,0.185,1.291,0.42,1.898,0.63c1.217,0.398,2.306,0.945,3.285,1.413c1.941,1.012,3.399,1.984,4.336,2.767
							C410.014,614.551,410.5,614.999,410.5,614.999z"/>
					</g>
				</g>
			</g>
			<g opacity="0.3">
				<g>
					<g>
						<path fill="#FFFFFF" d="M442.999,634.999c0,0-0.136,0.61-0.484,1.728c-0.091,0.276-0.18,0.6-0.313,0.927
							c-0.147,0.322-0.305,0.673-0.476,1.049c-0.184,0.378-0.38,0.782-0.588,1.21c-0.231,0.412-0.5,0.827-0.782,1.274
							c-1.109,1.811-2.769,3.709-4.836,5.564c-2.088,1.815-4.633,3.48-7.477,4.797c-5.725,2.597-11.414,3.202-15.467,3.144
							c-1.015,0.001-1.939-0.063-2.747-0.135c-0.807-0.064-1.501-0.147-2.07-0.242c-1.136-0.176-1.759-0.316-1.759-0.316
							s0.555-0.341,1.549-0.879c0.494-0.267,1.098-0.594,1.798-0.972c0.691-0.365,1.479-0.78,2.349-1.239
							c3.468-1.799,8.095-4.144,13.122-6.428c2.512-1.133,4.904-2.211,7.082-3.193c2.141-1.031,4.147-1.95,5.754-2.892
							c0.416-0.229,0.812-0.447,1.188-0.653c0.362-0.229,0.704-0.444,1.023-0.647c0.333-0.203,0.642-0.392,0.928-0.565
							c0.282-0.181,0.517-0.367,0.746-0.525C442.442,635.363,442.999,635,442.999,634.999z"/>
					</g>
				</g>
			</g>
			<g opacity="0.3">
				<g>
					<g>
						<path fill="#FFFFFF" d="M233.999,473c0,0,0.006,0.842-0.04,2.298c-0.014,0.361-0.029,0.763-0.046,1.202
							c-0.008,0.439,0.015,0.921,0.017,1.43c0.026,1.022-0.028,2.154,0.071,3.419c0.026,0.624,0.054,1.276,0.082,1.957
							c0.023,0.675,0.119,1.383,0.166,2.104c0.074,1.441,0.294,2.976,0.449,4.57c0.418,3.194,0.931,6.647,1.593,10.267
							c0.685,3.615,1.41,7.058,2.116,10.234c0.417,1.564,0.713,3.103,1.119,4.507c0.181,0.715,0.356,1.405,0.524,2.068
							c0.189,0.661,0.37,1.296,0.543,1.902c0.316,1.234,0.67,2.329,0.962,3.312c0.143,0.495,0.276,0.956,0.399,1.381
							c0.138,0.42,0.263,0.804,0.377,1.149c0.447,1.392,0.668,2.2,0.668,2.2s-0.622-0.532-1.7-1.561
							c-0.269-0.261-0.566-0.55-0.893-0.867c-0.304-0.335-0.633-0.698-0.988-1.089c-0.706-0.79-1.512-1.699-2.294-2.778
							c-0.397-0.54-0.813-1.105-1.247-1.694c-0.393-0.615-0.802-1.256-1.226-1.919c-0.868-1.326-1.609-2.835-2.421-4.424
							c-1.496-3.223-2.81-6.952-3.577-11.016c-0.746-4.069-0.816-8.057-0.508-11.626c0.207-1.788,0.42-3.473,0.811-5.026
							c0.185-0.777,0.329-1.525,0.551-2.232c0.229-0.702,0.448-1.376,0.658-2.02c0.394-1.281,0.94-2.392,1.369-3.361
							c0.225-0.482,0.42-0.932,0.635-1.335c0.227-0.396,0.436-0.759,0.623-1.084C233.548,473.677,233.999,473,233.999,473z"/>
					</g>
				</g>
			</g>
			<path fill="#D88F6F" d="M553.543,474.47c-1.079-2.279-1.914-4.724-2.515-7.246c-2.575-10.814-4.621-21.942-6.641-32.874
				c-1.259-6.812-2.523-13.85-2.491-20.798c0.029-6.52,0.791-13.088,0.381-19.604c-0.396-6.279-1.516-12.443-2.622-18.614
				c-1.51-3.799-2.474-7.667-2.848-11.632c-0.447,0.539-0.901,1.073-1.332,1.623c0.253-16.188,0.3-31.656-3.587-46.213
				c-3.44-12.882-6.904-25.372-12.512-37.988c-2.521-5.672-5.197-11.362-9.514-16.012c-4.216-4.54-9.035-7.85-12.725-12.75
				c-1.663-2.209-3.073-5.303-5.515-6.985c-0.11-0.076-0.22-0.135-0.33-0.204c-0.355-0.443-0.7-0.861-0.981-1.235
				c-4.073-5.421-9.255-8.632-14.882-11.868c-5.68-3.266-10.877-6.989-16.931-9.569c-6.079-2.591-12.3-5.109-18.507-7.243
				c-7.23-2.485-14.667-2.757-22.743-2.757c-16.343,0-33.216-0.322-49.194,1.056c-7.496,0.646-15.565,1.095-23.05,2.2
				c-6.83,1.009-13.437,3.167-19.944,5.556c-5.837,2.142-12.563,4.507-17.762,8.001c-5.266,3.538-11.219,6.499-16.368,10.12
				c-4.979,3.501-9.609,7.443-14.244,11.756c-1.857,1.729-3.234,3.741-4.414,5.885c-0.688,0.79-1.392,1.639-2.137,2.564
				c-3.901,4.842-8.579,9.525-12.274,14.751c-15.749,22.277-18.598,51.537-19.936,78.534c-0.436-0.047-0.879-0.117-1.326-0.199
				c0.018,7.257-0.43,14.52-0.559,21.853c-0.231,13.154-2.445,25.615-7.57,37.8c-4.845,11.518-11.651,24.646-11.932,37.363
				c-0.145,6.565,1.529,11.873,1.627,18.428c0.017,1.137-0.139,1.454-0.166,2.583c0.307-0.25-0.067,1.509,0.25,1.25
				c2.404,3.459,1.696,7.185,1.139,10.889c-0.577,3.839-0.22,7.608,0.502,11.221c1.344,6.728,3.4,13.191,5.219,19.781
				c3.509,12.713,8.453,23.085,19.502,31.998c18.463,14.895,34.834,33.255,51.139,51.111c9.375,10.268,19.343,20.573,28.613,30.637
				c7.93,8.609,14.086,15.33,23.137,22.613c7.327,5.894,18.082,12.687,27.25,14.75c9.708,2.185,27.354,2.394,35.25-2.5l0.5,2
				c5.723-3.768,12.452-5.059,18.514-7.875c5.552-2.581,10.014-6.851,14.861-10.749c9.835-7.911,18.901-15.271,26.875-25.126
				c7.67-9.479,16.387-18.644,24.25-27.75c8.198-9.492,18.07-18.076,27.376-26.624c8.979-8.247,16.656-17.845,24.261-27.239
				C556.05,527.509,559,514.905,559,500C559,490.425,556.255,482.709,553.543,474.47z"/>
			<path d="M559.644,498.634c-0.491-5.268-1.433-10.087-2.464-14.421c-2.101-8.665-4.445-15.451-6.005-20.153
				c-0.042-0.121-0.081-0.235-0.121-0.354c-0.129-0.775-0.263-1.575-0.399-2.396c-0.126-0.83-0.137-1.74-0.216-2.638
				c-0.067-0.899-0.099-1.897-0.152-2.874c-0.037-0.979-0.201-2.069-0.306-3.135c-0.693-4.383-2.815-8.394-3.723-12.628
				c-0.912-4.336-1.055-9.121-1.313-14.221c-0.059-1.277-0.161-2.557-0.264-3.845c-0.079-1.277-0.1-2.53-0.156-3.809
				c-0.084-2.558-0.116-5.189-0.143-7.849c-0.076-6.941-0.142-13.815-0.978-20.468c-0.148-1.669-0.505-3.29-0.778-4.907
				c-0.136-0.804-0.291-1.611-0.485-2.432c-0.171-0.818-0.364-1.623-0.616-2.402c-0.924-3.15-2.104-6.014-2.986-8.798
				c-0.453-1.391-0.791-2.757-1.059-4.112c-0.09-0.682-0.18-1.358-0.268-2.031c-0.047-0.704-0.092-1.403-0.138-2.097
				c-0.164-2.778-0.085-5.523-0.096-8.229c-0.053-5.404-0.19-10.389-0.599-14.983c-0.111-1.145-0.17-2.263-0.318-3.349
				c-0.156-1.084-0.309-2.14-0.457-3.167c-0.074-0.513-0.148-1.018-0.221-1.515c-0.085-0.498-0.21-0.987-0.312-1.468
				c-0.107-0.48-0.214-0.953-0.318-1.418c-0.13-0.456-0.257-0.903-0.383-1.344c-0.079-0.269-0.157-0.512-0.236-0.774
				c-0.174-1.766-0.488-3.563-0.733-5.418c-0.293-1.938-0.512-3.941-0.964-5.956c-1.361-8.146-3.945-16.89-7.569-25.924
				c-3.61-9.045-8.727-18.244-15.24-27.067c-6.514-8.836-14.378-17.3-23.435-25.123c-9.15-7.712-19.774-14.438-31.604-19.188
				c-5.906-2.38-11.953-4.22-18.027-5.493c-6.084-1.313-12.167-1.869-18.103-2.312c-11.917-0.694-23.371-0.217-34.202,0.358
				c-5.426,0.276-10.673,0.616-15.808,0.799c-5.141,0.213-10.163,0.521-15.003,1.062c-9.678,1.167-18.572,3.412-26.247,6.507
				c-1.903,0.811-3.785,1.544-5.57,2.365c-1.768,0.855-3.489,1.688-5.163,2.499c-2.029,1.118-3.989,2.169-5.852,3.233
				c-4.889,2.408-10.258,5.368-15.918,9.046c-6.081,3.935-12.496,8.673-18.831,14.425c-6.356,5.723-12.505,12.591-18.043,20.505
				c-0.72,0.97-1.361,2.004-2.021,3.032c-0.652,1.034-1.341,2.055-1.974,3.119c-1.211,2.158-2.536,4.289-3.631,6.573
				c-2.391,4.471-4.299,9.29-6.112,14.234c-3.529,9.938-5.587,20.678-6.975,31.655c-1.374,10.993-1.993,21.743-2.724,32.06
				c-0.726,10.317-1.589,20.227-3.119,29.541c-0.402,2.324-0.743,4.633-1.265,6.867c-0.492,2.24-0.896,4.482-1.538,6.597
				c-0.296,1.068-0.59,2.129-0.881,3.181c-0.347,1.043-0.691,2.078-1.032,3.105c-0.65,2.059-1.441,4.062-2.15,6.045
				c-2.775,7.376-5.438,14.414-6.835,21.196c-0.288,1.02-0.512,2.057-0.785,3.071c-0.65,2.583-0.794,5.264-0.665,7.789
				c0.044,0.968,0.129,1.912,0.226,2.844c0.072,2.576,0.287,5.027,0.582,7.309c0.16,1.293,0.333,2.536,0.509,3.74
				c-0.028,3.882-0.206,7.204,0.19,9.634v0.001c-0.082,0.733-0.129,1.479-0.042,2.272c0.088,0.814,0.694,2.673,1.462,3.553
				c-0.013,0.083-0.03,0.163-0.042,0.246c-1.242,8.405-1.227,17.479,0.628,26.607c1.812,9.137,5.762,18.182,11.256,26.304
				c2.741,4.068,5.757,7.877,8.905,11.412c1.59,1.747,3.126,3.525,4.732,5.204c1.613,1.669,3.213,3.324,4.799,4.966
				c6.437,6.46,12.882,12.392,18.936,18.1c0.93,0.867,1.826,1.724,2.732,2.583c0.921,0.979,1.882,1.989,2.888,3.037
				c3.805,3.918,8.242,8.28,13.176,13.046c0.824,0.802,1.68,1.635,2.53,2.462c3.477,3.585,6.78,6.99,9.865,10.171
				c4.415,4.526,8.417,8.609,11.936,12.188c2.864,3.218,5.767,6.58,8.751,10.04c5.944,6.852,12.198,14.122,19.5,20.976
				c7.281,6.816,15.776,13.241,25.803,17.329c4.999,2.028,10.198,3.402,15.394,4.13c5.194,0.734,10.395,0.827,15.401,0.49
				c10.062-0.515,19.699-3.025,28.1-6.883c8.444-3.833,15.69-8.896,21.919-14.139c3.129-2.614,6.01-5.29,8.685-7.946
				c2.688-2.646,5.169-5.272,7.483-7.822c4.635-5.097,8.624-9.867,12.098-14.073c3.454-4.219,6.43-7.853,8.861-10.822
				c0.199-0.243,0.39-0.476,0.582-0.71c0.897-1.004,1.824-2.04,2.807-3.139c1.351-1.461,2.778-3.005,4.277-4.627
				c6.056-6.435,13.383-13.947,22.008-21.807c8.561-7.913,18.341-16.421,27.379-26.686c1.121-1.286,2.264-2.544,3.344-3.837
				c1.04-1.325,2.073-2.643,3.099-3.949c2.048-2.587,4.089-5.233,5.778-8.085c3.395-5.671,5.488-11.804,6.503-17.739
				C560.152,509.629,560.138,503.893,559.644,498.634z M555.932,514.984c-1.133,5.559-3.217,11.189-6.459,16.41
				c-1.604,2.608-3.559,5.082-5.615,7.634c-1.013,1.274-2.032,2.558-3.059,3.85c-1.064,1.262-2.184,2.487-3.28,3.746
				c-8.829,10.032-18.353,18.649-26.726,26.88c-8.435,8.18-15.491,16.113-21.205,22.896c-1.41,1.714-2.754,3.345-4.024,4.889
				c-1.236,1.568-2.401,3.047-3.491,4.43c-2.163,2.775-4.026,5.166-5.549,7.12c-0.119,0.154-0.222,0.288-0.336,0.437
				c-0.837,0.934-1.704,1.902-2.603,2.906c-3.642,4.053-7.804,8.65-12.579,13.544c-2.386,2.448-4.93,4.965-7.664,7.489
				c-2.722,2.537-5.635,5.082-8.77,7.555c-6.243,4.963-13.395,9.688-21.57,13.2c-8.156,3.539-17.299,5.773-26.981,6.168
				c-4.847,0.272-9.743,0.139-14.645-0.58c-4.897-0.714-9.768-2.017-14.476-3.926c-9.43-3.844-17.58-9.896-24.744-16.46
				c-7.179-6.592-13.492-13.688-19.567-20.417c-6.058-6.746-11.89-13.169-17.736-18.806c-2.927-2.805-5.753-5.489-8.5-8.048
				c-0.843-0.767-1.654-1.505-2.476-2.253c-2.205-2.436-4.487-4.958-6.852-7.571c-2.464-2.763-5.131-5.541-7.869-8.412
				c-2.779-2.819-5.645-5.722-8.631-8.631c-5.943-5.854-12.268-11.881-18.556-18.342c-1.547-1.635-3.108-3.284-4.682-4.946
				c-1.567-1.668-3.056-3.421-4.608-5.145c-3.057-3.476-5.938-7.143-8.57-11.048c-5.27-7.806-9.02-16.265-10.845-24.906
				c-1.861-8.636-2.034-17.305-1.019-25.394c2.035-16.267,9.229-29.813,16.761-39.629c3.835-4.885,8.102-8.628,11.962-11.772
				c3.87-3.137,7.405-5.604,10.284-7.63c5.79-4.019,8.992-6.24,8.992-6.24s-3.321,2.042-9.327,5.734
				c-2.984,1.878-6.647,4.174-10.698,7.162c-4.027,2.987-8.56,6.627-12.714,11.517c-4.097,4.897-8.018,10.738-11.34,17.487
				c-2.576,5.181-4.643,10.983-6.053,17.201c-0.139-0.154-0.3-0.301-0.468-0.465c-0.283-2.409-0.635-5.092-0.968-8.059
				c-0.001-0.566-0.004-1.144-0.01-1.741c-0.024-1.018-0.057-2.086-0.201-3.197c-0.153-1.078-0.312-2.193-0.475-3.338
				c-0.021-0.147-0.044-0.298-0.066-0.446c-0.222-4.815,0.001-10.117,1.256-15.692c1.492-6.946,4.496-14.181,7.698-22.041
				c0.772-1.985,1.615-3.97,2.337-6.067c0.375-1.041,0.752-2.091,1.132-3.147c0.344-1.074,0.658-2.172,0.991-3.27
				c0.717-2.193,1.176-4.452,1.728-6.732c0.582-2.275,0.976-4.613,1.431-6.974c1.739-9.453,2.762-19.475,3.596-29.82
				c0.839-10.347,1.519-21.034,2.872-31.858c1.366-10.809,3.319-21.281,6.637-30.932c1.707-4.797,3.491-9.49,5.744-13.853
				c1.027-2.23,2.281-4.314,3.418-6.429c0.596-1.042,1.248-2.044,1.862-3.059c0.624-1.01,1.226-2.026,1.909-2.982
				c5.233-7.791,11.069-14.634,17.148-20.409c6.055-5.803,12.225-10.663,18.099-14.751c1.131-0.79,2.248-1.543,3.355-2.275
				c0.365-0.229,0.727-0.454,1.099-0.693c1.176-0.744,2.402-1.52,3.678-2.328c1.294-0.776,2.667-1.533,4.072-2.344
				c2.783-1.672,5.915-3.168,9.185-4.835c1.676-0.747,3.399-1.515,5.168-2.303c1.783-0.754,3.655-1.418,5.546-2.159
				c7.629-2.816,16.35-4.764,25.841-5.685c4.757-0.418,9.698-0.613,14.826-0.722c5.135-0.08,10.447-0.323,15.853-0.507
				c10.821-0.395,22.161-0.708,33.809,0.076c5.818,0.488,11.723,1.07,17.557,2.36c5.846,1.253,11.669,3.04,17.368,5.337
				c11.415,4.581,21.729,11.034,30.675,18.438c8.868,7.521,16.703,15.724,23.198,24.238c6.508,8.518,11.672,17.362,15.417,26.136
				c3.752,8.758,6.521,17.246,8.102,25.24c0.108,0.91,0.433,1.932,0.649,3.069c0.18,0.87-0.178,1.824,0.822,2.815
				c0,0.001,0,0.002,0,0.003c0,1.915,0.541,3.767,0.766,5.594c0.447,3.652,0.915,7.084,1.169,10.326
				c0.246,2.562,0.448,4.979,0.623,7.258c0,3.149-0.097,6.465-0.211,9.928c-0.102,2.649-0.304,5.448-0.24,8.375
				c0.021,0.731,0.039,1.469,0.061,2.211c0.075,0.766,0.146,1.538,0.223,2.314c0.246,1.534,0.578,3.07,1.015,4.559
				c0.852,2.986,1.949,5.877,2.729,8.803c0.219,0.728,0.376,1.468,0.513,2.215c0.159,0.734,0.29,1.501,0.407,2.288
				c0.231,1.561,0.55,3.125,0.664,4.729c0.698,6.38,0.71,13.115,0.784,20.074c0.027,2.666,0.067,5.312,0.172,7.961
				c0.065,1.324,0.102,2.66,0.195,3.947c0.114,1.272,0.229,2.535,0.303,3.783c0.323,4.987,0.547,10.023,1.667,14.772
				c0.604,2.403,1.458,4.609,2.241,6.611c0.409,1.026,0.727,1.995,1.088,2.969c0.155,0.479,0.277,0.946,0.419,1.414
				c0.13,0.467,0.302,0.921,0.34,1.402c0.646,3.715,0.577,7.708,1.613,11.191c-0.011-0.047-0.021-0.094-0.025-0.11
				c0.459,1.792,0.905,3.539,1.34,5.238c0.475,1.679,1.056,3.257,1.557,4.815c0.508,1.562,1.042,3.024,1.541,4.466
				c0.252,0.718,0.5,1.424,0.744,2.118c0.216,0.696,0.428,1.381,0.637,2.054c0.717,2.074,1.246,4.061,1.654,5.95
				c0.464,3.12,0.841,6.414,1.011,9.885C557.253,503.934,557.048,509.413,555.932,514.984z"/>
			<g opacity="0.3">
				<g>
					<g>
						<path d="M410.5,614.999c0,0-0.688-0.006-1.864-0.07c-1.166-0.092-2.859-0.111-4.852-0.135
							c-1.008,0.025-2.075-0.018-3.233,0.055c-0.57,0.017-1.16,0.034-1.768,0.053c-0.609,0.041-1.232,0.075-1.865,0.1
							c-2.547,0.149-5.317,0.34-8.298,0.462c-5.957,0.291-11.729-0.019-15.912-0.758c-2.09-0.363-3.773-0.771-4.926-1.129
							c-1.153-0.345-1.78-0.577-1.78-0.577s0.632-0.253,1.756-0.636c1.125-0.37,2.735-0.932,4.709-1.534
							c3.951-1.19,9.365-2.806,15.827-3.126c3.229-0.135,6.389,0.162,9.207,0.77c0.706,0.165,1.389,0.337,2.048,0.512
							c0.659,0.185,1.291,0.42,1.898,0.63c1.217,0.398,2.306,0.945,3.285,1.413c1.941,1.012,3.399,1.984,4.336,2.767
							C410.014,614.551,410.5,614.999,410.5,614.999z"/>
					</g>
				</g>
			</g>
			<g opacity="0.3">
				<g>
					<g>
						<path fill="#FFFFFF" d="M442.999,634.999c0,0-0.136,0.61-0.484,1.728c-0.091,0.276-0.18,0.6-0.313,0.927
							c-0.147,0.322-0.305,0.673-0.476,1.049c-0.184,0.378-0.38,0.782-0.588,1.21c-0.231,0.412-0.5,0.827-0.782,1.274
							c-1.109,1.811-2.769,3.709-4.836,5.564c-2.088,1.815-4.633,3.48-7.477,4.797c-5.725,2.597-11.414,3.202-15.467,3.144
							c-1.015,0.001-1.939-0.063-2.747-0.135c-0.807-0.064-1.501-0.147-2.07-0.242c-1.136-0.176-1.759-0.316-1.759-0.316
							s0.555-0.341,1.549-0.879c0.494-0.267,1.098-0.594,1.798-0.972c0.691-0.365,1.479-0.78,2.349-1.239
							c3.468-1.799,8.095-4.144,13.122-6.428c2.512-1.133,4.904-2.211,7.082-3.193c2.141-1.031,4.147-1.95,5.754-2.892
							c0.416-0.229,0.812-0.447,1.188-0.653c0.362-0.229,0.704-0.444,1.023-0.647c0.333-0.203,0.642-0.392,0.928-0.565
							c0.282-0.181,0.517-0.367,0.746-0.525C442.442,635.363,442.999,635,442.999,634.999z"/>
					</g>
				</g>
			</g>
			<g opacity="0.3">
				<g>
					<g>
						<path fill="#FFFFFF" d="M233.999,473c0,0,0.006,0.842-0.04,2.298c-0.014,0.361-0.029,0.763-0.046,1.202
							c-0.008,0.439,0.015,0.921,0.017,1.43c0.026,1.022-0.028,2.154,0.071,3.419c0.026,0.624,0.054,1.276,0.082,1.957
							c0.023,0.675,0.119,1.383,0.166,2.104c0.074,1.441,0.294,2.976,0.449,4.57c0.418,3.194,0.931,6.647,1.593,10.267
							c0.685,3.615,1.41,7.058,2.116,10.234c0.417,1.564,0.713,3.103,1.119,4.507c0.181,0.715,0.356,1.405,0.524,2.068
							c0.189,0.661,0.37,1.296,0.543,1.902c0.316,1.234,0.67,2.329,0.962,3.312c0.143,0.495,0.276,0.956,0.399,1.381
							c0.138,0.42,0.263,0.804,0.377,1.149c0.447,1.392,0.668,2.2,0.668,2.2s-0.622-0.532-1.7-1.561
							c-0.269-0.261-0.566-0.55-0.893-0.867c-0.304-0.335-0.633-0.698-0.988-1.089c-0.706-0.79-1.512-1.699-2.294-2.778
							c-0.397-0.54-0.813-1.105-1.247-1.694c-0.393-0.615-0.802-1.256-1.226-1.919c-0.868-1.326-1.609-2.835-2.421-4.424
							c-1.496-3.223-2.81-6.952-3.577-11.016c-0.746-4.069-0.816-8.057-0.508-11.626c0.207-1.788,0.42-3.473,0.811-5.026
							c0.185-0.777,0.329-1.525,0.551-2.232c0.229-0.702,0.448-1.376,0.658-2.02c0.394-1.281,0.94-2.392,1.369-3.361
							c0.225-0.482,0.42-0.932,0.635-1.335c0.227-0.396,0.436-0.759,0.623-1.084C233.548,473.677,233.999,473,233.999,473z"/>
					</g>
				</g>
			</g>
			<path fill="#D88F6F" d="M553.543,474.47c-1.079-2.279-1.914-4.724-2.515-7.246c-2.575-10.814-4.621-21.942-6.641-32.874
				c-1.259-6.812-2.523-13.85-2.491-20.798c0.029-6.52,0.791-13.088,0.381-19.604c-0.396-6.279-1.516-12.443-2.622-18.614
				c-1.51-3.799-2.474-7.667-2.848-11.632c-0.447,0.539-0.901,1.073-1.332,1.623c0.253-16.188,0.3-31.656-3.587-46.213
				c-3.44-12.882-6.904-25.372-12.512-37.988c-2.521-5.672-5.197-11.362-9.514-16.012c-4.216-4.54-9.035-7.85-12.725-12.75
				c-1.663-2.209-3.073-5.303-5.515-6.985c-0.11-0.076-0.22-0.135-0.33-0.204c-0.355-0.443-0.7-0.861-0.981-1.235
				c-4.073-5.421-9.255-8.632-14.882-11.868c-5.68-3.266-10.877-6.989-16.931-9.569c-6.079-2.591-12.3-5.109-18.507-7.243
				c-7.23-2.485-14.667-2.757-22.743-2.757c-16.343,0-33.216-0.322-49.194,1.056c-7.496,0.646-15.565,1.095-23.05,2.2
				c-6.83,1.009-13.437,3.167-19.944,5.556c-5.837,2.142-12.563,4.507-17.762,8.001c-5.266,3.538-11.219,6.499-16.368,10.12
				c-4.979,3.501-9.609,7.443-14.244,11.756c-1.857,1.729-3.234,3.741-4.414,5.885c-0.688,0.79-1.392,1.639-2.137,2.564
				c-3.901,4.842-8.579,9.525-12.274,14.751c-15.749,22.277-18.598,51.537-19.936,78.534c-0.436-0.047-0.879-0.117-1.326-0.199
				c0.018,7.257-0.43,14.52-0.559,21.853c-0.231,13.154-2.445,25.615-7.57,37.8c-4.542,10.799-10.809,23.013-11.805,34.977
				c0.608,2.493,0.644,5.228,0.626,7.781c-0.042,5.932,1.062,11.732,1.433,17.63c1.822,3.241,1.181,6.692,0.664,10.125
				c-0.577,3.839-0.22,7.608,0.502,11.221c1.344,6.728,3.4,13.191,5.219,19.781c3.509,12.713,8.453,23.085,19.502,31.998
				c18.463,14.895,34.834,33.255,51.139,51.111c9.375,10.268,19.343,20.573,28.613,30.637c7.93,8.609,14.086,15.33,23.137,22.613
				c7.327,5.894,18.082,12.687,27.25,14.75c9.708,2.185,27.354,2.394,35.25-2.5l0.5,2c5.723-3.768,12.452-5.059,18.514-7.875
				c5.552-2.581,10.014-6.851,14.861-10.749c9.835-7.911,18.901-15.271,26.875-25.126c7.67-9.479,16.387-18.644,24.25-27.75
				c8.198-9.492,18.07-18.076,27.376-26.624c8.979-8.247,16.656-17.845,24.261-27.239C556.05,527.509,559,514.905,559,500
				C559,490.425,556.255,482.709,553.543,474.47z"/>
			<path d="M559.644,498.634c-0.491-5.268-1.433-10.087-2.464-14.421c-2.101-8.665-4.445-15.451-6.005-20.153
				c-0.042-0.121-0.081-0.235-0.121-0.354c-0.129-0.775-0.263-1.575-0.399-2.396c-0.126-0.83-0.137-1.74-0.216-2.638
				c-0.067-0.899-0.099-1.897-0.152-2.874c-0.037-0.979-0.201-2.069-0.306-3.135c-0.693-4.383-2.815-8.394-3.723-12.628
				c-0.912-4.336-1.055-9.121-1.313-14.221c-0.059-1.277-0.161-2.557-0.264-3.845c-0.079-1.277-0.1-2.53-0.156-3.809
				c-0.084-2.558-0.116-5.189-0.143-7.849c-0.076-6.941-0.142-13.815-0.978-20.468c-0.148-1.669-0.505-3.29-0.778-4.907
				c-0.136-0.804-0.291-1.611-0.485-2.432c-0.171-0.818-0.364-1.623-0.616-2.402c-0.924-3.15-2.104-6.014-2.986-8.798
				c-0.453-1.391-0.791-2.757-1.059-4.112c-0.09-0.682-0.18-1.358-0.268-2.031c-0.047-0.704-0.092-1.403-0.138-2.097
				c-0.164-2.778-0.085-5.523-0.096-8.229c-0.053-5.404-0.19-10.389-0.599-14.983c-0.111-1.145-0.17-2.263-0.318-3.349
				c-0.156-1.084-0.309-2.14-0.457-3.167c-0.074-0.513-0.148-1.018-0.221-1.515c-0.085-0.498-0.21-0.987-0.312-1.468
				c-0.107-0.48-0.214-0.953-0.318-1.418c-0.13-0.456-0.257-0.903-0.383-1.344c-0.079-0.269-0.157-0.512-0.236-0.774
				c-0.174-1.766-0.488-3.563-0.733-5.418c-0.293-1.938-0.512-3.941-0.964-5.956c-1.361-8.146-3.945-16.89-7.569-25.924
				c-3.61-9.045-8.727-18.244-15.24-27.067c-6.514-8.836-14.378-17.3-23.435-25.123c-9.15-7.712-19.774-14.438-31.604-19.188
				c-5.906-2.38-11.953-4.22-18.027-5.493c-6.084-1.313-12.167-1.869-18.103-2.312c-11.917-0.694-23.371-0.217-34.202,0.358
				c-5.426,0.276-10.673,0.616-15.808,0.799c-5.141,0.213-10.163,0.521-15.003,1.062c-9.678,1.167-18.572,3.412-26.247,6.507
				c-1.903,0.811-3.785,1.544-5.57,2.365c-1.768,0.855-3.489,1.688-5.163,2.499c-2.029,1.118-3.989,2.169-5.852,3.233
				c-4.889,2.408-10.258,5.368-15.918,9.046c-6.081,3.935-12.496,8.673-18.831,14.425c-6.356,5.723-12.505,12.591-18.043,20.505
				c-0.72,0.97-1.361,2.004-2.021,3.032c-0.652,1.034-1.341,2.055-1.974,3.119c-1.211,2.158-2.536,4.289-3.631,6.573
				c-2.391,4.471-4.299,9.29-6.112,14.234c-3.529,9.938-5.587,20.678-6.975,31.655c-1.374,10.993-1.993,21.743-2.724,32.06
				c-0.726,10.317-1.589,20.227-3.119,29.541c-0.402,2.324-0.743,4.633-1.265,6.867c-0.492,2.24-0.896,4.482-1.538,6.597
				c-0.296,1.068-0.59,2.129-0.881,3.181c-0.347,1.043-0.691,2.078-1.032,3.105c-0.65,2.059-1.441,4.062-2.15,6.045
				c-2.775,7.376-5.438,14.414-6.835,21.196c-0.288,1.02-0.512,2.057-0.785,3.071c-0.65,2.583-0.794,5.264-0.665,7.789
				c0.044,0.968,0.129,1.912,0.226,2.844c0.072,2.576,0.287,5.027,0.582,7.309c0.16,1.293,0.333,2.536,0.509,3.74
				c-0.028,3.882-0.206,7.204,0.19,9.634v0.001c-0.082,0.733-0.129,1.479-0.042,2.272c0.088,0.814,0.694,2.673,1.462,3.553
				c-0.013,0.083-0.03,0.163-0.042,0.246c-1.242,8.405-1.227,17.479,0.628,26.607c1.812,9.137,5.762,18.182,11.256,26.304
				c2.741,4.068,5.757,7.877,8.905,11.412c1.59,1.747,3.126,3.525,4.732,5.204c1.613,1.669,3.213,3.324,4.799,4.966
				c6.437,6.46,12.882,12.392,18.936,18.1c0.93,0.867,1.826,1.724,2.732,2.583c0.921,0.979,1.882,1.989,2.888,3.037
				c3.805,3.918,8.242,8.28,13.176,13.046c0.824,0.802,1.68,1.635,2.53,2.462c3.477,3.585,6.78,6.99,9.865,10.171
				c4.415,4.526,8.417,8.609,11.936,12.188c2.864,3.218,5.767,6.58,8.751,10.04c5.944,6.852,12.198,14.122,19.5,20.976
				c7.281,6.816,15.776,13.241,25.803,17.329c4.999,2.028,10.198,3.402,15.394,4.13c5.194,0.734,10.395,0.827,15.401,0.49
				c10.062-0.515,19.699-3.025,28.1-6.883c8.444-3.833,15.69-8.896,21.919-14.139c3.129-2.614,6.01-5.29,8.685-7.946
				c2.688-2.646,5.169-5.272,7.483-7.822c4.635-5.097,8.624-9.867,12.098-14.073c3.454-4.219,6.43-7.853,8.861-10.822
				c0.199-0.243,0.39-0.476,0.582-0.71c0.897-1.004,1.824-2.04,2.807-3.139c1.351-1.461,2.778-3.005,4.277-4.627
				c6.056-6.435,13.383-13.947,22.008-21.807c8.561-7.913,18.341-16.421,27.379-26.686c1.121-1.286,2.264-2.544,3.344-3.837
				c1.04-1.325,2.073-2.643,3.099-3.949c2.048-2.587,4.089-5.233,5.778-8.085c3.395-5.671,5.488-11.804,6.503-17.739
				C560.152,509.629,560.138,503.893,559.644,498.634z M555.932,514.984c-1.133,5.559-3.217,11.189-6.459,16.41
				c-1.604,2.608-3.559,5.082-5.615,7.634c-1.013,1.274-2.032,2.558-3.059,3.85c-1.064,1.262-2.184,2.487-3.28,3.746
				c-8.829,10.032-18.353,18.649-26.726,26.88c-8.435,8.18-15.491,16.113-21.205,22.896c-1.41,1.714-2.754,3.345-4.024,4.889
				c-1.236,1.568-2.401,3.047-3.491,4.43c-2.163,2.775-4.026,5.166-5.549,7.12c-0.119,0.154-0.222,0.288-0.336,0.437
				c-0.837,0.934-1.704,1.902-2.603,2.906c-3.642,4.053-7.804,8.65-12.579,13.544c-2.386,2.448-4.93,4.965-7.664,7.489
				c-2.722,2.537-5.635,5.082-8.77,7.555c-6.243,4.963-13.395,9.688-21.57,13.2c-8.156,3.539-17.299,5.773-26.981,6.168
				c-4.847,0.272-9.743,0.139-14.645-0.58c-4.897-0.714-9.768-2.017-14.476-3.926c-9.43-3.844-17.58-9.896-24.744-16.46
				c-7.179-6.592-13.492-13.688-19.567-20.417c-6.058-6.746-11.89-13.169-17.736-18.806c-2.927-2.805-5.753-5.489-8.5-8.048
				c-0.843-0.767-1.654-1.505-2.476-2.253c-2.205-2.436-4.487-4.958-6.852-7.571c-2.464-2.763-5.131-5.541-7.869-8.412
				c-2.779-2.819-5.645-5.722-8.631-8.631c-5.943-5.854-12.268-11.881-18.556-18.342c-1.547-1.635-3.108-3.284-4.682-4.946
				c-1.567-1.668-3.056-3.421-4.608-5.145c-3.057-3.476-5.938-7.143-8.57-11.048c-5.27-7.806-9.02-16.265-10.845-24.906
				c-1.861-8.636-2.034-17.305-1.019-25.394c2.035-16.267,9.229-29.813,16.761-39.629c3.835-4.885,8.102-8.628,11.962-11.772
				c3.87-3.137,7.405-5.604,10.284-7.63c5.79-4.019,8.992-6.24,8.992-6.24s-3.321,2.042-9.327,5.734
				c-2.984,1.878-6.647,4.174-10.698,7.162c-4.027,2.987-8.56,6.627-12.714,11.517c-4.097,4.897-8.018,10.738-11.34,17.487
				c-2.576,5.181-4.643,10.983-6.053,17.201c-0.139-0.154-0.3-0.301-0.468-0.465c-0.283-2.409-0.635-5.092-0.968-8.059
				c-0.001-0.566-0.004-1.144-0.01-1.741c-0.024-1.018-0.057-2.086-0.201-3.197c-0.153-1.078-0.312-2.193-0.475-3.338
				c-0.021-0.147-0.044-0.298-0.066-0.446c-0.222-4.815,0.001-10.117,1.256-15.692c1.492-6.946,4.496-14.181,7.698-22.041
				c0.772-1.985,1.615-3.97,2.337-6.067c0.375-1.041,0.752-2.091,1.132-3.147c0.344-1.074,0.658-2.172,0.991-3.27
				c0.717-2.193,1.176-4.452,1.728-6.732c0.582-2.275,0.976-4.613,1.431-6.974c1.739-9.453,2.762-19.475,3.596-29.82
				c0.839-10.347,1.519-21.034,2.872-31.858c1.366-10.809,3.319-21.281,6.637-30.932c1.707-4.797,3.491-9.49,5.744-13.853
				c1.027-2.23,2.281-4.314,3.418-6.429c0.596-1.042,1.248-2.044,1.862-3.059c0.624-1.01,1.226-2.026,1.909-2.982
				c5.233-7.791,11.069-14.634,17.148-20.409c6.055-5.803,12.225-10.663,18.099-14.751c1.131-0.79,2.248-1.543,3.355-2.275
				c0.365-0.229,0.727-0.454,1.099-0.693c1.176-0.744,2.402-1.52,3.678-2.328c1.294-0.776,2.667-1.533,4.072-2.344
				c2.783-1.672,5.915-3.168,9.185-4.835c1.676-0.747,3.399-1.515,5.168-2.303c1.783-0.754,3.655-1.418,5.546-2.159
				c7.629-2.816,16.35-4.764,25.841-5.685c4.757-0.418,9.698-0.613,14.826-0.722c5.135-0.08,10.447-0.323,15.853-0.507
				c10.821-0.395,22.161-0.708,33.809,0.076c5.818,0.488,11.723,1.07,17.557,2.36c5.846,1.253,11.669,3.04,17.368,5.337
				c11.415,4.581,21.729,11.034,30.675,18.438c8.868,7.521,16.703,15.724,23.198,24.238c6.508,8.518,11.672,17.362,15.417,26.136
				c3.752,8.758,6.521,17.246,8.102,25.24c0.108,0.91,0.433,1.932,0.649,3.069c0.18,0.87-0.178,1.824,0.822,2.815
				c0,0.001,0,0.002,0,0.003c0,1.915,0.541,3.767,0.766,5.594c0.447,3.652,0.915,7.084,1.169,10.326
				c0.246,2.562,0.448,4.979,0.623,7.258c0,3.149-0.097,6.465-0.211,9.928c-0.102,2.649-0.304,5.448-0.24,8.375
				c0.021,0.731,0.039,1.469,0.061,2.211c0.075,0.766,0.146,1.538,0.223,2.314c0.246,1.534,0.578,3.07,1.015,4.559
				c0.852,2.986,1.949,5.877,2.729,8.803c0.219,0.728,0.376,1.468,0.513,2.215c0.159,0.734,0.29,1.501,0.407,2.288
				c0.231,1.561,0.55,3.125,0.664,4.729c0.698,6.38,0.71,13.115,0.784,20.074c0.027,2.666,0.067,5.312,0.172,7.961
				c0.065,1.324,0.102,2.66,0.195,3.947c0.114,1.272,0.229,2.535,0.303,3.783c0.323,4.987,0.547,10.023,1.667,14.772
				c0.604,2.403,1.458,4.609,2.241,6.611c0.409,1.026,0.727,1.995,1.088,2.969c0.155,0.479,0.277,0.946,0.419,1.414
				c0.13,0.467,0.302,0.921,0.34,1.402c0.646,3.715,0.577,7.708,1.613,11.191c-0.011-0.047-0.021-0.094-0.025-0.11
				c0.459,1.792,0.905,3.539,1.34,5.238c0.475,1.679,1.056,3.257,1.557,4.815c0.508,1.562,1.042,3.024,1.541,4.466
				c0.252,0.718,0.5,1.424,0.744,2.118c0.216,0.696,0.428,1.381,0.637,2.054c0.717,2.074,1.246,4.061,1.654,5.95
				c0.464,3.12,0.841,6.414,1.011,9.885C557.253,503.934,557.048,509.413,555.932,514.984z"/>
			<g opacity="0.3">
				<g>
					<g>
						<path d="M410.5,614.999c0,0-0.688-0.006-1.864-0.07c-1.166-0.092-2.859-0.111-4.852-0.135
							c-1.008,0.025-2.075-0.018-3.233,0.055c-0.57,0.017-1.16,0.034-1.768,0.053c-0.609,0.041-1.232,0.075-1.865,0.1
							c-2.547,0.149-5.317,0.34-8.298,0.462c-5.957,0.291-11.729-0.019-15.912-0.758c-2.09-0.363-3.773-0.771-4.926-1.129
							c-1.153-0.345-1.78-0.577-1.78-0.577s0.632-0.253,1.756-0.636c1.125-0.37,2.735-0.932,4.709-1.534
							c3.951-1.19,9.365-2.806,15.827-3.126c3.229-0.135,6.389,0.162,9.207,0.77c0.706,0.165,1.389,0.337,2.048,0.512
							c0.659,0.185,1.291,0.42,1.898,0.63c1.217,0.398,2.306,0.945,3.285,1.413c1.941,1.012,3.399,1.984,4.336,2.767
							C410.014,614.551,410.5,614.999,410.5,614.999z"/>
					</g>
				</g>
			</g>
			<g opacity="0.3">
				<g>
					<g>
						<path fill="#FFFFFF" d="M442.999,634.999c0,0-0.136,0.61-0.484,1.728c-0.091,0.276-0.18,0.6-0.313,0.927
							c-0.147,0.322-0.305,0.673-0.476,1.049c-0.184,0.378-0.38,0.782-0.588,1.21c-0.231,0.412-0.5,0.827-0.782,1.274
							c-1.109,1.811-2.769,3.709-4.836,5.564c-2.088,1.815-4.633,3.48-7.477,4.797c-5.725,2.597-11.414,3.202-15.467,3.144
							c-1.015,0.001-1.939-0.063-2.747-0.135c-0.807-0.064-1.501-0.147-2.07-0.242c-1.136-0.176-1.759-0.316-1.759-0.316
							s0.555-0.341,1.549-0.879c0.494-0.267,1.098-0.594,1.798-0.972c0.691-0.365,1.479-0.78,2.349-1.239
							c3.468-1.799,8.095-4.144,13.122-6.428c2.512-1.133,4.904-2.211,7.082-3.193c2.141-1.031,4.147-1.95,5.754-2.892
							c0.416-0.229,0.812-0.447,1.188-0.653c0.362-0.229,0.704-0.444,1.023-0.647c0.333-0.203,0.642-0.392,0.928-0.565
							c0.282-0.181,0.517-0.367,0.746-0.525C442.442,635.363,442.999,635,442.999,634.999z"/>
					</g>
				</g>
			</g>
			<g opacity="0.3">
				<g>
					<g>
						<path fill="#FFFFFF" d="M233.999,473c0,0,0.006,0.842-0.04,2.298c-0.014,0.361-0.029,0.763-0.046,1.202
							c-0.008,0.439,0.015,0.921,0.017,1.43c0.026,1.022-0.028,2.154,0.071,3.419c0.026,0.624,0.054,1.276,0.082,1.957
							c0.023,0.675,0.119,1.383,0.166,2.104c0.074,1.441,0.294,2.976,0.449,4.57c0.418,3.194,0.931,6.647,1.593,10.267
							c0.685,3.615,1.41,7.058,2.116,10.234c0.417,1.564,0.713,3.103,1.119,4.507c0.181,0.715,0.356,1.405,0.524,2.068
							c0.189,0.661,0.37,1.296,0.543,1.902c0.316,1.234,0.67,2.329,0.962,3.312c0.143,0.495,0.276,0.956,0.399,1.381
							c0.138,0.42,0.263,0.804,0.377,1.149c0.447,1.392,0.668,2.2,0.668,2.2s-0.622-0.532-1.7-1.561
							c-0.269-0.261-0.566-0.55-0.893-0.867c-0.304-0.335-0.633-0.698-0.988-1.089c-0.706-0.79-1.512-1.699-2.294-2.778
							c-0.397-0.54-0.813-1.105-1.247-1.694c-0.393-0.615-0.802-1.256-1.226-1.919c-0.868-1.326-1.609-2.835-2.421-4.424
							c-1.496-3.223-2.81-6.952-3.577-11.016c-0.746-4.069-0.816-8.057-0.508-11.626c0.207-1.788,0.42-3.473,0.811-5.026
							c0.185-0.777,0.329-1.525,0.551-2.232c0.229-0.702,0.448-1.376,0.658-2.02c0.394-1.281,0.94-2.392,1.369-3.361
							c0.225-0.482,0.42-0.932,0.635-1.335c0.227-0.396,0.436-0.759,0.623-1.084C233.548,473.677,233.999,473,233.999,473z"/>
					</g>
				</g>
			</g>
			<g>
				<g>
					<path d="M235.841,350.98c-0.977-1.496-1.982-3.208-3.015-5.125c-2.396-4.391-4.883-9.826-8.155-15.699
						c-1.65-2.927-3.505-5.974-5.931-8.872c-1.233-1.432-2.618-2.83-4.293-4.008c-0.423-0.29-0.838-0.591-1.314-0.826
						c-0.463-0.249-0.917-0.516-1.43-0.694c-0.499-0.2-0.996-0.407-1.553-0.519l-0.817-0.196c-0.267-0.056-0.501-0.064-0.753-0.098
						c-7.868-0.895-15.479-0.264-22.006,2.111c-3.239,1.196-6.181,2.902-8.405,5.128c-2.243,2.191-3.643,4.969-4.205,7.479
						c-1.218,5.042-1.04,9.195-0.91,12.003c0.082,1.41,0.164,2.501,0.237,3.24c0.067,0.738,0.103,1.126,0.103,1.126
						s0.009-0.39,0.026-1.131c0.009-0.741,0.045-1.834,0.103-3.237c0.144-2.79,0.368-6.899,1.88-11.576
						c0.731-2.353,2.071-4.562,4.173-6.412c2.077-1.845,4.792-3.25,7.827-4.227c6.081-1.945,13.415-2.372,20.774-1.53
						c3.333,0.351,6.091,2.703,8.392,5.249c2.287,2.606,4.188,5.482,5.919,8.276c3.447,5.61,6.293,10.918,9.044,15.174
						c1.379,2.159,2.729,4.06,4.021,5.64C235.602,351.821,235.69,351.39,235.841,350.98z"/>
				</g>
				<g>
					<g>
						<g>
							<path d="M176.278,363.11c0,0,0.419-0.127,1.174-0.355c0.74-0.243,1.812-0.637,2.928-1.369
								c1.111-0.725,2.215-1.868,2.754-3.421c0.536-1.553,0.525-3.455,0.021-5.37c-1.01-3.805-3.454-7.067-5.875-7.808
								c-1.202-0.361-2.294,0.013-2.91,0.454c-0.347,0.178-0.536,0.423-0.706,0.544c-0.16,0.136-0.243,0.208-0.243,0.208
								s0.061-0.091,0.178-0.263c0.132-0.161,0.264-0.461,0.573-0.73c0.274-0.305,0.676-0.628,1.229-0.89
								c0.557-0.245,1.28-0.4,2.067-0.306c1.581,0.178,3.236,1.192,4.573,2.655c1.348,1.464,2.472,3.396,3.054,5.637
								c0.59,2.228,0.49,4.611-0.399,6.514c-0.893,1.916-2.487,3.091-3.84,3.657c-1.374,0.582-2.548,0.729-3.341,0.795
								C176.719,363.093,176.278,363.11,176.278,363.11z"/>
						</g>
					</g>
				</g>
				<g>
					<g>
						<g>
							<path d="M177.047,382.065c0,0,0.376-0.148,1.052-0.414c0.669-0.278,1.649-0.657,2.769-1.234
								c1.086-0.589,2.415-1.365,3.177-2.593c0.379-0.605,0.633-1.294,0.683-2.077c0.035-0.784-0.04-1.63-0.268-2.508l-0.035-0.164
								l-0.052-0.262l-0.059-0.353c-0.042-0.232-0.07-0.473-0.12-0.693c-0.088-0.449-0.175-0.89-0.288-1.314
								c-0.214-0.849-0.464-1.653-0.794-2.367c-0.631-1.441-1.536-2.562-2.519-3.273c-0.977-0.722-1.947-1.105-2.625-1.329
								c-0.696-0.2-1.082-0.31-1.082-0.31s0.4-0.025,1.139,0.002c0.733,0.046,1.827,0.186,3.083,0.778
								c1.256,0.572,2.584,1.75,3.502,3.353c0.477,0.793,0.842,1.685,1.139,2.621c0.308,0.906,0.495,2.001,0.655,2.838
								c0.266,1.031,0.348,2.128,0.227,3.194c-0.131,1.074-0.6,2.093-1.223,2.86c-0.621,0.781-1.379,1.318-2.103,1.693
								c-0.721,0.398-1.428,0.631-2.066,0.832c-1.285,0.372-2.338,0.509-3.062,0.608
								C177.45,382.026,177.047,382.065,177.047,382.065z"/>
						</g>
					</g>
				</g>
				<g>
					<g>
						<g>
							<path d="M173.177,399.326c0,0,0.369-0.128,1.033-0.358c0.661-0.235,1.619-0.568,2.738-1.061
								c1.107-0.502,2.406-1.151,3.504-2.172c1.123-0.993,1.958-2.39,2.417-4.054c0.454-1.694,0.624-3.392,0.287-4.79
								c-0.306-1.412-1.134-2.511-2.07-3.196c-0.931-0.7-1.878-1.059-2.531-1.283c-0.672-0.195-1.045-0.302-1.045-0.302
								c0-0.001,0.387-0.024,1.102-0.005c0.707,0.047,1.769,0.156,2.992,0.734c1.214,0.545,2.564,1.78,3.17,3.567
								c0.641,1.774,0.552,3.843,0.024,5.809c-0.54,2.016-1.789,3.803-3.285,4.833c-1.475,1.074-3.011,1.52-4.255,1.81
								c-1.258,0.273-2.281,0.362-2.986,0.415C173.568,399.308,173.177,399.326,173.177,399.326z"/>
						</g>
					</g>
				</g>
				<g>
					<g>
						<g>
							<path d="M170.389,418.116c0,0,0.384-0.125,1.076-0.35c0.682-0.243,1.671-0.59,2.787-1.164
								c1.098-0.587,2.366-1.377,3.316-2.595c0.987-1.181,1.611-2.781,1.833-4.575c0.252-1.775-0.004-3.504-0.575-4.935
								c-0.597-1.429-1.521-2.561-2.482-3.325c-0.954-0.776-1.888-1.239-2.548-1.521c-0.678-0.258-1.054-0.4-1.054-0.4
								s0.402,0.009,1.138,0.099c0.729,0.108,1.802,0.342,3.017,0.988c1.214,0.63,2.533,1.766,3.449,3.423
								c0.893,1.655,1.344,3.782,1.04,5.928c-0.25,2.119-1.193,4.147-2.57,5.456c-1.341,1.357-2.923,1.996-4.195,2.387
								c-1.296,0.375-2.364,0.479-3.095,0.541C170.792,418.114,170.389,418.116,170.389,418.116z"/>
						</g>
					</g>
				</g>
				<g>
					<g>
						<g>
							<path d="M217.553,464.335c0,0-0.055,0.291-0.158,0.846c-0.074,0.563-0.343,1.376-0.876,2.337
								c-0.53,0.974-1.486,1.984-2.805,2.88c-1.339,0.867-3.074,1.5-5.05,1.812c-1.977,0.305-4.207,0.287-6.541-0.255
								c-2.327-0.505-4.8-1.773-6.708-3.816c-1.898-2.044-3.204-4.65-4.044-7.413c-0.855-2.772-1.293-5.733-1.313-8.793
								c-0.012-3.005,0.304-5.868,0.302-8.476c0.008-2.6-0.52-4.876-1.77-6.847c-1.184-1.983-2.878-3.662-4.443-5.165
								c-1.598-1.486-3.248-2.761-4.731-3.975c-3.001-2.394-5.263-4.655-6.459-6.466c-0.319-0.438-0.565-0.85-0.772-1.211
								c-0.219-0.352-0.381-0.663-0.498-0.922c-0.246-0.508-0.374-0.774-0.374-0.774s0.167,0.244,0.485,0.709
								c0.151,0.235,0.354,0.517,0.616,0.832c0.25,0.323,0.543,0.691,0.909,1.073c1.396,1.601,3.792,3.479,6.982,5.55
								c1.585,1.056,3.364,2.188,5.177,3.625c0.917,0.706,1.794,1.522,2.695,2.371c0.452,0.423,0.872,0.916,1.318,1.385
								c0.403,0.519,0.854,1.008,1.221,1.591c0.794,1.109,1.434,2.427,1.857,3.83c0.427,1.406,0.608,2.888,0.659,4.333
								c0.082,2.89-0.188,5.702-0.172,8.526c0.016,2.766,0.376,5.494,1.068,7.994c0.677,2.502,1.729,4.792,3.181,6.539
								c1.456,1.732,3.352,2.912,5.363,3.521c2.002,0.636,4.019,0.841,5.831,0.74c1.813-0.107,3.445-0.505,4.744-1.147
								c1.275-0.667,2.273-1.474,2.884-2.314c0.614-0.826,0.991-1.576,1.141-2.11C217.456,464.614,217.553,464.335,217.553,464.335z
								"/>
						</g>
					</g>
				</g>
				<path fill-rule="evenodd" clip-rule="evenodd" d="M180.03,426.473c-1.376,0.087-4.189-2.674-5.173-3.613
					c-1.463-1.397-2.522-3.345-2.116-5.389c-0.731-0.002-1.731,0.237-2.431,0.492c2.133,2.893,5.35,6.158,8.462,7.995"/>
				<path fill-rule="evenodd" clip-rule="evenodd" d="M178.924,344.401c-1.782-0.635-3.087-0.468-4.787,0.207
					c0.137-2.185-0.883-5.303-0.135-7.203c-0.507,2.945-1.227,6.409-0.853,9.288c0.653-2.711,4.427-1.828,6.304-1.902"/>
				<g>
					<g>
						<g>
							<path d="M215.5,413.5c0,0-0.348,0.236-1.05,0.62c-0.7,0.387-1.766,0.912-3.213,1.405c-1.444,0.492-3.27,0.973-5.456,1.141
								c-1.092,0.081-2.276,0.084-3.525-0.106c-1.237-0.203-2.586-0.556-3.787-1.418c-1.217-0.814-2.173-2.254-2.428-3.852
								c-0.279-1.597-0.059-3.261,0.409-4.848c1-3.156,2.782-6.262,5.146-9.06c4.674-5.664,11.247-10.284,16.511-16.439
								c0.681-0.752,1.227-1.586,1.844-2.365c0.568-0.809,1.055-1.658,1.584-2.475c0.41-0.875,0.877-1.718,1.241-2.596
								c0.296-0.903,0.665-1.774,0.904-2.68c1.028-3.609,0.946-7.321-0.052-10.602c-0.993-3.289-2.823-6.133-4.967-8.367
								c-2.133-2.258-4.538-3.969-6.88-5.237c-4.704-2.571-9.101-3.373-12.085-3.631c-1.505-0.11-2.683-0.101-3.479-0.065
								C195.418,342.975,195,343,195,343s0.416-0.055,1.209-0.159c0.795-0.091,1.975-0.179,3.501-0.162
								c3.026,0.076,7.548,0.625,12.528,3.053c2.479,1.199,5.059,2.87,7.398,5.169c2.347,2.274,4.422,5.255,5.601,8.817
								c1.188,3.545,1.356,7.669,0.295,11.594c-0.245,0.985-0.629,1.941-0.946,2.925c-0.384,0.957-0.878,1.878-1.322,2.828
								c-0.556,0.881-1.08,1.799-1.683,2.663c-0.646,0.827-1.235,1.719-1.943,2.504c-2.744,3.238-5.818,5.945-8.731,8.537
								c-2.918,2.587-5.712,5.066-8.027,7.709c-2.337,2.622-4.082,5.475-5.125,8.369c-0.487,1.447-0.721,2.913-0.544,4.251
								c0.164,1.338,0.854,2.492,1.851,3.239c0.978,0.78,2.189,1.175,3.335,1.42c1.158,0.237,2.294,0.297,3.352,0.276
								c2.122-0.048,3.944-0.411,5.395-0.808c1.455-0.397,2.545-0.847,3.267-1.183C215.135,413.71,215.5,413.5,215.5,413.5z"/>
						</g>
					</g>
				</g>
				<g>
					<g>
						<g>
							<path d="M205.666,354.333c0,0-0.84-0.215-2.078-0.608c-1.275-0.335-2.941-0.738-4.818-1.043
								c-1.878-0.305-3.671-0.555-4.976-0.84c-1.311-0.258-2.128-0.509-2.128-0.509s0.814-0.25,2.139-0.492
								c1.326-0.213,3.19-0.471,5.291-0.134c2.109,0.341,3.848,1.315,4.942,2.124C205.111,353.703,205.667,354.333,205.666,354.333z
								"/>
						</g>
					</g>
				</g>
				<g>
					<g>
						<g>
							<path d="M202.333,364.333c0,0-0.678-0.331-1.667-0.965c-0.991-0.631-2.275-1.553-3.58-2.591
								c-1.317-1.013-2.488-1.904-3.45-2.507c-0.471-0.314-0.897-0.488-1.182-0.669c-0.292-0.171-0.455-0.268-0.455-0.268
								s0.186-0.014,0.518-0.038c0.331-0.001,0.843-0.066,1.446,0.029c1.214,0.152,2.885,0.738,4.352,1.874
								c1.444,1.15,2.416,2.476,3.058,3.463C202.012,363.651,202.333,364.333,202.333,364.333z"/>
						</g>
					</g>
				</g>
			</g>
			<g>
				<g>
					<path d="M588.489,387.428c-0.238,0.673-0.531,1.682-1.072,2.923c-0.982,2.518-2.7,6.021-5.121,10.198
						c-1.217,2.096-2.55,4.392-3.981,6.855c-1.354,2.404-3.206,4.79-4.972,7.556c-1.74,2.743-3.484,6.007-3.832,9.881
						c-0.334,3.769,0.502,7.574,1.568,11.151c1.057,3.592,2.241,6.952,2.678,10.172c0.359,3.342,0.379,6.628-0.111,9.632
						c-0.519,2.989-1.545,5.73-3.191,7.818c-0.19,0.275-0.402,0.522-0.623,0.755c-0.225,0.231-0.409,0.494-0.66,0.699
						c-0.485,0.423-0.958,0.848-1.477,1.211c-1.006,0.761-2.064,1.371-3.121,1.867c-2.112,1.006-4.209,1.563-6.072,1.954
						c-1.865,0.392-3.506,0.633-4.846,0.838c-0.654,0.096-1.235,0.183-1.742,0.261c-0.012,0.095-0.01,0.19-0.026,0.284
						c0.525-0.022,1.13-0.049,1.813-0.078c1.357-0.065,3.02-0.144,4.955-0.367c1.932-0.226,4.154-0.609,6.507-1.511
						c1.175-0.443,2.377-1.022,3.539-1.779c0.593-0.356,1.159-0.795,1.738-1.241c0.296-0.214,0.544-0.505,0.821-0.76
						c0.278-0.26,0.543-0.534,0.779-0.831c2.043-2.286,3.38-5.366,4.094-8.645c0.687-3.305,0.781-6.81,0.48-10.405
						c-0.418-3.713-1.636-7.224-2.654-10.717c-1.04-3.486-1.795-6.862-1.584-10.092c0.197-3.142,1.575-6.087,3.133-8.783
						c1.562-2.71,3.326-5.252,4.617-7.905c1.264-2.555,2.458-4.916,3.499-7.125c2.11-4.391,3.514-8.11,4.235-10.74
						c0.411-1.299,0.593-2.346,0.753-3.042c0.149-0.698,0.229-1.065,0.229-1.065S588.721,386.751,588.489,387.428z"/>
				</g>
				<g>
					<path d="M593.375,352.194c-0.096-2.108-0.404-4.257-0.612-6.461c-0.064-0.55-0.104-1.106-0.19-1.659
						c-0.106-0.55-0.214-1.102-0.321-1.658c-0.217-1.111-0.437-2.233-0.658-3.365c-0.921-4.517-2.499-9.233-5.233-13.478
						c-2.708-4.242-6.529-7.764-10.968-9.74c-4.467-1.933-9.309-2.218-13.583-1.432c-2.16,0.347-4.17,1.04-6.07,1.776
						c-0.928,0.421-1.842,0.836-2.742,1.245c-0.86,0.477-1.69,0.977-2.511,1.453c-0.838,0.449-1.59,1.007-2.328,1.553
						c-0.734,0.55-1.485,1.047-2.16,1.613c-1.284,1.213-2.611,2.272-3.614,3.542c-0.523,0.612-1.062,1.184-1.53,1.787
						c-0.442,0.62-0.873,1.224-1.293,1.812c-0.208,0.293-0.414,0.582-0.616,0.867c-0.181,0.298-0.357,0.592-0.532,0.882
						c-0.347,0.58-0.682,1.142-1.005,1.684c-0.983,1.758-1.784,3.34-2.447,4.726c0.054,0.299,0.099,0.6,0.129,0.904
						c1.757-3.014,4.179-7.396,8.386-11.63c1.025-1.156,2.357-2.09,3.628-3.174c0.668-0.503,1.412-0.938,2.132-1.424
						c0.726-0.482,1.459-0.976,2.279-1.364c0.8-0.416,1.613-0.838,2.44-1.268c0.858-0.347,1.731-0.699,2.617-1.056
						c1.797-0.61,3.674-1.181,5.643-1.426c3.91-0.579,8.141-0.195,12.002,1.552c3.833,1.8,7.162,4.903,9.62,8.745
						c2.479,3.853,3.994,8.164,4.956,12.489c0.235,1.088,0.47,2.166,0.701,3.234c0.116,0.534,0.233,1.066,0.349,1.595
						c0.096,0.533,0.147,1.071,0.224,1.602c0.255,2.131,0.621,4.207,0.782,6.254c0.125,2.053,0.246,4.056,0.364,6.002
						c0.041,1.949-0.02,3.845-0.018,5.68c0.041,1.838-0.134,3.602-0.26,5.302c-0.062,0.851-0.124,1.685-0.184,2.501
						c-0.061,0.816-0.101,1.618-0.236,2.388c-0.776,6.207-1.868,11.181-2.805,14.565c-1.008,3.375-1.566,5.241-1.566,5.241
						s0.717-1.816,2.013-5.1c1.21-3.317,2.681-8.242,3.843-14.488c0.184-0.775,0.272-1.583,0.38-2.406
						c0.107-0.824,0.216-1.667,0.328-2.527c0.221-1.721,0.488-3.511,0.536-5.382c0.088-1.868,0.234-3.801,0.273-5.796
						C593.472,356.357,593.424,354.302,593.375,352.194z"/>
				</g>
				<g>
					<g>
						<g>
							<path d="M568.286,331.297c0,0-0.42,0.197-1.22,0.571c-0.795,0.379-1.941,0.999-3.339,1.91
								c-2.775,1.838-6.442,5.096-9.697,10.076c-1.614,2.485-3.218,5.342-4.566,8.543c-1.345,3.236-2.673,6.743-3.815,10.504
								c-1.142,3.758-2.133,7.768-2.679,11.978c-0.541,4.197-0.676,8.627,0.211,12.964c0.576,2.707,1.524,5.284,2.905,7.503
								c1.391,2.22,3.139,4.067,5.083,5.537c1.865,1.556,3.994,2.505,5.86,3.962c0.919,0.718,1.742,1.575,2.307,2.548
								c0.572,0.969,0.866,2.008,1.001,2.97c-0.005-0.03-0.009-0.049-0.013-0.066c0.336,1.516,0.272,3.119-0.212,4.529
								c-0.5,1.404-1.311,2.608-2.235,3.585c-0.922,0.986-1.928,1.8-2.932,2.521c-0.234,0.164-0.466,0.326-0.696,0.487
								c-0.227,0.194-0.451,0.387-0.674,0.577c-0.437,0.382-0.866,0.757-1.289,1.126c-0.801,0.749-1.575,1.501-1.795,2.361
								c-0.256,0.854,0.028,1.826,0.321,2.705c0.323,0.871,0.666,1.771,1.078,2.487c0.214,0.392,0.423,0.773,0.626,1.145
								c0.176,0.388,0.348,0.767,0.515,1.134c0.615,1.487,0.97,2.928,0.899,4.176c-0.004,1.241-0.222,2.268-0.41,3.08
								c-0.162,0.822-0.388,1.421-0.491,1.835c-0.119,0.41-0.18,0.62-0.18,0.62s0.047-0.214,0.14-0.631
								c0.077-0.419,0.265-1.029,0.377-1.854c0.282-1.603,0.621-4.189-0.833-7.002c-0.178-0.349-0.361-0.706-0.55-1.073
								c-0.216-0.354-0.438-0.719-0.665-1.092c-0.501-0.797-0.853-1.625-1.245-2.551c-0.183-0.462-0.361-0.946-0.463-1.484
								c-0.118-0.525-0.151-1.128-0.007-1.72c0.131-0.596,0.44-1.144,0.798-1.601c0.353-0.476,0.758-0.882,1.167-1.295
								c0.416-0.392,0.84-0.791,1.271-1.196c0.216-0.198,0.433-0.398,0.652-0.601c0.184-0.164,0.279-0.214,0.401-0.311l0.355-0.267
								c0.938-0.724,1.857-1.523,2.664-2.445c0.813-0.915,1.47-1.985,1.851-3.157c0.361-1.18,0.379-2.465,0.069-3.736l-0.002-0.006
								l-0.012-0.062c-0.146-0.793-0.407-1.601-0.878-2.342c-0.465-0.744-1.136-1.417-1.958-2.027
								c-1.62-1.222-3.907-2.213-5.952-3.847c-2.09-1.523-4.077-3.557-5.611-5.976c-1.538-2.426-2.583-5.236-3.199-8.142
								c-0.948-4.656-0.761-9.294-0.148-13.628c0.621-4.348,1.715-8.431,2.968-12.23c1.254-3.802,2.702-7.314,4.173-10.543
								c1.5-3.253,3.239-6.088,4.994-8.561c3.537-4.95,7.454-8.078,10.354-9.773c1.464-0.841,2.65-1.393,3.471-1.723
								C567.854,331.466,568.286,331.297,568.286,331.297z"/>
						</g>
					</g>
				</g>
				<g>
					<g>
						<g>
							<path d="M569.532,374.092c0,0-0.643-1.983-1.611-4.962c-0.479-1.486-1.036-3.217-1.706-5.067
								c-0.651-1.841-1.315-3.819-2.492-5.467c-0.601-0.828-1.228-1.643-1.887-2.442c-0.636-0.81-1.263-1.607-1.869-2.379
								c-1.204-1.469-2.555-2.648-3.773-3.571c-1.228-0.917-2.337-1.566-3.134-1.994c-0.79-0.444-1.289-0.632-1.315-0.661
								c-0.246-0.127-0.255-0.636-0.019-1.135c0.236-0.5,0.646-0.793,0.918-0.653c0.026,0.029,0.554,0.266,1.375,0.792
								c0.829,0.51,1.975,1.274,3.226,2.331c1.243,1.062,2.608,2.405,3.807,4.058c0.562,0.811,1.142,1.648,1.731,2.497
								c0.606,0.831,1.205,1.713,1.78,2.617c1.16,1.859,1.714,3.945,2.255,5.819c0.554,1.872,1.013,3.65,1.403,5.171
								C569.009,372.074,569.532,374.092,569.532,374.092z"/>
						</g>
					</g>
				</g>
				<g>
					<g>
						<g>
							<path d="M556.49,389.81c0,0-0.57-1.439-1.429-3.599c-0.798-2.18-2.119-4.986-3.412-7.802
								c-1.095-2.898-3.437-4.807-5.336-6.044c-0.962-0.605-1.802-1.062-2.403-1.378c-0.611-0.303-0.971-0.482-0.994-0.494
								c-0.185-0.1-0.127-0.58,0.128-1.069c0.255-0.49,0.62-0.802,0.815-0.696c0.023,0.014,0.385,0.229,0.997,0.594
								c0.607,0.382,1.456,0.935,2.431,1.663c0.946,0.767,2.062,1.66,3.022,2.872c0.256,0.284,0.494,0.594,0.701,0.937
								c0.208,0.339,0.463,0.65,0.633,1.021c0.172,0.366,0.345,0.736,0.518,1.106c0.152,0.367,0.271,0.732,0.41,1.099
								c1.069,2.931,2.161,5.838,2.784,8.086C556.037,388.33,556.49,389.81,556.49,389.81z"/>
						</g>
					</g>
				</g>
			</g>
			<path opacity="0.3" enable-background="new    " d="M199.666,342.333c8.375,1.512,17.729,10.65,12.425,19.741
				c-4.423,7.583-10.574,13.957-14.516,21.851c-4.28,8.57-2.561,17.232-0.91,25.976c-1.065-7.876,9.783-16.16,14.917-20.982
				c5.966-5.604,13.335-13.772,13.751-21.918c0.339-6.64-1.658-11.345-6.251-16.082c-1.726-1.78-3.695-3.723-5.815-4.843
				c-2.916-1.54-6.639-1-9.267-2.741"/>
			<path opacity="0.3" fill-rule="evenodd" clip-rule="evenodd" enable-background="new    " d="M551,347
				c0.997-5.162,14.098-17.425,18.583-14.242c6.7,4.753,4.941,22.699,3.436,29.594c-1.839,8.421-6.478,15.315-12.101,21.899
				c-2.768,3.24-4.717,6.371-5.592,10.408c-1.181,5.446,1.449,8.397,2.6,12.981c0.407-2.754-6.637-6.669-8.674-8.566
				c-3.308-3.08-5.849-6.239-7.502-10.489c-3.678-9.453,1.06-19.561,3.843-28.326c1.472-4.636,2.906-9.168,5.5-13.5
				c2.423-4.048,6.01-6.997,8.907-10.759"/>
		</g>
	</g>
</g>
</svg>
