<?xml version="1.0" encoding="utf-8"?>
<!-- Generator: Adobe Illustrator 25.0.1, SVG Export Plug-In . SVG Version: 6.00 Build 0)  -->
<svg version="1.1" id="Capa_1" xmlns="http://www.w3.org/2000/svg" xmlns:xlink="http://www.w3.org/1999/xlink" x="0px" y="0px"
	 viewBox="0 0 800 800" enable-background="new 0 0 800 800" xml:space="preserve">
<g id="cara_base">
	<g id="tono_1_copia">
		<g id="Capa_93_copia">
			<path fill="#D88F6F" d="M535,349c-1.216-15.755,14.479-24.391,28-23.5c12.993,0.856,23.919,12.042,27.985,23.514
				c4.61,13.004,4.227,32.544-6.485,43.486c-10.612,10.84-22.13,12.442-36.502,7.391c-10.209-3.589-5.178-15.578-8.609-24.281
				c-1.903-4.827-3.904-7.561-3.889-13.109c0.014-5.167,0-10.333,0-15.5"/>
			<path fill="#F15A24" d="M561.667,359.75c2.762-0.096,5.609,0.167,8.416,0.167c2.855,0,5.192-0.138,7.648,1.354
				c0.86,0.522,1.764,1.118,2.454,1.874c0.783,0.858,0.72,2.499,0.483,3.608c-0.497,2.338-2.188,4.309-4.586,4.582
				c-2.331,0.265-4.701-0.17-7.083-0.167c-2.314,0.002-4.619-0.286-6.906-0.348c0.201-0.887,0.428-1.492,0.328-2.49
				c-0.089-0.888-0.003-1.755-0.005-2.662c-0.005-1.881,0.011-3.719-0.25-5.5"/>
			<path fill="#E6E6E6" d="M563.001,359.333c-1.411,0-3.489-0.396-4.833,0c-1.314,0.387-1.709,1.743-2.009,3.158
				c-0.302,1.424-0.127,2.951-0.491,4.333c-0.363,1.378-1.4,2.619-1.143,4.15c2.34-0.605,5.013-0.368,7.617-0.5
				c0.068-3.655,0.691-7.22,0.691-10.975"/>
			<path opacity="0.3" enable-background="new    " d="M556.083,360c-0.194-4.365-3.756-8.078-7.916-8.083
				c-1.34-5.656,6.39-6.203,10.733-5.917c5.414,0.356,7.9,3.8,10.111,8.377c4.312,8.927,1.905,28.29-3.012,30.873
				c2.337-7.992-4.627-7.873-9.25-11.083c-5.516-3.828-1.308-8.422-0.667-13.583"/>
			<path fill="#D88F6F" d="M237,346.5c1.179-15.148-17.825-24.625-30.474-21.973c-11.845,2.483-22.052,14.142-26.026,24.89
				c-5.241,14.174-3.015,29.428,4.75,41.417c4.443,6.861,9.577,9.94,17.251,11.166c7.828,1.25,14.185,0.444,21.988-2.625
				c6.547-2.574,6.408-3.322,8.526-9.86c1.363-4.206,2.315-9.111,3.013-13.489c1.643-10.293,2.978-20.791,2.973-31.525"/>
			<path d="M559.644,498.634c-0.491-5.268-1.433-10.087-2.464-14.421c-2.101-8.665-4.445-15.451-6.005-20.153
				c-0.042-0.121-0.081-0.235-0.121-0.354c-0.129-0.775-0.263-1.575-0.399-2.396c-0.126-0.83-0.137-1.74-0.216-2.638
				c-0.067-0.899-0.099-1.897-0.152-2.874c-0.037-0.979-0.201-2.069-0.306-3.135c-0.693-4.383-2.815-8.394-3.723-12.628
				c-0.912-4.336-1.055-9.121-1.313-14.221c-0.059-1.277-0.161-2.557-0.264-3.845c-0.079-1.277-0.1-2.53-0.156-3.809
				c-0.084-2.558-0.116-5.189-0.143-7.849c-0.076-6.941-0.142-13.815-0.978-20.468c-0.148-1.669-0.505-3.29-0.778-4.907
				c-0.136-0.804-0.291-1.611-0.485-2.432c-0.171-0.818-0.364-1.623-0.616-2.402c-0.924-3.15-2.104-6.014-2.986-8.798
				c-0.453-1.391-0.791-2.757-1.059-4.112c-0.09-0.682-0.18-1.358-0.268-2.031c-0.047-0.704-0.092-1.403-0.138-2.097
				c-0.164-2.778-0.085-5.523-0.096-8.229c-0.053-5.404-0.19-10.389-0.599-14.983c-0.111-1.145-0.17-2.263-0.318-3.349
				c-0.156-1.084-0.309-2.14-0.457-3.167c-0.074-0.513-0.148-1.018-0.221-1.515c-0.085-0.498-0.21-0.987-0.312-1.468
				c-0.107-0.48-0.214-0.953-0.318-1.418c-0.13-0.456-0.257-0.903-0.383-1.344c-0.079-0.269-0.157-0.512-0.236-0.774
				c-0.174-1.766-0.488-3.563-0.733-5.418c-0.293-1.938-0.512-3.941-0.964-5.956c-1.361-8.146-3.945-16.89-7.569-25.924
				c-3.61-9.045-8.727-18.244-15.24-27.067c-6.514-8.836-14.378-17.3-23.435-25.123c-9.15-7.712-19.774-14.438-31.604-19.188
				c-5.906-2.38-11.953-4.22-18.027-5.493c-6.084-1.313-12.167-1.869-18.103-2.312c-11.917-0.694-23.371-0.217-34.202,0.358
				c-5.426,0.276-10.673,0.616-15.808,0.799c-5.141,0.213-10.163,0.521-15.003,1.062c-9.678,1.167-18.572,3.412-26.247,6.507
				c-1.903,0.811-3.785,1.544-5.57,2.365c-1.768,0.855-3.489,1.688-5.163,2.499c-2.029,1.118-3.989,2.169-5.852,3.233
				c-4.889,2.408-10.258,5.368-15.918,9.046c-6.081,3.935-12.496,8.673-18.831,14.425c-6.356,5.723-12.505,12.591-18.043,20.505
				c-0.72,0.97-1.361,2.004-2.021,3.032c-0.652,1.034-1.341,2.055-1.974,3.119c-1.211,2.158-2.536,4.289-3.631,6.573
				c-2.391,4.471-4.299,9.29-6.112,14.234c-3.529,9.938-5.587,20.678-6.975,31.655c-1.374,10.993-1.993,21.743-2.724,32.06
				c-0.726,10.317-1.589,20.227-3.119,29.541c-0.402,2.324-0.743,4.633-1.265,6.867c-0.492,2.24-0.896,4.482-1.538,6.597
				c-0.296,1.068-0.59,2.129-0.881,3.181c-0.347,1.043-0.691,2.078-1.032,3.105c-0.65,2.059-1.441,4.062-2.15,6.045
				c-2.775,7.376-5.438,14.414-6.835,21.196c-0.288,1.02-0.512,2.057-0.785,3.071c-0.65,2.583-0.794,5.264-0.665,7.789
				c0.044,0.968,0.129,1.912,0.226,2.844c0.072,2.576,0.287,5.027,0.582,7.309c0.16,1.293,0.333,2.536,0.509,3.74
				c-0.028,3.882-0.206,7.204,0.19,9.634v0.001c-0.082,0.733-0.129,1.479-0.042,2.272c0.088,0.814,0.694,2.673,1.462,3.553
				c-0.013,0.083-0.03,0.163-0.042,0.246c-1.242,8.405-1.227,17.479,0.628,26.607c1.812,9.137,5.762,18.182,11.256,26.304
				c2.741,4.068,5.757,7.877,8.905,11.412c1.59,1.747,3.126,3.525,4.732,5.204c1.613,1.669,3.213,3.324,4.799,4.966
				c6.437,6.46,12.882,12.392,18.936,18.1c0.93,0.867,1.826,1.724,2.732,2.583c0.921,0.979,1.882,1.989,2.888,3.037
				c3.805,3.918,8.242,8.28,13.176,13.046c0.824,0.802,1.68,1.635,2.53,2.462c3.477,3.585,6.78,6.99,9.865,10.171
				c4.415,4.526,8.417,8.609,11.936,12.188c2.864,3.218,5.767,6.58,8.751,10.04c5.944,6.852,12.198,14.122,19.5,20.976
				c7.281,6.816,15.776,13.241,25.803,17.329c4.999,2.028,10.198,3.402,15.394,4.13c5.194,0.734,10.395,0.827,15.401,0.49
				c10.062-0.515,19.699-3.025,28.1-6.883c8.444-3.833,15.69-8.896,21.919-14.139c3.129-2.614,6.01-5.29,8.685-7.946
				c2.688-2.646,5.169-5.272,7.483-7.822c4.635-5.097,8.624-9.867,12.098-14.073c3.454-4.219,6.43-7.853,8.861-10.822
				c0.199-0.243,0.39-0.476,0.582-0.71c0.897-1.004,1.824-2.04,2.807-3.139c1.351-1.461,2.778-3.005,4.277-4.627
				c6.056-6.435,13.383-13.947,22.008-21.807c8.561-7.913,18.341-16.421,27.379-26.686c1.121-1.286,2.264-2.544,3.344-3.837
				c1.04-1.325,2.073-2.643,3.099-3.949c2.048-2.587,4.089-5.233,5.778-8.085c3.395-5.671,5.488-11.804,6.503-17.739
				C560.152,509.629,560.138,503.893,559.644,498.634z M555.932,514.984c-1.133,5.559-3.217,11.189-6.459,16.41
				c-1.604,2.608-3.559,5.082-5.615,7.634c-1.013,1.274-2.032,2.558-3.059,3.85c-1.064,1.262-2.184,2.487-3.28,3.746
				c-8.829,10.032-18.353,18.649-26.726,26.88c-8.435,8.18-15.491,16.113-21.205,22.896c-1.41,1.714-2.754,3.345-4.024,4.889
				c-1.236,1.568-2.401,3.047-3.491,4.43c-2.163,2.775-4.026,5.166-5.549,7.12c-0.119,0.154-0.222,0.288-0.336,0.437
				c-0.837,0.934-1.704,1.902-2.603,2.906c-3.642,4.053-7.804,8.65-12.579,13.544c-2.386,2.448-4.93,4.965-7.664,7.489
				c-2.722,2.537-5.635,5.082-8.77,7.555c-6.243,4.963-13.395,9.688-21.57,13.2c-8.156,3.539-17.299,5.773-26.981,6.168
				c-4.847,0.272-9.743,0.139-14.645-0.58c-4.897-0.714-9.768-2.017-14.476-3.926c-9.43-3.844-17.58-9.896-24.744-16.46
				c-7.179-6.592-13.492-13.688-19.567-20.417c-6.058-6.746-11.89-13.169-17.736-18.806c-2.927-2.805-5.753-5.489-8.5-8.048
				c-0.843-0.767-1.654-1.505-2.476-2.253c-2.205-2.436-4.487-4.958-6.852-7.571c-2.464-2.763-5.131-5.541-7.869-8.412
				c-2.779-2.819-5.645-5.722-8.631-8.631c-5.943-5.854-12.268-11.881-18.556-18.342c-1.547-1.635-3.108-3.284-4.682-4.946
				c-1.567-1.668-3.056-3.421-4.608-5.145c-3.057-3.476-5.938-7.143-8.57-11.048c-5.27-7.806-9.02-16.265-10.845-24.906
				c-1.861-8.636-2.034-17.305-1.019-25.394c2.035-16.267,9.229-29.813,16.761-39.629c3.835-4.885,8.102-8.628,11.962-11.772
				c3.87-3.137,7.405-5.604,10.284-7.63c5.79-4.019,8.992-6.24,8.992-6.24s-3.321,2.042-9.327,5.734
				c-2.984,1.878-6.647,4.174-10.698,7.162c-4.027,2.987-8.56,6.627-12.714,11.517c-4.097,4.897-8.018,10.738-11.34,17.487
				c-2.576,5.181-4.643,10.983-6.053,17.201c-0.139-0.154-0.3-0.301-0.468-0.465c-0.283-2.409-0.635-5.092-0.968-8.059
				c-0.001-0.566-0.004-1.144-0.01-1.741c-0.024-1.018-0.057-2.086-0.201-3.197c-0.153-1.078-0.312-2.193-0.475-3.338
				c-0.021-0.147-0.044-0.298-0.066-0.446c-0.222-4.815,0.001-10.117,1.256-15.692c1.492-6.946,4.496-14.181,7.698-22.041
				c0.772-1.985,1.615-3.97,2.337-6.067c0.375-1.041,0.752-2.091,1.132-3.147c0.344-1.074,0.658-2.172,0.991-3.27
				c0.717-2.193,1.176-4.452,1.728-6.732c0.582-2.275,0.976-4.613,1.431-6.974c1.739-9.453,2.762-19.475,3.596-29.82
				c0.839-10.347,1.519-21.034,2.872-31.858c1.366-10.809,3.319-21.281,6.637-30.932c1.707-4.797,3.491-9.49,5.744-13.853
				c1.027-2.23,2.281-4.314,3.418-6.429c0.596-1.042,1.248-2.044,1.862-3.059c0.624-1.01,1.226-2.026,1.909-2.982
				c5.233-7.791,11.069-14.634,17.148-20.409c6.055-5.803,12.225-10.663,18.099-14.751c1.131-0.79,2.248-1.543,3.355-2.275
				c0.365-0.229,0.727-0.454,1.099-0.693c1.176-0.744,2.402-1.52,3.678-2.328c1.294-0.776,2.667-1.533,4.072-2.344
				c2.783-1.672,5.915-3.168,9.185-4.835c1.676-0.747,3.399-1.515,5.168-2.303c1.783-0.754,3.655-1.418,5.546-2.159
				c7.629-2.816,16.35-4.764,25.841-5.685c4.757-0.418,9.698-0.613,14.826-0.722c5.135-0.08,10.447-0.323,15.853-0.507
				c10.821-0.395,22.161-0.708,33.809,0.076c5.818,0.488,11.723,1.07,17.557,2.36c5.846,1.253,11.669,3.04,17.368,5.337
				c11.415,4.581,21.729,11.034,30.675,18.438c8.868,7.521,16.703,15.724,23.198,24.238c6.508,8.518,11.672,17.362,15.417,26.136
				c3.752,8.758,6.521,17.246,8.102,25.24c0.108,0.91,0.433,1.932,0.649,3.069c0.18,0.87-0.178,1.824,0.822,2.815
				c0,0.001,0,0.002,0,0.003c0,1.915,0.541,3.767,0.766,5.594c0.447,3.652,0.915,7.084,1.169,10.326
				c0.246,2.562,0.448,4.979,0.623,7.258c0,3.149-0.097,6.465-0.211,9.928c-0.102,2.649-0.304,5.448-0.24,8.375
				c0.021,0.731,0.039,1.469,0.061,2.211c0.075,0.766,0.146,1.538,0.223,2.314c0.246,1.534,0.578,3.07,1.015,4.559
				c0.852,2.986,1.949,5.877,2.729,8.803c0.219,0.728,0.376,1.468,0.513,2.215c0.159,0.734,0.29,1.501,0.407,2.288
				c0.231,1.561,0.55,3.125,0.664,4.729c0.698,6.38,0.71,13.115,0.784,20.074c0.027,2.666,0.067,5.312,0.172,7.961
				c0.065,1.324,0.102,2.66,0.195,3.947c0.114,1.272,0.229,2.535,0.303,3.783c0.323,4.987,0.547,10.023,1.667,14.772
				c0.604,2.403,1.458,4.609,2.241,6.611c0.409,1.026,0.727,1.995,1.088,2.969c0.155,0.479,0.277,0.946,0.419,1.414
				c0.13,0.467,0.302,0.921,0.34,1.402c0.646,3.715,0.577,7.708,1.613,11.191c-0.011-0.047-0.021-0.094-0.025-0.11
				c0.459,1.792,0.905,3.539,1.34,5.238c0.475,1.679,1.056,3.257,1.557,4.815c0.508,1.562,1.042,3.024,1.541,4.466
				c0.252,0.718,0.5,1.424,0.744,2.118c0.216,0.696,0.428,1.381,0.637,2.054c0.717,2.074,1.246,4.061,1.654,5.95
				c0.464,3.12,0.841,6.414,1.011,9.885C557.253,503.934,557.048,509.413,555.932,514.984z"/>
			<path fill="#D88F6F" d="M553.543,474.47c-1.079-2.279-1.914-4.724-2.515-7.246c-2.575-10.814-4.621-21.942-6.641-32.874
				c-1.259-6.812-2.523-13.85-2.491-20.798c0.029-6.52,0.791-13.088,0.381-19.604c-0.396-6.279-1.516-12.443-2.622-18.614
				c-1.51-3.799-2.474-7.667-2.848-11.632c-0.447,0.539-0.901,1.073-1.332,1.623c0.253-16.188,0.3-31.656-3.587-46.213
				c-3.44-12.882-6.904-25.372-12.512-37.988c-2.521-5.672-5.197-11.362-9.514-16.012c-4.216-4.54-9.035-7.85-12.725-12.75
				c-1.663-2.209-3.073-5.303-5.515-6.985c-0.11-0.076-0.22-0.135-0.33-0.204c-0.355-0.443-0.7-0.861-0.981-1.235
				c-4.073-5.421-9.255-8.632-14.882-11.868c-5.68-3.266-10.877-6.989-16.931-9.569c-6.079-2.591-12.3-5.109-18.507-7.243
				c-7.23-2.485-14.667-2.757-22.743-2.757c-16.343,0-33.216-0.322-49.194,1.056c-7.496,0.646-15.565,1.095-23.05,2.2
				c-6.83,1.009-13.437,3.167-19.944,5.556c-5.837,2.142-12.563,4.507-17.762,8.001c-5.266,3.538-11.219,6.499-16.368,10.12
				c-4.979,3.501-9.609,7.443-14.244,11.756c-1.857,1.729-3.234,3.741-4.414,5.885c-0.688,0.79-1.392,1.639-2.137,2.564
				c-3.901,4.842-8.579,9.525-12.274,14.751c-15.749,22.277-18.598,51.537-19.936,78.534c-0.436-0.047-0.879-0.117-1.326-0.199
				c0.018,7.257-0.43,14.52-0.559,21.853c-0.231,13.154-2.445,25.615-7.57,37.8c-4.845,11.518-11.651,24.646-11.932,37.363
				c-0.145,6.565,1.529,11.873,1.627,18.428c0.017,1.137-0.139,1.454-0.166,2.583c0.307-0.25-0.067,1.509,0.25,1.25
				c2.404,3.459,1.696,7.185,1.139,10.889c-0.577,3.839-0.22,7.608,0.502,11.221c1.344,6.728,3.4,13.191,5.219,19.781
				c3.509,12.713,8.453,23.085,19.502,31.998c18.463,14.895,34.834,33.255,51.139,51.111c9.375,10.268,19.343,20.573,28.613,30.637
				c7.93,8.609,14.086,15.33,23.137,22.613c7.327,5.894,18.082,12.687,27.25,14.75c9.708,2.185,27.354,2.394,35.25-2.5l0.5,2
				c5.723-3.768,12.452-5.059,18.514-7.875c5.552-2.581,10.014-6.851,14.861-10.749c9.835-7.911,18.901-15.271,26.875-25.126
				c7.67-9.479,16.387-18.644,24.25-27.75c8.198-9.492,18.07-18.076,27.376-26.624c8.979-8.247,16.656-17.845,24.261-27.239
				C556.05,527.509,559,514.905,559,500C559,490.425,556.255,482.709,553.543,474.47z"/>
			<path d="M559.644,498.634c-0.491-5.268-1.433-10.087-2.464-14.421c-2.101-8.665-4.445-15.451-6.005-20.153
				c-0.042-0.121-0.081-0.235-0.121-0.354c-0.129-0.775-0.263-1.575-0.399-2.396c-0.126-0.83-0.137-1.74-0.216-2.638
				c-0.067-0.899-0.099-1.897-0.152-2.874c-0.037-0.979-0.201-2.069-0.306-3.135c-0.693-4.383-2.815-8.394-3.723-12.628
				c-0.912-4.336-1.055-9.121-1.313-14.221c-0.059-1.277-0.161-2.557-0.264-3.845c-0.079-1.277-0.1-2.53-0.156-3.809
				c-0.084-2.558-0.116-5.189-0.143-7.849c-0.076-6.941-0.142-13.815-0.978-20.468c-0.148-1.669-0.505-3.29-0.778-4.907
				c-0.136-0.804-0.291-1.611-0.485-2.432c-0.171-0.818-0.364-1.623-0.616-2.402c-0.924-3.15-2.104-6.014-2.986-8.798
				c-0.453-1.391-0.791-2.757-1.059-4.112c-0.09-0.682-0.18-1.358-0.268-2.031c-0.047-0.704-0.092-1.403-0.138-2.097
				c-0.164-2.778-0.085-5.523-0.096-8.229c-0.053-5.404-0.19-10.389-0.599-14.983c-0.111-1.145-0.17-2.263-0.318-3.349
				c-0.156-1.084-0.309-2.14-0.457-3.167c-0.074-0.513-0.148-1.018-0.221-1.515c-0.085-0.498-0.21-0.987-0.312-1.468
				c-0.107-0.48-0.214-0.953-0.318-1.418c-0.13-0.456-0.257-0.903-0.383-1.344c-0.079-0.269-0.157-0.512-0.236-0.774
				c-0.174-1.766-0.488-3.563-0.733-5.418c-0.293-1.938-0.512-3.941-0.964-5.956c-1.361-8.146-3.945-16.89-7.569-25.924
				c-3.61-9.045-8.727-18.244-15.24-27.067c-6.514-8.836-14.378-17.3-23.435-25.123c-9.15-7.712-19.774-14.438-31.604-19.188
				c-5.906-2.38-11.953-4.22-18.027-5.493c-6.084-1.313-12.167-1.869-18.103-2.312c-11.917-0.694-23.371-0.217-34.202,0.358
				c-5.426,0.276-10.673,0.616-15.808,0.799c-5.141,0.213-10.163,0.521-15.003,1.062c-9.678,1.167-18.572,3.412-26.247,6.507
				c-1.903,0.811-3.785,1.544-5.57,2.365c-1.768,0.855-3.489,1.688-5.163,2.499c-2.029,1.118-3.989,2.169-5.852,3.233
				c-4.889,2.408-10.258,5.368-15.918,9.046c-6.081,3.935-12.496,8.673-18.831,14.425c-6.356,5.723-12.505,12.591-18.043,20.505
				c-0.72,0.97-1.361,2.004-2.021,3.032c-0.652,1.034-1.341,2.055-1.974,3.119c-1.211,2.158-2.536,4.289-3.631,6.573
				c-2.391,4.471-4.299,9.29-6.112,14.234c-3.529,9.938-5.587,20.678-6.975,31.655c-1.374,10.993-1.993,21.743-2.724,32.06
				c-0.726,10.317-1.589,20.227-3.119,29.541c-0.402,2.324-0.743,4.633-1.265,6.867c-0.492,2.24-0.896,4.482-1.538,6.597
				c-0.296,1.068-0.59,2.129-0.881,3.181c-0.347,1.043-0.691,2.078-1.032,3.105c-0.65,2.059-1.441,4.062-2.15,6.045
				c-2.775,7.376-5.438,14.414-6.835,21.196c-0.288,1.02-0.512,2.057-0.785,3.071c-0.65,2.583-0.794,5.264-0.665,7.789
				c0.044,0.968,0.129,1.912,0.226,2.844c0.072,2.576,0.287,5.027,0.582,7.309c0.16,1.293,0.333,2.536,0.509,3.74
				c-0.028,3.882-0.206,7.204,0.19,9.634v0.001c-0.082,0.733-0.129,1.479-0.042,2.272c0.088,0.814,0.694,2.673,1.462,3.553
				c-0.013,0.083-0.03,0.163-0.042,0.246c-1.242,8.405-1.227,17.479,0.628,26.607c1.812,9.137,5.762,18.182,11.256,26.304
				c2.741,4.068,5.757,7.877,8.905,11.412c1.59,1.747,3.126,3.525,4.732,5.204c1.613,1.669,3.213,3.324,4.799,4.966
				c6.437,6.46,12.882,12.392,18.936,18.1c0.93,0.867,1.826,1.724,2.732,2.583c0.921,0.979,1.882,1.989,2.888,3.037
				c3.805,3.918,8.242,8.28,13.176,13.046c0.824,0.802,1.68,1.635,2.53,2.462c3.477,3.585,6.78,6.99,9.865,10.171
				c4.415,4.526,8.417,8.609,11.936,12.188c2.864,3.218,5.767,6.58,8.751,10.04c5.944,6.852,12.198,14.122,19.5,20.976
				c7.281,6.816,15.776,13.241,25.803,17.329c4.999,2.028,10.198,3.402,15.394,4.13c5.194,0.734,10.395,0.827,15.401,0.49
				c10.062-0.515,19.699-3.025,28.1-6.883c8.444-3.833,15.69-8.896,21.919-14.139c3.129-2.614,6.01-5.29,8.685-7.946
				c2.688-2.646,5.169-5.272,7.483-7.822c4.635-5.097,8.624-9.867,12.098-14.073c3.454-4.219,6.43-7.853,8.861-10.822
				c0.199-0.243,0.39-0.476,0.582-0.71c0.897-1.004,1.824-2.04,2.807-3.139c1.351-1.461,2.778-3.005,4.277-4.627
				c6.056-6.435,13.383-13.947,22.008-21.807c8.561-7.913,18.341-16.421,27.379-26.686c1.121-1.286,2.264-2.544,3.344-3.837
				c1.04-1.325,2.073-2.643,3.099-3.949c2.048-2.587,4.089-5.233,5.778-8.085c3.395-5.671,5.488-11.804,6.503-17.739
				C560.152,509.629,560.138,503.893,559.644,498.634z M555.932,514.984c-1.133,5.559-3.217,11.189-6.459,16.41
				c-1.604,2.608-3.559,5.082-5.615,7.634c-1.013,1.274-2.032,2.558-3.059,3.85c-1.064,1.262-2.184,2.487-3.28,3.746
				c-8.829,10.032-18.353,18.649-26.726,26.88c-8.435,8.18-15.491,16.113-21.205,22.896c-1.41,1.714-2.754,3.345-4.024,4.889
				c-1.236,1.568-2.401,3.047-3.491,4.43c-2.163,2.775-4.026,5.166-5.549,7.12c-0.119,0.154-0.222,0.288-0.336,0.437
				c-0.837,0.934-1.704,1.902-2.603,2.906c-3.642,4.053-7.804,8.65-12.579,13.544c-2.386,2.448-4.93,4.965-7.664,7.489
				c-2.722,2.537-5.635,5.082-8.77,7.555c-6.243,4.963-13.395,9.688-21.57,13.2c-8.156,3.539-17.299,5.773-26.981,6.168
				c-4.847,0.272-9.743,0.139-14.645-0.58c-4.897-0.714-9.768-2.017-14.476-3.926c-9.43-3.844-17.58-9.896-24.744-16.46
				c-7.179-6.592-13.492-13.688-19.567-20.417c-6.058-6.746-11.89-13.169-17.736-18.806c-2.927-2.805-5.753-5.489-8.5-8.048
				c-0.843-0.767-1.654-1.505-2.476-2.253c-2.205-2.436-4.487-4.958-6.852-7.571c-2.464-2.763-5.131-5.541-7.869-8.412
				c-2.779-2.819-5.645-5.722-8.631-8.631c-5.943-5.854-12.268-11.881-18.556-18.342c-1.547-1.635-3.108-3.284-4.682-4.946
				c-1.567-1.668-3.056-3.421-4.608-5.145c-3.057-3.476-5.938-7.143-8.57-11.048c-5.27-7.806-9.02-16.265-10.845-24.906
				c-1.861-8.636-2.034-17.305-1.019-25.394c2.035-16.267,9.229-29.813,16.761-39.629c3.835-4.885,8.102-8.628,11.962-11.772
				c3.87-3.137,7.405-5.604,10.284-7.63c5.79-4.019,8.992-6.24,8.992-6.24s-3.321,2.042-9.327,5.734
				c-2.984,1.878-6.647,4.174-10.698,7.162c-4.027,2.987-8.56,6.627-12.714,11.517c-4.097,4.897-8.018,10.738-11.34,17.487
				c-2.576,5.181-4.643,10.983-6.053,17.201c-0.139-0.154-0.3-0.301-0.468-0.465c-0.283-2.409-0.635-5.092-0.968-8.059
				c-0.001-0.566-0.004-1.144-0.01-1.741c-0.024-1.018-0.057-2.086-0.201-3.197c-0.153-1.078-0.312-2.193-0.475-3.338
				c-0.021-0.147-0.044-0.298-0.066-0.446c-0.222-4.815,0.001-10.117,1.256-15.692c1.492-6.946,4.496-14.181,7.698-22.041
				c0.772-1.985,1.615-3.97,2.337-6.067c0.375-1.041,0.752-2.091,1.132-3.147c0.344-1.074,0.658-2.172,0.991-3.27
				c0.717-2.193,1.176-4.452,1.728-6.732c0.582-2.275,0.976-4.613,1.431-6.974c1.739-9.453,2.762-19.475,3.596-29.82
				c0.839-10.347,1.519-21.034,2.872-31.858c1.366-10.809,3.319-21.281,6.637-30.932c1.707-4.797,3.491-9.49,5.744-13.853
				c1.027-2.23,2.281-4.314,3.418-6.429c0.596-1.042,1.248-2.044,1.862-3.059c0.624-1.01,1.226-2.026,1.909-2.982
				c5.233-7.791,11.069-14.634,17.148-20.409c6.055-5.803,12.225-10.663,18.099-14.751c1.131-0.79,2.248-1.543,3.355-2.275
				c0.365-0.229,0.727-0.454,1.099-0.693c1.176-0.744,2.402-1.52,3.678-2.328c1.294-0.776,2.667-1.533,4.072-2.344
				c2.783-1.672,5.915-3.168,9.185-4.835c1.676-0.747,3.399-1.515,5.168-2.303c1.783-0.754,3.655-1.418,5.546-2.159
				c7.629-2.816,16.35-4.764,25.841-5.685c4.757-0.418,9.698-0.613,14.826-0.722c5.135-0.08,10.447-0.323,15.853-0.507
				c10.821-0.395,22.161-0.708,33.809,0.076c5.818,0.488,11.723,1.07,17.557,2.36c5.846,1.253,11.669,3.04,17.368,5.337
				c11.415,4.581,21.729,11.034,30.675,18.438c8.868,7.521,16.703,15.724,23.198,24.238c6.508,8.518,11.672,17.362,15.417,26.136
				c3.752,8.758,6.521,17.246,8.102,25.24c0.108,0.91,0.433,1.932,0.649,3.069c0.18,0.87-0.178,1.824,0.822,2.815
				c0,0.001,0,0.002,0,0.003c0,1.915,0.541,3.767,0.766,5.594c0.447,3.652,0.915,7.084,1.169,10.326
				c0.246,2.562,0.448,4.979,0.623,7.258c0,3.149-0.097,6.465-0.211,9.928c-0.102,2.649-0.304,5.448-0.24,8.375
				c0.021,0.731,0.039,1.469,0.061,2.211c0.075,0.766,0.146,1.538,0.223,2.314c0.246,1.534,0.578,3.07,1.015,4.559
				c0.852,2.986,1.949,5.877,2.729,8.803c0.219,0.728,0.376,1.468,0.513,2.215c0.159,0.734,0.29,1.501,0.407,2.288
				c0.231,1.561,0.55,3.125,0.664,4.729c0.698,6.38,0.71,13.115,0.784,20.074c0.027,2.666,0.067,5.312,0.172,7.961
				c0.065,1.324,0.102,2.66,0.195,3.947c0.114,1.272,0.229,2.535,0.303,3.783c0.323,4.987,0.547,10.023,1.667,14.772
				c0.604,2.403,1.458,4.609,2.241,6.611c0.409,1.026,0.727,1.995,1.088,2.969c0.155,0.479,0.277,0.946,0.419,1.414
				c0.13,0.467,0.302,0.921,0.34,1.402c0.646,3.715,0.577,7.708,1.613,11.191c-0.011-0.047-0.021-0.094-0.025-0.11
				c0.459,1.792,0.905,3.539,1.34,5.238c0.475,1.679,1.056,3.257,1.557,4.815c0.508,1.562,1.042,3.024,1.541,4.466
				c0.252,0.718,0.5,1.424,0.744,2.118c0.216,0.696,0.428,1.381,0.637,2.054c0.717,2.074,1.246,4.061,1.654,5.95
				c0.464,3.12,0.841,6.414,1.011,9.885C557.253,503.934,557.048,509.413,555.932,514.984z"/>
			<path fill="#D88F6F" d="M553.543,474.47c-1.079-2.279-1.914-4.724-2.515-7.246c-2.575-10.814-4.621-21.942-6.641-32.874
				c-1.259-6.812-2.523-13.85-2.491-20.798c0.029-6.52,0.791-13.088,0.381-19.604c-0.396-6.279-1.516-12.443-2.622-18.614
				c-1.51-3.799-2.474-7.667-2.848-11.632c-0.447,0.539-0.901,1.073-1.332,1.623c0.253-16.188,0.3-31.656-3.587-46.213
				c-3.44-12.882-6.904-25.372-12.512-37.988c-2.521-5.672-5.197-11.362-9.514-16.012c-4.216-4.54-9.035-7.85-12.725-12.75
				c-1.663-2.209-3.073-5.303-5.515-6.985c-0.11-0.076-0.22-0.135-0.33-0.204c-0.355-0.443-0.7-0.861-0.981-1.235
				c-4.073-5.421-9.255-8.632-14.882-11.868c-5.68-3.266-10.877-6.989-16.931-9.569c-6.079-2.591-12.3-5.109-18.507-7.243
				c-7.23-2.485-14.667-2.757-22.743-2.757c-16.343,0-33.216-0.322-49.194,1.056c-7.496,0.646-15.565,1.095-23.05,2.2
				c-6.83,1.009-13.437,3.167-19.944,5.556c-5.837,2.142-12.563,4.507-17.762,8.001c-5.266,3.538-11.219,6.499-16.368,10.12
				c-4.979,3.501-9.609,7.443-14.244,11.756c-1.857,1.729-3.234,3.741-4.414,5.885c-0.688,0.79-1.392,1.639-2.137,2.564
				c-3.901,4.842-8.579,9.525-12.274,14.751c-15.749,22.277-18.598,51.537-19.936,78.534c-0.436-0.047-0.879-0.117-1.326-0.199
				c0.018,7.257-0.43,14.52-0.559,21.853c-0.231,13.154-2.445,25.615-7.57,37.8c-4.542,10.799-10.809,23.013-11.805,34.977
				c0.608,2.493,0.644,5.228,0.626,7.781c-0.042,5.932,1.062,11.732,1.433,17.63c1.822,3.241,1.181,6.692,0.664,10.125
				c-0.577,3.839-0.22,7.608,0.502,11.221c1.344,6.728,3.4,13.191,5.219,19.781c3.509,12.713,8.453,23.085,19.502,31.998
				c18.463,14.895,34.834,33.255,51.139,51.111c9.375,10.268,19.343,20.573,28.613,30.637c7.93,8.609,14.086,15.33,23.137,22.613
				c7.327,5.894,18.082,12.687,27.25,14.75c9.708,2.185,27.354,2.394,35.25-2.5l0.5,2c5.723-3.768,12.452-5.059,18.514-7.875
				c5.552-2.581,10.014-6.851,14.861-10.749c9.835-7.911,18.901-15.271,26.875-25.126c7.67-9.479,16.387-18.644,24.25-27.75
				c8.198-9.492,18.07-18.076,27.376-26.624c8.979-8.247,16.656-17.845,24.261-27.239C556.05,527.509,559,514.905,559,500
				C559,490.425,556.255,482.709,553.543,474.47z"/>
			<path d="M559.644,498.634c-0.491-5.268-1.433-10.087-2.464-14.421c-2.101-8.665-4.445-15.451-6.005-20.153
				c-0.042-0.121-0.081-0.235-0.121-0.354c-0.129-0.775-0.263-1.575-0.399-2.396c-0.126-0.83-0.137-1.74-0.216-2.638
				c-0.067-0.899-0.099-1.897-0.152-2.874c-0.037-0.979-0.201-2.069-0.306-3.135c-0.693-4.383-2.815-8.394-3.723-12.628
				c-0.912-4.336-1.055-9.121-1.313-14.221c-0.059-1.277-0.161-2.557-0.264-3.845c-0.079-1.277-0.1-2.53-0.156-3.809
				c-0.084-2.558-0.116-5.189-0.143-7.849c-0.076-6.941-0.142-13.815-0.978-20.468c-0.148-1.669-0.505-3.29-0.778-4.907
				c-0.136-0.804-0.291-1.611-0.485-2.432c-0.171-0.818-0.364-1.623-0.616-2.402c-0.924-3.15-2.104-6.014-2.986-8.798
				c-0.453-1.391-0.791-2.757-1.059-4.112c-0.09-0.682-0.18-1.358-0.268-2.031c-0.047-0.704-0.092-1.403-0.138-2.097
				c-0.164-2.778-0.085-5.523-0.096-8.229c-0.053-5.404-0.19-10.389-0.599-14.983c-0.111-1.145-0.17-2.263-0.318-3.349
				c-0.156-1.084-0.309-2.14-0.457-3.167c-0.074-0.513-0.148-1.018-0.221-1.515c-0.085-0.498-0.21-0.987-0.312-1.468
				c-0.107-0.48-0.214-0.953-0.318-1.418c-0.13-0.456-0.257-0.903-0.383-1.344c-0.079-0.269-0.157-0.512-0.236-0.774
				c-0.174-1.766-0.488-3.563-0.733-5.418c-0.293-1.938-0.512-3.941-0.964-5.956c-1.361-8.146-3.945-16.89-7.569-25.924
				c-3.61-9.045-8.727-18.244-15.24-27.067c-6.514-8.836-14.378-17.3-23.435-25.123c-9.15-7.712-19.774-14.438-31.604-19.188
				c-5.906-2.38-11.953-4.22-18.027-5.493c-6.084-1.313-12.167-1.869-18.103-2.312c-11.917-0.694-23.371-0.217-34.202,0.358
				c-5.426,0.276-10.673,0.616-15.808,0.799c-5.141,0.213-10.163,0.521-15.003,1.062c-9.678,1.167-18.572,3.412-26.247,6.507
				c-1.903,0.811-3.785,1.544-5.57,2.365c-1.768,0.855-3.489,1.688-5.163,2.499c-2.029,1.118-3.989,2.169-5.852,3.233
				c-4.889,2.408-10.258,5.368-15.918,9.046c-6.081,3.935-12.496,8.673-18.831,14.425c-6.356,5.723-12.505,12.591-18.043,20.505
				c-0.72,0.97-1.361,2.004-2.021,3.032c-0.652,1.034-1.341,2.055-1.974,3.119c-1.211,2.158-2.536,4.289-3.631,6.573
				c-2.391,4.471-4.299,9.29-6.112,14.234c-3.529,9.938-5.587,20.678-6.975,31.655c-1.374,10.993-1.993,21.743-2.724,32.06
				c-0.726,10.317-1.589,20.227-3.119,29.541c-0.402,2.324-0.743,4.633-1.265,6.867c-0.492,2.24-0.896,4.482-1.538,6.597
				c-0.296,1.068-0.59,2.129-0.881,3.181c-0.347,1.043-0.691,2.078-1.032,3.105c-0.65,2.059-1.441,4.062-2.15,6.045
				c-2.775,7.376-5.438,14.414-6.835,21.196c-0.288,1.02-0.512,2.057-0.785,3.071c-0.65,2.583-0.794,5.264-0.665,7.789
				c0.044,0.968,0.129,1.912,0.226,2.844c0.072,2.576,0.287,5.027,0.582,7.309c0.16,1.293,0.333,2.536,0.509,3.74
				c-0.028,3.882-0.206,7.204,0.19,9.634v0.001c-0.082,0.733-0.129,1.479-0.042,2.272c0.088,0.814,0.694,2.673,1.462,3.553
				c-0.013,0.083-0.03,0.163-0.042,0.246c-1.242,8.405-1.227,17.479,0.628,26.607c1.812,9.137,5.762,18.182,11.256,26.304
				c2.741,4.068,5.757,7.877,8.905,11.412c1.59,1.747,3.126,3.525,4.732,5.204c1.613,1.669,3.213,3.324,4.799,4.966
				c6.437,6.46,12.882,12.392,18.936,18.1c0.93,0.867,1.826,1.724,2.732,2.583c0.921,0.979,1.882,1.989,2.888,3.037
				c3.805,3.918,8.242,8.28,13.176,13.046c0.824,0.802,1.68,1.635,2.53,2.462c3.477,3.585,6.78,6.99,9.865,10.171
				c4.415,4.526,8.417,8.609,11.936,12.188c2.864,3.218,5.767,6.58,8.751,10.04c5.944,6.852,12.198,14.122,19.5,20.976
				c7.281,6.816,15.776,13.241,25.803,17.329c4.999,2.028,10.198,3.402,15.394,4.13c5.194,0.734,10.395,0.827,15.401,0.49
				c10.062-0.515,19.699-3.025,28.1-6.883c8.444-3.833,15.69-8.896,21.919-14.139c3.129-2.614,6.01-5.29,8.685-7.946
				c2.688-2.646,5.169-5.272,7.483-7.822c4.635-5.097,8.624-9.867,12.098-14.073c3.454-4.219,6.43-7.853,8.861-10.822
				c0.199-0.243,0.39-0.476,0.582-0.71c0.897-1.004,1.824-2.04,2.807-3.139c1.351-1.461,2.778-3.005,4.277-4.627
				c6.056-6.435,13.383-13.947,22.008-21.807c8.561-7.913,18.341-16.421,27.379-26.686c1.121-1.286,2.264-2.544,3.344-3.837
				c1.04-1.325,2.073-2.643,3.099-3.949c2.048-2.587,4.089-5.233,5.778-8.085c3.395-5.671,5.488-11.804,6.503-17.739
				C560.152,509.629,560.138,503.893,559.644,498.634z M555.932,514.984c-1.133,5.559-3.217,11.189-6.459,16.41
				c-1.604,2.608-3.559,5.082-5.615,7.634c-1.013,1.274-2.032,2.558-3.059,3.85c-1.064,1.262-2.184,2.487-3.28,3.746
				c-8.829,10.032-18.353,18.649-26.726,26.88c-8.435,8.18-15.491,16.113-21.205,22.896c-1.41,1.714-2.754,3.345-4.024,4.889
				c-1.236,1.568-2.401,3.047-3.491,4.43c-2.163,2.775-4.026,5.166-5.549,7.12c-0.119,0.154-0.222,0.288-0.336,0.437
				c-0.837,0.934-1.704,1.902-2.603,2.906c-3.642,4.053-7.804,8.65-12.579,13.544c-2.386,2.448-4.93,4.965-7.664,7.489
				c-2.722,2.537-5.635,5.082-8.77,7.555c-6.243,4.963-13.395,9.688-21.57,13.2c-8.156,3.539-17.299,5.773-26.981,6.168
				c-4.847,0.272-9.743,0.139-14.645-0.58c-4.897-0.714-9.768-2.017-14.476-3.926c-9.43-3.844-17.58-9.896-24.744-16.46
				c-7.179-6.592-13.492-13.688-19.567-20.417c-6.058-6.746-11.89-13.169-17.736-18.806c-2.927-2.805-5.753-5.489-8.5-8.048
				c-0.843-0.767-1.654-1.505-2.476-2.253c-2.205-2.436-4.487-4.958-6.852-7.571c-2.464-2.763-5.131-5.541-7.869-8.412
				c-2.779-2.819-5.645-5.722-8.631-8.631c-5.943-5.854-12.268-11.881-18.556-18.342c-1.547-1.635-3.108-3.284-4.682-4.946
				c-1.567-1.668-3.056-3.421-4.608-5.145c-3.057-3.476-5.938-7.143-8.57-11.048c-5.27-7.806-9.02-16.265-10.845-24.906
				c-1.861-8.636-2.034-17.305-1.019-25.394c2.035-16.267,9.229-29.813,16.761-39.629c3.835-4.885,8.102-8.628,11.962-11.772
				c3.87-3.137,7.405-5.604,10.284-7.63c5.79-4.019,8.992-6.24,8.992-6.24s-3.321,2.042-9.327,5.734
				c-2.984,1.878-6.647,4.174-10.698,7.162c-4.027,2.987-8.56,6.627-12.714,11.517c-4.097,4.897-8.018,10.738-11.34,17.487
				c-2.576,5.181-4.643,10.983-6.053,17.201c-0.139-0.154-0.3-0.301-0.468-0.465c-0.283-2.409-0.635-5.092-0.968-8.059
				c-0.001-0.566-0.004-1.144-0.01-1.741c-0.024-1.018-0.057-2.086-0.201-3.197c-0.153-1.078-0.312-2.193-0.475-3.338
				c-0.021-0.147-0.044-0.298-0.066-0.446c-0.222-4.815,0.001-10.117,1.256-15.692c1.492-6.946,4.496-14.181,7.698-22.041
				c0.772-1.985,1.615-3.97,2.337-6.067c0.375-1.041,0.752-2.091,1.132-3.147c0.344-1.074,0.658-2.172,0.991-3.27
				c0.717-2.193,1.176-4.452,1.728-6.732c0.582-2.275,0.976-4.613,1.431-6.974c1.739-9.453,2.762-19.475,3.596-29.82
				c0.839-10.347,1.519-21.034,2.872-31.858c1.366-10.809,3.319-21.281,6.637-30.932c1.707-4.797,3.491-9.49,5.744-13.853
				c1.027-2.23,2.281-4.314,3.418-6.429c0.596-1.042,1.248-2.044,1.862-3.059c0.624-1.01,1.226-2.026,1.909-2.982
				c5.233-7.791,11.069-14.634,17.148-20.409c6.055-5.803,12.225-10.663,18.099-14.751c1.131-0.79,2.248-1.543,3.355-2.275
				c0.365-0.229,0.727-0.454,1.099-0.693c1.176-0.744,2.402-1.52,3.678-2.328c1.294-0.776,2.667-1.533,4.072-2.344
				c2.783-1.672,5.915-3.168,9.185-4.835c1.676-0.747,3.399-1.515,5.168-2.303c1.783-0.754,3.655-1.418,5.546-2.159
				c7.629-2.816,16.35-4.764,25.841-5.685c4.757-0.418,9.698-0.613,14.826-0.722c5.135-0.08,10.447-0.323,15.853-0.507
				c10.821-0.395,22.161-0.708,33.809,0.076c5.818,0.488,11.723,1.07,17.557,2.36c5.846,1.253,11.669,3.04,17.368,5.337
				c11.415,4.581,21.729,11.034,30.675,18.438c8.868,7.521,16.703,15.724,23.198,24.238c6.508,8.518,11.672,17.362,15.417,26.136
				c3.752,8.758,6.521,17.246,8.102,25.24c0.108,0.91,0.433,1.932,0.649,3.069c0.18,0.87-0.178,1.824,0.822,2.815
				c0,0.001,0,0.002,0,0.003c0,1.915,0.541,3.767,0.766,5.594c0.447,3.652,0.915,7.084,1.169,10.326
				c0.246,2.562,0.448,4.979,0.623,7.258c0,3.149-0.097,6.465-0.211,9.928c-0.102,2.649-0.304,5.448-0.24,8.375
				c0.021,0.731,0.039,1.469,0.061,2.211c0.075,0.766,0.146,1.538,0.223,2.314c0.246,1.534,0.578,3.07,1.015,4.559
				c0.852,2.986,1.949,5.877,2.729,8.803c0.219,0.728,0.376,1.468,0.513,2.215c0.159,0.734,0.29,1.501,0.407,2.288
				c0.231,1.561,0.55,3.125,0.664,4.729c0.698,6.38,0.71,13.115,0.784,20.074c0.027,2.666,0.067,5.312,0.172,7.961
				c0.065,1.324,0.102,2.66,0.195,3.947c0.114,1.272,0.229,2.535,0.303,3.783c0.323,4.987,0.547,10.023,1.667,14.772
				c0.604,2.403,1.458,4.609,2.241,6.611c0.409,1.026,0.727,1.995,1.088,2.969c0.155,0.479,0.277,0.946,0.419,1.414
				c0.13,0.467,0.302,0.921,0.34,1.402c0.646,3.715,0.577,7.708,1.613,11.191c-0.011-0.047-0.021-0.094-0.025-0.11
				c0.459,1.792,0.905,3.539,1.34,5.238c0.475,1.679,1.056,3.257,1.557,4.815c0.508,1.562,1.042,3.024,1.541,4.466
				c0.252,0.718,0.5,1.424,0.744,2.118c0.216,0.696,0.428,1.381,0.637,2.054c0.717,2.074,1.246,4.061,1.654,5.95
				c0.464,3.12,0.841,6.414,1.011,9.885C557.253,503.934,557.048,509.413,555.932,514.984z"/>
			<g opacity="0.3">
				<g>
					<g>
						<path d="M410.5,614.999c0,0-0.688-0.006-1.864-0.07c-1.166-0.092-2.859-0.111-4.852-0.135
							c-1.008,0.025-2.075-0.018-3.233,0.055c-0.57,0.017-1.16,0.034-1.768,0.053c-0.609,0.041-1.232,0.075-1.865,0.1
							c-2.547,0.149-5.317,0.34-8.298,0.462c-5.957,0.291-11.729-0.019-15.912-0.758c-2.09-0.363-3.773-0.771-4.926-1.129
							c-1.153-0.345-1.78-0.577-1.78-0.577s0.632-0.253,1.756-0.636c1.125-0.37,2.735-0.932,4.709-1.534
							c3.951-1.19,9.365-2.806,15.827-3.126c3.229-0.135,6.389,0.162,9.207,0.77c0.706,0.165,1.389,0.337,2.048,0.512
							c0.659,0.185,1.291,0.42,1.898,0.63c1.217,0.398,2.306,0.945,3.285,1.413c1.941,1.012,3.399,1.984,4.336,2.767
							C410.014,614.551,410.5,614.999,410.5,614.999z"/>
					</g>
				</g>
			</g>
			<g opacity="0.3">
				<g>
					<g>
						<path fill="#FFFFFF" d="M442.999,634.999c0,0-0.136,0.61-0.484,1.728c-0.091,0.276-0.18,0.6-0.313,0.927
							c-0.147,0.322-0.305,0.673-0.476,1.049c-0.184,0.378-0.38,0.782-0.588,1.21c-0.231,0.412-0.5,0.827-0.782,1.274
							c-1.109,1.811-2.769,3.709-4.836,5.564c-2.088,1.815-4.633,3.48-7.477,4.797c-5.725,2.597-11.414,3.202-15.467,3.144
							c-1.015,0.001-1.939-0.063-2.747-0.135c-0.807-0.064-1.501-0.147-2.07-0.242c-1.136-0.176-1.759-0.316-1.759-0.316
							s0.555-0.341,1.549-0.879c0.494-0.267,1.098-0.594,1.798-0.972c0.691-0.365,1.479-0.78,2.349-1.239
							c3.468-1.799,8.095-4.144,13.122-6.428c2.512-1.133,4.904-2.211,7.082-3.193c2.141-1.031,4.147-1.95,5.754-2.892
							c0.416-0.229,0.812-0.447,1.188-0.653c0.362-0.229,0.704-0.444,1.023-0.647c0.333-0.203,0.642-0.392,0.928-0.565
							c0.282-0.181,0.517-0.367,0.746-0.525C442.442,635.363,442.999,635,442.999,634.999z"/>
					</g>
				</g>
			</g>
			<g opacity="0.3">
				<g>
					<g>
						<path fill="#FFFFFF" d="M233.999,473c0,0,0.006,0.842-0.04,2.298c-0.014,0.361-0.029,0.763-0.046,1.202
							c-0.008,0.439,0.015,0.921,0.017,1.43c0.026,1.022-0.028,2.154,0.071,3.419c0.026,0.624,0.054,1.276,0.082,1.957
							c0.023,0.675,0.119,1.383,0.166,2.104c0.074,1.441,0.294,2.976,0.449,4.57c0.418,3.194,0.931,6.647,1.593,10.267
							c0.685,3.615,1.41,7.058,2.116,10.234c0.417,1.564,0.713,3.103,1.119,4.507c0.181,0.715,0.356,1.405,0.524,2.068
							c0.189,0.661,0.37,1.296,0.543,1.902c0.316,1.234,0.67,2.329,0.962,3.312c0.143,0.495,0.276,0.956,0.399,1.381
							c0.138,0.42,0.263,0.804,0.377,1.149c0.447,1.392,0.668,2.2,0.668,2.2s-0.622-0.532-1.7-1.561
							c-0.269-0.261-0.566-0.55-0.893-0.867c-0.304-0.335-0.633-0.698-0.988-1.089c-0.706-0.79-1.512-1.699-2.294-2.778
							c-0.397-0.54-0.813-1.105-1.247-1.694c-0.393-0.615-0.802-1.256-1.226-1.919c-0.868-1.326-1.609-2.835-2.421-4.424
							c-1.496-3.223-2.81-6.952-3.577-11.016c-0.746-4.069-0.816-8.057-0.508-11.626c0.207-1.788,0.42-3.473,0.811-5.026
							c0.185-0.777,0.329-1.525,0.551-2.232c0.229-0.702,0.448-1.376,0.658-2.02c0.394-1.281,0.94-2.392,1.369-3.361
							c0.225-0.482,0.42-0.932,0.635-1.335c0.227-0.396,0.436-0.759,0.623-1.084C233.548,473.677,233.999,473,233.999,473z"/>
					</g>
				</g>
			</g>
			<g>
				<g>
					<g>
						<path d="M180.999,347c0,0-0.127,0.344-0.367,0.99c-0.119,0.323-0.267,0.721-0.44,1.189c-0.17,0.468-0.394,0.998-0.533,1.626
							c-0.163,0.62-0.343,1.306-0.539,2.052c-0.118,0.762-0.245,1.585-0.381,2.465c-0.043,0.891-0.14,1.832-0.137,2.833
							c-0.001,1.001,0.004,2.053,0.03,3.16c0.034,1.102-0.003,2.263-0.014,3.46c-0.081,1.189-0.163,2.419-0.249,3.684
							c-0.149,2.471,0.168,5.101,0.804,7.738c1.28,5.249,3.752,10.71,7.489,15.001c0.45,0.542,0.979,1.026,1.503,1.511
							c0.529,0.477,1.019,0.999,1.575,1.438c1.134,0.853,2.223,1.752,3.455,2.421c1.161,0.781,2.458,1.288,3.681,1.888
							c1.296,0.433,2.537,0.967,3.847,1.225c5.158,1.334,10.259,1.074,14.516,0.453c4.279-0.641,7.781-1.714,10.237-2.504
							c2.451-0.828,3.864-1.404,3.958-1.44c0.751-0.275,1.676,0.312,2.066,1.311s0.066,2.044-0.725,2.335
							c-0.098,0.037-1.595,0.581-4.199,1.345c-2.612,0.728-6.337,1.707-10.921,2.205c-4.558,0.475-10.061,0.54-15.633-1.144
							c-1.407-0.343-2.751-0.975-4.134-1.509c-1.314-0.703-2.691-1.319-3.919-2.214c-1.3-0.782-2.44-1.796-3.616-2.764
							c-0.576-0.496-1.08-1.072-1.622-1.605c-0.536-0.54-1.074-1.077-1.546-1.69c-1.956-2.373-3.414-5.044-4.619-7.744
							c-1.197-2.708-2.043-5.504-2.592-8.257c-0.544-2.753-0.763-5.49-0.501-8.068c0.137-1.255,0.271-2.476,0.4-3.657
							c0.058-1.181,0.143-2.316,0.154-3.421c0.02-1.1,0.059-2.162,0.101-3.171c0.038-1.009,0.175-1.966,0.257-2.861
							c0.175-0.885,0.338-1.712,0.489-2.478c0.229-0.744,0.438-1.428,0.628-2.045c0.166-0.625,0.412-1.147,0.602-1.61
							c0.193-0.461,0.357-0.854,0.49-1.171C180.858,347.338,180.999,347,180.999,347z"/>
					</g>
				</g>
			</g>
			<g>
				<g>
					<g>
						<path d="M181,383c0,0-0.156-0.401-0.447-1.153c-0.146-0.376-0.326-0.84-0.538-1.386c-0.202-0.549-0.389-1.196-0.624-1.913
							c-0.886-2.872-1.848-7.147-1.85-12.353c-0.158-5.181,0.571-11.331,2.732-17.52c1.08-3.092,2.528-6.192,4.42-9.104
							c1.9-2.903,4.261-5.596,6.998-7.866c2.73-2.275,5.847-4.111,9.082-5.446c0.814-0.307,1.624-0.613,2.431-0.917
							c0.844-0.27,1.684-0.539,2.52-0.806c0.859-0.176,1.723-0.323,2.578-0.48c0.857-0.147,1.713-0.147,2.562-0.225
							c3.394-0.131,6.685,0.217,9.722,1.032c0.761,0.194,1.49,0.484,2.221,0.719c0.738,0.216,1.429,0.548,2.107,0.88
							c1.373,0.614,2.658,1.368,3.791,2.253c2.281,1.757,3.899,3.899,5.071,5.86c1.154,1.984,1.905,3.809,2.479,5.314
							c1.104,3.023,1.581,4.786,1.629,4.901c0.269,0.931-0.357,1.917-1.387,2.212c-1.031,0.296-2.08-0.219-2.345-1.135
							c-0.045-0.107-0.47-1.888-1.399-4.728c-0.969-2.779-2.457-6.803-6.095-9.865c-0.902-0.758-1.952-1.428-3.13-2.001
							c-0.575-0.308-1.16-0.624-1.814-0.834c-0.643-0.228-1.276-0.513-1.954-0.711c-2.706-0.83-5.719-1.254-8.813-1.245
							c-0.769,0.046-1.56,0.012-2.332,0.12c-0.772,0.116-1.549,0.232-2.331,0.349c-0.764,0.216-1.531,0.434-2.303,0.652
							c-0.783,0.264-1.569,0.53-2.358,0.796c-3.1,1.154-6.059,2.762-8.714,4.817c-2.655,2.049-4.99,4.523-6.909,7.241
							c-1.91,2.727-3.418,5.672-4.574,8.643c-1.147,2.974-1.998,5.964-2.496,8.86c-0.542,2.881-0.756,5.662-0.783,8.236
							c-0.179,5.151,0.622,9.411,1.403,12.305c0.208,0.722,0.373,1.375,0.554,1.929c0.192,0.552,0.355,1.022,0.488,1.402
							C180.859,382.594,181,383,181,383z"/>
					</g>
				</g>
			</g>
			<path fill="#E6E6E6" d="M214.563,361.423c-2.371-0.231-4.767-0.423-7.23-0.423h-16.667c-2.851,0-5.547-0.357-8.333-0.5
				c-3.222-0.164-4.131,1.03-6.618,1.633c-0.176,2.418,0.631,4.784,1.21,6.983c0.898,3.41,1.099,3.363,4.815,2.979
				c5.207-0.539,10.836-0.417,16.259-0.417c5.953,0,11.902,0.199,17.894,0.379C216.003,368.545,215.293,365.214,214.563,361.423z"/>
			<g>
				<path d="M593.858,368.39c-0.138-1.255-0.271-2.476-0.4-3.657c-0.058-1.181-0.143-2.316-0.154-3.421
					c-0.02-1.1-0.059-2.162-0.101-3.171c-0.038-1.009-0.175-1.966-0.257-2.861c-0.175-0.885-0.338-1.712-0.489-2.478
					c-0.229-0.744-0.438-1.428-0.627-2.045c-0.166-0.625-0.412-1.147-0.603-1.61c-0.192-0.461-0.356-0.853-0.489-1.172
					c-0.266-0.635-0.407-0.974-0.407-0.974s0.127,0.345,0.366,0.991c0.12,0.323,0.268,0.721,0.44,1.189
					c0.171,0.469,0.394,0.998,0.533,1.626c0.162,0.619,0.342,1.305,0.538,2.052c0.118,0.761,0.245,1.585,0.382,2.465
					c0.043,0.891,0.14,1.831,0.137,2.832c0,1.001-0.005,2.053-0.03,3.16c-0.034,1.102,0.003,2.263,0.014,3.46
					c0.08,1.189,0.163,2.419,0.249,3.684c0.149,2.471-0.168,5.101-0.804,7.737c-1.279,5.25-3.753,10.71-7.488,15.002
					c-0.451,0.542-0.98,1.025-1.504,1.511c-0.529,0.477-1.019,0.999-1.575,1.438c-1.134,0.853-2.223,1.752-3.454,2.421
					c-1.161,0.781-2.458,1.288-3.681,1.887c-1.297,0.434-2.537,0.968-3.847,1.226c-5.158,1.335-10.26,1.074-14.516,0.453
					c-4.279-0.641-7.781-1.713-10.236-2.504c-1.797-0.607-3.029-1.076-3.6-1.299c0.01,0.858,0.037,1.717,0.121,2.568
					c0.043,0.432,0.156,1.014,0.317,1.651c0.582,0.185,1.263,0.395,2.061,0.629c2.611,0.728,6.336,1.707,10.921,2.205
					c4.558,0.475,10.062,0.539,15.634-1.144c1.406-0.344,2.75-0.975,4.134-1.51c1.313-0.703,2.691-1.319,3.919-2.214
					c1.301-0.782,2.44-1.796,3.616-2.764c0.576-0.496,1.079-1.072,1.622-1.605c0.536-0.541,1.073-1.078,1.545-1.69
					c1.957-2.373,3.414-5.044,4.619-7.744c1.197-2.708,2.043-5.504,2.593-8.257C593.901,373.704,594.12,370.967,593.858,368.39z"/>
			</g>
			<g>
				<path d="M591.057,348.674c-1.08-3.092-2.528-6.192-4.42-9.104c-1.9-2.904-4.262-5.596-6.999-7.867
					c-2.729-2.274-5.847-4.111-9.082-5.446c-0.813-0.307-1.624-0.613-2.431-0.918c-0.845-0.27-1.685-0.539-2.52-0.806
					c-0.859-0.176-1.723-0.323-2.578-0.481c-0.856-0.147-1.714-0.147-2.562-0.224c-3.393-0.131-6.685,0.216-9.722,1.032
					c-0.761,0.194-1.49,0.483-2.222,0.719c-0.738,0.215-1.428,0.548-2.107,0.88c-1.372,0.613-2.657,1.368-3.791,2.253
					c-2.281,1.757-3.899,3.899-5.071,5.86c-1.018,1.749-1.713,3.361-2.258,4.753c0.545,2.56,0.556,5.122,0.505,7.713
					c0.652-0.124,1.196-0.553,1.376-1.175c0.045-0.107,0.471-1.888,1.398-4.728c0.97-2.779,2.457-6.803,6.096-9.865
					c0.901-0.758,1.952-1.428,3.13-2.001c0.574-0.308,1.159-0.624,1.813-0.835c0.643-0.228,1.276-0.513,1.954-0.71
					c2.706-0.831,5.72-1.254,8.813-1.245c0.769,0.046,1.561,0.013,2.332,0.121c0.771,0.115,1.549,0.232,2.331,0.349
					c0.764,0.216,1.531,0.433,2.303,0.651c0.783,0.264,1.569,0.53,2.359,0.796c3.1,1.154,6.058,2.762,8.714,4.817
					c2.655,2.049,4.99,4.523,6.909,7.241c1.911,2.727,3.419,5.673,4.575,8.643c1.146,2.974,1.998,5.964,2.496,8.86
					c0.541,2.881,0.756,5.662,0.782,8.236c0.18,5.151-0.621,9.411-1.403,12.305c-0.208,0.722-0.372,1.374-0.554,1.929
					c-0.192,0.553-0.356,1.022-0.487,1.402c-0.266,0.762-0.407,1.168-0.407,1.168s0.156-0.4,0.447-1.152
					c0.147-0.377,0.326-0.841,0.538-1.387c0.202-0.55,0.389-1.196,0.624-1.914c0.886-2.871,1.847-7.147,1.849-12.353
					C593.947,361.013,593.219,354.864,591.057,348.674z"/>
			</g>
			<g>
				<g>
					<g>
						<path d="M209.5,386.5c0,0-0.177-0.036-0.513-0.104c-0.34-0.064-0.833-0.197-1.459-0.431c-0.628-0.231-1.373-0.603-2.169-1.21
							c-0.774-0.609-1.636-1.542-1.987-2.962c-0.189-0.701-0.165-1.497,0.003-2.272c0.199-0.76,0.527-1.523,0.988-2.168
							c0.218-0.34,0.463-0.664,0.743-0.959l0.415-0.462c0.162-0.153,0.358-0.302,0.544-0.452c0.753-0.566,1.582-0.964,2.394-1.239
							c1.625-0.58,3.256-0.815,4.629-1.257c0.679-0.218,1.31-0.461,1.74-0.784c0.21-0.167,0.418-0.319,0.56-0.519
							c0.087-0.086,0.165-0.184,0.219-0.302c0.073-0.143,0.12-0.15,0.127-0.228c0.195-0.51,0.257-1.088,0.235-1.652
							c-0.06-0.582-0.235-1.22-0.482-1.886c-0.527-1.36-1.352-2.781-1.871-4.504c-0.143-0.411-0.215-0.891-0.3-1.333
							c-0.028-0.477-0.102-0.937-0.034-1.413c0.027-0.234,0.055-0.467,0.081-0.698c0.052-0.226,0.123-0.446,0.188-0.664
							c0.113-0.441,0.321-0.834,0.516-1.204c0.848-1.394,1.85-2.319,2.813-3.081c1.934-1.506,3.77-2.256,5.071-2.575
							c0.656-0.151,1.177-0.188,1.524-0.183C223.819,351.986,224,352,224,352s-0.173,0.043-0.504,0.123
							c-0.322,0.099-0.781,0.279-1.328,0.583c-1.083,0.621-2.545,1.738-3.947,3.412c-0.693,0.822-1.376,1.823-1.767,2.837
							c-0.309,0.992-0.287,1.906,0.253,3.068c0.489,1.153,1.395,2.448,2.192,4.118c0.386,0.86,0.739,1.833,0.887,2.952
							c0.109,1.137,0.003,2.317-0.427,3.454c-0.042,0.179-0.124,0.347-0.233,0.507l-0.253,0.417
							c-0.152,0.269-0.341,0.513-0.556,0.74c-0.395,0.482-0.884,0.855-1.363,1.184c-0.986,0.649-1.981,0.941-2.886,1.172
							c-1.819,0.436-3.39,0.509-4.678,0.813c-0.653,0.131-1.201,0.331-1.644,0.561c-0.105,0.063-0.211,0.108-0.322,0.18l-0.336,0.28
							c-0.238,0.177-0.442,0.372-0.627,0.577c-0.773,0.798-1.206,1.657-1.17,2.522c0.005,0.87,0.42,1.726,0.934,2.382
							c0.52,0.657,1.088,1.179,1.595,1.549c0.504,0.376,0.929,0.646,1.226,0.807C209.344,386.41,209.5,386.5,209.5,386.5z"/>
					</g>
				</g>
			</g>
			<path opacity="0.3" enable-background="new    " d="M214.5,361.5c0.194-4.365,5.089-9.579,9.249-9.583
				c1.339-5.656-6.406-6.203-10.749-5.917c-5.415,0.356-7.9,3.8-10.111,8.377c-4.312,8.927-2.306,26.957,2.277,29.873
				c-2.337-7.992,4.209-6.542,8.832-9.752c5.515-3.828,1.642-8.837,1.002-13.998"/>
			<g>
				<g>
					<g>
						<path d="M562.4,386.5c0,0,0.156-0.089,0.453-0.259c0.298-0.161,0.723-0.432,1.227-0.807c0.507-0.371,1.075-0.893,1.595-1.55
							c0.514-0.657,0.929-1.513,0.934-2.383c0.036-0.866-0.398-1.725-1.17-2.523c-0.185-0.205-0.39-0.399-0.627-0.576l-0.337-0.28
							c-0.11-0.072-0.217-0.116-0.321-0.18c-0.442-0.23-0.991-0.43-1.643-0.561c-1.289-0.304-2.859-0.378-4.679-0.813
							c-0.905-0.231-1.9-0.523-2.886-1.172c-0.48-0.329-0.969-0.702-1.363-1.184c-0.214-0.228-0.404-0.471-0.556-0.74l-0.253-0.417
							c-0.109-0.161-0.19-0.329-0.233-0.507c-0.429-1.137-0.536-2.317-0.427-3.454c0.148-1.118,0.501-2.091,0.888-2.952
							c0.798-1.67,1.703-2.965,2.192-4.118c0.54-1.162,0.562-2.076,0.253-3.068c-0.392-1.015-1.074-2.016-1.768-2.838
							c-1.4-1.673-2.864-2.791-3.946-3.412c-0.547-0.305-1.006-0.485-1.328-0.583c-0.33-0.081-0.504-0.123-0.504-0.123
							s0.181-0.015,0.525-0.043c0.348-0.005,0.868,0.031,1.524,0.183c1.301,0.319,3.138,1.069,5.071,2.575
							c0.963,0.762,1.965,1.687,2.812,3.081c0.195,0.37,0.403,0.763,0.517,1.204c0.064,0.218,0.135,0.438,0.188,0.664
							c0.026,0.231,0.054,0.464,0.081,0.698c0.068,0.477-0.006,0.937-0.033,1.413c-0.085,0.442-0.157,0.922-0.3,1.333
							c-0.518,1.723-1.345,3.144-1.871,4.504c-0.248,0.666-0.423,1.304-0.483,1.886c-0.021,0.564,0.04,1.142,0.235,1.652
							c0.007,0.078,0.054,0.085,0.127,0.228c0.054,0.119,0.131,0.216,0.219,0.302c0.142,0.2,0.35,0.352,0.56,0.519
							c0.429,0.323,1.061,0.566,1.739,0.784c1.373,0.441,3.003,0.677,4.629,1.257c0.811,0.274,1.641,0.672,2.394,1.239
							c0.185,0.149,0.382,0.299,0.544,0.451l0.415,0.463c0.28,0.295,0.525,0.619,0.743,0.959c0.461,0.645,0.789,1.408,0.988,2.168
							c0.169,0.775,0.192,1.571,0.003,2.272c-0.352,1.42-1.213,2.353-1.986,2.963c-0.796,0.607-1.542,0.978-2.169,1.21
							c-0.626,0.235-1.119,0.368-1.459,0.432C562.577,386.465,562.4,386.5,562.4,386.5z"/>
					</g>
				</g>
			</g>
			<g>
				<path d="M214.325,360.16c-1.409-0.064-2.836-0.115-4.302-0.131c-18.609,0-33.69,0.971-33.69,0.971s15.081,0.971,33.689,0.971
					c1.585,0.016,3.135,0.057,4.667,0.106C214.568,361.453,214.446,360.812,214.325,360.16z"/>
			</g>
			<g>
				<g>
					<g>
						<path d="M175.667,372.333c0,0-0.063-0.361-0.176-1.01c-0.123-0.649-0.301-1.585-0.52-2.739
							c-0.186-1.169-0.465-2.564-0.315-4.263c0.063-0.835,0.293-1.805,0.913-2.682c0.61-0.875,1.649-1.527,2.673-1.736
							c0.504-0.127,1.005-0.149,1.464-0.205c0.433-0.029,0.859-0.058,1.278-0.086c0.853-0.04,1.678-0.06,2.466-0.046
							c1.576,0.024,2.998,0.147,4.18,0.357c1.182,0.191,2.121,0.465,2.747,0.693c0.616,0.247,0.957,0.384,0.957,0.384
							s-0.365-0.031-1.021-0.087c-0.651-0.047-1.592-0.075-2.748-0.021c-1.154,0.036-2.525,0.156-4.044,0.311
							c-0.76,0.083-1.557,0.171-2.383,0.262c-0.42,0.049-0.848,0.098-1.282,0.148c-0.4,0.063-0.791,0.084-1.151,0.176
							c-0.731,0.157-1.254,0.5-1.649,0.966c-0.391,0.473-0.649,1.119-0.779,1.811c-0.296,1.374-0.285,2.787-0.336,3.948
							c-0.03,1.171-0.085,2.137-0.146,2.796C175.712,371.968,175.667,372.333,175.667,372.333z"/>
					</g>
				</g>
			</g>
			<g>
				<path d="M215.906,371.522c-2.384-0.103-4.837-0.199-7.359-0.284c-1.758-0.054-3.491-0.107-5.186-0.158
					c-1.695-0.066-3.36,0.078-4.974,0.111c-1.613,0.067-3.178,0.134-4.685,0.196c-1.497,0.114-2.936,0.224-4.306,0.328
					c-5.45,0.208-10.061,1.564-12.226,0.363l-0.033-0.02c-0.649-0.295-1.023-0.871-1.181-1.48c-0.16-0.611-0.174-1.225-0.152-1.779
					c0.048-1.113,0.18-2.022,0.227-2.736c0.062-0.714,0.046-1.235,0.028-1.571C176.019,364.158,176,364,176,364
					s0.004,0.158,0.012,0.495c-0.013,0.336-0.041,0.847-0.158,1.549c-0.101,0.705-0.297,1.592-0.421,2.731
					c-0.059,0.568-0.09,1.21,0.049,1.918c0.127,0.697,0.577,1.503,1.381,1.912c-0.007-0.004-0.014-0.008-0.033-0.019
					c1.242,0.87,3.166,0.969,5.296,0.893c1.073-0.034,2.236-0.16,3.411-0.168c1.229-0.033,2.536-0.069,3.911-0.106
					c1.378-0.048,2.823-0.097,4.327-0.148c1.496-0.018,3.049-0.035,4.65-0.053c1.6,0.007,3.243-0.105,4.928-0.017
					c1.685,0.062,3.405,0.127,5.152,0.191c2.493,0.084,4.929,0.153,7.308,0.212C215.871,372.762,215.901,372.14,215.906,371.522z"/>
			</g>
			<g>
				<g>
					<g>
						<path d="M173.333,373.667c0,0-0.143-0.636-0.298-1.652c-0.137-1.015-0.363-2.418-0.469-3.98
							c-0.068-1.577-0.062-3.01,0.138-4.046c0.155-1.033,0.296-1.654,0.296-1.654s0.101,0.647,0.189,1.667
							c0.042,1.016,0.279,2.417,0.345,3.969c0.106,1.564,0.091,2.989-0.014,4.029C173.434,373.034,173.333,373.667,173.333,373.667z
							"/>
					</g>
				</g>
			</g>
			<g>
				<g>
					<g>
						<path d="M171.666,376.333c0,0-0.485-3.283-0.485-7.333c0-4.051,0.485-7.333,0.485-7.333s0.485,3.283,0.485,7.333
							C172.152,373.05,171.666,376.333,171.666,376.333z"/>
					</g>
				</g>
			</g>
			<g>
				<g>
					<g>
						<path d="M169.333,374.333c0,0-0.485-2.388-0.485-5.333c0-2.946,0.485-5.333,0.485-5.333s0.485,2.388,0.485,5.333
							C169.819,371.945,169.333,374.333,169.333,374.333z"/>
					</g>
				</g>
			</g>
			<g>
				<g>
					<g>
						<path d="M168.666,369.667c0,0-0.03-0.599-0.009-1.536c0.06-0.933,0.002-2.225,0.111-3.635c0.04-1.42,0.204-2.705,0.317-3.645
							c0.125-0.936,0.248-1.517,0.248-1.517s0.119,0.58,0.237,1.521c0.13,0.938,0.209,2.245,0.168,3.687
							c-0.111,1.444-0.299,2.746-0.601,3.66C168.873,369.118,168.666,369.667,168.666,369.667z"/>
					</g>
				</g>
			</g>
			<g>
				<g>
					<g>
						<path d="M166.333,371.667c0,0-0.467-2.094-0.445-4.684c0.153-2.606,0.778-4.649,0.778-4.649s0.343,2.13,0.193,4.675
							C166.837,369.579,166.333,371.667,166.333,371.667z"/>
					</g>
				</g>
			</g>
			<g>
				<g>
					<g>
						<path d="M166.666,374c0,0-0.198-0.545-0.448-1.472c-0.308-0.926-0.395-2.236-0.452-3.684c0.044-2.878,0.567-5.178,0.567-5.178
							s0.447,2.336,0.404,5.179c0.056,1.408-0.1,2.7-0.038,3.621C166.706,373.397,166.666,374,166.666,374z"/>
					</g>
				</g>
			</g>
			<g>
				<g>
					<g>
						<path d="M168,370.667c0,0-0.148-0.361-0.31-0.917c-0.129-0.557-0.425-1.308-0.569-2.168c-0.179-0.866-0.224-1.679-0.197-2.281
							c0.019-0.597,0.077-0.967,0.077-0.967s0.183,0.337,0.402,0.884c0.21,0.545,0.491,1.304,0.671,2.174
							c0.15,0.888,0.211,1.708,0.101,2.318C168.096,370.311,168,370.667,168,370.667z"/>
					</g>
				</g>
			</g>
			<g>
				<g>
					<g>
						<path d="M168.333,374.667c0,0-0.194-0.508-0.439-1.373c-0.299-0.864-0.406-2.09-0.462-3.448C167.475,367.149,168,365,168,365
							s0.445,2.189,0.402,4.845c0.056,1.315-0.081,2.521-0.027,3.384C168.376,374.101,168.333,374.667,168.333,374.667z"/>
					</g>
				</g>
			</g>
			<g>
				<g>
					<g>
						<path d="M170.333,371.333c0,0-0.064-0.175-0.178-0.486c-0.1-0.316-0.293-0.771-0.424-1.353
							c-0.306-1.16-0.555-2.808-0.592-4.626c-0.025-1.817,0.133-3.448,0.269-4.626c0.134-1.178,0.259-1.908,0.259-1.908
							s0.118,0.73,0.227,1.914c0.107,1.183,0.192,2.816,0.217,4.603c0.037,1.786,0.04,3.396,0.102,4.57
							C170.286,370.59,170.333,371.333,170.333,371.333z"/>
					</g>
				</g>
			</g>
			<g>
				<g>
					<g>
						<path d="M172,371.667c0,0-0.193-0.53-0.435-1.425c-0.292-0.892-0.416-2.16-0.467-3.564c0.045-2.788,0.568-5.012,0.568-5.012
							s0.447,2.263,0.403,5.011c0.051,1.362-0.07,2.607-0.022,3.504C172.045,371.085,172,371.667,172,371.667z"/>
					</g>
				</g>
			</g>
			<g>
				<g>
					<g>
						<path d="M174.333,370.333c0,0-0.208-0.477-0.475-1.278c-0.286-0.803-0.544-1.925-0.719-3.179
							c-0.205-1.232-0.239-2.375-0.369-3.185c-0.089-0.821-0.105-1.358-0.105-1.358s0.245,0.456,0.575,1.238
							c0.373,0.776,0.65,1.906,0.86,3.17c0.175,1.252,0.192,2.405,0.235,3.228C174.362,369.801,174.333,370.333,174.333,370.333z"/>
					</g>
				</g>
			</g>
			<g>
				<g>
					<g>
						<path d="M177,370.667c0,0-0.146-0.548-0.308-1.418c-0.124-0.872-0.417-2.055-0.578-3.377
							c-0.426-2.633-0.448-4.872-0.448-4.872s0.232,0.508,0.535,1.351c0.317,0.837,0.64,2.032,0.872,3.375
							c0.166,1.358,0.22,2.598,0.103,3.499C177.097,370.122,177,370.667,177,370.667z"/>
					</g>
				</g>
			</g>
			<g>
				<g>
					<g>
						<path d="M176,374.667c0,0,0.026,0.177,0.066,1c-0.007-0.001-0.064-0.007-0.13-0.015c-0.036-0.299,0.066-1.099,0.077-2.216
							c0.031-1.116,0.002-2.543-0.001-4.104c0.008-2.03,0.131-3.899,0.416-5.227c0.095-0.667,0.307-1.188,0.398-1.549
							C176.938,362.199,177,362,177,362s-0.009,0.21-0.025,0.585c-0.001,0.377-0.091,0.904-0.064,1.571
							c-0.039,1.323,0.081,3.143,0.073,5.18c0.002,1.564-0.112,3.037-0.323,4.168c-0.191,1.133-0.503,1.911-0.596,2.179
							l-0.153,0.441l0.022-0.456C175.974,374.844,176,374.667,176,374.667z"/>
					</g>
				</g>
			</g>
			<g>
				<g>
					<g>
						<path d="M175,368.333c0,0-0.1-0.484-0.187-1.281c-0.104-0.803-0.121-1.896-0.017-3.092c0.062-1.181,0.307-2.245,0.349-3.015
							c0.088-0.775,0.188-1.279,0.188-1.279s0.142,0.467,0.297,1.262c0.202,0.8,0.198,1.903,0.133,3.114
							c-0.104,1.193-0.329,2.261-0.466,3.031C175.143,367.847,175,368.333,175,368.333z"/>
					</g>
				</g>
			</g>
			<g>
				<g>
					<g>
						<path d="M170.333,365.667c0,0-0.126-0.438-0.257-1.142c-0.132-0.705-0.288-1.687-0.229-2.803
							c0.072-1.12,0.416-2.12,0.784-2.762c0.173-0.326,0.384-0.553,0.502-0.716c0.127-0.155,0.2-0.243,0.2-0.243
							s-0.098,0.449-0.247,1.127c-0.123,0.689-0.202,1.613-0.271,2.654c-0.056,1.045-0.145,2.022-0.255,2.734
							C170.451,365.228,170.333,365.667,170.333,365.667z"/>
					</g>
				</g>
			</g>
			<g>
				<g>
					<g>
						<path d="M167.333,367.333c0,0-0.485-1.865-0.485-4.167s0.485-4.167,0.485-4.167s0.485,1.865,0.485,4.167
							C167.819,365.468,167.333,367.333,167.333,367.333z"/>
					</g>
				</g>
			</g>
			<g>
				<g>
					<g>
						<path d="M165,369.333c0,0-0.51-1.796-0.399-4.053c0.114-1.128,0.308-2.137,0.604-2.834c0.259-0.702,0.461-1.113,0.461-1.113
							s0.032,0.474,0.016,1.202c-0.053,0.722-0.001,1.723-0.112,2.807C165.463,367.526,165,369.333,165,369.333z"/>
					</g>
				</g>
			</g>
			<g>
				<g>
					<g>
						<path d="M164,372c0,0-0.485-1.79-0.485-4s0.485-4,0.485-4s0.485,1.79,0.485,4S164,372,164,372z"/>
					</g>
				</g>
			</g>
			<g>
				<g>
					<g>
						<path d="M163.666,372.333c0,0-0.146-0.604-0.308-1.564c-0.124-0.963-0.419-2.273-0.579-3.734
							c-0.428-2.912-0.446-5.368-0.446-5.368s0.97,2.264,1.408,5.236c0.165,1.494,0.219,2.855,0.102,3.844
							C163.763,371.732,163.666,372.333,163.666,372.333z"/>
					</g>
				</g>
			</g>
			<g>
				<g>
					<g>
						<path d="M163,368c0,0-0.062-0.117-0.171-0.322c-0.093-0.212-0.294-0.516-0.404-0.926c-0.281-0.812-0.456-2.004-0.366-3.299
							c0.119-1.29,0.443-2.415,0.738-3.201c0.294-0.788,0.537-1.252,0.537-1.252s-0.008,0.526-0.062,1.353
							c-0.056,0.828-0.132,1.954-0.245,3.176c-0.083,1.221-0.157,2.321-0.124,3.134c-0.014,0.412,0.065,0.73,0.071,0.968
							C162.99,367.867,163,368,163,368z"/>
					</g>
				</g>
			</g>
			<g>
				<g>
					<g>
						<path d="M165,367.667c0,0-0.844-1.823-1.285-4.244c-0.294-2.417-0.049-4.423-0.049-4.423s0.719,1.893,1.01,4.286
							C165.105,365.632,165,367.667,165,367.667z"/>
					</g>
				</g>
			</g>
			<g>
				<g>
					<g>
						<path d="M164.333,367.333c0,0-0.485-2.015-0.485-4.5s0.485-4.5,0.485-4.5s0.485,2.015,0.485,4.5
							C164.819,365.319,164.333,367.333,164.333,367.333z"/>
					</g>
				</g>
			</g>
			<g>
				<g>
					<g>
						<path d="M165.666,371.667c0,0-0.56-2.607-0.651-5.812c-0.093-3.238,0.318-5.854,0.318-5.854s0.56,2.606,0.651,5.812
							C166.078,369.051,165.666,371.667,165.666,371.667z"/>
					</g>
				</g>
			</g>
			<g>
				<g>
					<g>
						<path d="M164,373.333c0,0-0.485-1.492-0.485-3.333s0.485-3.333,0.485-3.333s0.485,1.492,0.485,3.333S164,373.333,164,373.333z
							"/>
					</g>
				</g>
			</g>
			<g>
				<g>
					<g>
						<path d="M166.666,372c0,0-0.818-1.76-1.246-4.077c-0.325-2.32-0.087-4.256-0.087-4.256s0.726,1.811,1.047,4.109
							C166.799,370.043,166.666,372,166.666,372z"/>
					</g>
				</g>
			</g>
			<g>
				<g>
					<g>
						<path d="M168.333,371.667c0,0-0.596-2.09-0.727-4.643c-0.396-2.522-0.273-4.69-0.273-4.69s0.831,1.982,1.238,4.588
							C168.71,369.554,168.333,371.667,168.333,371.667z"/>
					</g>
				</g>
			</g>
			<g>
				<g>
					<g>
						<path d="M170.666,373.667c0,0-0.831-2.219-1.271-5.093c-0.303-2.87-0.062-5.24-0.062-5.24s0.725,2.27,1.026,5.125
							C170.791,371.274,170.666,373.667,170.666,373.667z"/>
					</g>
				</g>
			</g>
			<g>
				<g>
					<g>
						<path d="M172.333,371.333c0,0-0.579-1.785-0.693-3.965c-0.251-2.192,0.026-4.035,0.026-4.035s0.687,1.729,0.941,3.944
							C172.727,369.527,172.333,371.333,172.333,371.333z"/>
					</g>
				</g>
			</g>
			<g>
				<g>
					<g>
						<path d="M173.333,367.667c-0.001,0-0.017,0.762-0.064,1.996c-0.011,0.318-0.022,0.624-0.094,1.04
							c-0.111,0.554-0.246,1.199-0.5,1.88c-0.12,0.352-0.242,0.713-0.367,1.081c-0.018,0.082-0.03,0.024-0.043-0.02l-0.04-0.124
							l-0.082-0.253l-0.169-0.526c-0.11-0.362-0.246-0.728-0.324-1.142l-0.136-0.618l-0.068-0.314
							c-0.024-0.108-0.023-0.134-0.036-0.206c-0.223-1.956,0.163-3.661,0.42-4.86c0.285-1.201,0.503-1.935,0.503-1.935
							s0.021,0.769-0.022,1.997c-0.019,1.224-0.144,2.912,0.062,4.683l0.021,0.134l-0.001-0.001l-0.004,0.001
							c-0.003,0.003-0.005,0.019-0.006,0.044l0.005,0.115c0.006,0.017,0.016,0.026,0.03,0.026c0.035,0.001,0.073-0.045,0.121-0.149
							c0.092-0.273,0.184-0.64,0.249-0.927C173.076,368.396,173.333,367.667,173.333,367.667z"/>
					</g>
				</g>
			</g>
			<g>
				<g>
					<g>
						<path d="M174,370c0,0-0.116-0.544-0.202-1.434c-0.081-0.89-0.117-2.112-0.075-3.435c0.029-1.321,0.07-2.5,0.039-3.372
							c-0.058-0.865-0.095-1.425-0.095-1.425s0.062,0.126,0.169,0.349c0.095,0.229,0.283,0.558,0.404,0.992
							c0.278,0.863,0.485,2.115,0.454,3.48c-0.043,1.361-0.25,2.565-0.411,3.433C174.126,369.456,174,370,174,370z"/>
					</g>
				</g>
			</g>
			<g>
				<g>
					<g>
						<path d="M174.333,372.333c0,0-0.56-2.457-0.652-5.478c-0.093-3.055,0.318-5.522,0.318-5.522s0.56,2.457,0.652,5.478
							C174.745,369.866,174.333,372.333,174.333,372.333z"/>
					</g>
				</g>
			</g>
			<g>
				<g>
					<g>
						<path d="M170.333,375.333c0,0-0.411-2.914-0.319-6.518c0.092-3.576,0.652-6.481,0.652-6.481s0.411,2.914,0.319,6.519
							C170.894,372.428,170.333,375.333,170.333,375.333z"/>
					</g>
				</g>
			</g>
			<g>
				<g>
					<g>
						<path d="M169.333,369.333c0,0-0.485-1.94-0.485-4.333s0.485-4.333,0.485-4.333s0.485,1.94,0.485,4.333
							S169.333,369.333,169.333,369.333z"/>
					</g>
				</g>
			</g>
			<g>
				<g>
					<g>
						<path d="M167.666,371.667c0,0-0.041-0.165-0.114-0.457c-0.084-0.299-0.153-0.737-0.2-1.28c-0.11-1.089-0.11-2.6,0.129-4.241
							c0.217-1.644,0.686-3.09,1.08-4.104c0.191-0.51,0.42-0.898,0.551-1.17c0.142-0.266,0.221-0.415,0.221-0.415
							s-0.119,0.669-0.305,1.716c-0.152,1.07-0.359,2.519-0.586,4.111c-0.233,1.601-0.473,3.052-0.605,4.109
							c-0.073,0.53-0.127,0.96-0.134,1.259C167.68,371.497,167.666,371.667,167.666,371.667z"/>
					</g>
				</g>
			</g>
			<g>
				<g>
					<g>
						<path d="M166.333,371.333c0,0-0.118-0.564-0.233-1.48c-0.134-0.912-0.186-2.19-0.121-3.598
							c0.169-1.408,0.404-2.672,0.785-3.537c0.327-0.873,0.57-1.386,0.57-1.386s-0.011,0.587-0.096,1.492
							c-0.139,0.895-0.126,2.148-0.29,3.505c-0.062,1.374-0.253,2.615-0.362,3.529C166.458,370.769,166.333,371.333,166.333,371.333
							z"/>
					</g>
				</g>
			</g>
			<g>
				<g>
					<g>
						<path d="M165,371.333c0,0-0.127-0.508-0.279-1.316c-0.157-0.81-0.364-1.925-0.41-3.197c-0.032-1.273,0.153-2.45,0.443-3.252
							c0.114-0.406,0.313-0.706,0.408-0.917c0.11-0.203,0.172-0.318,0.172-0.318s-0.01,0.132-0.028,0.365
							c-0.007,0.236-0.085,0.552-0.075,0.961c-0.042,0.808,0.021,1.904,0.051,3.132c0.044,1.23,0.009,2.375-0.075,3.203
							C165.115,370.826,165,371.333,165,371.333z"/>
					</g>
				</g>
			</g>
			<g>
				<g>
					<g>
						<path d="M172.666,367c0,0-0.037-0.148-0.102-0.411c-0.051-0.266-0.176-0.656-0.21-1.144c-0.135-0.976-0.128-2.354,0.183-3.839
							c0.359-1.477,1.009-2.73,1.647-3.5c0.28-0.408,0.642-0.64,0.829-0.832c0.206-0.175,0.321-0.273,0.321-0.273
							s-0.075,0.135-0.207,0.374c-0.116,0.25-0.368,0.539-0.531,0.989c-0.401,0.855-0.774,2.081-1.112,3.46
							c-0.29,1.391-0.536,2.671-0.643,3.621c-0.087,0.475-0.084,0.861-0.124,1.132C172.684,366.847,172.666,367,172.666,367z"/>
					</g>
				</g>
			</g>
			<g>
				<g>
					<g>
						<path d="M173,367c0,0-0.485-1.865-0.485-4.167c0-2.301,0.485-4.167,0.485-4.167s0.485,1.865,0.485,4.167S173,367,173,367z"/>
					</g>
				</g>
			</g>
			<g>
				<g>
					<g>
						<path d="M176,375.667c0,0-0.017-0.251-0.048-0.701c-0.014-0.451-0.091-1.112-0.06-1.923c0.015-1.626,0.236-3.865,0.649-6.289
							c0.426-2.401,0.813-4.58,1.095-6.171C177.86,358.997,178,358,178,358s0.018,0.251,0.049,0.701
							c0.019,0.451,0.086,1.111,0.071,1.922c-0.015,1.624-0.201,3.87-0.621,6.294c-0.412,2.423-0.868,4.585-1.123,6.169
							C176.145,374.671,176,375.667,176,375.667z"/>
					</g>
				</g>
			</g>
			<g>
				<path d="M576.278,359.787c-2.73-0.594-6.545-0.813-10.764-0.924c-3.119,0.033-6.01,0.198-8.415,0.393
					c0.025,0.446,0,0.892-0.078,1.332c2.427,0.145,5.352,0.25,8.493,0.217c4.163,0.11,7.95-0.157,10.682-0.05
					c2.741,0.001,2.179,0.121,2.179,0.121S579.01,360.275,576.278,359.787z"/>
			</g>
			<g>
				<g>
					<g>
						<path d="M580,369.667c0,0,0.078-0.319,0.22-0.895c0.122-0.572,0.314-1.406,0.323-2.4c0.029-0.988-0.179-2.128-0.915-2.983
							c-0.709-0.874-1.946-1.477-3.371-1.895c-2.877-0.815-5.788-1.061-7.86-1.347c-2.09-0.253-3.396-0.482-3.396-0.482
							s1.293-0.256,3.405-0.489c1.058-0.111,2.324-0.206,3.748-0.184c1.421,0.027,3.01,0.152,4.661,0.642
							c1.627,0.475,3.257,1.365,4.15,2.807c0.442,0.703,0.669,1.477,0.723,2.18c0.035,0.703-0.036,1.338-0.183,1.88
							c-0.271,1.094-0.709,1.861-1.003,2.382C580.18,369.387,580,369.667,580,369.667z"/>
					</g>
				</g>
			</g>
			<g>
				<path d="M580.477,365.467c-0.079-0.947-0.144-1.467-0.144-1.467s-0.057,0.522-0.159,1.462c-0.053,0.469-0.118,1.043-0.236,1.689
					c-0.119,0.64-0.295,1.371-0.703,1.98c-0.392,0.619-1.046,1.063-1.91,1.347c-0.859,0.293-1.844,0.475-2.893,0.511
					c-2.112,0.139-4.469-0.222-7.018-0.567c-1.27-0.161-2.562-0.341-3.8-0.355c-1.228,0.018-2.412,0.034-3.541,0.05
					c-2.259,0.044-4.276,0.14-5.953,0.312c-0.479,0.042-0.925,0.084-1.351,0.124c0.115,0.264,0.215,0.525,0.289,0.784
					c0.343,0.021,0.696,0.042,1.072,0.063c1.696,0.069,3.696,0.218,5.897,0.355c1.103,0.053,2.259,0.108,3.457,0.166
					c1.189,0.065,2.39,0.264,3.671,0.426c2.542,0.344,5.096,0.617,7.436,0.273c1.176-0.142,2.272-0.454,3.247-0.919
					c0.492-0.223,0.947-0.534,1.348-0.875c0.377-0.376,0.715-0.779,0.898-1.228c0.407-0.879,0.448-1.703,0.463-2.386
					C580.557,366.522,580.515,365.941,580.477,365.467z"/>
			</g>
			<g>
				<g>
					<g>
						<path d="M562.001,370.834c0,0-0.039-0.645-0.03-1.655c0.053-1.005-0.038-2.4,0.044-3.926c0.031-3.07,0.486-5.586,0.486-5.586
							s0.516,2.495,0.484,5.608c-0.083,1.56-0.236,2.968-0.533,3.963C562.201,370.236,562.001,370.834,562.001,370.834z"/>
					</g>
				</g>
			</g>
			<g>
				<g>
					<g>
						<path d="M562.334,363.167c0,0-0.485-0.709-0.485-1.583s0.485-1.583,0.485-1.583s0.485,0.709,0.485,1.583
							C562.819,362.458,562.334,363.167,562.334,363.167z"/>
					</g>
				</g>
			</g>
			<g>
				<g>
					<g>
						<path d="M562.334,370.667c0,0-0.485-0.671-0.485-1.5s0.485-1.5,0.485-1.5s0.485,0.671,0.485,1.5
							S562.334,370.667,562.334,370.667z"/>
					</g>
				</g>
			</g>
			<g>
				<g>
					<g>
						<path d="M562.668,365.667c0,0,0.103,0.307,0.196,0.822c0.111,0.522,0.128,1.227,0.035,1.993
							c-0.091,0.749-0.314,1.411-0.443,1.891c-0.15,0.483-0.288,0.793-0.288,0.793s-0.105-0.307-0.196-0.822
							c-0.111-0.522-0.128-1.227-0.035-1.993c0.091-0.749,0.314-1.411,0.443-1.891C562.528,365.978,562.668,365.667,562.668,365.667
							z"/>
					</g>
				</g>
			</g>
			<g>
				<g>
					<g>
						<path d="M562.501,359.833c0,0,0.072,0.294,0.118,0.744c0.025,0.453,0.111,1.049,0.055,1.689
							c0.033,0.63-0.09,1.216-0.082,1.654c-0.031,0.441-0.091,0.747-0.091,0.747s-0.172-0.229-0.386-0.653
							c-0.252-0.417-0.381-1.057-0.412-1.773c0.059-0.705,0.222-1.329,0.437-1.742C562.336,360.078,562.501,359.833,562.501,359.833
							z"/>
					</g>
				</g>
			</g>
		</g>
	</g>
</g>
</svg>
