<?xml version="1.0" encoding="utf-8"?>
<!-- Generator: Adobe Illustrator 25.0.1, SVG Export Plug-In . SVG Version: 6.00 Build 0)  -->
<svg version="1.1" id="Capa_1" xmlns="http://www.w3.org/2000/svg" xmlns:xlink="http://www.w3.org/1999/xlink" x="0px" y="0px"
	 viewBox="0 0 800 800" enable-background="new 0 0 800 800" xml:space="preserve">
<g id="cara_base">
	<g id="tono_1_copia">
		<g id="Capa_23_copia_2">
			<g>
				<path fill="#D88F6F" d="M581.118,381.309c-3.737-11.354-7.358-27.374-3.694-39.585c2.229-7.427,16.295-28.637,1.021-31.47
					c-12.495-2.317-19.994,13.778-21.939,23.039c-1.499,7.139-2.8,13.831-7.631,19.792c-0.396,0.488-0.806,0.966-1.214,1.446
					c0.068,0.257,0.109,0.529,0.135,0.807c-2.747,1.892-4.656,5.199-7.236,7.865c-2.831,2.926-3.243,3.023-3.037,6.407
					c0.177,2.9,1.292,6.606,1.7,9.54c1.935,13.921,2.962,28.196,3.696,42.608c0.378,7.397,1.442,12.916,3.486,19.442
					c1.82,5.811,1.82,12.993,4.508,18.42c2.293,4.632,9.593,9.511,15.281,7.442c1.854-0.674,2.818-1.613,3.213-2.717
					c3.751-3.796,2.517-11.102,1.16-16.288c-1.552-5.935-2.49-13.176,2.473-19.106c3.346-3.997,6.847-6.046,10.216-10.465
					C591.482,407.692,584.562,391.772,581.118,381.309z"/>
				<g>
					<path opacity="0.6" fill="#BA665D" enable-background="new    " d="M561.351,366.011c2.382,3.361,0.295,5.33,0.891,8.529
						c0.421,2.263,2.953,5.163,3.944,7.316c2.621,5.698,2.215,11.552,4.482,17.547c1.087,2.877,2.421,6.784-1.226,7.966
						c-4.118,1.335-5.561-2.364-5.843-5.393c-0.416-4.446,0.434-4.526-2.237-8.204c-2.06-2.837-2.123-4.989-3.508-8.081
						c-0.827-1.85-2.452-1.994-2.806-3.958c-0.238-1.321,1.389-3.678,1.932-4.809c1.267-2.635,2.449-7.517,4.82-9.116"/>
					<g>
						<g>
							<g>
								<path d="M548.538,457.498c0,0,0.132,0.195,0.393,0.577c0.254,0.386,0.65,0.948,1.18,1.676
									c1.077,1.427,2.677,3.606,5.353,5.68c1.348,0.994,3.018,1.933,4.996,2.234c0.488,0.104,1.003,0.055,1.516,0.093
									c0.515-0.026,1.036-0.132,1.566-0.192c0.514-0.168,1.044-0.31,1.568-0.502c0.503-0.254,1.025-0.486,1.537-0.765
									c0.974-0.66,2.048-1.289,2.878-2.175c0.857-0.862,1.5-1.945,1.877-3.157c0.766-2.446,0.363-5.319-0.368-8.207
									c-0.723-2.919-1.85-5.916-2.635-9.269c-0.385-1.656-0.671-3.514-0.53-5.354c0.007-1.845,0.517-3.81,1.381-5.548
									c0.858-1.757,2.059-3.326,3.373-4.745c1.318-1.425,2.759-2.698,4.174-3.989c2.809-2.571,5.728-5.145,7.201-8.546
									c0.773-1.683,1.251-3.522,1.449-5.44c0.2-1.922,0.101-3.918-0.144-5.935c-0.495-4.045-1.662-8.153-2.812-12.422
									c-2.186-8.446-5.35-17.046-7.258-26.39c-0.941-4.662-1.524-9.408-1.353-14.142c0.154-4.72,1.154-9.437,3.082-13.647
									c0.96-2.117,2.053-4.016,3.055-5.913c1.01-1.889,1.956-3.755,2.734-5.633c0.765-1.875,1.362-3.771,1.566-5.62
									c0.204-1.846-0.051-3.611-0.884-5.073c-0.417-0.731-0.94-1.404-1.618-1.974l-0.476-0.45
									c-0.166-0.138-0.354-0.241-0.528-0.364c-0.356-0.234-0.692-0.505-1.091-0.646c-1.507-0.749-3.226-0.969-4.921-0.758
									c-1.698,0.206-3.368,0.805-4.885,1.648c-1.521,0.837-2.912,1.885-4.137,3.06c-0.294,0.305-0.604,0.595-0.885,0.907
									l-0.809,0.957l-0.717,0.996c-0.244,0.324-0.408,0.727-0.615,1.085c-0.396,0.736-0.787,1.465-1.175,2.187
									c-0.314,0.768-0.625,1.528-0.933,2.281c-0.332,0.742-0.57,1.522-0.816,2.289c-0.242,0.77-0.511,1.517-0.723,2.283
									c-0.424,1.534-0.849,3.026-1.234,4.515c-0.765,2.961-1.593,5.8-2.543,8.429c-0.492,1.309-1.09,2.544-1.604,3.756
									c-0.636,1.152-1.21,2.292-1.846,3.341c-2.547,4.204-5.159,7.511-7.309,10.179c-4.354,5.292-6.76,8.217-6.76,8.217
									s2.256-3.042,6.336-8.543c2.018-2.757,4.465-6.164,6.791-10.389c0.581-1.055,1.095-2.189,1.67-3.334
									c0.451-1.198,0.979-2.402,1.409-3.69c0.825-2.595,1.531-5.385,2.194-8.379c0.331-1.488,0.712-3.026,1.089-4.595
									c0.19-0.784,0.443-1.573,0.666-2.372c0.229-0.8,0.45-1.611,0.775-2.409c0.3-0.804,0.604-1.616,0.91-2.435
									c0.395-0.792,0.792-1.592,1.193-2.399c0.217-0.399,0.376-0.818,0.644-1.207c0.262-0.389,0.518-0.788,0.793-1.172
									c0.291-0.366,0.586-0.734,0.88-1.104c0.306-0.359,0.641-0.695,0.963-1.045c1.335-1.355,2.858-2.57,4.572-3.573
									c1.707-1.003,3.641-1.772,5.746-2.083c2.092-0.317,4.402-0.101,6.457,0.864c0.537,0.195,0.996,0.524,1.475,0.828
									c0.234,0.158,0.484,0.299,0.705,0.473l0.629,0.56c0.863,0.707,1.626,1.616,2.227,2.631c1.229,2.048,1.591,4.539,1.371,6.803
									c-0.214,2.285-0.875,4.434-1.675,6.49c-0.812,2.052-1.781,4.023-2.784,5.962c-0.994,1.938-2.054,3.846-2.892,5.754
									c-1.704,3.835-2.571,8.065-2.694,12.436c-0.135,4.373,0.418,8.857,1.326,13.346c1.827,8.992,4.928,17.603,7.071,26.239
									c1.092,4.243,2.257,8.508,2.731,12.896c0.23,2.19,0.309,4.41,0.042,6.615c-0.265,2.2-0.867,4.37-1.823,6.345
									c-0.447,1.005-1.064,1.912-1.656,2.814l-0.986,1.258l-1.047,1.16c-1.425,1.495-2.929,2.795-4.382,4.052
									c-2.901,2.49-5.671,4.88-7.2,7.819c-0.767,1.46-1.232,2.996-1.287,4.629c-0.173,1.63,0.021,3.192,0.335,4.796
									c0.636,3.184,1.667,6.25,2.315,9.303c0.327,1.524,0.582,3.051,0.626,4.578c0.049,1.519-0.093,3.052-0.604,4.457
									c-0.493,1.404-1.315,2.655-2.33,3.598c-1.004,0.977-2.155,1.584-3.219,2.242c-0.566,0.279-1.148,0.512-1.705,0.761
									c-0.583,0.188-1.176,0.321-1.744,0.477c-0.593,0.048-1.171,0.135-1.739,0.138c-0.566-0.061-1.132-0.039-1.66-0.174
									c-2.146-0.427-3.851-1.508-5.192-2.596c-2.652-2.267-4.134-4.53-5.144-6.017c-0.494-0.757-0.858-1.339-1.092-1.738
									C548.66,457.7,548.538,457.498,548.538,457.498z"/>
							</g>
							<g>
								<path d="M567.678,354.17c0,0-0.598,1.336-1.679,3.751c-0.564,1.191-1.172,2.692-1.894,4.422
									c-0.718,1.734-1.535,3.709-2.439,5.892c-0.883,2.183-1.96,4.576-3.048,7.111c-1.052,2.478-1.974,5.253-2.726,8.205
									c-0.755,2.954-1.34,6.107-1.613,9.377c-0.267,3.261-0.238,6.667,0.472,9.948c0.7,3.272,2.141,6.216,4.342,8.268
									c0.262,0.27,0.556,0.502,0.85,0.731l0.332,0.271l0.522,0.305c0.718,0.42,1.47,0.853,2.215,1.374
									c0.741,0.523,1.495,1.136,2.128,1.978c0.638,0.826,1.063,1.969,1.067,3.051l-0.045,0.788
									c-0.04,0.249-0.096,0.49-0.148,0.733c-0.043,0.251-0.143,0.454-0.215,0.68c-0.069,0.188-0.169,0.521-0.334,0.747
									c-0.466,0.832-1.139,1.553-1.868,2.069c-1.472,1.043-2.999,1.457-4.32,1.856c-1.321,0.403-2.578,0.725-3.439,1.338
									c-0.217,0.168-0.472,0.283-0.661,0.485c-0.2,0.189-0.398,0.378-0.596,0.563c-0.327,0.426-0.691,0.827-0.911,1.307
									c-0.287,0.446-0.421,0.952-0.611,1.426c-0.093,0.501-0.258,0.983-0.269,1.479c-0.133,0.98-0.004,1.93,0.135,2.808
									c0.351,1.754,1.089,3.186,1.857,4.215c0.771,1.036,1.532,1.726,2.078,2.146c0.564,0.406,0.861,0.618,0.861,0.618
									s-0.325-0.17-0.943-0.496c-0.605-0.351-1.473-0.944-2.407-1.928c-0.934-0.977-1.9-2.399-2.496-4.285
									c-0.259-0.947-0.51-1.998-0.476-3.146c-0.039-0.574,0.085-1.16,0.15-1.77c0.164-0.592,0.282-1.223,0.579-1.812
									c0.514-1.208,1.346-2.373,2.531-3.266c1.198-0.963,2.59-1.395,3.873-1.901c1.297-0.48,2.557-0.975,3.463-1.724
									c0.455-0.369,0.801-0.802,1.048-1.313c0.059-0.1,0.161-0.47,0.216-0.73l0.061-0.407c-0.005-0.128-0.005-0.253,0-0.379
									c-0.043-0.483-0.208-0.891-0.562-1.32c-0.352-0.426-0.875-0.843-1.484-1.233c-0.61-0.393-1.306-0.764-2.042-1.159
									l-0.57-0.311c-0.37-0.213-0.475-0.336-0.682-0.478c-0.379-0.278-0.755-0.561-1.098-0.891
									c-2.874-2.527-4.683-6.205-5.478-9.958c-0.811-3.781-0.766-7.504-0.386-10.995c0.39-3.498,1.145-6.791,2.094-9.846
									c0.949-3.057,2.084-5.87,3.391-8.424c1.299-2.456,2.509-4.744,3.613-6.833c1.094-2.095,2.096-3.986,3.013-5.634
									c0.906-1.651,1.683-3.073,2.393-4.197C566.91,355.418,567.678,354.17,567.678,354.17z"/>
							</g>
							<g>
								<path d="M573.485,401.043c0.001,0-0.005-0.572-0.076-1.565c-0.062-0.994-0.244-2.408-0.555-4.083
									c-0.616-3.354-1.877-7.734-3.476-11.988c-1.598-4.253-3.496-8.402-5.146-11.35c-0.818-1.473-1.572-2.65-2.129-3.366
									c-0.28-0.355-0.493-0.582-0.63-0.716c-0.107-0.071-0.178-0.152-0.158-0.123c0.003,0.007,0.016,0.003,0.033-0.013
									c0.071-0.099,0.15-0.229,0.208-0.343l0.083-0.176l0.035-0.087l0.168-0.043l0.156-0.011v-0.002V367h-0.251l-0.235,0.534
									l-0.01,0.042l0.005,0.016c0.06-0.034,0.114-0.076,0.162-0.141c0.204-0.269,0.184-0.732,0.173-1.198
									c-0.011-0.466,0.095-0.9,0.502-1.117c0.098-0.053,0.209-0.089,0.33-0.108c0.098-0.023,0.166-0.039,0.253-0.039
									c0.165-0.002,0.334,0.05,0.476,0.15c0.062,0.038,0.216,0.191,0.525,0.506c0.114,0.142,0.253,0.315,0.413,0.515
									c0.146,0.197,0.285,0.415,0.453,0.661c0.617,0.973,1.306,2.321,2.024,3.952c1.443,3.256,2.971,7.646,4.188,12.108
									c1.217,4.461,2.073,9.003,2.377,12.439c0.153,1.717,0.202,3.15,0.171,4.152
									C573.534,400.475,573.486,401.043,573.485,401.043z"/>
							</g>
							<g>
								<path d="M563.946,406.022c0,0-0.024-0.393-0.063-1.079c-0.01-0.342-0.051-0.756-0.123-1.228
									c-0.06-0.474-0.125-1.005-0.256-1.575c-0.2-1.149-0.603-2.455-1.073-3.823c-0.518-1.357-1.132-2.774-1.859-4.142
									c-1.446-2.738-3.195-5.311-4.573-7.229c-1.4-1.912-2.348-3.203-2.379-3.247c-0.118-0.184,0.43-0.75,1.223-1.263
									c0.793-0.514,1.533-0.78,1.653-0.596c0.013,0.024,0.217,0.391,0.564,1.011c0.342,0.629,0.822,1.518,1.396,2.577
									c1.134,2.131,2.577,5.027,3.683,8.057c0.558,1.512,0.994,3.066,1.333,4.529c0.294,1.479,0.521,2.859,0.563,4.058
									c0.054,0.593,0.046,1.14,0.041,1.624c0.007,0.482-0.009,0.9-0.046,1.246C563.976,405.629,563.946,406.022,563.946,406.022z"
									/>
							</g>
						</g>
						<g>
							<path d="M579.333,309.366c0,0-0.298,0.013-0.856,0.039c-0.557,0.043-1.38,0.016-2.411,0.181
								c-2.038,0.228-5.107,0.758-8.009,2.853c-2.929,2.042-5.229,5.669-6.993,9.73c-1.759,4.099-2.87,8.751-4.172,13.368
								c-0.653,2.31-1.359,4.618-2.232,6.84c-0.861,2.234-1.994,4.316-3.033,6.299c-2.105,3.989-4.236,7.674-6.438,10.634
								c-0.583,0.716-1.143,1.402-1.676,2.056c-0.541,0.641-1.078,1.211-1.572,1.769c-1.006,1.104-1.829,2.072-2.529,2.874
								c-0.724,0.787-1.19,1.471-1.537,1.936c-0.346,0.466-0.54,0.73-0.564,0.762c-0.39,0.515-1.033,0.716-1.436,0.452
								c-0.402-0.265-0.395-0.924,0.02-1.473c0.026-0.034,0.237-0.308,0.61-0.792c0.375-0.481,0.892-1.196,1.643-1.978
								c0.731-0.802,1.611-1.788,2.624-2.85c0.499-0.539,1.055-1.103,1.595-1.714c0.526-0.617,1.08-1.266,1.657-1.941
								c2.186-2.806,4.369-6.382,6.555-10.305c1.095-1.979,2.235-3.963,3.124-6.12c0.902-2.152,1.651-4.415,2.353-6.697
								c1.399-4.562,2.627-9.229,4.504-13.344c1.88-4.072,4.302-7.71,7.343-9.732c3.009-2.065,6.108-2.521,8.156-2.704
								c1.037-0.142,1.862-0.095,2.42-0.125C579.035,309.373,579.333,309.366,579.333,309.366z"/>
						</g>
						<g>
							<path d="M570.642,432.098c0,0-0.086,0.204-0.244,0.587c-0.156,0.384-0.413,0.935-0.624,1.68
								c-0.47,1.457-0.931,3.679-0.512,6.288c0.026,0.328,0.125,0.651,0.203,0.983c0.089,0.33,0.148,0.674,0.265,1.009
								c0.243,0.67,0.493,1.362,0.751,2.075c0.53,1.431,1.073,2.949,1.502,4.57c0.428,1.615,0.793,3.323,0.91,5.093
								c0.117,1.756,0.159,3.596-0.327,5.393c-0.462,1.798-1.483,3.443-2.752,4.733c-1.244,1.298-2.748,2.377-4.364,3.052
								c-1.61,0.67-3.32,1.051-4.967,0.943c-1.646-0.087-3.171-0.605-4.432-1.298c-2.454-1.506-3.965-3.281-5.081-4.418
								c-1.094-1.171-1.726-1.831-1.771-1.869c-0.333-0.347-0.326-0.906,0.013-1.248c0.34-0.343,0.9-0.323,1.251,0.044
								c0.05,0.041,0.694,0.756,1.74,1.946c1.062,1.161,2.493,2.899,4.598,4.277c1.077,0.627,2.342,1.103,3.762,1.226
								c1.422,0.143,2.964-0.15,4.438-0.71c1.481-0.568,2.863-1.487,4.078-2.676c1.214-1.164,2.167-2.604,2.646-4.239
								c0.499-1.629,0.522-3.395,0.459-5.11c-0.061-1.721-0.365-3.4-0.737-5.004c-0.371-1.605-0.864-3.131-1.347-4.567
								c-0.238-0.727-0.469-1.434-0.693-2.117c-0.108-0.345-0.158-0.7-0.238-1.039c-0.069-0.342-0.159-0.672-0.177-1.01
								c-0.344-2.676,0.195-4.903,0.711-6.35c0.235-0.741,0.509-1.287,0.678-1.665C570.55,432.299,570.642,432.098,570.642,432.098z
								"/>
						</g>
					</g>
					<path opacity="0.3" enable-background="new    " d="M560.9,367.809c1.095-4.408,4.468-9.733,6.766-13.779
						c-1.264,7.122-1.533,11.686,1.438,18.614c2.537,5.919,4.215,12.168,4.835,18.543c0.776,7.979,0.287,11.424-4.407,17.646
						c-1.69,2.239-3.39,5.033-3.246,7.99c0.175,3.602,2.58,4.48-0.551,7.971c-3.362,3.75-17.475,8.984-8.947,16.228
						c-2.041-1.479-4.251-4.667-4.526-7.477c-0.362-3.688,1.084-4.274,4.046-6.49c4.477-3.35,12.327-6.107,5.843-12.39
						c-2.163-2.096-4.47-2.542-6.094-5.595c-1.302-2.447-2.141-5.899-2.697-8.542c-1.347-6.4-1.044-13.855,1.798-19.581
						c1.639-3.302,3.154-8.194,5.295-10.89"/>
					<g opacity="0.3">
						<g>
							<g>
								<path fill="#FFFFFF" d="M567.495,455.775c0,0,0.118,0.18,0.301,0.523c0.194,0.342,0.428,0.851,0.61,1.532
									c0.184,0.678,0.298,1.54,0.153,2.558c-0.148,1.001-0.7,2.238-1.803,3.092c-1.104,0.859-2.416,1.061-3.415,0.978
									c-1.027-0.065-1.822-0.418-2.449-0.726c-0.613-0.352-1.062-0.68-1.351-0.949c-0.292-0.258-0.44-0.415-0.44-0.415
									s0.214-0.039,0.594-0.108c0.357-0.059,0.872-0.143,1.503-0.246c1.215-0.222,2.678-0.659,3.421-1.296
									c0.399-0.312,0.79-0.708,1.145-1.261c0.339-0.551,0.655-1.163,0.898-1.724c0.248-0.56,0.456-1.054,0.588-1.404
									C567.407,455.975,567.495,455.775,567.495,455.775z"/>
							</g>
						</g>
					</g>
					<g opacity="0.3">
						<g>
							<g>
								<path fill="#FFFFFF" d="M571.69,422.207c0,0,1.01-1.438,2.926-3.97c0.941-1.272,2.154-2.798,3.311-4.679
									c1.132-1.883,2.184-4.151,2.38-6.85c0.25-2.669-0.119-5.727-0.799-8.853c-0.461-1.579-0.938-3.212-1.429-4.895
									c-0.524-1.686-1.065-3.423-1.618-5.203c-2.23-7.129-4.878-15.005-6.477-23.681c-0.381-2.169-0.611-4.35-0.906-6.48
									c-0.104-2.164-0.217-4.288-0.243-6.393c0.059-4.306,1.136-8.419,2.642-11.975c1.507-3.573,3.312-6.675,4.837-9.598
									c0.729-1.465,1.486-2.927,2.093-4.254c0.58-1.339,0.971-2.694,1.164-4.012c0.373-2.622-0.083-5.156-1.372-6.762
									c-0.623-0.814-1.462-1.321-2.308-1.552c-0.856-0.219-1.708-0.141-2.441,0.043c-1.477,0.403-2.514,1.121-3.169,1.616
									c-0.661,0.503-0.988,0.799-0.988,0.799s0.286-0.332,0.892-0.914c0.606-0.573,1.558-1.42,3.103-2.022
									c0.771-0.279,1.72-0.475,2.765-0.316c1.034,0.169,2.138,0.706,2.977,1.616c1.731,1.808,2.47,4.682,2.28,7.667
									c-0.102,1.501-0.429,3.053-0.973,4.595c-0.575,1.532-1.212,2.973-1.872,4.536c-1.375,3.075-2.987,6.242-4.244,9.638
									c-1.257,3.392-2.074,7.047-2.042,10.923c0.074,1.967,0.22,3.99,0.338,6.03c0.312,2.037,0.541,4.11,0.907,6.198
									c1.536,8.355,3.938,16.214,5.868,23.473c0.475,1.824,0.959,3.583,1.379,5.33c0.403,1.753,0.795,3.456,1.174,5.101
									c0.526,3.418,0.692,6.623,0.194,9.583c-0.45,2.971-1.846,5.4-3.195,7.232c-1.381,1.843-2.738,3.236-3.808,4.409
									C572.882,420.918,571.69,422.207,571.69,422.207z"/>
							</g>
						</g>
					</g>
				</g>
			</g>
			<g>
				<path fill="#D88F6F" d="M224.396,346.927c3.524-0.355,3.909,3.493,6.184,5.056c1.807,1.241,6.943,0.84,8.111,3.128
					c1.088,2.131-1.943,7.393-2.167,9.799c-0.344,3.706,0.199,7.519,0.01,11.239c-0.645,12.761-4.066,25.177-8.554,36.852
					c-4.624,12.03-9.83,23.56-6.281,36.878c1.77,6.643,1.454,12.863-5.857,15.272c-7.579,2.499-7.596-7.735-8.179-13.374
					c-0.305-2.94-1.208-7.829-0.373-10.912c0.776-2.865,3.411-4.979,4.168-7.97c1.646-6.509,0.351-15.235,0.351-22.129
					c0-16.365-0.696-32.814,2.258-48.553c1.04-5.544,2.537-12.166,7.183-16.185"/>
				<path fill="#D88F6F" d="M211.213,459.2c-0.199-5.847-1.097-11.798-0.719-17.648c0.734-11.379,5.272-21.487,9.381-31.954
					c0.99-2.521,1.929-5.01,2.799-7.492c-0.551,0.959-1.172,1.739-1.875,2.216c-6.445,4.369-14.465,1.008-21.579,4.196
					c4.397,4.29,8.418,7.694,10.363,13.465c2.288,6.784,3.208,12.1-2.158,17.219c-9.026,8.61-9.709,23.626,3.673,25.888
					C211.253,463.131,211.279,461.155,211.213,459.2z"/>
				<path fill="#D88F6F" d="M224.781,395.568c1.868-6.438,3.097-12.977,3.222-20.053c0.156-8.869,1.064-17.841,0.528-26.718
					c-2.807-2.161-5.249-4.507-7.226-8.171c-2.778-5.149-5.203-10.524-7.755-15.672c-2.42-4.883-5.759-9.208-9.896-12.807
					c-2.608-2.27-4.451-3.437-8.031-3.433c-3.223,0.003-8.036-0.244-9.891,2.247c-5.739,7.706-8.47,5.096-5.163,15.516
					c1.722,5.427,5.634,10.315,7.361,15.779c1.995,6.313-0.28,13.883-2.143,19.562c-1.724,5.254-6.275,10.428-6.799,15.905
					c-0.64,6.685,2.313,11.987,6.688,16.689c2.18,2.343,5.587,9.902,8.748,8.561c2.637-1.118,15.231-3.363,17.833-4.646
					C217.272,395.854,219.756,397.717,224.781,395.568z M225.179,381.294c0.018,0.174,0.038,0.352,0.055,0.527
					C225.112,381.653,224.878,381.478,225.179,381.294z M225.145,382.144c0.057-0.029,0.089-0.059,0.114-0.089
					c0.23,2.173,0.488,4.378,0.485,6.683c-0.001,0.836-0.058,1.822-0.17,2.889C225.029,387.978,223.484,382.997,225.145,382.144z"/>
				<g>
					<path fill="#F4F4F4" d="M225.071,396.581c0.23-0.445,0.498-0.817,0.789-1.136c0.031-0.177,0.064-0.349,0.094-0.527
						c-1.964,1.092-5.081,1.358-7.293,1.703c-2.476,0.386-5.072,0.886-7.518,1.586c-6.925,1.983-13.679,4.346-20.737,5.802
						c-3.498,0.723-7.165,1.214-10.734,1.663c-1.664,0.21-3.837,0.812-5.556,0.439c-0.906-0.197-2.313-0.521-3.233-0.9
						c-0.907-0.372-1.485-1.213-2.367-1.555l0.073,0.304c0.581,1.545,2.163,2.811,2.54,4.361c0.369,1.516-0.518,4.414-1.664,5.411
						c2.456-1.889,6.62-1.495,9.503-1.896c3.051-0.423,6.058-1.333,9.05-1.743c7.585-1.045,15.039-2.335,22.623-3.564
						c3.428-0.557,6.834-1.014,10.278-1.646C221.955,402.014,223.606,399.414,225.071,396.581z"/>
					<path fill="#C1BBB4" d="M166.667,417.155c0.062-1.486,2.419-3.06,3.176-4.256c1.145-1.812,1.419-3.564,0.49-5.482
						c-1.718-3.556-4.795-5.726-9.003-5.573c-3.033,0.11-7.533,0.775-10.032,2.975c-1.32,1.164-2.377,3.159-2.839,4.797
						c-0.701,2.482-1.092,3.724,0.693,5.511c2.566,2.568,5.033,6.439,9.221,5.734c1.603-0.27,3.366-0.921,4.903-1.479
						c1.551-0.562,2.544-1.942,4.062-2.645"/>
					<path opacity="0.7" fill="#BA665D" enable-background="new    " d="M152.388,411.248c0.061-0.848,0.641-1.404,0.811-2.253
						c0.165-0.821-0.06-1.507,0.346-2.253c0.876-1.611,2.624-0.837,3.99-1.029c-0.839,0.928-2.182,1.793-2.82,2.91
						c-0.813,1.421-0.495,3.169-2.384,3.599c0.052-0.522,0.29-0.942,0.518-1.009c-0.12-0.029-0.306-0.109-0.429-0.102"/>
					<path opacity="0.7" fill="#BA665D" enable-background="new    " d="M160.499,407.247c0.938,0.398,0.931,1.41,0.597,2.268
						c-3.269,0.587-2.002,2.11-2.153,4.525c0.792,0.691,0.999-0.397,1.361-0.951c-0.117-0.124-0.177-0.256-0.33-0.389
						c0.254-2.66,6.348,2.035,6.005-1.059c-0.216-1.951-3.729-3.137-4.997-3.996"/>
					<path opacity="0.7" fill="#BA665D" enable-background="new    " d="M160.583,418.612c-0.413,1.151-2.325,0.865-3.104,1.751
						c-0.477,0.543-0.303,1.136-1.108,1.402c-0.382,0.126-1.99-0.051-2.287-0.39c-1.36-1.556,4.949-3.044,6.059-2.723"/>
					<path opacity="0.3" enable-background="new    " d="M205.964,399.526c-5.446-9.752-11.884-25.308-3.036-34.955
						c4.064-4.43,9.734-8.304,6.07-14.834c-2.16-3.849-8.524-8.361-11.868-10.924c4.137-0.471,10.582,4.843,13.656,7.338
						c4.658,3.779,7.542,7.253,9.128,12.901c3.229,11.5,6.412,23.568,5.764,36.36c-7.231-0.639-12.774,5.122-20.163,4.113"/>
					<g>
						<path d="M239.143,355.415c0.016-0.073,0.032-0.144,0.05-0.216c-0.031-0.005-0.059-0.011-0.09-0.016
							c-0.282-0.061-0.574-0.136-0.88-0.208c-0.078-0.019-0.156-0.034-0.232-0.058c-0.077-0.024-0.156-0.047-0.233-0.071
							c-0.157-0.048-0.318-0.096-0.48-0.144c-0.083-0.025-0.166-0.049-0.247-0.076c-0.083-0.029-0.165-0.059-0.25-0.089
							c-0.165-0.061-0.335-0.122-0.507-0.185c-0.174-0.058-0.344-0.137-0.518-0.211c-0.174-0.074-0.353-0.15-0.532-0.228
							c-0.177-0.082-0.355-0.173-0.536-0.262c-0.181-0.091-0.369-0.174-0.547-0.28c-0.183-0.103-0.366-0.207-0.553-0.311
							c-0.047-0.027-0.094-0.052-0.141-0.08c-0.045-0.029-0.09-0.058-0.136-0.087c-0.093-0.059-0.186-0.116-0.277-0.176
							c-0.379-0.227-0.745-0.497-1.125-0.764c-0.189-0.136-0.371-0.286-0.56-0.431c-0.092-0.073-0.189-0.147-0.284-0.221
							c-0.091-0.078-0.183-0.157-0.276-0.237c-0.751-0.626-1.487-1.345-2.213-2.133c-1.458-1.575-2.839-3.471-4.172-5.602
							c-1.333-2.134-2.603-4.516-3.891-7.08c-1.29-2.564-2.59-5.314-4.036-8.183c-0.722-1.434-1.482-2.898-2.304-4.375
							c-0.825-1.478-1.71-2.971-2.697-4.452c-0.991-1.48-2.082-2.948-3.317-4.358c-0.626-0.697-1.273-1.394-1.98-2.047
							c-0.177-0.163-0.346-0.336-0.532-0.491c-0.183-0.16-0.365-0.319-0.549-0.479l-0.138-0.12l-0.144-0.115l-0.287-0.229
							l-0.288-0.23l-0.144-0.114l-0.149-0.11c-0.199-0.147-0.4-0.291-0.599-0.436l-0.151-0.11l-0.156-0.103l-0.312-0.206
							c-0.411-0.283-0.847-0.531-1.281-0.789c-0.882-0.49-1.794-0.953-2.754-1.323c-0.474-0.204-0.967-0.357-1.458-0.53
							c-0.504-0.154-1.027-0.303-1.559-0.405c-1.064-0.217-2.167-0.311-3.276-0.265s-2.223,0.232-3.303,0.559
							c-1.079,0.324-2.124,0.788-3.103,1.372c-1.961,1.168-3.65,2.815-4.915,4.767c-1.266,1.953-2.106,4.21-2.433,6.571
							l-0.054,0.443c-0.018,0.147-0.038,0.296-0.044,0.446l-0.031,0.446c-0.01,0.148-0.022,0.299-0.024,0.447l-0.007,0.449
							c-0.001,0.15,0.003,0.299,0.006,0.448c0,0.301,0.025,0.599,0.042,0.898c0.094,1.195,0.301,2.38,0.608,3.527
							c0.609,2.301,1.558,4.449,2.548,6.512c0.992,2.066,2.034,4.066,2.866,6.101c0.216,0.533,0.432,1.067,0.649,1.601
							c0.219,0.534,0.438,1.069,0.657,1.605c0.43,1.061,0.844,2.102,1.122,3.1c0.272,0.999,0.396,1.97,0.375,3.008
							c-0.02,1.036-0.173,2.128-0.379,3.24c-0.056,0.278-0.111,0.556-0.166,0.835c-0.062,0.27-0.126,0.538-0.19,0.807
							c-0.068,0.269-0.145,0.539-0.219,0.808c-0.073,0.269-0.166,0.539-0.249,0.808c-0.348,1.076-0.761,2.152-1.215,3.229
							c-0.905,2.156-1.976,4.311-3.023,6.534c-1.051,2.221-2.077,4.495-2.883,6.893c-0.401,1.197-0.746,2.428-0.986,3.693
							c-0.241,1.265-0.383,2.562-0.385,3.87c-0.004,1.306,0.133,2.621,0.42,3.899c0.083,0.316,0.166,0.633,0.248,0.949
							c0.021,0.08,0.043,0.156,0.068,0.23l0.075,0.227l0.148,0.455c0.053,0.15,0.095,0.304,0.154,0.449l0.169,0.439l0.171,0.439
							c0.03,0.074,0.056,0.148,0.088,0.221l0.095,0.214c0.128,0.283,0.254,0.567,0.381,0.852c0.134,0.279,0.275,0.553,0.413,0.829
							c0.07,0.138,0.136,0.278,0.209,0.413l0.223,0.401c0.149,0.266,0.291,0.539,0.45,0.798c0.155,0.261,0.312,0.52,0.468,0.78
							l0.119,0.193l0.123,0.19l0.245,0.378c0.321,0.51,0.667,0.996,1.008,1.486c1.378,1.941,2.87,3.742,4.394,5.466
							c0.321,0.359,3.969,4.411,4.293,4.764c0.929-0.554,1.862-1.104,2.798-1.646c-0.458-0.507-4.238-4.713-4.689-5.23
							c-1.446-1.679-2.847-3.411-4.115-5.235c-0.309-0.458-0.628-0.915-0.918-1.386l-0.224-0.351l-0.11-0.174l-0.107-0.179
							c-0.141-0.238-0.279-0.477-0.422-0.714c-0.14-0.237-0.263-0.483-0.397-0.724l-0.197-0.364
							c-0.064-0.121-0.12-0.244-0.183-0.366c-0.12-0.248-0.245-0.493-0.361-0.74c-0.109-0.251-0.218-0.501-0.328-0.751l-0.081-0.187
							c-0.028-0.063-0.049-0.128-0.074-0.192l-0.144-0.379l-0.146-0.38c-0.049-0.127-0.084-0.257-0.127-0.385l-0.124-0.386
							l-0.061-0.191c-0.022-0.064-0.041-0.129-0.054-0.192c-0.064-0.255-0.129-0.508-0.193-0.761
							c-0.222-1.027-0.327-2.081-0.319-3.148c0.016-2.138,0.484-4.326,1.226-6.493c0.734-2.172,1.704-4.33,2.738-6.516
							c1.033-2.19,2.12-4.383,3.078-6.673c0.479-1.145,0.924-2.313,1.307-3.515c0.091-0.303,0.192-0.601,0.275-0.908
							c0.084-0.307,0.168-0.613,0.247-0.921c0.072-0.31,0.144-0.622,0.214-0.934c0.058-0.305,0.117-0.611,0.174-0.915
							c0.222-1.225,0.399-2.485,0.416-3.809l0.002-0.497c0-0.165-0.018-0.334-0.024-0.501c-0.01-0.167-0.018-0.335-0.033-0.503
							l-0.062-0.501c-0.034-0.336-0.108-0.662-0.169-0.991c-0.029-0.166-0.073-0.324-0.114-0.483l-0.121-0.479
							c-0.36-1.254-0.827-2.377-1.277-3.462c-0.225-0.535-0.45-1.071-0.674-1.603c-0.221-0.534-0.442-1.066-0.665-1.599
							c-0.934-2.215-2.03-4.25-3.016-6.245c-0.988-1.99-1.873-3.947-2.425-5.924c-0.28-0.986-0.466-1.977-0.561-2.963
							c-0.015-0.247-0.042-0.493-0.045-0.739c-0.003-0.123-0.012-0.247-0.011-0.369v-0.369c-0.001-0.122,0.007-0.244,0.014-0.367
							l0.016-0.366c0.003-0.122,0.019-0.243,0.033-0.364l0.038-0.364c0.233-1.934,0.889-3.793,1.892-5.41
							c1.002-1.616,2.355-2.985,3.914-3.958c1.56-0.978,3.325-1.552,5.105-1.664c0.891-0.058,1.783-0.003,2.658,0.152
							c0.44,0.073,0.865,0.183,1.299,0.305c0.437,0.143,0.881,0.267,1.305,0.437c0.862,0.307,1.682,0.7,2.481,1.115
							c0.393,0.221,0.79,0.433,1.167,0.679l0.286,0.178l0.142,0.088l0.138,0.095c0.185,0.126,0.369,0.253,0.553,0.38l0.137,0.096
							l0.134,0.1l0.266,0.203l0.267,0.201l0.133,0.1l0.128,0.106c0.343,0.284,0.69,0.56,1.015,0.863
							c0.665,0.582,1.286,1.212,1.89,1.846c1.192,1.287,2.272,2.65,3.266,4.042c1.979,2.792,3.631,5.681,5.159,8.471
							c1.526,2.794,2.926,5.503,4.319,8.037c1.392,2.533,2.772,4.901,4.215,7.022c1.444,2.12,2.94,4.005,4.507,5.56
							c0.78,0.781,1.569,1.487,2.369,2.097c0.1,0.078,0.2,0.156,0.298,0.232c0.101,0.071,0.202,0.144,0.301,0.215
							c0.203,0.141,0.395,0.287,0.596,0.418c0.402,0.259,0.79,0.517,1.189,0.735c0.099,0.056,0.196,0.111,0.293,0.167
							c0.049,0.028,0.097,0.055,0.146,0.083c0.047,0.026,0.097,0.05,0.148,0.075c0.197,0.099,0.39,0.197,0.581,0.293
							c0.188,0.102,0.385,0.178,0.573,0.263c0.189,0.083,0.377,0.167,0.56,0.244c0.189,0.069,0.374,0.138,0.555,0.206
							c0.183,0.067,0.358,0.139,0.539,0.19c0.179,0.056,0.354,0.11,0.527,0.164c0.086,0.027,0.172,0.053,0.256,0.08
							c0.084,0.023,0.171,0.043,0.254,0.063c0.169,0.042,0.335,0.083,0.497,0.124l0.24,0.059c0.078,0.02,0.159,0.032,0.237,0.048
							c0.314,0.059,0.615,0.121,0.902,0.17C239.091,355.408,239.115,355.412,239.143,355.415z"/>
						<path d="M222.553,460.174c-0.148,0.178-0.292,0.355-0.452,0.537c-0.518,0.591-1.097,1.196-1.751,1.785
							c-0.655,0.589-1.386,1.169-2.214,1.668c-0.825,0.501-1.743,0.941-2.752,1.201c-0.126,0.03-0.252,0.071-0.383,0.093
							c-0.128,0.025-0.257,0.051-0.388,0.074c-0.13,0.028-0.264,0.036-0.395,0.054c-0.132,0.017-0.266,0.037-0.4,0.039
							c-0.135,0.008-0.271,0.016-0.406,0.022c-0.135,0.002-0.272-0.005-0.409-0.006l-0.208-0.005l-0.207-0.018
							c-0.139-0.012-0.279-0.022-0.42-0.038c-0.14-0.014-0.281-0.04-0.421-0.062c-0.141-0.024-0.283-0.037-0.423-0.073
							c-0.279-0.064-0.564-0.118-0.845-0.209c-0.565-0.152-1.119-0.378-1.673-0.626c-2.199-1.031-4.243-2.811-5.707-5.137
							c-0.37-0.579-0.689-1.197-0.97-1.841l-0.103-0.243c-0.035-0.079-0.068-0.16-0.096-0.245c-0.062-0.165-0.122-0.33-0.184-0.496
							c-0.104-0.339-0.216-0.676-0.294-1.025c-0.166-0.691-0.284-1.406-0.311-2.13c-0.031-0.722,0.014-1.451,0.143-2.171l0.053-0.27
							c0.019-0.089,0.032-0.18,0.06-0.268c0.047-0.177,0.096-0.355,0.144-0.532c0.06-0.177,0.121-0.357,0.183-0.534
							c0.067-0.178,0.138-0.354,0.207-0.531c0.297-0.704,0.663-1.392,1.082-2.068c0.839-1.354,1.893-2.646,3.013-3.968
							c1.118-1.325,2.312-2.682,3.41-4.224c0.548-0.769,1.069-1.588,1.52-2.471c0.452-0.882,0.836-1.825,1.105-2.821l0.1-0.375
							l0.082-0.379c0.025-0.128,0.054-0.256,0.077-0.382l0.055-0.375c0.037-0.253,0.072-0.503,0.109-0.756
							c0.03-0.253,0.042-0.509,0.064-0.766c0.052-0.51,0.042-1.025,0.045-1.542v-0.195c-0.001-0.065-0.007-0.129-0.01-0.193
							l-0.023-0.389l-0.025-0.388c-0.009-0.131-0.012-0.262-0.033-0.391c-0.227-2.071-0.783-4.135-1.652-6.069
							c-0.419-0.977-0.929-1.913-1.475-2.833c-0.141-0.227-0.283-0.454-0.423-0.681c-0.07-0.115-0.145-0.227-0.221-0.335
							l-0.227-0.333c-0.296-0.448-0.622-0.873-0.942-1.307c-0.161-0.217-0.333-0.423-0.499-0.634
							c-0.169-0.212-0.337-0.424-0.509-0.625s-0.344-0.405-0.516-0.609c-0.176-0.199-0.352-0.4-0.529-0.6
							c-0.174-0.201-0.352-0.398-0.533-0.596c-0.179-0.197-0.357-0.394-0.538-0.592c-0.364-0.389-0.725-0.784-1.096-1.168
							c-1.202-1.264-1.751-1.955-2.725-2.985c-0.58,0.24-1.203,0.379-1.843,0.379c-0.253,0-0.498-0.024-0.74-0.062
							c-0.271,0.175-0.548,0.342-0.818,0.521c1.747,1.697,2.403,2.49,4.05,4.156c0.37,0.371,0.726,0.745,1.089,1.115
							c0.177,0.189,0.355,0.376,0.531,0.562c0.178,0.187,0.353,0.374,0.525,0.564c0.171,0.189,0.343,0.376,0.516,0.565
							c0.167,0.189,0.335,0.378,0.502,0.566c0.17,0.189,0.327,0.38,0.484,0.57c0.156,0.19,0.32,0.377,0.472,0.571
							c0.298,0.389,0.606,0.771,0.881,1.172l0.212,0.296c0.072,0.1,0.143,0.198,0.206,0.301c0.133,0.201,0.265,0.403,0.397,0.605
							c0.507,0.817,0.987,1.645,1.375,2.502c0.813,1.699,1.334,3.483,1.577,5.267c0.021,0.111,0.025,0.224,0.037,0.335l0.028,0.336
							l0.031,0.333c0.004,0.057,0.01,0.112,0.012,0.168l0.004,0.168c0.005,0.445,0.028,0.891-0.007,1.334
							c-0.013,0.22-0.016,0.443-0.036,0.661c-0.025,0.222-0.054,0.441-0.078,0.659l-0.039,0.326
							c-0.016,0.108-0.037,0.211-0.056,0.316l-0.058,0.313l-0.075,0.31c-0.399,1.653-1.191,3.197-2.16,4.638
							c-0.966,1.444-2.088,2.801-3.18,4.176c-1.093,1.373-2.168,2.772-3.049,4.295c-0.439,0.76-0.828,1.549-1.14,2.365
							c-0.074,0.206-0.148,0.41-0.218,0.616c-0.063,0.209-0.128,0.417-0.189,0.624c-0.049,0.215-0.102,0.427-0.151,0.642
							c-0.026,0.105-0.042,0.213-0.061,0.32l-0.05,0.323c-0.126,0.856-0.147,1.715-0.084,2.55c0.06,0.834,0.225,1.644,0.439,2.422
							c0.104,0.39,0.241,0.766,0.373,1.14c0.075,0.184,0.15,0.367,0.224,0.55c0.035,0.092,0.074,0.181,0.12,0.268l0.122,0.266
							c0.337,0.703,0.715,1.372,1.144,1.993c1.699,2.492,3.99,4.335,6.433,5.366c0.614,0.247,1.228,0.467,1.855,0.609
							c0.307,0.085,0.622,0.135,0.931,0.19c0.153,0.032,0.311,0.042,0.465,0.062c0.155,0.016,0.308,0.04,0.461,0.048
							c0.154,0.009,0.307,0.015,0.459,0.023c0.077,0.003,0.152,0.006,0.229,0.01c0.076-0.001,0.152-0.005,0.229-0.006
							c0.151-0.004,0.304-0.004,0.455-0.012c0.148-0.015,0.298-0.028,0.446-0.041c0.148-0.011,0.295-0.038,0.441-0.061
							c0.144-0.026,0.289-0.042,0.431-0.078c0.142-0.033,0.282-0.066,0.422-0.101c0.14-0.029,0.274-0.08,0.412-0.117
							c1.088-0.33,2.045-0.845,2.891-1.408c0.848-0.565,1.576-1.198,2.223-1.835c0.646-0.638,1.207-1.281,1.707-1.905
							c0.091-0.113,0.169-0.223,0.256-0.334C222.634,460.488,222.588,460.331,222.553,460.174z"/>
					</g>
					<path opacity="0.7" fill="#BA665D" enable-background="new    " d="M224.846,396.38c-1.198-3.708-5.017-2.761-7.518-4.621
						c-2.79-2.074-1.373-7.476-5.452-7.136c-0.241-2.363,1.587-4.29,3.912-4.495c0.053-2.544-0.632-5.909,2.695-6.169
						c0.297,2.094-0.578,3.748-0.763,5.719c2.776,0.67,5.741,0.37,8.407,1.483c1.113,4.643,0.251,8.887-0.833,13.42"/>
					<g>
						<path d="M214.281,421.78c0.001-0.022,0.372,0.068,1.069,0.004c0.692-0.054,1.711-0.278,2.864-0.888
							c1.127-0.622,2.444-1.624,3.346-3.158c0.435-0.753,0.776-1.657,0.738-2.557c-0.009-0.895-0.487-1.633-1.318-2.346
							c-0.819-0.72-1.935-1.378-2.963-2.475c-0.254-0.252-0.503-0.629-0.735-1.013c-0.188-0.415-0.382-0.882-0.389-1.38
							c-0.071-0.994,0.281-1.911,0.694-2.612c0.846-1.418,1.924-2.483,2.888-3.585c0.487-0.546,0.953-1.092,1.321-1.64
							c0.2-0.272,0.335-0.546,0.492-0.841c0.152-0.337,0.307-0.676,0.461-1.018c0.303-0.684,0.669-1.358,0.844-2.088
							c0.112-0.358,0.224-0.719,0.336-1.081l0.172-0.543l0.099-0.568c0.112-0.763,0.312-1.519,0.366-2.302
							c0.05-0.783,0.102-1.573,0.153-2.371c-0.122-3.223-0.63-6.726-1.378-10.199c-0.747-3.49-1.697-6.907-2.643-10.164
							c-1.028-3.312-1.838-6.542-2.827-9.454c-0.98-2.921-2.17-5.558-3.687-7.749c-0.716-1.12-1.624-2.076-2.457-3.028
							c-0.422-0.47-0.898-0.871-1.331-1.299c-0.437-0.423-0.865-0.84-1.333-1.191c-3.6-2.986-7.077-4.744-9.472-5.899
							c-1.199-0.589-2.159-0.991-2.805-1.273c-0.648-0.284-0.987-0.433-0.987-0.433s0.357,0.101,1.036,0.294
							c0.68,0.194,1.687,0.471,2.957,0.916c2.536,0.872,6.249,2.244,10.31,5.036c2.001,1.428,4.112,3.135,5.954,5.476
							c1.861,2.314,3.339,5.137,4.525,8.158c1.2,3.031,2.134,6.222,3.238,9.46c1.065,3.331,2.082,6.778,2.866,10.434
							c0.781,3.668,1.271,7.261,1.307,10.931c-0.066,0.918-0.165,1.831-0.252,2.731c-0.097,0.9-0.348,1.77-0.518,2.638l-0.144,0.646
							l-0.221,0.625c-0.149,0.415-0.297,0.827-0.444,1.237c-0.256,0.841-0.687,1.568-1.064,2.312
							c-0.192,0.37-0.383,0.737-0.573,1.102c-0.227,0.385-0.472,0.791-0.747,1.128c-0.537,0.702-1.102,1.281-1.646,1.822
							c-1.085,1.079-2.139,2.038-2.807,3.004c-0.335,0.481-0.494,0.922-0.503,1.285c-0.012,0.374,0.125,0.719,0.482,1.173
							c0.688,0.888,1.694,1.627,2.604,2.56c0.452,0.471,0.884,1.012,1.171,1.646c0.286,0.629,0.421,1.338,0.355,1.969
							c-0.085,1.272-0.634,2.298-1.227,3.122c-1.228,1.647-2.758,2.527-4.025,3.047c-1.294,0.496-2.376,0.588-3.085,0.549
							C214.637,421.901,214.283,421.758,214.281,421.78z"/>
					</g>
					<g>
						<path d="M219.401,404.423c0.268-0.324,0.559-0.626,0.85-0.928c-0.29,0.066-0.596,0.136-0.927,0.211
							c-2.256,0.562-5.524,1.11-9.438,1.846c-3.926,0.726-8.449,1.702-13.277,2.731c-4.826,1.035-9.966,2.087-15.142,2.861
							c-2.59,0.429-5.176,0.647-7.76,0.952c-1.318,0.149-2.646,0.498-3.796,1.177c-1.154,0.669-2.087,1.604-2.863,2.58
							c-1.478,1.913-3.415,3.315-5.433,4.215c-2.014,0.894-4.179,1.246-6.055,0.786c-0.933-0.229-1.774-0.638-2.496-1.14
							c-0.729-0.499-1.305-1.122-1.814-1.722c-0.989-1.238-1.622-2.487-2.068-3.537c-0.442-1.053-0.707-1.913-0.881-2.501
							c-0.159-0.592-0.245-0.906-0.245-0.906s0.078,0.316,0.222,0.913c0.16,0.592,0.401,1.46,0.819,2.53
							c0.422,1.064,1.025,2.338,1.997,3.623c0.504,0.624,1.076,1.276,1.816,1.811c0.732,0.539,1.597,0.986,2.568,1.252
							c1.956,0.531,4.221,0.218,6.33-0.654c2.107-0.874,4.173-2.292,5.757-4.239c0.774-0.923,1.667-1.765,2.725-2.341
							c1.052-0.586,2.264-0.874,3.509-0.986c2.552-0.234,5.206-0.392,7.812-0.757c5.233-0.647,10.428-1.574,15.284-2.488
							c4.857-0.909,9.389-1.769,13.296-2.388c3.204-0.52,5.996-0.931,8.189-1.347C218.631,405.434,218.981,404.928,219.401,404.423z
							"/>
					</g>
					<g>
						<path d="M164.498,418.864c0,0-0.362,0.187-1.041,0.537c-0.684,0.33-1.653,0.935-3.042,1.309
							c-1.373,0.384-3.157,0.569-5.128,0.151c-1.932-0.454-4.108-1.543-5.546-3.622c-0.696-1.028-1.236-2.251-1.435-3.59
							c-0.184-1.33-0.149-2.765,0.292-4.143c0.437-1.374,1.18-2.685,2.175-3.824c0.996-1.143,2.26-2.071,3.64-2.81
							c2.753-1.468,6.181-2.104,9.432-1.209c3.247,0.849,5.896,3.053,9.023,3.469c3.156,0.521,6.403,0.322,9.535-0.225
							c1.566-0.256,3.122-0.658,4.66-1.006c1.537-0.356,3.056-0.708,4.552-1.054c2.995-0.652,5.864-1.467,8.599-2.175
							c2.736-0.717,5.326-1.396,7.722-2.024c2.401-0.623,4.608-1.197,6.571-1.708c1.965-0.502,3.717-0.843,5.155-1.176
							c2.886-0.638,4.582-1.012,4.695-1.037c0.897-0.189,1.708,0.128,1.811,0.706c0.104,0.579-0.53,1.2-1.415,1.387
							c-0.111,0.022-1.798,0.362-4.665,0.938c-1.432,0.304-3.168,0.603-5.135,1.064c-1.965,0.469-4.175,0.998-6.58,1.571
							c-2.408,0.579-5.012,1.205-7.762,1.868c-2.755,0.653-5.636,1.408-8.67,2.006c-1.511,0.317-3.046,0.641-4.6,0.968
							c-1.556,0.317-3.111,0.688-4.736,0.922c-3.225,0.496-6.617,0.641-9.922,0.026c-1.687-0.284-3.269-1.001-4.712-1.757
							c-1.449-0.758-2.865-1.496-4.361-1.93c-2.972-0.89-6.239-0.371-8.887,0.977c-1.327,0.676-2.551,1.536-3.517,2.602
							c-0.966,1.062-1.695,2.29-2.136,3.582c-0.445,1.301-0.503,2.655-0.356,3.934c0.164,1.284,0.656,2.46,1.303,3.464
							c1.337,2.023,3.429,3.133,5.316,3.617c1.924,0.45,3.691,0.304,5.06-0.049c1.383-0.343,2.364-0.924,3.054-1.24
							C164.131,419.043,164.498,418.864,164.498,418.864z"/>
					</g>
					<g>
						<path d="M169.152,414.575c0,0-0.442,0.57-1.277,1.577c-0.854,0.984-2.056,2.484-4.065,3.866
							c-0.999,0.677-2.267,1.279-3.697,1.573c-1.439,0.336-3.062,0.302-4.673-0.045c-1.615-0.351-3.244-1.038-4.729-2.094
							c-1.472-1.054-2.842-2.511-3.594-4.417c-0.37-0.948-0.557-1.971-0.534-2.972c0.019-1.003,0.242-1.967,0.594-2.845
							c0.753-1.7,1.755-3.115,2.977-4.264c1.216-1.134,2.605-1.948,3.975-2.426c1.371-0.487,2.697-0.694,3.897-0.781
							c2.411-0.113,4.306,0.259,5.579,0.566c0.639,0.149,1.125,0.306,1.453,0.411c0.327,0.104,0.499,0.158,0.499,0.158
							s-0.179-0.023-0.52-0.07c-0.34-0.048-0.84-0.122-1.487-0.17c-1.286-0.111-3.172-0.201-5.402,0.162
							c-1.107,0.209-2.293,0.529-3.463,1.069c-1.174,0.532-2.298,1.33-3.267,2.359c-0.963,1.018-1.781,2.34-2.338,3.718
							c-0.505,1.372-0.539,2.892,0.021,4.306c0.555,1.418,1.615,2.626,2.821,3.555c1.214,0.929,2.586,1.599,3.956,1.988
							c2.75,0.833,5.428,0.344,7.39-0.699c1.981-1.046,3.386-2.343,4.369-3.182C168.612,415.054,169.152,414.575,169.152,414.575z"
							/>
					</g>
					<g>
						<path d="M213.135,358.324c0,0-0.408,0.309-1.145,0.866c-0.366,0.273-0.824,0.582-1.302,1.017
							c-0.477,0.434-1.07,0.841-1.625,1.416c-0.561,0.566-1.218,1.117-1.806,1.828c-0.304,0.344-0.631,0.682-0.945,1.049
							c-0.296,0.381-0.601,0.772-0.914,1.173c-1.201,1.628-2.382,3.485-3.305,5.577c-0.909,2.096-1.487,4.194-1.82,6.17
							c-0.066,0.498-0.131,0.984-0.194,1.457c-0.053,0.475-0.042,0.94-0.072,1.393c-0.086,0.911,0.016,1.755,0.032,2.546
							c-0.001,0.397,0.048,0.769,0.103,1.121c0.046,0.356,0.09,0.693,0.131,1.008c0.054,0.644,0.202,1.173,0.294,1.619
							c0.185,0.905,0.287,1.406,0.287,1.406s-0.279-0.431-0.783-1.208c-0.245-0.396-0.575-0.878-0.831-1.491
							c-0.139-0.306-0.288-0.633-0.445-0.98c-0.163-0.348-0.322-0.722-0.433-1.132c-0.239-0.812-0.567-1.709-0.69-2.717
							c-0.074-0.5-0.184-1.021-0.223-1.563c-0.019-0.545-0.038-1.105-0.057-1.681c0.033-2.303,0.495-4.868,1.567-7.331
							c1.085-2.46,2.663-4.504,4.276-6.111c0.42-0.385,0.829-0.761,1.226-1.126c0.418-0.341,0.848-0.64,1.251-0.94
							c0.79-0.621,1.634-1.044,2.362-1.467c0.725-0.432,1.463-0.677,2.065-0.952c0.603-0.275,1.161-0.426,1.608-0.56
							C212.641,358.462,213.135,358.324,213.135,358.324z"/>
					</g>
					<g>
						<path d="M216.672,369.89c0,0-0.225,0.209-0.628,0.588c-0.411,0.349-0.959,0.907-1.587,1.562
							c-0.603,0.688-1.3,1.467-1.894,2.417c-0.608,0.938-1.175,1.98-1.689,3.14c-1.007,2.317-1.677,4.708-2.171,6.53
							c-0.242,0.927-0.439,1.678-0.575,2.199c-0.149,0.532-0.232,0.829-0.232,0.829s-0.119-0.283-0.302-0.81
							c-0.19-0.524-0.41-1.295-0.601-2.273c-0.353-1.929-0.543-4.846,0.747-7.851c0.651-1.482,1.624-2.746,2.664-3.683
							c1.031-0.957,2.167-1.525,3.101-1.922c0.961-0.361,1.749-0.557,2.311-0.623C216.369,369.913,216.672,369.89,216.672,369.89z"
							/>
					</g>
					<g>
						<path d="M156.787,402.464c0,0,0.384-0.016,1.077-0.043c0.691-0.023,1.685-0.131,2.923-0.243c0.617-0.067,1.3-0.09,2.033-0.136
							c0.742-0.048,1.564,0.001,2.4,0.188c1.667,0.36,3.421,1.345,4.649,2.932c0.614,0.787,1.063,1.675,1.339,2.562
							c0.293,0.889,0.398,1.851,0.236,2.717c-0.15,0.871-0.509,1.629-0.914,2.266c-0.412,0.636-0.874,1.156-1.306,1.613
							c-0.882,0.897-1.667,1.527-2.2,1.973c-0.538,0.439-0.836,0.682-0.836,0.682s0.265-0.279,0.743-0.782
							c0.477-0.503,1.187-1.216,1.965-2.163c0.749-0.944,1.627-2.175,1.816-3.697c0.098-0.755-0.018-1.543-0.301-2.34
							c-0.275-0.808-0.685-1.585-1.235-2.291c-1.098-1.417-2.629-2.345-4.136-2.753c-0.757-0.208-1.499-0.301-2.213-0.306
							c-0.725-0.006-1.401-0.039-2.021-0.026c-1.237,0.002-2.25,0.003-2.944-0.058C157.17,402.498,156.787,402.464,156.787,402.464z
							"/>
					</g>
					<g>
						<path d="M161.954,405.683c0,0-0.076,0.013-0.21,0.031c-0.133,0.035-0.31,0.119-0.509,0.264
							c-0.101,0.07-0.215,0.148-0.355,0.207c-0.077,0.018-0.135,0.059-0.243,0.042c-0.077-0.022-0.158-0.04-0.233-0.079
							c-0.313-0.124-0.567-0.441-0.905-0.48c-0.367-0.022-0.713,0.053-1.004,0.178c-0.294,0.122-0.517,0.315-0.7,0.475
							c-0.174,0.169-0.309,0.317-0.392,0.428c-0.085,0.105-0.134,0.166-0.134,0.166s0.043-0.065,0.119-0.179
							c0.074-0.116,0.197-0.274,0.363-0.459c0.175-0.174,0.395-0.386,0.699-0.527c0.301-0.142,0.67-0.229,1.056-0.206
							c0.43,0.061,0.654,0.393,0.943,0.51c0.068,0.039,0.143,0.058,0.212,0.083c0.037,0.015,0.131-0.017,0.189-0.03
							c0.13-0.048,0.245-0.115,0.351-0.18c0.21-0.133,0.402-0.207,0.539-0.229C161.876,405.686,161.954,405.683,161.954,405.683z"/>
					</g>
					<g>
						<path d="M162.402,407.359c0,0-0.052,0.016-0.141,0.042c-0.09,0.025-0.222,0.07-0.39,0.085
							c-0.335,0.058-0.802,0.06-1.314,0.048c-0.512-0.018-0.973-0.041-1.308-0.045c-0.333,0.001-0.542,0.014-0.542,0.014
							s0.204-0.044,0.54-0.075c0.336-0.029,0.803-0.035,1.314-0.018c0.51,0.012,0.972,0.042,1.304,0.015
							c0.169,0.001,0.299-0.028,0.393-0.041C162.348,407.368,162.402,407.359,162.402,407.359z"/>
					</g>
					<g>
						<path d="M205.514,314.109c0,0,0.174,0.116,0.5,0.334c0.325,0.221,0.825,0.517,1.365,1.021c1.141,0.934,2.52,2.569,3.888,4.693
							c2.85,4.123,6.093,10.138,9.447,15.875c0.811,1.448,1.742,2.876,2.599,4.295c0.873,1.437,1.722,2.768,2.597,4.021
							c0.462,0.606,0.916,1.203,1.361,1.787c0.488,0.54,0.966,1.07,1.432,1.586c0.464,0.516,0.991,0.932,1.457,1.381
							c0.237,0.219,0.471,0.434,0.7,0.646c0.236,0.163,0.467,0.322,0.694,0.479c1.847,1.228,3.862,1.72,5.294,2.208
							c1.45,0.454,2.354,0.794,2.408,0.825c0.467,0.196,0.523,1.053,0.127,1.91c-0.397,0.858-1.039,1.42-1.434,1.253
							c-0.05-0.027-0.789-0.361-2.191-0.899c-0.694-0.276-1.569-0.587-2.582-1.047c-1.01-0.441-2.161-1.038-3.307-1.906
							c-0.282-0.226-0.569-0.456-0.862-0.69c-0.242-0.251-0.489-0.507-0.739-0.768c-0.489-0.53-1.042-1.037-1.515-1.632
							c-0.471-0.593-0.955-1.203-1.448-1.826c-0.438-0.657-0.885-1.328-1.339-2.009c-0.85-1.395-1.662-2.876-2.42-4.322
							c-0.765-1.472-1.584-2.918-2.322-4.455c-3.055-6.082-5.808-12.092-8.41-16.433c-1.22-2.187-2.463-3.868-3.532-4.864
							c-0.503-0.533-0.979-0.857-1.288-1.098C205.68,314.236,205.514,314.109,205.514,314.109z"/>
					</g>
					<path opacity="0.7" fill="#BA665D" enable-background="new    " d="M157.335,400.48c-2.725-0.307-6.171,2.862-7.447,4.505
						c-0.994,1.28-2.159,2.216-2.846,3.663c-1.132,2.385,0.161,2.378,0.129,4.682c-0.028,1.968-1.933,2.717-1.108,4.703
						c0.443,1.066,2.807,2.429,3.677,3.02c2.768,1.88,4.894,3.14,6.513,6.36c0.325-1.526,1.036-3.061,0.268-4.455
						c0.16-0.034,0.467,0.141,0.676,0.131c1.757-1.924,5.345-2.209,6.073-5.101c-1.58-0.799-4.745,0.564-5.674,2.053
						c-1.185-1.348-2.873-3.513-4.881-2.018c0.643-0.216,0.164-0.232,0.64-0.619c-1.449-0.339-2.933-1.24-3.65-2.543
						c0.762-0.005,1.34-0.453,2.054-0.505c0.005,0.02,0.16-0.702,0.169-0.725c-1.912-1.145-0.292-2.601,0.183-3.956
						c0.605-1.727,0.422-2.302,0.367-4.236c0.331,0.036,0.721,0.057,1.04,0.135c1.178-0.636,2.458-1.424,2.531-3.046
						c1.206-0.126,2.039-0.911,2.169-2.131"/>
					<path opacity="0.3" enable-background="new    " d="M219.9,409.866c8.066,4.289-0.712,13.081-7.204,12.578
						c-4.307-0.334-4.494-2.406-6.621-6.395c-1.543-2.891-4.784-4.835-5.9-7.455c6.07-2.018,11.952-3.734,18.757-3.605
						c-0.203,1.61-0.452,3.122-0.381,4.877"/>
					<g opacity="0.3">
						<g>
							<g>
								<path fill="#FFFFFF" d="M192.627,395.63c0,0-0.333-0.265-0.966-0.769c-0.328-0.243-0.689-0.589-1.122-0.999
									c-0.449-0.395-0.906-0.908-1.425-1.487c-1.006-1.179-2.152-2.727-3.148-4.726c-0.999-1.993-1.842-4.43-2.312-7.219
									c-0.475-2.794-0.591-5.907-0.145-9.251c0.061-0.852,0.322-1.686,0.573-2.541c0.125-0.428,0.25-0.859,0.377-1.294
									c0.162-0.407,0.325-0.818,0.49-1.231c0.631-1.678,1.445-3.284,2.246-4.927c1.619-3.262,3.429-6.557,4.414-10.104
									c0.095-0.444,0.19-0.89,0.286-1.338l0.148-0.672l0.07-0.316c0.023-0.093,0.014-0.091,0.015-0.211
									c-0.006-0.446,0.016-0.896-0.004-1.343c-0.051-0.444-0.08-0.892-0.141-1.336c-0.278-1.776-0.961-3.51-1.893-5.247
									c-1.622-3.037-3.882-6.024-5.24-9.535c-0.322-0.874-0.643-1.774-0.827-2.631l-0.159-0.647l-0.02-0.081
									c-0.011-0.042,0.014,0.056,0.019,0.058l-0.048-0.169l-0.097-0.338c-0.12-0.453-0.27-0.895-0.357-1.351
									c-0.385-1.821-0.401-3.687-0.091-5.46c0.54-3.578,2.99-6.696,6.006-7.973c3.067-1.212,6.125-0.818,8.456,0.031
									c-0.033-0.009-0.054-0.015-0.076-0.021c3.826,1.033,6.542,3.48,8.276,5.817c1.762,2.369,2.72,4.691,3.37,6.58
									c0.632,1.904,0.923,3.417,1.097,4.437c0.139,1.025,0.211,1.558,0.211,1.558s-0.135-0.519-0.394-1.517
									c-0.288-0.987-0.74-2.444-1.541-4.232c-0.813-1.771-1.956-3.918-3.782-5.98c-1.804-2.047-4.399-3.989-7.703-4.645
									l-0.008-0.002l-0.068-0.019c-2.116-0.593-4.595-0.638-6.757,0.369c-2.098,1.081-3.751,3.318-4.063,6.095
									c-0.177,1.366-0.122,2.818,0.231,4.255c0.08,0.359,0.218,0.71,0.321,1.068l0.207,0.687l0.162,0.585
									c0.196,0.804,0.48,1.518,0.769,2.263c1.201,2.969,3.344,5.751,5.191,9.156c2.148,3.862,3.23,8.778,1.646,13.036
									c-1.244,4.05-3.287,7.402-5.018,10.549c-1.756,3.149-3.28,6.091-3.94,9.027c-0.602,3.021-0.714,5.976-0.476,8.615
									c0.232,2.649,0.821,5.015,1.592,6.999c0.768,1.989,1.714,3.588,2.569,4.838c0.443,0.615,0.835,1.168,1.229,1.602
									c0.377,0.449,0.696,0.834,0.989,1.11C192.33,395.328,192.627,395.63,192.627,395.63z"/>
							</g>
						</g>
					</g>
					<g opacity="0.3">
						<g>
							<g>
								<path fill="#FFFFFF" d="M211.209,463.365c0,0-0.244,0.048-0.711,0.093c-0.469,0.061-1.154,0.039-2.003-0.153
									c-0.848-0.194-1.833-0.636-2.767-1.361c-0.912-0.736-1.749-1.742-2.341-2.905c-1.165-2.353-1.219-4.675-1.074-6.272
									c0.156-1.613,0.504-2.587,0.504-2.587s0.525,0.898,1.214,2.274c0.638,1.293,1.51,3.061,2.471,5.008
									c0.463,0.901,0.904,1.715,1.358,2.449c0.469,0.712,0.957,1.35,1.457,1.854c0.496,0.501,0.969,0.922,1.328,1.168
									C211.007,463.21,211.209,463.365,211.209,463.365z"/>
							</g>
						</g>
					</g>
					<path opacity="0.7" fill="#BA665D" enable-background="new    " d="M221.249,401.774c-2.287,2.896-6.872,3.176-7.193,7.193
						c-0.409,5.106,5.246,3.479,5.889,8.09c-1.562,1.63-8.51,2.219-8.944,3.689c-1.269,4.3,6.933,1.998,8.448,0.81
						c2.29-1.797,4.69-6.311,3.159-9.452c-1.38-2.83-6.73-3.237-3.158-8.081"/>
				</g>
			</g>
			<path fill="#D88F6F" d="M553.543,474.47c-1.079-2.279-1.914-4.724-2.515-7.246c-2.575-10.814-4.621-21.942-6.641-32.874
				c-1.259-6.812-2.523-13.85-2.491-20.798c0.029-6.52,0.791-13.088,0.381-19.604c-0.396-6.279-1.516-12.443-2.622-18.614
				c-1.51-3.799-2.474-7.667-2.848-11.632c-0.447,0.539-0.901,1.073-1.332,1.623c0.253-16.188,0.3-31.656-3.587-46.213
				c-3.44-12.882-6.904-25.372-12.512-37.988c-2.521-5.672-5.197-11.362-9.514-16.012c-4.216-4.54-9.035-7.85-12.725-12.75
				c-1.663-2.209-3.073-5.303-5.515-6.985c-0.11-0.076-0.22-0.135-0.33-0.204c-0.355-0.443-0.7-0.861-0.981-1.235
				c-4.073-5.421-9.255-8.632-14.882-11.868c-5.68-3.266-10.877-6.989-16.931-9.569c-6.079-2.591-12.3-5.109-18.507-7.243
				c-7.23-2.485-14.667-2.757-22.743-2.757c-16.343,0-33.216-0.322-49.194,1.056c-7.496,0.646-15.565,1.095-23.05,2.2
				c-6.83,1.009-13.437,3.167-19.944,5.556c-5.837,2.142-12.563,4.507-17.762,8.001c-5.266,3.538-11.219,6.499-16.368,10.12
				c-4.979,3.501-9.609,7.443-14.244,11.756c-1.857,1.729-3.234,3.741-4.414,5.885c-0.688,0.79-1.392,1.639-2.137,2.564
				c-3.901,4.842-8.579,9.525-12.274,14.751c-15.749,22.277-18.598,51.537-19.936,78.534c-0.436-0.047-0.879-0.117-1.326-0.199
				c0.018,7.257-0.43,14.52-0.559,21.853c-0.231,13.154-2.445,25.615-7.57,37.8c-4.845,11.518-11.651,24.646-11.932,37.363
				c-0.145,6.565,0.701,13.074,0.799,19.629c0.017,1.137,0.005,2.267-0.022,3.396c0.307-0.25,0.617-0.505,0.934-0.764
				c2.404,3.459,1.696,7.185,1.139,10.889c-0.577,3.839-0.22,7.608,0.502,11.221c1.344,6.728,3.4,13.191,5.219,19.781
				c3.509,12.713,8.453,23.085,19.502,31.998c18.463,14.895,34.834,33.255,51.139,51.111c9.375,10.268,19.343,20.573,28.613,30.637
				c7.93,8.609,14.086,15.33,23.137,22.613c7.327,5.894,18.082,12.687,27.25,14.75c9.708,2.185,27.354,2.394,35.25-2.5l0.5,2
				c5.723-3.768,12.452-5.059,18.514-7.875c5.552-2.581,10.014-6.851,14.861-10.749c9.835-7.911,18.901-15.271,26.875-25.126
				c7.67-9.479,16.387-18.644,24.25-27.75c8.198-9.492,18.07-18.076,27.376-26.624c8.979-8.247,16.656-17.845,24.261-27.239
				C556.05,527.509,559,514.905,559,500C559,490.425,556.255,482.709,553.543,474.47z"/>
			<path d="M559.644,498.634c-0.491-5.268-1.433-10.087-2.464-14.421c-2.101-8.665-4.445-15.451-6.005-20.153
				c-0.042-0.121-0.081-0.235-0.121-0.354c-0.129-0.775-0.263-1.575-0.399-2.396c-0.126-0.83-0.137-1.74-0.216-2.638
				c-0.067-0.899-0.099-1.897-0.152-2.874c-0.037-0.979-0.201-2.069-0.306-3.135c-0.693-4.383-2.815-8.394-3.723-12.628
				c-0.912-4.336-1.055-9.121-1.313-14.221c-0.059-1.277-0.161-2.557-0.264-3.845c-0.079-1.277-0.1-2.53-0.156-3.809
				c-0.084-2.558-0.116-5.189-0.143-7.849c-0.076-6.941-0.142-13.815-0.978-20.468c-0.148-1.669-0.505-3.29-0.778-4.907
				c-0.136-0.804-0.291-1.611-0.485-2.432c-0.171-0.818-0.364-1.623-0.616-2.402c-0.924-3.15-2.104-6.014-2.986-8.798
				c-0.453-1.391-0.791-2.757-1.059-4.112c-0.09-0.682-0.18-1.358-0.268-2.031c-0.047-0.704-0.092-1.403-0.138-2.097
				c-0.164-2.778-0.085-5.523-0.096-8.229c-0.053-5.404-0.19-10.389-0.599-14.983c-0.111-1.145-0.17-2.263-0.318-3.349
				c-0.156-1.084-0.309-2.14-0.457-3.167c-0.074-0.513-0.148-1.018-0.221-1.515c-0.085-0.498-0.21-0.987-0.312-1.468
				c-0.107-0.48-0.214-0.953-0.318-1.418c-0.13-0.456-0.257-0.903-0.383-1.344c-0.079-0.269-0.157-0.512-0.236-0.774
				c-0.174-1.766-0.488-3.563-0.733-5.418c-0.293-1.938-0.512-3.941-0.964-5.956c-1.361-8.146-3.945-16.89-7.569-25.924
				c-3.61-9.045-8.727-18.244-15.24-27.067c-6.514-8.836-14.378-17.3-23.435-25.123c-9.15-7.712-19.774-14.438-31.604-19.188
				c-5.906-2.38-11.953-4.22-18.027-5.493c-6.084-1.313-12.167-1.869-18.103-2.312c-11.917-0.694-23.371-0.217-34.202,0.358
				c-5.426,0.276-10.673,0.616-15.808,0.799c-5.141,0.213-10.163,0.521-15.003,1.062c-9.678,1.167-18.572,3.412-26.247,6.507
				c-1.903,0.811-3.785,1.544-5.57,2.365c-1.768,0.855-3.489,1.688-5.163,2.499c-2.029,1.118-3.989,2.169-5.852,3.233
				c-4.889,2.408-10.258,5.368-15.918,9.046c-6.081,3.935-12.496,8.673-18.831,14.425c-6.356,5.723-12.505,12.591-18.043,20.505
				c-0.72,0.97-1.361,2.004-2.021,3.032c-0.652,1.034-1.341,2.055-1.974,3.119c-1.211,2.158-2.536,4.289-3.631,6.573
				c-2.391,4.471-4.299,9.29-6.112,14.234c-3.529,9.938-5.587,20.678-6.975,31.655c-1.374,10.993-1.993,21.743-2.724,32.06
				c-0.726,10.317-1.589,20.227-3.119,29.541c-0.402,2.324-0.743,4.633-1.265,6.867c-0.492,2.24-0.896,4.482-1.538,6.597
				c-0.296,1.068-0.59,2.129-0.881,3.181c-0.347,1.043-0.691,2.078-1.032,3.105c-0.65,2.059-1.441,4.062-2.15,6.045
				c-2.775,7.376-5.438,14.414-6.835,21.196c-0.288,1.02-0.512,2.057-0.785,3.071c-0.65,2.583-0.794,5.264-0.665,7.789
				c0.044,0.968,0.129,1.912,0.226,2.844c0.072,2.576,0.287,5.027,0.582,7.309c0.16,1.293,0.333,2.536,0.509,3.74
				c-0.028,3.882-0.206,7.204,0.19,9.634v0.001c-0.082,0.733-0.129,1.479-0.042,2.272c0.088,0.814,0.694,2.673,1.462,3.553
				c-0.013,0.083-0.03,0.163-0.042,0.246c-1.242,8.405-1.227,17.479,0.628,26.607c1.812,9.137,5.762,18.182,11.256,26.304
				c2.741,4.068,5.757,7.877,8.905,11.412c1.59,1.747,3.126,3.525,4.732,5.204c1.613,1.669,3.213,3.324,4.799,4.966
				c6.437,6.46,12.882,12.392,18.936,18.1c0.93,0.867,1.826,1.724,2.732,2.583c0.921,0.979,1.882,1.989,2.888,3.037
				c3.805,3.918,8.242,8.28,13.176,13.046c0.824,0.802,1.68,1.635,2.53,2.462c3.477,3.585,6.78,6.99,9.865,10.171
				c4.415,4.526,8.417,8.609,11.936,12.188c2.864,3.218,5.767,6.58,8.751,10.04c5.944,6.852,12.198,14.122,19.5,20.976
				c7.281,6.816,15.776,13.241,25.803,17.329c4.999,2.028,10.198,3.402,15.394,4.13c5.194,0.734,10.395,0.827,15.401,0.49
				c10.062-0.515,19.699-3.025,28.1-6.883c8.444-3.833,15.69-8.896,21.919-14.139c3.129-2.614,6.01-5.29,8.685-7.946
				c2.688-2.646,5.169-5.272,7.483-7.822c4.635-5.097,8.624-9.867,12.098-14.073c3.454-4.219,6.43-7.853,8.861-10.822
				c0.199-0.243,0.39-0.476,0.582-0.71c0.897-1.004,1.824-2.04,2.807-3.139c1.351-1.461,2.778-3.005,4.277-4.627
				c6.056-6.435,13.383-13.947,22.008-21.807c8.561-7.913,18.341-16.421,27.379-26.686c1.121-1.286,2.264-2.544,3.344-3.837
				c1.04-1.325,2.073-2.643,3.099-3.949c2.048-2.587,4.089-5.233,5.778-8.085c3.395-5.671,5.488-11.804,6.503-17.739
				C560.152,509.629,560.138,503.893,559.644,498.634z M555.932,514.984c-1.133,5.559-3.217,11.189-6.459,16.41
				c-1.604,2.608-3.559,5.082-5.615,7.634c-1.013,1.274-2.032,2.558-3.059,3.85c-1.064,1.262-2.184,2.487-3.28,3.746
				c-8.829,10.032-18.353,18.649-26.726,26.88c-8.435,8.18-15.491,16.113-21.205,22.896c-1.41,1.714-2.754,3.345-4.024,4.889
				c-1.236,1.568-2.401,3.047-3.491,4.43c-2.163,2.775-4.026,5.166-5.549,7.12c-0.119,0.154-0.222,0.288-0.336,0.437
				c-0.837,0.934-1.704,1.902-2.603,2.906c-3.642,4.053-7.804,8.65-12.579,13.544c-2.386,2.448-4.93,4.965-7.664,7.489
				c-2.722,2.537-5.635,5.082-8.77,7.555c-6.243,4.963-13.395,9.688-21.57,13.2c-8.156,3.539-17.299,5.773-26.981,6.168
				c-4.847,0.272-9.743,0.139-14.645-0.58c-4.897-0.714-9.768-2.017-14.476-3.926c-9.43-3.844-17.58-9.896-24.744-16.46
				c-7.179-6.592-13.492-13.688-19.567-20.417c-6.058-6.746-11.89-13.169-17.736-18.806c-2.927-2.805-5.753-5.489-8.5-8.048
				c-0.843-0.767-1.654-1.505-2.476-2.253c-2.205-2.436-4.487-4.958-6.852-7.571c-2.464-2.763-5.131-5.541-7.869-8.412
				c-2.779-2.819-5.645-5.722-8.631-8.631c-5.943-5.854-12.268-11.881-18.556-18.342c-1.547-1.635-3.108-3.284-4.682-4.946
				c-1.567-1.668-3.056-3.421-4.608-5.145c-3.057-3.476-5.938-7.143-8.57-11.048c-5.27-7.806-9.02-16.265-10.845-24.906
				c-1.861-8.636-2.034-17.305-1.019-25.394c2.035-16.267,9.229-29.813,16.761-39.629c3.835-4.885,8.102-8.628,11.962-11.772
				c3.87-3.137,7.405-5.604,10.284-7.63c5.79-4.019,8.992-6.24,8.992-6.24s-3.321,2.042-9.327,5.734
				c-2.984,1.878-6.647,4.174-10.698,7.162c-4.027,2.987-8.56,6.627-12.714,11.517c-4.097,4.897-8.018,10.738-11.34,17.487
				c-2.576,5.181-4.643,10.983-6.053,17.201c-0.139-0.154-0.3-0.301-0.468-0.465c-0.283-2.409-0.635-5.092-0.968-8.059
				c-0.001-0.566-0.004-1.144-0.01-1.741c-0.024-1.018-0.057-2.086-0.201-3.197c-0.153-1.078-0.312-2.193-0.475-3.338
				c-0.021-0.147-0.044-0.298-0.066-0.446c-0.222-4.815,0.001-10.117,1.256-15.692c1.492-6.946,4.496-14.181,7.698-22.041
				c0.772-1.985,1.615-3.97,2.337-6.067c0.375-1.041,0.752-2.091,1.132-3.147c0.344-1.074,0.658-2.172,0.991-3.27
				c0.717-2.193,1.176-4.452,1.728-6.732c0.582-2.275,0.976-4.613,1.431-6.974c1.739-9.453,2.762-19.475,3.596-29.82
				c0.839-10.347,1.519-21.034,2.872-31.858c1.366-10.809,3.319-21.281,6.637-30.932c1.707-4.797,3.491-9.49,5.744-13.853
				c1.027-2.23,2.281-4.314,3.418-6.429c0.596-1.042,1.248-2.044,1.862-3.059c0.624-1.01,1.226-2.026,1.909-2.982
				c5.233-7.791,11.069-14.634,17.148-20.409c6.055-5.803,12.225-10.663,18.099-14.751c1.131-0.79,2.248-1.543,3.355-2.275
				c0.365-0.229,0.727-0.454,1.099-0.693c1.176-0.744,2.402-1.52,3.678-2.328c1.294-0.776,2.667-1.533,4.072-2.344
				c2.783-1.672,5.915-3.168,9.185-4.835c1.676-0.747,3.399-1.515,5.168-2.303c1.783-0.754,3.655-1.418,5.546-2.159
				c7.629-2.816,16.35-4.764,25.841-5.685c4.757-0.418,9.698-0.613,14.826-0.722c5.135-0.08,10.447-0.323,15.853-0.507
				c10.821-0.395,22.161-0.708,33.809,0.076c5.818,0.488,11.723,1.07,17.557,2.36c5.846,1.253,11.669,3.04,17.368,5.337
				c11.415,4.581,21.729,11.034,30.675,18.438c8.868,7.521,16.703,15.724,23.198,24.238c6.508,8.518,11.672,17.362,15.417,26.136
				c3.752,8.758,6.521,17.246,8.102,25.24c0.108,0.91,0.433,1.932,0.649,3.069c0.18,0.87-0.178,1.824,0.822,2.815
				c0,0.001,0,0.002,0,0.003c0,1.915,0.541,3.767,0.766,5.594c0.447,3.652,0.915,7.084,1.169,10.326
				c0.246,2.562,0.448,4.979,0.623,7.258c0,3.149-0.097,6.465-0.211,9.928c-0.102,2.649-0.304,5.448-0.24,8.375
				c0.021,0.731,0.038,1.469,0.06,2.211c0.075,0.766,0.147,1.538,0.224,2.314c0.246,1.534,0.577,3.07,1.014,4.559
				c0.852,2.986,1.95,5.877,2.73,8.803c0.219,0.728,0.376,1.468,0.513,2.215c0.159,0.734,0.29,1.501,0.407,2.288
				c0.231,1.561,0.55,3.125,0.664,4.729c0.698,6.38,0.71,13.115,0.784,20.074c0.027,2.666,0.067,5.312,0.172,7.961
				c0.065,1.324,0.102,2.66,0.195,3.947c0.114,1.272,0.229,2.535,0.303,3.783c0.323,4.987,0.547,10.023,1.667,14.772
				c0.604,2.403,1.458,4.609,2.241,6.611c0.409,1.026,0.727,1.995,1.088,2.969c0.155,0.479,0.277,0.946,0.419,1.414
				c0.13,0.467,0.302,0.921,0.34,1.402c0.646,3.715,0.577,7.708,1.613,11.191c-0.011-0.047-0.021-0.094-0.025-0.11
				c0.459,1.792,0.905,3.539,1.34,5.238c0.475,1.679,1.056,3.257,1.557,4.815c0.508,1.562,1.042,3.024,1.541,4.466
				c0.252,0.718,0.5,1.424,0.744,2.118c0.216,0.696,0.428,1.381,0.637,2.054c0.717,2.074,1.246,4.061,1.654,5.95
				c0.464,3.12,0.841,6.414,1.011,9.885C557.253,503.934,557.048,509.413,555.932,514.984z"/>
			<g opacity="0.3">
				<g>
					<g>
						<path fill="#FFFFFF" d="M555,420.667c0,0,0.37-0.347,0.983-0.543c0.584-0.185,1.431-0.132,1.872,0.449
							c0.454,0.562,0.315,1.423-0.022,1.976c-0.165,0.279-0.371,0.49-0.547,0.62c-0.17,0.123-0.286,0.165-0.286,0.165
							s-0.128-0.055-0.317-0.106c-0.182-0.048-0.442-0.084-0.704-0.104c-0.528-0.041-1.034,0.017-1.188-0.165
							c-0.137-0.188,0.025-0.682,0.099-1.231C554.963,421.212,555,420.667,555,420.667z"/>
					</g>
				</g>
			</g>
			<g opacity="0.3">
				<g>
					<g>
						<path d="M410.5,614.999c0,0-0.688-0.006-1.864-0.07c-1.166-0.092-2.859-0.111-4.852-0.135
							c-1.008,0.025-2.075-0.018-3.233,0.055c-0.57,0.017-1.16,0.034-1.768,0.053c-0.609,0.041-1.232,0.075-1.865,0.1
							c-2.547,0.149-5.317,0.34-8.298,0.462c-5.957,0.291-11.729-0.019-15.912-0.758c-2.09-0.363-3.773-0.771-4.926-1.129
							c-1.153-0.345-1.78-0.577-1.78-0.577s0.632-0.253,1.756-0.636c1.125-0.37,2.735-0.932,4.709-1.534
							c3.951-1.19,9.365-2.806,15.827-3.126c3.229-0.135,6.389,0.162,9.207,0.77c0.706,0.165,1.389,0.337,2.048,0.512
							c0.659,0.185,1.291,0.42,1.898,0.63c1.217,0.398,2.306,0.945,3.285,1.413c1.941,1.012,3.399,1.984,4.336,2.767
							C410.014,614.551,410.5,614.999,410.5,614.999z"/>
					</g>
				</g>
			</g>
			<g opacity="0.3">
				<g>
					<g>
						<path fill="#FFFFFF" d="M442.999,634.999c0,0-0.136,0.61-0.484,1.728c-0.091,0.276-0.18,0.6-0.313,0.927
							c-0.147,0.322-0.305,0.673-0.476,1.049c-0.184,0.378-0.38,0.782-0.588,1.21c-0.231,0.412-0.5,0.827-0.782,1.274
							c-1.109,1.811-2.769,3.709-4.836,5.564c-2.088,1.815-4.633,3.48-7.477,4.797c-5.725,2.597-11.414,3.202-15.467,3.144
							c-1.015,0.001-1.939-0.063-2.747-0.135c-0.807-0.064-1.501-0.147-2.07-0.242c-1.136-0.176-1.759-0.316-1.759-0.316
							s0.555-0.341,1.549-0.879c0.494-0.267,1.098-0.594,1.798-0.972c0.691-0.365,1.479-0.78,2.349-1.239
							c3.468-1.799,8.095-4.144,13.122-6.428c2.512-1.133,4.904-2.211,7.082-3.193c2.141-1.031,4.147-1.95,5.754-2.892
							c0.416-0.229,0.812-0.447,1.188-0.653c0.362-0.229,0.704-0.444,1.023-0.647c0.333-0.203,0.642-0.392,0.928-0.565
							c0.282-0.181,0.517-0.367,0.746-0.525C442.442,635.363,442.999,635,442.999,634.999z"/>
					</g>
				</g>
			</g>
			<g opacity="0.3">
				<g>
					<g>
						<path fill="#FFFFFF" d="M233.999,473c0,0,0.006,0.842-0.04,2.298c-0.014,0.361-0.029,0.763-0.046,1.202
							c-0.008,0.439,0.015,0.921,0.017,1.43c0.026,1.022-0.028,2.154,0.071,3.419c0.026,0.624,0.054,1.276,0.082,1.957
							c0.023,0.675,0.119,1.383,0.166,2.104c0.074,1.441,0.294,2.976,0.449,4.57c0.418,3.194,0.931,6.647,1.593,10.267
							c0.685,3.615,1.41,7.058,2.116,10.234c0.417,1.564,0.713,3.103,1.119,4.507c0.181,0.715,0.356,1.405,0.524,2.068
							c0.189,0.661,0.37,1.296,0.543,1.902c0.316,1.234,0.67,2.329,0.962,3.312c0.143,0.495,0.276,0.956,0.399,1.381
							c0.138,0.42,0.263,0.804,0.377,1.149c0.447,1.392,0.668,2.2,0.668,2.2s-0.622-0.532-1.7-1.561
							c-0.269-0.261-0.566-0.55-0.893-0.867c-0.304-0.335-0.633-0.698-0.988-1.089c-0.706-0.79-1.512-1.699-2.294-2.778
							c-0.397-0.54-0.813-1.105-1.247-1.694c-0.393-0.615-0.802-1.256-1.226-1.919c-0.868-1.326-1.609-2.835-2.421-4.424
							c-1.496-3.223-2.81-6.952-3.577-11.016c-0.746-4.069-0.816-8.057-0.508-11.626c0.207-1.788,0.42-3.473,0.811-5.026
							c0.185-0.777,0.329-1.525,0.551-2.232c0.229-0.702,0.448-1.376,0.658-2.02c0.394-1.281,0.94-2.392,1.369-3.361
							c0.225-0.482,0.42-0.932,0.635-1.335c0.227-0.396,0.436-0.759,0.623-1.084C233.548,473.677,233.999,473,233.999,473z"/>
					</g>
				</g>
			</g>
		</g>
	</g>
</g>
</svg>
