<?xml version="1.0" encoding="utf-8"?>
<!-- Generator: Adobe Illustrator 25.0.1, SVG Export Plug-In . SVG Version: 6.00 Build 0)  -->
<svg version="1.1" id="Capa_1" xmlns="http://www.w3.org/2000/svg" xmlns:xlink="http://www.w3.org/1999/xlink" x="0px" y="0px"
	 viewBox="0 0 800 800" style="enable-background:new 0 0 800 800;" xml:space="preserve">
<style type="text/css">
	.st0{fill:#E7A573;}
	.st1{opacity:0.5;fill:#662D91;enable-background:new    ;}
	.st2{opacity:0.3;fill:#682764;enable-background:new    ;}
	.st3{opacity:0.3;}
	.st4{fill:#FFFFFF;}
	.st5{fill-rule:evenodd;clip-rule:evenodd;}
	.st6{opacity:0.3;enable-background:new    ;}
</style>
<g id="cara_base">
	<g id="tono_1">
		<g id="Capa_90">
			<path class="st0" d="M531,314c0.5-1.9,2.6-3.4,3.8-4.9c1.3-1.7,2-3.7,3.3-5.3c2.6-3.2,6.2-6.3,9.7-8.3c8.2-4.8,20.7-5,28.9-0.5
				c16.9,9.2,21.2,29.8,23,47.1c1.1,10.5,3.6,19.6,1,30c-2.5,9.8-3.8,19.8-6,29.7c-2,9.3-5.5,18.5-9.7,27.3c-2,4.2-4.5,8.2-7.1,12
				c-1.2,1.8-3.3,3.9-4,5.9c-0.8,2.2-0.5,5.4-0.9,7.8c-0.8,5.2-1.5,10.5-6.7,13.3c-5.7,3.1-10.3,0.2-16-1c0.2-4.4-1.3-10.5-2.4-14.6
				c-1.2-4.6-3.2-9-4-13.6c-1.8-10.5-1.6-21.6-1.6-32.7c0-10.7,0.2-20.9-3.3-30.3c-3.5-9.4-4-19.5-4-30c0-5.9-0.2-11.5-1-17
				c-0.8-5.1-1.4-9.6-3.3-14.3"/>
			<path class="st1" d="M532,315.7c0-5.2,3.2-7.1,6.9-10.4c3.3-3,6.4-6.5,10-9c7.7-5.2,19.7-6.4,28.1-2.2c8.8,4.3,12.1,12,15.6,20.3
				c3.7,8.9,7.4,17.9,8,27.7c0.6,10,3.7,22,0.7,31.7c-3,9.6-6.3,19.3-8.4,29c-1,4.8-1.6,9.4-3.2,14.1c-1.5,4.4-4.5,8.1-5.4,12.6
				c-1,4.5-2.6,8.2-6.1,11.6c-3.8,3.8-4.6,6.7-5.2,11.8c-1,8.8-6.3,19.1-17.4,16.6c-1.1-0.3-5.1-2.1-5.8-3.2
				c-1.1-1.8-0.1-5.9-0.2-8.1c-0.3-5-2.4-8.2-4.3-12.7c-8-18.9-1.4-42.6-4.4-63.3c-0.6-4.4-2.5-8.8-4.3-13c-2-4.6-1.4-10.4-1.7-15.3
				c-0.3-5.6,0.3-10.8,0.3-16.3c0-5.8-2.2-8.9-3.3-14.1c-0.5-2.5-0.1-5.7-0.1-8.3"/>
			<path class="st2" d="M545.8,366.2c-0.1-3.5-1.8-6.9-2-10.8c-0.2-4.1-0.1-8.2,0.7-12c1.4-7.2,3.2-12.7,7.7-18.8
				c4.5-6.2,10.7-16.2,3.6-22.6c7.4,1.9,17.7,9.6,17.7,17.9c1.2-8.5-5.8-15.2-12.2-19.1c6.5-0.8,14.5,5.1,18.5,9.9
				c5,6,7.2,12.6,9.1,19.8c2,7.4,1.8,15.8,1.8,23.7c0,8.3-1.5,14.7-3.3,22.2c-1.7,7-4,13.6-6,20.5c-1.7,6.3-3.3,12.7-7,18.5
				c-3.4,5.3-8.3,9-12.6,13.6c-4.8,5.1-5.8,14.3-3.8,20.9c0.3-3-2-6.8-3.3-9.4c-1.4-2.9-3.5-5.1-5.6-7.6c-5.5-6.4-7-11.9-6.6-20.4
				c0.4-7.6,1.7-16.9-0.2-24.3c-1.8-6.9-4.6-13.5-6-20.4c-1.6-8.2-1.3-19-1.3-27c0,14.7,2.9,28.3,12.2,39.8
				c2.9,3.6,6.4,6.5,10.6,8.1c-2.4-3.8-5.9-6.8-8-11c-2.5-5-3.4-10.3-5.3-15.4"/>
			<path class="st0" d="M239.3,333.7c-6.6-5.5-11.8-12.6-18.3-18.7c-5.5-5.2-14.5-15-22.1-15.7c-4.7-0.4-10.7-1.1-13.9,2.8
				c-4,4.7-1.1,7.5,1.8,11.7c5.8,8.2,2.8,18.4-2.8,25.7c-5.3,6.9-11.9,12.5-14.4,20.9c-1.4,4.5-1.9,11.7,0.6,15.8
				c2.1,3.4,6.7,5.7,9.8,8.2c6.2,4.9,15.3,10.2,18,18c3,8.7-2.5,18.6-6.8,25.7c-2.4,3.9-5.4,6.9-6.6,11.3
				c-0.9,3.4-2.1,11.9,0.6,14.7c2.7,2.9,10.1,3.7,13.7,4.3c4.4,0.6,13.6,1.4,17.3-1.3c5-3.6,5.7-9.9,8.3-15.4
				c2.8-5.6,5.5-11.4,8.3-17c6-12,13.9-24.8,15.7-38.3c1.2-8.5,1-17.4-0.6-25.7c-1.5-8-4.8-16.1-5.1-24.3"/>
			<path d="M559.6,498.6c-0.5-5.3-1.4-10.1-2.5-14.4c-2.1-8.7-4.4-15.5-6-20.2c0-0.1-0.1-0.2-0.1-0.4c-0.1-0.8-0.3-1.6-0.4-2.4
				c-0.1-0.8-0.1-1.7-0.2-2.6c-0.1-0.9-0.1-1.9-0.2-2.9c0-1-0.2-2.1-0.3-3.1c-0.7-4.4-2.8-8.4-3.7-12.6c-0.9-4.3-1.1-9.1-1.3-14.2
				c-0.1-1.3-0.2-2.6-0.3-3.8c-0.1-1.3-0.1-2.5-0.2-3.8c-0.1-2.6-0.1-5.2-0.1-7.8c-0.1-6.9-0.1-13.8-1-20.5
				c-0.1-1.7-0.5-3.3-0.8-4.9c-0.1-0.8-0.3-1.6-0.5-2.4c-0.2-0.8-0.4-1.6-0.6-2.4c-0.9-3.1-2.1-6-3-8.8c-0.5-1.4-0.8-2.8-1.1-4.1
				c-0.1-0.7-0.2-1.4-0.3-2c0-0.7-0.1-1.4-0.1-2.1c-0.2-2.8-0.1-5.5-0.1-8.2c-0.1-5.4-0.2-10.4-0.6-15c-0.1-1.1-0.2-2.3-0.3-3.3
				c-0.2-1.1-0.3-2.1-0.5-3.2c-0.1-0.5-0.1-1-0.2-1.5c-0.1-0.5-0.2-1-0.3-1.5c-0.1-0.5-0.2-1-0.3-1.4c-0.1-0.5-0.3-0.9-0.4-1.3
				c-0.1-0.3-0.2-0.5-0.2-0.8c-0.2-1.8-0.5-3.6-0.7-5.4c-0.3-1.9-0.5-3.9-1-6c-1.4-8.1-3.9-16.9-7.6-25.9c-3.6-9-8.7-18.2-15.2-27.1
				c-6.5-8.8-14.4-17.3-23.4-25.1c-9.1-7.7-19.8-14.4-31.6-19.2c-5.9-2.4-12-4.2-18-5.5c-6.1-1.3-12.2-1.9-18.1-2.3
				c-11.9-0.7-23.4-0.2-34.2,0.4c-5.4,0.3-10.7,0.6-15.8,0.8c-5.1,0.2-10.2,0.5-15,1.1c-9.7,1.2-18.6,3.4-26.2,6.5
				c-1.9,0.8-3.8,1.5-5.6,2.4c-1.8,0.9-3.5,1.7-5.2,2.5c-2,1.1-4,2.2-5.9,3.2c-4.9,2.4-10.3,5.4-15.9,9c-6.1,3.9-12.5,8.7-18.8,14.4
				c-6.4,5.7-12.5,12.6-18,20.5c-0.7,1-1.4,2-2,3c-0.7,1-1.3,2.1-2,3.1c-1.2,2.2-2.5,4.3-3.6,6.6c-2.4,4.5-4.3,9.3-6.1,14.2
				c-3.5,9.9-5.6,20.7-7,31.7c-1.4,11-2,21.7-2.7,32.1c-0.7,10.3-1.6,20.2-3.1,29.5c-0.4,2.3-0.7,4.6-1.3,6.9
				c-0.5,2.2-0.9,4.5-1.5,6.6c-0.3,1.1-0.6,2.1-0.9,3.2c-0.3,1-0.7,2.1-1,3.1c-0.6,2.1-1.4,4.1-2.1,6c-2.8,7.4-5.4,14.4-6.8,21.2
				c-0.3,1-0.5,2.1-0.8,3.1c-0.6,2.6-0.8,5.3-0.7,7.8c0,1,0.1,1.9,0.2,2.8c0.1,2.6,0.3,5,0.6,7.3c0.2,1.3,0.3,2.5,0.5,3.7
				c0,3.9-0.2,7.2,0.2,9.6v0c-0.1,0.7-0.1,1.5,0,2.3c0.1,0.8,0.7,2.7,1.5,3.6c0,0.1,0,0.2,0,0.2c-1.2,8.4-1.2,17.5,0.6,26.6
				c1.8,9.1,5.8,18.2,11.3,26.3c2.7,4.1,5.8,7.9,8.9,11.4c1.6,1.7,3.1,3.5,4.7,5.2c1.6,1.7,3.2,3.3,4.8,5
				c6.4,6.5,12.9,12.4,18.9,18.1c0.9,0.9,1.8,1.7,2.7,2.6c0.9,1,1.9,2,2.9,3c3.8,3.9,8.2,8.3,13.2,13c0.8,0.8,1.7,1.6,2.5,2.5
				c3.5,3.6,6.8,7,9.9,10.2c4.4,4.5,8.4,8.6,11.9,12.2c2.9,3.2,5.8,6.6,8.8,10c5.9,6.9,12.2,14.1,19.5,21
				c7.3,6.8,15.8,13.2,25.8,17.3c5,2,10.2,3.4,15.4,4.1c5.2,0.7,10.4,0.8,15.4,0.5c10.1-0.5,19.7-3,28.1-6.9
				c8.4-3.8,15.7-8.9,21.9-14.1c3.1-2.6,6-5.3,8.7-7.9c2.7-2.6,5.2-5.3,7.5-7.8c4.6-5.1,8.6-9.9,12.1-14.1c3.5-4.2,6.4-7.9,8.9-10.8
				c0.2-0.2,0.4-0.5,0.6-0.7c0.9-1,1.8-2,2.8-3.1c1.4-1.5,2.8-3,4.3-4.6c6.1-6.4,13.4-13.9,22-21.8c8.6-7.9,18.3-16.4,27.4-26.7
				c1.1-1.3,2.3-2.5,3.3-3.8c1-1.3,2.1-2.6,3.1-3.9c2-2.6,4.1-5.2,5.8-8.1c3.4-5.7,5.5-11.8,6.5-17.7
				C560.2,509.6,560.1,503.9,559.6,498.6z M555.9,515c-1.1,5.6-3.2,11.2-6.5,16.4c-1.6,2.6-3.6,5.1-5.6,7.6c-1,1.3-2,2.6-3.1,3.8
				c-1.1,1.3-2.2,2.5-3.3,3.7c-8.8,10-18.4,18.6-26.7,26.9c-8.4,8.2-15.5,16.1-21.2,22.9c-1.4,1.7-2.8,3.3-4,4.9
				c-1.2,1.6-2.4,3-3.5,4.4c-2.2,2.8-4,5.2-5.5,7.1c-0.1,0.2-0.2,0.3-0.3,0.4c-0.8,0.9-1.7,1.9-2.6,2.9c-3.6,4.1-7.8,8.7-12.6,13.5
				c-2.4,2.4-4.9,5-7.7,7.5c-2.7,2.5-5.6,5.1-8.8,7.6c-6.2,5-13.4,9.7-21.6,13.2c-8.2,3.5-17.3,5.8-27,6.2
				c-4.8,0.3-9.7,0.1-14.6-0.6c-4.9-0.7-9.8-2-14.5-3.9c-9.4-3.8-17.6-9.9-24.7-16.5c-7.2-6.6-13.5-13.7-19.6-20.4
				c-6.1-6.7-11.9-13.2-17.7-18.8c-2.9-2.8-5.8-5.5-8.5-8c-0.8-0.8-1.7-1.5-2.5-2.3c-2.2-2.4-4.5-5-6.9-7.6
				c-2.5-2.8-5.1-5.5-7.9-8.4c-2.8-2.8-5.6-5.7-8.6-8.6c-5.9-5.9-12.3-11.9-18.6-18.3c-1.5-1.6-3.1-3.3-4.7-4.9
				c-1.6-1.7-3.1-3.4-4.6-5.1c-3.1-3.5-5.9-7.1-8.6-11c-5.3-7.8-9-16.3-10.8-24.9c-1.9-8.6-2-17.3-1-25.4c2-16.3,9.2-29.8,16.8-39.6
				c3.8-4.9,8.1-8.6,12-11.8c3.9-3.1,7.4-5.6,10.3-7.6c5.8-4,9-6.2,9-6.2s-3.3,2-9.3,5.7c-3,1.9-6.6,4.2-10.7,7.2
				c-4,3-8.6,6.6-12.7,11.5c-4.1,4.9-8,10.7-11.3,17.5c-2.6,5.2-4.6,11-6.1,17.2c-0.1-0.2-0.3-0.3-0.5-0.5c-0.3-2.4-0.6-5.1-1-8.1
				c0-0.6,0-1.1,0-1.7c0-1-0.1-2.1-0.2-3.2c-0.2-1.1-0.3-2.2-0.5-3.3c0-0.1,0-0.3-0.1-0.4c-0.2-4.8,0-10.1,1.3-15.7
				c1.5-6.9,4.5-14.2,7.7-22c0.8-2,1.6-4,2.3-6.1c0.4-1,0.8-2.1,1.1-3.1c0.3-1.1,0.7-2.2,1-3.3c0.7-2.2,1.2-4.5,1.7-6.7
				c0.6-2.3,1-4.6,1.4-7c1.7-9.5,2.8-19.5,3.6-29.8c0.8-10.3,1.5-21,2.9-31.9c1.4-10.8,3.3-21.3,6.6-30.9c1.7-4.8,3.5-9.5,5.7-13.9
				c1-2.2,2.3-4.3,3.4-6.4c0.6-1,1.2-2,1.9-3.1c0.6-1,1.2-2,1.9-3c5.2-7.8,11.1-14.6,17.1-20.4c6.1-5.8,12.2-10.7,18.1-14.8
				c1.1-0.8,2.2-1.5,3.4-2.3c0.4-0.2,0.7-0.5,1.1-0.7c1.2-0.7,2.4-1.5,3.7-2.3c1.3-0.8,2.7-1.5,4.1-2.3c2.8-1.7,5.9-3.2,9.2-4.8
				c1.7-0.7,3.4-1.5,5.2-2.3c1.8-0.8,3.7-1.4,5.5-2.2c7.6-2.8,16.4-4.8,25.8-5.7c4.8-0.4,9.7-0.6,14.8-0.7
				c5.1-0.1,10.4-0.3,15.9-0.5c10.8-0.4,22.2-0.7,33.8,0.1c5.8,0.5,11.7,1.1,17.6,2.4c5.8,1.3,11.7,3,17.4,5.3
				c11.4,4.6,21.7,11,30.7,18.4c8.9,7.5,16.7,15.7,23.2,24.2c6.5,8.5,11.7,17.4,15.4,26.1c3.8,8.8,6.5,17.2,8.1,25.2
				c0.1,0.9,0.4,1.9,0.6,3.1c0.2,0.9-0.2,1.8,0.8,2.8c0,0,0,0,0,0c0,1.9,0.5,3.8,0.8,5.6c0.4,3.7,0.9,7.1,1.2,10.3
				c0.2,2.6,0.4,5,0.6,7.3c0,3.1-0.1,6.5-0.2,9.9c-0.1,2.6-0.3,5.4-0.2,8.4c0,0.7,0,1.5,0.1,2.2c0.1,0.8,0.1,1.5,0.2,2.3
				c0.2,1.5,0.6,3.1,1,4.6c0.9,3,2,5.9,2.7,8.8c0.2,0.7,0.4,1.5,0.5,2.2c0.2,0.7,0.3,1.5,0.4,2.3c0.2,1.6,0.5,3.1,0.7,4.7
				c0.7,6.4,0.7,13.1,0.8,20.1c0,2.7,0.1,5.3,0.2,8c0.1,1.3,0.1,2.7,0.2,3.9c0.1,1.3,0.2,2.5,0.3,3.8c0.3,5,0.5,10,1.7,14.8
				c0.6,2.4,1.5,4.6,2.2,6.6c0.4,1,0.7,2,1.1,3c0.2,0.5,0.3,0.9,0.4,1.4c0.1,0.5,0.3,0.9,0.3,1.4c0.6,3.7,0.6,7.7,1.6,11.2
				c0,0,0-0.1,0-0.1c0.5,1.8,0.9,3.5,1.3,5.2c0.5,1.7,1.1,3.3,1.6,4.8c0.5,1.6,1,3,1.5,4.5c0.3,0.7,0.5,1.4,0.7,2.1
				c0.2,0.7,0.4,1.4,0.6,2.1c0.7,2.1,1.2,4.1,1.7,6c0.5,3.1,0.8,6.4,1,9.9C557.3,503.9,557,509.4,555.9,515z"/>
			<g class="st3">
				<g>
					<g>
						<path d="M410.5,615c0,0-0.7,0-1.9-0.1c-1.2-0.1-2.9-0.1-4.9-0.1c-1,0-2.1,0-3.2,0.1c-0.6,0-1.2,0-1.8,0.1
							c-0.6,0-1.2,0.1-1.9,0.1c-2.5,0.1-5.3,0.3-8.3,0.5c-6,0.3-11.7,0-15.9-0.8c-2.1-0.4-3.8-0.8-4.9-1.1c-1.2-0.3-1.8-0.6-1.8-0.6
							s0.6-0.3,1.8-0.6c1.1-0.4,2.7-0.9,4.7-1.5c4-1.2,9.4-2.8,15.8-3.1c3.2-0.1,6.4,0.2,9.2,0.8c0.7,0.2,1.4,0.3,2,0.5
							c0.7,0.2,1.3,0.4,1.9,0.6c1.2,0.4,2.3,0.9,3.3,1.4c1.9,1,3.4,2,4.3,2.8C410,614.6,410.5,615,410.5,615z"/>
					</g>
				</g>
			</g>
			<g class="st3">
				<g>
					<g>
						<path class="st4" d="M443,635c0,0-0.1,0.6-0.5,1.7c-0.1,0.3-0.2,0.6-0.3,0.9c-0.1,0.3-0.3,0.7-0.5,1c-0.2,0.4-0.4,0.8-0.6,1.2
							c-0.2,0.4-0.5,0.8-0.8,1.3c-1.1,1.8-2.8,3.7-4.8,5.6c-2.1,1.8-4.6,3.5-7.5,4.8c-5.7,2.6-11.4,3.2-15.5,3.1
							c-1,0-1.9-0.1-2.7-0.1c-0.8-0.1-1.5-0.1-2.1-0.2c-1.1-0.2-1.8-0.3-1.8-0.3s0.6-0.3,1.5-0.9c0.5-0.3,1.1-0.6,1.8-1
							c0.7-0.4,1.5-0.8,2.3-1.2c3.5-1.8,8.1-4.1,13.1-6.4c2.5-1.1,4.9-2.2,7.1-3.2c2.1-1,4.1-2,5.8-2.9c0.4-0.2,0.8-0.4,1.2-0.7
							c0.4-0.2,0.7-0.4,1-0.6c0.3-0.2,0.6-0.4,0.9-0.6c0.3-0.2,0.5-0.4,0.7-0.5C442.4,635.4,443,635,443,635z"/>
					</g>
				</g>
			</g>
			<g class="st3">
				<g>
					<g>
						<path class="st4" d="M234,473c0,0,0,0.8,0,2.3c0,0.4,0,0.8,0,1.2c0,0.4,0,0.9,0,1.4c0,1,0,2.2,0.1,3.4c0,0.6,0.1,1.3,0.1,2
							c0,0.7,0.1,1.4,0.2,2.1c0.1,1.4,0.3,3,0.4,4.6c0.4,3.2,0.9,6.6,1.6,10.3c0.7,3.6,1.4,7.1,2.1,10.2c0.4,1.6,0.7,3.1,1.1,4.5
							c0.2,0.7,0.4,1.4,0.5,2.1c0.2,0.7,0.4,1.3,0.5,1.9c0.3,1.2,0.7,2.3,1,3.3c0.1,0.5,0.3,1,0.4,1.4c0.1,0.4,0.3,0.8,0.4,1.1
							c0.4,1.4,0.7,2.2,0.7,2.2s-0.6-0.5-1.7-1.6c-0.3-0.3-0.6-0.5-0.9-0.9c-0.3-0.3-0.6-0.7-1-1.1c-0.7-0.8-1.5-1.7-2.3-2.8
							c-0.4-0.5-0.8-1.1-1.2-1.7c-0.4-0.6-0.8-1.3-1.2-1.9c-0.9-1.3-1.6-2.8-2.4-4.4c-1.5-3.2-2.8-7-3.6-11
							c-0.7-4.1-0.8-8.1-0.5-11.6c0.2-1.8,0.4-3.5,0.8-5c0.2-0.8,0.3-1.5,0.6-2.2c0.2-0.7,0.4-1.4,0.7-2c0.4-1.3,0.9-2.4,1.4-3.4
							c0.2-0.5,0.4-0.9,0.6-1.3c0.2-0.4,0.4-0.8,0.6-1.1C233.5,473.7,234,473,234,473z"/>
					</g>
				</g>
			</g>
			<path class="st0" d="M553.5,474.5c-1.1-2.3-1.9-4.7-2.5-7.2c-2.6-10.8-4.6-21.9-6.6-32.9c-1.3-6.8-2.5-13.9-2.5-20.8
				c0-6.5,0.8-13.1,0.4-19.6c-0.4-6.3-1.5-12.4-2.6-18.6c-1.5-3.8-2.5-7.7-2.8-11.6c-0.4,0.5-0.9,1.1-1.3,1.6
				c0.3-16.2,0.3-31.7-3.6-46.2c-3.4-12.9-6.9-25.4-12.5-38c-2.5-5.7-5.2-11.4-9.5-16c-4.2-4.5-9-7.9-12.7-12.8
				c-1.7-2.2-3.1-5.3-5.5-7c-0.1-0.1-0.2-0.1-0.3-0.2c-0.4-0.4-0.7-0.9-1-1.2c-4.1-5.4-9.3-8.6-14.9-11.9c-5.7-3.3-10.9-7-16.9-9.6
				c-6.1-2.6-12.3-5.1-18.5-7.2c-7.2-2.5-14.7-2.8-22.7-2.8c-16.3,0-33.2-0.3-49.2,1.1c-7.5,0.6-15.6,1.1-23,2.2
				c-6.8,1-13.4,3.2-19.9,5.6c-5.8,2.1-12.6,4.5-17.8,8c-5.3,3.5-11.2,6.5-16.4,10.1c-5,3.5-9.6,7.4-14.2,11.8
				c-1.9,1.7-3.2,3.7-4.4,5.9c-0.7,0.8-1.4,1.6-2.1,2.6c-3.9,4.8-8.6,9.5-12.3,14.8c-15.7,22.3-18.6,51.5-19.9,78.5
				c-0.4,0-0.9-0.1-1.3-0.2c0,7.3-0.4,14.5-0.6,21.9c-0.2,13.2-2.4,25.6-7.6,37.8c-4.8,11.5-11.7,24.6-11.9,37.4
				c-0.1,6.6,1.5,11.9,1.6,18.4c0,1.1-0.1,1.5-0.2,2.6c0.3-0.2-0.1,1.5,0.2,1.2c2.4,3.5,1.7,7.2,1.1,10.9c-0.6,3.8-0.2,7.6,0.5,11.2
				c1.3,6.7,3.4,13.2,5.2,19.8c3.5,12.7,8.5,23.1,19.5,32c18.5,14.9,34.8,33.3,51.1,51.1c9.4,10.3,19.3,20.6,28.6,30.6
				c7.9,8.6,14.1,15.3,23.1,22.6c7.3,5.9,18.1,12.7,27.2,14.8c9.7,2.2,27.4,2.4,35.2-2.5l0.5,2c5.7-3.8,12.5-5.1,18.5-7.9
				c5.6-2.6,10-6.9,14.9-10.7c9.8-7.9,18.9-15.3,26.9-25.1c7.7-9.5,16.4-18.6,24.2-27.8c8.2-9.5,18.1-18.1,27.4-26.6
				c9-8.2,16.7-17.8,24.3-27.2C556,527.5,559,514.9,559,500C559,490.4,556.3,482.7,553.5,474.5z"/>
			<path d="M559.6,498.6c-0.5-5.3-1.4-10.1-2.5-14.4c-2.1-8.7-4.4-15.5-6-20.2c0-0.1-0.1-0.2-0.1-0.4c-0.1-0.8-0.3-1.6-0.4-2.4
				c-0.1-0.8-0.1-1.7-0.2-2.6c-0.1-0.9-0.1-1.9-0.2-2.9c0-1-0.2-2.1-0.3-3.1c-0.7-4.4-2.8-8.4-3.7-12.6c-0.9-4.3-1.1-9.1-1.3-14.2
				c-0.1-1.3-0.2-2.6-0.3-3.8c-0.1-1.3-0.1-2.5-0.2-3.8c-0.1-2.6-0.1-5.2-0.1-7.8c-0.1-6.9-0.1-13.8-1-20.5
				c-0.1-1.7-0.5-3.3-0.8-4.9c-0.1-0.8-0.3-1.6-0.5-2.4c-0.2-0.8-0.4-1.6-0.6-2.4c-0.9-3.1-2.1-6-3-8.8c-0.5-1.4-0.8-2.8-1.1-4.1
				c-0.1-0.7-0.2-1.4-0.3-2c0-0.7-0.1-1.4-0.1-2.1c-0.2-2.8-0.1-5.5-0.1-8.2c-0.1-5.4-0.2-10.4-0.6-15c-0.1-1.1-0.2-2.3-0.3-3.3
				c-0.2-1.1-0.3-2.1-0.5-3.2c-0.1-0.5-0.1-1-0.2-1.5c-0.1-0.5-0.2-1-0.3-1.5c-0.1-0.5-0.2-1-0.3-1.4c-0.1-0.5-0.3-0.9-0.4-1.3
				c-0.1-0.3-0.2-0.5-0.2-0.8c-0.2-1.8-0.5-3.6-0.7-5.4c-0.3-1.9-0.5-3.9-1-6c-1.4-8.1-3.9-16.9-7.6-25.9c-3.6-9-8.7-18.2-15.2-27.1
				c-6.5-8.8-14.4-17.3-23.4-25.1c-9.1-7.7-19.8-14.4-31.6-19.2c-5.9-2.4-12-4.2-18-5.5c-6.1-1.3-12.2-1.9-18.1-2.3
				c-11.9-0.7-23.4-0.2-34.2,0.4c-5.4,0.3-10.7,0.6-15.8,0.8c-5.1,0.2-10.2,0.5-15,1.1c-9.7,1.2-18.6,3.4-26.2,6.5
				c-1.9,0.8-3.8,1.5-5.6,2.4c-1.8,0.9-3.5,1.7-5.2,2.5c-2,1.1-4,2.2-5.9,3.2c-4.9,2.4-10.3,5.4-15.9,9c-6.1,3.9-12.5,8.7-18.8,14.4
				c-6.4,5.7-12.5,12.6-18,20.5c-0.7,1-1.4,2-2,3c-0.7,1-1.3,2.1-2,3.1c-1.2,2.2-2.5,4.3-3.6,6.6c-2.4,4.5-4.3,9.3-6.1,14.2
				c-3.5,9.9-5.6,20.7-7,31.7c-1.4,11-2,21.7-2.7,32.1c-0.7,10.3-1.6,20.2-3.1,29.5c-0.4,2.3-0.7,4.6-1.3,6.9
				c-0.5,2.2-0.9,4.5-1.5,6.6c-0.3,1.1-0.6,2.1-0.9,3.2c-0.3,1-0.7,2.1-1,3.1c-0.6,2.1-1.4,4.1-2.1,6c-2.8,7.4-5.4,14.4-6.8,21.2
				c-0.3,1-0.5,2.1-0.8,3.1c-0.6,2.6-0.8,5.3-0.7,7.8c0,1,0.1,1.9,0.2,2.8c0.1,2.6,0.3,5,0.6,7.3c0.2,1.3,0.3,2.5,0.5,3.7
				c0,3.9-0.2,7.2,0.2,9.6v0c-0.1,0.7-0.1,1.5,0,2.3c0.1,0.8,0.7,2.7,1.5,3.6c0,0.1,0,0.2,0,0.2c-1.2,8.4-1.2,17.5,0.6,26.6
				c1.8,9.1,5.8,18.2,11.3,26.3c2.7,4.1,5.8,7.9,8.9,11.4c1.6,1.7,3.1,3.5,4.7,5.2c1.6,1.7,3.2,3.3,4.8,5
				c6.4,6.5,12.9,12.4,18.9,18.1c0.9,0.9,1.8,1.7,2.7,2.6c0.9,1,1.9,2,2.9,3c3.8,3.9,8.2,8.3,13.2,13c0.8,0.8,1.7,1.6,2.5,2.5
				c3.5,3.6,6.8,7,9.9,10.2c4.4,4.5,8.4,8.6,11.9,12.2c2.9,3.2,5.8,6.6,8.8,10c5.9,6.9,12.2,14.1,19.5,21
				c7.3,6.8,15.8,13.2,25.8,17.3c5,2,10.2,3.4,15.4,4.1c5.2,0.7,10.4,0.8,15.4,0.5c10.1-0.5,19.7-3,28.1-6.9
				c8.4-3.8,15.7-8.9,21.9-14.1c3.1-2.6,6-5.3,8.7-7.9c2.7-2.6,5.2-5.3,7.5-7.8c4.6-5.1,8.6-9.9,12.1-14.1c3.5-4.2,6.4-7.9,8.9-10.8
				c0.2-0.2,0.4-0.5,0.6-0.7c0.9-1,1.8-2,2.8-3.1c1.4-1.5,2.8-3,4.3-4.6c6.1-6.4,13.4-13.9,22-21.8c8.6-7.9,18.3-16.4,27.4-26.7
				c1.1-1.3,2.3-2.5,3.3-3.8c1-1.3,2.1-2.6,3.1-3.9c2-2.6,4.1-5.2,5.8-8.1c3.4-5.7,5.5-11.8,6.5-17.7
				C560.2,509.6,560.1,503.9,559.6,498.6z M555.9,515c-1.1,5.6-3.2,11.2-6.5,16.4c-1.6,2.6-3.6,5.1-5.6,7.6c-1,1.3-2,2.6-3.1,3.8
				c-1.1,1.3-2.2,2.5-3.3,3.7c-8.8,10-18.4,18.6-26.7,26.9c-8.4,8.2-15.5,16.1-21.2,22.9c-1.4,1.7-2.8,3.3-4,4.9
				c-1.2,1.6-2.4,3-3.5,4.4c-2.2,2.8-4,5.2-5.5,7.1c-0.1,0.2-0.2,0.3-0.3,0.4c-0.8,0.9-1.7,1.9-2.6,2.9c-3.6,4.1-7.8,8.7-12.6,13.5
				c-2.4,2.4-4.9,5-7.7,7.5c-2.7,2.5-5.6,5.1-8.8,7.6c-6.2,5-13.4,9.7-21.6,13.2c-8.2,3.5-17.3,5.8-27,6.2
				c-4.8,0.3-9.7,0.1-14.6-0.6c-4.9-0.7-9.8-2-14.5-3.9c-9.4-3.8-17.6-9.9-24.7-16.5c-7.2-6.6-13.5-13.7-19.6-20.4
				c-6.1-6.7-11.9-13.2-17.7-18.8c-2.9-2.8-5.8-5.5-8.5-8c-0.8-0.8-1.7-1.5-2.5-2.3c-2.2-2.4-4.5-5-6.9-7.6
				c-2.5-2.8-5.1-5.5-7.9-8.4c-2.8-2.8-5.6-5.7-8.6-8.6c-5.9-5.9-12.3-11.9-18.6-18.3c-1.5-1.6-3.1-3.3-4.7-4.9
				c-1.6-1.7-3.1-3.4-4.6-5.1c-3.1-3.5-5.9-7.1-8.6-11c-5.3-7.8-9-16.3-10.8-24.9c-1.9-8.6-2-17.3-1-25.4c2-16.3,9.2-29.8,16.8-39.6
				c3.8-4.9,8.1-8.6,12-11.8c3.9-3.1,7.4-5.6,10.3-7.6c5.8-4,9-6.2,9-6.2s-3.3,2-9.3,5.7c-3,1.9-6.6,4.2-10.7,7.2
				c-4,3-8.6,6.6-12.7,11.5c-4.1,4.9-8,10.7-11.3,17.5c-2.6,5.2-4.6,11-6.1,17.2c-0.1-0.2-0.3-0.3-0.5-0.5c-0.3-2.4-0.6-5.1-1-8.1
				c0-0.6,0-1.1,0-1.7c0-1-0.1-2.1-0.2-3.2c-0.2-1.1-0.3-2.2-0.5-3.3c0-0.1,0-0.3-0.1-0.4c-0.2-4.8,0-10.1,1.3-15.7
				c1.5-6.9,4.5-14.2,7.7-22c0.8-2,1.6-4,2.3-6.1c0.4-1,0.8-2.1,1.1-3.1c0.3-1.1,0.7-2.2,1-3.3c0.7-2.2,1.2-4.5,1.7-6.7
				c0.6-2.3,1-4.6,1.4-7c1.7-9.5,2.8-19.5,3.6-29.8c0.8-10.3,1.5-21,2.9-31.9c1.4-10.8,3.3-21.3,6.6-30.9c1.7-4.8,3.5-9.5,5.7-13.9
				c1-2.2,2.3-4.3,3.4-6.4c0.6-1,1.2-2,1.9-3.1c0.6-1,1.2-2,1.9-3c5.2-7.8,11.1-14.6,17.1-20.4c6.1-5.8,12.2-10.7,18.1-14.8
				c1.1-0.8,2.2-1.5,3.4-2.3c0.4-0.2,0.7-0.5,1.1-0.7c1.2-0.7,2.4-1.5,3.7-2.3c1.3-0.8,2.7-1.5,4.1-2.3c2.8-1.7,5.9-3.2,9.2-4.8
				c1.7-0.7,3.4-1.5,5.2-2.3c1.8-0.8,3.7-1.4,5.5-2.2c7.6-2.8,16.4-4.8,25.8-5.7c4.8-0.4,9.7-0.6,14.8-0.7
				c5.1-0.1,10.4-0.3,15.9-0.5c10.8-0.4,22.2-0.7,33.8,0.1c5.8,0.5,11.7,1.1,17.6,2.4c5.8,1.3,11.7,3,17.4,5.3
				c11.4,4.6,21.7,11,30.7,18.4c8.9,7.5,16.7,15.7,23.2,24.2c6.5,8.5,11.7,17.4,15.4,26.1c3.8,8.8,6.5,17.2,8.1,25.2
				c0.1,0.9,0.4,1.9,0.6,3.1c0.2,0.9-0.2,1.8,0.8,2.8c0,0,0,0,0,0c0,1.9,0.5,3.8,0.8,5.6c0.4,3.7,0.9,7.1,1.2,10.3
				c0.2,2.6,0.4,5,0.6,7.3c0,3.1-0.1,6.5-0.2,9.9c-0.1,2.6-0.3,5.4-0.2,8.4c0,0.7,0,1.5,0.1,2.2c0.1,0.8,0.1,1.5,0.2,2.3
				c0.2,1.5,0.6,3.1,1,4.6c0.9,3,2,5.9,2.7,8.8c0.2,0.7,0.4,1.5,0.5,2.2c0.2,0.7,0.3,1.5,0.4,2.3c0.2,1.6,0.5,3.1,0.7,4.7
				c0.7,6.4,0.7,13.1,0.8,20.1c0,2.7,0.1,5.3,0.2,8c0.1,1.3,0.1,2.7,0.2,3.9c0.1,1.3,0.2,2.5,0.3,3.8c0.3,5,0.5,10,1.7,14.8
				c0.6,2.4,1.5,4.6,2.2,6.6c0.4,1,0.7,2,1.1,3c0.2,0.5,0.3,0.9,0.4,1.4c0.1,0.5,0.3,0.9,0.3,1.4c0.6,3.7,0.6,7.7,1.6,11.2
				c0,0,0-0.1,0-0.1c0.5,1.8,0.9,3.5,1.3,5.2c0.5,1.7,1.1,3.3,1.6,4.8c0.5,1.6,1,3,1.5,4.5c0.3,0.7,0.5,1.4,0.7,2.1
				c0.2,0.7,0.4,1.4,0.6,2.1c0.7,2.1,1.2,4.1,1.7,6c0.5,3.1,0.8,6.4,1,9.9C557.3,503.9,557,509.4,555.9,515z"/>
			<g class="st3">
				<g>
					<g>
						<path d="M410.5,615c0,0-0.7,0-1.9-0.1c-1.2-0.1-2.9-0.1-4.9-0.1c-1,0-2.1,0-3.2,0.1c-0.6,0-1.2,0-1.8,0.1
							c-0.6,0-1.2,0.1-1.9,0.1c-2.5,0.1-5.3,0.3-8.3,0.5c-6,0.3-11.7,0-15.9-0.8c-2.1-0.4-3.8-0.8-4.9-1.1c-1.2-0.3-1.8-0.6-1.8-0.6
							s0.6-0.3,1.8-0.6c1.1-0.4,2.7-0.9,4.7-1.5c4-1.2,9.4-2.8,15.8-3.1c3.2-0.1,6.4,0.2,9.2,0.8c0.7,0.2,1.4,0.3,2,0.5
							c0.7,0.2,1.3,0.4,1.9,0.6c1.2,0.4,2.3,0.9,3.3,1.4c1.9,1,3.4,2,4.3,2.8C410,614.6,410.5,615,410.5,615z"/>
					</g>
				</g>
			</g>
			<g class="st3">
				<g>
					<g>
						<path class="st4" d="M443,635c0,0-0.1,0.6-0.5,1.7c-0.1,0.3-0.2,0.6-0.3,0.9c-0.1,0.3-0.3,0.7-0.5,1c-0.2,0.4-0.4,0.8-0.6,1.2
							c-0.2,0.4-0.5,0.8-0.8,1.3c-1.1,1.8-2.8,3.7-4.8,5.6c-2.1,1.8-4.6,3.5-7.5,4.8c-5.7,2.6-11.4,3.2-15.5,3.1
							c-1,0-1.9-0.1-2.7-0.1c-0.8-0.1-1.5-0.1-2.1-0.2c-1.1-0.2-1.8-0.3-1.8-0.3s0.6-0.3,1.5-0.9c0.5-0.3,1.1-0.6,1.8-1
							c0.7-0.4,1.5-0.8,2.3-1.2c3.5-1.8,8.1-4.1,13.1-6.4c2.5-1.1,4.9-2.2,7.1-3.2c2.1-1,4.1-2,5.8-2.9c0.4-0.2,0.8-0.4,1.2-0.7
							c0.4-0.2,0.7-0.4,1-0.6c0.3-0.2,0.6-0.4,0.9-0.6c0.3-0.2,0.5-0.4,0.7-0.5C442.4,635.4,443,635,443,635z"/>
					</g>
				</g>
			</g>
			<g class="st3">
				<g>
					<g>
						<path class="st4" d="M234,473c0,0,0,0.8,0,2.3c0,0.4,0,0.8,0,1.2c0,0.4,0,0.9,0,1.4c0,1,0,2.2,0.1,3.4c0,0.6,0.1,1.3,0.1,2
							c0,0.7,0.1,1.4,0.2,2.1c0.1,1.4,0.3,3,0.4,4.6c0.4,3.2,0.9,6.6,1.6,10.3c0.7,3.6,1.4,7.1,2.1,10.2c0.4,1.6,0.7,3.1,1.1,4.5
							c0.2,0.7,0.4,1.4,0.5,2.1c0.2,0.7,0.4,1.3,0.5,1.9c0.3,1.2,0.7,2.3,1,3.3c0.1,0.5,0.3,1,0.4,1.4c0.1,0.4,0.3,0.8,0.4,1.1
							c0.4,1.4,0.7,2.2,0.7,2.2s-0.6-0.5-1.7-1.6c-0.3-0.3-0.6-0.5-0.9-0.9c-0.3-0.3-0.6-0.7-1-1.1c-0.7-0.8-1.5-1.7-2.3-2.8
							c-0.4-0.5-0.8-1.1-1.2-1.7c-0.4-0.6-0.8-1.3-1.2-1.9c-0.9-1.3-1.6-2.8-2.4-4.4c-1.5-3.2-2.8-7-3.6-11
							c-0.7-4.1-0.8-8.1-0.5-11.6c0.2-1.8,0.4-3.5,0.8-5c0.2-0.8,0.3-1.5,0.6-2.2c0.2-0.7,0.4-1.4,0.7-2c0.4-1.3,0.9-2.4,1.4-3.4
							c0.2-0.5,0.4-0.9,0.6-1.3c0.2-0.4,0.4-0.8,0.6-1.1C233.5,473.7,234,473,234,473z"/>
					</g>
				</g>
			</g>
			<path class="st0" d="M553.5,474.5c-1.1-2.3-1.9-4.7-2.5-7.2c-2.6-10.8-4.6-21.9-6.6-32.9c-1.3-6.8-2.5-13.9-2.5-20.8
				c0-6.5,0.8-13.1,0.4-19.6c-0.4-6.3-1.5-12.4-2.6-18.6c-1.5-3.8-2.5-7.7-2.8-11.6c-0.4,0.5-0.9,1.1-1.3,1.6
				c0.3-16.2,0.3-31.7-3.6-46.2c-3.4-12.9-6.9-25.4-12.5-38c-2.5-5.7-5.2-11.4-9.5-16c-4.2-4.5-9-7.9-12.7-12.8
				c-1.7-2.2-3.1-5.3-5.5-7c-0.1-0.1-0.2-0.1-0.3-0.2c-0.4-0.4-0.7-0.9-1-1.2c-4.1-5.4-9.3-8.6-14.9-11.9c-5.7-3.3-10.9-7-16.9-9.6
				c-6.1-2.6-12.3-5.1-18.5-7.2c-7.2-2.5-14.7-2.8-22.7-2.8c-16.3,0-33.2-0.3-49.2,1.1c-7.5,0.6-15.6,1.1-23,2.2
				c-6.8,1-13.4,3.2-19.9,5.6c-5.8,2.1-12.6,4.5-17.8,8c-5.3,3.5-11.2,6.5-16.4,10.1c-5,3.5-9.6,7.4-14.2,11.8
				c-1.9,1.7-3.2,3.7-4.4,5.9c-0.7,0.8-1.4,1.6-2.1,2.6c-3.9,4.8-8.6,9.5-12.3,14.8c-15.7,22.3-18.6,51.5-19.9,78.5
				c-0.4,0-0.9-0.1-1.3-0.2c0,7.3-0.4,14.5-0.6,21.9c-0.2,13.2-2.4,25.6-7.6,37.8c-4.5,10.8-10.8,23-11.8,35
				c0.6,2.5,0.6,5.2,0.6,7.8c0,5.9,1.1,11.7,1.4,17.6c1.8,3.2,1.2,6.7,0.7,10.1c-0.6,3.8-0.2,7.6,0.5,11.2
				c1.3,6.7,3.4,13.2,5.2,19.8c3.5,12.7,8.5,23.1,19.5,32c18.5,14.9,34.8,33.3,51.1,51.1c9.4,10.3,19.3,20.6,28.6,30.6
				c7.9,8.6,14.1,15.3,23.1,22.6c7.3,5.9,18.1,12.7,27.2,14.8c9.7,2.2,27.4,2.4,35.2-2.5l0.5,2c5.7-3.8,12.5-5.1,18.5-7.9
				c5.6-2.6,10-6.9,14.9-10.7c9.8-7.9,18.9-15.3,26.9-25.1c7.7-9.5,16.4-18.6,24.2-27.8c8.2-9.5,18.1-18.1,27.4-26.6
				c9-8.2,16.7-17.8,24.3-27.2C556,527.5,559,514.9,559,500C559,490.4,556.3,482.7,553.5,474.5z"/>
			<path d="M559.6,498.6c-0.5-5.3-1.4-10.1-2.5-14.4c-2.1-8.7-4.4-15.5-6-20.2c0-0.1-0.1-0.2-0.1-0.4c-0.1-0.8-0.3-1.6-0.4-2.4
				c-0.1-0.8-0.1-1.7-0.2-2.6c-0.1-0.9-0.1-1.9-0.2-2.9c0-1-0.2-2.1-0.3-3.1c-0.7-4.4-2.8-8.4-3.7-12.6c-0.9-4.3-1.1-9.1-1.3-14.2
				c-0.1-1.3-0.2-2.6-0.3-3.8c-0.1-1.3-0.1-2.5-0.2-3.8c-0.1-2.6-0.1-5.2-0.1-7.8c-0.1-6.9-0.1-13.8-1-20.5
				c-0.1-1.7-0.5-3.3-0.8-4.9c-0.1-0.8-0.3-1.6-0.5-2.4c-0.2-0.8-0.4-1.6-0.6-2.4c-0.9-3.1-2.1-6-3-8.8c-0.5-1.4-0.8-2.8-1.1-4.1
				c-0.1-0.7-0.2-1.4-0.3-2c0-0.7-0.1-1.4-0.1-2.1c-0.2-2.8-0.1-5.5-0.1-8.2c-0.1-5.4-0.2-10.4-0.6-15c-0.1-1.1-0.2-2.3-0.3-3.3
				c-0.2-1.1-0.3-2.1-0.5-3.2c-0.1-0.5-0.1-1-0.2-1.5c-0.1-0.5-0.2-1-0.3-1.5c-0.1-0.5-0.2-1-0.3-1.4c-0.1-0.5-0.3-0.9-0.4-1.3
				c-0.1-0.3-0.2-0.5-0.2-0.8c-0.2-1.8-0.5-3.6-0.7-5.4c-0.3-1.9-0.5-3.9-1-6c-1.4-8.1-3.9-16.9-7.6-25.9c-3.6-9-8.7-18.2-15.2-27.1
				c-6.5-8.8-14.4-17.3-23.4-25.1c-9.1-7.7-19.8-14.4-31.6-19.2c-5.9-2.4-12-4.2-18-5.5c-6.1-1.3-12.2-1.9-18.1-2.3
				c-11.9-0.7-23.4-0.2-34.2,0.4c-5.4,0.3-10.7,0.6-15.8,0.8c-5.1,0.2-10.2,0.5-15,1.1c-9.7,1.2-18.6,3.4-26.2,6.5
				c-1.9,0.8-3.8,1.5-5.6,2.4c-1.8,0.9-3.5,1.7-5.2,2.5c-2,1.1-4,2.2-5.9,3.2c-4.9,2.4-10.3,5.4-15.9,9c-6.1,3.9-12.5,8.7-18.8,14.4
				c-6.4,5.7-12.5,12.6-18,20.5c-0.7,1-1.4,2-2,3c-0.7,1-1.3,2.1-2,3.1c-1.2,2.2-2.5,4.3-3.6,6.6c-2.4,4.5-4.3,9.3-6.1,14.2
				c-3.5,9.9-5.6,20.7-7,31.7c-1.4,11-2,21.7-2.7,32.1c-0.7,10.3-1.6,20.2-3.1,29.5c-0.4,2.3-0.7,4.6-1.3,6.9
				c-0.5,2.2-0.9,4.5-1.5,6.6c-0.3,1.1-0.6,2.1-0.9,3.2c-0.3,1-0.7,2.1-1,3.1c-0.6,2.1-1.4,4.1-2.1,6c-2.8,7.4-5.4,14.4-6.8,21.2
				c-0.3,1-0.5,2.1-0.8,3.1c-0.6,2.6-0.8,5.3-0.7,7.8c0,1,0.1,1.9,0.2,2.8c0.1,2.6,0.3,5,0.6,7.3c0.2,1.3,0.3,2.5,0.5,3.7
				c0,3.9-0.2,7.2,0.2,9.6v0c-0.1,0.7-0.1,1.5,0,2.3c0.1,0.8,0.7,2.7,1.5,3.6c0,0.1,0,0.2,0,0.2c-1.2,8.4-1.2,17.5,0.6,26.6
				c1.8,9.1,5.8,18.2,11.3,26.3c2.7,4.1,5.8,7.9,8.9,11.4c1.6,1.7,3.1,3.5,4.7,5.2c1.6,1.7,3.2,3.3,4.8,5
				c6.4,6.5,12.9,12.4,18.9,18.1c0.9,0.9,1.8,1.7,2.7,2.6c0.9,1,1.9,2,2.9,3c3.8,3.9,8.2,8.3,13.2,13c0.8,0.8,1.7,1.6,2.5,2.5
				c3.5,3.6,6.8,7,9.9,10.2c4.4,4.5,8.4,8.6,11.9,12.2c2.9,3.2,5.8,6.6,8.8,10c5.9,6.9,12.2,14.1,19.5,21
				c7.3,6.8,15.8,13.2,25.8,17.3c5,2,10.2,3.4,15.4,4.1c5.2,0.7,10.4,0.8,15.4,0.5c10.1-0.5,19.7-3,28.1-6.9
				c8.4-3.8,15.7-8.9,21.9-14.1c3.1-2.6,6-5.3,8.7-7.9c2.7-2.6,5.2-5.3,7.5-7.8c4.6-5.1,8.6-9.9,12.1-14.1c3.5-4.2,6.4-7.9,8.9-10.8
				c0.2-0.2,0.4-0.5,0.6-0.7c0.9-1,1.8-2,2.8-3.1c1.4-1.5,2.8-3,4.3-4.6c6.1-6.4,13.4-13.9,22-21.8c8.6-7.9,18.3-16.4,27.4-26.7
				c1.1-1.3,2.3-2.5,3.3-3.8c1-1.3,2.1-2.6,3.1-3.9c2-2.6,4.1-5.2,5.8-8.1c3.4-5.7,5.5-11.8,6.5-17.7
				C560.2,509.6,560.1,503.9,559.6,498.6z M555.9,515c-1.1,5.6-3.2,11.2-6.5,16.4c-1.6,2.6-3.6,5.1-5.6,7.6c-1,1.3-2,2.6-3.1,3.8
				c-1.1,1.3-2.2,2.5-3.3,3.7c-8.8,10-18.4,18.6-26.7,26.9c-8.4,8.2-15.5,16.1-21.2,22.9c-1.4,1.7-2.8,3.3-4,4.9
				c-1.2,1.6-2.4,3-3.5,4.4c-2.2,2.8-4,5.2-5.5,7.1c-0.1,0.2-0.2,0.3-0.3,0.4c-0.8,0.9-1.7,1.9-2.6,2.9c-3.6,4.1-7.8,8.7-12.6,13.5
				c-2.4,2.4-4.9,5-7.7,7.5c-2.7,2.5-5.6,5.1-8.8,7.6c-6.2,5-13.4,9.7-21.6,13.2c-8.2,3.5-17.3,5.8-27,6.2
				c-4.8,0.3-9.7,0.1-14.6-0.6c-4.9-0.7-9.8-2-14.5-3.9c-9.4-3.8-17.6-9.9-24.7-16.5c-7.2-6.6-13.5-13.7-19.6-20.4
				c-6.1-6.7-11.9-13.2-17.7-18.8c-2.9-2.8-5.8-5.5-8.5-8c-0.8-0.8-1.7-1.5-2.5-2.3c-2.2-2.4-4.5-5-6.9-7.6
				c-2.5-2.8-5.1-5.5-7.9-8.4c-2.8-2.8-5.6-5.7-8.6-8.6c-5.9-5.9-12.3-11.9-18.6-18.3c-1.5-1.6-3.1-3.3-4.7-4.9
				c-1.6-1.7-3.1-3.4-4.6-5.1c-3.1-3.5-5.9-7.1-8.6-11c-5.3-7.8-9-16.3-10.8-24.9c-1.9-8.6-2-17.3-1-25.4c2-16.3,9.2-29.8,16.8-39.6
				c3.8-4.9,8.1-8.6,12-11.8c3.9-3.1,7.4-5.6,10.3-7.6c5.8-4,9-6.2,9-6.2s-3.3,2-9.3,5.7c-3,1.9-6.6,4.2-10.7,7.2
				c-4,3-8.6,6.6-12.7,11.5c-4.1,4.9-8,10.7-11.3,17.5c-2.6,5.2-4.6,11-6.1,17.2c-0.1-0.2-0.3-0.3-0.5-0.5c-0.3-2.4-0.6-5.1-1-8.1
				c0-0.6,0-1.1,0-1.7c0-1-0.1-2.1-0.2-3.2c-0.2-1.1-0.3-2.2-0.5-3.3c0-0.1,0-0.3-0.1-0.4c-0.2-4.8,0-10.1,1.3-15.7
				c1.5-6.9,4.5-14.2,7.7-22c0.8-2,1.6-4,2.3-6.1c0.4-1,0.8-2.1,1.1-3.1c0.3-1.1,0.7-2.2,1-3.3c0.7-2.2,1.2-4.5,1.7-6.7
				c0.6-2.3,1-4.6,1.4-7c1.7-9.5,2.8-19.5,3.6-29.8c0.8-10.3,1.5-21,2.9-31.9c1.4-10.8,3.3-21.3,6.6-30.9c1.7-4.8,3.5-9.5,5.7-13.9
				c1-2.2,2.3-4.3,3.4-6.4c0.6-1,1.2-2,1.9-3.1c0.6-1,1.2-2,1.9-3c5.2-7.8,11.1-14.6,17.1-20.4c6.1-5.8,12.2-10.7,18.1-14.8
				c1.1-0.8,2.2-1.5,3.4-2.3c0.4-0.2,0.7-0.5,1.1-0.7c1.2-0.7,2.4-1.5,3.7-2.3c1.3-0.8,2.7-1.5,4.1-2.3c2.8-1.7,5.9-3.2,9.2-4.8
				c1.7-0.7,3.4-1.5,5.2-2.3c1.8-0.8,3.7-1.4,5.5-2.2c7.6-2.8,16.4-4.8,25.8-5.7c4.8-0.4,9.7-0.6,14.8-0.7
				c5.1-0.1,10.4-0.3,15.9-0.5c10.8-0.4,22.2-0.7,33.8,0.1c5.8,0.5,11.7,1.1,17.6,2.4c5.8,1.3,11.7,3,17.4,5.3
				c11.4,4.6,21.7,11,30.7,18.4c8.9,7.5,16.7,15.7,23.2,24.2c6.5,8.5,11.7,17.4,15.4,26.1c3.8,8.8,6.5,17.2,8.1,25.2
				c0.1,0.9,0.4,1.9,0.6,3.1c0.2,0.9-0.2,1.8,0.8,2.8c0,0,0,0,0,0c0,1.9,0.5,3.8,0.8,5.6c0.4,3.7,0.9,7.1,1.2,10.3
				c0.2,2.6,0.4,5,0.6,7.3c0,3.1-0.1,6.5-0.2,9.9c-0.1,2.6-0.3,5.4-0.2,8.4c0,0.7,0,1.5,0.1,2.2c0.1,0.8,0.1,1.5,0.2,2.3
				c0.2,1.5,0.6,3.1,1,4.6c0.9,3,2,5.9,2.7,8.8c0.2,0.7,0.4,1.5,0.5,2.2c0.2,0.7,0.3,1.5,0.4,2.3c0.2,1.6,0.5,3.1,0.7,4.7
				c0.7,6.4,0.7,13.1,0.8,20.1c0,2.7,0.1,5.3,0.2,8c0.1,1.3,0.1,2.7,0.2,3.9c0.1,1.3,0.2,2.5,0.3,3.8c0.3,5,0.5,10,1.7,14.8
				c0.6,2.4,1.5,4.6,2.2,6.6c0.4,1,0.7,2,1.1,3c0.2,0.5,0.3,0.9,0.4,1.4c0.1,0.5,0.3,0.9,0.3,1.4c0.6,3.7,0.6,7.7,1.6,11.2
				c0,0,0-0.1,0-0.1c0.5,1.8,0.9,3.5,1.3,5.2c0.5,1.7,1.1,3.3,1.6,4.8c0.5,1.6,1,3,1.5,4.5c0.3,0.7,0.5,1.4,0.7,2.1
				c0.2,0.7,0.4,1.4,0.6,2.1c0.7,2.1,1.2,4.1,1.7,6c0.5,3.1,0.8,6.4,1,9.9C557.3,503.9,557,509.4,555.9,515z"/>
			<g class="st3">
				<g>
					<g>
						<path d="M410.5,615c0,0-0.7,0-1.9-0.1c-1.2-0.1-2.9-0.1-4.9-0.1c-1,0-2.1,0-3.2,0.1c-0.6,0-1.2,0-1.8,0.1
							c-0.6,0-1.2,0.1-1.9,0.1c-2.5,0.1-5.3,0.3-8.3,0.5c-6,0.3-11.7,0-15.9-0.8c-2.1-0.4-3.8-0.8-4.9-1.1c-1.2-0.3-1.8-0.6-1.8-0.6
							s0.6-0.3,1.8-0.6c1.1-0.4,2.7-0.9,4.7-1.5c4-1.2,9.4-2.8,15.8-3.1c3.2-0.1,6.4,0.2,9.2,0.8c0.7,0.2,1.4,0.3,2,0.5
							c0.7,0.2,1.3,0.4,1.9,0.6c1.2,0.4,2.3,0.9,3.3,1.4c1.9,1,3.4,2,4.3,2.8C410,614.6,410.5,615,410.5,615z"/>
					</g>
				</g>
			</g>
			<g class="st3">
				<g>
					<g>
						<path class="st4" d="M443,635c0,0-0.1,0.6-0.5,1.7c-0.1,0.3-0.2,0.6-0.3,0.9c-0.1,0.3-0.3,0.7-0.5,1c-0.2,0.4-0.4,0.8-0.6,1.2
							c-0.2,0.4-0.5,0.8-0.8,1.3c-1.1,1.8-2.8,3.7-4.8,5.6c-2.1,1.8-4.6,3.5-7.5,4.8c-5.7,2.6-11.4,3.2-15.5,3.1
							c-1,0-1.9-0.1-2.7-0.1c-0.8-0.1-1.5-0.1-2.1-0.2c-1.1-0.2-1.8-0.3-1.8-0.3s0.6-0.3,1.5-0.9c0.5-0.3,1.1-0.6,1.8-1
							c0.7-0.4,1.5-0.8,2.3-1.2c3.5-1.8,8.1-4.1,13.1-6.4c2.5-1.1,4.9-2.2,7.1-3.2c2.1-1,4.1-2,5.8-2.9c0.4-0.2,0.8-0.4,1.2-0.7
							c0.4-0.2,0.7-0.4,1-0.6c0.3-0.2,0.6-0.4,0.9-0.6c0.3-0.2,0.5-0.4,0.7-0.5C442.4,635.4,443,635,443,635z"/>
					</g>
				</g>
			</g>
			<g class="st3">
				<g>
					<g>
						<path class="st4" d="M234,473c0,0,0,0.8,0,2.3c0,0.4,0,0.8,0,1.2c0,0.4,0,0.9,0,1.4c0,1,0,2.2,0.1,3.4c0,0.6,0.1,1.3,0.1,2
							c0,0.7,0.1,1.4,0.2,2.1c0.1,1.4,0.3,3,0.4,4.6c0.4,3.2,0.9,6.6,1.6,10.3c0.7,3.6,1.4,7.1,2.1,10.2c0.4,1.6,0.7,3.1,1.1,4.5
							c0.2,0.7,0.4,1.4,0.5,2.1c0.2,0.7,0.4,1.3,0.5,1.9c0.3,1.2,0.7,2.3,1,3.3c0.1,0.5,0.3,1,0.4,1.4c0.1,0.4,0.3,0.8,0.4,1.1
							c0.4,1.4,0.7,2.2,0.7,2.2s-0.6-0.5-1.7-1.6c-0.3-0.3-0.6-0.5-0.9-0.9c-0.3-0.3-0.6-0.7-1-1.1c-0.7-0.8-1.5-1.7-2.3-2.8
							c-0.4-0.5-0.8-1.1-1.2-1.7c-0.4-0.6-0.8-1.3-1.2-1.9c-0.9-1.3-1.6-2.8-2.4-4.4c-1.5-3.2-2.8-7-3.6-11
							c-0.7-4.1-0.8-8.1-0.5-11.6c0.2-1.8,0.4-3.5,0.8-5c0.2-0.8,0.3-1.5,0.6-2.2c0.2-0.7,0.4-1.4,0.7-2c0.4-1.3,0.9-2.4,1.4-3.4
							c0.2-0.5,0.4-0.9,0.6-1.3c0.2-0.4,0.4-0.8,0.6-1.1C233.5,473.7,234,473,234,473z"/>
					</g>
				</g>
			</g>
			<g>
				<g>
					<path d="M603,350c-0.2-2.2-0.4-4.3-0.6-6.6c-0.5-4.6-1.2-9.5-2.2-14.6c-1.1-5.1-2.5-10.5-4.7-15.8c-2.3-5.3-5.4-10.7-10-15
						c-2.3-2.2-4.9-4-7.7-5.3c-2.8-1.3-5.7-2.2-8.6-2.7c-2.9-0.5-5.9-0.7-8.8-0.4c-2.9,0.3-5.6,1.1-8.1,2.2c-5,2.2-9,5.5-12.3,8.8
						c-3.3,3.3-6,6.8-8.3,9.9c-0.3,0.5-0.7,0.9-1,1.4c0.2,0.2,0.4,0.4,0.5,0.7c0.2,0.3,0.4,0.6,0.6,0.9c0.5-0.6,1-1.2,1.5-1.8
						c2.5-3,5.3-6.2,8.6-9.2c3.3-3,7.2-5.9,11.7-7.7c2.3-0.9,4.7-1.5,7.2-1.7c2.5-0.2,5,0,7.7,0.5c5.2,1,10.3,3.4,14.3,7.2
						c4.1,3.8,7,8.6,9.3,13.6c2.2,5,3.7,10.1,4.9,15c1.2,4.9,2.1,9.7,2.8,14.2c0.4,2.2,0.7,4.5,1,6.5c0.1,1,0.3,2,0.4,3
						c0,1,0.1,2,0.1,2.9c0.1,1,0,1.9,0,2.8c0,0.9,0,1.8-0.1,2.7c-0.2,1.7-0.3,3.4-0.5,4.9c-0.2,1.5-0.4,2.9-0.7,4.2
						c-0.2,1.3-0.4,2.5-0.7,3.6c-0.9,4.3-1.4,6.6-1.4,6.6s0.2-0.6,0.5-1.7c0.3-1.1,0.8-2.7,1.4-4.8c0.3-1,0.6-2.2,1-3.5
						c0.4-1.3,0.7-2.7,1-4.2c0.4-1.5,0.6-3.2,0.9-4.9c0.2-0.9,0.2-1.8,0.3-2.7c0.1-0.9,0.2-1.9,0.2-2.9c0-1,0-2,0.1-3.1
						C603.2,352.1,603.1,351.1,603,350z"/>
				</g>
				<g>
					<g>
						<g>
							<path d="M564.4,455.4c0,0,1-1.1,2.7-3c1.7-1.9,4.2-4.7,6.8-8.5c0.6-0.9,1.3-1.9,1.9-3c0.6-1.1,1.3-2.2,1.9-3.4
								c1.4-2.3,2.7-4.9,4-7.5c2.6-5.4,5.1-11.6,7.3-18.1c4.4-13.2,7.2-25.6,9.6-34.6c2.3-9,3.9-14.5,3.9-14.5s-0.7,5.7-2,14.8
								c-0.7,4.6-1.5,10-2.7,16c-1.2,6-2.8,12.6-5.1,19.4c-2.3,6.8-5,13-8.1,18.4c-1.6,2.7-3.1,5.2-4.7,7.4
								c-0.8,1.1-1.6,2.2-2.3,3.3c-0.7,1-1.5,2-2.3,2.9c-3.1,3.6-6,6-7.9,7.7c-1,0.8-1.8,1.5-2.3,1.9
								C564.6,455.2,564.4,455.4,564.4,455.4z"/>
						</g>
					</g>
				</g>
				<g>
					<g>
						<g>
							<path d="M550.3,424.9c0,0,0-0.4-0.1-1.1c-0.1-0.7,0-1.8,0.2-3.1c0.2-1.4,0.8-3,2-4.6c1.2-1.6,2.9-3.1,4.8-4.6
								c1.9-1.5,3.9-3.1,5.6-5.3c0.8-1.1,1.5-2.2,1.7-3.5c0.2-1.3,0-2.6-0.6-3.9c-0.6-1.3-1.5-2.5-2.6-3.7c-0.5-0.6-1.1-1.2-1.7-1.7
								c-0.6-0.6-1.3-1.2-1.9-1.8c-2.5-2.6-4.7-5.5-6.6-8.8c-3.9-6.5-6.2-13.3-7.4-19.7c-1.2-6.4-1.1-12.3-0.4-17.1
								c0.8-4.8,2.3-8.5,3.5-11c0.6-1.2,1.2-2.1,1.6-2.7c0.4-0.6,0.6-0.9,0.6-0.9s-0.2,0.3-0.5,1c-0.3,0.6-0.8,1.6-1.3,2.8
								c-1,2.5-2.1,6.2-2.5,10.9c-0.4,4.7-0.1,10.4,1.2,16.5c1.4,6.1,3.8,12.6,7.5,18.8c1.8,3.1,3.9,5.9,6.2,8.4
								c0.6,0.6,1.1,1.2,1.8,1.8c0.6,0.6,1.2,1.2,1.8,1.9c1.1,1.3,2.2,2.7,2.9,4.4c0.7,1.6,1,3.5,0.6,5.2c-0.4,1.7-1.3,3.1-2.3,4.2
								c-1.9,2.3-4.2,3.8-6.2,5.2c-2,1.4-3.7,2.6-4.9,4c-1.2,1.4-1.9,2.9-2.2,4.2c-0.3,1.3-0.5,2.3-0.5,3
								C550.4,424.5,550.3,424.9,550.3,424.9z"/>
						</g>
					</g>
				</g>
				<path class="st5" d="M544.1,359.9c2.8,1,4.6,4.3,7.9,5.4c3.7,1.2,7.9,1.2,11.9,1.4c7.7,0.5,16.3,1.3,23-2.5
					c-9,8.7-30.7,5.8-41.6,2.5c1.9,6,4.5,8.9,10.9,9.7c5.5,0.7,14.4,1.5,19.1-1.4c-5.5,5.7-17.7,3.4-25.3,3.9
					c3.8,6.5,7.3,9,15.3,8.2c5.5-0.5,12.8-2.4,17.4-5.8c-4.2,8.5-18.4,4.3-23.9,9.9c3.7,2,4.4,6.9,8.8,7.7
					c4.1,0.8,10.5,0.1,12.7-3.7c-3.1,7.9-10.9,3.4-15.4,8.4c-6.4,7,5,9.8,10.1,7.4c0.1-0.1,0.1-0.1,0,0c-2.2,2.7-6.2,4.7-10,3.7
					c-3.3-0.9-5.6-4.8-9.3-1.5c5.6-3.9,14.5-11.2,7.4-18.4c-5.4-5.4-11.3-10-14.6-17.3c-2.6-5.6-3.2-11.2-4.4-17.2"/>
				<g>
					<g>
						<g>
							<path d="M580.5,346.3c0,0,0,0.4,0,1.2c0,0.7-0.2,1.9-0.7,3.1c-0.4,1.3-1.1,2.8-2.2,4.3c-0.3,0.4-0.5,0.8-0.8,1.1
								c-0.3,0.4-0.7,0.7-1,1.1c-0.7,0.7-1.5,1.4-2.4,2c-1.9,1.2-4,1.7-5.8,1.8c-1.8,0.1-3.4-0.1-4.7-0.4c-1.3-0.2-2.3-0.5-3.1-0.7
								c-0.7-0.2-1.1-0.3-1.1-0.3s0.4,0,1.1-0.1c0.7-0.1,1.8-0.2,3.1-0.3c2.6-0.2,6.1-0.4,9.1-2.4c1.5-1,2.8-2.1,3.9-3.4
								c1.1-1.2,2-2.4,2.7-3.5c0.7-1,1.2-2,1.5-2.6C580.3,346.7,580.5,346.3,580.5,346.3z"/>
						</g>
					</g>
				</g>
				<g>
					<g>
						<g>
							<path d="M575.4,310c0,0,0.3,0.7,0.8,2c0.2,0.7,0.6,1.5,0.8,2.5c0.1,0.5,0.2,1,0.4,1.6c0.1,0.3,0.1,0.6,0.2,0.9
								c0,0.3,0.1,0.6,0.1,0.9c0.1,1.3,0.3,2.7,0.1,4.2c-0.1,0.8-0.1,1.5-0.2,2.4c-0.2,0.8-0.3,1.6-0.5,2.5
								c-0.8,3.3-2.3,6.9-4.6,10.1c-2.2,3.2-4.9,6-7.7,8c-2.7,2-5.4,3.5-7.6,4.6c-1.1,0.6-2.2,1-3.1,1.4c-0.9,0.4-1.7,0.7-2.3,1
								c-1.3,0.5-2,0.8-2,0.8s0.6-0.4,1.8-1.2c0.6-0.4,1.3-0.8,2.1-1.4c0.8-0.5,1.8-1.1,2.8-1.9c2.1-1.4,4.4-3.1,6.9-5.2
								c2.4-2.1,4.8-4.7,6.9-7.7c2.2-3,3.6-6.2,4.6-9.2c0.2-0.8,0.4-1.5,0.6-2.2c0.2-0.7,0.2-1.5,0.4-2.2c0.3-1.4,0.3-2.7,0.4-3.9
								c0-0.3,0-0.6,0-0.9c0-0.3,0-0.6-0.1-0.8c0-0.6-0.1-1.1-0.1-1.6c0-1-0.2-1.8-0.3-2.5C575.6,310.8,575.4,310,575.4,310z"/>
						</g>
					</g>
				</g>
				<g>
					<g>
						<g>
							<path d="M561.3,313.8c0,0-0.1,0.2-0.2,0.4c-0.1,0.3-0.4,0.6-0.6,1.1c-0.5,0.9-1.1,2.1-1.8,3.2c-0.7,1.2-1.4,2.3-1.9,3.2
								c-0.3,0.4-0.4,0.8-0.5,1.1c-0.1,0.3-0.2,0.4-0.2,0.4s-0.1-0.1-0.2-0.4c-0.1-0.3-0.3-0.7-0.4-1.3c-0.2-1.1,0-2.8,0.9-4.3
								c0.9-1.5,2.2-2.5,3.3-2.9c0.5-0.3,1-0.3,1.3-0.4C561.1,313.9,561.3,313.8,561.3,313.8z"/>
						</g>
					</g>
				</g>
				<g>
					<g>
						<g>
							<path d="M572.5,445.8c0,0,0.1,0.1,0.2,0.3c0.1,0.2,0.4,0.5,0.7,1c0.6,0.9,1.1,2.4,1.4,4.2c0.2,1.9,0.2,4.2-0.4,6.7
								c-0.6,2.5-1.6,5.1-3.6,7.5c-1,1.2-2.3,2.1-3.5,2.8c-1.3,0.7-2.5,1.1-3.8,1.5c-2.5,0.7-4.8,0.7-6.7,0.3
								c-1.9-0.4-3.3-1.3-4-2.1c-0.4-0.3-0.6-0.7-0.8-0.9c-0.2-0.2-0.2-0.3-0.2-0.3s0.1,0.1,0.3,0.3c0.2,0.2,0.5,0.5,0.9,0.7
								c0.8,0.5,2.2,1,3.9,1.1c1.7,0,3.8-0.3,5.9-1.1c2.1-0.8,4.4-2,5.9-3.8c1.6-1.9,2.7-4.2,3.4-6.4c0.8-2.2,1.1-4.2,1.2-6
								c0.1-1.7-0.1-3.2-0.4-4.1c-0.1-0.5-0.3-0.8-0.4-1.1C572.5,445.9,572.5,445.8,572.5,445.8z"/>
						</g>
					</g>
				</g>
				<path class="st5" d="M580.2,436.4c-5.7,3.9-3.8,12.7-5.6,18.3c-1.9,6-5.4,12.9-12.4,13.9c-0.1,0.1-0.1,0.1,0,0
					c2.4-2.6,5.4-4.6,7-7.8c1.8-3.6,1.7-8.6,1.2-12.6c2.3-1.3,3.8-3.7,5-5.9c1.4-2.4,3.3-4.4,4.6-6.9"/>
			</g>
			<g>
				<g>
					<g>
						<g>
							<path d="M178.1,347c0,0,0.9-1.4,2.7-4c1.7-2.5,4.4-6.2,6.6-11c0.5-1.2,1-2.5,1.4-3.9c0.3-1.4,0.5-2.8,0.5-4.3
								c0-3-1.4-5.9-3.5-8.7c-0.5-0.7-1.1-1.4-1.7-2.1c-0.3-0.4-0.6-0.9-0.9-1.4c-0.3-0.5-0.5-1-0.7-1.5c-0.8-2-1-4.7,0.1-7
								c1-2.3,3.1-3.9,5.2-4.9c1.1-0.4,2.2-0.8,3.4-0.9l0.9-0.1c0.3,0,0.6,0,0.9,0c0.6-0.1,1.2,0,1.8,0.1c2.4,0.2,4.5,1,6.5,1.8
								c2,0.9,3.8,1.8,5.5,2.9c3.5,2.1,6.6,4.5,9.4,6.8c5.6,4.7,10.2,9.5,13.8,13.7c3.6,4.2,6.1,7.9,7.6,10.6
								c0.8,1.3,1.3,2.4,1.6,3.2c0.3,0.8,0.4,1.2,0.4,1.2s-0.2-0.4-0.6-1.1c-0.4-0.7-1-1.7-1.9-3c-1.8-2.5-4.6-5.9-8.5-9.7
								c-3.8-3.9-8.7-8.2-14.4-12.6c-2.9-2.1-5.9-4.3-9.3-6.2c-1.7-1-3.4-1.8-5.2-2.6c-1.8-0.7-3.6-1.3-5.4-1.5
								c-1.7-0.2-3.6,0.1-5.2,0.8c-1.6,0.7-2.9,1.7-3.5,3c-0.7,1.3-0.6,2.9-0.1,4.3c0.2,0.4,0.3,0.7,0.5,1.1c0.2,0.3,0.4,0.7,0.6,1
								c0.5,0.7,1.1,1.5,1.6,2.3c1,1.6,2,3.2,2.6,5c0.6,1.8,0.9,3.6,0.9,5.4c-0.1,1.8-0.4,3.4-0.9,4.9c-0.5,1.5-1.2,2.8-1.8,4.1
								c-2.7,4.9-5.8,8.2-7.8,10.6C179.3,345.7,178.1,347,178.1,347z"/>
						</g>
					</g>
				</g>
				<g>
					<g>
						<g>
							<path d="M192.6,426.5c0,0,0.6-1.3,1.6-3.5c0.3-0.6,0.5-1.2,0.8-1.9c0.3-0.7,0.6-1.5,0.9-2.3c0.3-0.8,0.6-1.7,0.9-2.6
								c0.1-0.5,0.2-1,0.3-1.5c0.1-0.5,0.3-1,0.3-1.5c0.1-0.5,0.1-1.1,0.2-1.6c0.1-0.6,0-1.1,0-1.7c0.1-1.2-0.2-2.4-0.3-3.6
								c-0.4-2.4-1.4-4.8-3-7.1c-1.6-2.3-3.6-4.5-5.8-6.8c-0.6-0.6-1.1-1.1-1.7-1.6l-0.8-0.8l-0.9-0.7c-1.2-1-2.6-1.9-4-2.9
								c-2.8-1.9-5.7-3.9-8-6.6c-2.3-2.6-3.8-5.7-4.6-8.8c-0.7-3.1-0.6-6.2,0.1-8.9c0.6-2.7,1.7-5,2.8-7c2.3-4,4.7-6.7,6.5-8.5
								c0.9-0.9,1.6-1.6,2.1-2c0.5-0.4,0.7-0.7,0.7-0.7s-0.2,0.3-0.6,0.8c-0.4,0.5-1,1.3-1.7,2.3c-1.5,2-3.5,5-5.3,9
								c-0.9,2-1.6,4.2-2,6.7c-0.4,2.4-0.3,5.1,0.4,7.7c0.8,2.6,2.2,5.1,4.2,7.3c2,2.2,4.6,4,7.4,5.9c1.4,1,2.8,1.9,4.2,3l1,0.8
								l1,0.9c0.7,0.6,1.2,1.2,1.8,1.8c2.2,2.4,4.3,4.8,5.9,7.5c1.6,2.6,2.7,5.6,2.9,8.4c0.1,1.4,0.2,2.7,0,4
								c-0.1,0.6-0.1,1.3-0.2,1.9c-0.1,0.6-0.3,1.2-0.4,1.7c-0.1,0.6-0.3,1.1-0.5,1.6c-0.2,0.5-0.4,1-0.5,1.5
								c-0.4,0.9-0.8,1.8-1.2,2.6c-0.4,0.8-0.8,1.5-1.2,2.2c-0.4,0.7-0.8,1.2-1.1,1.8C193.4,425.3,192.6,426.5,192.6,426.5z"/>
						</g>
					</g>
				</g>
				<g>
					<path d="M216.6,455.6c-1.1,0.6-2.3,1.2-3.6,1.8c-0.4,0.1-0.8,0.3-1.2,0.4c-0.4,0.1-0.8,0.2-1.3,0.4c-0.8,0.3-1.8,0.3-2.7,0.5
						c-1.9,0.3-4,0.3-6.1,0.2c-4.2-0.4-9-1.7-12.6-4.7c-1.8-1.5-3.2-3.3-4-5.3c-0.8-2-0.9-4.1-0.7-6.1c0.6-4.1,2.7-7.6,4.5-10.5
						c1.8-2.9,3.5-5.2,4.5-6.8c0.5-0.8,0.9-1.5,1.1-1.9c0.3-0.4,0.4-0.7,0.4-0.7s-0.2,0.2-0.5,0.6c-0.3,0.4-0.8,0.9-1.5,1.7
						c-1.3,1.4-3.2,3.4-5.5,6.1c-1.1,1.3-2.3,2.9-3.4,4.6c-1.1,1.8-2.1,3.9-2.6,6.3c-0.5,2.4-0.5,5.2,0.4,7.9c1,2.6,2.7,5,4.9,6.9
						c2.2,1.8,4.8,3.1,7.3,3.8c2.5,0.8,5.1,1.1,7.5,1.1c2.4,0,4.7-0.3,6.7-0.8c1-0.3,2-0.5,2.9-0.9c0.5-0.2,0.9-0.4,1.3-0.6
						c0.4-0.2,0.8-0.4,1.2-0.6c1.3-0.7,2.3-1.4,3.3-2.2C216.9,456.4,216.7,456,216.6,455.6z"/>
				</g>
				<g>
					<g>
						<g>
							<path d="M203.8,436.5c0,0-0.1-0.5-0.2-1.3c-0.1-0.9-0.2-2.2,0-3.8c0.1-0.8,0.3-1.8,0.7-2.7c0.4-0.9,1.1-1.9,2.1-2.7
								c0.9-0.8,2.1-1.4,3.3-2c1.2-0.5,2.5-1.1,3.7-1.8c1.2-0.8,2.3-1.7,3-3c0.7-1.3,1.1-2.8,1.2-4.5c0.1-1.6-0.3-3.2-1-4.8
								c-0.7-1.6-1.8-3.1-2.9-4.6c-1.1-1.6-2.4-3.1-3.5-5c-0.5-1-1-2-1.3-3.1c-0.3-1.1-0.3-2.4-0.1-3.6c0.2-1.2,0.6-2.4,1.2-3.4
								c0.3-0.5,0.6-1,0.9-1.5c0.4-0.5,0.7-0.9,1.1-1.4c1.6-1.7,3.5-3,5.1-4.5c3.2-2.7,4.4-6.9,4.2-10.9c-0.3-4-1.6-7.8-3.2-11.3
								c-1.6-3.5-3.5-6.7-5.2-9.7c-1.7-3.1-3.1-5.9-4.5-8.6c-2.7-5.2-4.7-9.7-5.7-12.8c-0.3-0.8-0.5-1.5-0.7-2.1
								c-0.2-0.6-0.3-1.1-0.4-1.6c-0.2-0.8-0.3-1.3-0.3-1.3s0.1,0.4,0.4,1.3c0.1,0.4,0.3,0.9,0.5,1.5c0.2,0.6,0.5,1.3,0.8,2
								c1.2,3.1,3.4,7.3,6.4,12.4c1.5,2.5,3.1,5.3,4.9,8.3c1.8,3,3.8,6.1,5.6,9.7c1.8,3.6,3.2,7.6,3.6,12.1c0.1,2.2-0.1,4.6-0.9,6.8
								c-0.4,1.1-0.9,2.2-1.6,3.2c-0.3,0.5-0.7,1-1.1,1.4l-0.6,0.7l-0.7,0.6c-1.8,1.6-3.6,2.8-5,4.3c-0.3,0.4-0.6,0.8-1,1.1
								l-0.8,1.2c-0.5,0.9-0.8,1.7-1,2.6c-0.3,1.8,0.2,3.6,1.1,5.3c0.9,1.7,2.1,3.3,3.2,4.9c1.1,1.6,2.2,3.3,3,5.1
								c0.8,1.8,1.1,3.8,1,5.7c-0.1,1.8-0.6,3.6-1.6,5.1c-1,1.5-2.3,2.5-3.6,3.3c-1.3,0.8-2.7,1.3-3.9,1.7c-1.2,0.4-2.3,1-3.2,1.7
								c-0.9,0.7-1.6,1.5-2.1,2.3c-0.5,0.9-0.7,1.7-0.9,2.5c-0.3,1.6-0.2,2.9-0.2,3.8C203.8,436.1,203.8,436.5,203.8,436.5z"/>
						</g>
					</g>
				</g>
				<g>
					<g>
						<g>
							<path d="M205.7,385.3c0,0-0.6-0.1-1.6-0.1c-1-0.2-2.6-0.5-4.2-1.7c-0.4-0.3-0.8-0.6-1.1-1.1c-0.4-0.4-0.7-0.9-1-1.4
								c-0.5-1-1-2.3-1.1-3.6c-0.3-2.7,0.5-5.6,2.1-8.1c0.8-1.3,1.7-2.5,2.7-3.4c1-0.9,2.1-1.7,3.1-2.4c2-1.4,4-2.4,4.7-3.8
								c0.3-0.7,0.3-1.4,0.2-2.1c-0.1-0.7-0.3-1.3-0.4-1.8c-0.2-1-0.4-1.6-0.4-1.6s0.3,0.5,0.7,1.4c0.2,0.5,0.5,1,0.7,1.8
								c0.2,0.7,0.5,1.7,0.2,2.7c-0.3,1.1-1.1,1.9-1.9,2.7c-0.9,0.8-1.7,1.5-2.7,2.2c-0.9,0.8-1.9,1.6-2.7,2.4
								c-0.9,0.9-1.6,1.9-2.3,3c-1.4,2.2-2.1,4.6-2.1,6.8c0,1.1,0.2,2.1,0.5,3c0.2,0.4,0.4,0.9,0.6,1.2c0.2,0.4,0.5,0.7,0.8,1
								c1.2,1.3,2.5,1.8,3.5,2.3C205.1,385.1,205.7,385.3,205.7,385.3z"/>
						</g>
					</g>
				</g>
			</g>
			<path class="st6" d="M577,314c-1.2,8.9,4.3,17.6-1.8,25.6c-5.5,7.3-13.3,8.1-20.8,10.8c5.4-2.1,11.6-7.7,15.3-12.3
				c5.3-6.5,4.6-13.1,6.9-20.4"/>
			<path class="st6" d="M576.7,353.3c1-1.1,1.9-2.8,2.7-4.2c-0.1,8.2-7.7,15.2-15.3,11c4-1.6,9.9-2,12.3-6.4"/>
			<path class="st6" d="M550,366.3c11.5,0,23.3,4.6,33.9-0.7c-5.9,2.7-10,5.9-16.9,6.3c-7.5,0.5-13.6-1.2-20.4-2.6
				c1.3,0.7,2.2,3.1,4.4,4c2.3,1,5.2,1.4,7.6,2.1c4.8,1.3,10.7,2.4,15.1,0.6c-6.1,2.4-11.7,3.4-18,5.1c-1.6,6.6,14.6,5.3,17.8,4.9
				c-2.5-0.2-6.6,1.8-7.9,4c-1.2,2-1.7,8.7,1.3,9.4c-0.9,1.5-0.7,5.3-1,7.3c-0.4,3.1,0.2,4.4,2.7,5.3c-1.7,0.1-5.5-0.6-6.4-2.3
				c-1.2-2.3,1.8-2.5,2.7-4.6c2.3-5.1-2.3-9.7-5.3-13.2c-5.5-6.4-10.6-13.5-13.7-21.3c-0.9-2.3-1.5-4.7-2.3-7
				c1.8,0.1,3.3,1.5,4.9,2.4"/>
			<path class="st6" d="M221.7,365c-3.2-7.3-7.5-14.1-11.6-20.8c-1.1-3.7-2.7-7.5-4.7-10.7c-1.9-3.1-2.4-6.3-3.8-9.4
				c-1.4,1.8-1.2,3.9-1.2,6.1c0,7.8,0.7,14.3,5.4,20.6c1,1.4,2.3,3,3.1,4.6c0.1,0.4,0.2,0.8,0.2,1.2c0.7,3.4-1,5.1-3.1,7
				c-1.3,0.9-2.7,1.9-3.2,3.1c0,0.1-0.1,0.1-0.1,0.2c-2.8,3.5-5.4,8.3-4.6,13.1c0.8,4.5,5.4,4.2,7.7,8c2.2,3.7,1.7,9.2,0.1,13
				c-2.7,6.7-1.1,14.2-4.2,20.8c-2.4,5.1-6.5,13.4-0.1,17.7c0.7,0.5,4.1,0.8,5,0.7c-3.2-0.9-3.2-3.8-3-7.9c0.1-3.4,2.5-5.5,5.7-7.1
				c0.9-0.4,1.7-0.8,2.5-1.2c0.8-0.3,1.6-0.6,2.3-1c3.5-2,5.4-6.7,4.5-10.7c-1.7-7.3-13.6-15.9-6.2-23.8c3-3.2,5.8-4.8,8.3-8.3
				C223.2,376.6,223.2,368.6,221.7,365z"/>
			<g class="st3">
				<g>
					<g>
						<path class="st4" d="M185.5,347.8c0,0-0.3,0.5-0.7,1.3c-0.2,0.4-0.5,0.9-0.8,1.5c-0.3,0.6-0.7,1.3-1,2.1
							c-0.8,1.5-1.4,3.4-1.9,5.4c-0.6,2-0.6,4.2-0.4,6.7c0.2,2.4,0.6,4.7,1.3,6.7c0.6,2,1.6,3.6,2.6,4.9c1,1.3,2.1,2.1,2.9,2.7
							c0.8,0.5,1.3,0.8,1.3,0.8s-0.5-0.1-1.5-0.3c-1-0.2-2.4-0.7-3.9-1.8c-1.5-1.1-3.1-2.8-4.3-5c-1.2-2.2-1.9-4.9-2.2-7.7
							c-0.2-2.8,0.2-5.7,1.2-8c1-2.3,2.2-4.1,3.4-5.4c0.6-0.7,1.2-1.2,1.7-1.7c0.5-0.5,1-0.9,1.4-1.2
							C185.1,348.1,185.5,347.8,185.5,347.8z"/>
					</g>
				</g>
			</g>
			<g class="st3">
				<g>
					<g>
						<path class="st4" d="M228.8,334.5c0,0-0.4-0.5-1.1-1.5c-0.3-0.5-0.7-1.1-1.3-1.8c-0.5-0.7-1.1-1.4-1.8-2.2
							c-0.7-0.8-1.4-1.7-2.3-2.5c-0.8-0.9-1.8-1.8-2.8-2.7c-2.1-1.9-4.4-3.8-6.9-5.9c-2.5-2.2-4.7-4.1-6.9-5.8
							c-2.2-1.7-4.3-3-6.1-3.9c-1.9-0.9-3.5-1.4-4.7-1.7c-0.6-0.2-1-0.2-1.4-0.3c-0.3-0.1-0.5-0.1-0.5-0.1s0.2,0,0.5-0.1
							c0.3,0,0.8-0.1,1.4-0.1c1.2-0.1,3,0,5.2,0.5c2.2,0.5,4.7,1.5,7.3,3c2.6,1.5,5.2,3.4,7.6,5.6c2.5,2.1,4.8,4.4,6.7,6.6
							c0.9,1.1,1.8,2.2,2.5,3.3c0.8,1.1,1.4,2.1,1.9,3.1c0.6,1,0.9,1.9,1.3,2.7c0.4,0.8,0.6,1.5,0.8,2.1
							C228.6,333.9,228.8,334.5,228.8,334.5z"/>
					</g>
				</g>
			</g>
			<g class="st3">
				<g>
					<g>
						<path class="st4" d="M208.5,455.8c0,0-0.1,0.1-0.2,0.1c-0.1,0.1-0.3,0.2-0.6,0.4c-0.6,0.3-1.4,0.7-2.6,0.9
							c-2.2,0.5-5.6,0.4-8.8-1.2c-1.6-0.8-3-1.8-4.1-3c-1.1-1.2-1.7-2.6-2-3.8c-0.3-1.2-0.1-2.2,0.1-2.8c0.1-0.3,0.2-0.5,0.3-0.7
							c0.1-0.1,0.1-0.2,0.1-0.2s0,0.1,0.1,0.2c0,0.2,0.1,0.4,0.2,0.7c0.2,0.6,0.5,1.3,1.1,2c1.2,1.5,3.3,2.8,5.9,4
							c2.6,1.2,5.2,2.2,7.1,2.7c1,0.3,1.8,0.4,2.4,0.5c0.3,0,0.5,0,0.7,0C208.4,455.7,208.5,455.8,208.5,455.8z"/>
					</g>
				</g>
			</g>
		</g>
	</g>
</g>
</svg>
